<svg width="16" height="16" viewBox="0 0 16 16" fill="none" xmlns="http://www.w3.org/2000/svg">
<path fill-rule="evenodd" clip-rule="evenodd" d="M0.5 15H15.5V7.30733L11.803 1H3.68152L0.5 7.32389V15ZM14.5254 14.0237H1.47452L1.4746 7.55601L4.28172 1.97628H11.2449L14.5254 7.57265V14.0237ZM9.87898 9.82798L12.476 12.425C12.4836 12.4326 12.4896 12.4416 12.4938 12.4516C12.4979 12.4615 12.5 12.4722 12.5 12.483C12.5 12.4937 12.4979 12.5044 12.4938 12.5144C12.4896 12.5243 12.4836 12.5334 12.476 12.541L12.04 12.976C12.0324 12.9836 12.0233 12.9896 12.0134 12.9938C12.0034 12.9979 11.9927 13 11.982 13C11.9712 13 11.9605 12.9979 11.9506 12.9938C11.9406 12.9896 11.9316 12.9836 11.924 12.976L9.32698 10.38C8.80598 10.782 8.16998 11 7.49999 11C6.69799 11 5.94499 10.688 5.379 10.121C4.813 9.55498 4.5 8.80098 4.5 7.99999C4.5 7.19799 4.812 6.44499 5.379 5.879C5.94499 5.313 6.69899 5 7.49999 5C8.30098 5 9.05498 5.312 9.62098 5.879C10.187 6.44599 10.5 7.19799 10.5 7.99999C10.5 8.66998 10.282 9.30698 9.87898 9.82798ZM7.49999 10.24C8.09798 10.24 8.65998 10.007 9.08398 9.58398C9.50698 9.16098 9.73998 8.59798 9.73998 7.99999C9.73998 7.40199 9.50698 6.83999 9.08398 6.41599C8.66098 5.992 8.09798 5.76 7.49999 5.76C6.90199 5.76 6.33999 5.993 5.91599 6.41599C5.493 6.83899 5.26 7.40199 5.26 7.99999C5.26 8.59798 5.493 9.15998 5.91599 9.58398C6.33999 10.007 6.90199 10.24 7.49999 10.24Z" fill="white" fill-opacity="0.65"/>
</svg>
