<svg width="16" height="16" viewBox="0 0 16 16" fill="none" xmlns="http://www.w3.org/2000/svg">
<path d="M12.0012 3.86281L11.9823 1.83438C11.9806 1.64917 11.8352 1.5 11.6564 1.5H4.32754C4.14628 1.5 3.99982 1.65323 4.00161 1.84103L4.02052 3.863H0.32593C0.145928 3.863 0 4.0142 0 4.2007V14.1623C0 14.3488 0.145928 14.5 0.32593 14.5H15.6741C15.8541 14.5 16 14.3488 16 14.1623V4.2007C16 4.0142 15.8541 3.863 15.6741 3.863H12.0012V3.86281ZM5.15137 2.68298H10.8486L10.8597 3.863H5.16243L5.15137 2.68298V2.68298ZM14.8584 5.04579V8.57439H10.865V7.16683C10.865 6.98033 10.7191 6.82913 10.5391 6.82913H5.4814C5.3014 6.82913 5.15547 6.98033 5.15547 7.16683V8.57439H1.14174V5.04579H14.8584ZM9.72331 8.01229V9.75053H6.29721V8.01229H9.72331ZM1.14174 13.317V9.75755H5.15547V10.5958C5.15547 10.7823 5.3014 10.9335 5.4814 10.9335H10.5391C10.7191 10.9335 10.865 10.7823 10.865 10.5958V9.75755H14.8584V13.317H1.14174V13.317Z" fill="white" fill-opacity="0.65"/>
</svg>
