<svg width="228" height="33" viewBox="0 0 228 33" fill="none" xmlns="http://www.w3.org/2000/svg">
<g clip-path="url(#clip0_2041_38073)">
<path d="M0 23.0232L0.0607997 22.9562C1.05816 22.9562 2.18729 21.6528 3.44818 19.0459L5.59495 14.5448L6.11795 13.7591C6.11795 13.7165 6.35512 13.217 6.83555 12.2608L7.94238 10.3056L8.49578 9.13009C8.71008 8.6095 9.00569 8.12637 9.37151 7.69877L9.89455 7.08968L11.1108 5.06753C11.9805 4.33054 12.394 3.89809 12.3271 3.76409L12.2602 3.63617L11.4149 3.959C11.7595 2.91544 12.1183 2.37337 12.4913 2.33276C13.0879 2.38203 13.6498 2.63337 14.0846 3.04538C14.5531 3.37198 14.989 3.74322 15.3861 4.15391C15.4969 4.26856 15.5856 4.40277 15.6476 4.54979L15.7145 5.26244C15.5178 5.50091 15.3001 5.72105 15.0638 5.92022L15.3861 6.31004L20.008 11.9197L20.9202 13.284C21.3933 13.9133 22.0567 14.3726 22.8116 14.5936L25.3475 15.5681C25.7372 15.8357 26.166 16.0411 26.6186 16.1772C27.2863 16.4335 27.8961 16.8208 28.4126 17.3161C28.8985 17.705 29.3539 18.1306 29.7748 18.5891L30.6262 19.9596C30.8347 20.2065 30.9881 20.4951 31.0762 20.8062C30.9911 21.2386 30.4255 21.4152 29.3856 21.4152C29.1022 21.427 28.8183 21.4046 28.5403 21.3483L26.7158 20.6356L25.609 20.5016L24.113 20.0448C23.3027 19.9036 22.5216 19.6278 21.802 19.2287C21.3367 18.891 20.9472 18.4594 20.6587 17.9618L19.8134 16.6523L18.1836 14.5022L17.0159 12.6749L16.0368 11.1522L14.5408 8.71592L13.5677 7.73531L12.4366 9.47727L9.82762 14.5631L9.76682 14.825L9.50532 14.8859L7.48628 18.6683L6.76867 19.9778L5.46723 21.6589L5.078 21.5249C4.74633 21.9116 4.37538 22.2627 3.97117 22.5725C3.67741 22.7539 3.33699 22.8449 2.99207 22.8344L2.34135 23.3522L2.01905 23.0902C1.68699 23.4153 1.2617 23.6283 0.802757 23.6993L0.869644 23.2425L0.346648 23.3704L0 23.0232ZM5.66184 27.0675L6.50717 27.0005L6.76867 27.2624C7.43884 27.0505 8.08337 26.7645 8.69039 26.4097C9.18907 26.1113 9.56005 25.8676 9.79722 25.6971C10.0344 25.5266 10.1682 25.3621 10.1864 25.2037C10.2054 25.0351 10.1713 24.8648 10.0891 24.7165C9.87199 24.4784 9.60662 24.2894 9.31071 24.1622C9.06629 23.9891 8.86129 23.7661 8.70929 23.5078C8.55728 23.2495 8.46171 22.9619 8.42889 22.6639C8.25669 22.0812 8.18069 21.4743 8.20388 20.8671C8.20169 20.3221 8.34555 19.7865 8.62046 19.3162C8.89537 18.8459 9.29126 18.4581 9.76682 18.1932C10.1302 17.9462 10.5472 17.7896 10.9831 17.7364C11.1536 17.795 11.3285 17.8399 11.5061 17.8704L12.4792 18.3272L13.4583 18.5221L13.586 18.2602C13.5148 18.1627 13.4613 18.0535 13.4279 17.9374C13.3972 17.797 13.3972 17.6515 13.4279 17.5111L13.5252 17.0542C13.5442 16.87 13.5442 16.6843 13.5252 16.5C13.484 16.2991 13.484 16.0919 13.5252 15.8909L13.592 14.9773C13.2219 14.6974 12.8924 14.3673 12.6129 13.9966L11.6399 12.5653C11.5487 12.5227 11.5304 12.4739 11.573 12.4313L11.6399 12.3034C11.8954 12.3874 12.1372 12.5085 12.3575 12.6628C12.6555 12.8577 13.1785 13.1622 13.9205 13.5764C14.4873 13.8566 14.9952 14.2433 15.4165 14.7154C15.6346 15.0093 15.8376 15.3142 16.0246 15.629C16.1706 15.8909 16.2801 16.098 16.347 16.2381C16.403 16.3358 16.4264 16.4489 16.4139 16.5609C16.4139 16.6279 16.3165 17.0055 16.1828 17.6999C16.5934 17.6562 17 17.5809 17.399 17.4745C17.6251 17.4079 17.8545 17.353 18.0863 17.31L19.7769 17.9618C19.9107 18.3577 20.1235 18.5709 20.4276 18.6135L20.4945 19.0094C19.8418 19.4155 18.4957 19.7626 16.4564 20.0509C16.4263 20.1567 16.4039 20.2646 16.3895 20.3737L16.5233 21.6832L16.3895 22.0731C16.3525 22.1768 16.332 22.2858 16.3287 22.3959V22.9197C16.2819 23.1344 16.2819 23.3567 16.3287 23.5714L16.2618 23.7663L16.3287 24.6129L16.2618 25.222C16.2599 25.2813 16.2781 25.3395 16.3134 25.3871C16.3488 25.4346 16.3992 25.4688 16.4564 25.4839L17.1071 25.4169C17.1071 25.4595 17.1862 25.5144 17.3382 25.5814C17.6229 25.6617 17.9187 25.6946 18.214 25.6788C19.0836 25.7641 19.6249 25.6362 19.8438 25.2829C19.9435 25.3332 20.0577 25.3461 20.1661 25.3195L20.4276 25.2829L21.6014 26.2635L22.0575 26.3915C22.3204 26.4994 22.5539 26.6685 22.7386 26.8848C23.0308 27.0957 23.2413 27.4012 23.3346 27.7497C23.3771 28.0299 23.4197 28.1761 23.4623 28.1761L23.6569 28.6938L23.5292 28.9557C23.3671 29.0498 23.1903 29.1157 23.0062 29.1506L21.8325 29.0227L21.1209 29.0836C21.0324 29.061 20.9532 29.0113 20.8943 28.9414C20.8354 28.8715 20.7998 28.7849 20.7925 28.6938L20.4702 28.7608L20.5979 29.0836L19.7526 29.0227L19.6857 28.8887L18.7735 29.0836L18.5789 28.4745C17.9103 28.3691 17.2361 28.304 16.5598 28.2796L16.3652 28.0847H15.3253L15.1307 28.2796C14.6196 28.2163 14.1007 28.2718 13.6145 28.4419C13.1283 28.6119 12.6878 28.892 12.3271 29.2602C12.1313 29.2874 11.9433 29.3558 11.7757 29.4607C11.608 29.5657 11.4643 29.7049 11.3541 29.8693L11.4149 29.9972C9.63912 30.5616 8.22012 30.584 7.15789 30.0642V29.8023C6.85787 29.6346 6.61121 29.3855 6.44633 29.0836L6.18483 28.4319L5.79561 27.7193L5.72872 27.3233L5.66184 27.0675ZM12.692 25.5022H13.8657L12.9961 24.4546C13.1747 24.0659 13.3054 23.6568 13.3853 23.2364L13.3245 20.4285C13.3596 20.3181 13.4023 20.2103 13.4522 20.1057L13.3853 19.7768L13.4522 19.1251L13.3853 18.8023C12.8775 18.7396 12.3766 18.6295 11.8892 18.4734C11.6804 18.4167 11.461 18.4109 11.2494 18.4564C11.0378 18.502 10.8401 18.5976 10.673 18.7353C10.6243 18.8206 10.6243 18.8876 10.673 18.9302L10.6061 19.5393C10.6438 19.7733 10.7332 19.9959 10.8676 20.191C11.0231 20.4524 11.1321 20.7389 11.1899 21.0376V22.0792C11.1899 22.1705 11.2264 22.4385 11.2872 22.8953C11.3296 23.2263 11.3947 23.5539 11.4818 23.876C11.8304 24.4568 12.2358 25.0016 12.692 25.5022Z" fill="white"/>
<path d="M34.7695 26.4097C34.8821 26.4137 34.9942 26.3929 35.098 26.3489L35.9432 26.4767C36.2414 26.562 36.5574 26.562 36.8555 26.4767C36.9436 26.4678 37.0298 26.4452 37.1109 26.4097C37.2447 26.3671 37.6765 26.2636 38.4184 26.087L41.3436 24.9114L44.0802 23.9369C44.0377 23.675 44.0134 23.5227 44.0134 23.4801L43.5573 22.6274V22.3045L42.9065 21.3239C43.0264 21.2228 43.1273 21.1011 43.2045 20.9646C43.2045 20.9037 43.2532 20.7392 43.3018 20.4773L43.4295 19.9596C43.4295 19.9109 43.4296 19.588 43.4965 18.979L43.5573 16.9568L43.168 17.1517C42.9649 17.4342 42.822 17.7556 42.7484 18.0958C42.5927 18.6033 42.389 19.0948 42.1403 19.5637L42.268 20.4103L42.1403 20.6113H41.7511L41.4895 20.9341C40.9522 20.8824 40.4473 20.6531 40.0543 20.2824C39.9692 20.1119 39.8719 19.9352 39.7624 19.7586C39.6759 19.6445 39.6194 19.5105 39.5982 19.3688L39.5374 18.6501C39.4888 18.6501 39.4401 18.5648 39.3732 18.3943C39.297 18.1809 39.242 17.9606 39.209 17.7364C39.2311 17.1525 39.3632 16.5781 39.5982 16.0432C39.8263 15.2831 40.1799 14.5667 40.6442 13.9236C41.076 13.3145 41.3983 13.0465 41.6173 13.0465C41.6341 13.0654 41.6547 13.0806 41.6778 13.091C41.7008 13.1015 41.7258 13.1071 41.7511 13.1074V13.3023L41.8788 13.4363C41.9255 13.5374 41.9484 13.6478 41.9456 13.7592L42.2072 14.0211C42.0734 14.892 42.0126 15.4159 42.0126 15.5864L41.9456 16.8046C42.0163 16.8105 42.0873 16.8016 42.1543 16.7785C42.2213 16.7555 42.2828 16.7187 42.3349 16.6705L42.7241 16.2137L43.5694 15.3671L43.5086 9.62957C43.466 9.62957 43.3991 9.54431 43.314 9.36767L43.0525 8.91086L41.8362 7.54043C42.2741 7.67443 42.5964 7.7597 42.8153 7.80233L44.1837 8.45405C45.704 9.06313 46.5676 9.51994 46.7865 9.82448L47.048 10.866L47.3703 11.5177C47.1722 11.8069 46.9993 12.1125 46.8534 12.4313C46.7346 12.8269 46.6692 13.2366 46.6588 13.6495C46.6092 14.1253 46.6092 14.605 46.6588 15.0809L46.7196 16.5792L46.525 19.1922C46.5889 19.8978 46.5787 20.6082 46.4946 21.3117C46.4347 21.4323 46.4114 21.5679 46.4277 21.7016C46.4466 21.7633 46.4804 21.8194 46.526 21.865C46.5716 21.9107 46.6276 21.9445 46.6892 21.9635C46.8413 22.0244 47.7656 21.1473 49.4563 19.32L49.5232 17.103V10.7625C49.5232 10.6772 49.5231 10.4336 49.584 10.0437L49.7178 8.86822C49.7251 8.53971 49.7679 8.21298 49.8455 7.89371C49.856 7.81692 49.856 7.73905 49.8455 7.66225C49.8298 7.63772 49.8214 7.60917 49.8214 7.58002C49.8214 7.55087 49.8298 7.52233 49.8455 7.49779C49.9285 7.44177 49.9941 7.36358 50.035 7.27206C50.0758 7.18055 50.0902 7.07939 50.0766 6.98009C50.0546 6.73623 50.0878 6.49052 50.1739 6.26134L50.4354 4.95793C50.0401 4.39149 49.6509 3.78241 49.2617 3.13069H48.8785L48.2704 4.23922L48.2096 4.56811C48.2096 4.83002 48.1731 4.86046 48.1123 4.66555C48.049 4.53253 48.036 4.38108 48.0758 4.23922L48.4042 3.52047C48.4052 3.50258 48.4026 3.48466 48.3963 3.46787C48.39 3.45108 48.3802 3.43581 48.3677 3.42304C48.3332 3.36341 48.3124 3.29682 48.3069 3.22813C48.2815 3.11006 48.2692 2.98956 48.2704 2.86879V2.54596C49.7482 2.54596 50.703 2.77132 51.2321 3.22813C51.8244 3.80009 52.3396 4.44716 52.7646 5.15284C53.135 5.65283 53.4111 6.21632 53.5795 6.81562C53.5811 7.28749 53.526 7.75783 53.4153 8.2165C53.2939 8.81705 53.1209 9.40599 52.8984 9.97675L52.9592 10.3056V10.5675L53.1538 10.7625V10.8904L52.9592 11.0244V11.2193L52.7646 11.4142C52.7203 11.4676 52.6908 11.5317 52.679 11.6001C52.6673 11.6685 52.6738 11.7389 52.6977 11.804L52.7646 12.5227L52.6977 13.4363C52.6513 13.7391 52.6513 14.0472 52.6977 14.35V16.1102C54.1735 14.6728 54.9985 13.7592 55.1728 13.3693C55.3183 13.0995 55.3975 12.7989 55.4039 12.4923C55.3595 12.2438 55.2597 12.0086 55.112 11.804L55.3066 11.6761C55.0877 11.2375 54.8505 11 54.589 10.9574L53.6768 10.8904L53.6099 10.7625L54.1329 10.5006C54.3781 10.6586 54.6701 10.7274 54.96 10.6955C55.0539 10.8104 55.1745 10.9005 55.3113 10.9578C55.4481 11.0152 55.5968 11.038 55.7445 11.0244C56.5719 11.3784 57.2585 11.9975 57.6966 12.7846C58.0392 13.3841 58.2468 14.0515 58.3048 14.7398C58.3426 15.2087 58.2632 15.6797 58.0737 16.1102C57.5507 17.1944 55.6634 18.4775 52.4119 19.9596V20.5687L52.1504 20.8915C52.1815 20.9759 52.2019 21.0639 52.2112 21.1534L52.0835 21.5432C52.0409 21.6487 52.0409 21.7666 52.0835 21.8721L52.1504 22.5908C52.5602 22.5604 52.9721 22.6037 53.3667 22.7187L54.9296 22.7857C55.312 22.9547 55.7285 23.0319 56.1459 23.0111C56.6244 23.0022 57.096 23.1266 57.5081 23.3704L59.7218 22.9806L60.7678 23.9613H61.0901C61.309 24.2171 61.5158 24.479 61.6983 24.7409C61.9041 25.0213 62.0891 25.3165 62.2517 25.624C62.3742 25.8291 62.4721 26.0478 62.5436 26.2758C62.5683 26.3737 62.5576 26.4774 62.5132 26.5681C62.386 26.867 62.1547 27.1094 61.8624 27.2503C61.5584 27.4025 61.3638 27.4574 61.2543 27.4147C61.0428 27.3494 60.839 27.2616 60.6461 27.1528C59.6402 26.8643 58.6026 26.7006 57.5568 26.6655C55.8357 26.5133 54.8505 26.4158 54.589 26.3732C54.1828 26.3696 53.7766 26.39 53.3727 26.4341L53.4396 26.1783L53.2389 25.9834C53.0388 26.0233 52.8339 26.0336 52.6308 26.0139L51.8159 25.8494C51.416 25.7672 51.0075 25.7344 50.5996 25.7519C50.203 25.7786 49.8099 25.8439 49.4259 25.9468C49.1172 26.0363 48.802 26.1015 48.4832 26.1417C48.395 26.1449 48.3085 26.1672 48.2297 26.2071C48.1509 26.2471 48.0818 26.3038 48.0271 26.3732C47.4329 26.4756 46.8459 26.616 46.2696 26.7935C45.6189 26.9884 45.2297 27.098 45.0959 27.1224L44.8343 27.1528L44.5728 27.2868C44.5303 27.3295 43.837 27.5426 42.493 27.9385C41.9702 28.2688 41.3799 28.477 40.7658 28.5476C40.4211 28.5922 40.0709 28.5373 39.7563 28.3893L39.3002 28.1943H37.8711C37.6859 28.1602 37.5085 28.0921 37.3481 27.9934C37.0019 27.8075 36.6741 27.5893 36.369 27.3417C36.1006 27.1066 35.8069 26.9023 35.4932 26.7326C35.3221 26.6673 35.174 26.5528 35.0675 26.4036C35.0224 26.4296 34.9714 26.4438 34.9193 26.4449C34.8672 26.446 34.8157 26.4339 34.7695 26.4097ZM46.3243 23.1512L49.7786 22.4995L49.6448 21.5188L49.3225 21.3605C49.0421 21.4338 48.7767 21.5554 48.538 21.7198L47.9298 22.0426L47.7352 22.2376H47.4068C47.2791 22.2802 46.975 22.3715 46.4946 22.4995V22.8771C46.227 23.0233 46.1662 23.1085 46.2939 23.1512H46.3243Z" fill="white"/>
<path d="M70.4492 9.65392L70.6438 9.45901L70.583 8.93521C70.7542 8.63292 70.8638 8.29961 70.9053 7.95459L71.0999 7.75968L71.0391 7.63176L71.4284 6.91305H71.8175V6.30397L72.596 6.43189L72.8575 6.76078C72.6811 6.98005 72.6021 7.12623 72.6264 7.21759C72.6941 7.38978 72.7818 7.55337 72.8879 7.70489C72.9905 7.83538 73.1251 7.93705 73.2785 8.00002C73.432 8.06299 73.5991 8.08511 73.7636 8.06422L75.5881 7.6744C76.1904 7.52283 76.7785 7.31904 77.3456 7.06532C78.6501 6.61385 79.991 6.27559 81.3533 6.05427C83.2832 5.68882 84.542 5.56901 85.1299 5.69489C85.738 5.82889 86.0847 5.82889 86.2367 5.69489C86.3888 5.56089 86.8084 5.63399 87.5078 5.8959C87.5929 5.93853 88.2558 6.20046 89.4903 6.67554C90.3827 6.99845 91.2421 7.40637 92.0567 7.8937C92.4653 8.19028 92.807 8.56968 93.0596 9.00729C93.3121 9.44489 93.4697 9.93088 93.5223 10.4336C93.4737 10.7381 93.4129 10.9147 93.3216 10.9574H92.9324C92.7959 11.0205 92.6558 11.0754 92.5128 11.1218C92.3342 11.1816 92.1477 11.2145 91.9594 11.2193C91.5825 11.2581 91.2019 11.2016 90.8526 11.0548C90.6256 10.9816 90.4074 10.8835 90.2019 10.7624C90.1106 10.7624 89.8735 10.7624 89.4842 10.8294L86.553 10.3726C85.9874 10.33 85.0569 10.33 83.7555 10.3726C83.6211 10.6333 83.5641 10.9271 83.5913 11.2193C83.5913 11.5238 83.7737 11.6517 84.0778 11.6091C84.6414 11.3898 85.9428 11.737 87.9821 12.6506C89.241 13.3023 89.8978 13.7408 89.9404 13.954L90.0012 14.6118C89.7749 14.8136 89.5874 15.0551 89.4478 15.3245C89.3663 15.6119 89.3233 15.9089 89.32 16.2076C89.32 16.6218 89.2653 16.9994 89.2227 17.3466L88.9612 18.717C88.8925 19.2016 88.795 19.6816 88.6693 20.1545C88.1988 21.0831 87.5966 21.9386 86.8814 22.6944L87.0091 23.0232L86.8145 23.2182C86.1931 23.249 85.5739 23.3141 84.9596 23.4131C84.5375 23.5041 84.0988 23.481 83.6886 23.3461C83.4726 24.6609 83.3628 25.9909 83.3602 27.3234L83.1656 28.1761L83.0379 29.2176L82.9041 29.6074C82.8189 29.778 82.7946 29.8876 82.8433 29.9363L82.9041 30.454L82.6487 30.588L82.7095 31.1971L82.3203 31.5869C82.3518 31.8356 82.3518 32.0874 82.3203 32.3361C82.2711 32.596 82.1463 32.8354 81.9615 33.0243H81.7182L81.6513 32.9574C81.6928 32.9581 81.7336 32.9463 81.7683 32.9235C81.803 32.9006 81.8301 32.8679 81.8459 32.8295V32.6955C81.7182 32.5675 81.6695 32.4823 81.7182 32.4397L81.779 32.3056H81.5236C81.5281 31.8985 81.5058 31.4916 81.4567 31.0875L81.2621 30.4358V29.2602L81.0675 29.1263C81.0411 28.5017 80.9638 27.8805 80.8364 27.2686C80.7437 27.0071 80.7105 26.7283 80.7391 26.4524L80.806 26.1296L80.5445 25.8676C80.5018 25.6306 80.4916 25.3888 80.5141 25.1489C80.5141 24.9358 80.5445 24.8018 80.5445 24.7592L80.4107 23.9795L79.6991 24.2049C79.4883 24.2695 79.269 24.3024 79.0484 24.3023C78.9531 24.2791 78.8639 24.2354 78.7869 24.1744L78.0693 23.9125C77.4829 23.6701 76.954 23.3067 76.517 22.846C76.0801 22.3853 75.7449 21.8377 75.5334 21.2386C75.1345 20.433 74.848 19.5764 74.6819 18.6927L74.6211 17.8461L74.4873 17.6512L74.4204 16.9994C73.9799 17.0389 73.536 16.9829 73.119 16.835C72.3515 16.202 71.6724 15.4686 71.0999 14.6545C70.9383 14.3753 70.8078 14.0791 70.7108 13.7713C70.5961 13.2899 70.5308 12.7981 70.5161 12.3034C70.4736 11.6091 70.4492 11.1949 70.4492 11.0853V9.65392ZM74.39 14.4474C74.3479 14.0579 74.4044 13.6642 74.5542 13.3023L74.6819 12.9795C74.7308 12.8093 74.7533 12.6327 74.7488 12.4557V11.6091C75.1048 11.7644 75.452 11.9393 75.7888 12.1329L76.701 12.9795L77.3091 13.4363L77.5037 13.2414H77.893C78.5863 12.9369 79.541 12.5674 80.7573 12.1329V10.8294L80.9519 10.6285V9.65392C80.5627 9.51992 80.1917 9.37986 79.8451 9.22759C79.6207 9.11158 79.3779 9.0353 79.1275 9.0022C78.8785 9.11808 78.6174 9.20595 78.3491 9.26413C77.9254 9.38489 77.488 9.45037 77.0476 9.45901C76.21 9.54009 75.3665 9.3817 74.615 9.0022C74.2722 8.7576 73.8864 8.57991 73.4778 8.4784L73.7393 8.7403C73.7694 8.85818 73.7694 8.98178 73.7393 9.09967C73.715 9.1687 73.6724 9.26614 73.6116 9.39202L73.3805 9.84883C73.3227 9.94977 73.2798 10.0585 73.2528 10.1717L73.0582 11.938L72.9244 12.2608C72.8452 12.3992 72.8233 12.5632 72.8636 12.7176L72.9244 13.5033V13.8931L72.6629 14.5449C72.6203 14.6728 72.7054 14.8677 72.9244 15.1539C73.0785 15.4791 73.2838 15.7773 73.5325 16.0371C73.6006 16.0837 73.677 16.1168 73.7575 16.1345L74.086 16.2015L74.2806 16.3964L74.4083 16.2625C74.4204 15.5681 74.4204 14.959 74.4204 14.4474H74.39ZM76.5064 0L76.701 0.19491V0.456811C76.9559 0.767731 77.2734 1.02124 77.6329 1.20073C77.9923 1.38021 78.3856 1.48164 78.7869 1.49835L79.0484 1.69932C79.912 1.74196 80.6296 1.75414 81.1952 1.69932C81.4117 1.67116 81.6318 1.6886 81.8412 1.75048C82.0506 1.81235 82.2449 1.91733 82.4115 2.0587C82.79 2.13023 83.1607 2.23832 83.5183 2.38149L84.1265 2.99057L84.3211 3.18548H84.5157C84.4752 3.30073 84.4647 3.42443 84.4853 3.54486C84.5042 3.60483 84.5377 3.65922 84.5826 3.70322L84.7772 3.90419C84.8197 3.9824 84.8306 4.07401 84.8076 4.16003C84.8076 4.25139 84.6677 4.31228 84.4488 4.361L84.1265 4.55591C83.9181 4.6422 83.6841 4.6422 83.4757 4.55591L83.2811 4.75082C83.1457 4.76797 83.0081 4.74467 82.8858 4.68383L82.2351 4.48892L81.2621 4.75082L80.9337 4.81781L80.5445 4.48892C80.2031 4.50756 79.8646 4.5627 79.5349 4.65339C79.3403 4.71429 78.3734 4.94574 76.6402 5.33555V5.21373C77.5463 4.77519 78.5254 4.27576 79.5654 3.70932C79.0349 3.44501 78.5246 3.14164 78.0389 2.80176C77.3473 2.16506 76.8408 1.35261 76.5733 0.450714C76.5733 0.365443 76.482 0.255827 76.3118 0.12792L76.5064 0ZM78.9815 16.7314C79.7924 16.4472 80.2485 16.2827 80.3499 16.2381V14.8676C79.6079 15.1296 79.2005 15.2209 79.1336 15.1296L77.5706 14.6728C77.6132 14.7641 77.6497 14.825 77.668 14.8676C77.6862 14.9103 77.6679 15.0443 77.5402 15.2636L77.3456 15.6534C77.3456 15.696 77.3456 15.8056 77.4429 15.9762V17.0238C77.9722 17.0584 78.5017 16.9578 78.9815 16.7314ZM77.6132 18.912L77.8747 19.1069C77.8147 19.3693 77.838 19.6441 77.9416 19.8926L78.2639 20.6113L78.5923 21.3909C79.1774 21.0749 79.7057 20.6632 80.1553 20.1728C80.2117 19.9041 80.2442 19.631 80.2526 19.3566C80.2916 19.064 80.2339 18.7667 80.0884 18.51C79.3788 18.7681 78.6092 18.8125 77.8747 18.6379L77.6132 18.912ZM81.2621 8.35051C82.4297 8.95959 83.1453 9.50166 83.4089 9.97675C84.4264 9.45717 85.4968 9.04877 86.6016 8.75859C87.4698 8.57167 88.3044 8.25333 89.0768 7.81452V7.6866C87.903 7.28079 86.6696 7.07491 85.4279 7.07752L84.5157 7.40641L83.798 7.53433L82.5818 7.99114L81.2621 8.35051ZM83.2811 20.3494L83.3419 20.8062L83.6034 20.6722L84.1508 20.4408L84.2116 20.8367C84.3728 20.8044 84.5209 20.7254 84.6377 20.6096C84.7545 20.4937 84.8347 20.3461 84.8684 20.1849L85.2576 18.8754C84.5239 19.2571 83.8565 19.7548 83.2811 20.3494ZM83.798 15.6534L83.6034 15.8483V16.3051C83.7372 16.3051 83.9197 16.3051 84.1569 16.3051C84.394 16.3051 84.54 16.3051 84.5826 16.3051L84.7772 15.9762L85.6225 16.1102C85.572 15.8959 85.572 15.6728 85.6225 15.4585L85.8171 13.1744L85.6894 13.0465H84.7103C84.6407 13.1126 84.5585 13.164 84.4687 13.1975C84.3788 13.231 84.2831 13.2459 84.1873 13.2414L83.7372 14.0211V14.283L83.6034 14.892H83.9319C83.6704 15.026 83.5609 15.0869 83.6034 15.0869L83.5365 15.5438L83.798 15.6534Z" fill="white"/>
<path d="M104.668 12.7846C105.012 12.4929 105.394 12.251 105.805 12.0659C105.846 12.0659 106.497 12.1755 107.757 12.3948L107.958 12.5897H108.347C109.26 13.1074 109.734 13.3693 109.776 13.3693L110.494 14.35L111.473 12.6506L111.279 12.3278C111.447 12.2636 111.609 12.1862 111.765 12.0964C111.966 11.8863 112.11 11.6285 112.185 11.3472C112.361 10.9147 112.537 10.7381 112.708 10.8904L112.58 11.0853L112.319 11.2802C112.349 11.5738 112.349 11.8698 112.319 12.1633C112.245 12.5638 112.137 12.9571 111.996 13.3389C111.802 13.948 111.723 14.216 111.765 14.216L111.96 14.7398C112.568 14.1307 112.939 13.8505 113.067 13.8931L113.395 14.0211L113.784 13.6312C114.565 13.4342 115.328 13.1714 116.065 12.8455L116.454 12.9795C116.562 12.8632 116.695 12.7735 116.843 12.7176L117.694 12.5227L118.668 12.0659C118.585 11.9176 118.551 11.7472 118.57 11.5786C118.641 11.3269 118.763 11.0925 118.929 10.8904C118.853 10.4501 118.82 10.0033 118.832 9.55649C118.84 9.35035 118.873 9.14592 118.929 8.94741L119.057 8.62458V7.50999L119.318 6.29183L119.385 5.1833C119.44 5.01197 119.483 4.83693 119.513 4.6595C119.4 4.28652 119.19 3.95024 118.905 3.68495C118.715 3.46958 118.512 3.26617 118.297 3.07586L117.646 2.81396C117.135 2.52474 116.759 2.04537 116.6 1.48008L117.816 1.41309C118.44 1.67959 119.03 2.01895 119.574 2.42414C119.835 2.66169 120.449 3.3256 121.429 4.41585C122.028 4.99271 122.544 5.65083 122.961 6.37101C122.989 6.54244 122.989 6.71729 122.961 6.88872C122.937 7.02271 122.882 7.33944 122.797 7.83888C122.734 8.23366 122.646 8.62419 122.535 9.00831C122.45 9.29457 122.426 9.47732 122.475 9.56259L122.535 10.1717L122.475 11.2132L122.535 11.3411C122.788 11.4971 123.085 11.5675 123.381 11.5421C123.695 11.5225 124.003 11.4418 124.287 11.3046C124.515 11.2053 124.757 11.1396 125.004 11.1096C125.219 11.1966 125.423 11.3069 125.613 11.4385C125.874 11.6091 126.275 11.8406 126.829 12.1207C127.216 12.3032 127.577 12.5345 127.905 12.809L128.556 13.6556C128.694 13.7997 128.785 13.9823 128.818 14.1794V14.35L128.556 14.6119C128.381 14.615 128.206 14.6028 128.033 14.5753C127.734 14.5851 127.439 14.6406 127.157 14.7398C126.614 14.8838 126.058 14.9715 125.497 15.0017C124.846 15.0443 124.281 15.1113 123.739 15.1966C123.376 15.2753 123.003 15.2978 122.633 15.2636C122.414 15.6139 122.3 16.0198 122.304 16.433L122.371 17.4137L122.177 17.7364C122.132 18.3444 122.119 18.9544 122.14 19.5637C122.14 20.0631 122.177 20.3981 122.177 20.5747C122.128 20.9646 122.085 21.4031 122.043 21.8782L121.654 24.5521C121.574 25.158 121.532 25.7682 121.526 26.3793C121.477 26.4219 121.477 26.5499 121.526 26.7691C121.491 26.8759 121.469 26.9862 121.459 27.098L121.264 27.3538C121.167 27.5106 121.121 27.6935 121.131 27.8777C121.091 28.1809 121.091 28.488 121.131 28.7913C121.157 29.0959 121.146 29.4026 121.1 29.7049L120.966 30.1617L120.839 31.4651L120.577 32.3117L120.644 32.6407C120.568 32.6271 120.489 32.6271 120.413 32.6407C120.346 32.6407 120.316 32.6407 120.316 32.6407C120.145 32.6407 120.042 32.464 120.024 32.1168C120.005 31.7697 120.024 31.5078 120.024 31.3311L119.695 30.1617L119.568 29.2481L119.434 28.8583V28.1396C119.391 28.1396 119.306 27.9447 119.172 27.5305L118.917 25.1855L118.783 24.8627C118.71 24.498 118.688 24.125 118.716 23.7542L118.588 22.3837V22.1218C118.541 21.8621 118.541 21.5958 118.588 21.3361L118.655 21.1412C118.655 21.056 118.655 20.794 118.588 20.3616L118.522 18.5343L118.327 17.3588C118.451 17.2078 118.541 17.031 118.588 16.8411L118.461 16.4452C118.093 16.6263 117.695 16.7378 117.287 16.7741C115.752 16.6741 114.227 16.4563 112.726 16.1224L112.337 16.3173L112.209 16.4452L112.27 17.1639C112.215 17.2642 112.194 17.3795 112.209 17.4928L112.142 17.8826L112.075 18.0775L112.209 18.7292C112.156 18.7934 112.122 18.8716 112.112 18.9546C112.112 19.0642 112.02 19.3079 111.917 19.6733C111.814 20.0388 111.564 20.861 111.2 22.1096C110.852 23.26 110.602 24.4377 110.451 25.6301C110.259 25.6913 110.055 25.7055 109.856 25.6716C109.657 25.6377 109.469 25.5567 109.308 25.4352C108.965 25.2375 108.666 24.9698 108.432 24.6495L107.648 23.1512L106.675 22.1766C106.936 21.4762 107.149 20.9585 107.326 20.5443L108.432 18.5221C108.748 17.9327 108.954 17.291 109.041 16.6279C109.065 16.1934 109.077 15.9559 109.077 15.9153L108.943 14.8677C108.229 15.1381 107.543 15.4767 106.894 15.8788C105.992 16.389 105.015 16.7529 103.999 16.9568L103.804 16.7619C102.892 16.5833 102.339 16.3335 102.144 16.0127C101.984 15.7917 101.882 15.5342 101.846 15.2636L101.719 14.5449L101.457 13.7592V13.4363C101.553 13.1722 101.697 12.9284 101.883 12.7176C102.162 12.3278 102.369 12.1755 102.491 12.2608L101.974 13.6312L102.363 13.954C103.183 13.6757 103.959 13.282 104.668 12.7846ZM106.651 3.52048V3.78242C106.994 4.24391 107.472 4.5867 108.019 4.76303H110.105C110.508 5.03632 110.946 5.25543 111.406 5.41475C112.234 5.79549 112.935 6.40648 113.425 7.17497H113.748L113.815 7.95461L113.036 7.7597C112.694 7.79075 112.356 7.85604 112.027 7.95461C111.634 8.078 111.221 8.1235 110.81 8.08859C110.449 8.06571 110.094 7.97696 109.764 7.82669C109.722 7.82669 109.448 7.89369 108.949 8.0216C108.671 8.07803 108.399 8.16589 108.141 8.2835C108.049 8.32613 108.031 8.24087 108.074 8.0216L108.986 7.56479C108.922 7.50824 108.867 7.44256 108.822 7.36988C108.664 7.24565 108.487 7.14701 108.299 7.07753C107.824 6.77237 107.434 6.35371 107.161 5.85937C106.84 5.46496 106.631 4.99184 106.553 4.48894C106.574 4.39282 106.573 4.29334 106.551 4.19756C106.529 4.10177 106.486 4.01203 106.426 3.93469C106.316 3.82506 106.286 3.75196 106.328 3.70324L106.651 3.52048Z" fill="white"/>
<path d="M146.112 9.97676C146.021 9.97676 145.966 9.97676 145.948 9.94631C145.929 9.91586 145.808 9.94629 145.589 10.0437C145.424 10.1171 145.246 10.1604 145.066 10.1717C144.513 10.2741 143.943 10.2406 143.406 10.0742C143.095 9.98256 142.807 9.82697 142.56 9.61738C142.424 9.48155 142.257 9.38118 142.074 9.32504L141.034 7.75969L140.377 7.4369V7.10797L140.985 6.91306C141.052 7.12739 141.176 7.31922 141.344 7.46735C141.471 7.53949 141.62 7.56326 141.764 7.53434L142.481 7.4369L143.491 7.30288C143.7 7.29702 143.906 7.25369 144.099 7.17496L144.707 6.78518L144.902 6.98009C145.363 6.73842 145.843 6.53472 146.337 6.37101H147.055L147.377 6.31008L148.161 6.1761L148.94 6.04818C148.982 5.49473 148.982 4.93884 148.94 4.3854C148.897 3.84332 148.818 3.5266 148.715 3.44133C148.624 3.36365 148.524 3.29812 148.417 3.24642C148.165 3.26035 147.915 3.29291 147.669 3.34386C147.358 3.40132 147.042 3.43393 146.726 3.44133C146.34 3.45904 145.957 3.36829 145.619 3.17939L145.163 3.50222C144.966 3.45333 144.785 3.35239 144.64 3.20988C144.545 3.07576 144.49 2.9173 144.482 2.75307C144.475 2.50637 144.555 2.26512 144.707 2.0709C145.096 1.41918 145.838 1.07199 146.921 1.02936C147.187 1.03023 147.452 1.07341 147.705 1.15728C148.388 1.51477 149.031 1.9413 149.627 2.43024C150.343 2.88008 150.954 3.48074 151.415 4.19049C151.576 4.5656 151.684 4.96118 151.737 5.36601C151.771 5.59211 151.793 5.81979 151.804 6.04818L151.676 6.57198L153.239 7.68051C153.365 7.8489 153.463 8.03593 153.531 8.23479C153.587 8.41223 153.676 8.57753 153.793 8.72205C153.896 8.84996 154.018 9.00223 154.152 9.17886C154.15 9.19633 154.151 9.21399 154.157 9.23076C154.162 9.24753 154.171 9.26302 154.182 9.2763C154.182 9.2763 154.182 9.2763 154.085 9.2763H153.695L153.087 9.73311C152.83 9.68926 152.567 9.68926 152.309 9.73311L151.652 10.0864L151.044 10.1473L150.849 10.2143C150.915 10.4471 151.067 10.6457 151.275 10.7686C151.512 10.8951 151.763 10.9932 152.023 11.0609L153.653 11.5847L155.149 12.4313L155.605 12.6933C156.01 12.9397 156.382 13.2364 156.712 13.5764C156.887 13.7707 157.071 13.9557 157.265 14.1307C157.328 14.1922 157.405 14.2362 157.49 14.2586L157.557 14.5205H157.125L156.864 14.8433C154.827 14.892 153.695 14.9773 153.483 15.1052H152.874L152.68 15.3671H151.652L150.022 15.7569C149.643 15.8092 149.271 15.9073 148.915 16.0493C148.806 16.106 148.709 16.1844 148.631 16.2797C148.552 16.3749 148.494 16.4851 148.459 16.6036C148.382 16.7666 148.358 16.9501 148.392 17.1274L148.459 17.5172C148.625 17.3279 148.859 17.2119 149.11 17.1944L150.089 16.9325C150.346 16.8849 150.607 16.8625 150.868 16.8655C151.868 16.9486 152.817 17.3498 153.574 18.0105C154.278 18.5277 154.894 19.1549 155.398 19.8682C155.74 20.4372 155.911 21.0927 155.891 21.7564C155.854 22.1578 155.766 22.5529 155.629 22.9319L155.368 23.3217L155.173 23.7785C154.838 24.2921 154.378 24.7114 153.835 24.9967C153.172 25.3927 152.532 25.8279 151.92 26.3001C151.566 26.5371 151.238 26.8107 150.941 27.1163L150.874 27.5061C150.959 27.8106 151.093 28.1822 151.263 28.6207C151.437 28.9867 151.461 29.4066 151.33 29.7901L151.068 30.314L150.874 30.9231L150.162 32.0316H149.901L149.639 31.7697L149.116 31.7088L148.922 31.3799C148.556 31.4093 148.19 31.3172 147.882 31.118C147.705 30.6855 147.535 30.2287 147.359 29.7536C147.323 29.6243 147.3 29.4916 147.292 29.3577L146.902 28.84C146.668 28.5915 146.501 28.2877 146.416 27.9568C146.231 27.0653 146.111 26.1615 146.057 25.2525L145.863 23.7542V23.2304C145.375 23.4066 144.952 23.7247 144.646 24.144C144.4 24.0093 144.18 23.8319 143.996 23.6201C143.824 23.3155 143.671 23.0002 143.539 22.6761C143.359 22.3464 143.27 21.9739 143.284 21.598L143.345 21.1412C143.217 21.0559 143.162 20.9768 143.187 20.9159C143.221 20.8274 143.275 20.7482 143.345 20.6844L143.673 20.4895C143.828 20.2885 143.959 20.0697 144.062 19.8378C144.239 19.4906 144.409 19.0886 144.585 18.6196C144.689 18.3145 144.82 18.019 144.975 17.7364C145.063 17.6005 145.119 17.4464 145.139 17.2857C145.139 17.1071 145.084 17.1071 144.975 17.2857L144.713 17.4806H144.324L144.129 17.6755H143.734L137.945 20.6722C137.871 20.5699 137.806 20.462 137.75 20.3494L136.965 19.5637C136.851 19.4224 136.774 19.255 136.74 19.0764C136.695 18.9373 136.66 18.7947 136.637 18.6501L136.382 18.1324V17.7364C136.371 17.5836 136.392 17.4303 136.442 17.2857C136.484 17.1995 136.552 17.129 136.637 17.0847H137.032C137.16 17.0847 137.342 16.9446 137.586 16.6645C137.834 16.37 138.107 16.097 138.401 15.8483L139.702 14.8068C142.086 12.8942 143.464 11.7735 143.837 11.4446C144.217 11.1124 144.643 10.8375 145.102 10.6285C145.474 10.4712 145.815 10.2507 146.112 9.97676ZM141.745 15.0017L142.962 14.5449C143.954 14.1724 144.97 13.8672 146.002 13.6312C146.525 13.546 146.817 13.412 146.884 13.2414C146.951 13.0709 147 12.8943 147.042 12.7176L147.498 11.2193L147.632 10.5675C147.124 10.6056 146.627 10.7378 146.167 10.9574C145.649 11.1586 145.157 11.4203 144.701 11.737L141.052 14.5449C140.335 14.9084 139.64 15.3152 138.972 15.763L138.711 16.2198L141.745 15.0017ZM148.909 24.7835C149.008 24.7884 149.107 24.776 149.201 24.747C149.268 24.747 149.42 24.5643 149.657 24.2597C149.846 24.0071 150.065 23.7781 150.308 23.5775C150.503 23.4253 150.776 23.1816 151.123 22.8588C151.47 22.536 151.981 22.1096 152.656 21.5858C152.961 21.3854 153.201 21.0997 153.346 20.7641C153.49 20.4285 153.534 20.0578 153.47 19.6977C153.337 18.9546 152.315 19.046 150.43 19.9596C148.544 20.8732 147.523 21.4336 147.438 21.5188L147.176 21.8477L146.915 21.9147L146.72 22.5238C147.545 23.1779 148.281 23.9376 148.909 24.7835ZM151.093 12.4923C151.33 12.2913 151.093 11.9806 150.405 11.5421C150.32 11.6335 150.278 11.6944 150.278 11.737L150.15 12.2608L150.016 12.7176C150.387 12.7942 150.772 12.7244 151.093 12.5227V12.4923Z" fill="white"/>
<path d="M167.92 19.5637C167.874 19.3952 167.853 19.2206 167.859 19.046C167.859 18.8267 168.164 18.65 168.772 18.5221L169.38 17.8705L173.941 14.6119C173.945 14.511 173.933 14.4102 173.904 14.3134C173.904 14.2525 173.783 14.0211 173.613 13.6312C173.421 13.1748 173.309 12.6884 173.284 12.1938C173.242 11.6335 173.211 11.2497 173.187 11.0548C173.163 10.8599 173.187 10.7381 173.187 10.6955L173.448 9.32503C173.426 9.15072 173.393 8.97787 173.351 8.80733C173.287 8.59612 173.275 8.37265 173.315 8.15561L173.381 6.45625L171.885 5.41475C171.843 5.28075 171.928 5.21983 172.147 5.21983C172.694 5.39486 173.227 5.61277 173.74 5.87156L175.139 6.52328L176.185 7.89371C176.606 7.92846 177.018 8.03774 177.401 8.2165L177.857 4.95793C177.769 4.95683 177.682 4.94663 177.596 4.92749C177.355 4.94957 177.122 5.02665 176.915 5.15284C176.397 5.31941 175.835 5.27339 175.352 5.02492C174.731 4.81163 174.21 4.37836 173.886 3.80676C174.383 3.76661 174.867 3.63442 175.315 3.41694L176.361 2.80786C176.772 2.66459 177.211 2.6219 177.642 2.68336C178.072 2.74482 178.482 2.90865 178.836 3.16114C179.791 3.70931 180.333 4.12956 180.46 4.4341L180.849 5.34772C180.594 5.56699 180.46 5.6949 180.46 5.73754L180.199 6.65116C180.375 6.61925 180.55 6.57656 180.722 6.52328L181.452 6.4319C181.66 6.37455 181.864 6.29915 182.06 6.20654C182.431 6.05427 183.276 5.78017 184.669 5.39036C185.758 5.05086 186.882 4.83231 188.02 4.73864C188.094 4.72806 188.17 4.72806 188.245 4.73864C188.269 4.75513 188.297 4.76399 188.327 4.76399C188.356 4.76399 188.384 4.75513 188.409 4.73864L189.254 4.54376C189.464 4.56512 189.669 4.61849 189.862 4.70209C190.137 4.81149 190.419 4.89909 190.707 4.96403C190.922 5.00712 191.127 5.08528 191.316 5.19545C191.548 5.38334 191.752 5.60269 191.924 5.84717H192.185L192.514 6.17V6.4319C192.212 6.47521 191.916 6.55286 191.632 6.66335C191.319 6.77731 190.991 6.84303 190.659 6.85826C190.297 6.8754 189.938 6.91812 189.582 6.98615C189.368 7.03362 189.151 7.0662 188.932 7.08362H187.953C187.563 7.21762 187.411 7.34553 187.496 7.47344L187.63 7.86932C187.502 7.96671 187.353 8.03464 187.196 8.06832C187.038 8.102 186.875 8.10061 186.718 8.06423C186.238 8.41141 185.976 8.67331 185.934 8.78294L185.611 9.43466L187.691 8.64896C187.912 8.89943 188.178 9.10604 188.476 9.25804L189.844 9.90976C189.993 10.1445 190.083 10.4121 190.105 10.6894C190.15 11.0386 190.322 13.3653 190.622 17.6694C190.718 18.4884 190.641 19.3182 190.397 20.1058C190.203 20.4956 190.124 20.7149 190.166 20.7575C190.233 21.0586 190.393 21.3312 190.622 21.5371C190.815 21.7414 190.99 21.9615 191.145 22.1949L191.407 23.1694C191.47 23.2605 191.524 23.3587 191.565 23.4618C191.59 23.5363 191.603 23.6146 191.601 23.6933L191.535 24.6069L191.273 25.5814C191.497 25.7226 191.738 25.8332 191.991 25.9103L193.621 26.1722L194.594 26.428L195.244 26.8239L195.767 27.0858C195.704 27.4713 195.536 27.8317 195.281 28.1274C195.086 28.2979 193.639 28.5476 190.951 28.8765C189.484 29.1004 188.006 29.2427 186.523 29.3029C185.637 29.3273 184.754 29.1933 183.915 28.907L181.445 27.7985L179.128 27.2442C178.135 27.0507 177.193 26.6525 176.361 26.0748C175.711 25.5753 175.346 25.3012 175.255 25.2586L172.524 25.9773C172.271 26.061 172.002 26.0819 171.739 26.0382C171.141 26.0522 170.547 25.9184 170.012 25.6484C169.514 25.3865 169.094 24.7165 168.747 23.6262C168.983 23.7787 169.248 23.8785 169.526 23.9186C170.206 23.8834 170.882 23.7855 171.545 23.6262C172.397 23.4916 173.228 23.2502 174.02 22.9075C175.376 22.0763 176.68 21.163 177.924 20.1728C177.373 20.3471 176.831 20.5505 176.301 20.7818C175.778 21.0011 175.297 21.1838 174.865 21.3361C174.58 21.4215 174.306 21.5422 174.05 21.6955C173.837 21.8871 173.634 22.0904 173.442 22.3045C173.271 22.5029 173.065 22.6681 172.834 22.7918C172.571 22.7999 172.309 22.767 172.056 22.6944C172.016 22.6658 171.986 22.6264 171.969 22.581C171.952 22.5355 171.948 22.4861 171.958 22.4386C172.004 22.3114 172.081 22.1981 172.183 22.1096L171.794 21.7868C171.837 21.4823 171.879 21.1777 171.922 20.9341C171.944 20.7412 172 20.5537 172.086 20.3799C172.253 20.2094 172.463 20.0874 172.694 20.0266C173.258 19.7526 173.794 19.4242 174.294 19.046C174.96 18.5845 175.572 18.0492 176.118 17.4502C176.421 17.0603 176.782 16.7192 177.188 16.4391C177.428 16.3051 177.525 16.1955 177.48 16.1102L177.42 16.0432C176.862 16.3169 176.327 16.6346 175.82 16.9934C175.492 17.2385 175.144 17.4564 174.78 17.6451C174.543 17.7547 174.421 17.8278 174.421 17.8705L174.294 18.1993L173.904 18.1324C173.517 18.6069 173.026 18.9862 172.469 19.2409L172.536 19.4358L172.208 19.8926V19.6307C172.061 19.6504 171.919 19.6958 171.788 19.7647C171.509 20.0297 171.247 20.3125 171.004 20.6113C170.781 20.87 170.507 21.079 170.199 21.2248C169.891 21.3707 169.556 21.4501 169.216 21.4579C168.926 21.4828 168.637 21.4029 168.401 21.2326C168.213 21.0805 168.065 20.8854 167.969 20.6638C167.872 20.4423 167.831 20.2007 167.847 19.9596C167.847 19.8243 167.872 19.6901 167.92 19.5637ZM176.027 23.4435C176.227 23.4904 176.43 23.523 176.635 23.541C177.227 23.6715 177.805 23.857 178.362 24.0952C179.392 24.4797 180.461 24.7533 181.549 24.9114V23.8029L181.743 23.608C181.737 23.4747 181.76 23.3417 181.81 23.2182L182.723 21.7807L182.917 21.3239L182.2 20.6722C182.114 20.6296 182.09 20.4773 182.139 20.2154C182.175 20.0143 182.195 19.8106 182.2 19.6063L182.139 18.6927C182.047 17.8485 182.047 16.997 182.139 16.1528C182.136 15.8674 182.157 15.5823 182.2 15.3001L182.528 12.7603C182.528 12.2103 182.593 11.6623 182.723 11.1279L183.112 9.90976C183.225 9.55352 183.402 9.22108 183.635 8.92912C183.791 8.74403 183.921 8.53925 184.024 8.32003L183.896 8.12516C183.546 8.13348 183.196 8.11103 182.85 8.05813L180.418 7.60132L179.962 7.72924L179.767 7.86322V9.4895L179.572 10.7077L179.445 13.4485C180.11 13.6188 180.717 13.9661 181.202 14.4535C181.346 14.6351 181.455 14.8416 181.524 15.0626L181.464 15.6716H181.719C180.807 16.5365 179.724 17.4989 178.466 18.4734C178.741 18.3934 179.03 18.3694 179.315 18.4029C179.6 18.4364 179.876 18.5266 180.126 18.6684C180.525 18.8321 180.906 19.0362 181.263 19.2774C181.362 19.3816 181.44 19.5035 181.494 19.6368C181.556 19.7698 181.579 19.9175 181.561 20.0631C181.356 20.4406 181.091 20.7821 180.776 21.0742C180.37 21.5489 179.871 21.9363 179.311 22.2132C178.784 22.445 178.224 22.5891 177.651 22.6395C177.181 22.636 176.727 22.81 176.38 23.1268L175.99 23.0598L175.729 23.1938C175.811 23.2955 175.912 23.3803 176.027 23.4435ZM175.802 11.2619C176.325 11.3533 176.842 11.4629 177.365 11.5908V10.1534L177.237 10.0255C176.633 10.2853 176.13 10.7341 175.802 11.3045V11.2619ZM176.258 14.4596H176.386L176.453 14.3926H176.586L176.647 14.3317V14.1977L176.586 14.0698H176.519L176.258 14.3317V14.4596ZM177.036 13.7409L177.103 13.8079H177.17L177.298 13.68L177.365 13.546V13.418L177.298 13.351L177.103 13.4851L177.036 13.6129H176.976V13.68L177.036 13.7409ZM186.353 26.0687C187.923 26.0314 189.488 25.8788 191.036 25.6118C190.901 25.4978 190.746 25.4091 190.58 25.3499L189.972 24.6982L189.516 24.5033C189.325 24.1821 189.193 23.8294 189.126 23.4618L189.059 22.938L188.342 22.6761C187.981 22.9078 187.587 23.0844 187.174 23.1999C186.785 22.9296 186.34 22.7505 185.873 22.6761C185.696 22.6641 185.518 22.6869 185.35 22.7431L184.827 23.1999L184.504 23.3948L183.981 23.9186L183.525 24.1744L182.613 25.222C183.775 25.7986 185.056 26.0948 186.353 26.087V26.0687ZM184.006 20.0692C184.157 19.684 184.342 19.313 184.559 18.9607C184.724 18.712 184.867 18.449 184.985 18.175L185.046 15.5011C185.046 15.3306 185.082 15.2331 185.143 15.2087C185.204 15.1844 185.289 15.3001 185.374 15.5377C185.43 15.6733 185.473 15.814 185.502 15.9579L185.441 16.4147C185.521 16.3949 185.597 16.3619 185.666 16.3173C185.721 16.1707 185.754 16.0167 185.763 15.8605C185.792 15.6403 185.837 15.4224 185.897 15.2087L185.994 14.8494C185.889 14.4774 185.722 14.1254 185.502 13.8079H184.985V13.2841L185.502 12.7664C185.984 12.878 186.439 13.0851 186.84 13.3754C187.06 13.6104 187.246 13.8748 187.393 14.1611C187.578 14.5411 187.677 14.9568 187.685 15.3793C187.701 15.9264 187.658 16.4737 187.557 17.0116C187.472 17.5186 187.352 18.0192 187.198 18.51C187.089 18.7328 187.043 18.9814 187.065 19.2287V19.3566H187.588C188.044 18.5109 188.31 17.5753 188.366 16.6157V15.7691L188.044 10.6833L187.977 10.3605C187.851 10.2945 187.707 10.2713 187.566 10.2943C187.426 10.3174 187.297 10.3855 187.198 10.4884C186.832 10.7184 186.45 10.9219 186.055 11.0974C185.614 11.27 185.223 11.5507 184.918 11.9136C184.669 12.4673 184.536 13.0666 184.529 13.6739L184.334 15.3671C184.243 16.5853 184.158 17.4136 184.073 17.8461V19.0216L183.811 19.7342L183.878 20.0631L184.006 20.0692ZM186.548 20.392L187.259 19.6794L186.651 19.7403L186.548 20.392Z" fill="white"/>
<path d="M200.414 25.7581L200.481 25.5631C200.955 25.4309 201.391 25.1865 201.752 24.8505C202.48 24.2332 203.049 23.4499 203.412 22.5665L205.237 18.3029L206.082 15.562C206.347 14.8294 206.651 14.1116 206.994 13.412L207.706 11.6518C207.965 10.9574 208.466 9.86918 209.208 8.38709C208.5 8.2941 207.833 8.00034 207.286 7.54046C206.897 7.24197 206.576 6.86412 206.343 6.43192C206.215 6.14264 206.137 5.83373 206.112 5.5183C206.101 5.36852 206.128 5.21832 206.191 5.0819C206.254 4.94548 206.35 4.82733 206.471 4.73866C207.002 4.79352 207.525 4.90169 208.034 5.06149L207.84 5.71321C208.186 5.76194 208.545 5.79238 208.916 5.81065C209.631 5.7368 210.326 5.53025 210.965 5.20157C211.906 4.80422 212.89 4.52006 213.897 4.35497C214.259 4.3376 214.614 4.24463 214.939 4.08207C215.263 3.91951 215.55 3.69091 215.782 3.41087C215.46 3.21921 215.155 3.00122 214.87 2.75915C214.6 2.4377 214.35 2.10006 214.122 1.74809C213.889 1.42993 213.686 1.09157 213.513 0.737032C213.471 0.603034 213.441 0.493376 213.416 0.408105C213.392 0.322833 213.471 0.170563 213.647 -0.0487061H213.909C214.155 0.245645 214.426 0.518686 214.718 0.767479C214.957 0.962944 215.221 1.1267 215.502 1.25474C215.782 1.38873 216.457 1.65675 217.521 2.07092C218.585 2.4851 219.157 2.80181 219.242 3.01499L219.571 3.92861C220.338 3.90571 221.104 3.98352 221.851 4.16006C222.23 4.42553 222.559 4.75534 222.824 5.13458C223.262 5.68275 223.432 5.97512 223.432 6.01775L223.171 6.62683C222.819 6.64478 222.468 6.60149 222.131 6.49891L221.085 6.17002C219.971 6.06913 218.849 6.15768 217.764 6.43192C217.855 6.46167 217.938 6.51249 218.006 6.58022C218.073 6.64795 218.124 6.7307 218.154 6.82174C218.448 7.02248 218.712 7.26452 218.938 7.54046L219.327 8.06426C219.402 8.22977 219.447 8.407 219.461 8.58806L219.394 9.1058C220.206 9.73065 220.978 10.406 221.705 11.128C221.806 11.4224 221.861 11.7305 221.869 12.0416L221.675 12.4314C220.629 12.2608 219.565 12.1268 218.482 12.0416C218.439 12.168 218.439 12.3049 218.482 12.4314C218.568 12.5705 218.68 12.6924 218.81 12.7907C219.278 13.4142 219.686 14.0812 220.027 14.7824C220.325 14.8681 220.641 14.8681 220.939 14.7824C221.447 15.0009 221.911 15.3106 222.307 15.6961L222.63 16.3478L222.958 16.8655V16.9995C222.874 17.0307 222.786 17.0512 222.696 17.0604L221.784 17.5172C221.462 17.6306 221.156 17.784 220.872 17.974C221.134 18.108 221.882 18.4308 223.122 18.9546C223.895 19.3287 224.713 19.603 225.555 19.7708H226.163L226.491 20.0997L227.531 20.7088L227.793 21.2326C227.917 21.4653 227.995 21.7196 228.024 21.9818C228.035 22.0943 228.019 22.2077 227.979 22.3133C227.939 22.4189 227.875 22.5139 227.793 22.5909C226.881 22.335 226.206 22.1584 225.774 22.0731L224.211 22.0061C222.082 21.8782 220.829 21.9208 220.434 22.1401C220.306 23.139 220.227 23.9674 220.209 24.613C220.203 25.0511 220.171 25.4884 220.112 25.9225L219.917 26.7022V28.1396L219.522 30.0277L219.394 31.3312L219.005 32.9635C218.749 32.6231 218.561 32.2363 218.452 31.8245C218.3 31.319 218.202 30.9596 218.154 30.7464L217.704 28.7913C217.587 28.517 217.499 28.2312 217.442 27.9386L217.308 26.83L217.181 26.221L217.114 24.9175L216.986 23.809L217.114 22.8954C216.947 22.8073 216.774 22.73 216.597 22.6639C216.42 22.6705 216.249 22.7275 216.104 22.8284C215.742 23.0055 215.361 23.1385 214.967 23.2243C214.34 23.3853 213.73 23.6035 213.143 23.876C212.642 24.1274 212.118 24.3313 211.58 24.4851C210.946 24.584 210.303 24.6065 209.664 24.5521H207.84C207.586 24.5021 207.348 24.3934 207.144 24.2348C206.941 24.0761 206.777 23.8719 206.666 23.6385C206.965 23.6243 207.256 23.5341 207.511 23.3766L207.906 23.1147C209.248 22.7268 210.546 22.2022 211.78 21.5493C213.447 20.7372 214.705 20.3129 215.557 20.2763C216.064 20.3126 216.572 20.2463 217.053 20.0814C217.205 19.9718 217.26 19.8561 217.217 19.7221L217.083 19.2043C216.432 19.4844 215.756 19.7026 215.064 19.8561L214.803 19.5942C214.499 19.7708 214.195 19.9535 213.897 20.1484C213.535 20.3628 213.137 20.5074 212.723 20.5748C212.728 20.5143 212.751 20.4569 212.79 20.4103C212.995 20.2525 213.225 20.1309 213.471 20.051C213.926 19.852 214.362 19.6114 214.772 19.3323C215.228 19.0277 215.66 18.7597 216.074 18.5161C216.42 18.3359 216.722 18.0798 216.956 17.7669C216.405 17.8635 215.861 17.9937 215.326 18.1567L214.87 18.3577L212.656 19.7891C211.918 20.1951 211.462 19.9454 211.288 19.0399C211.164 18.5831 211.098 18.1124 211.093 17.639L211.16 16.8533C211.288 16.9447 211.482 16.9325 211.768 16.8533C212.054 16.7741 212.875 15.4951 214.31 13.1014C214.061 13.0183 213.82 12.9101 213.593 12.7785L212.613 12.5836L211.397 11.7979L211.008 11.9319L209.901 15.1905L208.204 19.2348C208.034 19.6246 207.858 20.0814 207.687 20.6053C207.595 20.9179 207.475 21.2216 207.329 21.5128L206.386 22.6944L205.17 24.3937C204.258 25.2586 203.54 25.7154 203.017 25.7581L202.822 25.9591C202.521 26.0424 202.236 26.174 201.977 26.3489C201.868 26.3602 201.757 26.3487 201.653 26.3151C201.548 26.2816 201.451 26.2267 201.369 26.154C201.013 26.1408 200.675 26.0003 200.414 25.7581ZM212.334 10.7625L214.158 10.0438L215.374 9.81841C215.983 9.70878 216.281 9.61133 216.323 9.51997L217.43 7.82671L217.235 7.56481C215.672 7.56481 215.192 7.35162 215.8 6.91308V6.65118C213.629 7.4369 212.425 7.9668 212.188 8.25307C211.907 8.62638 211.718 9.06024 211.634 9.51997L211.245 10.9574C211.614 10.9309 211.979 10.8656 212.334 10.7625ZM217.606 14.9347C217.672 14.9081 217.729 14.8638 217.771 14.8068C217.8 14.722 217.821 14.6342 217.831 14.5449C217.85 14.4585 217.862 14.371 217.868 14.283L217.801 12.7176C217.497 12.6324 217.26 12.7603 217.083 13.1075L216.761 13.8262L215.977 14.9347L215.916 15.1296C216.47 15.0047 217.038 14.9474 217.606 14.9591V14.9347ZM221.967 19.9596C221.925 19.8784 221.902 19.7889 221.9 19.6977L221.055 18.912C220.623 18.5222 220.392 18.4126 220.373 18.5892C220.355 18.7658 220.373 18.8694 220.373 18.912L220.44 19.5211L220.373 19.9109L221.967 19.9596Z" fill="white"/>
</g>
<defs>
<clipPath id="clip0_2041_38073">
<rect width="228" height="33" fill="white"/>
</clipPath>
</defs>
</svg>
