<svg width="70" height="80" viewBox="0 0 70 80" fill="none" xmlns="http://www.w3.org/2000/svg">
<g filter="url(#filter0_dd_2252_17007)">
<rect x="20" y="10" width="40" height="40" rx="20" fill="white"/>
<g clip-path="url(#clip0_2252_17007)">
<path d="M34.719 36.2492V30.0128C34.719 27.1465 37.1036 24.801 40.019 24.801C42.9199 24.801 45.2936 27.1365 45.2936 29.9874V36.2483C45.2933 36.2806 45.2867 36.3125 45.2741 36.3423C45.2615 36.372 45.2431 36.399 45.2201 36.4216C45.197 36.4443 45.1697 36.4621 45.1397 36.4742C45.1098 36.4862 45.0777 36.4923 45.0454 36.4919H34.9663C34.9341 36.4923 34.9021 36.4863 34.8722 36.4743C34.8422 36.4623 34.815 36.4445 34.7919 36.4219C34.7689 36.3994 34.7505 36.3726 34.7378 36.3429C34.7252 36.3133 34.7185 36.2814 34.7181 36.2492V36.2483L34.719 36.2492ZM32.9809 28.0219H32.9818C33.3418 28.0892 33.5772 28.431 33.509 28.7837C33.4743 28.9548 33.3735 29.1052 33.2284 29.2023C33.0834 29.2993 32.9058 29.3351 32.7345 29.3019L31.4472 29.061C31.3627 29.0457 31.2819 29.0138 31.2097 28.9673C31.1375 28.9207 31.0751 28.8604 31.0262 28.7897C30.9773 28.719 30.9429 28.6394 30.9248 28.5554C30.9067 28.4714 30.9054 28.3846 30.9209 28.3001C30.9556 28.1294 31.0561 27.9793 31.2008 27.8823C31.3454 27.7853 31.5225 27.7492 31.6936 27.7819L32.9809 28.0219ZM34.8509 24.9128L34.0136 23.9219C33.9596 23.8564 33.919 23.7808 33.8943 23.6995C33.8697 23.6183 33.8613 23.5329 33.8698 23.4484C33.8782 23.3639 33.9033 23.2819 33.9436 23.2072C33.9839 23.1324 34.0386 23.0664 34.1045 23.0128C34.2389 22.9034 34.4105 22.8503 34.5832 22.8647C34.756 22.8791 34.9164 22.9599 35.0309 23.0901L35.8681 24.081C35.9221 24.1465 35.9627 24.2221 35.9874 24.3034C36.012 24.3846 36.0204 24.47 36.0119 24.5545C36.0035 24.639 35.9784 24.721 35.9381 24.7957C35.8978 24.8705 35.8431 24.9366 35.7772 24.9901C35.6428 25.0995 35.4712 25.1526 35.2985 25.1382C35.1257 25.1238 34.9653 25.043 34.8509 24.9128ZM39.9836 23.4992C39.8101 23.5002 39.6433 23.4326 39.5193 23.3112C39.3954 23.1899 39.3244 23.0245 39.3218 22.851L39.3163 21.5628C39.3173 21.389 39.3871 21.2226 39.5104 21.1001C39.6338 20.9776 39.8006 20.9089 39.9745 20.9092H39.9772C40.3409 20.9101 40.6363 21.2001 40.639 21.5574L40.6445 22.8455C40.6433 23.0196 40.5733 23.186 40.4498 23.3087C40.3264 23.4313 40.1594 23.5001 39.9854 23.5001H39.9818H39.9836V23.4992ZM44.199 24.9719C44.1323 24.9184 44.0769 24.8521 44.036 24.777C43.9951 24.7018 43.9696 24.6193 43.9609 24.5342C43.9522 24.4491 43.9605 24.3631 43.9853 24.2813C44.0101 24.1994 44.0509 24.1233 44.1054 24.0574L44.9354 23.0592C45.0486 22.9276 45.2084 22.8451 45.3811 22.829C45.5539 22.8129 45.7262 22.8644 45.8618 22.9728C46.1436 23.1983 46.1863 23.6046 45.9599 23.8828L45.1309 24.8801C45.018 25.0136 44.8576 25.0979 44.6837 25.1152C44.5098 25.1325 44.336 25.0814 44.199 24.9728V24.9719ZM49.0799 28.2401C49.096 28.3244 49.0953 28.4111 49.0779 28.4952C49.0605 28.5793 49.0266 28.6591 48.9783 28.7301C48.9301 28.8011 48.8682 28.8619 48.7965 28.909C48.7247 28.9561 48.6443 28.9886 48.5599 29.0046L47.2736 29.2565C47.104 29.2874 46.929 29.2509 46.7859 29.1548C46.6428 29.0587 46.5428 28.9106 46.5072 28.7419C46.4745 28.5735 46.5097 28.3989 46.605 28.2563C46.7003 28.1136 46.8482 28.0143 47.0163 27.9801L48.3018 27.7283C48.4726 27.6941 48.65 27.7287 48.7956 27.8245C48.9411 27.9203 49.0429 28.0696 49.079 28.2401H49.0799ZM34.0581 37.7901H45.9581C46.3981 37.7901 46.619 38.0065 46.619 38.4401V38.441C46.619 38.8737 46.3981 39.091 45.9581 39.091H34.0581C33.6163 39.091 33.3972 38.8737 33.3972 38.4419V38.441C33.3972 38.0074 33.6172 37.791 34.0581 37.791V37.7901ZM41.8827 28.8746V29.3892H38.5536V28.8746H41.8827ZM39.4963 30.6455C38.6963 30.6455 38.5536 30.5883 38.5536 30.2883V30.0955H42.7036C42.6327 30.5746 42.5181 30.6455 41.9536 30.6455H39.4963ZM42.0036 31.3819C43.0754 31.3819 43.3754 31.1746 43.5108 30.3246C43.2349 30.2802 42.9676 30.1934 42.7181 30.0674V28.1674H37.7099V30.3101C37.7099 31.1674 38.1099 31.3819 39.5099 31.3819H42.0027H42.0036ZM43.5827 32.1819H42.089V31.5528H41.2463V32.1819H39.3754V31.5528H38.5318V32.1819H37.0827V32.9528H38.3545C38.1763 33.2955 37.8118 33.6246 37.0909 33.8746C37.2763 34.0246 37.5327 34.3455 37.6399 34.5455C38.7045 34.1383 39.1263 33.5455 39.2827 32.9528H41.2472V34.5101H42.0899V32.9528H43.5836V32.1819H43.5827Z" fill="#F0560A"/>
</g>
</g>
<defs>
<filter id="filter0_dd_2252_17007" x="0" y="0" width="80" height="80" filterUnits="userSpaceOnUse" color-interpolation-filters="sRGB">
<feFlood flood-opacity="0" result="BackgroundImageFix"/>
<feColorMatrix in="SourceAlpha" type="matrix" values="0 0 0 0 0 0 0 0 0 0 0 0 0 0 0 0 0 0 127 0" result="hardAlpha"/>
<feMorphology radius="4" operator="dilate" in="SourceAlpha" result="effect1_dropShadow_2252_17007"/>
<feOffset dy="10"/>
<feGaussianBlur stdDeviation="8"/>
<feComposite in2="hardAlpha" operator="out"/>
<feColorMatrix type="matrix" values="0 0 0 0 0.121569 0 0 0 0 0.188235 0 0 0 0 0.305882 0 0 0 0.04 0"/>
<feBlend mode="normal" in2="BackgroundImageFix" result="effect1_dropShadow_2252_17007"/>
<feColorMatrix in="SourceAlpha" type="matrix" values="0 0 0 0 0 0 0 0 0 0 0 0 0 0 0 0 0 0 127 0" result="hardAlpha"/>
<feOffset dy="2"/>
<feGaussianBlur stdDeviation="4"/>
<feComposite in2="hardAlpha" operator="out"/>
<feColorMatrix type="matrix" values="0 0 0 0 0.121569 0 0 0 0 0.188235 0 0 0 0 0.305882 0 0 0 0.05 0"/>
<feBlend mode="normal" in2="effect1_dropShadow_2252_17007" result="effect2_dropShadow_2252_17007"/>
<feBlend mode="normal" in="SourceGraphic" in2="effect2_dropShadow_2252_17007" result="shape"/>
</filter>
<clipPath id="clip0_2252_17007">
<rect width="20" height="20" fill="white" transform="translate(30 20)"/>
</clipPath>
</defs>
</svg>
