<svg width="20" height="8" viewBox="0 0 20 8" fill="none" xmlns="http://www.w3.org/2000/svg">
<path d="M2.08333 8C2.50326 8 2.90599 7.84196 3.20292 7.56066C3.49985 7.27936 3.66667 6.89782 3.66667 6.5C3.66667 6.10218 3.49985 5.72064 3.20292 5.43934C2.90599 5.15804 2.50326 5 2.08333 5C1.66341 5 1.26068 5.15804 0.963748 5.43934C0.666815 5.72064 0.5 6.10218 0.5 6.5C0.5 6.89782 0.666815 7.27936 0.963748 7.56066C1.26068 7.84197 1.66341 8 2.08333 8ZM10 8C10.4199 8 10.8227 7.84196 11.1196 7.56066C11.4165 7.27936 11.5833 6.89782 11.5833 6.5C11.5833 6.10217 11.4165 5.72064 11.1196 5.43934C10.8227 5.15804 10.4199 5 10 5C9.58007 5 9.17735 5.15804 8.88041 5.43934C8.58348 5.72064 8.41667 6.10217 8.41667 6.5C8.41667 6.89782 8.58348 7.27936 8.88041 7.56066C9.17735 7.84196 9.58007 8 10 8ZM17.9167 8C18.3366 8 18.7393 7.84196 19.0363 7.56066C19.3332 7.27936 19.5 6.89782 19.5 6.5C19.5 6.10217 19.3332 5.72064 19.0363 5.43934C18.7393 5.15803 18.3366 5 17.9167 5C17.4967 5 17.094 5.15804 16.7971 5.43934C16.5001 5.72064 16.3333 6.10217 16.3333 6.5C16.3333 6.89782 16.5001 7.27936 16.7971 7.56066C17.094 7.84196 17.4967 8 17.9167 8Z" fill="black" fill-opacity="0.85"/>
<path d="M2.08333 3C2.50326 3 2.90599 2.84196 3.20292 2.56066C3.49985 2.27936 3.66667 1.89782 3.66667 1.5C3.66667 1.10218 3.49985 0.720645 3.20292 0.43934C2.90599 0.158036 2.50326 -8.75653e-08 2.08333 -6.92097e-08C1.66341 -5.08541e-08 1.26068 0.158036 0.963748 0.43934C0.666815 0.720645 0.5 1.10218 0.5 1.5C0.5 1.89782 0.666815 2.27936 0.963748 2.56066C1.26068 2.84197 1.66341 3 2.08333 3ZM10 3C10.4199 3 10.8227 2.84196 11.1196 2.56066C11.4165 2.27936 11.5833 1.89782 11.5833 1.5C11.5833 1.10217 11.4165 0.720644 11.1196 0.43934C10.8227 0.158035 10.4199 -4.33614e-07 10 -4.15258e-07C9.58007 -3.96903e-07 9.17735 0.158035 8.88041 0.43934C8.58348 0.720645 8.41667 1.10217 8.41667 1.5C8.41667 1.89782 8.58348 2.27936 8.88041 2.56066C9.17735 2.84196 9.58007 3 10 3ZM17.9167 3C18.3366 3 18.7393 2.84196 19.0363 2.56066C19.3332 2.27936 19.5 1.89782 19.5 1.5C19.5 1.10217 19.3332 0.720644 19.0363 0.43934C18.7393 0.158035 18.3366 -7.79662e-07 17.9167 -7.61307e-07C17.4967 -7.42951e-07 17.094 0.158035 16.7971 0.43934C16.5001 0.720644 16.3333 1.10217 16.3333 1.5C16.3333 1.89782 16.5001 2.27936 16.7971 2.56066C17.094 2.84196 17.4967 3 17.9167 3Z" fill="black" fill-opacity="0.85"/>
</svg>
