<svg width="1920" height="74" viewBox="0 0 1920 74" fill="none" xmlns="http://www.w3.org/2000/svg">
<g clip-path="url(#clip0_2935_51041)">
<path d="M0 74V0H1920V64H399.401C397.196 64 395.052 64.7291 393.304 66.0738L385.696 71.9262C383.948 73.2709 381.804 74 379.599 74H0Z" fill="#3866ED"/>
<path d="M0 74V0H1920V64H399.401C397.196 64 395.052 64.7291 393.304 66.0738L385.696 71.9262C383.948 73.2709 381.804 74 379.599 74H0Z" fill="#3178F8"/>
<g clip-path="url(#clip1_2935_51041)">
<path d="M24 45.3021L24.0755 45.2168C25.3134 45.2168 26.7149 43.5579 28.28 40.2401L30.9446 34.5114L31.5938 33.5114C31.5938 33.4571 31.8882 32.8215 32.4845 31.6044L33.8583 29.116L34.5452 27.6199C34.8112 26.9573 35.1781 26.3424 35.6322 25.7982L36.2814 25.023L37.7911 22.4494C38.8705 21.5114 39.3838 20.961 39.3008 20.7904L39.2177 20.6276L38.1685 21.0385C38.5963 19.7103 39.0416 19.0204 39.5046 18.9688C40.245 19.0315 40.9426 19.3513 41.4823 19.8757C42.0638 20.2914 42.6048 20.7639 43.0976 21.2866C43.2352 21.4325 43.3453 21.6033 43.4222 21.7904L43.5052 22.6974C43.2611 23.0009 42.9909 23.2811 42.6976 23.5346L43.0976 24.0307L48.8345 31.1703L49.9668 32.9067C50.554 33.7076 51.3774 34.2922 52.3144 34.5734L55.4621 35.8137C55.9458 36.1542 56.478 36.4157 57.0397 36.5889C57.8685 36.9152 58.6255 37.408 59.2665 38.0385C59.8696 38.5334 60.4349 39.075 60.9574 39.6587L62.0141 41.4029C62.2729 41.7171 62.4633 42.0844 62.5727 42.4804C62.467 43.0307 61.765 43.2555 60.4743 43.2555C60.1224 43.2706 59.7701 43.2419 59.425 43.1703L57.1605 42.2633L55.7866 42.0928L53.9297 41.5114C52.9239 41.3316 51.9544 40.9806 51.0613 40.4726C50.4837 40.0429 50.0003 39.4936 49.6422 38.8602L48.593 37.1936L46.57 34.4571L45.1206 32.1315L43.9053 30.1935L42.0484 27.0928L40.8407 25.8447L39.4366 28.0618L36.1983 34.5346L36.1229 34.868L35.7983 34.9455L33.2922 39.7595L32.4015 41.4261L30.7861 43.5656L30.303 43.3951C29.8913 43.8873 29.4309 44.3341 28.9291 44.7284C28.5645 44.9593 28.142 45.0751 27.7138 45.0618L26.9061 45.7207L26.5061 45.3873C26.0939 45.8011 25.5661 46.0722 24.9964 46.1625L25.0794 45.5811L24.4303 45.7439L24 45.3021ZM31.0276 50.4494L32.0769 50.3641L32.4015 50.6974C33.2333 50.4277 34.0333 50.0636 34.7868 49.6121C35.4057 49.2323 35.8662 48.9222 36.1606 48.7052C36.455 48.4881 36.6211 48.2788 36.6437 48.0773C36.6672 47.8627 36.6249 47.6459 36.5229 47.4571C36.2534 47.1541 35.924 46.9135 35.5567 46.7517C35.2533 46.5314 34.9989 46.2475 34.8102 45.9188C34.6215 45.5901 34.5029 45.224 34.4622 44.8447C34.2484 44.1032 34.1541 43.3307 34.1829 42.5579C34.1802 41.8643 34.3587 41.1826 34.7 40.5841C35.0412 39.9855 35.5326 39.4919 36.1229 39.1548C36.5739 38.8404 37.0915 38.6411 37.6326 38.5734C37.8441 38.648 38.0612 38.7051 38.2817 38.744L39.4895 39.3254L40.7048 39.5734L40.8633 39.24C40.7749 39.116 40.7085 38.9769 40.6671 38.8292C40.629 38.6504 40.629 38.4653 40.6671 38.2866L40.7878 37.7052C40.8114 37.4707 40.8114 37.2343 40.7878 36.9998C40.7368 36.744 40.7368 36.4803 40.7878 36.2246L40.8708 35.0618C40.4114 34.7055 40.0024 34.2855 39.6555 33.8137L38.4478 31.992C38.3346 31.9377 38.3119 31.8757 38.3647 31.8214L38.4478 31.6587C38.7649 31.7656 39.065 31.9196 39.3385 32.116C39.7084 32.3641 40.3576 32.7517 41.2785 33.2788C41.9821 33.6355 42.6125 34.1276 43.1354 34.7284C43.4062 35.1025 43.6581 35.4906 43.8902 35.8912C44.0714 36.2245 44.2073 36.4881 44.2903 36.6664C44.3598 36.7908 44.3889 36.9347 44.3733 37.0773C44.3733 37.1625 44.2526 37.6432 44.0865 38.5269C44.5962 38.4713 45.1009 38.3754 45.5962 38.2401C45.8768 38.1553 46.1615 38.0854 46.4492 38.0307L48.5477 38.8602C48.7137 39.3641 48.9779 39.6354 49.3553 39.6897L49.4384 40.1936C48.6282 40.7104 46.9574 41.1522 44.4262 41.5191C44.3887 41.6538 44.361 41.7911 44.3432 41.93L44.5092 43.5966L44.3432 44.0928C44.2972 44.2248 44.2717 44.3635 44.2676 44.5036V45.1703C44.2096 45.4436 44.2096 45.7265 44.2676 45.9998L44.1846 46.2478L44.2676 47.3253L44.1846 48.1005C44.1822 48.1759 44.2048 48.25 44.2487 48.3106C44.2925 48.3711 44.3551 48.4146 44.4262 48.4339L45.2339 48.3486C45.2339 48.4028 45.332 48.4726 45.5207 48.5579C45.874 48.6601 46.2412 48.702 46.6077 48.6819C47.6871 48.7904 48.3589 48.6277 48.6307 48.1781C48.7544 48.242 48.8962 48.2585 49.0307 48.2246L49.3553 48.1781L50.8122 49.4261L51.3783 49.5889C51.7047 49.7262 51.9946 49.9415 52.2238 50.2168C52.5865 50.4852 52.8478 50.8741 52.9635 51.3176C53.0163 51.6742 53.0692 51.8602 53.122 51.8602L53.3636 52.5191L53.2051 52.8525C53.0039 52.9723 52.7844 53.0562 52.5559 53.1005L51.0991 52.9378L50.2159 53.0153C50.106 52.9865 50.0077 52.9233 49.9346 52.8343C49.8615 52.7454 49.8173 52.6351 49.8082 52.5191L49.4082 52.6044L49.5667 53.0153L48.5174 52.9378L48.4344 52.7672L47.3021 53.0153L47.0606 52.2401C46.2308 52.1059 45.3939 52.023 44.5545 51.992L44.3129 51.7439H43.0222L42.7806 51.992C42.1462 51.9114 41.5022 51.9821 40.8987 52.1985C40.2952 52.415 39.7484 52.7714 39.3008 53.2401C39.0577 53.2747 38.8244 53.3617 38.6163 53.4953C38.4082 53.6288 38.2298 53.806 38.093 54.0152L38.1685 54.1781C35.9644 54.8964 34.203 54.9248 32.8846 54.2633V53.93C32.5122 53.7166 32.206 53.3995 32.0014 53.0153L31.6768 52.1858L31.1937 51.2788L31.1107 50.7749L31.0276 50.4494ZM39.7537 48.4571H41.2105L40.1311 47.1238C40.3528 46.6291 40.5151 46.1084 40.6142 45.5734L40.5387 41.9997C40.5824 41.8592 40.6353 41.722 40.6972 41.5889L40.6142 41.1703L40.6972 40.3409L40.6142 39.93C39.9839 39.8501 39.3622 39.71 38.7573 39.5114C38.498 39.4392 38.2257 39.4318 37.963 39.4898C37.7004 39.5478 37.4551 39.6695 37.2476 39.8447C37.1872 39.9532 37.1872 40.0385 37.2476 40.0928L37.1645 40.868C37.2114 41.1658 37.3223 41.4491 37.4891 41.6974C37.6822 42.0302 37.8175 42.3947 37.8892 42.7749V44.1005C37.8892 44.2168 37.9345 44.5579 38.01 45.1393C38.0627 45.5605 38.1434 45.9775 38.2515 46.3874C38.6843 47.1267 39.1874 47.82 39.7537 48.4571Z" fill="white"/>
<path d="M67.1543 49.6123C67.294 49.6173 67.4332 49.5909 67.5619 49.5348L68.6111 49.6976C68.9812 49.8062 69.3734 49.8062 69.7434 49.6976C69.8528 49.6863 69.9598 49.6575 70.0605 49.6123C70.2266 49.5581 70.7625 49.4263 71.6834 49.2015L75.3142 47.7054L78.711 46.465C78.6582 46.1317 78.628 45.9379 78.628 45.8836L78.0619 44.7984V44.3875L77.2542 43.1395C77.4029 43.0108 77.5282 42.8559 77.624 42.6821C77.624 42.6046 77.6844 42.3953 77.7448 42.0619L77.9033 41.403C77.9033 41.341 77.9034 40.9301 77.9864 40.1549L78.0619 37.5813L77.5787 37.8294C77.3266 38.1889 77.1493 38.5979 77.0579 39.031C76.8646 39.6769 76.6118 40.3024 76.3031 40.8992L76.4616 41.9767L76.3031 42.2325H75.82L75.4954 42.6433C74.8284 42.5775 74.2017 42.2857 73.7139 41.8139C73.6082 41.5968 73.4875 41.372 73.3516 41.1472C73.2442 41.0021 73.1741 40.8314 73.1478 40.6511L73.0723 39.7364C73.0119 39.7364 72.9515 39.6278 72.8685 39.4108C72.7739 39.1393 72.7056 38.8589 72.6647 38.5736C72.6922 37.8304 72.8561 37.0993 73.1478 36.4186C73.4309 35.4512 73.8698 34.5393 74.4462 33.7208C74.9821 32.9457 75.3821 32.6046 75.6539 32.6046C75.6748 32.6286 75.7004 32.6479 75.729 32.6613C75.7576 32.6746 75.7886 32.6817 75.82 32.6821V32.9302L75.9785 33.1007C76.0365 33.2293 76.0649 33.3699 76.0615 33.5116L76.3861 33.8449C76.2201 34.9534 76.1446 35.6201 76.1446 35.8372L76.0615 37.3875C76.1491 37.3951 76.2373 37.3838 76.3205 37.3544C76.4037 37.3251 76.48 37.2783 76.5446 37.217L77.0277 36.6356L78.077 35.5581L78.0015 28.2557C77.9486 28.2557 77.8656 28.1472 77.7599 27.9224L77.4353 27.341L75.9256 25.5968C76.4691 25.7674 76.8692 25.8759 77.141 25.9302L78.8394 26.7596C80.7265 27.5348 81.7984 28.1162 82.0701 28.5038L82.3947 29.8294L82.7948 30.6588C82.5489 31.0269 82.3342 31.4159 82.1531 31.8216C82.0057 32.3251 81.9245 32.8465 81.9116 33.372C81.85 33.9776 81.85 34.5881 81.9116 35.1937L81.9871 37.1007L81.7455 40.4263C81.8248 41.3244 81.8122 42.2286 81.7078 43.124C81.6334 43.2774 81.6045 43.4499 81.6247 43.6201C81.6483 43.6986 81.6901 43.77 81.7467 43.8281C81.8033 43.8862 81.8729 43.9292 81.9493 43.9534C82.1381 44.0309 83.2854 42.9146 85.3839 40.5891L85.4669 37.7674V29.6976C85.4669 29.5891 85.4669 29.279 85.5424 28.7829L85.7085 27.2868C85.7175 26.8686 85.7707 26.4528 85.867 26.0465C85.88 25.9487 85.88 25.8496 85.867 25.7519C85.8475 25.7207 85.8371 25.6843 85.8371 25.6472C85.8371 25.6101 85.8475 25.5738 85.867 25.5426C85.97 25.4713 86.0515 25.3717 86.1022 25.2553C86.1529 25.1388 86.1708 25.0101 86.1538 24.8837C86.1265 24.5733 86.1678 24.2606 86.2746 23.9689L86.5992 22.31C86.1085 21.5891 85.6254 20.8139 85.1423 19.9844H84.6668L83.9119 21.3953L83.8365 21.8139C83.8365 22.1472 83.7911 22.186 83.7157 21.9379C83.6372 21.7686 83.6211 21.5758 83.6704 21.3953L84.078 20.4805C84.0793 20.4577 84.076 20.4349 84.0682 20.4136C84.0604 20.3922 84.0483 20.3728 84.0327 20.3565C83.9899 20.2806 83.9641 20.1959 83.9572 20.1084C83.9257 19.9582 83.9105 19.8048 83.9119 19.6511V19.2402C85.7462 19.2402 86.9313 19.5271 87.588 20.1084C88.3233 20.8364 88.9628 21.6599 89.4903 22.5581C89.95 23.1944 90.2928 23.9116 90.5017 24.6744C90.5037 25.2749 90.4353 25.8735 90.298 26.4573C90.1472 27.2216 89.9325 27.9712 89.6563 28.6976L89.7318 29.1162V29.4495L89.9734 29.6976V29.8604L89.7318 30.0309V30.279L89.4903 30.5271C89.4353 30.595 89.3986 30.6766 89.3841 30.7637C89.3695 30.8508 89.3775 30.9403 89.4072 31.0232L89.4903 31.9379L89.4072 33.1007C89.3496 33.486 89.3496 33.8782 89.4072 34.2635V36.5038C91.239 34.6744 92.2631 33.5116 92.4794 33.0154C92.66 32.672 92.7583 32.2894 92.7663 31.8992C92.7111 31.5829 92.5873 31.2835 92.404 31.0232L92.6455 30.8604C92.3738 30.3022 92.0794 29.9999 91.7548 29.9457L90.6225 29.8604L90.5395 29.6976L91.1887 29.3643C91.493 29.5654 91.8555 29.653 92.2153 29.6123C92.3318 29.7586 92.4816 29.8732 92.6513 29.9462C92.8211 30.0192 93.0057 30.0483 93.189 30.0309C94.216 30.4815 95.0683 31.2695 95.6121 32.2712C96.0373 33.0343 96.2949 33.8836 96.3669 34.7596C96.4139 35.3565 96.3153 35.9559 96.0801 36.5038C95.4309 37.8837 93.0884 39.5167 89.0524 41.403V42.1782L88.7279 42.5891C88.7666 42.6965 88.7919 42.8085 88.8033 42.9224L88.6448 43.4185C88.592 43.5528 88.592 43.7029 88.6448 43.8371L88.7279 44.7519C89.2365 44.7132 89.7478 44.7683 90.2376 44.9147L92.1775 44.9999C92.6521 45.215 93.1691 45.3132 93.6872 45.2867C94.2812 45.2755 94.8666 45.4338 95.3781 45.7441L98.1257 45.248L99.4241 46.4961H99.8241C100.096 46.8217 100.353 47.155 100.579 47.4883C100.834 47.8452 101.064 48.2209 101.266 48.6123C101.418 48.8733 101.54 49.1517 101.628 49.4418C101.659 49.5665 101.646 49.6984 101.59 49.8139C101.433 50.1943 101.146 50.5028 100.783 50.6821C100.405 50.8759 100.164 50.9457 100.028 50.8914C99.7655 50.8082 99.5124 50.6965 99.2731 50.5581C98.0244 50.1908 96.7366 49.9825 95.4385 49.9379C93.3023 49.7441 92.0794 49.6201 91.7548 49.5658C91.2505 49.5613 90.7464 49.5872 90.2451 49.6434L90.3281 49.3177L90.079 49.0697C89.8306 49.1204 89.5763 49.1335 89.3242 49.1085L88.3127 48.8992C87.8163 48.7945 87.3093 48.7528 86.803 48.7751C86.3107 48.8091 85.8228 48.8922 85.3462 49.0232C84.963 49.137 84.5718 49.22 84.1761 49.2712C84.0666 49.2752 83.9592 49.3036 83.8614 49.3545C83.7637 49.4053 83.6779 49.4775 83.61 49.5658C82.8724 49.6961 82.1438 49.8748 81.4285 50.1007C80.6208 50.3488 80.1377 50.4883 79.9716 50.5193L79.647 50.5581L79.3224 50.7286C79.2696 50.7829 78.4091 51.0542 76.7409 51.5581C76.092 51.9784 75.3593 52.2434 74.5971 52.3333C74.1692 52.39 73.7345 52.3201 73.3441 52.1317L72.7779 51.8836H71.004C70.7741 51.8402 70.554 51.7535 70.3548 51.6279C69.9252 51.3913 69.5183 51.1136 69.1396 50.7984C68.8065 50.4992 68.4419 50.2392 68.0526 50.0232C67.8402 49.9401 67.6563 49.7945 67.5242 49.6046C67.4681 49.6377 67.4048 49.6557 67.3402 49.6571C67.2756 49.6584 67.2116 49.643 67.1543 49.6123ZM81.4964 45.4651L85.7839 44.6356L85.6179 43.3875L85.2178 43.186C84.8699 43.2793 84.5404 43.4341 84.2441 43.6433L83.4892 44.0542L83.2477 44.3023H82.8401C82.6815 44.3565 82.3041 44.4728 81.7078 44.6356V45.1162C81.3757 45.3023 81.3002 45.4108 81.4587 45.4651H81.4964Z" fill="white"/>
<path d="M111.441 28.2868L111.683 28.0387L111.607 27.3721C111.82 26.9874 111.956 26.5631 112.008 26.124L112.249 25.876L112.174 25.7132L112.657 24.7984H113.14V24.0232L114.106 24.186L114.431 24.6046C114.212 24.8837 114.114 25.0697 114.144 25.186C114.228 25.4052 114.337 25.6134 114.468 25.8062C114.596 25.9723 114.763 26.1017 114.953 26.1818C115.144 26.262 115.351 26.2901 115.555 26.2636L117.82 25.7674C118.568 25.5745 119.298 25.3151 120.001 24.9922C121.621 24.4176 123.285 23.9871 124.976 23.7054C127.371 23.2403 128.934 23.0878 129.663 23.248C130.418 23.4186 130.849 23.4186 131.037 23.248C131.226 23.0775 131.747 23.1705 132.615 23.5039C132.721 23.5581 133.543 23.8915 135.076 24.4961C136.183 24.9071 137.25 25.4263 138.261 26.0465C138.768 26.424 139.193 26.9069 139.506 27.4638C139.819 28.0208 140.015 28.6393 140.08 29.2791C140.02 29.6667 139.945 29.8915 139.831 29.9457H139.348C139.179 30.026 139.005 30.0959 138.827 30.155C138.606 30.2312 138.374 30.273 138.14 30.2791C137.673 30.3285 137.2 30.2566 136.767 30.0698C136.485 29.9765 136.214 29.8517 135.959 29.6977C135.846 29.6977 135.551 29.6976 135.068 29.7829L131.43 29.2015C130.728 29.1473 129.573 29.1473 127.957 29.2015C127.791 29.5333 127.72 29.9073 127.754 30.2791C127.754 30.6667 127.98 30.8295 128.358 30.7752C129.057 30.4961 130.672 30.938 133.204 32.1008C134.766 32.9302 135.581 33.4884 135.634 33.7597L135.71 34.5969C135.429 34.8537 135.196 35.1611 135.023 35.5039C134.922 35.8697 134.868 36.2477 134.864 36.6279C134.864 37.155 134.796 37.6356 134.744 38.0775L134.419 39.8217C134.334 40.4384 134.213 41.0493 134.057 41.6512C133.473 42.833 132.725 43.9218 131.837 44.8837L131.996 45.3023L131.754 45.5504C130.983 45.5897 130.215 45.6725 129.452 45.7985C128.928 45.9143 128.384 45.8849 127.874 45.7132C127.606 47.3866 127.47 49.0793 127.467 50.7752L127.225 51.8605L127.067 53.186L126.901 53.6822C126.795 53.8992 126.765 54.0388 126.825 54.1008L126.901 54.7597L126.584 54.9302L126.659 55.7054L126.176 56.2015C126.215 56.5181 126.215 56.8385 126.176 57.1551C126.115 57.4858 125.96 57.7905 125.731 58.031H125.429L125.346 57.9457C125.397 57.9466 125.448 57.9316 125.491 57.9026C125.534 57.8735 125.568 57.8319 125.587 57.783V57.6124C125.429 57.4496 125.368 57.3411 125.429 57.2868L125.504 57.1163H125.187C125.193 56.5982 125.165 56.0802 125.104 55.5659L124.863 54.7364V53.2403L124.621 53.0698C124.588 52.275 124.492 51.4842 124.334 50.7054C124.219 50.3727 124.178 50.0178 124.213 49.6667L124.296 49.2558L123.972 48.9225C123.919 48.6207 123.906 48.313 123.934 48.0077C123.934 47.7364 123.972 47.5659 123.972 47.5116L123.806 46.5194L122.923 46.8062C122.661 46.8885 122.389 46.9303 122.115 46.9303C121.997 46.9006 121.886 46.8451 121.79 46.7674L120.9 46.4341C120.172 46.1256 119.515 45.6631 118.973 45.0768C118.431 44.4904 118.015 43.7934 117.752 43.031C117.257 42.0057 116.901 40.9154 116.695 39.7907L116.62 38.7132L116.454 38.4651L116.371 37.6356C115.824 37.6859 115.273 37.6146 114.755 37.4264C113.803 36.6208 112.96 35.6873 112.249 34.6512C112.048 34.2958 111.886 33.9188 111.766 33.5271C111.624 32.9145 111.543 32.2885 111.524 31.6589C111.472 30.7752 111.441 30.2481 111.441 30.1085V28.2868ZM116.333 34.3876C116.281 33.8919 116.351 33.3908 116.537 32.9303L116.695 32.5194C116.756 32.3028 116.784 32.078 116.778 31.8527V30.7752C117.22 30.9729 117.651 31.1955 118.069 31.4418L119.201 32.5194L119.956 33.1008L120.198 32.8527H120.681C121.541 32.4651 122.726 31.9948 124.236 31.4418V29.7829L124.478 29.5271V28.2868C123.995 28.1163 123.534 27.938 123.104 27.7442C122.825 27.5966 122.524 27.4995 122.213 27.4573C121.904 27.6048 121.58 27.7167 121.247 27.7907C120.721 27.9444 120.178 28.0277 119.632 28.0387C118.592 28.1419 117.545 27.9403 116.612 27.4573C116.187 27.146 115.708 26.9199 115.201 26.7907L115.525 27.124C115.563 27.274 115.563 27.4314 115.525 27.5814C115.495 27.6693 115.442 27.7933 115.367 27.9535L115.08 28.5349C115.008 28.6633 114.955 28.8017 114.921 28.9457L114.68 31.1938L114.514 31.6047C114.415 31.7808 114.388 31.9896 114.438 32.1861L114.514 33.186V33.6822L114.189 34.5116C114.136 34.6744 114.242 34.9225 114.514 35.2868C114.705 35.7006 114.96 36.0802 115.268 36.4109C115.353 36.4702 115.448 36.5123 115.548 36.5349L115.955 36.6201L116.197 36.8682L116.355 36.6977C116.371 35.814 116.371 35.0387 116.371 34.3876H116.333ZM118.96 16L119.201 16.2481V16.5814C119.518 16.9771 119.912 17.2998 120.358 17.5282C120.804 17.7566 121.292 17.8857 121.79 17.907L122.115 18.1628C123.187 18.217 124.078 18.2325 124.78 18.1628C125.048 18.1269 125.321 18.1491 125.581 18.2279C125.841 18.3066 126.083 18.4402 126.289 18.6202C126.759 18.7112 127.219 18.8488 127.663 19.031L128.418 19.8062L128.66 20.0542H128.901C128.851 20.2009 128.838 20.3584 128.863 20.5116C128.887 20.588 128.928 20.6572 128.984 20.7132L129.226 20.969C129.278 21.0685 129.292 21.1851 129.263 21.2946C129.263 21.4109 129.09 21.4884 128.818 21.5504L128.418 21.7984C128.159 21.9083 127.869 21.9083 127.61 21.7984L127.369 22.0465C127.201 22.0683 127.03 22.0387 126.878 21.9612L126.07 21.7132L124.863 22.0465L124.455 22.1318L123.972 21.7132C123.548 21.7369 123.128 21.8071 122.719 21.9225C122.477 22 121.277 22.2946 119.126 22.7907V22.6357C120.251 22.0775 121.466 21.4419 122.757 20.721C122.098 20.3846 121.465 19.9984 120.862 19.5659C120.003 18.7555 119.375 17.7215 119.043 16.5736C119.043 16.4651 118.93 16.3256 118.718 16.1628L118.96 16ZM122.032 37.2946C123.038 36.9328 123.605 36.7235 123.73 36.6666V34.9225C122.809 35.2558 122.304 35.3721 122.221 35.2558L120.281 34.6744C120.334 34.7907 120.379 34.8682 120.401 34.9225C120.424 34.9767 120.401 35.1473 120.243 35.4264L120.001 35.9225C120.001 35.9768 120.001 36.1163 120.122 36.3333V37.6667C120.779 37.7107 121.436 37.5827 122.032 37.2946ZM120.334 40.0698L120.658 40.3178C120.584 40.6519 120.613 41.0015 120.741 41.3178L121.141 42.2326L121.549 43.2248C122.275 42.8226 122.931 42.2986 123.489 41.6744C123.559 41.3325 123.599 40.9849 123.61 40.6356C123.658 40.2632 123.586 39.8848 123.406 39.5582C122.525 39.8866 121.57 39.9432 120.658 39.7209L120.334 40.0698ZM124.863 26.6279C126.312 27.4031 127.2 28.093 127.527 28.6977C128.79 28.0364 130.119 27.5166 131.49 27.1473C132.568 26.9094 133.604 26.5042 134.562 25.9458V25.7829C133.106 25.2665 131.575 25.0044 130.033 25.0077L128.901 25.4263L128.01 25.5891L126.501 26.1705L124.863 26.6279ZM127.369 41.8992L127.444 42.4806L127.769 42.3101L128.448 42.0155L128.524 42.5194C128.724 42.4783 128.908 42.3778 129.053 42.2304C129.197 42.0829 129.297 41.895 129.339 41.6899L129.822 40.0232C128.911 40.509 128.083 41.1425 127.369 41.8992ZM128.01 35.9225L127.769 36.1706V36.752C127.935 36.752 128.161 36.752 128.456 36.752C128.75 36.752 128.931 36.752 128.984 36.752L129.226 36.3333L130.275 36.5039C130.212 36.2311 130.212 35.9472 130.275 35.6744L130.516 32.7674L130.358 32.6046H129.143C129.056 32.6888 128.954 32.7542 128.843 32.7968C128.731 32.8394 128.612 32.8584 128.493 32.8527L127.935 33.845V34.1783L127.769 34.9535H128.176C127.852 35.124 127.716 35.2016 127.769 35.2016L127.686 35.783L128.01 35.9225Z" fill="white"/>
<path d="M153.917 32.2717C154.344 31.9004 154.819 31.5925 155.329 31.357C155.379 31.357 156.187 31.4965 157.752 31.7755L158.001 32.0236H158.484C159.616 32.6825 160.205 33.0159 160.258 33.0159L161.149 34.2639L162.364 32.1012L162.122 31.6903C162.331 31.6086 162.533 31.5101 162.726 31.3957C162.976 31.1283 163.155 30.8002 163.247 30.4422C163.466 29.8918 163.685 29.667 163.896 29.8608L163.738 30.1089L163.413 30.357C163.451 30.7306 163.451 31.1073 163.413 31.481C163.322 31.9906 163.188 32.4912 163.013 32.9771C162.772 33.7523 162.673 34.0934 162.726 34.0934L162.968 34.7601C163.723 33.9849 164.183 33.6283 164.342 33.6825L164.749 33.8454L165.232 33.3492C166.202 33.0985 167.149 32.764 168.063 32.3492L168.546 32.5198C168.68 32.3717 168.845 32.2576 169.029 32.1864L170.086 31.9384L171.294 31.357C171.192 31.1682 171.15 30.9514 171.173 30.7368C171.261 30.4164 171.413 30.1181 171.618 29.8608C171.524 29.3004 171.483 28.7318 171.498 28.1632C171.508 27.9008 171.549 27.6406 171.618 27.388L171.777 26.9771V25.5585L172.102 24.0081L172.185 22.5973C172.253 22.3792 172.306 22.1564 172.343 21.9306C172.203 21.4559 171.942 21.0279 171.588 20.6903C171.352 20.4162 171.1 20.1573 170.833 19.9151L170.026 19.5818C169.392 19.2137 168.925 18.6036 168.727 17.8841L170.237 17.7988C171.011 18.138 171.743 18.5699 172.419 19.0856C172.743 19.388 173.506 20.2329 174.721 21.6205C175.465 22.3547 176.105 23.1923 176.623 24.1089C176.658 24.3271 176.658 24.5496 176.623 24.7678C176.593 24.9384 176.525 25.3415 176.419 25.9771C176.341 26.4796 176.232 26.9766 176.095 27.4655C175.989 27.8298 175.959 28.0624 176.019 28.1709L176.095 28.9461L176.019 30.2717L176.095 30.4345C176.409 30.633 176.776 30.7227 177.144 30.6903C177.534 30.6653 177.916 30.5626 178.269 30.388C178.552 30.2616 178.852 30.1781 179.159 30.1399C179.425 30.2506 179.678 30.3909 179.914 30.5585C180.239 30.7755 180.737 31.0702 181.424 31.4267C181.904 31.659 182.353 31.9533 182.76 32.3027L183.568 33.3802C183.739 33.5636 183.852 33.796 183.892 34.0469V34.2639L183.568 34.5973C183.35 34.6013 183.133 34.5857 182.918 34.5508C182.548 34.5632 182.181 34.6338 181.831 34.7601C181.157 34.9433 180.467 35.055 179.771 35.0934C178.963 35.1477 178.261 35.2329 177.589 35.3415C177.138 35.4416 176.675 35.4703 176.215 35.4267C175.944 35.8727 175.802 36.3892 175.808 36.9151L175.891 38.1632L175.649 38.574C175.594 39.3478 175.578 40.1241 175.604 40.8996C175.604 41.5353 175.649 41.9616 175.649 42.1864C175.589 42.6825 175.536 43.2407 175.483 43.8453L175 47.2484C174.902 48.0197 174.849 48.7963 174.842 49.574C174.781 49.6283 174.781 49.7911 174.842 50.0701C174.799 50.206 174.771 50.3464 174.759 50.4887L174.517 50.8143C174.397 51.0138 174.339 51.2466 174.351 51.481C174.302 51.867 174.302 52.2579 174.351 52.6438C174.383 53.0316 174.371 53.4219 174.313 53.8066L174.147 54.388L173.989 56.0469L173.664 57.1244L173.747 57.543C173.652 57.5258 173.555 57.5258 173.46 57.543C173.377 57.543 173.339 57.543 173.339 57.543C173.128 57.543 173 57.3182 172.977 56.8763C172.954 56.4345 172.977 56.1012 172.977 55.8763L172.57 54.388L172.411 53.2252L172.245 52.7291V51.8143C172.192 51.8143 172.086 51.5663 171.92 51.0391L171.603 48.0546L171.437 47.6438C171.347 47.1796 171.319 46.7049 171.354 46.2329L171.196 44.4887V44.1554C171.137 43.8249 171.137 43.486 171.196 43.1554L171.279 42.9074C171.279 42.7988 171.279 42.4655 171.196 41.9151L171.113 39.5895L170.871 38.0934C171.025 37.9012 171.136 37.6761 171.196 37.4345L171.037 36.9306C170.581 37.1611 170.087 37.303 169.58 37.3492C167.675 37.222 165.783 36.9447 163.919 36.5197L163.436 36.7678L163.277 36.9306L163.353 37.8453C163.285 37.973 163.258 38.1197 163.277 38.2639L163.194 38.7601L163.111 39.0081L163.277 39.8376C163.211 39.9192 163.169 40.0188 163.157 40.1244C163.157 40.2639 163.043 40.574 162.915 41.0391C162.787 41.5042 162.477 42.5508 162.024 44.1399C161.593 45.604 161.282 47.1029 161.096 48.6205C160.857 48.6984 160.604 48.7165 160.357 48.6733C160.11 48.6302 159.877 48.527 159.677 48.3725C159.25 48.1208 158.88 47.7801 158.59 47.3724L157.616 45.4655L156.408 44.2252C156.733 43.3337 156.997 42.6748 157.216 42.1476L158.59 39.574C158.981 38.8239 159.237 38.007 159.345 37.1632C159.375 36.6102 159.39 36.3079 159.39 36.2562L159.224 34.9228C158.338 35.267 157.486 35.698 156.68 36.2097C155.56 36.8591 154.348 37.3223 153.087 37.5818L152.845 37.3337C151.713 37.1063 151.026 36.7885 150.785 36.3802C150.586 36.0988 150.459 35.7712 150.415 35.4267L150.256 34.512L149.932 33.512V33.1011C150.05 32.7649 150.23 32.4546 150.46 32.1864C150.807 31.6903 151.064 31.4965 151.215 31.605L150.573 33.3492L151.056 33.76C152.074 33.4058 153.037 32.9047 153.917 32.2717ZM156.378 20.481V20.8143C156.804 21.4017 157.398 21.838 158.076 22.0624H160.666C161.166 22.4102 161.709 22.6891 162.281 22.8919C163.308 23.3764 164.178 24.1541 164.787 25.1321H165.187L165.27 26.1244L164.304 25.8763C163.879 25.9158 163.459 25.999 163.051 26.1244C162.563 26.2814 162.05 26.3394 161.541 26.2949C161.092 26.2658 160.652 26.1529 160.243 25.9616C160.19 25.9616 159.85 26.0469 159.231 26.2097C158.886 26.2815 158.549 26.3933 158.227 26.543C158.114 26.5973 158.092 26.4887 158.144 26.2097L159.277 25.6283C159.197 25.5563 159.129 25.4727 159.073 25.3802C158.877 25.2221 158.658 25.0965 158.424 25.0081C157.835 24.6197 157.35 24.0869 157.012 23.4577C156.614 22.9558 156.353 22.3536 156.257 21.7135C156.283 21.5912 156.282 21.4646 156.255 21.3427C156.227 21.2208 156.174 21.1066 156.099 21.0081C155.963 20.8686 155.925 20.7756 155.978 20.7136L156.378 20.481Z" fill="white"/>
<path d="M205.36 28.6981C205.247 28.6981 205.179 28.6982 205.156 28.6594C205.134 28.6206 204.983 28.6594 204.711 28.7834C204.506 28.8767 204.286 28.9319 204.062 28.9462C203.375 29.0766 202.668 29.034 202.001 28.8222C201.616 28.7055 201.258 28.5075 200.952 28.2408C200.783 28.0679 200.576 27.9401 200.348 27.8687L199.057 25.8764L198.242 25.4656V25.047L198.997 24.7989C199.079 25.0717 199.233 25.3158 199.442 25.5044C199.6 25.5962 199.785 25.6264 199.963 25.5896L200.854 25.4656L202.107 25.295C202.366 25.2876 202.622 25.2324 202.862 25.1322L203.616 24.6361L203.858 24.8842C204.43 24.5766 205.026 24.3174 205.639 24.109H206.53L206.93 24.0315L207.904 23.8609L208.87 23.6981C208.923 22.9938 208.923 22.2863 208.87 21.5819C208.817 20.892 208.719 20.4889 208.591 20.3803C208.479 20.2815 208.354 20.1981 208.221 20.1323C207.909 20.15 207.599 20.1914 207.293 20.2563C206.906 20.3294 206.515 20.3709 206.123 20.3803C205.643 20.4029 205.168 20.2874 204.749 20.047L204.183 20.4578C203.938 20.3956 203.714 20.2671 203.533 20.0858C203.416 19.9151 203.347 19.7134 203.337 19.5044C203.329 19.1904 203.428 18.8833 203.616 18.6361C204.1 17.8067 205.02 17.3648 206.364 17.3105C206.695 17.3117 207.024 17.3666 207.338 17.4734C208.185 17.9283 208.984 18.4712 209.723 19.0935C210.612 19.666 211.37 20.4305 211.942 21.3338C212.142 21.8112 212.277 22.3147 212.343 22.8299C212.385 23.1177 212.412 23.4075 212.426 23.6981L212.267 24.3648L214.207 25.7757C214.363 25.99 214.485 26.228 214.569 26.4811C214.639 26.7069 214.749 26.9173 214.894 27.1012C215.022 27.264 215.173 27.4578 215.339 27.6826C215.337 27.7049 215.339 27.7274 215.346 27.7487C215.352 27.77 215.363 27.7898 215.377 27.8067C215.377 27.8067 215.377 27.8067 215.256 27.8067H214.773L214.018 28.3881C213.698 28.3322 213.372 28.3322 213.052 28.3881L212.237 28.8377L211.482 28.9152L211.24 29.0005C211.321 29.2968 211.511 29.5495 211.769 29.7059C212.063 29.8669 212.375 29.9918 212.697 30.078L214.72 30.7447L216.577 31.8222L217.143 32.1555C217.646 32.4692 218.107 32.8468 218.517 33.2795C218.734 33.5268 218.963 33.7623 219.204 33.985C219.282 34.0632 219.378 34.1193 219.483 34.1477L219.566 34.4811H219.03L218.706 34.8919C216.177 34.954 214.773 35.0625 214.509 35.2253H213.754L213.513 35.5586H212.237L210.214 36.0547C209.743 36.1212 209.282 36.2461 208.84 36.4268C208.704 36.499 208.584 36.5988 208.487 36.72C208.389 36.8413 208.317 36.9815 208.274 37.1323C208.178 37.3397 208.149 37.5733 208.191 37.7989L208.274 38.295C208.48 38.0542 208.77 37.9065 209.082 37.8842L210.297 37.5508C210.615 37.4904 210.939 37.4618 211.263 37.4656C212.505 37.5714 213.682 38.082 214.622 38.923C215.496 39.5811 216.26 40.3795 216.887 41.2873C217.311 42.0115 217.523 42.8457 217.498 43.6904C217.453 44.2013 217.344 44.7042 217.174 45.1865L216.849 45.6826L216.607 46.264C216.192 46.9177 215.62 47.4514 214.947 47.8144C214.123 48.3184 213.329 48.8724 212.569 49.4733C212.13 49.7749 211.722 50.1231 211.354 50.5121L211.271 51.0082C211.376 51.3958 211.542 51.8687 211.754 52.4268C211.97 52.8926 212 53.4271 211.837 53.9152L211.512 54.5819L211.271 55.3571L210.387 56.7679H210.063L209.738 56.4346L209.089 56.3571L208.848 55.9385C208.393 55.9759 207.94 55.8587 207.557 55.6051C207.338 55.0548 207.127 54.4733 206.908 53.8687C206.863 53.7041 206.835 53.5353 206.825 53.3648L206.341 52.7059C206.051 52.3896 205.843 52.0029 205.738 51.5819C205.508 50.4472 205.359 49.2969 205.292 48.14L205.051 46.233V45.5664C204.446 45.7906 203.92 46.1956 203.541 46.7292C203.235 46.5577 202.962 46.332 202.733 46.0625C202.52 45.6748 202.331 45.2734 202.167 44.8609C201.943 44.4413 201.833 43.9672 201.85 43.4889L201.926 42.9075C201.767 42.7989 201.699 42.6982 201.729 42.6206C201.772 42.5081 201.839 42.4072 201.926 42.3261L202.333 42.078C202.526 41.8222 202.688 41.5437 202.816 41.2485C203.035 40.8067 203.247 40.295 203.466 39.6981C203.594 39.3098 203.756 38.9337 203.949 38.5741C204.058 38.401 204.127 38.205 204.152 38.0005C204.152 37.7731 204.084 37.7731 203.949 38.0005L203.624 38.2485H203.141L202.899 38.4966H202.409L195.223 42.3105C195.132 42.1804 195.051 42.043 194.981 41.8997L194.007 40.8997C193.866 40.7199 193.77 40.5068 193.728 40.2795C193.671 40.1024 193.628 39.921 193.6 39.7369L193.283 39.078V38.5741C193.27 38.3796 193.295 38.1844 193.358 38.0005C193.41 37.8907 193.494 37.801 193.6 37.7446H194.09C194.249 37.7446 194.475 37.5663 194.777 37.2098C195.085 36.835 195.424 36.4876 195.789 36.171L197.404 34.8454C200.363 32.4113 202.074 30.9849 202.537 30.5663C203.008 30.1436 203.537 29.7937 204.107 29.5276C204.568 29.3274 204.992 29.0468 205.36 28.6981ZM199.94 35.0935L201.45 34.5121C202.681 34.0381 203.942 33.6496 205.224 33.3493C205.873 33.2408 206.236 33.0702 206.319 32.8532C206.402 32.6361 206.462 32.4113 206.515 32.1865L207.081 30.2795L207.247 29.4501C206.616 29.4985 205.999 29.6667 205.428 29.9462C204.786 30.2024 204.175 30.5354 203.609 30.9385L199.08 34.5121C198.19 34.9748 197.327 35.4926 196.498 36.0625L196.174 36.6439L199.94 35.0935ZM208.832 47.5431C208.955 47.5493 209.078 47.5336 209.195 47.4966C209.278 47.4966 209.467 47.264 209.761 46.8765C209.995 46.555 210.267 46.2635 210.569 46.0082C210.81 45.8144 211.15 45.5043 211.58 45.0935C212.01 44.6826 212.644 44.14 213.482 43.4733C213.861 43.2182 214.159 42.8546 214.339 42.4275C214.519 42.0004 214.572 41.5285 214.494 41.0703C214.328 40.1245 213.06 40.2408 210.72 41.4036C208.38 42.5664 207.111 43.2796 207.006 43.3881L206.681 43.8067L206.357 43.8919L206.115 44.6671C207.139 45.4996 208.053 46.4666 208.832 47.5431ZM211.542 31.8997C211.837 31.6439 211.542 31.2485 210.689 30.6904C210.584 30.8067 210.531 30.8842 210.531 30.9385L210.372 31.6051L210.206 32.1865C210.666 32.284 211.145 32.1951 211.542 31.9385V31.8997Z" fill="white"/>
<path d="M232.429 40.8996C232.371 40.6852 232.346 40.4631 232.354 40.2407C232.354 39.9617 232.731 39.7368 233.486 39.574L234.241 38.7446L239.902 34.5973C239.907 34.469 239.892 34.3407 239.857 34.2175C239.857 34.14 239.706 33.8454 239.494 33.3493C239.256 32.7684 239.118 32.1493 239.087 31.5198C239.034 30.8066 238.996 30.3183 238.966 30.0702C238.936 29.8221 238.966 29.6671 238.966 29.6128L239.291 27.8686C239.263 27.6468 239.222 27.4268 239.17 27.2097C239.09 26.9409 239.075 26.6565 239.124 26.3803L239.208 24.2175L237.351 22.8919C237.298 22.7214 237.403 22.6438 237.675 22.6438C238.355 22.8666 239.016 23.1439 239.653 23.4733L241.389 24.3028L242.687 26.0469C243.21 26.0912 243.721 26.2303 244.197 26.4578L244.763 22.3105C244.654 22.3091 244.545 22.2961 244.439 22.2718C244.139 22.2999 243.85 22.398 243.593 22.5586C242.951 22.7706 242.253 22.712 241.653 22.3958C240.883 22.1243 240.236 21.5729 239.834 20.8454C240.45 20.7943 241.052 20.626 241.608 20.3492L242.906 19.5741C243.416 19.3917 243.961 19.3374 244.496 19.4156C245.03 19.4938 245.539 19.7023 245.978 20.0237C247.164 20.7214 247.835 21.2562 247.994 21.6438L248.477 22.8066C248.16 23.0857 247.994 23.2485 247.994 23.3027L247.669 24.4655C247.889 24.4249 248.106 24.3706 248.319 24.3028L249.224 24.1865C249.484 24.1135 249.736 24.0175 249.979 23.8996C250.44 23.7058 251.489 23.357 253.218 22.8609C254.57 22.4288 255.965 22.1506 257.377 22.0314C257.469 22.0179 257.563 22.0179 257.656 22.0314C257.686 22.0524 257.722 22.0637 257.758 22.0637C257.794 22.0637 257.83 22.0524 257.86 22.0314L258.909 21.7834C259.169 21.8106 259.424 21.8785 259.664 21.9849C260.005 22.1241 260.355 22.2356 260.713 22.3183C260.979 22.3731 261.234 22.4726 261.468 22.6128C261.756 22.8519 262.01 23.1311 262.223 23.4423H262.547L262.955 23.8531V24.1865C262.58 24.2416 262.213 24.3404 261.86 24.481C261.472 24.6261 261.065 24.7097 260.653 24.7291C260.204 24.7509 259.758 24.8053 259.317 24.8919C259.051 24.9523 258.781 24.9938 258.509 25.0159H257.294C256.811 25.1865 256.622 25.3493 256.727 25.5121L256.894 26.0159C256.734 26.1399 256.55 26.2263 256.354 26.2692C256.159 26.312 255.956 26.3103 255.761 26.264C255.165 26.7058 254.84 27.0392 254.788 27.1787L254.387 28.0082L256.969 27.0082C257.244 27.327 257.574 27.5899 257.943 27.7834L259.641 28.6128C259.826 28.9116 259.938 29.2521 259.966 29.6051C260.021 30.0495 260.235 33.0108 260.607 38.4888C260.726 39.5311 260.63 40.5872 260.328 41.5896C260.087 42.0857 259.988 42.3648 260.041 42.419C260.125 42.8023 260.323 43.1492 260.607 43.4113C260.846 43.6713 261.063 43.9514 261.257 44.2485L261.581 45.4888C261.66 45.6047 261.726 45.7296 261.777 45.8609C261.809 45.9557 261.824 46.0553 261.823 46.1555L261.74 47.3183L261.415 48.5586C261.693 48.7383 261.992 48.879 262.306 48.9772L264.329 49.3105L265.537 49.6361L266.344 50.1399L266.993 50.4733C266.915 50.9638 266.706 51.4226 266.39 51.7989C266.148 52.0159 264.351 52.3337 261.015 52.7523C259.194 53.0372 257.36 53.2184 255.52 53.295C254.42 53.3261 253.323 53.1555 252.282 52.7911L249.217 51.3803L246.341 50.6748C245.108 50.4286 243.938 49.9218 242.906 49.1865C242.099 48.5508 241.646 48.202 241.532 48.1477L238.143 49.0625C237.829 49.169 237.495 49.1956 237.169 49.14C236.426 49.1578 235.69 48.9874 235.026 48.6438C234.407 48.3105 233.886 47.4578 233.456 46.0702C233.748 46.2642 234.077 46.3912 234.422 46.4423C235.267 46.3974 236.105 46.2728 236.928 46.0702C237.985 45.8988 239.017 45.5915 240 45.1555C241.683 44.0976 243.301 42.9352 244.846 41.6748C244.162 41.8968 243.489 42.1555 242.831 42.45C242.182 42.7291 241.585 42.9616 241.049 43.1554C240.695 43.2641 240.355 43.4178 240.038 43.6128C239.772 43.8567 239.52 44.1155 239.283 44.388C239.071 44.6405 238.815 44.8507 238.528 45.0082C238.202 45.0184 237.876 44.9766 237.562 44.8842C237.513 44.8479 237.476 44.7977 237.454 44.7398C237.433 44.682 237.428 44.619 237.441 44.5586C237.498 44.3967 237.594 44.2525 237.72 44.14L237.237 43.7291C237.29 43.3415 237.343 42.9539 237.396 42.6438C237.423 42.3983 237.492 42.1597 237.6 41.9384C237.807 41.7215 238.068 41.5662 238.355 41.4888C239.054 41.1401 239.719 40.7221 240.34 40.2407C241.167 39.6534 241.926 38.9721 242.604 38.2097C242.98 37.7135 243.428 37.2794 243.933 36.9229C244.23 36.7524 244.351 36.6128 244.295 36.5043L244.22 36.419C243.528 36.7674 242.864 37.1718 242.234 37.6283C241.827 37.9403 241.395 38.2177 240.944 38.4578C240.649 38.5973 240.498 38.6904 240.498 38.7446L240.34 39.1632L239.857 39.078C239.376 39.682 238.766 40.1646 238.075 40.4888L238.158 40.7368L237.751 41.3182V40.9849C237.569 41.01 237.392 41.0678 237.23 41.1555C236.883 41.4928 236.558 41.8528 236.256 42.233C235.98 42.5622 235.64 42.8282 235.258 43.0138C234.876 43.1994 234.46 43.3005 234.037 43.3105C233.677 43.3422 233.318 43.2404 233.025 43.0237C232.793 42.8301 232.609 42.5819 232.489 42.2999C232.369 42.0178 232.318 41.7104 232.338 41.4035C232.339 41.2313 232.369 41.0606 232.429 40.8996ZM242.491 45.8376C242.74 45.8973 242.992 45.9388 243.246 45.9617C243.98 46.1278 244.698 46.3639 245.39 46.6671C246.669 47.1564 247.995 47.5047 249.345 47.7059V46.295L249.587 46.0469C249.579 45.8773 249.607 45.708 249.67 45.5508L250.802 43.7214L251.044 43.14L250.153 42.3105C250.047 42.2562 250.017 42.0624 250.077 41.7291C250.123 41.4732 250.148 41.214 250.153 40.9539L250.077 39.7911C249.964 38.7168 249.964 37.633 250.077 36.5586C250.074 36.1953 250.099 35.8324 250.153 35.4733L250.56 32.2407C250.56 31.5408 250.641 30.8434 250.802 30.1632L251.285 28.6128C251.425 28.1594 251.645 27.7363 251.934 27.3647C252.128 27.1292 252.29 26.8685 252.417 26.5895L252.259 26.3415C251.824 26.3521 251.39 26.3235 250.961 26.2562L247.941 25.6748L247.375 25.8376L247.133 26.0082V28.078L246.892 29.6283L246.733 33.1167C247.559 33.3335 248.313 33.7754 248.915 34.3958C249.093 34.6269 249.229 34.8897 249.315 35.171L249.239 35.9461H249.556C248.424 37.0469 247.081 38.2718 245.518 39.5121C245.86 39.4102 246.219 39.3797 246.573 39.4223C246.927 39.4649 247.269 39.5798 247.579 39.7601C248.074 39.9686 248.547 40.2283 248.99 40.5353C249.113 40.6679 249.21 40.8231 249.277 40.9927C249.354 41.162 249.382 41.35 249.36 41.5353C249.106 42.0157 248.777 42.4504 248.386 42.8221C247.881 43.4263 247.263 43.9194 246.567 44.2717C245.914 44.5668 245.218 44.7501 244.507 44.8144C243.923 44.8099 243.36 45.0313 242.929 45.4345L242.446 45.3493L242.121 45.5198C242.223 45.6492 242.349 45.7571 242.491 45.8376ZM242.212 30.3337C242.861 30.45 243.503 30.5895 244.152 30.7523V28.9229L243.993 28.7601C243.244 29.0908 242.619 29.6619 242.212 30.388V30.3337ZM242.778 34.4035H242.937L243.02 34.3183H243.186L243.261 34.2407V34.0702L243.186 33.9074H243.103L242.778 34.2407V34.4035ZM243.744 33.4888L243.827 33.5741H243.91L244.069 33.4113L244.152 33.2407V33.0779L244.069 32.9927L243.827 33.1632L243.744 33.326H243.669V33.4113L243.744 33.4888ZM255.308 49.1787C257.257 49.1313 259.2 48.937 261.121 48.5973C260.953 48.4522 260.761 48.3393 260.555 48.264L259.8 47.4345L259.234 47.1865C258.997 46.7776 258.834 46.3287 258.751 45.8609L258.667 45.1942L257.777 44.8609C257.329 45.1558 256.84 45.3805 256.327 45.5276C255.845 45.1835 255.292 44.9556 254.712 44.8609C254.492 44.8456 254.272 44.8746 254.063 44.9462L253.414 45.5276L253.014 45.7756L252.365 46.4423L251.798 46.7679L250.666 48.1012C252.109 48.835 253.699 49.212 255.308 49.202V49.1787ZM252.395 41.5431C252.582 41.0527 252.812 40.5806 253.082 40.1322C253.286 39.8156 253.463 39.481 253.61 39.1322L253.686 35.7291C253.686 35.5121 253.731 35.388 253.806 35.357C253.882 35.326 253.987 35.4733 254.093 35.7756C254.163 35.9482 254.216 36.1274 254.252 36.3105L254.176 36.8919C254.275 36.8666 254.37 36.8247 254.455 36.7678C254.524 36.5813 254.564 36.3853 254.576 36.1865C254.612 35.9062 254.667 35.629 254.742 35.357L254.863 34.8997C254.732 34.4261 254.525 33.9782 254.252 33.5741H253.61V32.9074L254.252 32.2485C254.85 32.3906 255.415 32.6542 255.912 33.0237C256.185 33.3227 256.417 33.6592 256.599 34.0237C256.828 34.5073 256.952 35.0364 256.962 35.5741C256.982 36.2704 256.929 36.967 256.803 37.6516C256.697 38.2968 256.548 38.934 256.358 39.5586C256.222 39.8422 256.164 40.1585 256.192 40.4733V40.6361H256.841C257.407 39.5597 257.737 38.369 257.807 37.1477V36.0702L257.407 29.5973L257.324 29.1865C257.167 29.1025 256.989 29.0729 256.814 29.1023C256.64 29.1317 256.48 29.2183 256.358 29.3492C255.903 29.642 255.429 29.901 254.938 30.1244C254.391 30.3441 253.906 30.7013 253.527 31.1632C253.218 31.8679 253.053 32.6306 253.044 33.4035L252.802 35.5585C252.689 37.1089 252.583 38.1632 252.478 38.7136V40.2097L252.153 41.1167L252.236 41.5353L252.395 41.5431ZM255.55 41.9539L256.433 41.0469L255.678 41.1244L255.55 41.9539Z" fill="white"/>
<path d="M272.76 48.7825L272.843 48.5344C273.432 48.3661 273.973 48.0551 274.42 47.6274C275.324 46.8417 276.031 45.8448 276.481 44.7205L278.746 39.2941L279.795 35.8057C280.124 34.8732 280.502 33.9597 280.927 33.0693L281.81 30.829C282.132 29.9453 282.754 28.5603 283.675 26.674C282.796 26.5556 281.968 26.1817 281.289 25.5964C280.807 25.2165 280.408 24.7356 280.12 24.1856C279.961 23.8174 279.864 23.4242 279.833 23.0228C279.819 22.8321 279.852 22.641 279.93 22.4674C280.008 22.2937 280.128 22.1434 280.278 22.0305C280.936 22.1003 281.586 22.238 282.218 22.4414L281.976 23.2709C282.407 23.3329 282.852 23.3716 283.313 23.3949C284.2 23.3009 285.063 23.038 285.856 22.6197C287.023 22.114 288.245 21.7523 289.495 21.5422C289.945 21.5201 290.385 21.4017 290.788 21.1949C291.191 20.988 291.547 20.697 291.835 20.3406C291.436 20.0967 291.057 19.8192 290.702 19.5111C290.368 19.102 290.058 18.6723 289.774 18.2243C289.485 17.8194 289.233 17.3888 289.019 16.9375C288.966 16.767 288.929 16.6274 288.898 16.5189C288.868 16.4104 288.966 16.2166 289.185 15.9375H289.51C289.815 16.3121 290.151 16.6596 290.514 16.9763C290.811 17.2251 291.138 17.4335 291.488 17.5964C291.835 17.767 292.673 18.1081 293.994 18.6352C295.315 19.1623 296.024 19.5654 296.13 19.8367L296.537 20.9995C297.49 20.9704 298.441 21.0694 299.368 21.2941C299.838 21.632 300.247 22.0517 300.576 22.5344C301.119 23.2321 301.331 23.6042 301.331 23.6584L301.006 24.4336C300.57 24.4565 300.133 24.4014 299.715 24.2708L298.417 23.8522C297.035 23.7238 295.641 23.8365 294.296 24.1856C294.408 24.2234 294.511 24.2881 294.595 24.3743C294.679 24.4605 294.742 24.5658 294.779 24.6817C295.144 24.9372 295.472 25.2452 295.752 25.5964L296.236 26.2631C296.328 26.4737 296.384 26.6993 296.402 26.9297L296.319 27.5887C297.326 28.384 298.284 29.2435 299.187 30.1623C299.312 30.5371 299.38 30.9292 299.391 31.3251L299.149 31.8212C297.851 31.6042 296.53 31.4337 295.186 31.3251C295.133 31.486 295.133 31.6603 295.186 31.8212C295.293 31.9983 295.432 32.1534 295.594 32.2786C296.175 33.0721 296.68 33.921 297.104 34.8135C297.474 34.9225 297.866 34.9225 298.236 34.8135C298.866 35.0916 299.442 35.4857 299.934 35.9763L300.334 36.8058L300.742 37.4646V37.6352C300.637 37.6749 300.528 37.701 300.417 37.7127L299.285 38.2941C298.885 38.4384 298.505 38.6337 298.153 38.8755C298.477 39.0461 299.406 39.4569 300.946 40.1236C301.905 40.5996 302.92 40.9487 303.965 41.1623H304.72L305.128 41.5809L306.418 42.3561L306.743 43.0228C306.897 43.319 306.994 43.6426 307.03 43.9763C307.043 44.1194 307.024 44.2638 306.974 44.3982C306.925 44.5326 306.845 44.6535 306.743 44.7515C305.611 44.4259 304.773 44.2011 304.237 44.0925L302.297 44.0073C299.655 43.8445 298.1 43.8987 297.609 44.1778C297.451 45.4491 297.353 46.5034 297.33 47.3251C297.323 47.8827 297.283 48.4393 297.209 48.9918L296.968 49.984V51.8135L296.477 54.2166L296.319 55.8755L295.835 57.953C295.518 57.5198 295.284 57.0275 295.148 56.5034C294.96 55.86 294.839 55.4026 294.779 55.1313L294.22 52.643C294.075 52.2938 293.966 51.9301 293.896 51.5577L293.729 50.1468L293.571 49.3716L293.488 47.7127L293.329 46.3019L293.488 45.1391C293.28 45.0269 293.066 44.9285 292.846 44.8445C292.627 44.8529 292.415 44.9255 292.235 45.0538C291.786 45.2792 291.312 45.4484 290.823 45.5577C290.045 45.7626 289.287 46.0403 288.559 46.3871C287.937 46.7071 287.288 46.9666 286.619 47.1623C285.832 47.2883 285.034 47.3169 284.241 47.2476H281.976C281.662 47.1839 281.367 47.0456 281.114 46.8437C280.861 46.6418 280.657 46.3819 280.52 46.0848C280.891 46.0667 281.252 45.952 281.569 45.7515L282.059 45.4181C283.724 44.9244 285.335 44.2569 286.868 43.4259C288.936 42.3923 290.499 41.8522 291.555 41.8057C292.184 41.8519 292.816 41.7675 293.412 41.5576C293.601 41.4181 293.669 41.2709 293.616 41.1003L293.45 40.4414C292.642 40.7979 291.803 41.0756 290.944 41.2708L290.619 40.9375C290.242 41.1623 289.865 41.3949 289.495 41.643C289.046 41.9158 288.552 42.0998 288.038 42.1856C288.044 42.1086 288.073 42.0355 288.121 41.9763C288.375 41.7753 288.661 41.6206 288.966 41.5189C289.531 41.2657 290.072 40.9595 290.582 40.6042C291.148 40.2166 291.684 39.8755 292.197 39.5654C292.627 39.3361 293.001 39.0102 293.292 38.6119C292.608 38.7348 291.932 38.9005 291.269 39.1081L290.702 39.3639L287.955 41.1856C287.039 41.7024 286.473 41.3846 286.256 40.2321C286.103 39.6507 286.022 39.0516 286.015 38.4492L286.098 37.4491C286.256 37.5654 286.498 37.5499 286.853 37.4491C287.208 37.3484 288.227 35.7205 290.008 32.674C289.698 32.5683 289.4 32.4306 289.117 32.2631L287.902 32.015L286.392 31.015L285.909 31.1856L284.535 35.3329L282.429 40.4802C282.218 40.9763 281.999 41.5577 281.788 42.2243C281.673 42.6223 281.524 43.0088 281.342 43.3794L280.172 44.8833L278.663 47.046C277.53 48.1468 276.64 48.7282 275.99 48.7825L275.749 49.0383C275.375 49.1443 275.021 49.3119 274.7 49.5344C274.564 49.5488 274.427 49.5342 274.297 49.4915C274.167 49.4488 274.047 49.3789 273.945 49.2864C273.504 49.2696 273.083 49.0908 272.76 48.7825ZM287.555 29.6972L289.819 28.7825L291.329 28.4957C292.084 28.3561 292.454 28.2321 292.507 28.1158L293.88 25.9608L293.639 25.6274C291.699 25.6274 291.103 25.3561 291.857 24.798V24.4646C289.163 25.4646 287.668 26.1391 287.374 26.5034C287.025 26.9785 286.79 27.5307 286.687 28.1158L286.204 29.9453C286.661 29.9116 287.114 29.8284 287.555 29.6972ZM294.099 35.0073C294.181 34.9734 294.251 34.917 294.303 34.8445C294.34 34.7366 294.365 34.6248 294.379 34.5112C294.401 34.4013 294.416 34.2899 294.424 34.1778L294.341 32.1856C293.963 32.0771 293.669 32.2399 293.45 32.6817L293.05 33.5964L292.076 35.0073L292.001 35.2554C292.689 35.0964 293.394 35.0235 294.099 35.0383V35.0073ZM299.512 41.4026C299.46 41.2993 299.432 41.1854 299.429 41.0693L298.379 40.0693C297.843 39.5732 297.556 39.4337 297.534 39.6585C297.511 39.8833 297.534 40.015 297.534 40.0693L297.617 40.8445L297.534 41.3406L299.512 41.4026Z" fill="white"/>
</g>
</g>
<defs>
<clipPath id="clip0_2935_51041">
<rect width="1920" height="74" fill="white"/>
</clipPath>
<clipPath id="clip1_2935_51041">
<rect width="283" height="42" fill="white" transform="translate(24 16)"/>
</clipPath>
</defs>
</svg>
