<svg width="12" height="13" viewBox="0 0 12 13" fill="none" xmlns="http://www.w3.org/2000/svg">
<path d="M6.96856 9.3957C6.94506 9.37244 6.91334 9.35939 6.88027 9.35939C6.84721 9.35939 6.81549 9.37244 6.79199 9.3957L4.97637 11.2113C4.13574 12.052 2.71699 12.141 1.78887 11.2113C0.85918 10.2816 0.948242 8.86445 1.78887 8.02383L3.60449 6.2082C3.65293 6.15977 3.65293 6.08008 3.60449 6.03164L2.98262 5.40977C2.95912 5.3865 2.9274 5.37345 2.89434 5.37345C2.86127 5.37345 2.82955 5.3865 2.80606 5.40977L0.99043 7.22539C-0.331445 8.54727 -0.331445 10.6863 0.99043 12.0066C2.3123 13.327 4.45137 13.3285 5.77168 12.0066L7.58731 10.191C7.63574 10.1426 7.63574 10.0629 7.58731 10.0145L6.96856 9.3957ZM11.0092 1.98945C9.68731 0.667578 7.54824 0.667578 6.22793 1.98945L4.41074 3.80508C4.38748 3.82857 4.37443 3.8603 4.37443 3.89336C4.37443 3.92642 4.38748 3.95815 4.41074 3.98164L5.03106 4.60195C5.07949 4.65039 5.15918 4.65039 5.20762 4.60195L7.02324 2.78633C7.86387 1.9457 9.28262 1.85664 10.2107 2.78633C11.1404 3.71602 11.0514 5.1332 10.2107 5.97383L8.39512 7.78945C8.37185 7.81295 8.35881 7.84467 8.35881 7.87774C8.35881 7.9108 8.37185 7.94252 8.39512 7.96602L9.01699 8.58789C9.06543 8.63633 9.14512 8.63633 9.19356 8.58789L11.0092 6.77227C12.3295 5.45039 12.3295 3.31133 11.0092 1.98945ZM7.53262 4.81602C7.50912 4.79275 7.4774 4.7797 7.44434 4.7797C7.41128 4.7797 7.37955 4.79275 7.35606 4.81602L3.81699 8.35352C3.79373 8.37701 3.78068 8.40874 3.78068 8.4418C3.78068 8.47486 3.79373 8.50659 3.81699 8.53008L4.43574 9.14883C4.48418 9.19727 4.56387 9.19727 4.61231 9.14883L8.14981 5.61133C8.19824 5.56289 8.19824 5.4832 8.14981 5.43477L7.53262 4.81602Z" fill="black" fill-opacity="0.85"/>
</svg>
