<svg width="360" height="40" viewBox="0 0 360 40" fill="none" xmlns="http://www.w3.org/2000/svg">
<g clip-path="url(#clip0_1189_17291)">
<path d="M-4.75613e-06 27.8915V27.6554L0.431207 27.1833H0.800817L1.66324 27.4868C1.90965 27.5542 2.31006 27.4193 2.86447 27.1158C3.41889 26.8123 4.0657 26.5424 4.77412 26.2726C5.48254 26.0028 5.97535 25.8005 6.22176 25.6655C6.46817 25.5306 6.93018 25.362 7.6386 25.1934C8.34702 25.0247 8.77823 24.8224 8.96304 24.5863C8.71663 23.9455 8.53182 23.4396 8.40862 23.0686C8.28542 22.6976 8.25462 22.4615 8.28542 22.3603L8.34702 21.9556L8.06981 21.6521C8.13141 21.3485 8.13141 21.0787 8.10061 20.9101C8.06981 20.7414 8.06981 20.5391 8.06981 20.4042L7.85421 19.7634C7.85421 19.7634 7.7926 19.3249 7.85421 18.5829V17.1664L8.06981 16.1546L8.00821 15.6824C8.16221 15.4801 8.25462 15.2777 8.28542 15.1428V14.4345L8.93223 12.8494L8.99384 12.2085C9.05544 11.8376 9.24024 11.2979 9.57905 10.6234C9.91786 9.94885 10.0719 9.47668 10.0411 9.24059C10.0103 9.0045 9.94866 8.70096 9.85626 8.32997C9.94866 8.16133 10.0103 8.02642 10.0719 7.92524V7.21698L10.5031 6.57617L11.4271 7.28444C11.9199 7.38562 12.3511 7.58798 12.8131 7.82406H13.306C13.5832 8.1276 13.9528 8.70096 14.384 9.5104C14.8152 10.3198 15.4004 11.0281 16.1088 11.6015C16.1088 11.6689 16.2628 11.6689 16.6016 11.6352C16.9404 11.6015 17.2793 11.7701 17.6181 12.0736L18.5421 13.1866C19.0657 13.8274 19.3737 14.2322 19.4353 14.4682C19.4969 14.7043 19.5585 14.9067 19.5585 15.1765V15.4801C19.3737 15.6487 19.2505 15.7161 19.1889 15.7161L18.0185 15.4126L17.3717 15.4801L16.7864 15.3114L16.5708 15.3789L16.3552 15.0753C15.924 15.0079 15.462 14.7718 14.9692 14.2996C14.692 14.4682 14.4764 14.6032 14.3532 14.7043C14.23 14.8055 14.1068 15.1091 13.9836 15.5812C13.8604 16.0534 13.7372 16.4581 13.5832 16.7617C13.4292 17.0652 13.3676 17.3013 13.3676 17.4025V17.8072L13.1519 18.448V18.9202L12.9363 19.3924C12.9363 19.3924 12.8131 19.6959 12.8747 19.7971L12.9363 20.7414L12.6591 21.1462L12.9363 21.3822L12.6591 22.9L12.9363 23.2035C12.9363 23.2035 12.9363 23.4059 12.9055 23.507C12.8747 23.6082 12.9055 23.7094 12.9055 23.8106C12.9055 23.9118 13.0903 23.9455 13.3676 23.9455C13.6448 23.9455 14.3224 23.878 15.4004 23.8106L15.616 23.5745C16.9713 23.6419 17.8029 23.7094 18.1417 23.8106C18.4805 23.9118 18.8809 23.9118 19.3737 23.8106C19.4353 23.9792 19.5585 24.0467 19.8049 24.0467L20.0821 24.3502H20.5133L20.9446 24.7549L21.653 25.3957V25.9354C21.8378 26.4075 21.9918 26.7111 22.0842 26.8797C22.1766 27.0483 22.2382 27.1158 22.2998 27.1158L22.4538 27.588L22.5154 27.8241L22.2382 28.1276H21.8686L21.653 27.8915H21.3758C21.0062 27.6892 20.6981 27.4868 20.5133 27.3519L20.2977 27.6554C19.9281 27.588 19.6509 27.588 19.4661 27.6217C19.2813 27.6554 19.0657 27.7229 18.7885 27.8241C18.5113 27.9252 18.0185 27.959 17.3409 27.8915L17.1253 28.1276H16.2012L16.1396 28.3637H14.9076C14.9076 28.3637 14.7228 28.6335 14.6612 28.6672C14.5996 28.701 14.3532 28.8021 13.9528 28.9033C13.5524 29.0045 13.1211 29.2743 12.6591 29.6453C12.1971 30.0163 11.9199 30.2524 11.8275 30.2524L10.7495 30.5559L9.57905 31.1967L9.14784 31.2642C8.96304 31.3317 8.59343 31.5677 8.10061 32.0062C7.6078 32.4446 7.20739 32.6807 6.89938 32.7145C6.59137 32.7482 6.40657 32.7145 6.31416 32.5795L5.94455 32.3435H4.77412C4.49692 32.0736 4.15811 31.9387 3.8501 31.8713C3.57289 31.7701 3.23408 31.6352 2.86447 31.4328C2.49486 31.2305 2.12525 30.9607 1.75564 30.5897C1.38603 30.2187 1.13963 30.0163 1.04722 29.9489L-0.0308056 27.8915L-0.0924072 27.7229L-4.75613e-06 27.8915Z" fill="white"/>
<path d="M32.3409 16.3578C33.6037 14.8401 34.3121 14.0644 34.4661 14.0981C34.6201 14.1318 34.6817 14.233 34.6509 14.3679L33.9425 15.3797L33.6653 16.2566C34.6201 15.6158 35.6366 15.0087 36.6838 14.4354C37.731 13.862 39.0555 13.6597 40.5955 13.7946V14.0981C40.3491 14.2667 40.2259 14.5028 40.1643 14.8738L40.3799 15.2785L39.5791 16.6951L40.0719 16.7625C37.7618 19.3932 36.1294 20.6748 35.1746 20.6411C34.7433 20.6411 34.3121 20.405 33.8809 19.9666C33.4497 19.5281 33.1725 19.0897 33.0185 18.6512L32.7413 17.7069C32.4949 17.0661 32.3717 16.6951 32.3717 16.5939V16.2903L32.3409 16.3578ZM35.0206 31.8721L35.1746 31.6361C35.4518 31.5686 35.6674 31.4674 35.7906 31.3325C35.9138 31.1976 36.1294 30.6917 36.4682 29.916C36.807 29.1403 37.1766 28.2971 37.6386 27.4539L38.8707 25.228L40.3799 22.1588C40.1951 22.0914 40.0719 22.0576 40.0103 21.9902L39.2095 21.9227C38.7783 21.8215 38.501 21.7541 38.347 21.7541L38.1314 21.2819C38.9631 20.9109 39.6099 20.6074 40.1027 20.405C40.5955 20.2027 41.4887 19.9328 42.7824 19.6293C44.076 19.3258 45.0308 18.921 45.6776 18.4489C46.3245 17.9767 46.9713 16.6613 47.5873 14.5028C48.2033 12.3443 49.0965 10.6917 50.267 9.51126V9.10654L51.0678 8.63436C51.0678 8.63436 50.7598 8.63436 50.267 8.60064C49.7741 8.56691 49.4353 8.60064 49.1889 8.66809C48.9425 8.73554 48.8193 8.803 48.7577 8.87045L48.1725 9.51126L47.2485 10.1521L46.0164 11.2651H45.8008L45.5852 11.7372L45.154 11.5686C44.9692 11.9396 44.7844 12.0408 44.6612 11.8721L44.5996 12.1082H44.3224L43.5216 11.1639C43.46 10.5905 43.4292 10.0509 43.3676 9.57871C42.844 9.74735 42.4744 9.78108 42.2895 9.74735L40.1335 9.27517C39.6407 9.27517 39.2095 9.37635 38.8399 9.57871C39.0863 9.37635 39.1787 9.20772 39.1787 9.14027C39.1787 9.07281 39.0555 8.90418 38.8399 8.70182C38.6242 8.49946 38.3162 8.02728 37.8234 7.28529C37.3306 6.5433 36.8686 5.43032 36.3758 3.98006C36.6222 4.18242 36.8686 4.41851 37.0842 4.6546C37.2998 4.89069 37.5154 5.05932 37.6386 5.1605C37.7618 5.26168 38.0698 5.32914 38.5318 5.32914L41.3347 5.49777C41.6119 5.59895 42.0123 5.80131 42.536 6.13858C43.0596 6.47585 43.3676 6.67821 43.5216 6.84684L44.0144 7.72374L44.5072 8.432C45.0924 7.89237 45.7084 7.18411 46.3861 6.30721L47.8337 4.55342C48.1725 4.1487 48.4497 3.71025 48.6653 3.33925C48.8809 2.96826 48.8809 2.63099 48.6961 2.42863L48.0493 1.72037L47.7721 1.48428L47.9261 1.31565C48.1725 1.24819 48.3573 1.24819 48.5113 1.28192C48.6653 1.31565 48.8193 1.34937 49.0041 1.41683L49.6509 1.82155L49.8666 1.889L50.3594 2.42863L50.6366 2.96826L51.4374 3.91261C51.5914 4.21615 51.653 4.51969 51.653 4.78951V5.43032L51.7146 5.6664L51.653 5.90249C51.9302 5.83504 52.1458 5.76759 52.2998 5.6664L53.8091 4.78951C54.5175 4.48597 54.9179 4.24988 54.9795 4.1487L55.1951 3.74398C55.3799 3.6428 55.5031 3.54162 55.5647 3.44044C56.4271 3.71025 56.9815 3.91261 57.2279 4.08124L58.2444 5.36286L58.46 5.5315C58.3984 5.73386 58.3676 5.90249 58.306 6.0374C58.2444 6.17231 57.6592 6.64448 56.4579 7.4202C55.2567 8.19592 54.5791 8.63436 54.3635 8.70182C54.1479 8.76927 53.8091 8.70182 53.3162 8.63436L52.731 8.56691C52.731 8.56691 52.4846 8.803 52.4538 8.803L51.5914 9.03909L50.575 9.74735C50.575 10.1183 50.575 10.287 50.6366 10.287L51.2834 11.4674L51.1294 11.8721H51.7762C52.6386 11.2988 53.4702 10.8603 54.2403 10.5905L55.0411 10.1858L55.9035 10.4893L56.4887 10.5568L58.7988 12.8502V13.3224L59.0144 13.6259V14.3342L59.23 14.5703C59.0452 14.9413 58.9528 15.3123 59.0144 15.6833V16.088C59.538 16.3578 60.1848 16.4927 60.9548 16.5602C61.7249 16.6276 62.1869 16.7288 62.3717 16.8637C62.5565 16.9986 62.8953 17.201 63.4189 17.4033C63.9425 17.6057 64.2505 17.8081 64.2813 18.0441L64.4969 19.4607C64.3429 19.663 64.3121 19.7642 64.3429 19.7642L64.5585 20.1689L64.2813 20.5737C63.9117 20.5737 63.6653 20.7086 63.5729 20.9784C63.2033 20.9109 62.9261 20.8435 62.8029 20.776C62.6797 20.7086 62.6181 20.6411 62.6181 20.5737L62.1869 20.6411C62.1869 20.6411 62.0329 20.6074 61.8481 20.5062C61.6633 20.405 61.3553 20.405 60.8624 20.4725L60.7084 20.2364C60.1232 20.4387 59.538 20.4387 58.9836 20.2364L58.768 20.5399C58.8604 20.8097 58.922 20.9784 58.9528 21.0796C58.9836 21.1807 58.9528 21.3831 58.9528 21.6192C58.9528 21.8553 58.9528 22.2937 58.9836 22.7996C59.0144 23.3055 59.0452 23.6765 59.0144 23.8789C58.9836 24.0812 59.0144 24.2161 59.0144 24.3511C59.0144 24.486 59.1376 24.5871 59.3532 24.6209L60 24.857L60.2156 25.093C60.4004 25.1605 60.5544 25.1605 60.6468 25.1605L61.3553 25.464L61.7865 25.5315C61.9405 25.7339 62.1253 25.9025 62.3409 26.0374C62.5565 26.1723 62.6489 26.2398 62.5873 26.2398L62.5257 26.3072L62.7413 26.5433V26.948C62.9261 27.0492 63.0493 27.1167 63.1109 27.1841L63.0493 27.8249L63.2033 28.061L63.1417 28.6006C63.1417 28.6006 62.9877 28.7693 62.9261 28.7693L62.0021 28.6006C61.7249 28.6681 61.5709 28.6681 61.5709 28.6006L61.3553 28.3645L60.77 28.1285L60.4928 27.8924L59.846 27.8249C59.7536 28.3983 59.692 28.8367 59.692 29.1065V29.4101C59.6304 29.8148 59.6304 30.0509 59.692 30.0509L59.7536 30.8266C59.7536 31.0964 59.7536 31.2651 59.692 31.3325L59.4764 31.7035C59.4764 31.7035 59.1684 32.378 58.8296 33.2549C58.4908 34.1318 57.536 35.3123 55.9343 36.7625L55.2259 37.1672C54.9487 37.0998 54.7331 37.0998 54.5791 37.1672L52.9158 37.943L52.6386 37.7743L51.7146 38.4151L51.0062 38.2465L50.7906 38.55C50.3594 38.1791 50.113 37.8418 50.0822 37.5382L49.9281 36.83L49.6509 36.3578C49.6509 36.3578 49.5277 36.1217 49.4353 35.8182C49.3429 35.5146 49.2813 35.2785 49.2505 35.1774C49.2197 35.0762 49.3121 34.975 49.4969 34.8738C49.8357 35.9868 50.2362 36.4927 50.729 36.3915C50.9138 36.3915 51.0986 36.3241 51.2218 36.2229L51.5914 35.8182C51.5914 35.8182 51.961 35.5484 52.5154 35.1436C53.0698 34.7389 53.6859 33.9632 54.2711 32.8165C54.8563 31.6698 55.1951 30.8603 55.1951 30.4219C55.1951 29.9834 55.2567 29.7136 55.3183 29.5787L55.5339 29.174V28.2971L55.5955 27.8249C55.5955 27.8249 55.4723 27.5214 55.3799 27.1841C55.0411 27.2516 54.6099 27.2516 54.0863 27.2178C53.5626 27.1841 53.1006 27.2178 52.7618 27.3865C52.423 27.5551 51.9302 27.5214 51.345 27.4202L51.1294 27.6563H50.5442C50.113 28.0273 49.0657 28.5332 47.4025 29.2077C45.7392 29.8823 44.7844 30.1858 44.538 30.1183C44.2916 30.0509 44.0144 29.8485 43.6756 29.4775C43.3368 29.1065 43.1828 28.803 43.1828 28.5332L42.9056 26.6445C42.9056 26.6445 43.0596 26.4421 43.1212 26.3409L43.2752 25.464L43.4908 24.9244L43.6448 24.2161L43.922 23.6765C44.1068 23.3055 44.1992 23.0357 44.1992 22.9008V22.6647C43.768 22.7322 43.3676 22.6647 42.9672 22.5298C42.5668 22.3949 42.1047 22.3612 41.5195 22.3949C41.2731 23.0357 41.1499 23.4742 41.1499 23.744V24.7558L40.9343 25.7001C41.1191 25.8688 41.2115 26.0711 41.2115 26.3409L40.8419 27.6226C40.8419 27.6226 40.7187 28.1622 40.6263 28.9379C40.5339 29.7136 40.0103 30.8941 39.0863 32.4792C38.1622 34.0644 36.807 33.862 35.0822 31.8047L35.0206 31.8721ZM46.2013 25.7001L46.6941 25.6327L46.9097 25.3966H47.3409L47.5565 25.1605H47.9877L48.2033 24.857H48.8501L49.1273 24.6209C49.7433 24.7895 50.267 24.6883 50.6366 24.3848C50.4518 23.9801 50.3286 23.5753 50.2978 23.2381C50.267 22.9008 50.2362 22.6647 50.1438 22.5635C50.0514 22.4624 50.0206 22.3949 50.0206 22.3274V21.6866C50.0206 21.6866 49.7741 21.7541 49.7433 21.9227C49.3121 22.1925 48.8809 22.3612 48.4805 22.4624C48.0801 22.5635 47.7721 22.6984 47.5873 22.8671C47.4025 23.0357 47.1869 23.3393 46.9713 23.8452C46.7557 24.3511 46.5709 24.7558 46.3861 25.0593C46.2013 25.3629 46.1396 25.5989 46.1396 25.7001H46.2013ZM50.883 16.7625L51.961 16.83C51.961 16.83 52.115 16.6613 52.115 16.5939L51.8994 16.2903L51.6222 14.7052L50.6982 14.1656C50.4518 14.9413 50.2362 15.5484 50.0514 15.9194C49.8666 16.2903 49.7741 16.4927 49.8358 16.5602V16.8637C50.421 16.7963 50.7598 16.7963 50.9138 16.7963L50.883 16.7625ZM52.2074 21.1807L52.4846 21.4168H52.7618V21.889L53.4086 22.5973L53.9015 23.7102L54.1171 24.1824L55.2875 24.115C55.4415 23.2043 55.5031 22.5973 55.4723 22.2263C55.4415 21.8553 55.3491 21.3156 55.2259 20.5737C54.3019 20.776 53.4702 20.8435 52.7002 20.7423L52.423 20.9784L52.2074 21.2145V21.1807ZM55.3799 16.2903C55.5339 16.0205 55.6263 15.5821 55.7187 14.975C55.8111 14.3679 55.8727 14.0307 55.9651 13.9969C56.0575 13.9632 56.1191 13.862 56.1191 13.7608L55.9035 13.6934V13.2212C55.1951 13.5248 54.5175 13.9969 53.8707 14.6377C53.8707 14.8064 53.9323 14.975 54.0555 15.1436C54.1787 15.3123 54.2711 15.5146 54.3019 15.6495L54.4559 16.3578L55.3799 16.2903Z" fill="white"/>
<path d="M70.9651 22.935L71.9815 22.6314L72.0431 22.3279H72.4743L72.8439 21.9232V21.6196L73.3367 21.451V21.1475C73.7063 20.9451 74.0452 20.7427 74.2608 20.5067L75.6468 19.1576C76.3244 18.618 76.7556 18.1795 76.9404 17.8085C77.1252 17.8085 77.2484 17.8085 77.31 17.7748C77.3716 17.7411 77.5872 17.5724 77.9569 17.2689L78.3265 16.9653L78.2649 16.7293C79.8973 15.5825 80.7905 14.908 80.9137 14.7056C81.0369 14.5033 81.2525 13.8287 81.5913 12.6146L82.5154 9.44426V9.20817C81.4065 9.7478 80.7289 10.1862 80.4517 10.591C80.1745 10.9957 79.8665 11.7377 79.5277 12.8844C79.1889 14.0311 78.8809 14.7394 78.6961 15.0429L77.6796 16.9316C77.6796 16.9316 77.464 16.8304 77.4332 16.7967C77.4024 16.763 77.4024 16.6618 77.4024 16.4257L76.3244 15.3127C75.9548 14.908 75.6776 13.9637 75.5236 12.5471C75.8008 12.3785 76.0164 12.2436 76.1704 12.0749L76.8172 11.0631L77.2484 10.8945C77.31 10.6922 77.3716 10.5235 77.464 10.4223L78.5421 8.90463L79.4045 7.4881L79.4661 7.42065C79.5277 8.43245 79.5893 9.03954 79.6817 9.2419L79.9589 10.1862C81.6837 9.17444 82.6386 8.60109 82.7618 8.43245C82.885 8.26382 83.1314 7.62301 83.4702 6.44257L84.117 4.45269L84.271 3.67697C83.1622 3.47461 82.0842 2.96871 81.0369 2.15927C81.2217 2.15927 81.3757 2.15927 81.4681 2.09181C81.5606 2.02436 81.8994 1.78827 82.4538 1.3161C83.0082 0.843921 83.6242 0.709014 84.271 0.911375C84.9178 1.11374 85.5031 1.55218 86.0267 2.19299L86.7351 3.30598L86.8891 3.60952L86.6735 4.01424L86.8891 4.25033L86.6735 4.48642C86.6735 5.22841 86.5503 5.86922 86.3347 6.4763C86.1191 7.08338 86.0267 7.38692 86.0883 7.42065C86.0883 7.58928 86.1499 7.72419 86.3039 7.82537L87.5359 8.29755C87.5359 8.29755 87.9671 8.70227 88.5523 9.2419C89.1376 9.78153 89.384 10.3886 89.3532 11.0631C89.2916 11.2655 89.1376 11.6702 88.8911 12.2773C88.6447 12.8844 88.2443 13.3566 87.7207 13.6938C87.1971 14.0311 86.9815 14.2672 87.0431 14.3684V14.537C87.0431 14.537 87.3203 14.8068 87.4743 14.8405L88.7063 15.6163L89.5072 16.7293C89.5072 16.7293 89.3224 16.9653 89.3532 16.9653L89.5688 17.3701C89.6612 17.6736 89.6612 17.8422 89.5688 17.876C89.4764 17.9097 89.3532 17.9771 89.1991 18.0783L87.5975 18.3144L87.1047 18.5505L86.2423 18.618C86.2423 18.618 86.1191 18.7191 86.0267 18.7866L84.7946 19.0901L82.6386 19.8658L82.3614 20.5067L81.7762 22.7326C81.6221 23.2048 81.5913 23.4746 81.6222 23.5083L81.7762 23.9805L83.0082 23.1036C82.731 22.8001 82.577 22.564 82.577 22.4628L82.423 21.822C82.9158 21.5185 83.2546 21.3498 83.4702 21.3836C83.6858 21.4173 84.3018 21.6196 85.3183 21.9906L86.9815 19.9333C86.9815 19.9333 86.9815 20.1694 87.0431 20.1694L86.5503 21.2824L86.0575 22.4628C86.7351 22.7326 87.2279 22.935 87.5051 23.1036C87.7823 23.2723 88.4907 23.7107 89.5996 24.4527L91.6324 25.9704L92.4948 26.4426C93.0185 25.4982 93.3573 24.8237 93.5113 24.419C93.6653 24.0142 93.7269 23.7107 93.7577 23.5083C93.7885 23.306 93.6345 22.9013 93.3573 22.2942C93.0801 21.6871 92.31 21.5859 91.1088 21.9232V22.2267C90.4928 21.7545 90.0616 21.3836 89.8768 21.08C89.692 20.7765 89.538 20.4729 89.4456 20.1694C89.3532 19.8658 89.3224 19.5623 89.3224 19.2588C89.3224 18.9552 89.4148 18.7191 89.5072 18.5168L89.8768 17.876L90.0924 17.2352L90.7392 16.0547L90.9548 15.65C91.232 15.0092 91.5708 14.4358 91.8788 13.8625C92.1868 13.2891 92.4332 12.9518 92.4948 12.7495C92.5564 12.5471 92.6796 12.2099 92.8336 11.6365C92.9877 11.0631 93.0493 10.6247 93.0185 10.2537C92.9877 9.88271 92.6796 9.47799 92.1252 9.03954C91.5708 8.60109 90.924 8.43245 90.2464 8.53363C90.2464 8.46618 90.2464 8.43245 90.2156 8.39873C90.1848 8.365 90.2156 8.33127 90.2464 8.26382L90.5236 8.09519L91.1088 7.62301C91.1088 7.62301 91.4784 7.45438 91.7556 7.45438C92.002 7.52183 92.1868 7.55556 92.3716 7.62301C92.5564 7.69046 93.0493 8.06146 93.9117 8.76972C94.7741 9.47799 95.3285 10.0851 95.5749 10.591C95.8213 11.0969 95.9445 11.6028 95.9753 12.1424C96.0061 12.682 95.9753 13.053 95.9445 13.2554C95.8829 13.3566 95.7905 13.6938 95.6057 14.2335C95.4209 14.7731 95.2977 15.1441 95.1745 15.3465C95.0513 15.5488 95.0205 15.6163 95.0513 15.6163L95.1129 15.8524L94.6817 16.6281L94.4045 16.6955C93.7885 18.1795 93.4497 18.9215 93.3881 18.9889L92.9569 19.4611C93.1109 19.7309 93.2341 19.8658 93.3265 19.9333L94.4969 20.8776C94.4969 20.8776 94.8665 21.4173 95.3285 22.0244C95.7905 22.6314 96.0985 23.1373 96.2217 23.5421C96.3449 23.9468 96.4373 24.6213 96.4065 25.5994C96.3757 26.5775 96.3449 27.1171 96.2833 27.2183L95.6365 28.8034C98.7166 31.333 100.411 33.053 100.688 33.9299L100.842 34.4696L100.996 34.7731C100.996 34.7731 100.934 35.3127 100.842 36.2908L100.78 38.1121C100.626 38.5168 100.318 38.8203 99.8562 38.9889C100.195 38.3481 100.349 37.7748 100.287 37.2014C100.226 36.6281 99.6406 35.9535 98.4702 35.1104L95.2361 32.8844C94.2197 32.1087 93.4805 31.6028 92.9877 31.3667C92.8337 31.5353 92.7104 31.6365 92.5564 31.7377C92.4024 31.8389 91.694 32.0075 90.4312 32.2773C89.1684 32.5471 88.4599 32.7495 88.3059 32.8844L88.0903 32.5809H87.5975L87.4435 32.8844H87.0123C87.0123 32.8844 86.9199 33.2217 86.8891 33.424C86.8583 33.6264 87.0739 33.7276 87.5051 33.6601C87.5051 34.1997 87.5051 34.6382 87.5359 35.0092C87.5667 35.3802 87.5359 35.5825 87.5051 35.65L87.2895 36.0547C85.6571 36.2571 83.9938 35.8186 82.2998 34.7056C82.1458 35.0092 81.9302 35.2453 81.653 35.4139L80.8521 36.1222C80.6057 36.3245 80.1437 36.6281 79.4661 36.9991C79.2197 37.0665 79.0657 37.0665 78.9733 37.0665L78.1725 37.5387C77.9877 37.6399 77.5564 37.7073 76.9404 37.7748L76.078 37.6061L75.4928 37.6736C74.9692 37.6736 74.5072 37.3701 74.1684 36.7967C73.8295 36.2233 73.6139 35.5825 73.5831 34.9417C73.5523 34.3009 73.6447 33.6938 73.8295 33.1542C74.1992 31.7714 75 30.5235 76.2012 29.3768L79.0041 26.5438C79.0041 25.4308 79.0041 24.7225 79.0349 24.3852C79.0657 24.048 79.0349 23.7782 79.0349 23.6432C79.0349 23.5083 79.0349 23.3397 79.0349 23.2048C79.0349 23.0699 79.0965 22.9013 79.1581 22.6989C79.2197 22.4965 79.2197 22.3616 79.2197 22.2942L79.0657 21.8895L77.8337 22.7664C75.5852 24.3515 74.2608 25.2284 73.9219 25.4308C73.5831 25.6331 73.3059 25.8018 73.0595 25.9704C72.8131 26.139 72.5667 26.2402 72.2587 26.2402C72.0123 26.0379 71.7967 25.8692 71.5811 25.768C71.3655 25.6669 71.2423 25.5994 71.2423 25.5319L70.8727 24.5201L70.5031 23.5758L70.8727 22.8001L70.9651 22.935ZM76.232 35.2453C76.4168 35.3127 76.9096 35.0429 77.6796 34.4696L79.3429 33.4578L80.3593 32.3448C79.9281 31.5016 79.7125 30.962 79.7125 30.7596L79.2813 29.107C78.4497 29.8827 77.8029 30.4898 77.3408 30.8608V31.0294C76.7248 31.6702 76.2628 32.3448 75.9548 33.0868C75.6468 33.8287 75.5544 34.2672 75.5852 34.4358L75.6468 34.9755C75.8316 35.1441 76.0164 35.2453 76.232 35.279V35.2453ZM82.577 30.4223L82.8542 30.1188L82.6386 29.6466C82.7926 29.9164 83.0082 29.8153 83.2854 29.3431C83.2854 29.0733 83.2854 28.8709 83.347 28.7023L83.9938 26.4088L83.8398 25.8692C83.3162 26.3414 82.8234 26.7124 82.3922 26.9822C81.961 27.252 81.6529 27.4881 81.4989 27.6905C81.3449 27.8928 81.2833 28.1964 81.3141 28.5674C81.3757 29.2419 81.7762 29.8827 82.5462 30.4561L82.577 30.4223ZM83.5318 22.935V23.0024H83.5934L83.655 22.935L83.7166 22.8675V22.6989L83.7782 22.6314V22.564L83.5626 22.3279H83.4086V22.8675L83.4702 22.935H83.5318ZM84.0246 33.5252L84.887 33.2891L84.0246 33.053V33.5252ZM84.8254 11.5353C84.8254 11.5353 84.9178 11.6028 84.9794 11.5353C85.041 11.5353 85.0718 11.4679 85.1334 11.333C85.195 11.1981 85.4415 10.9282 85.9343 10.4898L86.4271 9.84898L87.3511 8.83718C86.9199 8.56736 86.4887 8.43245 86.0575 8.365C85.2258 9.7478 84.8254 10.7259 84.8254 11.3667V11.5353ZM85.9035 30.3549L86.3347 30.8271C87.6283 30.1863 88.9527 29.3768 90.308 28.365C88.4907 26.4763 87.5359 25.5319 87.4435 25.5319C87.3511 25.5319 87.2279 26.0379 87.0123 27.0834C86.7967 28.1289 86.5503 28.8709 86.3039 29.3431C86.0575 29.8153 85.9035 30.1525 85.9035 30.3549Z" fill="white"/>
<path d="M109.343 27.8587C109.497 27.7912 109.774 27.4877 110.175 26.9481L111.838 24.8907C112.115 24.486 112.546 23.6766 113.101 22.5636C113.655 21.4506 113.963 20.6412 114.025 20.2364C114.086 19.8317 114.209 19.5282 114.394 19.3258C114.579 19.1235 114.641 19.0223 114.641 18.9548L114.425 18.7862C114.148 18.9885 113.809 19.1909 113.439 19.3258C113.07 19.4607 112.854 19.6631 112.762 19.8654C112.269 20.0341 111.93 20.3376 111.745 20.8098C111.253 20.6074 110.914 20.3376 110.729 19.9666C110.544 19.5956 110.359 19.1235 110.236 18.5164C110.575 18.5838 110.637 18.5164 110.452 18.3477L110.39 18.2803L110.175 18.2128L110.113 17.201L110.821 16.7963L115.811 11.6698L116.674 10.7929L116.889 9.27523L117.105 8.97169C116.828 8.90423 116.581 8.97169 116.396 9.03914L114.795 10.4557L113.871 10.9953L112.793 11.9396H112.3C112.146 11.6361 112.084 11.4337 112.084 11.4L111.376 10.8604V9.03914C111.715 8.83678 111.93 8.66814 112.023 8.60069C112.115 8.53324 112.7 7.89243 113.778 6.71199C114.856 5.53155 115.657 4.82329 116.119 4.62093V3.98012L116.612 3.57539C115.78 2.93459 115.133 2.46241 114.579 2.15887V1.99023C114.949 1.99023 115.38 1.99023 115.842 2.05769C116.304 2.12514 117.382 2.6985 119.138 3.81148C119.138 3.91266 119.199 4.11502 119.353 4.35111C119.507 4.5872 119.63 4.75583 119.784 4.82329L120.708 4.65465C120.708 4.65465 121.232 5.05937 122.125 5.66646C123.018 6.27354 123.511 6.74572 123.604 7.01553L123.665 7.42025L123.881 7.89243L123.819 8.06106C123.634 8.12852 123.48 8.16224 123.419 8.19597C123.357 8.2297 123.203 8.43206 123.018 8.80305H122.741C122.156 9.20777 121.571 9.47759 121.016 9.57877L121.602 10.287H121.971V10.5231C121.971 10.5231 122.248 10.5906 122.526 10.5568C122.803 10.5231 123.049 10.7592 123.326 11.2314C123.604 11.7036 123.788 11.9059 123.943 11.771C123.881 11.5012 123.85 11.1977 123.819 10.8267C123.788 10.4557 123.758 10.1859 123.696 9.98349C123.634 9.78113 123.48 9.67995 123.203 9.61249L122.988 9.84858L123.142 10.3208L122.433 9.78113C122.772 9.20777 123.018 8.93796 123.142 8.93796C123.265 8.93796 123.511 9.07287 123.788 9.2415C124.066 9.41013 124.405 9.57877 124.713 9.67995L124.651 7.69007V8.09479C124.651 8.09479 124.651 8.16224 124.682 8.12852C124.713 8.09479 124.836 8.12852 125.082 8.19597C125.329 8.26342 125.298 8.43206 125.021 8.63442L125.082 8.56696L125.236 8.87051L125.883 9.41013C127.854 8.63442 129.487 8.12851 130.78 7.99361L132.166 8.29715C132.505 8.3646 132.721 8.39833 132.813 8.46578L133.029 8.70187H133.614L133.83 8.93796C133.83 8.93796 134.415 9.47759 135.308 10.2196C136.201 10.9616 136.694 11.5686 136.786 12.0408V13.1538C136.263 13.3224 135.77 13.6934 135.339 14.2668C135.062 14.368 134.723 14.6041 134.415 14.9751H133.984L133.398 15.4472L132.598 15.852L133.183 16.7289C133.029 16.9987 132.936 17.1336 132.844 17.201C132.752 17.2685 132.628 17.3022 132.444 17.3359C132.259 17.3697 131.735 17.572 130.842 17.943C129.949 18.314 129.333 18.685 128.932 19.0897C128.532 19.4944 128.162 19.6968 127.823 19.7643L127.454 19.3595V20.0004L127.669 20.169V20.5737L127.454 20.8098L127.515 21.0459C127.762 21.1471 127.977 21.2482 128.162 21.3494C128.439 21.4506 128.84 21.8216 129.363 22.4961C129.887 23.1707 130.133 23.6766 130.195 24.0476L130.257 30.7592C130.257 30.7592 130.257 31.029 130.287 31.1302C130.318 31.2314 130.287 31.3663 130.257 31.6361L130.195 32.5805C130.133 32.7828 130.01 33.2887 129.795 34.0982C129.579 34.9076 129.333 35.5147 129.086 35.9869C128.84 36.459 128.532 36.83 128.193 37.0998C127.854 37.3697 127.608 37.5046 127.485 37.5046H126.899L126.099 37.8081L125.821 37.572C125.575 37.6395 125.39 37.7069 125.236 37.8081L124.528 37.6395L124.466 37.4034C123.419 37.3022 122.71 37.1336 122.372 36.8975C122.033 36.6614 121.786 36.3916 121.663 36.0543L121.078 35.0425L120.431 34.0982L120.277 33.0864C120.031 32.9852 119.908 32.884 119.877 32.7828C119.846 32.6816 119.815 32.5467 119.815 32.3444C119.815 32.142 119.723 31.8047 119.6 31.2314C119.476 30.658 119.384 30.1184 119.353 29.5788C119.322 29.0391 119.292 28.2634 119.353 27.3191L119.415 24.857L119.199 24.7896V24.2499C119.199 24.2499 119.384 24.115 119.446 23.9801C119.507 23.8452 119.569 23.6091 119.569 23.2381L119.507 22.2938L120.092 22.2263V21.6867C120.092 21.6867 120.185 21.8553 120.216 21.7541C120.246 21.653 120.246 21.5855 120.246 21.5181C120.185 21.1133 119.969 20.54 119.569 19.8992C119.168 19.2584 118.86 18.7187 118.676 18.3477C118.491 17.9767 118.368 17.8081 118.306 17.8756C118.214 18.0442 118.183 18.1791 118.244 18.2803L118.306 18.9211C118.306 18.9211 118.152 19.1909 118.152 19.2246L117.228 21.8216L117.012 22.2938L116.52 23.6428L115.595 25.0594C114.641 26.6445 113.901 27.4877 113.439 27.5889C112.977 27.6901 112.361 28.0273 111.684 28.567C111.006 29.1066 110.267 29.3764 109.559 29.309C108.973 29.309 108.573 29.0729 108.296 28.6007C108.018 28.1285 107.895 27.7912 107.895 27.6226V27.3191C107.895 27.3191 107.895 27.2853 107.957 27.2853L108.665 28.0611C109.035 27.9936 109.312 27.9262 109.497 27.8587H109.343ZM118.306 8.2297C118.552 8.49951 118.706 8.60069 118.799 8.53324C118.86 8.26342 119.076 7.95988 119.446 7.58889L118.429 7.65634L118.275 8.19597L118.306 8.2297ZM124.497 20.7761C124.805 20.5737 125.021 20.4388 125.113 20.3713L126.407 20.6749H126.838V20.5063C126.129 20.3039 125.606 20.0678 125.298 19.798C124.99 19.5282 124.682 19.1235 124.405 18.5164C124.127 17.9093 124.035 17.4708 124.127 17.0998L124.189 16.5602C124.189 16.5602 123.942 16.3579 123.912 16.2567L123.85 14.1319L123.573 12.9514C123.142 13.2213 122.526 13.5585 121.756 13.9633C120.986 14.368 120.585 14.6378 120.524 14.6715L119.507 15.3798L119.23 15.5484L118.953 15.717C118.953 15.717 118.83 15.8182 118.83 15.8857C118.83 15.9531 118.891 16.0206 118.953 16.088C119.014 16.1555 119.23 16.3241 119.661 16.5602C120.092 16.7963 120.616 17.2685 121.263 18.0105C121.91 18.7525 122.218 19.4607 122.248 20.1015C122.279 20.7423 122.31 21.0796 122.372 21.0796L122.864 21.4843C123.696 21.2145 124.251 20.9784 124.559 20.7761H124.497ZM122.587 30.658L123.234 30.2533L123.819 29.8486V29.309C123.326 29.1066 122.957 28.7693 122.649 28.2971H122.372C122.433 28.567 122.433 28.7356 122.402 28.8031C122.372 28.8705 122.341 29.0054 122.248 29.2078C122.156 29.4101 122.156 29.5113 122.187 29.5788C122.218 29.6462 122.248 29.7137 122.31 29.8486C122.372 29.9835 122.372 30.0847 122.372 30.1184V30.5906C122.372 30.5906 122.526 30.658 122.587 30.658ZM122.864 32.6479L122.926 33.9295L124.435 34.6378C125.144 34.0644 125.667 33.5585 125.975 33.1201C126.283 32.6816 126.499 32.2432 126.622 31.771C126.745 31.2988 126.838 30.9616 126.899 30.7929C126.961 30.6243 127.023 30.4894 127.084 30.4219C127.023 30.2533 127.023 30.0847 127.053 29.8823C127.084 29.6799 127.053 29.1403 126.992 28.2634C126.93 27.3865 126.93 26.7457 126.992 26.341C127.053 25.9363 127.115 25.6665 127.115 25.6327C127.053 25.5653 126.992 25.5653 126.899 25.5653C126.838 25.1943 126.807 24.8907 126.776 24.6547C126.745 24.4186 126.776 24.2162 126.776 24.0138C126.776 23.8115 126.776 23.6766 126.776 23.5417C126.776 23.4068 126.715 23.3056 126.622 23.1707C126.53 23.0358 126.53 23.002 126.591 22.9346V22.631L126.314 22.4624L125.021 23.4742V23.7778C125.021 23.7778 124.774 23.9464 124.743 23.9464L123.665 24.7221L122.649 25.4304V26.2061C124.528 26.8469 125.606 27.3528 125.945 27.7912C126.283 28.2297 126.437 28.4995 126.437 28.6681C126.437 28.8368 126.468 28.938 126.468 28.9717L126.407 29.5113V29.9835L126.622 30.2196V30.7592C126.622 30.7592 126.468 30.9278 126.407 30.9278L125.544 30.4557L125.175 30.3882C124.897 30.1859 124.62 30.0847 124.374 30.0847C124.035 30.1521 123.788 30.2196 123.604 30.3208C123.419 30.4219 123.203 30.6243 122.926 30.9616C122.649 31.2988 122.495 31.4675 122.495 31.5012L122.649 31.9734L122.71 32.4455L122.864 32.6142V32.6479ZM126.684 15.8182C126.684 15.8182 126.776 15.8182 126.807 15.852C126.838 15.8857 126.869 15.852 126.93 15.8182L127.577 15.4135L128.285 14.9413V14.7727C128.655 14.6041 129.086 14.2668 129.517 13.7609V13.5248C130.534 12.8503 131.242 12.3106 131.674 11.9059C132.105 11.5012 132.382 11.2651 132.536 11.1639C132.69 11.0627 132.752 10.9953 132.752 10.9278L132.69 10.7592C132.32 10.9616 131.858 11.1639 131.304 11.2988L130.133 11.9396C129.425 12.2432 128.963 12.4455 128.84 12.5467C128.717 12.6479 128.316 12.6142 127.669 12.513C127.392 12.3444 127.023 12.2095 126.591 12.0408V12.5805L126.807 12.8165V13.5923L126.591 13.7609L126.653 15.8182H126.684Z" fill="white"/>
<path d="M146.766 11.7037L146.982 11.4676L146.92 10.8268C147.105 10.4558 147.228 10.0511 147.29 9.64639L147.505 9.4103L147.444 9.24167L147.875 8.36477H148.306V7.65651L149.168 7.82514L149.446 8.22987C149.261 8.49968 149.168 8.66831 149.199 8.76949C149.23 8.87068 149.322 9.07304 149.476 9.37658C149.63 9.68012 149.969 9.81503 150.462 9.81503L152.495 9.34285C152.988 9.24167 153.635 9.00558 154.435 8.63459C155.236 8.26359 156.745 7.85887 158.871 7.42042C160.996 6.98197 162.413 6.81334 163.06 6.98197C163.706 7.15061 164.107 7.15061 164.292 6.98197C164.476 6.81334 164.938 6.91452 165.708 7.21806C165.801 7.28552 166.54 7.58906 167.895 8.16241C169.251 8.73577 170.205 9.20794 170.698 9.57894C171.191 9.94993 171.591 10.4558 171.899 11.0966C172.207 11.7375 172.331 12.2434 172.331 12.6818C172.269 13.0528 172.207 13.2552 172.115 13.3226H171.684C171.684 13.3226 171.437 13.4575 171.222 13.525C171.006 13.5924 170.791 13.6599 170.606 13.6599C170.236 13.7273 169.805 13.6599 169.374 13.4575C168.943 13.2552 168.696 13.154 168.665 13.0865C168.573 13.0865 168.296 13.0865 167.864 13.154L164.63 12.6144C164.014 12.5469 162.967 12.5469 161.52 12.6144C161.366 12.9179 161.304 13.2889 161.335 13.6262C161.366 13.9634 161.55 14.1658 161.889 14.0983C162.505 13.8285 163.953 14.267 166.232 15.38C167.618 16.1557 168.357 16.6953 168.388 16.9651L168.45 17.7408C168.111 18.1118 167.895 18.4154 167.834 18.6177C167.772 18.8201 167.71 19.1911 167.68 19.697C167.649 20.2029 167.618 20.6751 167.556 21.0798L167.279 22.7324C167.187 23.4069 167.064 24.014 166.94 24.4862C166.817 24.9584 166.17 26.0039 164.969 27.5553L165.123 27.9601L164.908 28.1961C164.076 28.2636 163.398 28.331 162.844 28.4322C162.29 28.5334 161.828 28.4997 161.427 28.3648C161.242 29.4103 161.119 31.0292 161.058 33.1877L160.842 34.1995L160.688 35.4811L160.534 35.9533C160.441 36.1557 160.411 36.2906 160.472 36.358L160.534 36.9988L160.257 37.1675L160.318 37.8757L159.887 38.3479C159.949 38.7189 159.949 39.0224 159.918 39.2585C159.887 39.4946 159.764 39.7644 159.517 40.1017H159.24L159.179 40.0343C159.179 40.0343 159.333 39.9668 159.394 39.8656V39.697C159.394 39.697 159.209 39.4272 159.24 39.3934L159.302 39.2248H159.025C159.025 38.584 159.025 38.0781 158.963 37.7071L158.747 36.9314V35.5149L158.532 35.3462C158.47 34.4019 158.409 33.6599 158.285 33.0865C158.162 32.5132 158.131 32.2096 158.162 32.1085L158.224 31.7037L157.947 31.4002C157.885 31.0966 157.885 30.7931 157.916 30.5233C157.947 30.2535 157.947 30.1186 157.947 30.0511L157.793 29.1068C157.515 29.2079 157.238 29.3091 156.992 29.3766C156.745 29.444 156.499 29.5115 156.283 29.5115C156.129 29.444 156.037 29.4103 156.006 29.3429L155.205 29.0393C153.943 28.4997 153.018 27.4204 152.402 25.8015C151.786 24.1827 151.478 23.1371 151.478 22.7324L151.417 21.7206L151.263 21.4845L151.201 20.7088C150.431 20.7088 149.938 20.6413 149.754 20.5064C149.569 20.3715 149.199 20.0005 148.645 19.3597C148.09 18.7189 147.721 18.213 147.536 17.842C147.351 17.471 147.197 17.1337 147.105 16.7628C147.012 16.3918 146.951 15.8184 146.889 14.9752C146.828 14.1321 146.828 13.6262 146.828 13.4575V11.8049L146.766 11.7037ZM151.14 17.5047C151.14 16.8977 151.17 16.4255 151.324 16.1219L151.478 15.7172C151.478 15.7172 151.54 15.3462 151.54 15.0764V14.0646C152.064 14.3344 152.464 14.5368 152.71 14.7054L153.727 15.7172L154.374 16.2568L154.589 16.0208H155.021C155.791 15.6498 156.838 15.2113 158.193 14.6717V13.0865L158.409 12.8504V11.67C157.977 11.5014 157.577 11.3327 157.177 11.1641C156.776 10.9955 156.53 10.8943 156.376 10.8943C156.314 10.9617 156.037 11.0629 155.513 11.1978C154.99 11.3327 154.497 11.4339 154.066 11.4339C152.895 11.5014 152.002 11.299 151.355 10.8943C150.708 10.4896 150.277 10.2535 150.092 10.2535L150.37 10.557C150.431 10.7594 150.431 10.928 150.4 10.9955C150.37 11.0629 150.339 11.1978 150.246 11.3665L150 11.9061C149.908 12.1084 149.846 12.2434 149.846 12.3108L149.63 14.4356L149.476 14.8403C149.384 15.0427 149.353 15.245 149.415 15.38L149.476 16.3243V16.7965L149.199 17.5722C149.199 17.5722 149.261 17.9769 149.476 18.2805C149.815 18.9213 150.031 19.2585 150.154 19.3597C150.277 19.4609 150.37 19.4946 150.4 19.4946L150.77 19.5621L150.986 19.7982L151.14 19.6295C151.14 18.7864 151.14 18.0781 151.109 17.471L151.14 17.5047ZM153.481 0.000523688L153.696 0.236611V0.540153C154.405 1.38332 155.175 1.82177 156.006 1.82177L156.283 2.05786C157.238 2.12531 158.039 2.12531 158.655 2.09159C159.271 2.05786 159.733 2.22649 160.041 2.53003C160.657 2.69867 161.088 2.83358 161.273 2.93476L161.92 3.64302L162.136 3.87911H162.351C162.29 4.08147 162.29 4.2501 162.32 4.31756C162.351 4.38501 162.382 4.45246 162.444 4.51992L162.659 4.756C162.659 4.756 162.721 4.95837 162.69 5.05955C162.659 5.16073 162.536 5.22818 162.29 5.29563L161.92 5.53172C161.735 5.6329 161.489 5.6329 161.212 5.53172L160.996 5.76781C160.749 5.76781 160.626 5.76781 160.565 5.70036L159.856 5.46427L158.778 5.76781L158.409 5.83526L157.977 5.43054C157.454 5.49799 157.084 5.56545 156.869 5.6329C156.653 5.70036 155.575 6.0039 153.665 6.47607V6.30744C154.682 5.76781 155.76 5.16073 156.899 4.48619C156.314 4.18265 155.76 3.81165 155.205 3.37321C154.651 2.93476 154.097 1.99041 153.573 0.540153C153.573 0.438972 153.481 0.304065 153.296 0.135431L153.511 -0.0332031L153.481 0.000523688ZM156.222 20.2703C157.146 19.9331 157.639 19.7307 157.731 19.6633V18.0106C156.899 18.3142 156.468 18.4154 156.345 18.3142L154.62 17.7746L154.743 18.0106C154.743 18.0106 154.743 18.213 154.589 18.4828L154.374 18.955C154.374 18.955 154.374 19.1236 154.497 19.3597V20.6413C154.743 20.7425 155.329 20.6413 156.222 20.2703ZM154.713 22.9348L154.99 23.1708C154.928 23.643 154.99 23.9466 155.051 24.1152L155.421 24.9921L155.791 25.9364C156.899 25.1607 157.485 24.6548 157.515 24.4862C157.546 24.3176 157.608 23.9803 157.639 23.5081C157.669 23.0359 157.608 22.6987 157.454 22.4963C156.591 22.7999 155.76 22.8673 154.99 22.6649L154.713 22.9685V22.9348ZM158.747 10.1186C160.041 10.8606 160.842 11.5014 161.119 12.1084C162.136 11.5351 163.306 11.0292 164.661 10.6582C166.016 10.2872 166.91 9.88248 167.402 9.51148V9.34285C165.493 8.7695 164.138 8.53341 163.368 8.63459L162.351 9.03931L161.55 9.20794L160.164 9.74757L158.717 10.1523L158.747 10.1186ZM160.996 24.6548L161.058 25.1945L161.335 25.0258L161.92 24.7223L161.982 25.1945C162.351 25.0933 162.598 24.8235 162.69 24.4187L163.121 22.8336C162.259 23.3732 161.52 23.9803 160.965 24.6548H160.996ZM161.55 18.955L161.335 19.1911V19.7307C161.335 19.7307 161.674 19.7307 161.951 19.7644C162.228 19.7982 162.382 19.7644 162.413 19.7307L162.628 19.326L163.552 19.4946C163.491 19.0224 163.491 18.7526 163.552 18.7189L163.768 15.9533L163.614 15.7847H162.536C162.536 15.7847 162.197 16.0208 161.951 16.0208L161.458 16.9651V17.2687L161.304 17.9769H161.674C161.396 18.1456 161.273 18.213 161.304 18.213L161.242 18.7526L161.52 18.9213L161.55 18.955Z" fill="white"/>
<path d="M184.682 15.4812C185.329 14.9416 185.76 14.6718 185.945 14.6043C186.006 14.6043 186.715 14.7393 188.101 15.0091L188.316 15.2452H188.747C189.764 15.886 190.287 16.1895 190.349 16.1895L191.15 17.3699L192.228 15.3126L192.012 14.9079C192.259 14.8067 192.444 14.7055 192.567 14.6381C192.69 14.5706 192.844 14.2671 193.029 13.7274C193.214 13.1878 193.398 13.0192 193.614 13.1878L193.46 13.4239L193.183 13.66C193.244 14.1322 193.244 14.5032 193.214 14.7393C193.183 14.9753 193.06 15.4475 192.844 16.1558C192.628 16.864 192.536 17.235 192.598 17.235L192.813 17.8758C193.491 17.1339 193.891 16.7966 194.045 16.864L194.415 17.0327L194.846 16.5605C195.031 16.5605 195.893 16.257 197.372 15.6162L197.803 15.7848C197.803 15.7848 198.08 15.515 198.234 15.4812L199.158 15.2452L200.236 14.7055C200.144 14.5032 200.113 14.3008 200.113 14.0984C200.113 13.8961 200.267 13.6263 200.513 13.2553C200.421 12.5133 200.39 11.9737 200.39 11.6364C200.39 11.2991 200.452 11.0293 200.513 10.8944L200.667 10.4897V9.1406L200.945 7.6229L201.006 6.27382C201.099 5.90283 201.16 5.70047 201.16 5.63301C201.099 5.32947 200.883 4.92475 200.513 4.45258C200.144 3.9804 199.897 3.74431 199.867 3.71059C199.836 3.67686 199.589 3.57568 199.158 3.40704C198.727 3.23841 198.326 2.69878 197.988 1.78816L199.374 1.7207C200.39 2.26033 201.037 2.66505 201.314 2.93487C201.591 3.20468 202.3 4.01413 203.378 5.32947C204.456 6.64482 205.041 7.42053 205.072 7.69035C205.103 7.96016 205.133 8.16252 205.103 8.33116C205.072 8.49979 205.01 8.87079 204.918 9.47787C204.825 10.085 204.733 10.5571 204.641 10.8944C204.548 11.2317 204.517 11.4678 204.579 11.5689L204.641 12.2772L204.579 13.5588L204.641 13.7274C205.01 13.9298 205.349 14.031 205.565 13.9635C205.749 13.9635 206.057 13.8961 206.427 13.7274C206.797 13.5588 207.074 13.4914 207.228 13.4914C207.382 13.5588 207.598 13.66 207.875 13.8961C208.152 14.1322 208.614 14.3683 209.199 14.7393C209.784 15.1102 210.185 15.3463 210.4 15.5824L211.109 16.5942C211.294 16.864 211.386 17.0664 211.386 17.235V17.4711L211.109 17.7747C210.862 17.7747 210.678 17.7747 210.524 17.7409C210.37 17.7072 210.062 17.7747 209.538 17.9433C209.014 18.1119 208.429 18.2131 207.69 18.2468C206.951 18.2806 206.304 18.3818 205.749 18.4829C205.195 18.5841 204.764 18.6178 204.517 18.5504C204.24 19.1912 204.117 19.6634 204.148 19.9669L204.209 21.1473L203.994 21.5521C203.932 22.3952 203.932 23.1035 203.963 23.7106C203.994 24.3177 203.994 24.7224 203.994 24.9248C203.932 25.3969 203.901 25.9366 203.84 26.5099L203.409 29.7477C203.316 30.5909 203.255 31.3328 203.255 31.9737C203.193 32.0411 203.193 32.176 203.255 32.4458C203.193 32.6482 203.193 32.7831 203.193 32.8506L202.977 33.1541C202.977 33.1541 202.823 33.5251 202.823 33.7949C202.762 33.9973 202.762 34.3683 202.793 34.9079C202.823 35.4475 202.793 35.8185 202.762 36.0209L202.608 36.5605L202.454 38.1457L202.177 39.1575L202.238 39.5622C202.238 39.5622 202.053 39.5622 201.992 39.5959C201.93 39.6296 201.869 39.5959 201.869 39.5622C201.684 39.5622 201.561 39.3598 201.53 38.9214C201.499 38.4829 201.499 38.1794 201.499 37.977L201.129 36.5605L200.975 35.4475L200.821 34.9753V34.0984C200.821 34.0984 200.667 33.8624 200.544 33.3902L200.267 30.5571L200.113 30.1524C200.113 30.1524 200.051 29.6465 200.051 28.8033L199.897 27.1507V26.8472C199.836 26.3075 199.836 26.004 199.897 25.9028L199.959 25.6667C199.959 25.6667 199.959 25.262 199.897 24.7224L199.836 22.4964L199.62 21.0799C199.805 20.7764 199.897 20.5403 199.897 20.4391L199.743 19.9669C199.374 20.1693 198.912 20.3042 198.45 20.3716C197.988 20.4391 196.294 20.1693 193.398 19.5959L192.967 19.832L192.813 20.0006L192.875 20.8775C192.875 20.8775 192.813 21.0462 192.813 21.2823L192.752 21.7544L192.69 21.9905L192.844 22.7662C192.844 22.7662 192.752 22.9011 192.721 23.036C192.69 23.171 192.628 23.4408 192.505 23.9129C192.382 24.3851 192.136 25.3632 191.704 26.8809C191.273 28.3986 191.027 29.8489 190.873 31.1642C190.503 31.3328 190.072 31.2317 189.61 30.9281C189.148 30.6246 188.84 30.2873 188.624 29.9838L187.762 28.1625L186.684 26.9821C186.961 26.1389 187.207 25.4644 187.392 24.9922L188.624 22.5301C189.055 21.5183 189.271 20.7764 189.302 20.2367C189.333 19.6971 189.333 19.4273 189.333 19.3598L189.179 18.0782C188.501 18.348 187.762 18.7527 186.899 19.2924C186.037 19.832 184.99 20.2705 183.696 20.6077L183.48 20.3716C182.464 20.1693 181.848 19.8657 181.632 19.461C181.417 19.0563 181.294 18.7527 181.294 18.5504L181.14 17.6735L180.862 16.7291V16.3244C180.862 16.3244 181.016 15.9197 181.324 15.4475C181.632 14.9753 181.879 14.773 182.002 14.9079L181.417 16.5605L181.848 16.9652C182.957 16.5605 183.819 16.0546 184.497 15.5487L184.682 15.4812ZM186.899 4.28394V4.58748C187.515 5.32947 188.039 5.73419 188.409 5.76792H190.719C190.719 5.76792 191.335 6.17264 192.166 6.54364C192.998 6.91463 193.737 7.6229 194.415 8.66843H194.784L194.846 9.61278L193.984 9.37669C193.799 9.37669 193.429 9.44414 192.875 9.61278C192.32 9.78141 191.889 9.81514 191.55 9.78141C191.273 9.78141 190.873 9.68023 190.38 9.47787C190.318 9.47787 190.041 9.54532 189.487 9.71396C188.932 9.88259 188.624 9.98377 188.593 10.0175C188.501 10.085 188.47 9.95005 188.532 9.71396L189.548 9.17433C189.548 9.17433 189.394 9.0057 189.363 8.93824C189.333 8.87079 189.148 8.76961 188.778 8.56725C188.409 8.36489 188.008 7.89271 187.515 7.11699C187.023 6.34128 186.807 5.76792 186.838 5.46438C186.869 5.16084 186.838 4.92475 186.684 4.78984C186.53 4.65494 186.53 4.55376 186.561 4.52003L186.93 4.28394H186.899Z" fill="white"/>
<path d="M218.871 35.5821C219.055 35.4809 219.209 35.4135 219.271 35.3797C219.333 35.346 219.517 35.3797 219.826 35.4135C220.134 35.4472 220.719 35.4135 221.643 35.1774L223.522 34.8738L225.986 34.0981C226.478 34.0307 226.817 33.9295 227.064 33.6934C226.571 33.0188 226.17 32.378 225.862 31.8384C225.554 31.2988 225.37 30.7592 225.37 30.2532C225.37 29.7473 225.339 29.4438 225.339 29.3426L225.185 28.9379L225.123 27.1841L225.062 26.6445L225.123 25.3629V24.0812L225.277 23.6091C225.277 23.6091 225.216 23.373 225.246 23.1706C225.277 22.9683 225.493 22.7996 225.924 22.5635C225.246 22.0239 224.815 21.5855 224.6 21.2482C224.384 20.9109 223.953 20.0003 223.337 18.5163C223.676 18.2465 223.953 17.9767 224.138 17.6731C224.322 17.3696 224.446 16.6951 224.476 15.6158C224.507 14.5366 224.538 13.7946 224.6 13.4573C224.661 13.12 224.692 12.7828 224.723 12.5804C224.754 12.378 224.723 12.1757 224.6 11.9396C224.476 11.7035 224.261 11.4337 223.891 11.0627L222.29 9.64617L221.427 9.17399C221.674 9.00536 222.136 9.10654 222.813 9.41008L223.891 9.8148L226.201 11.3325C226.355 11.029 226.478 10.6242 226.632 10.1521L226.91 9.14026L227.187 7.5551H227.556C227.372 7.85864 227.279 8.06101 227.341 8.09473L227.556 8.63436C227.402 8.9379 227.372 9.20772 227.403 9.41008C227.403 9.57871 227.433 9.78107 227.526 10.0846C227.618 10.3882 227.618 10.658 227.587 10.9278C227.557 11.1976 227.587 11.3325 227.618 11.3325L227.895 11.636L227.741 12.749C227.741 12.749 227.741 13.0526 227.895 13.3898L227.957 15.2111V16.2229C227.957 16.2229 227.895 16.3915 227.895 16.459L227.741 16.8637C227.649 17.0661 227.587 17.6057 227.587 18.4489L227.372 20.5062C227.31 21.4168 227.249 21.9227 227.187 22.0914C227.125 22.26 226.971 22.5298 226.725 22.9345C226.478 23.3393 226.232 23.373 226.016 23.0694L225.647 23.373C225.647 23.373 225.647 23.4742 225.616 23.5079C225.585 23.5416 225.616 23.5416 225.647 23.5416L226.078 24.0138C226.078 24.0138 226.078 24.1487 226.047 24.2836C226.016 24.4185 226.17 24.7558 226.509 25.3629L226.786 26.7119L227.156 27.6563L227.372 29.7811C227.433 30.6242 227.803 31.5349 228.542 32.5467L228.696 31.771L228.85 31.7035C229.035 32.2769 229.251 32.749 229.497 33.12L230.883 32.8839C230.791 32.5804 230.729 32.3106 230.667 32.1082L230.39 31.636C230.39 31.636 230.205 31.1639 230.144 30.658C230.082 30.1521 230.021 29.7136 229.959 29.3426C229.897 28.9716 230.021 28.5669 230.236 28.061C228.943 27.2853 227.772 26.3409 226.786 25.2954V24.9919C227.279 25.1605 227.587 25.228 227.772 25.1942C227.957 25.1605 228.819 24.9581 230.421 24.5871C230.513 24.486 230.698 24.3848 231.006 24.2836C230.729 24.115 230.513 24.1487 230.359 24.3511L230.144 24.2161C230.144 24.2161 229.99 24.2161 229.867 24.3511C229.743 24.486 229.559 24.4522 229.374 24.3511C229.374 24.2836 229.374 24.2161 229.405 24.1487C229.435 24.0812 229.189 23.9463 228.635 23.7777C228.573 23.7777 228.573 23.7777 228.635 23.7102L229.559 23.6428L230.267 23.3393C230.205 23.0694 230.175 22.9008 230.144 22.8333C230.113 22.7659 229.959 22.4286 229.682 21.8553L229.62 21.6866L229.466 21.3831L229.682 21.147C229.497 20.1352 229.405 19.3932 229.405 18.8536V16.8637L229.189 15.4472C229.281 14.6715 229.343 13.9632 229.374 13.3898C229.405 12.8165 229.466 11.8384 229.559 10.4556L229.774 10.2195V9.27517L229.99 9.03908V8.49945C229.99 8.49945 230.082 8.36455 230.144 8.26337C230.205 8.16219 230.329 7.65628 230.544 6.71193C230.76 5.76758 230.852 5.02559 230.821 4.41851C230.791 3.81143 230.606 3.20434 230.205 2.59726C229.805 1.99018 229.281 1.95645 228.542 2.46235V2.05763C228.881 1.75409 229.22 1.58546 229.559 1.58546C230.821 1.68664 231.715 2.15881 232.238 2.96826C232.762 3.7777 233.101 4.41851 233.255 4.82323L233.686 6.64448C233.747 6.94802 233.778 7.15038 233.809 7.25156C233.84 7.35274 233.84 7.4202 233.84 7.52138C233.778 8.16219 233.686 8.80299 233.563 9.41008L233.347 10.287L232.977 11.9396C232.823 12.4118 232.793 12.6816 232.823 12.7153L233.039 13.2549C233.624 12.1419 234.394 10.7254 235.38 8.9379C236.366 7.15038 236.828 5.86876 236.766 5.02559C236.704 4.18242 236.643 3.71025 236.612 3.64279C236.581 3.57534 236.52 3.44043 236.427 3.2718L235.78 2.63099L235.133 1.75409L234.487 1.34937L234.702 1.11328H235.78L235.996 1.34937C236.489 1.45055 237.074 1.75409 237.752 2.22627C238.429 2.69844 238.922 3.23807 239.168 3.81143L239.322 4.75578L239.476 5.70013L239.261 6.47584L239.199 7.25156L238.922 8.19591L238.552 9.37635L238.275 9.84853L238.491 10.0172C238.768 9.8148 239.107 9.64617 239.507 9.54498C239.908 9.4438 240.123 9.37635 240.154 9.3089L240.216 8.83672C240.462 8.76927 240.77 8.83672 241.14 9.00536L242.741 9.78107C243.234 10.1521 243.573 10.6917 243.819 11.4337C243.142 11.6023 242.649 11.7035 242.372 11.7372L239.846 13.0863L238.83 13.6259C238.891 13.9295 238.922 14.1656 238.984 14.2667L240.216 16.2566C240.277 16.5264 240.277 16.8637 240.246 17.3359C240.216 17.8081 240.154 18.2128 240.031 18.6175C239.908 19.0222 239.138 19.7642 237.721 20.8772C236.304 21.9902 235.565 22.5298 235.534 22.5298L234.887 22.7659V23.0694C235.565 22.7996 236.058 22.6647 236.396 22.6647L237.197 22.7322H238.06C238.06 22.7322 238.121 22.7996 238.275 22.7659C238.429 22.7322 238.522 22.7322 238.552 22.7322L239.723 23.0357C239.908 23.1032 240.092 23.1706 240.308 23.2718C240.524 23.373 240.647 23.373 240.739 23.2718C240.986 23.5753 241.201 23.744 241.386 23.744L241.971 23.8114C242.248 23.8789 242.834 24.2836 243.696 25.1268C244.559 25.9699 244.959 26.5433 244.867 26.9143C244.774 27.2853 244.589 27.7912 244.312 28.4657C244.035 29.1403 243.881 29.4775 243.85 29.545L242.187 31.8384C242.526 32.007 242.803 32.0745 242.988 32.0745L243.789 32.2431C245.483 32.6479 246.499 33.1538 246.899 33.6597L247.392 34.4354L247.454 34.5028L247.177 34.975C247.608 35.346 247.823 35.6495 247.823 35.9194V36.1554C247.546 36.3241 247.331 36.3578 247.238 36.3241L246.807 36.2566L246.222 36.1892C246.222 36.1892 246.006 36.0543 245.821 35.9531C245.637 35.8519 245.267 35.8182 244.651 35.8182C244.035 35.8182 243.665 35.8182 243.45 35.6833L242.741 35.4472H241.509L239.63 35.2785C238.799 35.4472 238.06 35.5484 237.351 35.5821C236.643 35.6158 235.842 35.7507 234.918 35.8856L233.47 36.1892L229.928 36.83C227.557 37.572 225.616 37.8081 224.076 37.5382C223.83 37.5382 223.583 37.4708 223.275 37.3022C222.598 37.4033 221.889 37.3359 221.15 37.0998C220.411 36.8637 220.041 36.7288 220.041 36.6613L219.394 36.0205C219.148 35.8182 219.025 35.6495 219.025 35.5484V35.3797L218.871 35.5821ZM234.61 19.3595L235.996 17.7069C237.197 16.3915 237.69 15.4809 237.505 15.0087L237.351 14.604C235.965 15.3797 235.164 15.9531 234.98 16.2566L233.809 17.7743C233.563 17.4033 233.347 17.0661 233.131 16.7625C232.916 16.459 232.793 16.2566 232.762 16.2229C232.731 16.1892 232.669 15.9868 232.577 15.6158C232.485 15.2448 232.361 15.1436 232.207 15.2448C232.269 15.4135 232.3 15.5484 232.361 15.6833C232.423 15.8182 232.361 16.1554 232.3 16.7625V20.0678C232.238 20.8435 232.238 21.2819 232.3 21.3494L232.361 21.7541C233.378 20.7423 234.117 19.9666 234.61 19.3932V19.3595ZM233.316 32.007C233.686 31.7035 234.025 31.0627 234.24 30.1183C234.456 29.174 234.61 28.5669 234.61 28.2971L234.456 27.1167C233.624 27.1167 233.131 27.2853 232.947 27.6226C232.762 27.9598 232.639 28.2296 232.608 28.4657C232.577 28.7018 232.608 28.803 232.639 28.8705V29.8823C232.639 30.8941 232.854 31.6023 233.285 32.007H233.316ZM236.058 26.0711C236.766 26.9817 237.136 27.4876 237.136 27.6563L237.351 30.0172L237.29 30.5568C237.536 30.3882 237.69 30.287 237.752 30.2532C237.813 30.2195 238.306 29.545 239.199 28.2296C240.092 26.9143 240.524 26.1723 240.524 25.9025L240.462 25.3629C240.031 25.2617 239.692 25.1942 239.476 25.1605C239.261 25.1268 238.706 25.1942 237.782 25.3629C236.858 25.5315 236.304 25.7676 236.058 26.0711Z" fill="white"/>
<path d="M254.908 14.9403L255.708 15.4125L259.959 13.0516C260.729 12.6469 261.345 12.3433 261.776 12.1747L262.485 11.9386C262.854 11.8374 263.285 11.7025 263.717 11.5676C264.148 11.4327 264.394 11.2978 264.425 11.1292L264.856 9.54402L262.546 9.94875C262.546 9.94875 262.485 9.84757 262.515 9.81384C262.546 9.78011 262.885 9.5103 263.563 9.03812C264.24 8.56595 264.61 8.22868 264.671 8.09377C264.733 7.95886 264.795 7.58787 264.856 6.94706L265.01 5.59799C264.949 5.19326 264.949 4.82227 264.979 4.485C265.01 4.14773 264.979 3.91165 264.979 3.74301C264.979 3.57438 264.979 3.40574 264.979 3.27084C264.979 3.13593 265.01 3.03475 265.01 2.89984C264.949 2.73121 264.856 2.56257 264.733 2.36021L263.501 1.34841C263.131 1.04487 262.885 0.640144 262.854 0.167969C263.532 0.538964 264.333 0.842505 265.287 1.11232C266.242 1.38213 266.951 1.7194 267.413 2.19158C267.875 2.66375 268.121 2.89984 268.121 2.93357L268.275 4.45127C269.045 4.24891 269.569 4.11401 269.877 4.04655C271.078 4.04655 271.786 4.72109 272.033 6.03643C271.694 6.30625 271.448 6.44116 271.324 6.50861L270.308 6.67724C270.308 6.67724 269.6 7.08197 268.491 7.79023V8.2624L268.429 8.97067C268.429 8.97067 268.368 9.20676 268.429 9.37539C268.429 9.57775 268.429 9.74638 268.46 9.81384C268.491 9.88129 268.676 9.94875 269.014 9.98247C269.353 10.0162 269.784 10.2186 270.277 10.657C270.77 11.0955 271.078 11.3315 271.17 11.4327L271.386 11.9049C271.386 11.9049 272.895 12.4783 275.791 13.3214C276.222 12.4108 276.468 11.8712 276.499 11.6688L277.207 9.1393C277.207 9.1393 276.838 9.20676 276.345 9.67893C276.253 9.78011 276.037 9.91502 275.698 10.0837L274.774 10.7245C274.281 11.028 273.881 11.1966 273.542 11.1966L272.248 10.8931L271.324 10.657V10.2523C271.571 10.3197 271.725 10.3197 271.786 10.2523C271.848 10.1848 271.971 10.0837 272.156 9.84757C272.341 9.61148 272.926 9.24048 273.912 8.6334C274.897 8.02632 275.544 7.68905 275.76 7.65532C275.975 7.6216 276.314 7.55414 276.745 7.48669C278.193 7.48669 279.055 7.85768 279.333 8.6334C279.61 9.40912 279.764 9.84757 279.795 9.98247C279.825 10.1174 279.733 10.4884 279.548 11.1292L279.271 12.883L278.901 14.4681C281.797 16.0533 283.645 17.1663 284.446 17.8745V18.1106C284.969 18.684 285.308 19.1224 285.462 19.4597L285.616 20.2354L285.832 21.0111L285.678 21.7194H285.246C284.908 21.1798 284.63 20.8088 284.384 20.539C284.138 20.2692 283.491 19.9319 282.444 19.4597C281.396 18.9875 280.565 18.7177 280.01 18.5491C279.456 18.3804 278.963 18.1106 278.532 17.6722L277.608 17.5036C275.021 20.2354 272.402 21.146 269.815 20.2017L268.645 19.797L267.413 18.7852C267.228 19.5609 267.136 20.168 267.166 20.539C267.197 20.91 267.259 21.2135 267.351 21.4159C267.444 21.6182 267.844 21.9892 268.522 22.5288C269.784 21.888 270.678 21.517 271.201 21.3484C271.725 21.1798 272.156 21.0786 272.464 21.0449C272.772 21.0111 273.111 20.91 273.511 20.8088C273.912 20.7076 274.497 20.91 275.329 21.4496C276.16 22.0229 276.653 22.5288 276.869 23.001C277.084 23.4732 277.207 23.9116 277.207 24.3838C277.146 24.5862 277.115 24.8897 277.053 25.2607C276.992 25.6317 276.992 25.8341 276.992 25.9015C276.93 26.1039 276.93 26.4412 276.961 26.8459C276.992 27.2506 276.961 27.6216 276.961 27.9251C276.961 28.2287 276.961 28.3973 276.992 28.431L277.146 28.9707L277.207 31.9049L277.361 32.3771L277.3 32.6132C277.361 32.883 277.392 33.0516 277.423 33.1528C277.454 33.254 277.485 33.5912 277.485 34.1309C277.485 34.6705 277.546 35.2439 277.639 35.7835C277.731 36.3231 277.731 36.7616 277.7 37.0988C277.669 37.4361 277.577 37.7734 277.454 38.2118L277.608 38.6165C277.023 39.6621 276.437 39.8982 275.883 39.3248L274.805 37.571L273.634 35.7498C273.203 35.9521 272.895 36.087 272.71 36.1545L270.339 36.5592C269.754 36.7278 269.415 36.7616 269.261 36.7278L268.09 36.1882L267.29 36.3568C266.704 36.2557 266.304 35.9521 266.027 35.4799C265.749 35.0078 265.565 34.5019 265.441 33.9622C265.318 33.4226 265.287 32.8493 265.287 32.2084C265.287 31.5676 265.287 31.0955 265.287 30.7582C265.287 30.4209 265.287 30.1511 265.318 30.0162C265.318 28.6334 265.38 27.5879 265.534 26.8459L266.181 22.8998C265.595 22.7312 265.257 22.5626 265.103 22.3602L264.517 21.4159L263.655 20.7076C263.593 19.2236 263.563 18.2793 263.501 17.8745L263.285 16.1208C263.039 16.3231 262.854 16.5592 262.669 16.7953C262.485 17.0314 262.269 17.7059 261.992 18.8189C261.715 19.9319 261.622 20.6739 261.715 21.1123L261.869 21.7531C261.93 22.0229 261.93 22.2928 261.93 22.5288V22.9336C261.068 22.7649 260.575 22.63 260.483 22.4614L259.035 21.0449C259.035 21.0449 258.942 20.91 258.912 20.8425C258.881 20.7751 259.035 20.4378 259.312 19.8644L259.682 18.0432L260.267 16.458C259.99 16.3568 259.651 16.458 259.25 16.7616C258.912 17.0314 258.48 17.1326 257.957 17.0651C256.786 16.9976 256.016 16.7616 255.616 16.3231C255.216 15.8847 255 15.5811 255 15.4125V15.1089L254.908 14.9403ZM263.932 16.2894L264.086 16.829L264.517 17.7734C264.517 17.7734 264.671 17.6385 264.733 17.571C264.795 17.5036 264.795 17.2675 264.795 16.8965V16.6604L264.733 15.7835C264.918 15.3113 265.041 14.9403 265.103 14.6705V14.0297C264.856 14.0297 264.641 14.0971 264.456 14.2658L264.086 14.3332L263.378 14.6368C263.378 14.6368 263.378 14.9066 263.347 15.0078C263.316 15.1089 263.347 15.1764 263.501 15.2776C263.655 15.3788 263.686 15.5474 263.686 15.7498V15.9858C263.686 15.9858 263.932 16.1545 263.963 16.2219L263.932 16.2894ZM267.105 18.1106C267.875 18.4816 268.799 18.6503 269.846 18.6503C270.708 18.7177 271.232 18.7177 271.386 18.6503C271.54 18.5828 272.002 18.3467 272.772 17.8745C273.542 17.4024 274.004 17.0314 274.22 16.7278C274.435 16.4243 274.559 16.1545 274.559 15.8847V15.716C274.312 15.7835 274.158 15.7835 274.096 15.7498C274.035 15.716 273.819 15.5811 273.48 15.3113C273.142 15.0415 272.68 14.7717 272.094 14.5356C271.509 14.2995 270.924 13.8611 270.277 13.3552C269.63 12.8493 269.168 12.5794 268.83 12.6132C268.491 12.6469 268.183 12.7818 267.844 13.0179C267.505 13.254 267.413 13.5238 267.444 13.8611L267.505 14.738C267.998 15.0415 268.244 15.1427 268.306 15.0415L269.754 13.9285C269.754 13.9285 269.846 14.0971 269.908 14.0971L269.846 14.738L270.062 15.2776L270.123 15.9184C270.4 16.1882 270.616 16.3906 270.708 16.5592L270.924 17.3349L271.078 17.7396C270.585 18.2118 270.246 18.4479 270.031 18.4816C269.815 18.5154 269.384 18.2793 268.768 17.8071C268.152 17.3349 267.813 17.0314 267.752 16.8627L267.32 16.087L267.105 18.1444V18.1106ZM267.906 29.0044L269.076 27.9926L267.782 27.3518C267.69 27.824 267.659 28.1612 267.659 28.3299C267.659 28.4985 267.659 28.6334 267.659 28.7346C267.659 28.8358 267.659 28.9032 267.659 29.0381C267.659 29.173 267.782 29.173 267.906 29.0044ZM267.69 32.3434C268.121 32.2422 268.429 32.0398 268.614 31.7025C268.244 31.399 267.906 31.1629 267.69 31.0617V32.3434ZM273.388 27.2843C272.464 27.5541 271.571 27.9926 270.678 28.6671C269.784 29.3417 269.261 29.7464 269.045 29.9825C269.107 30.0499 269.199 30.1174 269.384 30.1848C269.569 30.2523 269.938 30.1848 270.554 29.9487C271.17 29.7127 271.756 29.7127 272.372 29.9487C272.988 30.1848 273.48 30.5221 273.85 30.9268C273.419 31.2304 273.111 31.4665 272.926 31.5676L270.832 32.512L270.031 33.1528C268.83 33.9285 268.275 34.4344 268.368 34.5693L268.429 34.738C270.585 34.3332 271.786 34.0971 271.971 34.0971L273.634 34.2658L274.651 35.7835C274.589 35.4125 274.589 35.109 274.62 34.9066C274.651 34.7042 274.651 34.5356 274.651 34.4344C274.589 34.367 274.466 33.7936 274.251 32.6469C274.035 31.5002 273.942 29.5103 274.004 26.6098C274.004 25.4968 274.004 24.6874 274.066 24.1477L274.22 22.3265C273.881 22.4277 273.511 22.63 273.049 22.8661C272.587 23.1022 272.187 23.372 271.756 23.5744C271.324 23.7767 270.862 24.0466 270.431 24.4175C270 24.7885 269.199 24.485 268.09 23.5744C267.936 24.1477 267.906 24.485 267.936 24.5862L267.998 25.0584C267.813 25.4294 267.721 25.7666 267.782 26.1376C267.844 26.5086 268.121 26.5761 268.645 26.4074L269.076 26.2388L270.678 26.1713C271.047 26.0027 271.294 25.9353 271.324 25.9353C272.094 26.0364 272.618 26.2051 272.864 26.4074C273.111 26.6098 273.296 26.9133 273.419 27.2843H273.388Z" fill="white"/>
<path d="M296.119 10.8265C296.119 10.8265 296.242 10.5567 296.304 10.4556C296.366 10.3544 297.505 9.57866 299.723 8.06095C302.556 6.17225 305.729 4.82318 309.24 4.01373L309.456 3.60901C309.025 3.3392 308.747 3.03565 308.655 2.66466C308.809 2.59721 308.994 2.66466 309.24 2.73211C309.487 2.79957 309.795 2.9682 310.133 3.10311C310.472 3.23801 310.749 3.3392 310.842 3.4741C310.934 3.60901 311.058 3.64274 311.181 3.71019L311.396 4.01373L312.197 4.41845C312.382 4.58709 312.628 4.89063 312.967 5.32908C313.306 5.76753 313.491 6.10479 313.583 6.30715L313.737 7.01542C313.891 7.58877 313.953 7.9935 313.922 8.19586C313.891 8.39822 313.706 8.63431 313.306 8.90412L310.133 9.14021L309.702 9.30884L308.994 9.14021L308.501 9.30884L307.916 9.37629C307.823 9.57866 307.762 9.71356 307.762 9.78102L308.039 10.7928L308.193 12.2093C307.7 12.378 307.392 12.5129 307.269 12.6141L305.883 13.8957L304.959 14.5365L303.881 15.4808V15.8856L305.606 16.2903C306.099 15.6158 306.499 15.1099 306.838 14.7726L307.7 13.9969C307.7 13.9969 307.947 13.6933 308.285 13.2212C308.624 12.749 309.025 12.3105 309.517 11.8721C310.01 11.4336 310.257 11.0964 310.318 10.7591V10.5905C310.318 10.5905 310.318 10.4556 310.287 10.3881C310.257 10.3206 310.287 10.2532 310.411 10.2532C310.749 10.6242 311.027 10.894 311.212 11.0289L312.012 12.0407C312.505 12.6815 312.752 13.0188 312.813 13.12C312.875 13.2212 313.029 13.6259 313.306 14.4353L313.152 15.211C312.444 15.3797 311.766 15.6495 311.212 16.0879V16.3915C312.043 17.4033 312.875 18.3139 313.768 19.1571C314.661 20.0002 315.185 20.6748 315.308 21.147C315.431 21.6191 315.524 22.0576 315.554 22.4623C315.585 22.867 315.554 23.1368 315.554 23.3392C315.554 23.5416 315.462 23.7776 315.37 24.0812C315.277 24.3847 315.246 24.5871 315.308 24.6208L315.37 25.2616L315.092 25.5652C314.322 25.1942 313.83 24.8569 313.583 24.5534L313.09 23.8451C312.659 23.3729 311.92 23.2717 310.934 23.5416C309.949 23.8114 309.025 24.2161 308.255 24.722C308.409 25.1942 308.501 25.5314 308.532 25.7338L308.686 27.0154L308.84 27.4876C309.61 27.2852 310.257 27.1841 310.78 27.1841C313.275 27.3527 315.062 28.1621 316.078 29.5787C317.094 30.9952 317.68 31.9733 317.772 32.4792V34.469C317.618 35.4809 316.725 35.9193 315.092 35.8181L314.815 35.3459C314.476 35.3459 314.199 35.3459 314.014 35.2785C313.83 35.211 313.583 35.0761 313.306 34.84C313.029 34.604 312.598 34.3679 312.012 34.098L310.996 33.5584C310.503 33.3898 310.164 33.1874 309.979 32.9176C310.226 32.749 310.873 32.4792 311.889 32.0744C312.906 31.6697 313.706 31.1638 314.199 30.5567C314.692 29.9497 314.261 29.2077 312.875 28.297C312.536 28.1284 312.012 27.9935 311.335 27.8586C310.657 27.7237 310.287 27.6225 310.287 27.5888L309.702 27.7574L308.778 27.926C308.778 27.926 308.778 28.2296 308.747 28.3645C308.717 28.4994 308.747 28.5669 308.778 28.5669L309.055 30.0846C309.055 30.2869 309.055 30.5567 309.086 30.8603C309.117 31.1638 309.117 31.3999 309.117 31.5011L309.055 32.0407V33.4572L308.901 34.233L308.747 35.7507L308.47 36.5264C308.224 36.6276 308.07 36.695 307.977 36.7625L307.485 37.3021C307.207 37.6056 306.899 37.6731 306.591 37.4707C306.283 37.2684 305.852 36.695 305.298 35.7844C304.743 34.8738 303.973 33.8282 303.018 32.6478C302.772 32.749 302.649 32.8164 302.649 32.8839L302.803 33.7608C302.803 33.7608 302.649 33.9969 302.464 34.1655C302.279 34.3341 301.971 34.8063 301.478 35.6158C300.986 36.4252 300.554 36.8636 300.154 36.8974C299.754 36.9311 299.292 36.6613 298.83 36.1554C298.337 35.7507 298.029 35.3459 297.844 34.9749C297.659 34.604 297.628 33.9631 297.659 33.0862C297.659 31.8721 297.752 31.0964 297.936 30.7254L299.014 28.1959C298.183 27.4201 297.752 26.7793 297.721 26.3072L297.659 25.4303L297.444 24.6545C297.444 24.6545 297.382 24.5534 297.444 24.4859C297.444 24.3847 297.505 24.3173 297.598 24.2498H297.813L299.107 23.238L301.14 21.1807C301.663 20.776 301.94 20.405 301.94 20.1689C301.879 19.8991 301.817 19.7304 301.725 19.6292L300.493 20.2701C300.493 20.2701 300.277 20.1689 300.031 19.9665C299.784 19.7642 299.322 19.5955 298.706 19.5281C298.09 19.4606 297.782 19.292 297.782 19.0896L297.567 18.1453C299.107 17.6731 299.938 17.3358 300.092 17.1672C300.246 16.9986 300.37 16.695 300.524 16.2903C300.678 15.8856 301.109 15.1099 301.848 13.9631C302.587 12.8164 303.203 11.9733 303.665 11.4674C304.127 10.9615 304.312 10.6242 304.281 10.4893L304.22 10.3206H303.85C303.85 10.3206 303.604 10.5567 303.511 10.5905C303.419 10.6242 303.296 10.6579 303.08 10.6579C302.864 10.6579 302.71 10.6579 302.618 10.6242L301.91 10.4556C301.91 10.4556 301.17 10.6579 299.969 11.0964L299.692 10.7928L299.107 10.8603L298.614 10.7928C298.337 10.7928 297.69 10.9952 296.735 11.4336L296.304 10.9615L296.119 10.8265ZM300.585 31.8721C300.585 31.8721 300.924 31.7034 301.448 31.3325C301.971 30.9615 302.248 30.6579 302.279 30.3881C302.31 30.1183 302.125 29.6124 301.725 28.8704C301.324 28.1284 301.047 27.7574 300.862 27.7237C300.678 27.69 300.431 27.7911 300.154 28.0272C299.877 28.2633 299.723 28.5331 299.692 28.8704C299.661 29.2077 299.723 29.5449 299.877 29.8822C299.938 30.1857 299.969 30.6242 300.031 31.1638C300.092 31.7034 300.277 31.9395 300.616 31.8721H300.585ZM301.478 27.5888L303.203 30.0508C304.127 29.6798 305.051 29.1402 306.006 28.4657C305.945 27.8923 305.945 27.4201 305.975 27.0491C306.006 26.6782 305.975 26.4083 305.914 26.2734C305.852 26.1385 305.729 25.9699 305.575 25.8013C304.959 26.0036 304.158 26.3409 303.203 26.7456C302.248 27.1503 301.663 27.4539 301.478 27.6225V27.5888ZM305.298 32.5803H305.667C305.945 31.5685 306.068 30.894 306.037 30.523L305.883 29.5112C305.39 29.5787 304.99 29.781 304.651 30.1857C304.312 30.5905 304.127 30.8265 304.066 30.894C304.004 30.9615 304.004 31.0964 304.035 31.265C304.066 31.4336 304.127 31.5348 304.22 31.5685L305.298 32.5803ZM304.343 22.2937C305.637 21.9901 306.684 21.6866 307.454 21.383C308.224 21.0795 308.809 20.9109 309.209 20.776C309.61 20.641 310.503 20.6748 311.858 20.776C311.366 19.7304 311.088 18.921 310.996 18.4151L310.719 17.3021C310.719 17.3021 310.565 17.1335 310.349 17.066L305.667 21.012C304.959 21.6529 304.497 22.0576 304.374 22.2937H304.343Z" fill="white"/>
<path d="M330.832 14.3011V12.1763C331.694 11.4343 332.464 10.6586 333.142 9.88285H333.357C333.881 9.24204 334.466 8.66868 335.051 8.19651C335.637 7.72433 336.006 7.35333 336.099 7.21843L336.314 6.74625H335.821C335.298 6.44271 334.743 5.86935 334.158 5.09364C334.343 4.82382 334.528 4.65519 334.651 4.55401C334.774 4.45283 335.113 4.4191 335.575 4.48656C336.283 4.58774 336.776 4.68892 337.023 4.7901C337.269 4.89128 337.7 5.16109 338.316 5.63327C338.932 6.10544 339.394 6.44271 339.641 6.71253C339.887 6.98234 340.072 7.48824 340.103 8.29769C340.103 8.70241 340.103 8.97222 340.041 9.00595L339.24 9.9503C338.378 10.8609 337.392 11.8053 336.283 12.7834C336.283 12.952 336.283 13.0532 336.314 13.0869C336.345 13.1206 336.499 13.2555 336.776 13.3904C337.053 13.5253 337.331 13.9301 337.546 14.5034C337.762 15.0768 337.885 15.5489 337.916 15.9199C337.947 16.2909 337.916 16.6282 337.854 16.9317C337.793 17.2353 336.961 18.6181 335.421 21.0464L336.283 21.9908L336.653 21.586L337.731 19.9334L338.316 19.2252V18.753L338.809 19.3938L338.963 19.2252C338.963 19.2252 339.086 18.9891 339.456 18.5169L340.534 17.3365V17.0329C340.534 17.0329 340.688 17.1678 340.719 17.2353C340.749 17.3027 340.749 17.3702 340.749 17.4377L339.887 18.9554C339.702 19.2589 339.61 19.7311 339.61 20.3044L339.394 20.5405L339.179 20.608C339.179 20.608 339.179 20.8778 339.394 20.9115V20.6754C339.394 20.6754 339.548 20.6754 339.61 20.608L339.887 20.0683L340.103 19.6636L339.887 20.9452L340.749 20.0009C340.749 20.0009 340.657 20.0009 340.626 19.9334C340.595 19.866 340.719 19.7648 340.965 19.5287C341.211 19.2926 341.396 19.0565 341.55 18.753L342.782 16.9992L343.214 16.2909H342.844L342.567 16.527C342.197 16.2572 341.828 16.1898 341.489 16.2909L341.335 16.0549C341.335 16.0549 341.119 16.0549 341.119 15.9874L340.411 15.3466C340.072 15.1442 339.887 15.0093 339.856 14.9419C339.825 14.8744 339.825 14.807 339.825 14.7058L339.333 13.8289C339.179 13.5591 339.117 13.2218 339.086 12.8508C339.055 12.4798 339.24 11.9402 339.579 11.2656C339.918 10.5911 340.534 9.9503 341.335 9.34322L344.23 7.28588L344.661 6.81371C343.984 6.34153 343.645 6.03799 343.645 5.93681L342.413 3.33984L342.69 3.4073C343.183 4.08183 343.583 4.48656 343.891 4.58774C344.199 4.68892 344.569 4.75637 345 4.75637L346.294 4.68892L347.895 4.62146C347.895 4.62146 348.234 4.82382 348.727 5.09364C349.22 5.36345 349.559 5.56581 349.713 5.73445C349.867 5.90308 349.928 6.10544 349.959 6.34153C349.99 6.57762 350.021 6.71253 350.082 6.71253L350.298 7.01607V7.25215C349.682 7.42079 348.912 7.65688 348.049 8.02787L347.618 8.09532L346.602 8.39887L345.678 8.5675L344.384 9.20831C343.552 9.61303 342.906 10.0178 342.444 10.3887C341.982 10.7597 341.396 11.5692 340.719 12.8508L340.78 13.1543V12.9183H341.366C343.953 11.2994 345.77 10.355 346.786 10.1189C347.803 9.88285 348.388 9.71421 348.542 9.64676C348.696 9.5793 349.559 9.51185 351.099 9.51185C351.253 9.81539 351.437 9.98403 351.653 10.0178C351.869 10.0515 352.084 10.2876 352.269 10.7597C352.454 11.2319 352.639 11.5355 352.762 11.7041C352.885 11.8727 352.977 11.9739 353.008 12.0076C353.039 12.0414 352.947 12.21 352.762 12.4798C352.577 12.7496 352.454 12.8845 352.392 12.8845H351.961L351.745 13.1206H349.928L349.713 13.3567C349.343 13.2555 348.912 13.1881 348.48 13.1206V13.3567C348.727 13.4242 348.912 13.4242 349.066 13.4242L351.16 15.0093C352.084 15.6839 352.669 16.3247 352.977 16.8643C353.285 17.4039 353.593 18.2134 353.994 19.2589L353.932 19.495C354.086 19.6973 354.179 19.8323 354.209 19.8997L353.84 20.9115V21.4511L353.039 21.9908L352.023 21.0464H351.591V20.7429L350.729 20.979L350.945 21.2151V22.6316L350.729 22.8677C350.667 23.1712 350.667 23.4073 350.698 23.5422C350.729 23.6771 350.729 23.7783 350.729 23.812L350.513 24.2842V25.0599L350.298 25.296V25.7682L350.082 26.0043C350.021 26.2741 350.021 26.409 350.021 26.4764L349.867 26.9486C349.774 27.2184 349.743 27.3533 349.805 27.4208L349.867 28.4326L349.589 28.6687C349.651 29.0397 349.651 29.2758 349.62 29.4107C349.589 29.5456 349.559 29.7142 349.497 29.9166C349.435 30.1189 349.405 30.2876 349.374 30.4225C349.343 30.5574 349.312 30.7935 349.312 31.1645C349.312 31.5355 349.343 31.8053 349.497 31.9402C349.743 32.5135 350.452 32.8171 351.653 32.8171C353.008 32.8845 353.963 32.7496 354.579 32.5135C355.195 32.2775 355.749 31.839 356.273 31.2319C355.78 29.7142 355.472 28.7699 355.349 28.3989L354.548 26.6451C354.548 26.6451 354.271 26.5776 354.179 26.3415V26.1729C355.01 26.7463 355.595 27.151 355.934 27.3871C356.273 27.6232 356.55 27.7918 356.704 27.893L357.351 28.7699C357.536 29.0734 357.813 29.3095 358.152 29.4107L358.953 29.8154C358.953 29.8154 359.23 30.1189 359.446 30.4225C359.661 30.726 359.815 30.9284 359.877 31.0633C359.938 31.1982 359.938 31.3668 359.938 31.5692C359.877 32.6822 359.261 33.694 358.06 34.6383C356.858 35.5827 355.811 36.0886 354.949 36.156L353.347 36.0886H352.053C350.513 36.0886 349.374 35.7176 348.635 34.9756C347.895 34.2336 347.402 33.5928 347.187 32.9857C346.971 32.3786 346.879 31.6704 346.94 30.7597C346.94 29.0059 347.218 26.78 347.803 24.0481L348.45 20.979L348.388 20.5742L346.294 21.5186C346.201 21.7884 346.14 21.9908 346.109 22.1257C346.078 22.2606 346.047 22.5304 346.047 22.9688C346.047 23.4073 345.924 24.1493 345.708 25.2623C345.493 26.3753 345.308 27.2522 345.092 27.9267C344.877 28.6012 344.384 29.5793 343.583 30.9284C342.782 32.2775 342.197 33.1543 341.858 33.6265C341.52 34.0987 341.211 34.5371 340.965 34.9756C340.719 35.414 340.472 35.5827 340.257 35.4815L339.979 35.0093H339.764C339.764 35.0093 339.517 34.7732 339.333 34.3011H339.055C338.901 34.0312 338.84 33.8289 338.84 33.6602L338.686 32.4798L338.47 31.5355C338.47 31.5355 338.47 31.2994 338.532 31.1307L339.333 29.3095L339.702 28.0279L339.918 28.6687L339.641 28.9048L340.072 29.6805L340.78 28.6687V28.1965C340.965 27.893 341.119 27.5557 341.211 27.2522L341.612 26.3753L342.012 25.4984L342.166 25.0262C342.413 24.3516 342.536 23.9807 342.536 23.9132L342.474 23.6097L342.197 24.1493L341.766 24.3179C341.581 24.2167 341.366 24.0481 341.119 23.8457C340.873 23.6434 340.688 23.441 340.534 23.2387C340.38 23.0363 340.164 22.4629 339.887 21.4511C339.61 21.5523 339.456 21.6198 339.456 21.6872L339.671 22.3955L339.517 22.5641L339.456 23.0363C339.179 23.3061 339.025 23.6434 339.025 24.0481L338.809 24.2842L338.439 25.4646L337.731 27.522L336.068 31.7041C335.452 33.1881 335.082 34.2336 334.959 34.9081C334.836 35.5827 334.682 35.9199 334.528 35.9199C334.374 35.9199 334.097 35.8188 333.758 35.549V35.3129C333.234 34.9419 332.926 34.6046 332.895 34.3011L332.834 33.8963L332.033 32.3786C331.848 31.9065 331.971 31.468 332.402 31.0296V30.726L332.618 30.4899V30.0852L332.834 29.7817V29.3769L333.049 29.1409V28.8373C333.049 28.8373 333.203 28.7024 333.265 28.6012L334.281 26.2404C334.281 26.2404 334.466 25.8694 334.682 25.4984C334.897 25.1274 334.99 24.7226 334.959 24.3854C334.928 24.0481 334.343 23.3061 333.203 22.2269H332.988L332.618 21.586V21.2825L332.402 21.0464V19.1577C332.587 18.7867 332.957 18.1796 333.45 17.3702C333.943 16.5608 334.281 15.9199 334.435 15.5152L334.651 15.2117L334.497 15.1442L334.066 15.4478H333.634L333.419 15.6839C332.741 15.9874 332.218 15.9874 331.817 15.6164C331.417 15.2454 331.263 14.9419 331.324 14.7395V14.5709L330.893 14.2673L330.832 14.3011ZM338.563 19.7648L338.778 19.4613L338.347 19.2252C338.255 19.495 338.224 19.6973 338.224 19.866C338.224 20.0346 338.285 20.1021 338.378 20.1358C338.47 20.1695 338.47 20.1358 338.439 20.0009C338.409 19.866 338.439 19.8323 338.563 19.7648ZM345.493 18.1122C347.125 17.5388 348.419 17.1678 349.312 16.9992L349.466 16.5945L349.189 16.2909V15.9874L349.405 15.5827L349.189 15.3466V14.8744L348.265 13.2218C347.895 13.4916 347.649 13.6602 347.556 13.7614L346.632 15.3466L346.478 15.5827V15.9874C346.478 15.9874 346.355 16.2235 346.263 16.527L345.678 17.8086C345.4 18.1122 345.339 18.2134 345.524 18.1122H345.493Z" fill="white"/>
</g>
<defs>
<clipPath id="clip0_1189_17291">
<rect width="360" height="40" fill="white"/>
</clipPath>
</defs>
</svg>
