<svg width="240" height="240" viewBox="0 0 240 240" fill="none" xmlns="http://www.w3.org/2000/svg">
<path d="M120 200C175.228 200 220 155.228 220 100C220 44.7715 175.228 0 120 0C64.7715 0 20 44.7715 20 100C20 155.228 64.7715 200 120 200Z" fill="#DFE8FE"/>
<path d="M51.9727 75.2121C51.9727 75.2121 29.9449 56.0609 51.5451 39.7991C51.5451 39.7991 65.8827 31.3767 80.1101 42.585C87.5995 49.5367 119.592 55.3158 140.136 42.3647C160.68 29.4136 163.349 26.9646 175.335 29.5302C175.335 29.4201 199.618 38.3025 186.142 61.4123C186.356 61.516 168.06 81.4188 190.632 102.067C190.632 102.391 208.714 130.418 182.397 130.314C156.08 130.211 79.6825 126.9 79.6825 126.9C79.6825 126.9 50.8001 144.127 40.7385 129.686C40.7385 129.686 27.4765 116.08 52.7243 106.038C59.0346 102.604 71.124 93.5082 51.9727 75.2121Z" fill="#ADC3FC"/>
<path d="M48.9023 54.7054C49.9757 54.7054 50.8459 53.8352 50.8459 52.7617C50.8459 51.6883 49.9757 50.8181 48.9023 50.8181C47.8288 50.8181 46.9586 51.6883 46.9586 52.7617C46.9586 53.8352 47.8288 54.7054 48.9023 54.7054Z" fill="white"/>
<path d="M72.3479 78.2069C73.1744 78.2069 73.8445 77.5369 73.8445 76.7103C73.8445 75.8838 73.1744 75.2137 72.3479 75.2137C71.5213 75.2137 70.8513 75.8838 70.8513 76.7103C70.8513 77.5369 71.5213 78.2069 72.3479 78.2069Z" fill="white"/>
<path d="M108.37 63.2987C109.197 63.2987 109.867 62.6287 109.867 61.8021C109.867 60.9756 109.197 60.3055 108.37 60.3055C107.544 60.3055 106.874 60.9756 106.874 61.8021C106.874 62.6287 107.544 63.2987 108.37 63.2987Z" fill="white"/>
<path d="M154.375 50.7489C155.202 50.7489 155.872 50.0789 155.872 49.2523C155.872 48.4258 155.202 47.7557 154.375 47.7557C153.549 47.7557 152.879 48.4258 152.879 49.2523C152.879 50.0789 153.549 50.7489 154.375 50.7489Z" fill="white"/>
<path d="M202.45 80.1305C203.276 80.1305 203.947 79.4605 203.947 78.6339C203.947 77.8074 203.276 77.1373 202.45 77.1373C201.623 77.1373 200.953 77.8074 200.953 78.6339C200.953 79.4605 201.623 80.1305 202.45 80.1305Z" fill="white"/>
<path d="M195.245 119.359C196.072 119.359 196.742 118.689 196.742 117.862C196.742 117.036 196.072 116.366 195.245 116.366C194.419 116.366 193.749 117.036 193.749 117.862C193.749 118.689 194.419 119.359 195.245 119.359Z" fill="white"/>
<path d="M212.219 109.7C213.253 109.7 214.092 108.862 214.092 107.828C214.092 106.793 213.253 105.955 212.219 105.955C211.185 105.955 210.347 106.793 210.347 107.828C210.347 108.862 211.185 109.7 212.219 109.7Z" fill="#ADC3FC"/>
<path d="M204.048 103.484C205.866 101.904 205.491 98.4981 203.212 95.8759C200.933 93.2538 197.611 92.4088 195.794 93.9887C193.977 95.5685 194.351 98.9749 196.631 101.597C198.91 104.219 202.231 105.064 204.048 103.484Z" fill="#ADC3FC"/>
<path d="M82.2742 140.997C85.501 139.709 87.3931 136.852 86.5004 134.615C85.6077 132.379 82.2682 131.61 79.0414 132.898C75.8146 134.186 73.9224 137.043 74.8151 139.28C75.7078 141.516 79.0474 142.285 82.2742 140.997Z" fill="#ADC3FC"/>
<path d="M72.9759 174.241H68.7323V175.051H72.9759V174.241Z" fill="#59E6BA"/>
<path d="M70.5215 172.523V176.767H71.3313V172.523H70.5215Z" fill="#59E6BA"/>
<g filter="url(#filter0_d_2175_17199)">
<path d="M161.082 80.7378H79.6311V190.294H161.082V80.7378Z" fill="#F2F2F2"/>
</g>
<path d="M138.582 85.1617H87.4381V86.0169H138.582V85.1617Z" fill="#E4E4E4"/>
<path d="M138.582 89.0698H87.4381V89.925H138.582V89.0698Z" fill="#8D86FF"/>
<path d="M138.582 131.117H87.4381V131.973H138.582V131.117Z" fill="#E4E4E4"/>
<path d="M154.731 100.608H87.462V131.026H154.731V100.608Z" fill="#F5F5F5"/>
<path d="M140.538 103.272H89.3949V120.804H140.538V103.272Z" fill="white"/>
<path d="M138.582 171.02H87.4381V171.875H138.582V171.02Z" fill="#E4E4E4"/>
<path d="M154.731 140.52H87.462V170.938H154.731V140.52Z" fill="#F5F5F5"/>
<path d="M140.538 143.173H89.3949V160.705H140.538V143.173Z" fill="white"/>
<g filter="url(#filter1_d_2175_17199)">
<path d="M189.624 89.3147L109.659 73.4523L88.3424 180.915L168.307 196.777L189.624 89.3147Z" fill="white"/>
</g>
<path d="M115.007 81.0308L178.538 93.632" stroke="#E2E2E2" stroke-miterlimit="10"/>
<path d="M98.4714 164.424L161.996 177.025" stroke="#E2E2E2" stroke-miterlimit="10"/>
<path d="M97.4156 169.745L146.149 179.411" stroke="#E2E2E2" stroke-miterlimit="10"/>
<path d="M111.124 100.623L174.649 113.218" stroke="#E2E2E2" stroke-miterlimit="10"/>
<path d="M110.094 105.799L173.625 118.393" stroke="#E2E2E2" stroke-miterlimit="10"/>
<path d="M112.983 91.2478L169.984 102.553" stroke="#E2E2E2" stroke-miterlimit="10"/>
<path d="M113.982 86.2065L145.378 92.4327" stroke="#8D86FF" stroke-miterlimit="10"/>
<path d="M96.2474 175.621L127.644 181.847" stroke="#8D86FF" stroke-miterlimit="10"/>
<path d="M112.123 95.5797L132.978 99.7197" stroke="#65DCB5" stroke-miterlimit="10"/>
<path d="M164.067 133.481L112.853 123.321L107.107 152.287L158.321 162.447L164.067 133.481Z" fill="white" stroke="#F4F4F4" stroke-miterlimit="10"/>
<path d="M124.259 129.614L117.122 128.199L112.792 150.028L119.928 151.444L124.259 129.614Z" fill="#8D86FF"/>
<path d="M134.699 138.754L127.562 137.338L124.582 152.361L131.718 153.777L134.699 138.754Z" fill="#65DCB5"/>
<path d="M145.42 146.496L138.284 145.08L136.374 154.708L143.511 156.124L145.42 146.496Z" fill="#F7836E"/>
<path d="M159.067 139.441L151.93 138.025L148.158 157.039L155.295 158.455L159.067 139.441Z" fill="#FDE161"/>
<path d="M143.44 144.126C147.201 144.126 150.249 141.077 150.249 137.317C150.249 133.556 147.201 130.507 143.44 130.507C139.68 130.507 136.631 133.556 136.631 137.317C136.631 141.077 139.68 144.126 143.44 144.126Z" fill="#E6E7E7"/>
<path d="M197.019 164.775L188.597 156.352C187.753 155.51 186.645 154.982 185.46 154.857C184.274 154.732 183.08 155.018 182.079 155.666L178.607 152.549C183.426 146.654 185.794 139.13 185.22 131.537C184.646 123.943 181.174 116.861 175.522 111.757C169.871 106.653 162.473 103.918 154.861 104.117C147.248 104.317 140.004 107.436 134.628 112.829C129.252 118.222 126.155 125.476 125.98 133.089C125.804 140.702 128.563 148.091 133.685 153.727C138.806 159.362 145.899 162.812 153.494 163.362C161.09 163.912 168.605 161.521 174.486 156.683L177.991 159.832C177.408 160.826 177.171 161.986 177.316 163.13C177.462 164.274 177.981 165.337 178.795 166.155L187.217 174.577C187.699 175.064 188.273 175.45 188.905 175.714C189.537 175.978 190.215 176.114 190.9 176.114C191.585 176.114 192.263 175.978 192.896 175.714C193.528 175.45 194.101 175.064 194.583 174.577L197.013 172.141C197.5 171.66 197.887 171.086 198.151 170.454C198.416 169.822 198.552 169.144 198.553 168.459C198.553 167.774 198.418 167.096 198.155 166.464C197.892 165.831 197.506 165.257 197.019 164.775V164.775ZM155.607 158.167C150.774 158.167 146.049 156.733 142.03 154.048C138.011 151.363 134.879 147.546 133.029 143.081C131.18 138.615 130.696 133.701 131.639 128.961C132.582 124.22 134.909 119.866 138.327 116.448C141.744 113.031 146.099 110.703 150.839 109.76C155.58 108.817 160.494 109.301 164.959 111.151C169.424 113 173.241 116.133 175.926 120.152C178.612 124.17 180.045 128.895 180.045 133.729C180.045 140.21 177.47 146.426 172.887 151.009C168.304 155.592 162.088 158.167 155.607 158.167Z" fill="#949A9E"/>
<path d="M97.04 222.632C98.816 222.488 100.912 222.184 102.112 221.784L102.784 222.68C101.536 223.064 99.744 223.32 98.112 223.448V225.048V225.16H103.216V226.136H101.344V229.944H100.224V226.136H98.064C97.968 227.432 97.664 228.92 96.816 229.976C96.608 229.784 96.144 229.48 95.888 229.368C96.912 228.072 97.04 226.344 97.04 225.032V222.632ZM91.936 233.432V234.76H100.08V233.432H91.936ZM91.936 232.552H100.08V231.24H91.936V232.552ZM90.8 230.296H101.264V236.248H100.08V235.72H91.936V236.28H90.8V230.296ZM88.88 227.928L92.656 227.576V226.264H90.72C90.048 226.264 89.568 226.36 89.424 226.488C89.36 226.248 89.184 225.704 89.04 225.384C89.296 225.336 89.568 225.08 89.856 224.696C90 224.52 90.304 224.104 90.64 223.576H88.848V222.632H91.2C91.392 222.264 91.584 221.896 91.744 221.512L92.944 221.848L92.496 222.632H96.272V223.576H91.888C91.472 224.2 91.024 224.776 90.592 225.288H92.656V224.248H93.776V225.288H96.304V226.264H93.776V227.464L96.208 227.224L96.224 228.136L93.776 228.408V229.976H92.656V228.536L88.976 228.936L88.88 227.928ZM105.824 222.632H118.304V223.816H112.336C112.304 224.968 112.224 226.168 112.048 227.368H119.216V228.536H113.424V234.04C113.424 234.616 113.584 234.728 114.4 234.728C114.784 234.728 116.704 234.728 117.2 234.728C117.984 234.728 118.112 234.36 118.192 232.168C118.48 232.392 119.008 232.6 119.36 232.68C119.2 235.24 118.816 235.912 117.28 235.912C116.912 235.912 114.624 235.912 114.288 235.912C112.624 235.912 112.176 235.496 112.176 234.04V228.536H111.84C111.168 231.672 109.568 234.632 105.44 236.28C105.28 235.976 104.928 235.544 104.624 235.304C108.416 233.864 109.968 231.288 110.624 228.536H104.832V227.368H110.848C111.04 226.168 111.088 224.952 111.136 223.816H105.824V222.632ZM127.088 221.864L128.096 222.312C127.632 223.048 127.088 223.848 126.672 224.376L125.888 223.992C126.288 223.432 126.8 222.488 127.088 221.864ZM121.408 222.312L122.288 221.96C122.736 222.584 123.168 223.448 123.312 224.024L122.4 224.424C122.256 223.864 121.824 222.984 121.408 222.312ZM126.56 230.84H123.952C123.728 231.304 123.472 231.736 123.248 232.12C123.84 232.376 124.464 232.68 125.072 232.984C125.68 232.376 126.192 231.672 126.56 230.84ZM121.76 232.552C122.096 232.072 122.464 231.48 122.8 230.84H121.12V229.832H123.296C123.456 229.48 123.616 229.128 123.728 228.808L124.8 229L124.448 229.832H127.072L127.264 229.784L127.92 230.056C127.52 231.448 126.848 232.568 126 233.48C126.528 233.768 126.992 234.056 127.36 234.312L126.592 235.096C126.224 234.824 125.744 234.52 125.216 234.2C124.064 235.128 122.704 235.752 121.232 236.152C121.12 235.864 120.864 235.448 120.656 235.224C121.968 234.92 123.2 234.408 124.224 233.672C123.424 233.256 122.544 232.856 121.76 232.552ZM124.112 221.544H125.232V224.536H128.496V225.528H125.472C126.256 226.008 127.664 226.904 128.048 227.176L127.376 228.04C126.976 227.672 126 226.92 125.232 226.36V228.536H124.112V226.584C123.312 227.528 122.256 228.424 121.28 228.952C121.136 228.68 120.864 228.264 120.624 228.04C121.744 227.56 122.976 226.568 123.744 225.528H120.8V224.536H124.112V221.544ZM130.064 221.688L131.168 221.864C131.024 222.824 130.832 223.768 130.608 224.664H135.168V225.784H134.08C133.728 228.184 133.184 230.184 132.336 231.832C133.152 233.304 134.208 234.472 135.552 235.192C135.28 235.416 134.928 235.832 134.736 236.136C133.488 235.384 132.496 234.296 131.696 232.936C130.752 234.344 129.52 235.448 127.888 236.328C127.776 236.072 127.44 235.592 127.216 235.352C128.96 234.504 130.208 233.336 131.104 231.816C130.512 230.552 130.048 229.096 129.696 227.528C129.376 228.312 129.024 229.016 128.608 229.608C128.416 229.416 127.952 229.032 127.696 228.872C128.944 227.192 129.664 224.504 130.064 221.688ZM132.944 225.784H130.368C130.672 227.512 131.12 229.144 131.728 230.584C132.304 229.224 132.688 227.624 132.944 225.784ZM143.744 231.192H146.608V229.208H143.424C143.28 231.592 142.832 234.312 141.504 236.264C141.28 236.072 140.784 235.72 140.512 235.592C142.176 233.128 142.32 229.64 142.32 227.096V222.264H150.768V226.408H147.744V228.168H151.328V229.208H147.744V231.192H150.832V236.232H149.728V235.64H144.8V236.296H143.744V231.192ZM143.488 223.304V225.352H149.616V223.304H143.488ZM143.488 226.408V227.096L143.472 228.168H146.608V226.408H143.488ZM144.8 234.648H149.728V232.216H144.8V234.648ZM138.672 221.576H139.792V224.792H141.6V225.912H139.792V229.08L141.456 228.552L141.632 229.656L139.792 230.264V234.776C139.792 235.432 139.648 235.768 139.248 235.944C138.864 236.136 138.24 236.184 137.232 236.168C137.2 235.88 137.04 235.384 136.896 235.064C137.584 235.08 138.208 235.08 138.4 235.064C138.592 235.064 138.672 235 138.672 234.776V230.632L136.784 231.24L136.464 230.056C137.072 229.896 137.84 229.672 138.672 229.416V225.912H136.672V224.792H138.672V221.576Z" fill="#3C485C"/>
<defs>
<filter id="filter0_d_2175_17199" x="73.6311" y="74.7378" width="93.4512" height="121.556" filterUnits="userSpaceOnUse" color-interpolation-filters="sRGB">
<feFlood flood-opacity="0" result="BackgroundImageFix"/>
<feColorMatrix in="SourceAlpha" type="matrix" values="0 0 0 0 0 0 0 0 0 0 0 0 0 0 0 0 0 0 127 0" result="hardAlpha"/>
<feOffset/>
<feGaussianBlur stdDeviation="3"/>
<feComposite in2="hardAlpha" operator="out"/>
<feColorMatrix type="matrix" values="0 0 0 0 0 0 0 0 0 0 0 0 0 0 0 0 0 0 0.12 0"/>
<feBlend mode="normal" in2="BackgroundImageFix" result="effect1_dropShadow_2175_17199"/>
<feBlend mode="normal" in="SourceGraphic" in2="effect1_dropShadow_2175_17199" result="shape"/>
</filter>
<filter id="filter1_d_2175_17199" x="82.3424" y="67.4523" width="113.281" height="135.325" filterUnits="userSpaceOnUse" color-interpolation-filters="sRGB">
<feFlood flood-opacity="0" result="BackgroundImageFix"/>
<feColorMatrix in="SourceAlpha" type="matrix" values="0 0 0 0 0 0 0 0 0 0 0 0 0 0 0 0 0 0 127 0" result="hardAlpha"/>
<feOffset/>
<feGaussianBlur stdDeviation="3"/>
<feComposite in2="hardAlpha" operator="out"/>
<feColorMatrix type="matrix" values="0 0 0 0 0 0 0 0 0 0 0 0 0 0 0 0 0 0 0.12 0"/>
<feBlend mode="normal" in2="BackgroundImageFix" result="effect1_dropShadow_2175_17199"/>
<feBlend mode="normal" in="SourceGraphic" in2="effect1_dropShadow_2175_17199" result="shape"/>
</filter>
</defs>
</svg>
