<svg width="103" height="100" viewBox="0 0 103 100" fill="none" xmlns="http://www.w3.org/2000/svg">
<g filter="url(#filter0_ii_372_24730)">
<path d="M0.198532 30.0416C0.198532 46.4929 13.5349 59.8293 29.9862 59.8293C46.4375 59.8293 59.7739 46.4929 59.7739 30.0416C59.7739 13.5903 46.4375 0.253906 29.9862 0.253906C13.5349 0.253906 0.198532 13.5903 0.198532 30.0416Z" fill="url(#paint0_linear_372_24730)"/>
</g>
<g filter="url(#filter1_biii_372_24730)">
<path d="M18.0713 29.0188C18.0713 23.5519 22.4705 19.1201 27.8973 19.1201H92.6438C98.0705 19.1201 102.47 23.5519 102.47 29.0188V89.6482C102.47 95.1151 98.0705 99.5469 92.6437 99.5469H27.8973C22.4705 99.5469 18.0713 95.1151 18.0713 89.6482V29.0188Z" fill="#B6D5FF" fill-opacity="0.1"/>
</g>
<path d="M66.5856 43.9424C61.5739 43.9424 57.5107 45.4052 57.5107 47.2101V52.7056C57.5107 52.808 57.5274 52.9095 57.555 53.0096C57.997 54.6015 61.8702 55.8466 66.5856 55.8466C71.3011 55.8466 75.1743 54.6015 75.6163 53.0096C75.6439 52.9095 75.6606 52.808 75.6606 52.7056V47.2101C75.6606 45.4052 71.5976 43.9424 66.5856 43.9424ZM74.0417 47.6434C73.659 47.9267 73.0912 48.1992 72.3993 48.4317C70.8326 48.9584 68.7679 49.2485 66.5856 49.2485C64.4034 49.2485 62.3386 48.9584 60.772 48.4317C60.0801 48.1992 59.5123 47.9267 59.1296 47.6434C58.8346 47.4252 58.7351 47.2615 58.7186 47.2101C58.7351 47.1588 58.8346 46.9952 59.1296 46.7768C59.5123 46.4937 60.0801 46.2211 60.772 45.9885C62.3386 45.4617 64.4034 45.1716 66.5856 45.1716C68.7679 45.1716 70.8326 45.4617 72.3995 45.9885C73.0912 46.2211 73.659 46.4937 74.0417 46.7768C74.3366 46.9952 74.4362 47.1588 74.4527 47.2101C74.4362 47.2613 74.3366 47.4252 74.0417 47.6434ZM70.7227 56.1263C69.481 56.3559 68.0774 56.4883 66.5857 56.4883C65.0938 56.4883 63.6903 56.3559 62.4488 56.1263C59.5192 55.5846 57.5107 54.6922 57.5107 53.4245V55.5809C56.4189 55.4133 55.2172 55.3204 53.9554 55.3204C48.9436 55.3204 44.8804 56.7833 44.8804 58.5881V64.0838C44.8804 64.1863 44.8971 64.2875 44.9247 64.3876C45.3668 65.9796 49.2399 67.2248 53.9554 67.2248C55.2174 67.2248 56.4191 67.1355 57.5107 66.9744C57.6842 66.9487 57.8548 66.9214 58.0225 66.892C58.286 66.8463 58.5422 66.7962 58.7901 66.7419C61.1032 66.2367 62.7106 65.3795 62.986 64.3876C63.0136 64.2875 63.0303 64.1863 63.0303 64.0838V64.8197C63.0303 65.8431 61.7211 66.6218 59.675 67.1691C59.3752 67.2495 59.0596 67.3245 58.7299 67.3949C58.5226 67.4391 58.3102 67.4813 58.0924 67.5216C57.9023 67.5566 57.7081 67.5893 57.5107 67.6197C56.4185 67.7881 55.2189 67.8833 53.9554 67.8833C52.4635 67.8833 51.0599 67.7511 49.8185 67.5216C46.8889 66.9796 44.8804 66.0873 44.8804 64.8195V70.3152C44.8804 70.4177 44.8971 70.5189 44.9247 70.619C45.3668 72.211 49.2401 73.4562 53.9554 73.4562C55.7423 73.4562 57.4078 73.2773 58.812 72.9686C61.1132 72.4626 62.7115 71.6078 62.9862 70.619C63.0136 70.5189 63.0303 70.4177 63.0303 70.3152V71.0509C63.0303 72.0704 61.7319 72.8468 59.7005 73.3937C59.2052 73.527 58.6665 73.6469 58.0924 73.753C56.8507 73.9826 55.4471 74.1147 53.9554 74.1147C52.4637 74.1147 51.0601 73.9826 49.8185 73.753C46.8889 73.2111 44.8806 72.3187 44.8806 71.0509V76.5466C44.8806 76.6491 44.8973 76.7503 44.9249 76.8504C45.3668 78.4423 49.2401 79.6876 53.9554 79.6876C58.6709 79.6876 62.544 78.4423 62.9862 76.8504C63.0138 76.7503 63.0305 76.6491 63.0305 76.5466V74.2391C64.1222 74.4004 65.3238 74.4895 66.5859 74.4895C71.3013 74.4895 75.1745 73.2444 75.6165 71.6526C75.6441 71.5525 75.6608 71.4509 75.6608 71.3485V65.8531C75.6608 67.1208 73.6525 68.0132 70.7228 68.5551C69.4812 68.7847 68.0776 68.9169 66.5859 68.9169C65.3224 68.9169 64.1226 68.8216 63.0305 68.6533V68.0249C64.1222 68.186 65.3238 68.2753 66.5859 68.2753C71.3013 68.2753 75.1745 67.0303 75.6165 65.4383C75.6441 65.3381 75.6608 65.2368 75.6608 65.1343V59.6386C75.6608 60.9064 73.6525 61.799 70.7228 62.3408C69.4812 62.5703 68.0776 62.7024 66.5859 62.7024C65.3224 62.7024 64.1226 62.6072 63.0305 62.4389V61.8105C64.1222 61.9718 65.324 62.061 66.5859 62.061C71.3013 62.061 75.1745 60.8159 75.6167 59.224C75.6443 59.1239 75.661 59.0224 75.661 58.9199V53.4245C75.6606 54.6922 73.6523 55.5846 70.7227 56.1263ZM61.4112 59.0214C61.0285 59.3047 60.4607 59.5773 59.7691 59.8097C59.3188 59.9611 58.8272 60.0929 58.3036 60.2039C58.1127 60.2444 57.9173 60.2821 57.7183 60.3169C57.6496 60.329 57.5804 60.3408 57.5107 60.3521C56.4113 60.5316 55.2026 60.6266 53.9552 60.6266C51.7731 60.6266 49.7083 60.3365 48.1414 59.8097C47.4498 59.5773 46.8819 59.3045 46.4993 59.0214C46.2043 58.8032 46.1047 58.6394 46.0882 58.5881C46.1047 58.5367 46.2043 58.3731 46.4993 58.1549C46.8819 57.8716 47.4498 57.599 48.1414 57.3665C49.7083 56.8398 51.7731 56.5497 53.9552 56.5497C55.2026 56.5497 56.4113 56.6447 57.5107 56.8242C58.3349 56.9587 59.0978 57.1409 59.7691 57.3665C60.4607 57.599 61.0285 57.8716 61.4112 58.1547C61.7063 58.3731 61.8058 58.5367 61.8223 58.5881C61.8058 58.6395 61.7063 58.8032 61.4112 59.0214Z" fill="url(#paint1_linear_372_24730)"/>
<defs>
<filter id="filter0_ii_372_24730" x="0.198486" y="0.253906" width="59.5754" height="59.5752" filterUnits="userSpaceOnUse" color-interpolation-filters="sRGB">
<feFlood flood-opacity="0" result="BackgroundImageFix"/>
<feBlend mode="normal" in="SourceGraphic" in2="BackgroundImageFix" result="shape"/>
<feColorMatrix in="SourceAlpha" type="matrix" values="0 0 0 0 0 0 0 0 0 0 0 0 0 0 0 0 0 0 127 0" result="hardAlpha"/>
<feOffset dy="1"/>
<feComposite in2="hardAlpha" operator="arithmetic" k2="-1" k3="1"/>
<feColorMatrix type="matrix" values="0 0 0 0 1 0 0 0 0 1 0 0 0 0 1 0 0 0 0.4 0"/>
<feBlend mode="normal" in2="shape" result="effect1_innerShadow_372_24730"/>
<feColorMatrix in="SourceAlpha" type="matrix" values="0 0 0 0 0 0 0 0 0 0 0 0 0 0 0 0 0 0 127 0" result="hardAlpha"/>
<feOffset dx="1"/>
<feComposite in2="hardAlpha" operator="arithmetic" k2="-1" k3="1"/>
<feColorMatrix type="matrix" values="0 0 0 0 1 0 0 0 0 1 0 0 0 0 1 0 0 0 0.4 0"/>
<feBlend mode="normal" in2="effect1_innerShadow_372_24730" result="effect2_innerShadow_372_24730"/>
</filter>
<filter id="filter1_biii_372_24730" x="-11.9287" y="-10.8799" width="144.398" height="140.427" filterUnits="userSpaceOnUse" color-interpolation-filters="sRGB">
<feFlood flood-opacity="0" result="BackgroundImageFix"/>
<feGaussianBlur in="BackgroundImage" stdDeviation="15"/>
<feComposite in2="SourceAlpha" operator="in" result="effect1_backgroundBlur_372_24730"/>
<feBlend mode="normal" in="SourceGraphic" in2="effect1_backgroundBlur_372_24730" result="shape"/>
<feColorMatrix in="SourceAlpha" type="matrix" values="0 0 0 0 0 0 0 0 0 0 0 0 0 0 0 0 0 0 127 0" result="hardAlpha"/>
<feOffset dy="1"/>
<feComposite in2="hardAlpha" operator="arithmetic" k2="-1" k3="1"/>
<feColorMatrix type="matrix" values="0 0 0 0 1 0 0 0 0 1 0 0 0 0 1 0 0 0 0.4 0"/>
<feBlend mode="normal" in2="shape" result="effect2_innerShadow_372_24730"/>
<feColorMatrix in="SourceAlpha" type="matrix" values="0 0 0 0 0 0 0 0 0 0 0 0 0 0 0 0 0 0 127 0" result="hardAlpha"/>
<feOffset dx="1"/>
<feComposite in2="hardAlpha" operator="arithmetic" k2="-1" k3="1"/>
<feColorMatrix type="matrix" values="0 0 0 0 1 0 0 0 0 1 0 0 0 0 1 0 0 0 0.4 0"/>
<feBlend mode="normal" in2="effect2_innerShadow_372_24730" result="effect3_innerShadow_372_24730"/>
<feColorMatrix in="SourceAlpha" type="matrix" values="0 0 0 0 0 0 0 0 0 0 0 0 0 0 0 0 0 0 127 0" result="hardAlpha"/>
<feOffset dx="-1"/>
<feGaussianBlur stdDeviation="0.5"/>
<feComposite in2="hardAlpha" operator="arithmetic" k2="-1" k3="1"/>
<feColorMatrix type="matrix" values="0 0 0 0 1 0 0 0 0 1 0 0 0 0 1 0 0 0 0.25 0"/>
<feBlend mode="normal" in2="effect3_innerShadow_372_24730" result="effect4_innerShadow_372_24730"/>
</filter>
<linearGradient id="paint0_linear_372_24730" x1="0.198532" y1="0.253906" x2="59.7739" y2="59.8293" gradientUnits="userSpaceOnUse">
<stop offset="0.144803" stop-color="#4CB2FC"/>
<stop offset="0.841012" stop-color="#003CFF"/>
</linearGradient>
<linearGradient id="paint1_linear_372_24730" x1="75.661" y1="43.9424" x2="44.4267" y2="79.2867" gradientUnits="userSpaceOnUse">
<stop stop-color="#34FFD6"/>
<stop offset="1" stop-color="#0047FF"/>
</linearGradient>
</defs>
</svg>
