<svg width="520" height="497" viewBox="0 0 520 497" fill="none" xmlns="http://www.w3.org/2000/svg">
<path d="M260 0V94.6498L210.181 76.421L260 0Z" fill="url(#paint0_linear_321_13895)"/>
<path opacity="0.9" d="M260 110.545V167.738L171.714 135.431L201.818 89.2549L260 110.545Z" fill="url(#paint1_linear_321_13895)"/>
<path opacity="0.8" d="M260 185.775V242.832L132.193 196.066L162.224 149.999L260 185.775Z" fill="url(#paint2_linear_321_13895)"/>
<path opacity="0.7" d="M260 265.975V351.233L75.1458 283.586L120.015 214.749L260 265.975Z" fill="url(#paint3_linear_321_13895)"/>
<path opacity="0.6" d="M62.9681 302.269L260 374.366V497L0 398.862L62.9681 302.269Z" fill="url(#paint4_linear_321_13895)"/>
<path d="M260 0V94.6498L309.819 76.421L260 0Z" fill="url(#paint5_linear_321_13895)"/>
<path d="M318.191 89.2453L260.064 110.544L201.799 89.2453L223.167 81.1709L260 94.6495L296.842 81.1709L318.191 89.2453Z" fill="#0032BF"/>
<path opacity="0.9" d="M260 110.545V167.738L348.286 135.431L318.182 89.2549L260 110.545Z" fill="url(#paint6_linear_321_13895)"/>
<path opacity="0.85" d="M357.812 150.009L260.109 185.794L162.188 150.009L186.461 140.835L259.973 167.738L333.52 140.826L357.812 150.009Z" fill="#0032BF"/>
<path opacity="0.8" d="M260 185.775V242.832L387.807 196.066L357.776 149.999L260 185.775Z" fill="url(#paint7_linear_321_13895)"/>
<path opacity="0.7" d="M399.985 214.749L260.163 265.975L120.015 214.749L151.136 202.996L260 242.832L368.882 202.996L399.985 214.749Z" fill="#0032BF"/>
<path opacity="0.7" d="M260 265.975V351.233L444.854 283.586L399.985 214.749L260 265.975Z" fill="url(#paint8_linear_321_13895)"/>
<path opacity="0.6" d="M457.023 302.269L260.227 374.366L62.9681 302.269L94.0889 290.516L260 351.233L425.92 290.516L457.023 302.269Z" fill="#0032BF"/>
<path opacity="0.6" d="M457.032 302.269L260 374.366V497L520 398.862L457.032 302.269Z" fill="url(#paint9_linear_321_13895)"/>
<path d="M234.096 64.3218L230.663 73.7096L229.861 73.4163L232.929 65.0277C232.084 65.4639 231.166 65.65 230.176 65.586L230.474 64.7708C230.969 64.8028 231.475 64.7643 231.992 64.6552C232.503 64.5341 232.99 64.3445 233.452 64.0862L234.096 64.3218ZM238.765 75.9129C237.385 75.9645 235.938 75.8725 234.424 75.6369L234.579 74.8884C236.186 75.1681 237.665 75.2817 239.016 75.2292L238.765 75.9129ZM241.532 65.8636C240.176 67.3155 238.941 68.4093 237.827 69.1448C238.49 69.3174 239.24 69.4927 240.08 69.6705C240.191 69.5822 240.414 69.3952 240.747 69.1095C241.043 68.8701 241.279 68.6732 241.455 68.5188L241.995 68.9994C239.841 70.7856 238.2 71.9695 237.073 72.5511C238.163 72.7509 239.28 72.8761 240.424 72.9269L240.179 73.5975C238.634 73.4997 237.207 73.3005 235.895 72.9998L235.944 72.2571C236.085 72.2494 236.219 72.2237 236.344 72.1801C237.13 71.8515 238.162 71.1903 239.44 70.1968C238.202 69.913 237.347 69.7096 236.875 69.5868L236.945 68.8668C237.066 68.8615 237.199 68.8107 237.344 68.7145C238.583 67.8261 239.785 66.7004 240.949 65.3374L241.532 65.8636ZM244.054 67.9339L242.687 67.4338L242.937 66.7501L248.564 68.8083L248.401 69.2554C247.742 70.3761 247.137 71.3522 246.584 72.1836L248.293 72.8088L248.14 73.2295C247.201 74.9533 246.008 76.2712 244.562 77.1832C244.975 78.2285 245.548 79.2283 246.282 80.1826L245.619 80.6108C244.882 79.6358 244.317 78.614 243.922 77.5456C242.792 78.1359 241.54 78.5028 240.166 78.6462L239.994 77.8528C241.392 77.6984 242.617 77.3514 243.669 76.8119C243.19 75.2951 243.026 73.6797 243.176 71.9656C241.727 74.7849 240.007 76.7297 238.016 77.8001L237.645 77.1428C240.118 75.8412 242.155 73.0434 243.756 68.7491L244.054 67.9339ZM244.29 76.4578C245.536 75.6611 246.559 74.5746 247.361 73.1982L245.52 72.5249C246.053 71.7756 246.738 70.6748 247.578 69.2227L244.764 68.1936L244.466 69.0088C244.306 69.4471 244.135 69.8718 243.955 70.2829C243.535 72.4646 243.647 74.5229 244.29 76.4578Z" fill="white"/>
<path d="M214.938 125.941C215.788 126.252 216.395 126.752 216.759 127.441C217.135 128.126 217.174 128.875 216.875 129.69C216.581 130.497 216 131.119 215.134 131.558C214.709 131.77 213.877 132.032 212.64 132.345C210.977 132.761 209.939 133.305 209.523 133.978L214.638 135.849L214.369 136.585L208.268 134.353C208.563 133.547 209.147 132.916 210.019 132.46C210.565 132.163 211.42 131.864 212.583 131.564C213.577 131.291 214.259 131.069 214.631 130.897C215.353 130.525 215.831 130.019 216.065 129.379C216.293 128.757 216.276 128.204 216.016 127.721C215.764 127.241 215.313 126.883 214.665 126.646C213.981 126.396 213.359 126.426 212.797 126.738C212.21 127.04 211.756 127.629 211.435 128.506L210.62 128.208C211.005 127.156 211.597 126.433 212.397 126.04C213.17 125.637 214.017 125.604 214.938 125.941ZM220.079 137.913C218.698 137.965 217.251 137.873 215.737 137.637L215.892 136.888C217.499 137.168 218.978 137.282 220.329 137.229L220.079 137.913ZM222.845 127.864C221.489 129.316 220.254 130.409 219.14 131.145C219.803 131.317 220.553 131.493 221.393 131.67C221.505 131.582 221.727 131.395 222.06 131.11C222.356 130.87 222.592 130.673 222.768 130.519L223.308 130.999C221.154 132.786 219.513 133.969 218.386 134.551C219.476 134.751 220.593 134.876 221.737 134.927L221.492 135.597C219.947 135.5 218.52 135.3 217.209 135L217.257 134.257C217.399 134.249 217.532 134.224 217.657 134.18C218.443 133.851 219.475 133.19 220.753 132.197C219.515 131.913 218.66 131.71 218.189 131.587L218.258 130.867C218.379 130.861 218.512 130.811 218.657 130.714C219.896 129.826 221.098 128.7 222.262 127.337L222.845 127.864ZM225.367 129.934L224 129.434L224.25 128.75L229.877 130.808L229.714 131.255C229.055 132.376 228.45 133.352 227.897 134.184L229.606 134.809L229.453 135.23C228.514 136.953 227.321 138.271 225.875 139.183C226.288 140.229 226.861 141.228 227.595 142.183L226.932 142.611C226.195 141.636 225.63 140.614 225.235 139.546C224.105 140.136 222.853 140.503 221.479 140.646L221.307 139.853C222.705 139.698 223.93 139.351 224.982 138.812C224.503 137.295 224.339 135.68 224.489 133.966C223.04 136.785 221.32 138.73 219.329 139.8L218.958 139.143C221.431 137.841 223.468 135.043 225.069 130.749L225.367 129.934ZM225.604 138.458C226.849 137.661 227.872 136.575 228.674 135.198L226.833 134.525C227.366 133.776 228.052 132.675 228.891 131.223L226.077 130.194L225.779 131.009C225.619 131.447 225.448 131.872 225.268 132.283C224.848 134.465 224.96 136.523 225.604 138.458Z" fill="white"/>
<path d="M197.911 187.931C198.788 188.252 199.41 188.738 199.778 189.389C200.137 190.037 200.176 190.747 199.894 191.518C199.499 192.596 198.731 193.12 197.59 193.09C198.072 193.456 198.392 193.886 198.549 194.38C198.715 194.878 198.698 195.399 198.499 195.942C198.191 196.784 197.645 197.369 196.859 197.698C196.058 198.011 195.198 197.999 194.277 197.663C193.445 197.358 192.828 196.884 192.427 196.241C191.941 195.477 191.855 194.546 192.167 193.447L192.982 193.746C192.725 194.556 192.783 195.268 193.155 195.881C193.451 196.377 193.906 196.737 194.519 196.961C195.229 197.221 195.887 197.228 196.494 196.983C197.065 196.725 197.463 196.289 197.688 195.675C197.899 195.097 197.867 194.558 197.593 194.06C197.329 193.586 196.859 193.226 196.184 192.979L195.356 192.676L195.596 192.019L196.346 192.293C197.003 192.533 197.577 192.569 198.066 192.4C198.535 192.204 198.872 191.825 199.077 191.264C199.279 190.712 199.263 190.199 199.029 189.726C198.777 189.246 198.318 188.885 197.652 188.641C196.985 188.397 196.395 188.395 195.88 188.634C195.351 188.858 194.924 189.293 194.598 189.939L193.796 189.646C194.195 188.798 194.775 188.22 195.533 187.911C196.26 187.61 197.052 187.617 197.911 187.931ZM203.079 199.913C201.698 199.965 200.251 199.873 198.737 199.637L198.892 198.888C200.499 199.168 201.978 199.282 203.329 199.229L203.079 199.913ZM205.845 189.864C204.489 191.316 203.254 192.409 202.14 193.145C202.803 193.317 203.553 193.493 204.393 193.67C204.505 193.582 204.727 193.395 205.06 193.11C205.356 192.87 205.592 192.673 205.768 192.519L206.308 192.999C204.154 194.786 202.513 195.969 201.386 196.551C202.476 196.751 203.593 196.876 204.737 196.927L204.492 197.597C202.947 197.5 201.52 197.3 200.209 197L200.257 196.257C200.399 196.249 200.532 196.224 200.657 196.18C201.443 195.851 202.475 195.19 203.753 194.197C202.515 193.913 201.66 193.71 201.189 193.587L201.258 192.867C201.379 192.861 201.512 192.811 201.657 192.714C202.896 191.826 204.098 190.7 205.262 189.337L205.845 189.864ZM208.367 191.934L207 191.434L207.25 190.75L212.877 192.808L212.714 193.255C212.055 194.376 211.45 195.352 210.897 196.184L212.606 196.809L212.453 197.23C211.514 198.953 210.321 200.271 208.875 201.183C209.288 202.229 209.861 203.228 210.595 204.183L209.932 204.611C209.195 203.636 208.63 202.614 208.235 201.546C207.105 202.136 205.853 202.503 204.479 202.646L204.307 201.853C205.705 201.698 206.93 201.351 207.982 200.812C207.503 199.295 207.339 197.68 207.489 195.966C206.04 198.785 204.32 200.73 202.329 201.8L201.958 201.143C204.431 199.841 206.468 197.043 208.069 192.749L208.367 191.934ZM208.604 200.458C209.849 199.661 210.872 198.575 211.674 197.198L209.833 196.525C210.366 195.776 211.052 194.675 211.891 193.223L209.077 192.194L208.779 193.009C208.619 193.447 208.448 193.872 208.268 194.283C207.848 196.465 207.96 198.523 208.604 200.458Z" fill="white"/>
<path d="M176.675 277.533L177.451 277.817L175.065 284.339L176.656 284.92L176.411 285.591L174.82 285.009L174.017 287.205L173.241 286.921L174.044 284.725L169.206 282.956L169.49 282.18L176.675 277.533ZM176.236 278.61L170.174 282.55L174.29 284.055L176.276 278.625L176.236 278.61ZM180.766 288.913C179.385 288.965 177.938 288.873 176.424 288.637L176.579 287.888C178.186 288.168 179.665 288.282 181.016 288.229L180.766 288.913ZM183.532 278.864C182.176 280.316 180.941 281.409 179.827 282.145C180.49 282.317 181.24 282.493 182.08 282.67C182.192 282.582 182.414 282.395 182.747 282.11C183.043 281.87 183.279 281.673 183.455 281.519L183.995 281.999C181.841 283.786 180.2 284.969 179.073 285.551C180.163 285.751 181.28 285.876 182.424 285.927L182.179 286.597C180.634 286.5 179.207 286.3 177.896 286L177.944 285.257C178.086 285.249 178.219 285.224 178.344 285.18C179.13 284.851 180.162 284.19 181.44 283.197C180.202 282.913 179.347 282.71 178.876 282.587L178.945 281.867C179.066 281.861 179.199 281.811 179.344 281.714C180.583 280.826 181.785 279.7 182.949 278.337L183.532 278.864ZM186.054 280.934L184.687 280.434L184.937 279.75L190.564 281.808L190.401 282.255C189.742 283.376 189.137 284.352 188.584 285.184L190.294 285.809L190.14 286.23C189.201 287.953 188.008 289.271 186.562 290.183C186.975 291.229 187.548 292.228 188.282 293.183L187.619 293.611C186.882 292.636 186.317 291.614 185.923 290.546C184.792 291.136 183.54 291.503 182.166 291.646L181.994 290.853C183.392 290.698 184.617 290.351 185.669 289.812C185.19 288.295 185.026 286.68 185.176 284.966C183.727 287.785 182.007 289.73 180.016 290.8L179.645 290.143C182.118 288.841 184.155 286.043 185.756 281.749L186.054 280.934ZM186.291 289.458C187.536 288.661 188.559 287.575 189.361 286.198L187.52 285.525C188.053 284.776 188.739 283.675 189.578 282.223L186.764 281.194L186.466 282.009C186.306 282.447 186.135 282.872 185.955 283.283C185.535 285.465 185.647 287.523 186.291 289.458Z" fill="white"/>
<path d="M130.967 385.177L136.279 387.12L136.01 387.856L131.368 386.159L129.775 389.497L129.814 389.511C130.217 389.281 130.654 389.157 131.127 389.141C131.556 389.11 131.994 389.175 132.441 389.339C133.335 389.666 133.958 390.206 134.308 390.961C134.663 391.756 134.658 392.654 134.292 393.653C133.955 394.573 133.355 395.223 132.491 395.603C131.665 395.957 130.793 395.966 129.872 395.629C129.066 395.334 128.46 394.859 128.053 394.204C127.59 393.488 127.478 392.691 127.719 391.816L128.521 392.109C128.357 392.774 128.439 393.366 128.767 393.883C129.069 394.361 129.522 394.711 130.127 394.932C130.837 395.192 131.509 395.175 132.144 394.88C132.785 394.568 133.234 394.061 133.49 393.36C133.782 392.562 133.792 391.855 133.52 391.239C133.257 390.656 132.761 390.231 132.033 389.965C131.56 389.792 131.092 389.74 130.63 389.809C130.155 389.884 129.739 390.085 129.381 390.411L128.618 390.132L130.967 385.177ZM138.766 397.913C137.385 397.965 135.938 397.873 134.424 397.637L134.579 396.888C136.186 397.168 137.665 397.282 139.016 397.229L138.766 397.913ZM141.532 387.864C140.176 389.316 138.941 390.409 137.827 391.145C138.49 391.317 139.24 391.493 140.08 391.67C140.192 391.582 140.414 391.395 140.747 391.11C141.043 390.87 141.279 390.673 141.455 390.519L141.995 390.999C139.841 392.786 138.2 393.969 137.073 394.551C138.163 394.751 139.28 394.876 140.424 394.927L140.179 395.597C138.634 395.5 137.207 395.3 135.896 395L135.944 394.257C136.086 394.249 136.219 394.224 136.344 394.18C137.13 393.851 138.162 393.19 139.44 392.197C138.202 391.913 137.347 391.71 136.876 391.587L136.945 390.867C137.066 390.861 137.199 390.811 137.344 390.714C138.583 389.826 139.785 388.7 140.949 387.337L141.532 387.864ZM144.054 389.934L142.687 389.434L142.937 388.75L148.564 390.808L148.401 391.255C147.742 392.376 147.137 393.352 146.584 394.184L148.294 394.809L148.14 395.23C147.201 396.953 146.008 398.271 144.562 399.183C144.975 400.229 145.548 401.228 146.282 402.183L145.619 402.611C144.882 401.636 144.317 400.614 143.923 399.546C142.792 400.136 141.54 400.503 140.166 400.646L139.994 399.853C141.392 399.698 142.617 399.351 143.669 398.812C143.19 397.295 143.026 395.68 143.176 393.966C141.727 396.785 140.007 398.73 138.016 399.8L137.645 399.143C140.118 397.841 142.155 395.043 143.756 390.749L144.054 389.934ZM144.291 398.458C145.536 397.661 146.559 396.575 147.361 395.198L145.52 394.525C146.053 393.776 146.739 392.675 147.578 391.223L144.764 390.194L144.466 391.009C144.306 391.447 144.135 391.872 143.955 392.283C143.535 394.465 143.647 396.523 144.291 398.458Z" fill="white"/>
<path d="M269.135 69.0698C269.979 68.742 270.765 68.7171 271.494 68.9948C272.228 69.2605 272.752 69.7979 273.066 70.607C273.377 71.4074 273.352 72.2582 272.991 73.1593C272.811 73.5995 272.36 74.3454 271.637 75.3971C270.663 76.8068 270.242 77.9014 270.374 78.681L275.451 76.7096L275.735 77.4404L269.679 79.7919C269.369 78.9915 269.39 78.132 269.744 77.2135C269.958 76.6298 270.403 75.8414 271.079 74.8481C271.645 73.9872 272.011 73.3695 272.176 72.9951C272.473 72.2389 272.499 71.5433 272.252 70.9082C272.012 70.2904 271.635 69.8862 271.12 69.6956C270.614 69.5016 270.04 69.5296 269.396 69.7796C268.717 70.0431 268.27 70.4771 268.054 71.0816C267.812 71.6961 267.86 72.4385 268.198 73.3085L267.389 73.6227C266.983 72.5787 266.951 71.645 267.292 70.8217C267.607 70.0085 268.222 69.4245 269.135 69.0698ZM278.141 65.7829L278.911 65.4839L281.424 71.957L283.003 71.3437L283.262 72.0093L281.683 72.6225L282.529 74.802L281.759 75.101L280.913 72.9215L276.11 74.7865L275.811 74.0166L278.141 65.7829ZM278.522 66.8813L276.569 73.8422L280.654 72.256L278.561 66.8661L278.522 66.8813ZM291.566 66.8019C291.229 67.0931 290.933 67.3232 290.678 67.4923C291.142 68.0429 291.536 68.696 291.86 69.4515C292.248 70.452 292.387 71.2091 292.276 71.7228C292.146 72.264 291.541 72.744 290.462 73.163L290.006 73.3404L289.532 72.8182L290.133 72.5851C290.926 72.2569 291.384 71.9391 291.505 71.6318C291.627 71.224 291.519 70.5851 291.181 69.715C291.054 69.4139 290.915 69.1326 290.763 68.871C289.784 70.6031 288.194 72.3367 285.994 74.072L285.404 73.5955C287.753 71.782 289.398 69.9969 290.338 68.2402C290.097 67.9032 289.8 67.5779 289.448 67.264C288.587 68.7598 287.191 70.2432 285.259 71.7143L284.681 71.2327C286.695 69.7399 288.112 68.2836 288.932 66.8637C288.59 66.6262 288.272 66.4393 287.979 66.3029L287.642 66.6738C286.849 67.4926 285.834 68.362 284.6 69.282L283.993 68.8417C285.149 68.0526 286.144 67.2506 286.979 66.4358C287.455 65.9605 287.893 65.4648 288.294 64.9489L284.47 66.4338L284.211 65.7682L292.081 62.7123L292.339 63.3778L289.312 64.5536C289.006 65.0029 288.702 65.421 288.402 65.808C289.094 66.12 289.702 66.5248 290.225 67.0223C291.364 66.1897 292.353 65.1797 293.194 63.9922L293.859 64.2745C293.34 65.0267 292.74 65.7252 292.06 66.3701C293.355 67.8495 294.905 68.8245 296.71 69.2951L296.442 70.0749C294.507 69.4747 292.882 68.3837 291.566 66.8019ZM286.859 60.7902C287.192 61.1316 287.519 61.5101 287.841 61.9259L292.761 60.0153L293.592 62.1556L292.887 62.4292L292.314 60.9545L282.827 64.6389L283.399 66.1136L282.695 66.3873L281.864 64.247L287.149 62.1945C286.877 61.8798 286.556 61.5437 286.187 61.1864L286.859 60.7902Z" fill="white"/>
<path d="M284.087 131.654L290.103 129.318L290.362 129.983L290.198 140.004L289.324 140.344L289.557 130.386L284.376 132.398L284.087 131.654ZM294.96 127.221C295.804 126.894 296.591 126.869 297.319 127.146C298.053 127.412 298.577 127.949 298.891 128.759C299.202 129.559 299.177 130.41 298.816 131.311C298.637 131.751 298.185 132.497 297.462 133.549C296.488 134.958 296.067 136.053 296.2 136.833L301.276 134.861L301.56 135.592L295.505 137.944C295.194 137.143 295.215 136.284 295.57 135.365C295.784 134.781 296.228 133.993 296.904 133C297.471 132.139 297.837 131.521 298.002 131.147C298.299 130.391 298.324 129.695 298.077 129.06C297.837 128.442 297.46 128.038 296.945 127.847C296.44 127.653 295.865 127.681 295.221 127.931C294.542 128.195 294.095 128.629 293.879 129.233C293.637 129.848 293.685 130.59 294.023 131.46L293.214 131.774C292.809 130.73 292.776 129.797 293.117 128.973C293.432 128.16 294.047 127.576 294.96 127.221ZM309.566 127.992C309.229 128.284 308.933 128.514 308.678 128.683C309.142 129.233 309.536 129.886 309.86 130.642C310.248 131.642 310.387 132.4 310.276 132.913C310.146 133.454 309.541 133.934 308.462 134.353L308.006 134.531L307.532 134.009L308.133 133.776C308.926 133.447 309.384 133.13 309.505 132.822C309.627 132.414 309.519 131.775 309.181 130.905C309.054 130.604 308.915 130.323 308.763 130.061C307.784 131.793 306.194 133.527 303.994 135.262L303.404 134.786C305.753 132.972 307.398 131.187 308.338 129.431C308.097 129.094 307.8 128.768 307.448 128.454C306.587 129.95 305.191 131.434 303.259 132.905L302.681 132.423C304.695 130.93 306.112 129.474 306.932 128.054C306.59 127.817 306.272 127.63 305.979 127.493L305.642 127.864C304.849 128.683 303.834 129.552 302.6 130.472L301.993 130.032C303.149 129.243 304.144 128.441 304.979 127.626C305.455 127.151 305.893 126.655 306.294 126.139L302.47 127.624L302.211 126.959L310.081 123.903L310.339 124.568L307.312 125.744C307.006 126.193 306.702 126.611 306.402 126.998C307.094 127.31 307.702 127.715 308.225 128.213C309.364 127.38 310.353 126.37 311.194 125.183L311.859 125.465C311.34 126.217 310.74 126.916 310.06 127.56C311.355 129.04 312.905 130.015 314.71 130.486L314.442 131.265C312.507 130.665 310.882 129.574 309.566 127.992ZM304.859 121.981C305.192 122.322 305.519 122.701 305.841 123.116L310.761 121.206L311.592 123.346L310.887 123.62L310.314 122.145L300.827 125.829L301.399 127.304L300.695 127.578L299.864 125.437L305.149 123.385C304.877 123.07 304.556 122.734 304.187 122.377L304.859 121.981Z" fill="white"/>
<path d="M300.741 196.407L304.36 205.725L303.564 206.034L300.33 197.708C299.983 198.594 299.417 199.339 298.631 199.945L298.316 199.136C298.71 198.833 299.064 198.47 299.38 198.047C299.685 197.618 299.925 197.154 300.102 196.655L300.741 196.407ZM307.96 193.393C308.804 193.066 309.591 193.041 310.319 193.318C311.053 193.584 311.577 194.121 311.891 194.931C312.202 195.731 312.177 196.582 311.816 197.483C311.637 197.923 311.185 198.669 310.462 199.721C309.488 201.13 309.067 202.225 309.2 203.005L314.276 201.033L314.56 201.764L308.505 204.115C308.194 203.315 308.215 202.456 308.57 201.537C308.784 200.953 309.228 200.165 309.904 199.172C310.471 198.311 310.837 197.693 311.002 197.319C311.299 196.562 311.324 195.867 311.077 195.232C310.837 194.614 310.46 194.21 309.945 194.019C309.44 193.825 308.865 193.853 308.221 194.103C307.542 194.367 307.095 194.801 306.879 195.405C306.637 196.02 306.685 196.762 307.023 197.632L306.214 197.946C305.809 196.902 305.776 195.969 306.117 195.145C306.432 194.332 307.047 193.748 307.96 193.393ZM315.668 190.4C316.79 189.964 317.825 190.153 318.772 190.967C319.549 191.627 320.202 192.639 320.733 194.005C321.256 195.354 321.457 196.542 321.336 197.571C321.178 198.813 320.542 199.651 319.428 200.084C318.315 200.516 317.28 200.327 316.325 199.517C315.551 198.866 314.898 197.853 314.364 196.478C313.827 195.095 313.626 193.907 313.76 192.913C313.91 191.674 314.546 190.836 315.668 190.4ZM315.942 191.105C315.037 191.456 314.568 192.169 314.534 193.243C314.511 194.033 314.724 195.007 315.173 196.164C315.616 197.304 316.116 198.166 316.673 198.751C317.423 199.521 318.25 199.73 319.155 199.379C320.042 199.034 320.511 198.321 320.562 197.24C320.581 196.412 320.372 195.437 319.937 194.314C319.494 193.175 318.99 192.314 318.423 191.733C317.665 190.966 316.838 190.757 315.942 191.105ZM330.392 191.125C330.054 191.417 329.758 191.647 329.503 191.816C329.968 192.366 330.361 193.02 330.685 193.775C331.073 194.776 331.212 195.533 331.101 196.046C330.971 196.587 330.366 197.068 329.288 197.486L328.831 197.664L328.358 197.142L328.958 196.909C329.752 196.58 330.209 196.263 330.33 195.955C330.452 195.547 330.344 194.909 330.006 194.039C329.879 193.737 329.74 193.456 329.588 193.195C328.609 194.927 327.019 196.66 324.82 198.396L324.229 197.919C326.579 196.105 328.223 194.32 329.163 192.564C328.922 192.227 328.625 191.901 328.273 191.588C327.412 193.083 326.016 194.567 324.084 196.038L323.507 195.556C325.52 194.063 326.937 192.607 327.757 191.187C327.415 190.95 327.097 190.763 326.804 190.626L326.467 190.997C325.674 191.816 324.66 192.685 323.425 193.605L322.818 193.165C323.974 192.376 324.969 191.574 325.804 190.759C326.28 190.284 326.719 189.788 327.119 189.272L323.295 190.757L323.037 190.092L330.906 187.036L331.165 187.701L328.137 188.877C327.831 189.326 327.528 189.745 327.227 190.131C327.919 190.444 328.527 190.848 329.051 191.346C330.189 190.513 331.179 189.503 332.019 188.316L332.684 188.598C332.165 189.35 331.566 190.049 330.885 190.694C332.18 192.173 333.73 193.148 335.535 193.619L335.267 194.398C333.332 193.798 331.707 192.707 330.392 191.125ZM325.684 185.114C326.017 185.455 326.344 185.834 326.666 186.249L331.586 184.339L332.417 186.479L331.712 186.753L331.14 185.278L321.652 188.962L322.225 190.437L321.52 190.711L320.689 188.571L325.974 186.518C325.702 186.203 325.381 185.867 325.012 185.51L325.684 185.114Z" fill="white"/>
<path d="M327.135 286.328C327.979 286 328.765 285.975 329.494 286.253C330.228 286.518 330.752 287.056 331.066 287.865C331.377 288.665 331.352 289.516 330.991 290.417C330.811 290.857 330.36 291.603 329.637 292.655C328.663 294.065 328.242 295.159 328.374 295.939L333.451 293.967L333.735 294.698L327.679 297.05C327.369 296.249 327.39 295.39 327.744 294.471C327.958 293.888 328.403 293.099 329.079 292.106C329.645 291.245 330.011 290.627 330.176 290.253C330.473 289.497 330.499 288.801 330.252 288.166C330.012 287.548 329.635 287.144 329.12 286.953C328.614 286.759 328.04 286.787 327.396 287.037C326.717 287.301 326.27 287.735 326.054 288.339C325.812 288.954 325.86 289.696 326.198 290.566L325.389 290.881C324.983 289.836 324.951 288.903 325.292 288.079C325.607 287.266 326.222 286.682 327.135 286.328ZM336.141 283.041L336.911 282.742L339.424 289.215L341.003 288.602L341.262 289.267L339.683 289.88L340.529 292.06L339.759 292.359L338.913 290.179L334.11 292.044L333.811 291.274L336.141 283.041ZM336.522 284.139L334.569 291.1L338.654 289.514L336.561 284.124L336.522 284.139ZM342.668 280.296C343.79 279.86 344.825 280.049 345.772 280.863C346.549 281.522 347.202 282.535 347.733 283.901C348.256 285.249 348.457 286.438 348.336 287.466C348.178 288.709 347.542 289.547 346.428 289.979C345.315 290.412 344.28 290.223 343.325 289.412C342.551 288.761 341.898 287.749 341.364 286.374C340.827 284.991 340.626 283.802 340.76 282.809C340.91 281.569 341.546 280.731 342.668 280.296ZM342.942 281C342.037 281.352 341.568 282.065 341.534 283.139C341.511 283.929 341.724 284.903 342.173 286.06C342.616 287.199 343.116 288.062 343.673 288.646C344.423 289.416 345.25 289.626 346.155 289.274C347.042 288.93 347.511 288.217 347.562 287.136C347.581 286.308 347.372 285.332 346.937 284.21C346.494 283.07 345.99 282.21 345.423 281.629C344.665 280.862 343.838 280.652 342.942 281ZM357.392 281.021C357.054 281.312 356.758 281.542 356.503 281.711C356.968 282.262 357.361 282.915 357.685 283.671C358.073 284.671 358.212 285.428 358.101 285.942C357.971 286.483 357.366 286.963 356.288 287.382L355.831 287.559L355.358 287.037L355.958 286.804C356.752 286.476 357.209 286.158 357.33 285.851C357.452 285.443 357.344 284.804 357.006 283.934C356.879 283.633 356.74 283.352 356.588 283.09C355.609 284.822 354.019 286.556 351.82 288.291L351.229 287.815C353.579 286.001 355.223 284.216 356.163 282.459C355.922 282.122 355.625 281.797 355.273 281.483C354.412 282.979 353.016 284.462 351.084 285.933L350.507 285.452C352.52 283.959 353.937 282.503 354.757 281.083C354.415 280.845 354.097 280.658 353.804 280.522L353.467 280.893C352.674 281.712 351.66 282.581 350.425 283.501L349.818 283.061C350.974 282.272 351.969 281.47 352.804 280.655C353.28 280.179 353.719 279.684 354.119 279.168L350.295 280.653L350.037 279.987L357.906 276.931L358.165 277.597L355.137 278.773C354.831 279.222 354.528 279.64 354.227 280.027C354.919 280.339 355.527 280.744 356.051 281.241C357.189 280.409 358.179 279.399 359.019 278.211L359.684 278.494C359.165 279.246 358.566 279.944 357.885 280.589C359.18 282.068 360.73 283.043 362.535 283.514L362.267 284.294C360.332 283.694 358.707 282.603 357.392 281.021ZM352.684 275.009C353.017 275.351 353.344 275.729 353.666 276.145L358.586 274.234L359.417 276.375L358.712 276.648L358.14 275.174L348.652 278.858L349.225 280.333L348.52 280.606L347.689 278.466L352.974 276.414C352.702 276.099 352.381 275.763 352.012 275.405L352.684 275.009Z" fill="white"/>
<path d="M360.315 394.08L361.085 393.781L363.599 400.254L365.178 399.64L365.437 400.306L363.857 400.919L364.704 403.099L363.934 403.398L363.088 401.218L358.285 403.083L357.986 402.313L360.315 394.08ZM360.697 395.178L358.744 402.139L362.829 400.553L360.736 395.163L360.697 395.178ZM366.843 391.334C367.8 390.963 368.64 390.922 369.363 391.212C370.023 391.466 370.483 391.928 370.743 392.598C370.932 393.086 370.973 393.565 370.866 394.037C370.742 394.516 370.462 394.93 370.027 395.279L370.047 395.332C370.592 395.24 371.134 395.345 371.671 395.647C372.209 395.949 372.596 396.404 372.833 397.013C373.144 397.814 373.119 398.574 372.758 399.295C372.374 400.035 371.656 400.609 370.603 401.018C369.551 401.427 368.633 401.488 367.851 401.201C367.101 400.921 366.57 400.377 366.255 399.567C366.019 398.958 365.997 398.361 366.19 397.775C366.366 397.197 366.699 396.752 367.189 396.441L367.169 396.389C366.603 396.429 366.113 396.314 365.698 396.044C365.307 395.785 365.014 395.404 364.818 394.899C364.554 394.221 364.582 393.569 364.9 392.945C365.23 392.246 365.877 391.709 366.843 391.334ZM367.106 392.013C366.376 392.297 365.885 392.697 365.636 393.215C365.418 393.66 365.405 394.13 365.598 394.626C365.797 395.14 366.114 395.492 366.549 395.684C367.074 395.9 367.719 395.86 368.485 395.563C369.242 395.269 369.745 394.863 369.995 394.346C370.186 393.911 370.182 393.437 369.983 392.923C369.79 392.428 369.464 392.089 369.003 391.907C368.461 391.697 367.829 391.733 367.106 392.013ZM368.738 396.215C367.92 396.533 367.373 396.981 367.097 397.558C366.821 398.086 366.802 398.654 367.038 399.263C367.278 399.881 367.672 400.289 368.219 400.487C368.818 400.715 369.527 400.67 370.345 400.352C371.163 400.035 371.72 399.588 372.017 399.012C372.272 398.483 372.283 397.918 372.05 397.317C371.813 396.708 371.415 396.302 370.856 396.099C370.262 395.859 369.556 395.898 368.738 396.215ZM374.668 388.296C375.79 387.86 376.825 388.049 377.772 388.863C378.549 389.522 379.202 390.535 379.733 391.901C380.256 393.249 380.457 394.438 380.336 395.466C380.178 396.709 379.542 397.547 378.428 397.979C377.315 398.412 376.28 398.223 375.325 397.412C374.551 396.761 373.898 395.749 373.364 394.374C372.827 392.991 372.626 391.802 372.76 390.809C372.91 389.569 373.546 388.731 374.668 388.296ZM374.942 389C374.037 389.352 373.568 390.065 373.534 391.139C373.511 391.929 373.724 392.903 374.173 394.06C374.616 395.199 375.116 396.062 375.673 396.646C376.423 397.416 377.25 397.626 378.155 397.274C379.042 396.93 379.511 396.217 379.562 395.136C379.581 394.308 379.372 393.332 378.937 392.21C378.494 391.07 377.99 390.21 377.423 389.629C376.665 388.862 375.838 388.652 374.942 389ZM389.392 389.021C389.054 389.312 388.758 389.542 388.503 389.711C388.968 390.262 389.361 390.915 389.685 391.671C390.073 392.671 390.212 393.428 390.101 393.942C389.971 394.483 389.366 394.963 388.288 395.382L387.831 395.559L387.358 395.037L387.958 394.804C388.752 394.476 389.209 394.158 389.33 393.851C389.452 393.443 389.344 392.804 389.006 391.934C388.879 391.633 388.74 391.352 388.588 391.09C387.609 392.822 386.019 394.556 383.82 396.291L383.229 395.815C385.579 394.001 387.223 392.216 388.163 390.459C387.922 390.122 387.625 389.797 387.273 389.483C386.412 390.979 385.016 392.462 383.084 393.933L382.507 393.452C384.52 391.959 385.937 390.503 386.757 389.083C386.415 388.845 386.097 388.658 385.804 388.522L385.467 388.893C384.674 389.712 383.66 390.581 382.425 391.501L381.818 391.061C382.974 390.272 383.969 389.47 384.804 388.655C385.28 388.179 385.719 387.684 386.119 387.168L382.295 388.653L382.037 387.987L389.906 384.931L390.165 385.597L387.137 386.773C386.831 387.222 386.528 387.64 386.227 388.027C386.919 388.339 387.527 388.744 388.051 389.241C389.189 388.409 390.179 387.399 391.019 386.211L391.684 386.494C391.165 387.246 390.566 387.944 389.885 388.589C391.18 390.068 392.73 391.043 394.535 391.514L394.267 392.294C392.332 391.694 390.707 390.603 389.392 389.021ZM384.684 383.009C385.017 383.351 385.344 383.729 385.666 384.145L390.586 382.234L391.417 384.375L390.712 384.648L390.14 383.174L380.652 386.858L381.225 388.333L380.52 388.606L379.689 386.466L384.974 384.414C384.702 384.099 384.381 383.763 384.012 383.405L384.684 383.009Z" fill="white"/>
<defs>
<linearGradient id="paint0_linear_321_13895" x1="208.592" y1="47.1296" x2="297.142" y2="47.4656" gradientUnits="userSpaceOnUse">
<stop stop-color="#003CFF"/>
<stop offset="1" stop-color="#4CB2FC"/>
</linearGradient>
<linearGradient id="paint1_linear_321_13895" x1="171.714" y1="128.492" x2="260" y2="128.492" gradientUnits="userSpaceOnUse">
<stop stop-color="#003CFF"/>
<stop offset="1" stop-color="#4CB2FC"/>
</linearGradient>
<linearGradient id="paint2_linear_321_13895" x1="132.193" y1="196.411" x2="260" y2="196.411" gradientUnits="userSpaceOnUse">
<stop stop-color="#003CFF"/>
<stop offset="1" stop-color="#4CB2FC"/>
</linearGradient>
<linearGradient id="paint3_linear_321_13895" x1="75.1458" y1="282.987" x2="260" y2="282.987" gradientUnits="userSpaceOnUse">
<stop stop-color="#003CFF"/>
<stop offset="1" stop-color="#4CB2FC"/>
</linearGradient>
<linearGradient id="paint4_linear_321_13895" x1="0" y1="399.634" x2="260" y2="399.634" gradientUnits="userSpaceOnUse">
<stop stop-color="#003CFF"/>
<stop offset="1" stop-color="#4CB2FC"/>
</linearGradient>
<linearGradient id="paint5_linear_321_13895" x1="245.888" y1="52.1523" x2="297.852" y2="34.383" gradientUnits="userSpaceOnUse">
<stop stop-color="#003CFF"/>
<stop offset="1" stop-color="#4CB2FC"/>
</linearGradient>
<linearGradient id="paint6_linear_321_13895" x1="260" y1="128.492" x2="348.286" y2="128.492" gradientUnits="userSpaceOnUse">
<stop stop-color="#003CFF"/>
<stop offset="1" stop-color="#4CB2FC"/>
</linearGradient>
<linearGradient id="paint7_linear_321_13895" x1="260" y1="196.411" x2="387.807" y2="196.411" gradientUnits="userSpaceOnUse">
<stop stop-color="#003CFF"/>
<stop offset="1" stop-color="#4CB2FC"/>
</linearGradient>
<linearGradient id="paint8_linear_321_13895" x1="260" y1="282.987" x2="444.854" y2="282.987" gradientUnits="userSpaceOnUse">
<stop stop-color="#003CFF"/>
<stop offset="1" stop-color="#4CB2FC"/>
</linearGradient>
<linearGradient id="paint9_linear_321_13895" x1="260" y1="399.634" x2="520" y2="399.634" gradientUnits="userSpaceOnUse">
<stop stop-color="#003CFF"/>
<stop offset="1" stop-color="#4CB2FC"/>
</linearGradient>
</defs>
</svg>
