<svg width="103" height="101" viewBox="0 0 103 101" fill="none" xmlns="http://www.w3.org/2000/svg">
<g filter="url(#filter0_ii_372_24728)">
<path d="M102.348 30.7398C102.348 47.1911 88.7897 60.5275 72.0642 60.5275C55.3387 60.5275 41.78 47.1911 41.78 30.7398C41.78 14.2886 55.3387 0.952148 72.0642 0.952148C88.7897 0.952148 102.348 14.2886 102.348 30.7398Z" fill="url(#paint0_linear_372_24728)"/>
</g>
<g filter="url(#filter1_biii_372_24728)">
<path d="M0.0773926 30.6452C0.0773926 25.2137 4.45077 20.8105 9.84561 20.8105H73.7147C79.1096 20.8105 83.4829 25.2137 83.4829 30.6452V90.4097C83.4829 95.8413 79.1096 100.244 73.7147 100.244H9.84562C4.45078 100.244 0.0773926 95.8413 0.0773926 90.4097V30.6452Z" fill="#B6D5FF" fill-opacity="0.1"/>
</g>
<path fill-rule="evenodd" clip-rule="evenodd" d="M37.5412 47.7531H47.0119C47.6903 47.7511 48.3404 47.4818 48.8199 47.0039C49.2995 46.5261 49.5696 45.8787 49.5711 45.2033V45.1402C49.5711 44.4811 49.3081 43.8491 48.8401 43.3831C48.372 42.9171 47.7372 42.6553 47.0752 42.6553H37.5412C36.8792 42.6553 36.2444 42.9171 35.7763 43.3831C35.3083 43.8491 35.0453 44.4811 35.0453 45.1402V45.2682C35.0453 45.9273 35.3083 46.5593 35.7763 47.0253C36.2444 47.4913 36.8792 47.7531 37.5412 47.7531ZM42.3332 58.0023H42.2756C41.5328 57.9986 40.7966 58.1405 40.1089 58.42C39.4213 58.6995 38.7956 59.1111 38.2678 59.6314C37.7399 60.1516 37.3201 60.7703 37.0324 61.452C36.7446 62.1338 36.5946 62.8653 36.5908 63.6048V63.6622C36.5837 65.1557 37.1723 66.5909 38.2275 67.6525C39.2826 68.7142 40.7179 69.3153 42.218 69.3239H42.2756C43.0185 69.3277 43.7549 69.1857 44.4427 68.9061C45.1304 68.6264 45.7562 68.2146 46.2841 67.6942C46.812 67.1738 47.2317 66.5549 47.5193 65.8729C47.807 65.1909 47.9568 64.4592 47.9603 63.7195C47.9622 63.7004 47.9622 63.6812 47.9603 63.6622C47.9644 62.9226 47.822 62.1895 47.5413 61.5047C47.2607 60.82 46.8473 60.197 46.3247 59.6714C45.8021 59.1457 45.1806 58.7278 44.4957 58.4414C43.8108 58.155 43.076 58.0058 42.3332 58.0023ZM41.7284 60.2158C41.7914 60.139 41.8708 60.077 41.9607 60.0344C42.0507 59.9917 42.1491 59.9695 42.2487 59.9692C42.3691 59.9552 42.491 59.9756 42.6002 60.028C42.7093 60.0805 42.8012 60.1629 42.865 60.2655C42.9858 60.444 43.0389 60.6595 43.0147 60.8733C43.0147 60.925 42.9802 61.2556 42.9648 61.3474L42.7728 63.859C42.7773 64.0969 42.7261 64.3325 42.6231 64.5472C42.5934 64.6262 42.5384 64.6932 42.4665 64.7378C42.3946 64.7824 42.3099 64.802 42.2257 64.7938C42.1497 64.7915 42.0762 64.7668 42.0143 64.7229C41.9525 64.6791 41.9051 64.6179 41.8782 64.5472C41.7819 64.3303 41.7309 64.0962 41.7284 63.859L41.5921 61.3971C41.5598 61.2179 41.5437 61.0363 41.5441 60.8542C41.5329 60.627 41.5977 60.4025 41.7284 60.2158ZM42.8227 67.1582C42.6881 67.2836 42.5098 67.3521 42.3255 67.3494C42.2261 67.3554 42.1265 67.3417 42.0325 67.3088C41.9385 67.276 41.8521 67.2248 41.7783 67.1582C41.6997 67.0815 41.6373 66.9899 41.5948 66.8888C41.5522 66.7877 41.5304 66.6791 41.5307 66.5695C41.5245 66.4708 41.5383 66.3719 41.5713 66.2787C41.6043 66.1854 41.6558 66.0997 41.7227 66.0266C41.8657 65.8762 42.0619 65.787 42.2698 65.7782C42.4777 65.7855 42.6742 65.8741 42.817 66.0247C42.8837 66.0983 42.9351 66.1843 42.9681 66.2779C43.0011 66.3714 43.0149 66.4705 43.009 66.5695C43.0233 66.7821 42.9568 66.9922 42.8227 67.1582ZM51.6196 45.7776H56.2907C56.9092 45.773 57.5046 46.0111 57.948 46.4404C58.3915 46.8697 58.6472 47.4557 58.6598 48.0714V76.0437C58.6603 76.3535 58.5993 76.6603 58.4804 76.9466C58.3615 77.2329 58.187 77.493 57.9669 77.712C57.7468 77.931 57.4854 78.1045 57.1977 78.2227C56.9101 78.3408 56.6018 78.4013 56.2907 78.4005H28.2605C27.9494 78.4013 27.6413 78.3408 27.3537 78.2226C27.0662 78.1045 26.8049 77.9309 26.585 77.7119C26.365 77.4929 26.1907 77.2328 26.072 76.9465C25.9533 76.6602 25.8926 76.3534 25.8933 76.0437V48.1364C25.8926 47.8266 25.9533 47.5196 26.0719 47.2333C26.1906 46.9469 26.3649 46.6866 26.5848 46.4675C26.8048 46.2483 27.066 46.0746 27.3536 45.9562C27.6411 45.8378 27.9494 45.7771 28.2605 45.7776H32.8682V47.4979C32.8675 47.8079 32.9282 48.115 33.047 48.4015C33.1658 48.688 33.3403 48.9483 33.5604 49.1675C33.7806 49.3867 34.042 49.5604 34.3298 49.6787C34.6176 49.7969 34.926 49.8574 35.2373 49.8567H49.2524C49.5636 49.8572 49.8718 49.7965 50.1593 49.6781C50.4469 49.5597 50.7081 49.386 50.9281 49.1668C51.148 48.9477 51.3223 48.6874 51.441 48.401C51.5597 48.1146 51.6204 47.8077 51.6196 47.4979V45.7776ZM38.5616 69.2048C39.6609 69.9361 40.9534 70.3265 42.2756 70.3265C43.1535 70.3267 44.0229 70.1548 44.8341 69.8204C45.6453 69.486 46.3824 68.9957 47.0032 68.3776C47.624 67.7596 48.1164 67.0257 48.4522 66.2181C48.7881 65.4105 48.9608 64.5449 48.9606 63.6708C48.9606 62.3544 48.5685 61.0676 47.834 59.9731C47.0994 58.8786 46.0553 58.0255 44.8338 57.5217C43.6123 57.018 42.2682 56.8862 40.9714 57.143C39.6746 57.3998 38.4835 58.0337 37.5486 58.9645C36.6137 59.8953 35.977 61.0813 35.719 62.3723C35.4611 63.6634 35.5935 65.0017 36.0995 66.2178C36.6054 67.434 37.4623 68.4735 38.5616 69.2048Z" fill="url(#paint1_linear_372_24728)"/>
<defs>
<filter id="filter0_ii_372_24728" x="41.78" y="0.952148" width="60.5683" height="59.5752" filterUnits="userSpaceOnUse" color-interpolation-filters="sRGB">
<feFlood flood-opacity="0" result="BackgroundImageFix"/>
<feBlend mode="normal" in="SourceGraphic" in2="BackgroundImageFix" result="shape"/>
<feColorMatrix in="SourceAlpha" type="matrix" values="0 0 0 0 0 0 0 0 0 0 0 0 0 0 0 0 0 0 127 0" result="hardAlpha"/>
<feOffset dy="1"/>
<feComposite in2="hardAlpha" operator="arithmetic" k2="-1" k3="1"/>
<feColorMatrix type="matrix" values="0 0 0 0 1 0 0 0 0 1 0 0 0 0 1 0 0 0 0.4 0"/>
<feBlend mode="normal" in2="shape" result="effect1_innerShadow_372_24728"/>
<feColorMatrix in="SourceAlpha" type="matrix" values="0 0 0 0 0 0 0 0 0 0 0 0 0 0 0 0 0 0 127 0" result="hardAlpha"/>
<feOffset dx="1"/>
<feComposite in2="hardAlpha" operator="arithmetic" k2="-1" k3="1"/>
<feColorMatrix type="matrix" values="0 0 0 0 1 0 0 0 0 1 0 0 0 0 1 0 0 0 0.4 0"/>
<feBlend mode="normal" in2="effect1_innerShadow_372_24728" result="effect2_innerShadow_372_24728"/>
</filter>
<filter id="filter1_biii_372_24728" x="-29.9226" y="-9.18945" width="143.406" height="139.434" filterUnits="userSpaceOnUse" color-interpolation-filters="sRGB">
<feFlood flood-opacity="0" result="BackgroundImageFix"/>
<feGaussianBlur in="BackgroundImage" stdDeviation="15"/>
<feComposite in2="SourceAlpha" operator="in" result="effect1_backgroundBlur_372_24728"/>
<feBlend mode="normal" in="SourceGraphic" in2="effect1_backgroundBlur_372_24728" result="shape"/>
<feColorMatrix in="SourceAlpha" type="matrix" values="0 0 0 0 0 0 0 0 0 0 0 0 0 0 0 0 0 0 127 0" result="hardAlpha"/>
<feOffset dy="1"/>
<feComposite in2="hardAlpha" operator="arithmetic" k2="-1" k3="1"/>
<feColorMatrix type="matrix" values="0 0 0 0 1 0 0 0 0 1 0 0 0 0 1 0 0 0 0.4 0"/>
<feBlend mode="normal" in2="shape" result="effect2_innerShadow_372_24728"/>
<feColorMatrix in="SourceAlpha" type="matrix" values="0 0 0 0 0 0 0 0 0 0 0 0 0 0 0 0 0 0 127 0" result="hardAlpha"/>
<feOffset dx="1"/>
<feComposite in2="hardAlpha" operator="arithmetic" k2="-1" k3="1"/>
<feColorMatrix type="matrix" values="0 0 0 0 1 0 0 0 0 1 0 0 0 0 1 0 0 0 0.4 0"/>
<feBlend mode="normal" in2="effect2_innerShadow_372_24728" result="effect3_innerShadow_372_24728"/>
<feColorMatrix in="SourceAlpha" type="matrix" values="0 0 0 0 0 0 0 0 0 0 0 0 0 0 0 0 0 0 127 0" result="hardAlpha"/>
<feOffset dx="-1"/>
<feGaussianBlur stdDeviation="0.5"/>
<feComposite in2="hardAlpha" operator="arithmetic" k2="-1" k3="1"/>
<feColorMatrix type="matrix" values="0 0 0 0 1 0 0 0 0 1 0 0 0 0 1 0 0 0 0.25 0"/>
<feBlend mode="normal" in2="effect3_innerShadow_372_24728" result="effect4_innerShadow_372_24728"/>
</filter>
<linearGradient id="paint0_linear_372_24728" x1="102.348" y1="0.952148" x2="42.7811" y2="61.5122" gradientUnits="userSpaceOnUse">
<stop offset="0.144803" stop-color="#4CB2FC"/>
<stop offset="0.841012" stop-color="#003CFF"/>
</linearGradient>
<linearGradient id="paint1_linear_372_24728" x1="58.7395" y1="42.6553" x2="26.0503" y2="78.5426" gradientUnits="userSpaceOnUse">
<stop stop-color="#34FFD6"/>
<stop offset="1" stop-color="#0047FF"/>
</linearGradient>
</defs>
</svg>
