<svg width="103" height="101" viewBox="0 0 103 101" fill="none" xmlns="http://www.w3.org/2000/svg">
<g filter="url(#filter0_ii_372_24725)">
<path d="M102.348 31.1289C102.348 47.8544 88.7897 61.413 72.0642 61.413C55.3387 61.413 41.78 47.8544 41.78 31.1289C41.78 14.4034 55.3387 0.844727 72.0642 0.844727C88.7897 0.844727 102.348 14.4034 102.348 31.1289Z" fill="url(#paint0_linear_372_24725)"/>
</g>
<g filter="url(#filter1_biii_372_24725)">
<path d="M0.0773926 25.5914C0.0773926 22.8917 2.27398 20.7031 4.9836 20.7031H78.5767C81.2864 20.7031 83.4829 22.8917 83.4829 25.5914V95.2487C83.4829 97.9484 81.2864 100.137 78.5767 100.137H4.9836C2.27398 100.137 0.0773926 97.9484 0.0773926 95.2487V25.5914Z" fill="#B6D5FF" fill-opacity="0.1"/>
</g>
<path d="M67.5222 65.3319C67.2921 64.4336 66.3775 63.6468 65.3465 63.4238C64.3168 63.3111 63.4008 63.5353 62.5998 63.8723C62.0261 64.0979 61.4538 64.4336 60.8814 64.6578C61.1114 63.5353 60.4241 62.7498 59.3931 62.5255C58.477 62.3 57.4474 62.4128 56.5314 62.7498C55.844 62.9754 55.273 63.3111 54.6993 63.8723L54.4693 63.5353C53.5547 62.4128 52.295 62.0757 50.9216 62.5255C50.1193 62.7498 49.4333 63.0868 48.7459 63.5353C47.3726 64.2094 46.1129 64.9949 44.8532 65.7817L44.2809 66.1174V66.2302C44.6246 66.2302 44.9682 66.343 45.3119 66.343C46.3416 66.343 47.3726 66.343 48.2886 66.4544C49.2033 66.4544 50.1193 66.5672 51.0353 66.9043C51.9513 67.1285 52.6386 67.577 53.096 68.4753C53.4397 69.0366 53.4397 69.5992 53.5547 70.1604C53.6697 71.3944 53.211 72.4055 52.18 73.0796C50.9216 73.9779 49.4333 74.3136 47.9449 74.3136H39.4722C38.6712 74.3136 37.8701 74.2021 37.1828 73.8651C35.4644 73.3038 34.0911 72.2927 32.7177 71.0587L32.3741 70.7217C33.0614 70.9459 33.6324 71.1702 34.3198 71.283C36.3818 71.9557 38.4425 72.2927 40.6168 72.2927H47.4862C48.0586 72.2927 48.5173 72.2927 49.0896 72.1813C49.7749 72.0759 50.4345 71.8474 51.0353 71.5072C51.6076 71.0587 51.7226 70.4961 51.6076 69.9349C51.494 69.3736 51.1503 69.0366 50.578 68.8123C50.3479 68.7009 50.0056 68.5881 49.777 68.5881C48.4023 68.4753 47.0289 68.4753 45.5406 68.3625H44.3959C43.0212 68.251 41.7629 67.914 40.5032 67.4655C39.3585 67.0157 38.3275 66.5672 37.2965 65.8932C35.4658 64.5464 33.6338 63.3111 31.6867 62.1885C30.3134 61.403 28.94 61.066 27.3367 61.1774C26.192 61.2902 25.0473 61.5145 24.0163 61.9643C21.3833 63.0868 18.7502 64.2094 16.0022 65.3319C15.6585 65.4447 15.3149 65.6689 14.9712 65.7817L20.8109 78.2438C20.9259 78.131 21.041 78.131 21.1546 78.0182C22.1843 77.3455 23.2153 76.6715 24.245 76.1102C25.0473 75.6617 25.9633 75.3247 26.993 75.6617C27.5653 75.8859 28.1377 76.1102 28.5964 76.3358C31.3431 77.6825 34.0911 79.1421 36.9541 80.4889C37.9838 80.9387 38.8998 81.3872 39.9308 81.837C40.9605 82.174 41.9915 82.3983 43.0212 82.174C44.0522 82.0613 45.0819 81.6115 45.9979 81.0502C52.5236 77.2327 58.8207 73.0796 65.1178 68.9251C65.8455 68.4573 66.5011 67.8899 67.0648 67.24C67.4072 66.5672 67.7508 66.1174 67.5222 65.3319V65.3319ZM42.3352 61.6272C45.9979 61.6272 48.9746 58.7081 48.9746 55.1149C48.9746 51.5217 45.9979 48.6025 42.3352 48.4911C38.6712 48.4911 35.6945 51.4102 35.5794 55.0034C35.6945 58.5953 38.6712 61.6272 42.3352 61.6272ZM46.4566 46.4689C48.1736 47.1416 49.6619 48.377 50.6916 49.8365C50.8066 49.9493 50.9216 50.0621 51.1503 50.0621C53.6683 49.9493 55.7304 47.8157 55.7304 45.2336C55.7304 45.008 55.7304 44.7851 55.6153 44.5595C55.2717 41.9774 52.7537 40.1808 50.0056 40.6306C47.3726 41.0791 45.6542 43.437 46.1129 46.0191C46.2266 46.2447 46.2266 46.3561 46.4566 46.4689V46.4689Z" fill="url(#paint1_linear_372_24725)"/>
<defs>
<filter id="filter0_ii_372_24725" x="41.78" y="0.844727" width="60.5683" height="60.5684" filterUnits="userSpaceOnUse" color-interpolation-filters="sRGB">
<feFlood flood-opacity="0" result="BackgroundImageFix"/>
<feBlend mode="normal" in="SourceGraphic" in2="BackgroundImageFix" result="shape"/>
<feColorMatrix in="SourceAlpha" type="matrix" values="0 0 0 0 0 0 0 0 0 0 0 0 0 0 0 0 0 0 127 0" result="hardAlpha"/>
<feOffset dy="1"/>
<feComposite in2="hardAlpha" operator="arithmetic" k2="-1" k3="1"/>
<feColorMatrix type="matrix" values="0 0 0 0 1 0 0 0 0 1 0 0 0 0 1 0 0 0 0.4 0"/>
<feBlend mode="normal" in2="shape" result="effect1_innerShadow_372_24725"/>
<feColorMatrix in="SourceAlpha" type="matrix" values="0 0 0 0 0 0 0 0 0 0 0 0 0 0 0 0 0 0 127 0" result="hardAlpha"/>
<feOffset dx="1"/>
<feComposite in2="hardAlpha" operator="arithmetic" k2="-1" k3="1"/>
<feColorMatrix type="matrix" values="0 0 0 0 1 0 0 0 0 1 0 0 0 0 1 0 0 0 0.4 0"/>
<feBlend mode="normal" in2="effect1_innerShadow_372_24725" result="effect2_innerShadow_372_24725"/>
</filter>
<filter id="filter1_biii_372_24725" x="-29.9226" y="-9.29688" width="143.406" height="139.434" filterUnits="userSpaceOnUse" color-interpolation-filters="sRGB">
<feFlood flood-opacity="0" result="BackgroundImageFix"/>
<feGaussianBlur in="BackgroundImage" stdDeviation="15"/>
<feComposite in2="SourceAlpha" operator="in" result="effect1_backgroundBlur_372_24725"/>
<feBlend mode="normal" in="SourceGraphic" in2="effect1_backgroundBlur_372_24725" result="shape"/>
<feColorMatrix in="SourceAlpha" type="matrix" values="0 0 0 0 0 0 0 0 0 0 0 0 0 0 0 0 0 0 127 0" result="hardAlpha"/>
<feOffset dy="1"/>
<feComposite in2="hardAlpha" operator="arithmetic" k2="-1" k3="1"/>
<feColorMatrix type="matrix" values="0 0 0 0 1 0 0 0 0 1 0 0 0 0 1 0 0 0 0.4 0"/>
<feBlend mode="normal" in2="shape" result="effect2_innerShadow_372_24725"/>
<feColorMatrix in="SourceAlpha" type="matrix" values="0 0 0 0 0 0 0 0 0 0 0 0 0 0 0 0 0 0 127 0" result="hardAlpha"/>
<feOffset dx="1"/>
<feComposite in2="hardAlpha" operator="arithmetic" k2="-1" k3="1"/>
<feColorMatrix type="matrix" values="0 0 0 0 1 0 0 0 0 1 0 0 0 0 1 0 0 0 0.4 0"/>
<feBlend mode="normal" in2="effect2_innerShadow_372_24725" result="effect3_innerShadow_372_24725"/>
<feColorMatrix in="SourceAlpha" type="matrix" values="0 0 0 0 0 0 0 0 0 0 0 0 0 0 0 0 0 0 127 0" result="hardAlpha"/>
<feOffset dx="-0.5"/>
<feGaussianBlur stdDeviation="0.5"/>
<feComposite in2="hardAlpha" operator="arithmetic" k2="-1" k3="1"/>
<feColorMatrix type="matrix" values="0 0 0 0 1 0 0 0 0 1 0 0 0 0 1 0 0 0 0.25 0"/>
<feBlend mode="normal" in2="effect3_innerShadow_372_24725" result="effect4_innerShadow_372_24725"/>
</filter>
<linearGradient id="paint0_linear_372_24725" x1="102.348" y1="0.844727" x2="41.78" y2="61.413" gradientUnits="userSpaceOnUse">
<stop offset="0.144803" stop-color="#4CB2FC"/>
<stop offset="0.841012" stop-color="#003CFF"/>
</linearGradient>
<linearGradient id="paint1_linear_372_24725" x1="69.1141" y1="36.5898" x2="15.8503" y2="83.2675" gradientUnits="userSpaceOnUse">
<stop offset="0.124017" stop-color="#34FFD6"/>
<stop offset="1" stop-color="#0047FF"/>
</linearGradient>
</defs>
</svg>
