<svg width="109" height="101" viewBox="0 0 109 101" fill="none" xmlns="http://www.w3.org/2000/svg">
<g filter="url(#filter0_ii_372_24729)">
<path d="M0.708048 30.7398C0.708048 47.1911 14.2667 60.5275 30.9922 60.5275C47.7177 60.5275 61.2764 47.1911 61.2764 30.7398C61.2764 14.2886 47.7177 0.952148 30.9922 0.952148C14.2667 0.952148 0.708048 14.2886 0.708048 30.7398Z" fill="url(#paint0_linear_372_24729)"/>
</g>
<g filter="url(#filter1_biii_372_24729)">
<path d="M24.5383 24.7667C24.5383 22.0333 26.7289 19.8174 29.431 19.8174H104.044C106.746 19.8174 108.937 22.0333 108.937 24.7667V95.2948C108.937 98.0283 106.746 100.244 104.044 100.244H29.431C26.7288 100.244 24.5383 98.0283 24.5383 95.2948V24.7667Z" fill="#B6D5FF" fill-opacity="0.1"/>
</g>
<path d="M72.1341 59.1173C66.6132 59.1173 62.1393 63.5779 62.1393 69.0804C62.1393 74.5825 66.6145 79.0431 72.1341 79.0431C77.6532 79.0431 82.1278 74.5825 82.1278 69.0804C82.1278 63.5779 77.6532 59.1173 72.1341 59.1173ZM74.3644 67.7332C74.5319 67.7639 74.6924 67.7796 74.8337 67.7796H76.352C76.4964 67.7796 76.6229 67.834 76.7281 67.9594C76.8347 68.0804 76.8861 68.1962 76.8861 68.3175V69.4054C76.8861 69.6217 76.7332 69.7219 76.4418 69.7219H73.8097C73.6935 69.7219 73.5824 69.7526 73.4739 69.8173C73.3687 69.8735 73.3218 69.9682 73.3218 70.0844C73.3218 70.2108 73.3244 70.3318 73.3398 70.4674C73.3552 70.6044 73.361 70.7203 73.361 70.8047C73.361 70.9852 73.5176 71.0495 73.8098 70.9852H76.4002C76.6974 70.9852 76.8444 71.1212 76.8444 71.3964V72.397C76.8444 72.6933 76.6281 72.845 76.2146 72.845H75.6343C75.4019 72.845 75.1618 72.8552 74.9037 72.8655C74.6559 72.8863 74.4184 72.8911 74.2117 72.8911H73.8098C73.5491 72.8911 73.4124 73.0434 73.4124 73.349V74.8462V75.1579C73.4124 75.3147 73.2911 75.3893 73.0536 75.3893H71.6238C71.2392 75.3893 71.046 75.2244 71.046 74.8929C71.046 74.7665 71.0569 74.5121 71.0697 74.1153C71.0897 73.725 71.0794 73.4546 71.0479 73.3026C71.0479 73.1535 71.0306 73.0533 71.0017 73.0069C70.976 72.9634 70.8906 72.9423 70.7359 72.9423H68.0601C67.6737 72.9423 67.4798 72.7471 67.4798 72.351C67.4798 72.2658 67.4714 72.1503 67.4381 72.0089C67.4066 71.8777 67.4066 71.7385 67.4381 71.5817C67.4715 71.4326 67.5157 71.2963 67.5729 71.1702C67.6345 71.0544 67.7507 71.0083 67.926 71.039H68.4602H69.3532H70.241H70.6897H70.9118C70.9734 71.039 70.9991 70.9645 70.9991 70.8073V69.9485C70.9991 69.7961 70.8213 69.7219 70.4701 69.7219H67.8849C67.7635 69.7219 67.6628 69.7165 67.5729 69.7037C67.4798 69.6887 67.438 69.6036 67.438 69.4567V68.9038C67.438 68.667 67.4233 68.4868 67.3937 68.3611C67.3328 68.1809 67.3789 68.0292 67.5234 67.9137C67.6736 67.787 67.8688 67.7332 68.1037 67.7332C68.3438 67.764 68.6045 67.7698 68.8908 67.7541C69.1694 67.7381 69.3889 67.7332 69.536 67.7332H70.065C70.2435 67.7332 70.3051 67.6689 70.2435 67.5531C70.1863 67.4866 70.0085 67.26 69.7144 66.8741C69.4121 66.4702 69.1027 66.0687 68.7778 65.6469C68.3901 65.1301 67.9413 64.5715 67.438 63.9696C67.2313 63.6381 67.2756 63.3626 67.5728 63.1569C67.7192 63.0644 67.8745 62.9511 68.0369 62.8097C68.2019 62.6759 68.3901 62.5473 68.5993 62.4289C68.8933 62.2465 69.1745 62.4103 69.4429 62.9226C69.536 63.049 69.7041 63.2646 69.959 63.584C70.212 63.9053 70.4726 64.2342 70.7358 64.6022C70.999 64.9702 71.2545 65.2921 71.4946 65.5724C71.7348 65.863 71.8638 66.0406 71.8997 66.0998C71.9562 66.2207 72.0647 66.295 72.2271 66.3264C72.3927 66.3571 72.5089 66.3055 72.5655 66.1897C72.5918 66.1254 72.7151 65.9404 72.9429 65.6189C73.1644 65.3075 73.4122 64.9549 73.678 64.5587C73.9463 64.1655 74.1986 63.7997 74.4342 63.4449C74.6769 63.1002 74.8239 62.8788 74.883 62.7911C75.0306 62.578 75.1616 62.4443 75.2572 62.3848C75.3631 62.3236 75.5333 62.3416 75.7759 62.4289C75.923 62.4878 76.0886 62.578 76.2587 62.6961C76.4417 62.8199 76.563 62.9127 76.617 62.9742C76.945 63.3089 77.0375 63.5943 76.8859 63.8311C76.8288 63.9265 76.6632 64.1524 76.4 64.5153C76.122 64.8752 75.8402 65.2583 75.5276 65.6704C75.2104 66.0768 74.935 66.4576 74.6814 66.8256C74.4291 67.1878 74.2891 67.4044 74.2538 67.4581C74.1731 67.6068 74.2046 67.697 74.3644 67.7332ZM61.668 46.627C54.8701 46.627 49.3613 49.3517 49.3613 52.7131C49.3613 56.0739 54.8701 58.7988 61.668 58.7988C68.464 58.7988 73.9734 56.0745 73.9734 52.7131C73.9734 49.3517 68.464 46.627 61.668 46.627ZM65.5462 60.3604C64.3258 60.5607 63.0245 60.674 61.668 60.674C55.8106 60.674 50.9194 58.6488 49.6759 55.9388C49.4762 56.3734 49.3613 56.8252 49.3613 57.2895C49.3613 60.6503 54.8701 63.3759 61.668 63.3759C61.9986 63.3759 62.3222 63.3638 62.6458 63.3509C63.4071 62.1741 64.3919 61.1559 65.5462 60.3604ZM73.6357 58.6837C73.8488 58.2363 73.9721 57.7708 73.9721 57.2905C73.9721 56.8252 73.8578 56.3744 73.6576 55.9399C73.2159 56.9033 72.3043 57.7785 71.0589 58.5087C71.2348 58.5001 71.4062 58.4815 71.5834 58.4815C72.2856 58.4815 72.9719 58.5538 73.6357 58.6837ZM61.668 64.6786C55.8106 64.6786 50.9194 62.6534 49.6759 59.9431C49.4762 60.378 49.3614 60.8294 49.3614 61.2938C49.3614 64.5592 54.5659 67.2164 61.0948 67.3655C61.2508 66.4196 61.5294 65.5156 61.9191 64.6724C61.8355 64.6738 61.7521 64.6786 61.668 64.6786ZM60.9683 68.6675C55.4261 68.5136 50.87 66.5486 49.6759 63.9474C49.4762 64.3826 49.3614 64.8338 49.3614 65.2984C49.3614 68.5821 54.6249 71.2514 61.2064 71.3724C61.0428 70.6332 60.9503 69.8674 60.9503 69.0794C60.9503 68.9411 60.9625 68.8054 60.9683 68.6675ZM49.6759 67.9524C49.4762 68.3873 49.3613 68.8384 49.3613 69.3027C49.3613 72.6635 54.8701 75.3892 61.668 75.3892C62.1257 75.3892 62.5751 75.3748 63.0194 75.3505C62.4249 74.5435 61.948 73.6452 61.5994 72.6856C55.7727 72.6696 50.9143 70.6515 49.6759 67.9524ZM64.0889 76.5689C63.3051 76.6467 62.4981 76.6918 61.668 76.6918C55.8106 76.6918 50.9194 74.6666 49.6759 71.9563C49.4762 72.3912 49.3613 72.843 49.3613 73.3073C49.3613 76.6684 54.8701 79.3934 61.668 79.3934C63.6716 79.3934 65.5578 79.1518 67.2301 78.7314C66.0508 78.2018 64.9908 77.4684 64.0889 76.5689Z" fill="url(#paint1_linear_372_24729)"/>
<defs>
<filter id="filter0_ii_372_24729" x="0.708008" y="0.952148" width="60.5684" height="59.5752" filterUnits="userSpaceOnUse" color-interpolation-filters="sRGB">
<feFlood flood-opacity="0" result="BackgroundImageFix"/>
<feBlend mode="normal" in="SourceGraphic" in2="BackgroundImageFix" result="shape"/>
<feColorMatrix in="SourceAlpha" type="matrix" values="0 0 0 0 0 0 0 0 0 0 0 0 0 0 0 0 0 0 127 0" result="hardAlpha"/>
<feOffset dy="1"/>
<feComposite in2="hardAlpha" operator="arithmetic" k2="-1" k3="1"/>
<feColorMatrix type="matrix" values="0 0 0 0 1 0 0 0 0 1 0 0 0 0 1 0 0 0 0.4 0"/>
<feBlend mode="normal" in2="shape" result="effect1_innerShadow_372_24729"/>
<feColorMatrix in="SourceAlpha" type="matrix" values="0 0 0 0 0 0 0 0 0 0 0 0 0 0 0 0 0 0 127 0" result="hardAlpha"/>
<feOffset dx="1"/>
<feComposite in2="hardAlpha" operator="arithmetic" k2="-1" k3="1"/>
<feColorMatrix type="matrix" values="0 0 0 0 1 0 0 0 0 1 0 0 0 0 1 0 0 0 0.4 0"/>
<feBlend mode="normal" in2="effect1_innerShadow_372_24729" result="effect2_innerShadow_372_24729"/>
</filter>
<filter id="filter1_biii_372_24729" x="-5.46167" y="-10.1826" width="144.398" height="140.427" filterUnits="userSpaceOnUse" color-interpolation-filters="sRGB">
<feFlood flood-opacity="0" result="BackgroundImageFix"/>
<feGaussianBlur in="BackgroundImage" stdDeviation="15"/>
<feComposite in2="SourceAlpha" operator="in" result="effect1_backgroundBlur_372_24729"/>
<feBlend mode="normal" in="SourceGraphic" in2="effect1_backgroundBlur_372_24729" result="shape"/>
<feColorMatrix in="SourceAlpha" type="matrix" values="0 0 0 0 0 0 0 0 0 0 0 0 0 0 0 0 0 0 127 0" result="hardAlpha"/>
<feOffset dy="1"/>
<feComposite in2="hardAlpha" operator="arithmetic" k2="-1" k3="1"/>
<feColorMatrix type="matrix" values="0 0 0 0 1 0 0 0 0 1 0 0 0 0 1 0 0 0 0.4 0"/>
<feBlend mode="normal" in2="shape" result="effect2_innerShadow_372_24729"/>
<feColorMatrix in="SourceAlpha" type="matrix" values="0 0 0 0 0 0 0 0 0 0 0 0 0 0 0 0 0 0 127 0" result="hardAlpha"/>
<feOffset dx="1"/>
<feComposite in2="hardAlpha" operator="arithmetic" k2="-1" k3="1"/>
<feColorMatrix type="matrix" values="0 0 0 0 1 0 0 0 0 1 0 0 0 0 1 0 0 0 0.4 0"/>
<feBlend mode="normal" in2="effect2_innerShadow_372_24729" result="effect3_innerShadow_372_24729"/>
<feColorMatrix in="SourceAlpha" type="matrix" values="0 0 0 0 0 0 0 0 0 0 0 0 0 0 0 0 0 0 127 0" result="hardAlpha"/>
<feOffset dx="-1"/>
<feGaussianBlur stdDeviation="0.5"/>
<feComposite in2="hardAlpha" operator="arithmetic" k2="-1" k3="1"/>
<feColorMatrix type="matrix" values="0 0 0 0 1 0 0 0 0 1 0 0 0 0 1 0 0 0 0.25 0"/>
<feBlend mode="normal" in2="effect3_innerShadow_372_24729" result="effect4_innerShadow_372_24729"/>
</filter>
<linearGradient id="paint0_linear_372_24729" x1="0.70805" y1="0.952148" x2="60.2753" y2="61.5122" gradientUnits="userSpaceOnUse">
<stop offset="0.144803" stop-color="#4CB2FC"/>
<stop offset="0.841012" stop-color="#003CFF"/>
</linearGradient>
<linearGradient id="paint1_linear_372_24729" x1="82.1278" y1="49.3575" x2="49.3613" y2="79.3934" gradientUnits="userSpaceOnUse">
<stop stop-color="#34FFD6"/>
<stop offset="1" stop-color="#0047FF"/>
</linearGradient>
</defs>
</svg>
