<svg width="351" height="288" viewBox="0 0 351 288" fill="none" xmlns="http://www.w3.org/2000/svg">
<rect width="351" height="288" fill="url(#paint0_radial_3794_87504)"/>
<rect x="4" y="76" width="212" height="3.99999" transform="rotate(90 4 76)" fill="url(#paint1_linear_3794_87504)"/>
<path fill-rule="evenodd" clip-rule="evenodd" d="M17.4935 286.182L17.4936 68.1367L15.3067 68.1367L15.3066 287.998H15.3067V287.999L346.624 287.999V286.182L17.4935 286.182Z" fill="url(#paint2_linear_3794_87504)"/>
<path fill-rule="evenodd" clip-rule="evenodd" d="M336.785 26.3455V278.912H338.972L338.972 26.3455V24.5285L338.972 24.5273L336.785 24.5273V24.5285H15.3086V26.3455H336.785Z" fill="url(#paint3_linear_3794_87504)"/>
<rect x="351" y="254" width="34" height="4" transform="rotate(90 351 254)" fill="url(#paint4_linear_3794_87504)"/>
<rect x="4" width="34" height="4" transform="rotate(90 4 0)" fill="url(#paint5_linear_3794_87504)"/>
<rect x="351" y="288" width="27" height="2" transform="rotate(-180 351 288)" fill="url(#paint6_linear_3794_87504)"/>
<path fill-rule="evenodd" clip-rule="evenodd" d="M350.453 0H0V16.3518V16.3533V20.8944H103.879L112.623 16.3533H350.453V0Z" fill="url(#paint7_linear_3794_87504)"/>
<rect x="351" width="254" height="3.99999" transform="rotate(90 351 0)" fill="url(#paint8_linear_3794_87504)"/>
<rect x="16" y="8" width="5" height="4" fill="#30F2CB"/>
<rect x="32" y="8" width="4" height="4" fill="#30F2CB"/>
<rect x="47" y="8" width="4" height="4" fill="#30F2CB"/>
<rect x="62" y="8" width="4" height="4" fill="#30F2CB"/>
<rect x="73" width="277" height="4" fill="url(#paint9_linear_3794_87504)"/>
<path d="M39.464 46.88V59.6H33.848V61.072H48.184V59.6H41.032V53.168H46.952V51.696H41.032V46.88H39.464ZM49.832 47.616V49.104H55.816V61.648H57.336V52.816C58.68 53.504 60.36 54.512 62.376 55.824L63.288 54.448C61.272 53.232 59.288 52.144 57.336 51.2V49.104H64.152V47.616H49.832ZM76.088 50.48H80.36V48.96H76.632C76.792 48.368 76.936 47.728 77.064 47.056L75.56 46.8C75.224 48.88 74.584 50.544 73.624 51.776L74.584 52.96C75.176 52.272 75.672 51.44 76.088 50.48ZM66.744 47.12L65.704 48.112C66.616 48.848 67.336 49.552 67.848 50.192L68.92 49.12C68.328 48.448 67.608 47.776 66.744 47.12ZM66.696 51.12L65.656 52.112C66.616 52.912 67.352 53.648 67.896 54.336L68.984 53.248C68.36 52.528 67.592 51.824 66.696 51.12ZM67.512 55.472C66.952 57.28 66.296 59.056 65.528 60.784L66.936 61.408C67.64 59.728 68.28 57.92 68.856 56L67.512 55.472ZM70.104 50.72V51.632C70.072 55.744 69.448 58.736 68.216 60.592L69.352 61.6C70.504 59.92 71.224 57.456 71.48 54.208H72.648C72.616 57.104 72.552 58.8 72.456 59.312C72.424 59.824 72.28 60.08 72.04 60.08C71.672 60.08 71.24 60.048 70.744 60.016L71.096 61.312C71.64 61.36 72.024 61.392 72.248 61.392C73.208 61.392 73.736 60.912 73.848 59.952C73.976 59.04 74.056 56.64 74.056 52.752H71.56C71.576 52.384 71.592 52.016 71.592 51.632V50.72H74.248V49.264H72.504C72.312 48.336 72.12 47.52 71.896 46.8L70.376 47.056C70.6 47.728 70.824 48.464 71.016 49.264H68.936V50.72H70.104ZM75.432 51.84V53.2H78.2C77.88 53.616 77.432 54.16 76.856 54.816V55.776H74.584V57.136H76.856V59.2C76.856 59.776 76.728 60.08 76.488 60.08C76.008 60.08 75.56 60.064 75.16 60.048L75.528 61.424H77.016C77.88 61.424 78.328 60.848 78.328 59.712V57.136H80.424V55.776H78.328V54.992C78.888 54.416 79.416 53.808 79.896 53.2V51.84H75.432ZM81.88 48.656V50.112H96.136V48.656H89.912C89.64 47.952 89.352 47.328 89.048 46.768L87.352 47.056C87.672 47.536 87.96 48.08 88.232 48.656H81.88ZM91.64 50.304L90.6 51.312C92.488 52.832 93.96 54.24 95 55.552L96.12 54.432C94.904 53.056 93.416 51.68 91.64 50.304ZM91.512 53.328C90.872 54.576 90.04 55.696 89.016 56.656C87.944 55.728 87.08 54.64 86.424 53.424L85.112 54.176C85.832 55.472 86.744 56.624 87.832 57.632C86.184 58.816 84.152 59.712 81.752 60.304L82.68 61.712C85.176 61.056 87.304 60.032 89.064 58.656C90.792 59.952 92.904 60.944 95.4 61.648L96.344 60.224C93.944 59.632 91.912 58.768 90.248 57.616C91.304 56.56 92.184 55.344 92.92 53.952L91.512 53.328ZM86.248 50.32C85.064 51.792 83.592 53.088 81.848 54.176L82.84 55.456C84.632 54.272 86.136 52.896 87.352 51.296L86.248 50.32Z" fill="black" fill-opacity="0.85"/>
<path d="M38.008 77.312C37.128 78.336 35.8 79.184 34.024 79.872L34.856 81.216C35.832 80.768 36.712 80.256 37.48 79.68H39.56C38.552 80.848 36.984 81.808 34.856 82.576L35.832 83.76C38.296 82.768 40.072 81.408 41.192 79.68H42.92C41.704 81.952 39.752 83.52 37.08 84.352L37.944 85.616C40.92 84.656 43.096 82.672 44.472 79.68H45.72C45.656 81.536 45.496 82.736 45.272 83.312C45.048 83.856 44.568 84.128 43.848 84.128C43.24 84.128 42.616 84.096 41.96 84.064L42.36 85.488H44.584C45.352 85.456 45.896 85.232 46.232 84.816C46.568 84.4 46.808 83.648 46.968 82.592C47.112 81.504 47.208 80.096 47.256 78.336H38.968C39.256 78.016 39.528 77.664 39.768 77.312H46.056V71.392H36.024V77.312H38.008ZM44.568 76.032H37.512V74.944H44.568V76.032ZM37.512 73.744V72.688H44.568V73.744H37.512ZM57.928 79.744V81.088H60.76V83.488H62.168V81.088H64.312V79.744H62.168V78.128H63.848V76.8H62.168V74.768H60.76V76.8H59.528C59.96 75.968 60.36 74.992 60.728 73.904H64.008V72.576H61.144C61.256 72.144 61.368 71.696 61.496 71.216L60.152 70.896C60.008 71.472 59.864 72.032 59.72 72.576H57.864V73.904H59.304C58.888 75.104 58.456 76.096 57.976 76.88L58.264 78.128H60.76V79.744H57.928ZM55.816 71.152L54.696 71.84C55.368 72.8 55.896 73.696 56.296 74.512L57.416 73.712C57.048 72.976 56.52 72.128 55.816 71.152ZM61.944 84C61.336 84 60.728 83.984 60.12 83.968C59.512 83.936 58.968 83.824 58.488 83.648C57.992 83.408 57.592 83.088 57.288 82.704V76.144H54.776V77.488H55.896V82.576C55.448 82.912 54.92 83.552 54.328 84.496L55.208 85.648C55.864 84.432 56.312 83.824 56.536 83.824C56.68 83.824 56.856 83.92 57.064 84.144C57.432 84.576 57.896 84.88 58.44 85.072C59.016 85.248 59.672 85.344 60.392 85.36C60.872 85.376 61.352 85.392 61.832 85.392H64.056L64.44 83.968C63.656 83.984 62.824 84 61.944 84ZM51.176 70.928C50.856 72.8 50.296 74.544 49.496 76.16L50.696 76.912L51 76.304V77.168H51.64V78.816H49.992V80.224H51.64V83.456C51.64 83.728 51.496 83.92 51.224 84.048L51.8 85.296C52.824 84.928 53.736 84.464 54.52 83.92L54.264 82.608C53.88 82.928 53.48 83.2 53.096 83.44V80.224H54.728V78.816H53.096V77.168H54.28V75.808H51.224C51.448 75.264 51.672 74.672 51.896 74.032H54.504V72.592H52.312C52.424 72.144 52.536 71.696 52.632 71.232L51.176 70.928ZM70.6 71.184C69.944 72.384 69.256 73.408 68.52 74.256C67.624 75.264 66.664 76.048 65.64 76.624L66.472 77.952C67.848 76.992 68.904 76.08 69.672 75.216C70.424 74.384 71.176 73.296 71.912 71.984L70.6 71.184ZM71.064 78.576C70.728 79.92 70.264 81.008 69.672 81.856C68.936 82.8 67.832 83.664 66.392 84.432L67.368 85.696C69 84.768 70.232 83.712 71.064 82.56C71.704 81.568 72.216 80.24 72.6 78.576H76.216C76.136 80.864 75.96 82.368 75.704 83.072C75.448 83.744 74.904 84.08 74.104 84.08C73.272 84.08 72.376 84.048 71.432 84.016L71.848 85.52H74.872C75.688 85.472 76.28 85.2 76.648 84.72C77.016 84.224 77.272 83.344 77.432 82.096C77.592 80.816 77.688 79.168 77.752 77.12H68.072V78.576H71.064ZM75.464 70.976L74.136 71.728C75.112 74.24 76.84 76.288 79.304 77.888L80.328 76.688C77.96 75.28 76.344 73.376 75.464 70.976ZM85.592 77.68C85.976 78.208 86.44 78.896 86.984 79.728L87.8 78.512C87.064 77.632 86.328 76.816 85.592 76.064V75.344H87.624V73.888H85.592V70.88H84.104V73.888H81.896V75.344H84.008C83.496 77.2 82.664 78.848 81.528 80.288L82.184 81.952C82.952 80.752 83.592 79.44 84.104 78V85.6H85.592V77.68ZM95.08 70.896C93.112 71.6 90.872 71.984 88.376 72.048V77.312C88.28 80.336 87.576 82.704 86.28 84.4L87.368 85.536C88.888 83.504 89.704 80.768 89.832 77.328H92.424V85.616H93.96V77.328H96.2V75.872H89.832V73.344C92.04 73.232 94.04 72.864 95.832 72.256L95.08 70.896Z" fill="black" fill-opacity="0.85"/>
<path opacity="0.25" fill-rule="evenodd" clip-rule="evenodd" d="M219.797 250.075V260.165C256.227 260.165 256.227 235.857 292.658 235.857V223.016C256.227 223.016 256.227 250.075 219.797 250.075Z" fill="#B9E9CC"/>
<path opacity="0.25" fill-rule="evenodd" clip-rule="evenodd" d="M219.797 201.918V220.263C256.227 220.263 256.227 155.138 292.658 155.138V118.906C256.227 118.906 256.227 201.918 219.797 201.918Z" fill="#8ADAEA"/>
<path opacity="0.25" fill-rule="evenodd" clip-rule="evenodd" d="M219.797 135.879V175.321C256.227 175.321 256.227 235.86 292.658 235.86V223.018C256.227 223.018 256.227 135.879 219.797 135.879Z" fill="#669FDF"/>
<path opacity="0.25" fill-rule="evenodd" clip-rule="evenodd" d="M219.797 72.5859V130.832C256.227 130.832 256.227 218.43 292.658 218.43V207.423C256.227 207.423 256.227 72.5859 219.797 72.5859Z" fill="#4980CB"/>
<path opacity="0.25" fill-rule="evenodd" clip-rule="evenodd" d="M219.797 72.5859V130.832C256.227 130.832 256.227 260.165 292.658 260.165V254.661C256.227 254.661 256.227 72.5859 219.797 72.5859Z" fill="#4980CB"/>
<path opacity="0.25" fill-rule="evenodd" clip-rule="evenodd" d="M219.797 250.073V260.163C256.227 260.163 256.227 250.073 292.658 250.073V240.441C256.227 240.441 256.227 250.073 219.797 250.073Z" fill="#B9E9CC"/>
<path opacity="0.25" fill-rule="evenodd" clip-rule="evenodd" d="M219.797 240.444V245.947C256.227 245.947 256.227 235.857 292.658 235.857V223.016C256.227 223.016 256.227 240.444 219.797 240.444Z" fill="#A8E5D7"/>
<path opacity="0.25" fill-rule="evenodd" clip-rule="evenodd" d="M219.797 225.308V236.315C256.227 236.315 256.227 218.429 292.658 218.429V207.422C256.227 207.422 256.227 225.308 219.797 225.308Z" fill="#80E5D0"/>
<path opacity="0.25" fill-rule="evenodd" clip-rule="evenodd" d="M219.797 201.916V220.261C256.227 220.261 256.227 202.834 292.658 202.834V182.195C256.227 182.195 256.227 201.916 219.797 201.916Z" fill="#8ADAEA"/>
<path opacity="0.25" fill-rule="evenodd" clip-rule="evenodd" d="M219.797 180.367V196.878C256.227 196.878 256.227 177.615 292.658 177.615V160.188C256.227 160.188 256.227 180.367 219.797 180.367Z" fill="#60C1D9"/>
<path opacity="0.25" fill-rule="evenodd" clip-rule="evenodd" d="M219.797 135.876V175.318C256.227 175.318 256.227 155.138 292.658 155.138V118.906C256.227 118.906 256.227 135.876 219.797 135.876Z" fill="#669FDF"/>
<path opacity="0.25" fill-rule="evenodd" clip-rule="evenodd" d="M219.797 72.5865V130.832C256.227 130.832 256.227 113.863 292.658 113.863V68C256.227 68 256.227 72.5865 219.797 72.5865Z" fill="#4980CB"/>
<path opacity="0.25" fill-rule="evenodd" clip-rule="evenodd" d="M133.646 239.529V262.002C169.618 262.002 169.618 175.321 205.59 175.321V135.879C169.618 135.879 169.618 239.529 133.646 239.529Z" fill="#7CCEDE"/>
<path opacity="0.25" fill-rule="evenodd" clip-rule="evenodd" d="M133.646 239.523V261.995C169.618 261.995 169.618 196.87 205.59 196.87V180.359C169.618 180.359 169.618 239.523 133.646 239.523Z" fill="#7CCEDE"/>
<path opacity="0.25" fill-rule="evenodd" clip-rule="evenodd" d="M133.646 239.523V261.996C169.618 261.996 169.618 260.162 205.59 260.162V250.072C169.618 250.072 169.618 239.523 133.646 239.523Z" fill="#7CCEDE"/>
<path opacity="0.25" fill-rule="evenodd" clip-rule="evenodd" d="M133.646 177.153V234.482C169.618 234.482 169.618 130.832 205.59 130.832V72.5859C169.618 72.5859 169.618 177.153 133.646 177.153Z" fill="#019CBA"/>
<path opacity="0.25" fill-rule="evenodd" clip-rule="evenodd" d="M133.646 91.3867V172.564C169.618 172.564 169.618 260.162 205.59 260.162V250.072C169.618 250.072 169.618 91.3867 133.646 91.3867Z" fill="#0190B4"/>
<path opacity="0.25" fill-rule="evenodd" clip-rule="evenodd" d="M133.646 91.3867V172.564C169.618 172.564 169.618 245.944 205.59 245.944V240.441C169.618 240.441 169.618 91.3867 133.646 91.3867Z" fill="#0190B4"/>
<path opacity="0.25" fill-rule="evenodd" clip-rule="evenodd" d="M133.646 91.3867V172.564C169.618 172.564 169.618 236.314 205.59 236.314V225.307C169.618 225.307 169.618 91.3867 133.646 91.3867Z" fill="#0190B4"/>
<path opacity="0.25" fill-rule="evenodd" clip-rule="evenodd" d="M133.646 91.3867V172.564C169.618 172.564 169.618 220.261 205.59 220.261V201.916C169.618 201.916 169.618 91.3867 133.646 91.3867Z" fill="#0190B4"/>
<path opacity="0.25" fill-rule="evenodd" clip-rule="evenodd" d="M133.646 91.3867V172.564C169.618 172.564 169.618 196.871 205.59 196.871V180.361C169.618 180.361 169.618 91.3867 133.646 91.3867Z" fill="#0190B4"/>
<path opacity="0.25" fill-rule="evenodd" clip-rule="evenodd" d="M133.646 91.3867V172.564C169.618 172.564 169.618 175.316 205.59 175.316V135.874C169.618 135.874 169.618 91.3867 133.646 91.3867Z" fill="#0190B4"/>
<path opacity="0.25" fill-rule="evenodd" clip-rule="evenodd" d="M133.646 91.3896V172.567C169.618 172.567 169.618 130.832 205.59 130.832V72.5859C169.618 72.5859 169.618 91.3896 133.646 91.3896Z" fill="#0190B4"/>
<path opacity="0.25" fill-rule="evenodd" clip-rule="evenodd" d="M45.207 100.105V242.281C82.3248 242.281 82.3248 262.001 119.442 262.001V239.529C82.3248 239.529 82.3248 100.105 45.207 100.105Z" fill="#003F94"/>
<path opacity="0.25" fill-rule="evenodd" clip-rule="evenodd" d="M45.207 100.105V242.281C82.3248 242.281 82.3248 234.484 119.442 234.484V177.155C82.3248 177.155 82.3248 100.105 45.207 100.105Z" fill="#003F94"/>
<path opacity="0.25" fill-rule="evenodd" clip-rule="evenodd" d="M45.207 100.101V242.276C82.3248 242.276 82.3248 172.564 119.442 172.564V91.3867C82.3248 91.3867 82.3248 100.101 45.207 100.101Z" fill="#003F94"/>
<path d="M45.687 100.52H31V243.487H45.687V100.52Z" fill="#003F94"/>
<path d="M69.4915 195.52H49.7871V200.095H69.4915V195.52Z" fill="#60AEFF"/>
<path d="M150.944 149.82H135.033V152.285H150.944V149.82Z" fill="#60AEFF"/>
<path d="M234.17 117.773H223.154V121.471H234.17V117.773Z" fill="#60AEFF"/>
<path d="M234.17 165.84H223.154V168.305H234.17V165.84Z" fill="#60AEFF"/>
<path d="M234.17 194.188H223.154V196.652H234.17V194.188Z" fill="#60AEFF"/>
<path d="M234.17 213.906H223.154V217.604H234.17V213.906Z" fill="#60AEFF"/>
<path d="M234.17 232.395H223.154V234.859H234.17V232.395Z" fill="#60AEFF"/>
<path d="M234.17 243.488H223.154V247.186H234.17V243.488Z" fill="#60AEFF"/>
<path d="M234.17 254.578H223.154V257.043H234.17V254.578Z" fill="#60AEFF"/>
<path d="M321.068 259.508H310.053V261.973H321.068V259.508Z" fill="#60AEFF"/>
<path d="M321.068 248.418H310.053V250.883H321.068V248.418Z" fill="#60AEFF"/>
<path d="M321.068 232.395H310.053V236.092H321.068V232.395Z" fill="#60AEFF"/>
<path d="M321.068 217.605H310.053V220.07H321.068V217.605Z" fill="#60AEFF"/>
<path d="M321.068 199.117H310.053V201.582H321.068V199.117Z" fill="#60AEFF"/>
<path d="M321.068 176.934H310.053V179.399H321.068V176.934Z" fill="#60AEFF"/>
<path d="M321.068 148.586H310.053V151.051H321.068V148.586Z" fill="#60AEFF"/>
<path d="M321.068 105.449H310.053V109.147H321.068V105.449Z" fill="#60AEFF"/>
<path d="M150.944 212.676H135.033V216.373H150.944V212.676Z" fill="#60AEFF"/>
<path d="M150.944 253.348H135.033V257.045H150.944V253.348Z" fill="#60AEFF"/>
<path d="M133.808 91.8906H119.121V173.234H133.808V91.8906Z" fill="#0190B4"/>
<path d="M219.483 73.4062H206.02V132.565H219.483V73.4062Z" fill="#4980CB"/>
<path d="M305.157 68.4766H292.918V115.311H305.157V68.4766Z" fill="#4980CB"/>
<path d="M305.157 120.238H292.918V157.213H305.157V120.238Z" fill="#669FDF"/>
<path d="M305.157 162.145H292.918V179.399H305.157V162.145Z" fill="#60C1D9"/>
<path d="M305.157 184.328H292.918V205.28H305.157V184.328Z" fill="#8ADAEA"/>
<path d="M305.157 210.211H292.918V221.303H305.157V210.211Z" fill="#8ADAEA"/>
<path d="M305.157 225H292.918V238.557H305.157V225Z" fill="#80E5D0"/>
<path d="M305.157 243.488H292.918V253.348H305.157V243.488Z" fill="#A8E5D7"/>
<path d="M305.157 257.043H292.918V263.205H305.157V257.043Z" fill="#B9E9CC"/>
<path d="M219.483 137.492H206.02V176.931H219.483V137.492Z" fill="#669FDF"/>
<path d="M219.483 181.863H206.02V197.885H219.483V181.863Z" fill="#60C1D9"/>
<path d="M219.483 202.816H206.02V221.304H219.483V202.816Z" fill="#8ADAEA"/>
<path d="M219.483 227.465H206.02V238.557H219.483V227.465Z" fill="#80E5D0"/>
<path d="M219.483 242.254H206.02V247.184H219.483V242.254Z" fill="#A8E5D7"/>
<path d="M219.483 252.113H206.02V261.973H219.483V252.113Z" fill="#B9E9CC"/>
<path d="M133.808 178.164H119.121V236.09H133.808V178.164Z" fill="#019CBA"/>
<path d="M133.808 241.023H119.121V263.208H133.808V241.023Z" fill="#7CCEDE"/>
<defs>
<radialGradient id="paint0_radial_3794_87504" cx="0" cy="0" r="1" gradientUnits="userSpaceOnUse" gradientTransform="translate(175.5 144) rotate(140.631) scale(227.016 277.091)">
<stop stop-color="#F8FBFF"/>
<stop offset="1" stop-color="#DDECFF"/>
</radialGradient>
<linearGradient id="paint1_linear_3794_87504" x1="4" y1="78.0003" x2="216" y2="78.0002" gradientUnits="userSpaceOnUse">
<stop stop-color="#77B1FF"/>
<stop offset="1" stop-color="#DCEBFF"/>
</linearGradient>
<linearGradient id="paint2_linear_3794_87504" x1="346.624" y1="287.091" x2="15.3066" y2="287.091" gradientUnits="userSpaceOnUse">
<stop stop-color="#DCEBFF"/>
<stop offset="1" stop-color="#DCEBFF"/>
</linearGradient>
<linearGradient id="paint3_linear_3794_87504" x1="15.3086" y1="25.436" x2="338.972" y2="25.4357" gradientUnits="userSpaceOnUse">
<stop stop-color="#DCEBFF"/>
<stop offset="1" stop-color="#DCEBFF"/>
</linearGradient>
<linearGradient id="paint4_linear_3794_87504" x1="351" y1="256" x2="385" y2="256" gradientUnits="userSpaceOnUse">
<stop stop-color="#B9D3F5"/>
<stop offset="0.430301" stop-color="#9EC6FC"/>
<stop offset="1" stop-color="#D8E8FF"/>
</linearGradient>
<linearGradient id="paint5_linear_3794_87504" x1="4" y1="2.00028" x2="38" y2="2.00028" gradientUnits="userSpaceOnUse">
<stop stop-color="#B9D3F5"/>
<stop offset="0.430301" stop-color="#9EC6FC"/>
<stop offset="1" stop-color="#D8E8FF"/>
</linearGradient>
<linearGradient id="paint6_linear_3794_87504" x1="351" y1="289" x2="378" y2="289" gradientUnits="userSpaceOnUse">
<stop stop-color="#D8E8FF"/>
<stop offset="1" stop-color="#D9E9FF"/>
</linearGradient>
<linearGradient id="paint7_linear_3794_87504" x1="-2.03302e-06" y1="9.993" x2="381.617" y2="9.99297" gradientUnits="userSpaceOnUse">
<stop stop-color="#016EFF"/>
<stop offset="1" stop-color="#016EFF" stop-opacity="0"/>
</linearGradient>
<linearGradient id="paint8_linear_3794_87504" x1="351" y1="2.00027" x2="605" y2="2.0002" gradientUnits="userSpaceOnUse">
<stop stop-color="#BBD4F5"/>
<stop offset="1" stop-color="#E4F0FF"/>
</linearGradient>
<linearGradient id="paint9_linear_3794_87504" x1="73" y1="2.00028" x2="350" y2="2.00019" gradientUnits="userSpaceOnUse">
<stop stop-color="#2883FD"/>
<stop offset="1" stop-color="#BBD4F4"/>
</linearGradient>
</defs>
</svg>
