<svg width="351" height="288" viewBox="0 0 351 288" fill="none" xmlns="http://www.w3.org/2000/svg">
<rect width="351" height="288" fill="url(#paint0_radial_3794_87950)"/>
<rect x="4" y="76" width="212" height="3.99999" transform="rotate(90 4 76)" fill="url(#paint1_linear_3794_87950)"/>
<path fill-rule="evenodd" clip-rule="evenodd" d="M17.4935 286.182L17.4936 68.1367L15.3067 68.1367L15.3066 287.998H15.3067V287.999L346.624 287.999V286.182L17.4935 286.182Z" fill="url(#paint2_linear_3794_87950)"/>
<path fill-rule="evenodd" clip-rule="evenodd" d="M336.785 26.3455V278.912H338.972L338.972 26.3455V24.5285L338.972 24.5273L336.785 24.5273V24.5285H15.3086V26.3455H336.785Z" fill="url(#paint3_linear_3794_87950)"/>
<rect x="351" y="254" width="34" height="4" transform="rotate(90 351 254)" fill="url(#paint4_linear_3794_87950)"/>
<rect x="4" width="34" height="4" transform="rotate(90 4 0)" fill="url(#paint5_linear_3794_87950)"/>
<rect x="351" y="288" width="27" height="2" transform="rotate(-180 351 288)" fill="url(#paint6_linear_3794_87950)"/>
<path fill-rule="evenodd" clip-rule="evenodd" d="M350.453 0H0V16.3518V16.3533V20.8944H103.879L112.623 16.3533H350.453V0Z" fill="url(#paint7_linear_3794_87950)"/>
<rect x="351" width="254" height="3.99999" transform="rotate(90 351 0)" fill="url(#paint8_linear_3794_87950)"/>
<rect x="16" y="8" width="5" height="4" fill="#30F2CB"/>
<rect x="32" y="8" width="4" height="4" fill="#30F2CB"/>
<rect x="47" y="8" width="4" height="4" fill="#30F2CB"/>
<rect x="62" y="8" width="4" height="4" fill="#30F2CB"/>
<rect x="73" width="277" height="4" fill="url(#paint9_linear_3794_87950)"/>
<path d="M38.152 46.944L36.76 47.616C37.336 48.336 37.896 49.152 38.424 50.08H35V51.552H40.232V52.048C40.2 52.8 40.104 53.504 39.976 54.176H34.088V55.648H39.56C39.352 56.192 39.096 56.704 38.792 57.168C37.912 58.384 36.248 59.392 33.784 60.192L34.616 61.52C37.08 60.752 38.856 59.648 39.944 58.208C40.36 57.632 40.712 56.96 41 56.208C41.928 58.464 44.056 60.288 47.416 61.664L48.312 60.224C45.096 59.104 43.096 57.584 42.312 55.648H47.912V54.176H41.544C41.656 53.52 41.736 52.816 41.768 52.048V51.552H46.984V50.08H43.944C44.456 49.232 44.904 48.288 45.256 47.232L43.768 46.832C43.32 48.08 42.808 49.168 42.232 50.08H38.92L39.912 49.584C39.352 48.624 38.76 47.744 38.152 46.944ZM56.312 50.24V51.68H59.32V52.304C59.304 52.912 59.272 53.504 59.224 54.08H56.072V55.536H59C58.488 57.84 57.416 59.488 55.752 60.512L56.664 61.728C58.36 60.608 59.544 58.928 60.2 56.656C60.712 58.304 61.784 59.968 63.416 61.664L64.456 60.528C62.632 58.832 61.512 57.168 61.096 55.536H64.2V54.08H60.68C60.744 53.408 60.776 52.704 60.776 51.968V51.68H63.928V50.24H61.8C62.264 49.456 62.728 48.512 63.176 47.424L61.768 46.896C61.352 48.08 60.856 49.2 60.28 50.24H56.312ZM58.104 46.96L56.936 47.696C57.544 48.624 58.04 49.456 58.392 50.208L59.512 49.424C59.192 48.72 58.712 47.888 58.104 46.96ZM49.688 47.424V48.832H50.536V58.304L49.624 58.448L49.992 59.888C51.304 59.632 52.568 59.36 53.784 59.04V61.68H55.24V58.656L56.184 58.368V56.896C55.864 56.992 55.56 57.104 55.24 57.2V48.832H56.152V47.424H49.688ZM51.992 58.032V55.552H53.784V57.616C53.208 57.76 52.6 57.904 51.992 58.032ZM51.992 54.176V52.224H53.784V54.176H51.992ZM51.992 50.848V48.832H53.784V50.848H51.992ZM70.152 46.944L68.76 47.616C69.336 48.336 69.896 49.152 70.424 50.08H67V51.552H72.232V52.048C72.2 52.8 72.104 53.504 71.976 54.176H66.088V55.648H71.56C71.352 56.192 71.096 56.704 70.792 57.168C69.912 58.384 68.248 59.392 65.784 60.192L66.616 61.52C69.08 60.752 70.856 59.648 71.944 58.208C72.36 57.632 72.712 56.96 73 56.208C73.928 58.464 76.056 60.288 79.416 61.664L80.312 60.224C77.096 59.104 75.096 57.584 74.312 55.648H79.912V54.176H73.544C73.656 53.52 73.736 52.816 73.768 52.048V51.552H78.984V50.08H75.944C76.456 49.232 76.904 48.288 77.256 47.232L75.768 46.832C75.32 48.08 74.808 49.168 74.232 50.08H70.92L71.912 49.584C71.352 48.624 70.76 47.744 70.152 46.944ZM88.44 61.6C89.432 61.6 89.944 61.072 89.944 60.048V56.032C91.208 55.936 92.36 55.824 93.416 55.696C93.784 56.24 94.12 56.768 94.408 57.28L95.624 56.432C94.92 55.28 93.896 53.92 92.568 52.384L91.448 53.088C91.832 53.552 92.184 54.016 92.536 54.48C90.888 54.672 88.952 54.848 86.728 54.992C88.6 53.936 90.808 52.32 93.352 50.112L91.944 49.424C91.224 50.08 90.52 50.688 89.848 51.248C88.728 51.328 87.608 51.392 86.488 51.456C87.384 50.816 88.248 50.016 89.08 49.056C91.384 48.896 93.4 48.64 95.096 48.272L94.344 47.008C91.192 47.616 87.32 47.936 82.744 47.936L83.192 49.248C84.6 49.248 85.928 49.216 87.192 49.168C86.296 50.16 85.528 50.816 84.888 51.136C84.568 51.28 84.232 51.376 83.864 51.408L84.184 52.752C85.624 52.672 87 52.576 88.28 52.48C86.872 53.52 85.576 54.288 84.392 54.8C84.008 54.928 83.56 55.024 83.08 55.072L83.496 56.4C85.256 56.32 86.888 56.24 88.424 56.144V59.68C88.424 60.032 88.248 60.208 87.912 60.208C87.4 60.208 86.856 60.176 86.28 60.112L86.632 61.6H88.44ZM92.104 56.768L91.096 57.76C92.776 59.024 94.088 60.208 95.016 61.312L96.104 60.224C95.032 59.072 93.704 57.92 92.104 56.768ZM85.72 56.88C84.664 58.064 83.352 59.104 81.816 60L82.776 61.248C84.376 60.272 85.704 59.136 86.792 57.84L85.72 56.88Z" fill="black" fill-opacity="0.85"/>
<path d="M35.128 76.8V78.192H42.968V79.904H36.984C37.144 79.536 37.288 79.12 37.432 78.672L35.896 78.528C35.704 79.312 35.384 80.224 34.936 81.264H40.728C39.256 82.48 36.984 83.488 33.912 84.304L34.712 85.632C38.312 84.48 40.92 83.024 42.552 81.264H42.968V83.696C42.968 84.112 42.776 84.32 42.392 84.32C41.736 84.32 41.032 84.288 40.296 84.224L40.632 85.648H42.904C43.96 85.648 44.504 85.104 44.504 84.048V81.264H47.976V79.904H44.504V78.192H46.92V76.8H35.128ZM41.448 70.752L39.832 71.008C40.008 71.296 40.168 71.616 40.328 71.968H34.136V74.56H35.608V73.328H46.376V74.48H47.848V71.968H41.88C41.736 71.52 41.592 71.104 41.448 70.752ZM42.296 73.616L41.544 74.736C43.16 75.152 44.728 75.744 46.264 76.512L47 75.376C45.576 74.688 44.008 74.096 42.296 73.616ZM39.496 73.6C38.312 74.304 36.808 74.88 34.984 75.312L35.56 76.528C37.48 76.016 39.096 75.392 40.408 74.624L39.496 73.6ZM51.16 71.04L50.12 72.032C51.272 72.96 52.168 73.808 52.808 74.608L53.88 73.552C53.144 72.72 52.232 71.888 51.16 71.04ZM60.344 85.408H64.04L64.376 83.952C63.944 83.984 63.32 84.016 62.52 84.032C61.72 84.048 60.92 84.064 60.136 84.064C58.888 84.064 57.816 84.048 56.904 84.032C55.96 84 55.256 83.872 54.776 83.616C54.376 83.392 53.992 83.056 53.608 82.608C53.528 82.512 53.448 82.448 53.384 82.384V76.304H49.816V77.712H51.96V82.24C51.32 82.56 50.584 83.376 49.784 84.672L50.904 85.712C51.72 84.272 52.296 83.552 52.648 83.552C52.824 83.552 53.032 83.68 53.256 83.968C53.736 84.512 54.296 84.88 54.936 85.072C55.592 85.264 56.44 85.36 57.48 85.376C58.504 85.392 59.464 85.408 60.344 85.408ZM59.896 74.848C60.872 76.064 62.136 77.04 63.672 77.776L64.328 76.528C63.032 76.048 61.992 75.488 61.224 74.848H63.544V73.536H59.784V72.624C60.952 72.496 61.992 72.336 62.904 72.128L62.232 70.976C60.248 71.408 57.8 71.632 54.888 71.632L55.304 72.816C56.376 72.816 57.384 72.784 58.312 72.736V73.536H54.552V74.848H56.856C56.168 75.536 55.176 76.128 53.864 76.608L54.616 77.856C56.216 77.056 57.416 76.064 58.2 74.848H58.312V77.04H59.784V74.848H59.896ZM55.592 77.504V78.848H56.904C56.664 80.32 55.752 81.376 54.152 82.016L54.952 83.296C56.936 82.368 58.056 80.88 58.296 78.848H60.216C60.056 79.44 59.896 79.984 59.704 80.496H62.024C61.928 81.312 61.768 81.792 61.544 81.952C61.32 82.112 60.968 82.192 60.504 82.192C60.152 82.192 59.608 82.144 58.904 82.048L59.352 83.424C60.152 83.424 60.808 83.408 61.336 83.408C61.944 83.376 62.392 83.184 62.712 82.864C63.032 82.512 63.256 81.584 63.416 80.048V79.312H61.4C61.528 78.96 61.64 78.592 61.736 78.176V77.504H55.592ZM70.6 71.184C69.944 72.384 69.256 73.408 68.52 74.256C67.624 75.264 66.664 76.048 65.64 76.624L66.472 77.952C67.848 76.992 68.904 76.08 69.672 75.216C70.424 74.384 71.176 73.296 71.912 71.984L70.6 71.184ZM71.064 78.576C70.728 79.92 70.264 81.008 69.672 81.856C68.936 82.8 67.832 83.664 66.392 84.432L67.368 85.696C69 84.768 70.232 83.712 71.064 82.56C71.704 81.568 72.216 80.24 72.6 78.576H76.216C76.136 80.864 75.96 82.368 75.704 83.072C75.448 83.744 74.904 84.08 74.104 84.08C73.272 84.08 72.376 84.048 71.432 84.016L71.848 85.52H74.872C75.688 85.472 76.28 85.2 76.648 84.72C77.016 84.224 77.272 83.344 77.432 82.096C77.592 80.816 77.688 79.168 77.752 77.12H68.072V78.576H71.064ZM75.464 70.976L74.136 71.728C75.112 74.24 76.84 76.288 79.304 77.888L80.328 76.688C77.96 75.28 76.344 73.376 75.464 70.976ZM85.592 77.68C85.976 78.208 86.44 78.896 86.984 79.728L87.8 78.512C87.064 77.632 86.328 76.816 85.592 76.064V75.344H87.624V73.888H85.592V70.88H84.104V73.888H81.896V75.344H84.008C83.496 77.2 82.664 78.848 81.528 80.288L82.184 81.952C82.952 80.752 83.592 79.44 84.104 78V85.6H85.592V77.68ZM95.08 70.896C93.112 71.6 90.872 71.984 88.376 72.048V77.312C88.28 80.336 87.576 82.704 86.28 84.4L87.368 85.536C88.888 83.504 89.704 80.768 89.832 77.328H92.424V85.616H93.96V77.328H96.2V75.872H89.832V73.344C92.04 73.232 94.04 72.864 95.832 72.256L95.08 70.896Z" fill="black" fill-opacity="0.85"/>
<g clip-path="url(#clip0_3794_87950)">
<path d="M259.84 252.044L245.961 209.395L271.033 266.859" stroke="#8DBEFF" stroke-miterlimit="10"/>
<path d="M266.114 250.248L245.967 209.395" stroke="#8DBEFF" stroke-miterlimit="10"/>
<path d="M248.648 212.086L297.449 215.677L314.462 231.39" stroke="#8DBEFF" stroke-miterlimit="10"/>
<path d="M248.083 209.395L239.693 166.297L258.049 180.214L277.301 195.029L248.083 209.395Z" stroke="#8DBEFF" stroke-miterlimit="10"/>
<path d="M277.301 195.029L298.357 187.846L323.863 183.806L308.64 147.441L297.448 215.68L298.343 189.193" stroke="#8DBEFF" stroke-miterlimit="10"/>
<path d="M278.648 195.926L296.557 215.23" stroke="#8DBEFF" stroke-miterlimit="10"/>
<path d="M249.095 207.599L300.582 167.9L308.641 147.441L287.151 153.278L262.974 155.971L239.693 166.297L299.686 167.195L288.046 154.176L278.196 171.684L249.462 205.579L257.602 182.01L262.974 157.767L276.853 170.337L296.552 186.086L285.36 152.38L248.648 210.405" stroke="#8DBEFF" stroke-miterlimit="10"/>
<path d="M301.929 167.645L298.348 186.5" stroke="#8DBEFF" stroke-miterlimit="10"/>
<path d="M324.764 184.704L242.564 167.645" stroke="#8DBEFF" stroke-miterlimit="10"/>
<path d="M297.005 186.947L240.195 168.863" stroke="#8DBEFF" stroke-miterlimit="10"/>
<path d="M308.197 146.094L278.648 172.842" stroke="#8DBEFF" stroke-miterlimit="10"/>
<path d="M309.54 146.543L247.689 210.405" stroke="#8DBEFF" stroke-miterlimit="10"/>
<path d="M213.279 133.694L235.665 120.953L240.415 135.05L240.59 165.398" stroke="#8DBEFF" stroke-miterlimit="10"/>
<path d="M236.426 120.728L256.895 102.707L240.415 135.049" stroke="#8DBEFF" stroke-miterlimit="10"/>
<path d="M226.934 58.3267L256.035 99.1803L250.662 49.7969" stroke="#8DBEFF" stroke-miterlimit="10"/>
<path d="M257.603 100.3L274.616 54.5078L265.214 155.071L257.603 102.706L285.808 151.479L275.063 54.9568L298.344 98.504L240.59 165.396L256.036 104.632L259.394 102.544L308.194 146.541" stroke="#8DBEFF" stroke-miterlimit="10"/>
<path d="M294.314 72.0195L259.393 100.303L299.695 99.1804L315.356 106.139" stroke="#8DBEFF" stroke-miterlimit="10"/>
<path d="M137.621 134.869L158.216 119.156L174.776 101.647L163.584 74.7109L188.655 86.3834L211.936 89.077L213.279 108.381V133.693L205.221 177.967L203.43 236.33L194.923 211.189L189.103 230.493L196.266 263.266" stroke="#8DBEFF" stroke-miterlimit="10"/>
<path d="M166.273 210.291L173.437 176.172" stroke="#8DBEFF" stroke-miterlimit="10"/>
<path d="M189.103 87.2812L175.672 101.198L191.342 113.769L189.103 87.2812Z" stroke="#8DBEFF" stroke-miterlimit="10"/>
<path d="M190.047 87.2812L213.278 110.267L191.341 113.769L211.935 89.077" stroke="#8DBEFF" stroke-miterlimit="10"/>
<path d="M175.448 102.41L175.672 135.318L159.111 119.605L158.216 120.502L174.777 174.375L139.412 135.766L213.28 135.178L159.317 117.988L191.342 113.768" stroke="#8DBEFF" stroke-miterlimit="10"/>
<path d="M137.174 182.458L158.216 120.504" stroke="#8DBEFF" stroke-miterlimit="10"/>
<path d="M138.516 182.905L174.78 136.664" stroke="#8DBEFF" stroke-miterlimit="10"/>
<path d="M138.516 180.945L213.279 133.694L191.341 113.77L175.671 135.319L175.447 176.693L186.864 199.068L194.922 211.19" stroke="#8DBEFF" stroke-miterlimit="10"/>
<path d="M157.32 117.809L185.969 155.969L190.048 160.979L176.343 175.506" stroke="#8DBEFF" stroke-miterlimit="10"/>
<path d="M174.775 177.685L205.157 180.06L190.047 160.98L213.278 135.18" stroke="#8DBEFF" stroke-miterlimit="10"/>
<path d="M99.3421 238.801L93.0742 254.963L106.505 242.392L99.3421 238.801Z" stroke="#8DBEFF" stroke-miterlimit="10"/>
<path d="M99.3418 238.799L135.83 182.906L106.505 242.391" stroke="#8DBEFF" stroke-miterlimit="10"/>
<path d="M119.712 230.943L135.829 182.906L111.205 227.351" stroke="#8DBEFF" stroke-miterlimit="10"/>
<path d="M128.666 233.188L135.829 182.906" stroke="#8DBEFF" stroke-miterlimit="10"/>
<path d="M135.83 238.799L137.621 182.008" stroke="#8DBEFF" stroke-miterlimit="10"/>
<path d="M65.9882 179.504C65.5405 179.504 50.3184 197.462 50.3184 197.462L51.2138 212.277L65.9882 216.353L77.1809 205.094L65.0928 196.115L65.9882 179.504Z" stroke="#8DBEFF" stroke-miterlimit="10"/>
<path d="M51.303 197.927L66.2251 196.957L51.209 212.275" stroke="#8DBEFF" stroke-miterlimit="10"/>
<path d="M65.9883 216.353L66.2256 196.959L136.502 183.32L77.181 205.094" stroke="#8DBEFF" stroke-miterlimit="10"/>
<path d="M87.7012 222.379L103.819 203.074L97.5508 214.747" stroke="#8DBEFF" stroke-miterlimit="10"/>
<path d="M137.397 135.281L103.818 203.071L136.501 183.318" stroke="#8DBEFF" stroke-miterlimit="10"/>
<path d="M81.2096 117.362L62.8535 137.116L91.0592 146.543L67.3306 177.071L82.6333 117.362L91.6502 147.217L138.516 135.32L82.5527 115.566L137.173 182.01L66.4352 179.316L100.685 158.458L113.892 149.686L136.725 137.116L138.516 182.01" stroke="#8DBEFF" stroke-miterlimit="10"/>
<path d="M82.5527 117.735L139.412 98.9562L128.219 110.629L110.982 110.323L108.52 90.4264L82.5527 116.914L133.592 85.0391L127.771 109.731" stroke="#8DBEFF" stroke-miterlimit="10"/>
<path d="M133.592 85.0357L120.16 79.6484L122.399 95.8103L110.982 110.32" stroke="#8DBEFF" stroke-miterlimit="10"/>
<path d="M134.428 85.0363L139.411 98.9534L120.16 80.5469L108.52 90.4236" stroke="#8DBEFF" stroke-miterlimit="10"/>
<path d="M128.22 110.629L109.416 91.3242L122.4 95.8136L139.413 98.9562" stroke="#8DBEFF" stroke-miterlimit="10"/>
<path opacity="0.5" d="M176.572 147.664C183.371 147.664 188.884 142.137 188.884 135.319C188.884 128.5 183.371 122.973 176.572 122.973C169.772 122.973 164.26 128.5 164.26 135.319C164.26 142.137 169.772 147.664 176.572 147.664Z" fill="#42BAA8"/>
<path opacity="0.5" d="M82.1043 132.401C89.6459 132.401 95.7595 126.271 95.7595 118.708C95.7595 111.146 89.6459 105.016 82.1043 105.016C74.5628 105.016 68.4492 111.146 68.4492 118.708C68.4492 126.271 74.5628 132.401 82.1043 132.401Z" fill="#42BAA8"/>
<path opacity="0.5" d="M205.673 191.66C212.473 191.66 217.985 186.133 217.985 179.315C217.985 172.496 212.473 166.969 205.673 166.969C198.874 166.969 193.361 172.496 193.361 179.315C193.361 186.133 198.874 191.66 205.673 191.66Z" fill="#42BAA8"/>
<path opacity="0.5" d="M256.71 113.993C263.51 113.993 269.022 108.465 269.022 101.647C269.022 94.8282 263.51 89.3008 256.71 89.3008C249.911 89.3008 244.398 94.8282 244.398 101.647C244.398 108.465 249.911 113.993 256.71 113.993Z" fill="#42BAA8"/>
<path opacity="0.5" d="M240.593 179.09C247.393 179.09 252.905 173.563 252.905 166.744C252.905 159.926 247.393 154.398 240.593 154.398C233.794 154.398 228.281 159.926 228.281 166.744C228.281 173.563 233.794 179.09 240.593 179.09Z" fill="#42BAA8"/>
<path opacity="0.5" d="M248.205 223.086C255.004 223.086 260.517 217.559 260.517 210.74C260.517 203.922 255.004 198.395 248.205 198.395C241.405 198.395 235.893 203.922 235.893 210.74C235.893 217.559 241.405 223.086 248.205 223.086Z" fill="#42BAA8"/>
<path opacity="0.5" d="M138.067 151.258C146.845 151.258 153.961 144.122 153.961 135.32C153.961 126.518 146.845 119.383 138.067 119.383C129.29 119.383 122.174 126.518 122.174 135.32C122.174 144.122 129.29 151.258 138.067 151.258Z" fill="#2C77D4"/>
<path opacity="0.5" d="M136.055 203.784C146.934 203.784 155.754 194.94 155.754 184.031C155.754 173.121 146.934 164.277 136.055 164.277C125.175 164.277 116.355 173.121 116.355 184.031C116.355 194.94 125.175 203.784 136.055 203.784Z" fill="#2C77D4"/>
<path d="M241 174.602C245.283 174.602 248.755 171.121 248.755 166.826C248.755 162.532 245.283 159.051 241 159.051C236.718 159.051 233.246 162.532 233.246 166.826C233.246 171.121 236.718 174.602 241 174.602Z" fill="url(#paint10_radial_3794_87950)"/>
<path d="M263.61 161.132C266.533 161.132 268.902 158.757 268.902 155.826C268.902 152.895 266.533 150.52 263.61 150.52C260.688 150.52 258.318 152.895 258.318 155.826C258.318 158.757 260.688 161.132 263.61 161.132Z" fill="url(#paint11_radial_3794_87950)"/>
<path d="M286.502 157.207C288.962 157.207 290.956 155.207 290.956 152.74C290.956 150.273 288.962 148.273 286.502 148.273C284.041 148.273 282.047 150.273 282.047 152.74C282.047 155.207 284.041 157.207 286.502 157.207Z" fill="url(#paint12_radial_3794_87950)"/>
<path d="M308.664 150.924C310.506 150.924 311.999 149.426 311.999 147.579C311.999 145.732 310.506 144.234 308.664 144.234C306.821 144.234 305.328 145.732 305.328 147.579C305.328 149.426 306.821 150.924 308.664 150.924Z" fill="url(#paint13_radial_3794_87950)"/>
<path d="M315.602 107.375C316.331 107.375 316.923 106.782 316.923 106.051C316.923 105.32 316.331 104.727 315.602 104.727C314.873 104.727 314.281 105.32 314.281 106.051C314.281 106.782 314.873 107.375 315.602 107.375Z" fill="url(#paint14_radial_3794_87950)"/>
<path d="M294.114 73.7073C294.843 73.7073 295.434 73.1144 295.434 72.383C295.434 71.6515 294.843 71.0586 294.114 71.0586C293.384 71.0586 292.793 71.6515 292.793 72.383C292.793 73.1144 293.384 73.7073 294.114 73.7073Z" fill="url(#paint15_radial_3794_87950)"/>
<path d="M274.862 56.1968C275.759 56.1968 276.487 55.4672 276.487 54.5672C276.487 53.6671 275.759 52.9375 274.862 52.9375C273.964 52.9375 273.236 53.6671 273.236 54.5672C273.236 55.4672 273.964 56.1968 274.862 56.1968Z" fill="url(#paint16_radial_3794_87950)"/>
<path d="M250.31 50.5051C251 50.5051 251.559 49.9443 251.559 49.2525C251.559 48.5608 251 48 250.31 48C249.62 48 249.061 48.5608 249.061 49.2525C249.061 49.9443 249.62 50.5051 250.31 50.5051Z" fill="url(#paint17_radial_3794_87950)"/>
<path d="M226.581 59.4856C227.271 59.4856 227.83 58.9248 227.83 58.233C227.83 57.5413 227.271 56.9805 226.581 56.9805C225.891 56.9805 225.332 57.5413 225.332 58.233C225.332 58.9248 225.891 59.4856 226.581 59.4856Z" fill="url(#paint18_radial_3794_87950)"/>
<path d="M163.454 76.0949C164.144 76.0949 164.703 75.5341 164.703 74.8424C164.703 74.1506 164.144 73.5898 163.454 73.5898C162.764 73.5898 162.205 74.1506 162.205 74.8424C162.205 75.5341 162.764 76.0949 163.454 76.0949Z" fill="url(#paint19_radial_3794_87950)"/>
<path d="M240.459 80.3253C241.696 80.3253 242.698 79.3204 242.698 78.0806C242.698 76.8409 241.696 75.8359 240.459 75.8359C239.223 75.8359 238.221 76.8409 238.221 78.0806C238.221 79.3204 239.223 80.3253 240.459 80.3253Z" fill="url(#paint20_radial_3794_87950)"/>
<path d="M235.983 122.974C237.219 122.974 238.221 121.969 238.221 120.729C238.221 119.489 237.219 118.484 235.983 118.484C234.746 118.484 233.744 119.489 233.744 120.729C233.744 121.969 234.746 122.974 235.983 122.974Z" fill="url(#paint21_radial_3794_87950)"/>
<path d="M240.414 136.799C241.378 136.799 242.16 136.015 242.16 135.048C242.16 134.081 241.378 133.297 240.414 133.297C239.45 133.297 238.668 134.081 238.668 135.048C238.668 136.015 239.45 136.799 240.414 136.799Z" fill="url(#paint22_radial_3794_87950)"/>
<path d="M299.037 101.425C300.229 101.425 301.195 100.457 301.195 99.2615C301.195 98.0665 300.229 97.0977 299.037 97.0977C297.845 97.0977 296.879 98.0665 296.879 99.2615C296.879 100.457 297.845 101.425 299.037 101.425Z" fill="url(#paint23_radial_3794_87950)"/>
<path d="M301.052 171.127C302.894 171.127 304.388 169.629 304.388 167.782C304.388 165.935 302.894 164.438 301.052 164.438C299.21 164.438 297.717 165.935 297.717 167.782C297.717 169.629 299.21 171.127 301.052 171.127Z" fill="url(#paint24_radial_3794_87950)"/>
<path d="M278.89 176.961C281.351 176.961 283.345 174.961 283.345 172.494C283.345 170.027 281.351 168.027 278.89 168.027C276.43 168.027 274.436 170.027 274.436 172.494C274.436 174.961 276.43 176.961 278.89 176.961Z" fill="url(#paint25_radial_3794_87950)"/>
<path d="M259.134 186.722C262.056 186.722 264.426 184.347 264.426 181.416C264.426 178.485 262.056 176.109 259.134 176.109C256.211 176.109 253.842 178.485 253.842 181.416C253.842 184.347 256.211 186.722 259.134 186.722Z" fill="url(#paint26_radial_3794_87950)"/>
<path d="M277.772 198.512C280.109 198.512 282.003 196.613 282.003 194.27C282.003 191.927 280.109 190.027 277.772 190.027C275.435 190.027 273.541 191.927 273.541 194.27C273.541 196.613 275.435 198.512 277.772 198.512Z" fill="url(#paint27_radial_3794_87950)"/>
<path d="M298.083 191.213C300.017 191.213 301.584 189.641 301.584 187.702C301.584 185.763 300.017 184.191 298.083 184.191C296.15 184.191 294.582 185.763 294.582 187.702C294.582 189.641 296.15 191.213 298.083 191.213Z" fill="url(#paint28_radial_3794_87950)"/>
<path d="M298.083 219.045C300.017 219.045 301.584 217.473 301.584 215.534C301.584 213.595 300.017 212.023 298.083 212.023C296.15 212.023 294.582 213.595 294.582 215.534C294.582 217.473 296.15 219.045 298.083 219.045Z" fill="url(#paint29_radial_3794_87950)"/>
<path d="M314.931 233.527C315.784 233.527 316.476 232.834 316.476 231.979C316.476 231.123 315.784 230.43 314.931 230.43C314.078 230.43 313.387 231.123 313.387 231.979C313.387 232.834 314.078 233.527 314.931 233.527Z" fill="url(#paint30_radial_3794_87950)"/>
<path d="M267.027 251.938C267.88 251.938 268.572 251.244 268.572 250.389C268.572 249.533 267.88 248.84 267.027 248.84C266.174 248.84 265.482 249.533 265.482 250.389C265.482 251.244 266.174 251.938 267.027 251.938Z" fill="url(#paint31_radial_3794_87950)"/>
<path d="M259.863 253.281C260.716 253.281 261.408 252.588 261.408 251.732C261.408 250.877 260.716 250.184 259.863 250.184C259.01 250.184 258.318 250.877 258.318 251.732C258.318 252.588 259.01 253.281 259.863 253.281Z" fill="url(#paint32_radial_3794_87950)"/>
<path d="M271.951 268.996C272.804 268.996 273.495 268.303 273.495 267.447C273.495 266.592 272.804 265.898 271.951 265.898C271.098 265.898 270.406 266.592 270.406 267.447C270.406 268.303 271.098 268.996 271.951 268.996Z" fill="url(#paint33_radial_3794_87950)"/>
<path d="M324.499 187.619C326.433 187.619 328 186.047 328 184.108C328 182.169 326.433 180.598 324.499 180.598C322.566 180.598 320.998 182.169 320.998 184.108C320.998 186.047 322.566 187.619 324.499 187.619Z" fill="url(#paint34_radial_3794_87950)"/>
<path d="M242.081 166.994C242.311 166.825 242.498 166.604 242.627 166.349C242.756 166.094 242.823 165.812 242.824 165.526C242.823 165.042 242.631 164.578 242.289 164.236C241.948 163.893 241.485 163.7 241.002 163.699C240.52 163.7 240.057 163.893 239.716 164.236C239.376 164.579 239.184 165.043 239.184 165.526C239.184 165.812 239.251 166.094 239.379 166.349C239.507 166.604 239.694 166.825 239.923 166.994C239.404 167.209 238.96 167.573 238.648 168.04C238.335 168.508 238.168 169.058 238.168 169.621C238.168 169.697 238.198 169.77 238.252 169.824C238.306 169.878 238.379 169.908 238.455 169.908C238.53 169.907 238.601 169.876 238.654 169.822C238.707 169.769 238.737 169.696 238.737 169.621C238.738 169.019 238.977 168.442 239.401 168.016C239.826 167.59 240.402 167.35 241.002 167.349C241.602 167.35 242.178 167.59 242.602 168.016C243.027 168.442 243.266 169.019 243.267 169.621C243.267 169.697 243.297 169.77 243.351 169.824C243.405 169.878 243.478 169.908 243.554 169.908C243.629 169.907 243.701 169.876 243.754 169.822C243.806 169.769 243.836 169.696 243.836 169.621C243.836 169.058 243.669 168.508 243.356 168.04C243.044 167.573 242.6 167.209 242.081 166.994ZM239.753 165.526C239.752 165.362 239.784 165.198 239.847 165.046C239.909 164.893 240.001 164.755 240.117 164.638C240.233 164.521 240.371 164.428 240.523 164.365C240.675 164.302 240.838 164.269 241.002 164.269C241.334 164.271 241.652 164.403 241.887 164.639C242.122 164.874 242.254 165.193 242.255 165.526C242.254 165.859 242.122 166.178 241.887 166.412C241.652 166.647 241.334 166.779 241.002 166.779C240.671 166.779 240.353 166.647 240.119 166.412C239.884 166.177 239.753 165.859 239.753 165.526Z" fill="white"/>
<path d="M248.612 219.047C253.142 219.047 256.814 215.365 256.814 210.822C256.814 206.28 253.142 202.598 248.612 202.598C244.082 202.598 240.41 206.28 240.41 210.822C240.41 215.365 244.082 219.047 248.612 219.047Z" fill="url(#paint35_radial_3794_87950)"/>
<path d="M249.772 211.003C250.015 210.824 250.212 210.59 250.348 210.32C250.485 210.051 250.555 209.752 250.555 209.45C250.554 208.938 250.351 208.448 249.99 208.086C249.629 207.724 249.14 207.521 248.63 207.52C248.12 207.521 247.631 207.724 247.27 208.086C246.909 208.448 246.706 208.938 246.705 209.45C246.705 209.752 246.776 210.051 246.912 210.32C247.048 210.59 247.245 210.824 247.488 211.003C246.94 211.231 246.471 211.616 246.141 212.111C245.811 212.605 245.635 213.187 245.635 213.782C245.635 213.822 245.643 213.861 245.658 213.897C245.673 213.934 245.695 213.967 245.723 213.995C245.751 214.023 245.784 214.045 245.82 214.06C245.857 214.075 245.896 214.083 245.935 214.083C246.014 214.083 246.091 214.051 246.147 213.995C246.203 213.939 246.235 213.862 246.235 213.782C246.236 213.146 246.489 212.535 246.938 212.085C247.387 211.635 247.995 211.382 248.63 211.38C249.266 211.38 249.875 211.633 250.325 212.084C250.775 212.534 251.029 213.145 251.03 213.782C251.03 213.862 251.061 213.939 251.118 213.995C251.174 214.051 251.25 214.083 251.33 214.083C251.409 214.083 251.486 214.051 251.542 213.995C251.598 213.939 251.63 213.862 251.63 213.782C251.629 213.187 251.452 212.605 251.122 212.11C250.791 211.615 250.321 211.23 249.772 211.003ZM247.309 209.45C247.309 209.097 247.448 208.757 247.695 208.505C247.942 208.254 248.278 208.109 248.63 208.103C248.986 208.103 249.328 208.245 249.58 208.498C249.832 208.75 249.973 209.093 249.973 209.45C249.973 209.807 249.832 210.15 249.58 210.402C249.328 210.655 248.986 210.797 248.63 210.797C248.275 210.796 247.934 210.653 247.683 210.401C247.432 210.148 247.291 209.806 247.291 209.45H247.309Z" fill="white"/>
<path d="M256.894 109.504C261.3 109.504 264.872 105.922 264.872 101.504C264.872 97.0857 261.3 93.5039 256.894 93.5039C252.488 93.5039 248.916 97.0857 248.916 101.504C248.916 105.922 252.488 109.504 256.894 109.504Z" fill="url(#paint36_radial_3794_87950)"/>
<path d="M66.171 182.232C68.1046 182.232 69.6721 180.661 69.6721 178.722C69.6721 176.783 68.1046 175.211 66.171 175.211C64.2374 175.211 62.6699 176.783 62.6699 178.722C62.6699 180.661 64.2374 182.232 66.171 182.232Z" fill="url(#paint37_radial_3794_87950)"/>
<path d="M50.5011 200.639C52.4347 200.639 54.0022 199.067 54.0022 197.128C54.0022 195.189 52.4347 193.617 50.5011 193.617C48.5675 193.617 47 195.189 47 197.128C47 199.067 48.5675 200.639 50.5011 200.639Z" fill="url(#paint38_radial_3794_87950)"/>
<path d="M66.171 200.639C68.1046 200.639 69.6721 199.067 69.6721 197.128C69.6721 195.189 68.1046 193.617 66.171 193.617C64.2374 193.617 62.6699 195.189 62.6699 197.128C62.6699 199.067 64.2374 200.639 66.171 200.639Z" fill="url(#paint39_radial_3794_87950)"/>
<path d="M77.3644 207.822C79.298 207.822 80.8654 206.25 80.8654 204.312C80.8654 202.373 79.298 200.801 77.3644 200.801C75.4308 200.801 73.8633 202.373 73.8633 204.312C73.8633 206.25 75.4308 207.822 77.3644 207.822Z" fill="url(#paint40_radial_3794_87950)"/>
<path d="M66.171 219.045C68.1046 219.045 69.6721 217.473 69.6721 215.534C69.6721 213.595 68.1046 212.023 66.171 212.023C64.2374 212.023 62.6699 213.595 62.6699 215.534C62.6699 217.473 64.2374 219.045 66.171 219.045Z" fill="url(#paint41_radial_3794_87950)"/>
<path d="M51.8448 216.353C53.7784 216.353 55.3459 214.782 55.3459 212.843C55.3459 210.904 53.7784 209.332 51.8448 209.332C49.9112 209.332 48.3438 210.904 48.3438 212.843C48.3438 214.782 49.9112 216.353 51.8448 216.353Z" fill="url(#paint42_radial_3794_87950)"/>
<path d="M87.2719 223.653C88.0013 223.653 88.5927 223.06 88.5927 222.328C88.5927 221.597 88.0013 221.004 87.2719 221.004C86.5425 221.004 85.9512 221.597 85.9512 222.328C85.9512 223.06 86.5425 223.653 87.2719 223.653Z" fill="url(#paint43_radial_3794_87950)"/>
<path d="M97.1215 216.469C97.8509 216.469 98.4423 215.876 98.4423 215.145C98.4423 214.413 97.8509 213.82 97.1215 213.82C96.3921 213.82 95.8008 214.413 95.8008 215.145C95.8008 215.876 96.3921 216.469 97.1215 216.469Z" fill="url(#paint44_radial_3794_87950)"/>
<path d="M103.837 205.245C105.061 205.245 106.053 204.25 106.053 203.023C106.053 201.796 105.061 200.801 103.837 200.801C102.613 200.801 101.621 201.796 101.621 203.023C101.621 204.25 102.613 205.245 103.837 205.245Z" fill="url(#paint45_radial_3794_87950)"/>
<path d="M258.006 101.679C258.242 101.504 258.434 101.276 258.566 101.013C258.698 100.75 258.767 100.46 258.767 100.166C258.767 99.6679 258.569 99.1906 258.219 98.8387C257.868 98.4868 257.392 98.2891 256.895 98.2891C256.399 98.2902 255.924 98.4883 255.573 98.84C255.222 99.1917 255.025 99.6683 255.024 100.166C255.023 100.46 255.092 100.75 255.224 101.013C255.356 101.276 255.549 101.504 255.785 101.679C255.256 101.902 254.804 102.276 254.485 102.755C254.167 103.234 253.996 103.796 253.994 104.372C253.994 104.45 254.025 104.524 254.079 104.579C254.134 104.633 254.208 104.664 254.285 104.664C254.363 104.664 254.437 104.633 254.492 104.579C254.548 104.524 254.579 104.45 254.581 104.372C254.581 103.753 254.826 103.158 255.262 102.72C255.699 102.281 256.291 102.034 256.909 102.033C257.527 102.034 258.12 102.281 258.557 102.72C258.994 103.158 259.24 103.752 259.241 104.372C259.241 104.45 259.272 104.524 259.326 104.579C259.381 104.633 259.455 104.664 259.532 104.664C259.61 104.664 259.684 104.633 259.74 104.579C259.795 104.524 259.827 104.45 259.828 104.372C259.824 103.793 259.649 103.228 259.324 102.748C259 102.268 258.541 101.896 258.006 101.679ZM255.592 100.166C255.594 99.8243 255.729 99.4972 255.97 99.2559C256.211 99.0145 256.537 98.8784 256.877 98.8772C257.219 98.8772 257.546 99.0128 257.787 99.2543C258.029 99.4958 258.166 99.8235 258.167 100.166C258.167 100.509 258.031 100.837 257.789 101.08C257.547 101.322 257.219 101.459 256.877 101.459C256.536 101.457 256.209 101.321 255.968 101.078C255.728 100.836 255.592 100.508 255.592 100.166Z" fill="white"/>
<path d="M136.014 193.907C141.904 193.907 146.678 189.119 146.678 183.213C146.678 177.307 141.904 172.52 136.014 172.52C130.124 172.52 125.35 177.307 125.35 183.213C125.35 189.119 130.124 193.907 136.014 193.907Z" fill="url(#paint46_radial_3794_87950)"/>
<path d="M92.8682 257.162C94.463 257.162 95.7559 255.866 95.7559 254.267C95.7559 252.668 94.463 251.371 92.8682 251.371C91.2733 251.371 89.9805 252.668 89.9805 254.267C89.9805 255.866 91.2733 257.162 92.8682 257.162Z" fill="url(#paint47_radial_3794_87950)"/>
<path d="M99.8075 240.551C100.784 240.551 101.576 239.757 101.576 238.777C101.576 237.798 100.784 237.004 99.8075 237.004C98.8308 237.004 98.0391 237.798 98.0391 238.777C98.0391 239.757 98.8308 240.551 99.8075 240.551Z" fill="url(#paint48_radial_3794_87950)"/>
<path d="M106.972 243.246C107.948 243.246 108.74 242.452 108.74 241.473C108.74 240.493 107.948 239.699 106.972 239.699C105.995 239.699 105.203 240.493 105.203 241.473C105.203 242.452 105.995 243.246 106.972 243.246Z" fill="url(#paint49_radial_3794_87950)"/>
<path d="M111.001 229.328C111.978 229.328 112.769 228.534 112.769 227.555C112.769 226.575 111.978 225.781 111.001 225.781C110.024 225.781 109.232 226.575 109.232 227.555C109.232 228.534 110.024 229.328 111.001 229.328Z" fill="url(#paint50_radial_3794_87950)"/>
<path d="M119.507 233.367C120.483 233.367 121.275 232.573 121.275 231.594C121.275 230.614 120.483 229.82 119.507 229.82C118.53 229.82 117.738 230.614 117.738 231.594C117.738 232.573 118.53 233.367 119.507 233.367Z" fill="url(#paint51_radial_3794_87950)"/>
<path d="M128.013 235.164C128.989 235.164 129.781 234.37 129.781 233.391C129.781 232.411 128.989 231.617 128.013 231.617C127.036 231.617 126.244 232.411 126.244 233.391C126.244 234.37 127.036 235.164 128.013 235.164Z" fill="url(#paint52_radial_3794_87950)"/>
<path d="M136.071 241C137.048 241 137.84 240.206 137.84 239.226C137.84 238.247 137.048 237.453 136.071 237.453C135.094 237.453 134.303 238.247 134.303 239.226C134.303 240.206 135.094 241 136.071 241Z" fill="url(#paint53_radial_3794_87950)"/>
<path d="M137.496 183.444C137.812 183.211 138.069 182.906 138.246 182.556C138.424 182.205 138.516 181.817 138.517 181.424C138.516 180.758 138.252 180.121 137.783 179.65C137.314 179.18 136.678 178.915 136.014 178.914C135.351 178.915 134.715 179.18 134.246 179.65C133.777 180.121 133.513 180.758 133.511 181.424C133.512 181.817 133.605 182.205 133.782 182.556C133.96 182.906 134.216 183.211 134.532 183.444C133.819 183.74 133.209 184.241 132.779 184.884C132.35 185.527 132.12 186.284 132.119 187.058C132.119 187.161 132.16 187.261 132.233 187.334C132.306 187.407 132.405 187.448 132.509 187.448C132.612 187.448 132.711 187.407 132.784 187.334C132.857 187.261 132.898 187.161 132.898 187.058C132.898 186.224 133.228 185.425 133.816 184.836C134.404 184.246 135.201 183.915 136.032 183.915C136.863 183.915 137.661 184.246 138.248 184.836C138.836 185.425 139.166 186.224 139.166 187.058C139.166 187.11 139.176 187.161 139.196 187.208C139.216 187.256 139.245 187.299 139.282 187.336C139.318 187.372 139.362 187.401 139.41 187.42C139.457 187.439 139.509 187.449 139.56 187.448C139.663 187.448 139.763 187.407 139.836 187.334C139.909 187.261 139.95 187.161 139.95 187.058C139.946 186.279 139.711 185.519 139.274 184.875C138.836 184.231 138.218 183.733 137.496 183.444ZM134.295 181.424C134.295 180.966 134.476 180.528 134.799 180.205C135.121 179.881 135.558 179.7 136.014 179.7C136.471 179.7 136.908 179.881 137.232 180.204C137.555 180.528 137.737 180.966 137.738 181.424C137.737 181.881 137.555 182.32 137.232 182.643C136.908 182.966 136.471 183.148 136.014 183.148C135.789 183.148 135.565 183.103 135.356 183.016C135.148 182.93 134.958 182.803 134.799 182.643C134.639 182.483 134.512 182.293 134.426 182.083C134.339 181.874 134.295 181.65 134.295 181.424Z" fill="white"/>
<path d="M176.589 142.396C180.409 142.396 183.506 139.29 183.506 135.46C183.506 131.629 180.409 128.523 176.589 128.523C172.769 128.523 169.672 131.629 169.672 135.46C169.672 139.29 172.769 142.396 176.589 142.396Z" fill="url(#paint54_radial_3794_87950)"/>
<path d="M177.557 135.612C177.761 135.46 177.927 135.263 178.041 135.035C178.155 134.807 178.215 134.556 178.215 134.301C178.214 133.87 178.043 133.458 177.739 133.153C177.435 132.849 177.023 132.677 176.594 132.676C176.164 132.676 175.751 132.847 175.447 133.152C175.142 133.456 174.97 133.87 174.969 134.301C174.968 134.556 175.028 134.808 175.144 135.036C175.259 135.264 175.426 135.461 175.631 135.612C175.169 135.803 174.773 136.128 174.494 136.545C174.215 136.963 174.066 137.453 174.064 137.955C174.064 137.989 174.07 138.023 174.083 138.054C174.095 138.085 174.114 138.114 174.138 138.138C174.162 138.162 174.19 138.18 174.221 138.193C174.253 138.206 174.286 138.212 174.32 138.211C174.353 138.211 174.386 138.205 174.417 138.192C174.447 138.179 174.475 138.16 174.499 138.136C174.522 138.112 174.54 138.084 174.553 138.053C174.565 138.022 174.571 137.989 174.57 137.955C174.572 137.418 174.785 136.903 175.165 136.523C175.544 136.144 176.058 135.931 176.594 135.931C177.13 135.931 177.643 136.144 178.022 136.524C178.401 136.903 178.613 137.418 178.613 137.955C178.613 138.023 178.64 138.088 178.688 138.136C178.736 138.184 178.801 138.211 178.868 138.211C178.936 138.211 179.001 138.184 179.049 138.136C179.097 138.088 179.124 138.023 179.124 137.955C179.122 137.453 178.972 136.963 178.693 136.546C178.414 136.13 178.019 135.804 177.557 135.612ZM175.475 134.301C175.476 134.004 175.594 133.72 175.804 133.51C176.014 133.301 176.298 133.183 176.594 133.183C176.889 133.184 177.172 133.302 177.381 133.512C177.59 133.721 177.708 134.005 177.709 134.301C177.709 134.598 177.592 134.883 177.383 135.093C177.174 135.303 176.89 135.422 176.594 135.423C176.297 135.423 176.013 135.305 175.803 135.095C175.593 134.884 175.475 134.599 175.475 134.301Z" fill="white"/>
<path d="M82.1222 124.884C85.9424 124.884 89.0393 121.779 89.0393 117.948C89.0393 114.117 85.9424 111.012 82.1222 111.012C78.302 111.012 75.2051 114.117 75.2051 117.948C75.2051 121.779 78.302 124.884 82.1222 124.884Z" fill="url(#paint55_radial_3794_87950)"/>
<path d="M108.09 94.3566C110.179 94.3566 111.873 92.6582 111.873 90.5631C111.873 88.468 110.179 86.7695 108.09 86.7695C106 86.7695 104.307 88.468 104.307 90.5631C104.307 92.6582 106 94.3566 108.09 94.3566Z" fill="url(#paint56_radial_3794_87950)"/>
<path d="M119.283 84.0324C121.373 84.0324 123.066 82.334 123.066 80.2389C123.066 78.1437 121.373 76.4453 119.283 76.4453C117.194 76.4453 115.5 78.1437 115.5 80.2389C115.5 82.334 117.194 84.0324 119.283 84.0324Z" fill="url(#paint57_radial_3794_87950)"/>
<path d="M133.609 88.5207C135.699 88.5207 137.392 86.8223 137.392 84.7271C137.392 82.632 135.699 80.9336 133.609 80.9336C131.52 80.9336 129.826 82.632 129.826 84.7271C129.826 86.8223 131.52 88.5207 133.609 88.5207Z" fill="url(#paint58_radial_3794_87950)"/>
<path d="M138.982 102.439C141.072 102.439 142.765 100.74 142.765 98.6451C142.765 96.55 141.072 94.8516 138.982 94.8516C136.893 94.8516 135.199 96.55 135.199 98.6451C135.199 100.74 136.893 102.439 138.982 102.439Z" fill="url(#paint59_radial_3794_87950)"/>
<path d="M127.789 114.111C129.878 114.111 131.572 112.412 131.572 110.317C131.572 108.222 129.878 106.523 127.789 106.523C125.7 106.523 124.006 108.222 124.006 110.317C124.006 112.412 125.7 114.111 127.789 114.111Z" fill="url(#paint60_radial_3794_87950)"/>
<path d="M158.234 123.872C160.785 123.872 162.854 121.797 162.854 119.239C162.854 116.68 160.785 114.605 158.234 114.605C155.682 114.605 153.613 116.68 153.613 119.239C153.613 121.797 155.682 123.872 158.234 123.872Z" fill="url(#paint61_radial_3794_87950)"/>
<path d="M174.798 106.364C177.35 106.364 179.418 104.289 179.418 101.731C179.418 99.172 177.35 97.0977 174.798 97.0977C172.246 97.0977 170.178 99.172 170.178 101.731C170.178 104.289 172.246 106.364 174.798 106.364Z" fill="url(#paint62_radial_3794_87950)"/>
<path d="M189.572 92.4453C192.371 92.4453 194.64 90.17 194.64 87.3633C194.64 84.5565 192.371 82.2812 189.572 82.2812C186.773 82.2812 184.504 84.5565 184.504 87.3633C184.504 90.17 186.773 92.4453 189.572 92.4453Z" fill="url(#paint63_radial_3794_87950)"/>
<path d="M192.259 118.484C195.058 118.484 197.328 116.209 197.328 113.402C197.328 110.596 195.058 108.32 192.259 108.32C189.46 108.32 187.191 110.596 187.191 113.402C187.191 116.209 189.46 118.484 192.259 118.484Z" fill="url(#paint64_radial_3794_87950)"/>
<path d="M213.301 138.684C215.729 138.684 217.697 136.711 217.697 134.276C217.697 131.841 215.729 129.867 213.301 129.867C210.873 129.867 208.904 131.841 208.904 134.276C208.904 136.711 210.873 138.684 213.301 138.684Z" fill="url(#paint65_radial_3794_87950)"/>
<path d="M213.301 112.647C214.988 112.647 216.355 111.276 216.355 109.585C216.355 107.894 214.988 106.523 213.301 106.523C211.615 106.523 210.248 107.894 210.248 109.585C210.248 111.276 211.615 112.647 213.301 112.647Z" fill="url(#paint66_radial_3794_87950)"/>
<path d="M212.407 92.4439C214.093 92.4439 215.46 91.0731 215.46 89.3821C215.46 87.6911 214.093 86.3203 212.407 86.3203C210.721 86.3203 209.354 87.6911 209.354 89.3821C209.354 91.0731 210.721 92.4439 212.407 92.4439Z" fill="url(#paint67_radial_3794_87950)"/>
<path d="M110.328 112.763C112.417 112.763 114.111 111.064 114.111 108.969C114.111 106.874 112.417 105.176 110.328 105.176C108.239 105.176 106.545 106.874 106.545 108.969C106.545 111.064 108.239 112.763 110.328 112.763Z" fill="url(#paint68_radial_3794_87950)"/>
<path d="M122.416 98.8488C124.505 98.8488 126.199 97.1504 126.199 95.0553C126.199 92.9601 124.505 91.2617 122.416 91.2617C120.327 91.2617 118.633 92.9601 118.633 95.0553C118.633 97.1504 120.327 98.8488 122.416 98.8488Z" fill="url(#paint69_radial_3794_87950)"/>
<path d="M83.09 118.1C83.2943 117.948 83.4601 117.751 83.5744 117.523C83.6887 117.296 83.7481 117.044 83.748 116.789C83.7468 116.359 83.5757 115.946 83.2721 115.641C82.9684 115.337 82.5567 115.165 82.1272 115.164C81.697 115.164 81.2844 115.335 80.9797 115.64C80.6751 115.944 80.5033 116.358 80.5021 116.789C80.5017 117.045 80.5616 117.297 80.6767 117.524C80.7919 117.752 80.959 117.949 81.1647 118.1C80.7018 118.292 80.3059 118.617 80.027 119.034C79.7482 119.451 79.5987 119.941 79.5977 120.444C79.5971 120.477 79.6032 120.511 79.6158 120.542C79.6285 120.574 79.6473 120.602 79.6711 120.626C79.695 120.65 79.7234 120.669 79.7547 120.681C79.7859 120.694 79.8194 120.7 79.853 120.7C79.8863 120.7 79.9192 120.693 79.9499 120.68C79.9806 120.667 80.0085 120.648 80.0319 120.624C80.0552 120.6 80.0735 120.572 80.0858 120.541C80.0982 120.51 80.1042 120.477 80.1036 120.444C80.1047 119.906 80.3186 119.391 80.698 119.012C81.0773 118.632 81.5913 118.419 82.1272 118.419C82.6627 118.419 83.1765 118.632 83.5552 119.012C83.9338 119.392 84.1465 119.907 84.1465 120.444C84.1465 120.511 84.1734 120.577 84.2213 120.625C84.2691 120.673 84.3339 120.7 84.4016 120.7C84.4693 120.7 84.5343 120.673 84.5822 120.625C84.63 120.577 84.6569 120.511 84.6569 120.444C84.6547 119.942 84.5048 119.452 84.2261 119.035C83.9473 118.618 83.5522 118.293 83.09 118.1ZM81.0079 116.789C81.0091 116.492 81.1276 116.208 81.3374 115.999C81.5472 115.789 81.8311 115.671 82.1272 115.671C82.4225 115.673 82.7054 115.791 82.9142 116C83.123 116.209 83.2409 116.493 83.2421 116.789C83.2421 117.086 83.1249 117.371 82.9159 117.581C82.707 117.792 82.4233 117.91 82.1272 117.912C81.8304 117.912 81.5458 117.793 81.3358 117.583C81.1259 117.372 81.0079 117.087 81.0079 116.789Z" fill="white"/>
<path d="M205.691 186.841C209.511 186.841 212.608 183.736 212.608 179.905C212.608 176.074 209.511 172.969 205.691 172.969C201.87 172.969 198.773 176.074 198.773 179.905C198.773 183.736 201.87 186.841 205.691 186.841Z" fill="url(#paint70_radial_3794_87950)"/>
<path d="M175.636 181.336C178.188 181.336 180.256 179.262 180.256 176.703C180.256 174.145 178.188 172.07 175.636 172.07C173.084 172.07 171.016 174.145 171.016 176.703C171.016 179.262 173.084 181.336 175.636 181.336Z" fill="url(#paint71_radial_3794_87950)"/>
<path d="M186.829 202.885C188.763 202.885 190.33 201.313 190.33 199.374C190.33 197.435 188.763 195.863 186.829 195.863C184.896 195.863 183.328 197.435 183.328 199.374C183.328 201.313 184.896 202.885 186.829 202.885Z" fill="url(#paint72_radial_3794_87950)"/>
<path d="M195.334 215.006C197.392 215.006 199.059 213.333 199.059 211.27C199.059 209.207 197.392 207.535 195.334 207.535C193.277 207.535 191.609 209.207 191.609 211.27C191.609 213.333 193.277 215.006 195.334 215.006Z" fill="url(#paint73_radial_3794_87950)"/>
<path d="M189.515 232.515C190.83 232.515 191.896 231.446 191.896 230.127C191.896 228.808 190.83 227.738 189.515 227.738C188.199 227.738 187.133 228.808 187.133 230.127C187.133 231.446 188.199 232.515 189.515 232.515Z" fill="url(#paint74_radial_3794_87950)"/>
<path d="M202.945 238.352C203.766 238.352 204.432 237.685 204.432 236.862C204.432 236.038 203.766 235.371 202.945 235.371C202.124 235.371 201.459 236.038 201.459 236.862C201.459 237.685 202.124 238.352 202.945 238.352Z" fill="url(#paint75_radial_3794_87950)"/>
<path d="M166.682 212.313C167.503 212.313 168.168 211.646 168.168 210.823C168.168 209.999 167.503 209.332 166.682 209.332C165.861 209.332 165.195 209.999 165.195 210.823C165.195 211.646 165.861 212.313 166.682 212.313Z" fill="url(#paint76_radial_3794_87950)"/>
<path d="M187.275 158.438C188.096 158.438 188.762 157.771 188.762 156.948C188.762 156.124 188.096 155.457 187.275 155.457C186.455 155.457 185.789 156.124 185.789 156.948C185.789 157.771 186.455 158.438 187.275 158.438Z" fill="url(#paint77_radial_3794_87950)"/>
<path d="M112.061 152.153C112.882 152.153 113.547 151.486 113.547 150.662C113.547 149.839 112.882 149.172 112.061 149.172C111.24 149.172 110.574 149.839 110.574 150.662C110.574 151.486 111.24 152.153 112.061 152.153Z" fill="url(#paint78_radial_3794_87950)"/>
<path d="M100.869 159.786C101.69 159.786 102.356 159.118 102.356 158.295C102.356 157.472 101.69 156.805 100.869 156.805C100.048 156.805 99.3828 157.472 99.3828 158.295C99.3828 159.118 100.048 159.786 100.869 159.786Z" fill="url(#paint79_radial_3794_87950)"/>
<path d="M90.5705 149.46C92.0096 149.46 93.1762 148.29 93.1762 146.847C93.1762 145.404 92.0096 144.234 90.5705 144.234C89.1314 144.234 87.9648 145.404 87.9648 146.847C87.9648 148.29 89.1314 149.46 90.5705 149.46Z" fill="url(#paint80_radial_3794_87950)"/>
<path d="M63.2598 138.239C64.0807 138.239 64.7462 137.571 64.7462 136.748C64.7462 135.925 64.0807 135.258 63.2598 135.258C62.4389 135.258 61.7734 135.925 61.7734 136.748C61.7734 137.571 62.4389 138.239 63.2598 138.239Z" fill="url(#paint81_radial_3794_87950)"/>
<path d="M195.783 265.286C196.604 265.286 197.27 264.618 197.27 263.795C197.27 262.972 196.604 262.305 195.783 262.305C194.962 262.305 194.297 262.972 194.297 263.795C194.297 264.618 194.962 265.286 195.783 265.286Z" fill="url(#paint82_radial_3794_87950)"/>
<path d="M206.658 180.057C206.863 179.905 207.028 179.708 207.143 179.48C207.257 179.253 207.317 179.001 207.316 178.746C207.315 178.316 207.144 177.903 206.84 177.598C206.537 177.294 206.125 177.122 205.696 177.121C205.265 177.121 204.853 177.292 204.548 177.597C204.243 177.901 204.072 178.315 204.07 178.746C204.07 179.002 204.13 179.254 204.245 179.481C204.36 179.709 204.527 179.906 204.733 180.057C204.27 180.249 203.874 180.574 203.595 180.991C203.317 181.408 203.167 181.898 203.166 182.401C203.165 182.434 203.172 182.468 203.184 182.499C203.197 182.531 203.216 182.559 203.24 182.583C203.263 182.607 203.292 182.626 203.323 182.638C203.354 182.651 203.388 182.657 203.421 182.657C203.455 182.657 203.488 182.65 203.518 182.637C203.549 182.624 203.577 182.605 203.6 182.581C203.624 182.558 203.642 182.529 203.654 182.498C203.667 182.467 203.673 182.434 203.672 182.401C203.673 181.863 203.887 181.348 204.266 180.969C204.646 180.589 205.16 180.376 205.696 180.376C206.231 180.376 206.745 180.589 207.124 180.969C207.502 181.349 207.715 181.864 207.715 182.401C207.715 182.469 207.742 182.534 207.79 182.582C207.837 182.63 207.902 182.657 207.97 182.657C208.038 182.657 208.103 182.63 208.151 182.582C208.198 182.534 208.225 182.469 208.225 182.401C208.223 181.899 208.073 181.409 207.794 180.992C207.516 180.575 207.121 180.25 206.658 180.057ZM204.576 178.746C204.577 178.449 204.696 178.165 204.906 177.956C205.116 177.746 205.399 177.628 205.696 177.628C205.991 177.63 206.274 177.748 206.483 177.957C206.691 178.167 206.809 178.45 206.81 178.746C206.81 179.043 206.693 179.328 206.484 179.538C206.275 179.749 205.992 179.867 205.696 179.869C205.399 179.869 205.114 179.75 204.904 179.54C204.694 179.329 204.576 179.044 204.576 178.746Z" fill="white"/>
<path d="M137.804 142.279C141.592 142.279 144.663 139.2 144.663 135.401C144.663 131.603 141.592 128.523 137.804 128.523C134.016 128.523 130.945 131.603 130.945 135.401C130.945 139.2 134.016 142.279 137.804 142.279Z" fill="url(#paint83_radial_3794_87950)"/>
<path d="M138.74 135.542C138.944 135.393 139.11 135.198 139.225 134.972C139.339 134.747 139.399 134.498 139.398 134.245C139.397 133.817 139.227 133.407 138.925 133.105C138.622 132.802 138.213 132.633 137.787 132.633C137.575 132.633 137.366 132.675 137.171 132.756C136.976 132.836 136.799 132.955 136.65 133.105C136.501 133.255 136.382 133.432 136.302 133.628C136.221 133.823 136.179 134.033 136.179 134.245C136.179 134.497 136.238 134.746 136.352 134.971C136.465 135.197 136.63 135.392 136.833 135.542C136.374 135.733 135.981 136.055 135.705 136.469C135.428 136.883 135.28 137.369 135.279 137.867C135.28 137.935 135.308 137.998 135.356 138.046C135.403 138.093 135.467 138.119 135.534 138.119C135.601 138.119 135.665 138.092 135.712 138.045C135.759 137.998 135.785 137.934 135.785 137.867C135.785 137.335 135.996 136.825 136.371 136.448C136.747 136.072 137.256 135.861 137.787 135.861C138.318 135.861 138.827 136.072 139.203 136.448C139.579 136.824 139.791 137.335 139.792 137.867C139.792 137.934 139.819 137.998 139.866 138.045C139.913 138.092 139.976 138.119 140.043 138.119C140.109 138.119 140.173 138.092 140.22 138.045C140.267 137.998 140.294 137.934 140.294 137.867C140.293 137.369 140.145 136.882 139.869 136.468C139.592 136.054 139.199 135.732 138.74 135.542ZM136.681 134.245C136.682 133.951 136.799 133.669 137.006 133.462C137.213 133.254 137.494 133.137 137.787 133.136C138.079 133.137 138.36 133.254 138.567 133.462C138.774 133.669 138.891 133.951 138.892 134.245C138.891 134.538 138.774 134.82 138.567 135.027C138.36 135.235 138.079 135.352 137.787 135.353C137.497 135.348 137.222 135.229 137.019 135.023C136.816 134.816 136.701 134.539 136.698 134.249L136.681 134.245Z" fill="white"/>
</g>
<defs>
<radialGradient id="paint0_radial_3794_87950" cx="0" cy="0" r="1" gradientUnits="userSpaceOnUse" gradientTransform="translate(175.5 144) rotate(140.631) scale(227.016 277.091)">
<stop stop-color="#F8FBFF"/>
<stop offset="1" stop-color="#DDECFF"/>
</radialGradient>
<linearGradient id="paint1_linear_3794_87950" x1="4" y1="78.0003" x2="216" y2="78.0002" gradientUnits="userSpaceOnUse">
<stop stop-color="#77B1FF"/>
<stop offset="1" stop-color="#DCEBFF"/>
</linearGradient>
<linearGradient id="paint2_linear_3794_87950" x1="346.624" y1="287.091" x2="15.3066" y2="287.091" gradientUnits="userSpaceOnUse">
<stop stop-color="#DCEBFF"/>
<stop offset="1" stop-color="#DCEBFF"/>
</linearGradient>
<linearGradient id="paint3_linear_3794_87950" x1="15.3086" y1="25.436" x2="338.972" y2="25.4357" gradientUnits="userSpaceOnUse">
<stop stop-color="#DCEBFF"/>
<stop offset="1" stop-color="#DCEBFF"/>
</linearGradient>
<linearGradient id="paint4_linear_3794_87950" x1="351" y1="256" x2="385" y2="256" gradientUnits="userSpaceOnUse">
<stop stop-color="#B9D3F5"/>
<stop offset="0.430301" stop-color="#9EC6FC"/>
<stop offset="1" stop-color="#D8E8FF"/>
</linearGradient>
<linearGradient id="paint5_linear_3794_87950" x1="4" y1="2.00028" x2="38" y2="2.00028" gradientUnits="userSpaceOnUse">
<stop stop-color="#B9D3F5"/>
<stop offset="0.430301" stop-color="#9EC6FC"/>
<stop offset="1" stop-color="#D8E8FF"/>
</linearGradient>
<linearGradient id="paint6_linear_3794_87950" x1="351" y1="289" x2="378" y2="289" gradientUnits="userSpaceOnUse">
<stop stop-color="#D8E8FF"/>
<stop offset="1" stop-color="#D9E9FF"/>
</linearGradient>
<linearGradient id="paint7_linear_3794_87950" x1="-2.03302e-06" y1="9.993" x2="381.617" y2="9.99297" gradientUnits="userSpaceOnUse">
<stop stop-color="#016EFF"/>
<stop offset="1" stop-color="#016EFF" stop-opacity="0"/>
</linearGradient>
<linearGradient id="paint8_linear_3794_87950" x1="351" y1="2.00027" x2="605" y2="2.0002" gradientUnits="userSpaceOnUse">
<stop stop-color="#BBD4F5"/>
<stop offset="1" stop-color="#E4F0FF"/>
</linearGradient>
<linearGradient id="paint9_linear_3794_87950" x1="73" y1="2.00028" x2="350" y2="2.00019" gradientUnits="userSpaceOnUse">
<stop stop-color="#2883FD"/>
<stop offset="1" stop-color="#BBD4F4"/>
</linearGradient>
<radialGradient id="paint10_radial_3794_87950" cx="0" cy="0" r="1" gradientUnits="userSpaceOnUse" gradientTransform="translate(237.123 163.195) scale(13.2029 13.2393)">
<stop offset="0.03" stop-color="#CCFFFF"/>
<stop offset="0.18" stop-color="#B1F2EE"/>
<stop offset="0.57" stop-color="#76D4C9"/>
<stop offset="0.85" stop-color="#50C1B1"/>
<stop offset="1" stop-color="#42BAA8"/>
</radialGradient>
<radialGradient id="paint11_radial_3794_87950" cx="0" cy="0" r="1" gradientUnits="userSpaceOnUse" gradientTransform="translate(260.964 153.348) scale(9.01239 9.03717)">
<stop offset="0.03" stop-color="#CCFFFF"/>
<stop offset="0.18" stop-color="#B1F2EE"/>
<stop offset="0.57" stop-color="#76D4C9"/>
<stop offset="0.85" stop-color="#50C1B1"/>
<stop offset="1" stop-color="#42BAA8"/>
</radialGradient>
<radialGradient id="paint12_radial_3794_87950" cx="0" cy="0" r="1" gradientUnits="userSpaceOnUse" gradientTransform="translate(284.276 150.657) scale(7.58867 7.60954)">
<stop offset="0.03" stop-color="#CCFFFF"/>
<stop offset="0.18" stop-color="#B1F2EE"/>
<stop offset="0.57" stop-color="#76D4C9"/>
<stop offset="0.85" stop-color="#50C1B1"/>
<stop offset="1" stop-color="#42BAA8"/>
</radialGradient>
<radialGradient id="paint13_radial_3794_87950" cx="0" cy="0" r="1" gradientUnits="userSpaceOnUse" gradientTransform="translate(306.998 146.017) scale(5.68144 5.69705)">
<stop offset="0.03" stop-color="#CCFFFF"/>
<stop offset="0.18" stop-color="#B1F2EE"/>
<stop offset="0.57" stop-color="#76D4C9"/>
<stop offset="0.85" stop-color="#50C1B1"/>
<stop offset="1" stop-color="#42BAA8"/>
</radialGradient>
<radialGradient id="paint14_radial_3794_87950" cx="0" cy="0" r="1" gradientUnits="userSpaceOnUse" gradientTransform="translate(314.944 105.431) scale(2.25199 2.25817)">
<stop offset="0.03" stop-color="#CCFFFF"/>
<stop offset="0.18" stop-color="#B1F2EE"/>
<stop offset="0.57" stop-color="#76D4C9"/>
<stop offset="0.85" stop-color="#50C1B1"/>
<stop offset="1" stop-color="#42BAA8"/>
</radialGradient>
<radialGradient id="paint15_radial_3794_87950" cx="0" cy="0" r="1" gradientUnits="userSpaceOnUse" gradientTransform="translate(293.456 71.7634) scale(2.25199 2.25817)">
<stop offset="0.03" stop-color="#CCFFFF"/>
<stop offset="0.18" stop-color="#B1F2EE"/>
<stop offset="0.57" stop-color="#76D4C9"/>
<stop offset="0.85" stop-color="#50C1B1"/>
<stop offset="1" stop-color="#42BAA8"/>
</radialGradient>
<radialGradient id="paint16_radial_3794_87950" cx="0" cy="0" r="1" gradientUnits="userSpaceOnUse" gradientTransform="translate(274.051 53.8084) scale(2.77132 2.77894)">
<stop offset="0.03" stop-color="#CCFFFF"/>
<stop offset="0.18" stop-color="#B1F2EE"/>
<stop offset="0.57" stop-color="#76D4C9"/>
<stop offset="0.85" stop-color="#50C1B1"/>
<stop offset="1" stop-color="#42BAA8"/>
</radialGradient>
<radialGradient id="paint17_radial_3794_87950" cx="0" cy="0" r="1" gradientUnits="userSpaceOnUse" gradientTransform="translate(249.687 48.6689) scale(2.13109 2.13696)">
<stop offset="0.03" stop-color="#CCFFFF"/>
<stop offset="0.18" stop-color="#B1F2EE"/>
<stop offset="0.57" stop-color="#76D4C9"/>
<stop offset="0.85" stop-color="#50C1B1"/>
<stop offset="1" stop-color="#42BAA8"/>
</radialGradient>
<radialGradient id="paint18_radial_3794_87950" cx="0" cy="0" r="1" gradientUnits="userSpaceOnUse" gradientTransform="translate(225.959 57.6494) scale(2.13109 2.13696)">
<stop offset="0.03" stop-color="#CCFFFF"/>
<stop offset="0.18" stop-color="#B1F2EE"/>
<stop offset="0.57" stop-color="#76D4C9"/>
<stop offset="0.85" stop-color="#50C1B1"/>
<stop offset="1" stop-color="#42BAA8"/>
</radialGradient>
<radialGradient id="paint19_radial_3794_87950" cx="0" cy="0" r="1" gradientUnits="userSpaceOnUse" gradientTransform="translate(162.832 74.2588) scale(2.13109 2.13696)">
<stop offset="0.03" stop-color="#CCFFFF"/>
<stop offset="0.18" stop-color="#B1F2EE"/>
<stop offset="0.57" stop-color="#76D4C9"/>
<stop offset="0.85" stop-color="#50C1B1"/>
<stop offset="1" stop-color="#42BAA8"/>
</radialGradient>
<radialGradient id="paint20_radial_3794_87950" cx="0" cy="0" r="1" gradientUnits="userSpaceOnUse" gradientTransform="translate(239.34 77.0301) scale(3.81 3.82048)">
<stop offset="0.03" stop-color="#CCFFFF"/>
<stop offset="0.18" stop-color="#B1F2EE"/>
<stop offset="0.57" stop-color="#76D4C9"/>
<stop offset="0.85" stop-color="#50C1B1"/>
<stop offset="1" stop-color="#42BAA8"/>
</radialGradient>
<radialGradient id="paint21_radial_3794_87950" cx="0" cy="0" r="1" gradientUnits="userSpaceOnUse" gradientTransform="translate(234.863 119.679) scale(3.81 3.82048)">
<stop offset="0.03" stop-color="#CCFFFF"/>
<stop offset="0.18" stop-color="#B1F2EE"/>
<stop offset="0.57" stop-color="#76D4C9"/>
<stop offset="0.85" stop-color="#50C1B1"/>
<stop offset="1" stop-color="#42BAA8"/>
</radialGradient>
<radialGradient id="paint22_radial_3794_87950" cx="0" cy="0" r="1" gradientUnits="userSpaceOnUse" gradientTransform="translate(239.541 134.231) scale(2.97279 2.98097)">
<stop offset="0.03" stop-color="#CCFFFF"/>
<stop offset="0.18" stop-color="#B1F2EE"/>
<stop offset="0.57" stop-color="#76D4C9"/>
<stop offset="0.85" stop-color="#50C1B1"/>
<stop offset="1" stop-color="#42BAA8"/>
</radialGradient>
<radialGradient id="paint23_radial_3794_87950" cx="0" cy="0" r="1" gradientUnits="userSpaceOnUse" gradientTransform="translate(297.958 98.2514) scale(3.6757 3.6858)">
<stop offset="0.03" stop-color="#CCFFFF"/>
<stop offset="0.18" stop-color="#B1F2EE"/>
<stop offset="0.57" stop-color="#76D4C9"/>
<stop offset="0.85" stop-color="#50C1B1"/>
<stop offset="1" stop-color="#42BAA8"/>
</radialGradient>
<radialGradient id="paint24_radial_3794_87950" cx="0" cy="0" r="1" gradientUnits="userSpaceOnUse" gradientTransform="translate(299.387 166.22) scale(5.68144 5.69707)">
<stop offset="0.03" stop-color="#CCFFFF"/>
<stop offset="0.18" stop-color="#B1F2EE"/>
<stop offset="0.57" stop-color="#76D4C9"/>
<stop offset="0.85" stop-color="#50C1B1"/>
<stop offset="1" stop-color="#42BAA8"/>
</radialGradient>
<radialGradient id="paint25_radial_3794_87950" cx="0" cy="0" r="1" gradientUnits="userSpaceOnUse" gradientTransform="translate(276.665 170.411) scale(7.58867 7.60955)">
<stop offset="0.03" stop-color="#CCFFFF"/>
<stop offset="0.18" stop-color="#B1F2EE"/>
<stop offset="0.57" stop-color="#76D4C9"/>
<stop offset="0.85" stop-color="#50C1B1"/>
<stop offset="1" stop-color="#42BAA8"/>
</radialGradient>
<radialGradient id="paint26_radial_3794_87950" cx="0" cy="0" r="1" gradientUnits="userSpaceOnUse" gradientTransform="translate(256.488 178.938) scale(9.01239 9.03718)">
<stop offset="0.03" stop-color="#CCFFFF"/>
<stop offset="0.18" stop-color="#B1F2EE"/>
<stop offset="0.57" stop-color="#76D4C9"/>
<stop offset="0.85" stop-color="#50C1B1"/>
<stop offset="1" stop-color="#42BAA8"/>
</radialGradient>
<radialGradient id="paint27_radial_3794_87950" cx="0" cy="0" r="1" gradientUnits="userSpaceOnUse" gradientTransform="translate(275.659 192.29) scale(7.20812 7.22795)">
<stop offset="0.03" stop-color="#CCFFFF"/>
<stop offset="0.18" stop-color="#B1F2EE"/>
<stop offset="0.57" stop-color="#76D4C9"/>
<stop offset="0.85" stop-color="#50C1B1"/>
<stop offset="1" stop-color="#42BAA8"/>
</radialGradient>
<radialGradient id="paint28_radial_3794_87950" cx="0" cy="0" r="1" gradientUnits="userSpaceOnUse" gradientTransform="translate(296.333 186.063) scale(5.96349 5.97989)">
<stop offset="0.03" stop-color="#CCFFFF"/>
<stop offset="0.18" stop-color="#B1F2EE"/>
<stop offset="0.57" stop-color="#76D4C9"/>
<stop offset="0.85" stop-color="#50C1B1"/>
<stop offset="1" stop-color="#42BAA8"/>
</radialGradient>
<radialGradient id="paint29_radial_3794_87950" cx="0" cy="0" r="1" gradientUnits="userSpaceOnUse" gradientTransform="translate(296.333 213.896) scale(5.96349 5.97989)">
<stop offset="0.03" stop-color="#CCFFFF"/>
<stop offset="0.18" stop-color="#B1F2EE"/>
<stop offset="0.57" stop-color="#76D4C9"/>
<stop offset="0.85" stop-color="#50C1B1"/>
<stop offset="1" stop-color="#42BAA8"/>
</radialGradient>
<radialGradient id="paint30_radial_3794_87950" cx="0" cy="0" r="1" gradientUnits="userSpaceOnUse" gradientTransform="translate(314.161 231.256) scale(2.63254 2.63978)">
<stop offset="0.03" stop-color="#CCFFFF"/>
<stop offset="0.18" stop-color="#B1F2EE"/>
<stop offset="0.57" stop-color="#76D4C9"/>
<stop offset="0.85" stop-color="#50C1B1"/>
<stop offset="1" stop-color="#42BAA8"/>
</radialGradient>
<radialGradient id="paint31_radial_3794_87950" cx="0" cy="0" r="1" gradientUnits="userSpaceOnUse" gradientTransform="translate(266.257 249.666) scale(2.63253 2.63978)">
<stop offset="0.03" stop-color="#CCFFFF"/>
<stop offset="0.18" stop-color="#B1F2EE"/>
<stop offset="0.57" stop-color="#76D4C9"/>
<stop offset="0.85" stop-color="#50C1B1"/>
<stop offset="1" stop-color="#42BAA8"/>
</radialGradient>
<radialGradient id="paint32_radial_3794_87950" cx="0" cy="0" r="1" gradientUnits="userSpaceOnUse" gradientTransform="translate(259.093 251.01) scale(2.63253 2.63978)">
<stop offset="0.03" stop-color="#CCFFFF"/>
<stop offset="0.18" stop-color="#B1F2EE"/>
<stop offset="0.57" stop-color="#76D4C9"/>
<stop offset="0.85" stop-color="#50C1B1"/>
<stop offset="1" stop-color="#42BAA8"/>
</radialGradient>
<radialGradient id="paint33_radial_3794_87950" cx="0" cy="0" r="1" gradientUnits="userSpaceOnUse" gradientTransform="translate(271.181 266.724) scale(2.63253 2.63978)">
<stop offset="0.03" stop-color="#CCFFFF"/>
<stop offset="0.18" stop-color="#B1F2EE"/>
<stop offset="0.57" stop-color="#76D4C9"/>
<stop offset="0.85" stop-color="#50C1B1"/>
<stop offset="1" stop-color="#42BAA8"/>
</radialGradient>
<radialGradient id="paint34_radial_3794_87950" cx="0" cy="0" r="1" gradientUnits="userSpaceOnUse" gradientTransform="translate(322.749 182.47) scale(5.96349 5.97989)">
<stop offset="0.03" stop-color="#CCFFFF"/>
<stop offset="0.18" stop-color="#B1F2EE"/>
<stop offset="0.57" stop-color="#76D4C9"/>
<stop offset="0.85" stop-color="#50C1B1"/>
<stop offset="1" stop-color="#42BAA8"/>
</radialGradient>
<radialGradient id="paint35_radial_3794_87950" cx="0" cy="0" r="1" gradientUnits="userSpaceOnUse" gradientTransform="translate(244.511 206.979) scale(13.9685 14.007)">
<stop offset="0.03" stop-color="#CCFFFF"/>
<stop offset="0.18" stop-color="#B1F2EE"/>
<stop offset="0.57" stop-color="#76D4C9"/>
<stop offset="0.85" stop-color="#50C1B1"/>
<stop offset="1" stop-color="#42BAA8"/>
</radialGradient>
<radialGradient id="paint36_radial_3794_87950" cx="0" cy="0" r="1" gradientUnits="userSpaceOnUse" gradientTransform="translate(252.905 97.7688) scale(13.5835 13.6209)">
<stop offset="0.03" stop-color="#CCFFFF"/>
<stop offset="0.18" stop-color="#B1F2EE"/>
<stop offset="0.57" stop-color="#76D4C9"/>
<stop offset="0.85" stop-color="#50C1B1"/>
<stop offset="1" stop-color="#42BAA8"/>
</radialGradient>
<radialGradient id="paint37_radial_3794_87950" cx="0" cy="0" r="1" gradientUnits="userSpaceOnUse" gradientTransform="translate(64.4205 177.083) scale(5.96348 5.97989)">
<stop offset="0.03" stop-color="#CCFFFF"/>
<stop offset="0.18" stop-color="#B1F2EE"/>
<stop offset="0.57" stop-color="#76D4C9"/>
<stop offset="0.85" stop-color="#50C1B1"/>
<stop offset="1" stop-color="#42BAA8"/>
</radialGradient>
<radialGradient id="paint38_radial_3794_87950" cx="0" cy="0" r="1" gradientUnits="userSpaceOnUse" gradientTransform="translate(48.7505 195.489) scale(5.96348 5.97989)">
<stop offset="0.03" stop-color="#CCFFFF"/>
<stop offset="0.18" stop-color="#B1F2EE"/>
<stop offset="0.57" stop-color="#76D4C9"/>
<stop offset="0.85" stop-color="#50C1B1"/>
<stop offset="1" stop-color="#42BAA8"/>
</radialGradient>
<radialGradient id="paint39_radial_3794_87950" cx="0" cy="0" r="1" gradientUnits="userSpaceOnUse" gradientTransform="translate(64.4205 195.489) scale(5.96348 5.97989)">
<stop offset="0.03" stop-color="#CCFFFF"/>
<stop offset="0.18" stop-color="#B1F2EE"/>
<stop offset="0.57" stop-color="#76D4C9"/>
<stop offset="0.85" stop-color="#50C1B1"/>
<stop offset="1" stop-color="#42BAA8"/>
</radialGradient>
<radialGradient id="paint40_radial_3794_87950" cx="0" cy="0" r="1" gradientUnits="userSpaceOnUse" gradientTransform="translate(75.6138 202.673) scale(5.96348 5.97989)">
<stop offset="0.03" stop-color="#CCFFFF"/>
<stop offset="0.18" stop-color="#B1F2EE"/>
<stop offset="0.57" stop-color="#76D4C9"/>
<stop offset="0.85" stop-color="#50C1B1"/>
<stop offset="1" stop-color="#42BAA8"/>
</radialGradient>
<radialGradient id="paint41_radial_3794_87950" cx="0" cy="0" r="1" gradientUnits="userSpaceOnUse" gradientTransform="translate(64.4205 213.896) scale(5.96348 5.97989)">
<stop offset="0.03" stop-color="#CCFFFF"/>
<stop offset="0.18" stop-color="#B1F2EE"/>
<stop offset="0.57" stop-color="#76D4C9"/>
<stop offset="0.85" stop-color="#50C1B1"/>
<stop offset="1" stop-color="#42BAA8"/>
</radialGradient>
<radialGradient id="paint42_radial_3794_87950" cx="0" cy="0" r="1" gradientUnits="userSpaceOnUse" gradientTransform="translate(50.0943 211.204) scale(5.96348 5.97989)">
<stop offset="0.03" stop-color="#CCFFFF"/>
<stop offset="0.18" stop-color="#B1F2EE"/>
<stop offset="0.57" stop-color="#76D4C9"/>
<stop offset="0.85" stop-color="#50C1B1"/>
<stop offset="1" stop-color="#42BAA8"/>
</radialGradient>
<radialGradient id="paint43_radial_3794_87950" cx="0" cy="0" r="1" gradientUnits="userSpaceOnUse" gradientTransform="translate(86.6138 221.709) scale(2.25198 2.25818)">
<stop offset="0.03" stop-color="#CCFFFF"/>
<stop offset="0.18" stop-color="#B1F2EE"/>
<stop offset="0.57" stop-color="#76D4C9"/>
<stop offset="0.85" stop-color="#50C1B1"/>
<stop offset="1" stop-color="#42BAA8"/>
</radialGradient>
<radialGradient id="paint44_radial_3794_87950" cx="0" cy="0" r="1" gradientUnits="userSpaceOnUse" gradientTransform="translate(96.4634 214.525) scale(2.25198 2.25818)">
<stop offset="0.03" stop-color="#CCFFFF"/>
<stop offset="0.18" stop-color="#B1F2EE"/>
<stop offset="0.57" stop-color="#76D4C9"/>
<stop offset="0.85" stop-color="#50C1B1"/>
<stop offset="1" stop-color="#42BAA8"/>
</radialGradient>
<radialGradient id="paint45_radial_3794_87950" cx="0" cy="0" r="1" gradientUnits="userSpaceOnUse" gradientTransform="translate(102.731 201.986) scale(3.77418 3.78458)">
<stop offset="0.03" stop-color="#CCFFFF"/>
<stop offset="0.18" stop-color="#B1F2EE"/>
<stop offset="0.57" stop-color="#76D4C9"/>
<stop offset="0.85" stop-color="#50C1B1"/>
<stop offset="1" stop-color="#42BAA8"/>
</radialGradient>
<radialGradient id="paint46_radial_3794_87950" cx="0" cy="0" r="1" gradientUnits="userSpaceOnUse" gradientTransform="translate(130.682 178.217) scale(18.1591 18.209)">
<stop offset="0.03" stop-color="#3194F0"/>
<stop offset="0.23" stop-color="#3583E4"/>
<stop offset="0.73" stop-color="#3E5ECB"/>
<stop offset="1" stop-color="#4150C1"/>
</radialGradient>
<radialGradient id="paint47_radial_3794_87950" cx="0" cy="0" r="1" gradientUnits="userSpaceOnUse" gradientTransform="translate(91.4266 252.915) scale(4.92032 4.93386)">
<stop offset="0.03" stop-color="#3194F0"/>
<stop offset="0.23" stop-color="#3583E4"/>
<stop offset="0.73" stop-color="#3E5ECB"/>
<stop offset="1" stop-color="#4150C1"/>
</radialGradient>
<radialGradient id="paint48_radial_3794_87950" cx="0" cy="0" r="1" gradientUnits="userSpaceOnUse" gradientTransform="translate(98.9255 237.951) scale(3.01308 3.02137)">
<stop offset="0.03" stop-color="#3194F0"/>
<stop offset="0.23" stop-color="#3583E4"/>
<stop offset="0.73" stop-color="#3E5ECB"/>
<stop offset="1" stop-color="#4150C1"/>
</radialGradient>
<radialGradient id="paint49_radial_3794_87950" cx="0" cy="0" r="1" gradientUnits="userSpaceOnUse" gradientTransform="translate(106.09 240.646) scale(3.01308 3.02137)">
<stop offset="0.03" stop-color="#3194F0"/>
<stop offset="0.23" stop-color="#3583E4"/>
<stop offset="0.73" stop-color="#3E5ECB"/>
<stop offset="1" stop-color="#4150C1"/>
</radialGradient>
<radialGradient id="paint50_radial_3794_87950" cx="0" cy="0" r="1" gradientUnits="userSpaceOnUse" gradientTransform="translate(110.119 226.729) scale(3.01308 3.02137)">
<stop offset="0.03" stop-color="#3194F0"/>
<stop offset="0.23" stop-color="#3583E4"/>
<stop offset="0.73" stop-color="#3E5ECB"/>
<stop offset="1" stop-color="#4150C1"/>
</radialGradient>
<radialGradient id="paint51_radial_3794_87950" cx="0" cy="0" r="1" gradientUnits="userSpaceOnUse" gradientTransform="translate(118.625 230.768) scale(3.01308 3.02137)">
<stop offset="0.03" stop-color="#3194F0"/>
<stop offset="0.23" stop-color="#3583E4"/>
<stop offset="0.73" stop-color="#3E5ECB"/>
<stop offset="1" stop-color="#4150C1"/>
</radialGradient>
<radialGradient id="paint52_radial_3794_87950" cx="0" cy="0" r="1" gradientUnits="userSpaceOnUse" gradientTransform="translate(127.131 232.564) scale(3.01308 3.02137)">
<stop offset="0.03" stop-color="#3194F0"/>
<stop offset="0.23" stop-color="#3583E4"/>
<stop offset="0.73" stop-color="#3E5ECB"/>
<stop offset="1" stop-color="#4150C1"/>
</radialGradient>
<radialGradient id="paint53_radial_3794_87950" cx="0" cy="0" r="1" gradientUnits="userSpaceOnUse" gradientTransform="translate(135.189 238.4) scale(3.01308 3.02137)">
<stop offset="0.03" stop-color="#3194F0"/>
<stop offset="0.23" stop-color="#3583E4"/>
<stop offset="0.73" stop-color="#3E5ECB"/>
<stop offset="1" stop-color="#4150C1"/>
</radialGradient>
<radialGradient id="paint54_radial_3794_87950" cx="0" cy="0" r="1" gradientUnits="userSpaceOnUse" gradientTransform="translate(173.133 132.223) scale(11.7792 11.8116)">
<stop offset="0.03" stop-color="#9AD6F4"/>
<stop offset="0.48" stop-color="#60A3E3"/>
<stop offset="0.82" stop-color="#3A83D8"/>
<stop offset="1" stop-color="#2C77D4"/>
</radialGradient>
<radialGradient id="paint55_radial_3794_87950" cx="0" cy="0" r="1" gradientUnits="userSpaceOnUse" gradientTransform="translate(78.6659 114.711) scale(11.7792 11.8116)">
<stop offset="0.03" stop-color="#9AD6F4"/>
<stop offset="0.48" stop-color="#60A3E3"/>
<stop offset="0.82" stop-color="#3A83D8"/>
<stop offset="1" stop-color="#2C77D4"/>
</radialGradient>
<radialGradient id="paint56_radial_3794_87950" cx="0" cy="0" r="1" gradientUnits="userSpaceOnUse" gradientTransform="translate(106.2 88.7943) scale(6.44253 6.46026)">
<stop offset="0.03" stop-color="#9AD6F4"/>
<stop offset="0.48" stop-color="#60A3E3"/>
<stop offset="0.82" stop-color="#3A83D8"/>
<stop offset="1" stop-color="#2C77D4"/>
</radialGradient>
<radialGradient id="paint57_radial_3794_87950" cx="0" cy="0" r="1" gradientUnits="userSpaceOnUse" gradientTransform="translate(117.394 78.47) scale(6.44253 6.46026)">
<stop offset="0.03" stop-color="#9AD6F4"/>
<stop offset="0.48" stop-color="#60A3E3"/>
<stop offset="0.82" stop-color="#3A83D8"/>
<stop offset="1" stop-color="#2C77D4"/>
</radialGradient>
<radialGradient id="paint58_radial_3794_87950" cx="0" cy="0" r="1" gradientUnits="userSpaceOnUse" gradientTransform="translate(131.72 82.9583) scale(6.44253 6.46026)">
<stop offset="0.03" stop-color="#9AD6F4"/>
<stop offset="0.48" stop-color="#60A3E3"/>
<stop offset="0.82" stop-color="#3A83D8"/>
<stop offset="1" stop-color="#2C77D4"/>
</radialGradient>
<radialGradient id="paint59_radial_3794_87950" cx="0" cy="0" r="1" gradientUnits="userSpaceOnUse" gradientTransform="translate(137.093 96.8763) scale(6.44253 6.46026)">
<stop offset="0.03" stop-color="#9AD6F4"/>
<stop offset="0.48" stop-color="#60A3E3"/>
<stop offset="0.82" stop-color="#3A83D8"/>
<stop offset="1" stop-color="#2C77D4"/>
</radialGradient>
<radialGradient id="paint60_radial_3794_87950" cx="0" cy="0" r="1" gradientUnits="userSpaceOnUse" gradientTransform="translate(125.9 108.548) scale(6.44253 6.46025)">
<stop offset="0.03" stop-color="#9AD6F4"/>
<stop offset="0.48" stop-color="#60A3E3"/>
<stop offset="0.82" stop-color="#3A83D8"/>
<stop offset="1" stop-color="#2C77D4"/>
</radialGradient>
<radialGradient id="paint61_radial_3794_87950" cx="0" cy="0" r="1" gradientUnits="userSpaceOnUse" gradientTransform="translate(155.923 117.075) scale(7.86624 7.88789)">
<stop offset="0.03" stop-color="#9AD6F4"/>
<stop offset="0.48" stop-color="#60A3E3"/>
<stop offset="0.82" stop-color="#3A83D8"/>
<stop offset="1" stop-color="#2C77D4"/>
</radialGradient>
<radialGradient id="paint62_radial_3794_87950" cx="0" cy="0" r="1" gradientUnits="userSpaceOnUse" gradientTransform="translate(172.488 99.5668) scale(7.86624 7.88789)">
<stop offset="0.03" stop-color="#9AD6F4"/>
<stop offset="0.48" stop-color="#60A3E3"/>
<stop offset="0.82" stop-color="#3A83D8"/>
<stop offset="1" stop-color="#2C77D4"/>
</radialGradient>
<radialGradient id="paint63_radial_3794_87950" cx="0" cy="0" r="1" gradientUnits="userSpaceOnUse" gradientTransform="translate(187.038 84.9884) scale(8.63182 8.65557)">
<stop offset="0.03" stop-color="#9AD6F4"/>
<stop offset="0.48" stop-color="#60A3E3"/>
<stop offset="0.82" stop-color="#3A83D8"/>
<stop offset="1" stop-color="#2C77D4"/>
</radialGradient>
<radialGradient id="paint64_radial_3794_87950" cx="0" cy="0" r="1" gradientUnits="userSpaceOnUse" gradientTransform="translate(189.725 111.027) scale(8.63182 8.65557)">
<stop offset="0.03" stop-color="#9AD6F4"/>
<stop offset="0.48" stop-color="#60A3E3"/>
<stop offset="0.82" stop-color="#3A83D8"/>
<stop offset="1" stop-color="#2C77D4"/>
</radialGradient>
<radialGradient id="paint65_radial_3794_87950" cx="0" cy="0" r="1" gradientUnits="userSpaceOnUse" gradientTransform="translate(211.103 132.215) scale(7.48569 7.50629)">
<stop offset="0.03" stop-color="#9AD6F4"/>
<stop offset="0.48" stop-color="#60A3E3"/>
<stop offset="0.82" stop-color="#3A83D8"/>
<stop offset="1" stop-color="#2C77D4"/>
</radialGradient>
<radialGradient id="paint66_radial_3794_87950" cx="0" cy="0" r="1" gradientUnits="userSpaceOnUse" gradientTransform="translate(211.775 108.158) scale(5.19789 5.2122)">
<stop offset="0.03" stop-color="#9AD6F4"/>
<stop offset="0.48" stop-color="#60A3E3"/>
<stop offset="0.82" stop-color="#3A83D8"/>
<stop offset="1" stop-color="#2C77D4"/>
</radialGradient>
<radialGradient id="paint67_radial_3794_87950" cx="0" cy="0" r="1" gradientUnits="userSpaceOnUse" gradientTransform="translate(210.88 87.9545) scale(5.19789 5.2122)">
<stop offset="0.03" stop-color="#9AD6F4"/>
<stop offset="0.48" stop-color="#60A3E3"/>
<stop offset="0.82" stop-color="#3A83D8"/>
<stop offset="1" stop-color="#2C77D4"/>
</radialGradient>
<radialGradient id="paint68_radial_3794_87950" cx="0" cy="0" r="1" gradientUnits="userSpaceOnUse" gradientTransform="translate(108.439 107.201) scale(6.44253 6.46025)">
<stop offset="0.03" stop-color="#9AD6F4"/>
<stop offset="0.48" stop-color="#60A3E3"/>
<stop offset="0.82" stop-color="#3A83D8"/>
<stop offset="1" stop-color="#2C77D4"/>
</radialGradient>
<radialGradient id="paint69_radial_3794_87950" cx="0" cy="0" r="1" gradientUnits="userSpaceOnUse" gradientTransform="translate(120.527 93.2864) scale(6.44253 6.46026)">
<stop offset="0.03" stop-color="#9AD6F4"/>
<stop offset="0.48" stop-color="#60A3E3"/>
<stop offset="0.82" stop-color="#3A83D8"/>
<stop offset="1" stop-color="#2C77D4"/>
</radialGradient>
<radialGradient id="paint70_radial_3794_87950" cx="0" cy="0" r="1" gradientUnits="userSpaceOnUse" gradientTransform="translate(202.234 176.668) scale(11.7792 11.8116)">
<stop offset="0.03" stop-color="#9AD6F4"/>
<stop offset="0.48" stop-color="#60A3E3"/>
<stop offset="0.82" stop-color="#3A83D8"/>
<stop offset="1" stop-color="#2C77D4"/>
</radialGradient>
<radialGradient id="paint71_radial_3794_87950" cx="0" cy="0" r="1" gradientUnits="userSpaceOnUse" gradientTransform="translate(173.326 174.539) scale(7.86625 7.88789)">
<stop offset="0.03" stop-color="#9AD6F4"/>
<stop offset="0.48" stop-color="#60A3E3"/>
<stop offset="0.82" stop-color="#3A83D8"/>
<stop offset="1" stop-color="#2C77D4"/>
</radialGradient>
<radialGradient id="paint72_radial_3794_87950" cx="0" cy="0" r="1" gradientUnits="userSpaceOnUse" gradientTransform="translate(185.079 197.735) scale(5.96349 5.97989)">
<stop offset="0.03" stop-color="#9AD6F4"/>
<stop offset="0.48" stop-color="#60A3E3"/>
<stop offset="0.82" stop-color="#3A83D8"/>
<stop offset="1" stop-color="#2C77D4"/>
</radialGradient>
<radialGradient id="paint73_radial_3794_87950" cx="0" cy="0" r="1" gradientUnits="userSpaceOnUse" gradientTransform="translate(193.472 209.524) scale(6.34404 6.36149)">
<stop offset="0.03" stop-color="#9AD6F4"/>
<stop offset="0.48" stop-color="#60A3E3"/>
<stop offset="0.82" stop-color="#3A83D8"/>
<stop offset="1" stop-color="#2C77D4"/>
</radialGradient>
<radialGradient id="paint74_radial_3794_87950" cx="0" cy="0" r="1" gradientUnits="userSpaceOnUse" gradientTransform="translate(188.324 229.013) scale(4.05625 4.06741)">
<stop offset="0.03" stop-color="#9AD6F4"/>
<stop offset="0.48" stop-color="#60A3E3"/>
<stop offset="0.82" stop-color="#3A83D8"/>
<stop offset="1" stop-color="#2C77D4"/>
</radialGradient>
<radialGradient id="paint75_radial_3794_87950" cx="0" cy="0" r="1" gradientUnits="userSpaceOnUse" gradientTransform="translate(202.202 236.166) scale(2.52956 2.53652)">
<stop offset="0.03" stop-color="#9AD6F4"/>
<stop offset="0.48" stop-color="#60A3E3"/>
<stop offset="0.82" stop-color="#3A83D8"/>
<stop offset="1" stop-color="#2C77D4"/>
</radialGradient>
<radialGradient id="paint76_radial_3794_87950" cx="0" cy="0" r="1" gradientUnits="userSpaceOnUse" gradientTransform="translate(165.939 210.127) scale(2.52956 2.53652)">
<stop offset="0.03" stop-color="#9AD6F4"/>
<stop offset="0.48" stop-color="#60A3E3"/>
<stop offset="0.82" stop-color="#3A83D8"/>
<stop offset="1" stop-color="#2C77D4"/>
</radialGradient>
<radialGradient id="paint77_radial_3794_87950" cx="0" cy="0" r="1" gradientUnits="userSpaceOnUse" gradientTransform="translate(186.532 156.252) scale(2.52956 2.53651)">
<stop offset="0.03" stop-color="#9AD6F4"/>
<stop offset="0.48" stop-color="#60A3E3"/>
<stop offset="0.82" stop-color="#3A83D8"/>
<stop offset="1" stop-color="#2C77D4"/>
</radialGradient>
<radialGradient id="paint78_radial_3794_87950" cx="0" cy="0" r="1" gradientUnits="userSpaceOnUse" gradientTransform="translate(111.317 149.966) scale(2.52955 2.53651)">
<stop offset="0.03" stop-color="#9AD6F4"/>
<stop offset="0.48" stop-color="#60A3E3"/>
<stop offset="0.82" stop-color="#3A83D8"/>
<stop offset="1" stop-color="#2C77D4"/>
</radialGradient>
<radialGradient id="paint79_radial_3794_87950" cx="0" cy="0" r="1" gradientUnits="userSpaceOnUse" gradientTransform="translate(100.126 157.599) scale(2.52955 2.53651)">
<stop offset="0.03" stop-color="#9AD6F4"/>
<stop offset="0.48" stop-color="#60A3E3"/>
<stop offset="0.82" stop-color="#3A83D8"/>
<stop offset="1" stop-color="#2C77D4"/>
</radialGradient>
<radialGradient id="paint80_radial_3794_87950" cx="0" cy="0" r="1" gradientUnits="userSpaceOnUse" gradientTransform="translate(89.2677 145.626) scale(4.43679 4.449)">
<stop offset="0.03" stop-color="#9AD6F4"/>
<stop offset="0.48" stop-color="#60A3E3"/>
<stop offset="0.82" stop-color="#3A83D8"/>
<stop offset="1" stop-color="#2C77D4"/>
</radialGradient>
<radialGradient id="paint81_radial_3794_87950" cx="0" cy="0" r="1" gradientUnits="userSpaceOnUse" gradientTransform="translate(62.5166 136.052) scale(2.52955 2.53651)">
<stop offset="0.03" stop-color="#9AD6F4"/>
<stop offset="0.48" stop-color="#60A3E3"/>
<stop offset="0.82" stop-color="#3A83D8"/>
<stop offset="1" stop-color="#2C77D4"/>
</radialGradient>
<radialGradient id="paint82_radial_3794_87950" cx="0" cy="0" r="1" gradientUnits="userSpaceOnUse" gradientTransform="translate(195.04 263.099) scale(2.52956 2.53652)">
<stop offset="0.03" stop-color="#9AD6F4"/>
<stop offset="0.48" stop-color="#60A3E3"/>
<stop offset="0.82" stop-color="#3A83D8"/>
<stop offset="1" stop-color="#2C77D4"/>
</radialGradient>
<radialGradient id="paint83_radial_3794_87950" cx="0" cy="0" r="1" gradientUnits="userSpaceOnUse" gradientTransform="translate(134.375 132.187) scale(11.6807 11.7129)">
<stop offset="0.03" stop-color="#3194F0"/>
<stop offset="0.23" stop-color="#3583E4"/>
<stop offset="0.73" stop-color="#3E5ECB"/>
<stop offset="1" stop-color="#4150C1"/>
</radialGradient>
<clipPath id="clip0_3794_87950">
<rect width="281" height="221" fill="white" transform="translate(47 48)"/>
</clipPath>
</defs>
</svg>
