<svg width="223" height="223" viewBox="0 0 223 223" fill="none" xmlns="http://www.w3.org/2000/svg">
<path d="M69.2271 42.9019L23.8769 136.096C79.2077 157.745 140.622 157.987 196.122 136.774L154.397 42.27C126.824 51.695 96.937 51.9168 69.2271 42.9019V42.9019Z" fill="url(#paint0_linear_651_17554)"/>
<path fill-rule="evenodd" clip-rule="evenodd" d="M66.1871 46.28L69.6743 38.0435L71.516 38.8233L70.3566 41.5618C97.246 50.2314 126.217 50.0325 152.992 40.9851L152.086 38.8568L153.926 38.0732L157.43 46.3025L155.59 47.0861L153.856 43.0123C126.527 52.2847 96.9402 52.4851 69.4967 43.5927L68.0288 47.0598L66.1871 46.28Z" fill="#0158CC"/>
<circle cx="111.002" cy="54.9998" r="4" fill="#67A8FF"/>
<circle cx="111.002" cy="97.9998" r="10" fill="#67A8FF"/>
<line x1="111.002" y1="58.9998" x2="111.002" y2="87.9998" stroke="#67A8FF" stroke-width="2" stroke-dasharray="2 2"/>
<circle cx="111.502" cy="190.5" r="2.5" fill="#016EFF"/>
<circle cx="111.502" cy="163.5" r="2.5" fill="#016EFF"/>
<line x1="111.502" y1="166" x2="111.502" y2="188" stroke="#016EFF" stroke-dasharray="2 2"/>
<circle cx="111.002" cy="136" r="21" fill="#016EFF"/>
<path d="M93.3243 118.322C89.1659 122.481 86.6065 127.972 86.0962 133.831C85.586 139.689 87.1574 145.54 90.5343 150.355C93.9112 155.17 98.8774 158.64 104.56 160.155C110.242 161.671 116.277 161.135 121.603 158.641C126.929 156.147 131.205 151.856 133.68 146.521C136.155 141.186 136.67 135.15 135.135 129.473C133.6 123.796 130.112 118.842 125.286 115.482C120.459 112.122 114.602 110.571 108.746 111.102L108.875 112.529C114.396 112.029 119.917 113.491 124.467 116.658C129.017 119.826 132.304 124.496 133.751 129.847C135.199 135.199 134.713 140.889 132.38 145.918C130.047 150.947 126.016 154.992 120.995 157.343C115.974 159.694 110.286 160.199 104.929 158.771C99.5725 157.342 94.891 154.071 91.7077 149.532C88.5244 144.993 87.043 139.478 87.5241 133.955C88.0051 128.432 90.4177 123.256 94.3377 119.336L93.3243 118.322Z" fill="#016EFF"/>
<g clip-path="url(#clip0_651_17554)">
<path d="M104.415 128.607L104.415 131.982L103.129 131.982C103.041 131.982 102.969 132.054 102.969 132.143L102.969 133.268C102.969 133.356 103.041 133.429 103.129 133.429L104.415 133.429L104.415 138.571L103.129 138.571C103.041 138.571 102.969 138.644 102.969 138.732L102.969 139.857C102.969 139.945 103.041 140.018 103.129 140.018L104.415 140.018L104.415 143.393C104.415 143.748 104.702 144.036 105.058 144.036L118.397 144.036C118.753 144.036 119.04 143.748 119.04 143.393L119.04 128.607C119.04 128.251 118.753 127.964 118.397 127.964L105.058 127.964C104.702 127.964 104.415 128.251 104.415 128.607ZM117.594 129.411L117.594 142.589L109.96 142.589L109.96 129.411L117.594 129.411ZM108.594 142.589L105.862 142.589L105.862 140.018L106.826 140.018C106.914 140.018 106.987 139.945 106.987 139.857L106.987 138.732C106.987 138.644 106.914 138.571 106.826 138.571L105.862 138.571L105.862 133.429L106.826 133.429C106.914 133.429 106.987 133.356 106.987 133.268L106.987 132.143C106.987 132.054 106.914 131.982 106.826 131.982L105.862 131.982L105.862 129.411L108.594 129.411L108.594 142.589Z" fill="white"/>
</g>
<defs>
<linearGradient id="paint0_linear_651_17554" x1="110.937" y1="49.0014" x2="111.025" y2="135.001" gradientUnits="userSpaceOnUse">
<stop stop-color="#25B1FF" stop-opacity="0.5"/>
<stop offset="1" stop-color="#25B1FF" stop-opacity="0"/>
</linearGradient>
<clipPath id="clip0_651_17554">
<rect width="18" height="18" fill="white" transform="translate(102.002 145) rotate(-90)"/>
</clipPath>
</defs>
</svg>
