<svg width="223" height="223" viewBox="0 0 223 223" fill="none" xmlns="http://www.w3.org/2000/svg">
<path opacity="0.2" d="M69.2251 42.9019L23.875 136.096C79.2057 157.745 140.62 157.987 196.12 136.774L154.395 42.27C126.822 51.695 96.9351 51.9168 69.2251 42.9019V42.9019Z" fill="url(#paint0_linear_651_17348)"/>
<path fill-rule="evenodd" clip-rule="evenodd" d="M66.1851 46.28L69.6724 38.0435L71.5141 38.8233L70.3546 41.5618C97.2441 50.2314 126.215 50.0325 152.991 40.9851L152.084 38.8568L153.924 38.0732L157.429 46.3025L155.588 47.0861L153.854 43.0123C126.525 52.2847 96.9382 52.4851 69.4947 43.5927L68.0268 47.0598L66.1851 46.28Z" fill="#0158CC"/>
<circle cx="111" cy="54.9998" r="4" fill="#67A8FF"/>
<circle cx="111" cy="97.9998" r="10" fill="#67A8FF"/>
<line x1="111" y1="58.9998" x2="111" y2="87.9998" stroke="#67A8FF" stroke-width="2" stroke-dasharray="2 2"/>
<circle cx="111.5" cy="190.5" r="2.5" fill="#016EFF"/>
<circle cx="111.5" cy="163.5" r="2.5" fill="#016EFF"/>
<line x1="111.5" y1="166" x2="111.5" y2="188" stroke="#016EFF" stroke-dasharray="2 2"/>
<circle opacity="0.5" cx="111" cy="136" r="21" fill="url(#paint1_radial_651_17348)"/>
<path d="M93.3223 118.322C89.1639 122.481 86.6046 127.972 86.0943 133.831C85.584 139.689 87.1555 145.54 90.5324 150.355C93.9093 155.17 98.8754 158.64 104.558 160.155C110.24 161.671 116.275 161.135 121.601 158.641C126.927 156.147 131.203 151.856 133.678 146.521C136.153 141.186 136.668 135.15 135.133 129.473C133.598 123.796 130.11 118.842 125.284 115.482C120.457 112.122 114.601 110.571 108.744 111.102L108.873 112.529C114.394 112.029 119.915 113.491 124.465 116.658C129.015 119.826 132.302 124.496 133.749 129.847C135.197 135.199 134.711 140.889 132.378 145.918C130.045 150.947 126.014 154.992 120.993 157.343C115.972 159.694 110.284 160.199 104.927 158.771C99.5705 157.342 94.8891 154.071 91.7058 149.532C88.5224 144.993 87.0411 139.478 87.5221 133.955C88.0031 128.432 90.4157 123.256 94.3358 119.336L93.3223 118.322Z" fill="#46D2F5"/>
<g clip-path="url(#clip0_651_17348)">
<path d="M104.413 128.607L104.413 131.982L103.128 131.982C103.039 131.982 102.967 132.054 102.967 132.143L102.967 133.268C102.967 133.356 103.039 133.429 103.128 133.429L104.413 133.429L104.413 138.571L103.128 138.571C103.039 138.571 102.967 138.644 102.967 138.732L102.967 139.857C102.967 139.945 103.039 140.018 103.128 140.018L104.413 140.018L104.413 143.393C104.413 143.748 104.701 144.036 105.056 144.036L118.395 144.036C118.751 144.036 119.038 143.748 119.038 143.393L119.038 128.607C119.038 128.251 118.751 127.964 118.395 127.964L105.056 127.964C104.701 127.964 104.413 128.251 104.413 128.607ZM117.592 129.411L117.592 142.589L109.958 142.589L109.958 129.411L117.592 129.411ZM108.592 142.589L105.86 142.589L105.86 140.018L106.824 140.018C106.912 140.018 106.985 139.945 106.985 139.857L106.985 138.732C106.985 138.644 106.912 138.571 106.824 138.571L105.86 138.571L105.86 133.429L106.824 133.429C106.912 133.429 106.985 133.356 106.985 133.268L106.985 132.143C106.985 132.054 106.912 131.982 106.824 131.982L105.86 131.982L105.86 129.411L108.592 129.411L108.592 142.589Z" fill="#016EFF"/>
</g>
<defs>
<linearGradient id="paint0_linear_651_17348" x1="110.935" y1="49.0014" x2="111.023" y2="135.001" gradientUnits="userSpaceOnUse">
<stop stop-color="#25B1FF" stop-opacity="0.5"/>
<stop offset="1" stop-color="#25B1FF" stop-opacity="0"/>
</linearGradient>
<radialGradient id="paint1_radial_651_17348" cx="0" cy="0" r="1" gradientUnits="userSpaceOnUse" gradientTransform="translate(111 136) rotate(-90) scale(21)">
<stop stop-color="#CEF7FF"/>
<stop offset="1" stop-color="#42E1FB"/>
</radialGradient>
<clipPath id="clip0_651_17348">
<rect width="18" height="18" fill="white" transform="translate(102 145) rotate(-90)"/>
</clipPath>
</defs>
</svg>
