<svg width="223" height="224" viewBox="0 0 223 224" fill="none" xmlns="http://www.w3.org/2000/svg">
<path d="M69.2271 43.9004L23.8769 137.094C79.2077 158.743 140.622 158.985 196.122 137.773L154.397 43.2685C126.824 52.6936 96.937 52.9153 69.2271 43.9004V43.9004Z" fill="url(#paint0_linear_651_17574)"/>
<path fill-rule="evenodd" clip-rule="evenodd" d="M66.1871 47.2788L69.6743 39.0423L71.516 39.8221L70.3566 42.5606C97.246 51.2302 126.217 51.0312 152.992 41.9839L152.086 39.8556L153.926 39.072L157.43 47.3013L155.59 48.0848L153.856 44.0111C126.527 53.2835 96.9402 53.4839 69.4967 44.5915L68.0288 48.0585L66.1871 47.2788Z" fill="#0158CC"/>
<circle cx="111.002" cy="55.9985" r="4" fill="#67A8FF"/>
<circle cx="111.002" cy="98.9985" r="10" fill="#67A8FF"/>
<line x1="111.002" y1="59.9985" x2="111.002" y2="88.9985" stroke="#67A8FF" stroke-width="2" stroke-dasharray="2 2"/>
<circle cx="111.502" cy="191.499" r="2.5" fill="#016EFF"/>
<circle cx="111.502" cy="164.499" r="2.5" fill="#016EFF"/>
<line x1="111.502" y1="166.999" x2="111.502" y2="188.999" stroke="#016EFF" stroke-dasharray="2 2"/>
<circle cx="111.002" cy="136.999" r="21" fill="#016EFF"/>
<path d="M93.3243 119.321C89.1659 123.479 86.6065 128.971 86.0962 134.829C85.586 140.688 87.1574 146.539 90.5343 151.354C93.9112 156.169 98.8774 159.639 104.56 161.154C110.242 162.67 116.277 162.133 121.603 159.64C126.929 157.146 131.205 152.855 133.68 147.52C136.155 142.185 136.67 136.149 135.135 130.472C133.6 124.795 130.112 119.841 125.286 116.481C120.459 113.121 114.602 111.57 108.746 112.101L108.875 113.528C114.396 113.028 119.917 114.49 124.467 117.657C129.017 120.824 132.304 125.494 133.751 130.846C135.199 136.197 134.713 141.888 132.38 146.917C130.047 151.946 126.016 155.991 120.995 158.342C115.974 160.692 110.286 161.198 104.929 159.769C99.5725 158.341 94.891 155.07 91.7077 150.531C88.5244 145.992 87.043 140.477 87.5241 134.954C88.0051 129.431 90.4177 124.254 94.3377 120.334L93.3243 119.321Z" fill="#016EFF"/>
<g clip-path="url(#clip0_651_17574)">
<path d="M102.962 135.306L102.962 141.42C102.962 141.59 103.029 141.754 103.15 141.874L109.184 147.909C109.436 148.16 109.842 148.16 110.093 147.909L121.912 136.09C122.163 135.838 122.163 135.432 121.912 135.181L112.821 126.089C112.569 125.838 112.163 125.838 111.912 126.089L103.151 134.85C103.03 134.971 102.962 135.135 102.962 135.306ZM104.408 135.689L107.082 138.363L104.408 141.036L104.408 135.689ZM112.366 127.68L120.321 135.635L109.639 146.318L105.349 142.028L108.417 138.959C108.575 138.801 108.664 138.587 108.664 138.363C108.664 138.139 108.575 137.924 108.417 137.766L105.349 134.698L112.366 127.68ZM112.622 135.607L115.236 138.221C115.298 138.283 115.4 138.283 115.463 138.221L116.145 137.539C116.207 137.476 116.207 137.374 116.145 137.312L113.531 134.698C113.468 134.635 113.366 134.635 113.304 134.698L112.622 135.38C112.559 135.442 112.559 135.544 112.622 135.607ZM113.531 140.153L114.213 139.471C114.275 139.408 114.275 139.306 114.213 139.243L108.758 133.789C108.695 133.726 108.593 133.726 108.531 133.789L107.849 134.471C107.786 134.533 107.786 134.635 107.849 134.698L113.304 140.153C113.366 140.215 113.468 140.215 113.531 140.153Z" fill="white"/>
</g>
<defs>
<linearGradient id="paint0_linear_651_17574" x1="110.937" y1="50" x2="111.025" y2="136" gradientUnits="userSpaceOnUse">
<stop stop-color="#25B1FF" stop-opacity="0.5"/>
<stop offset="1" stop-color="#25B1FF" stop-opacity="0"/>
</linearGradient>
<clipPath id="clip0_651_17574">
<rect width="18" height="18" fill="white" transform="translate(111.002 149.727) rotate(-135)"/>
</clipPath>
</defs>
</svg>
