<svg width="223" height="224" viewBox="0 0 223 224" fill="none" xmlns="http://www.w3.org/2000/svg">
<path opacity="0.2" d="M69.2251 43.9004L23.875 137.094C79.2057 158.743 140.62 158.985 196.12 137.773L154.395 43.2685C126.822 52.6936 96.9351 52.9153 69.2251 43.9004V43.9004Z" fill="url(#paint0_linear_651_17408)"/>
<path fill-rule="evenodd" clip-rule="evenodd" d="M66.1851 47.2788L69.6724 39.0423L71.5141 39.8221L70.3546 42.5606C97.2441 51.2302 126.215 51.0312 152.991 41.9839L152.084 39.8556L153.924 39.072L157.429 47.3013L155.588 48.0848L153.854 44.0111C126.525 53.2835 96.9382 53.4839 69.4947 44.5915L68.0268 48.0585L66.1851 47.2788Z" fill="#0158CC"/>
<circle cx="111" cy="55.9985" r="4" fill="#67A8FF"/>
<circle cx="111" cy="98.9985" r="10" fill="#67A8FF"/>
<line x1="111" y1="59.9985" x2="111" y2="88.9985" stroke="#67A8FF" stroke-width="2" stroke-dasharray="2 2"/>
<circle cx="111.5" cy="191.499" r="2.5" fill="#016EFF"/>
<circle cx="111.5" cy="164.499" r="2.5" fill="#016EFF"/>
<line x1="111.5" y1="166.999" x2="111.5" y2="188.999" stroke="#016EFF" stroke-dasharray="2 2"/>
<circle opacity="0.5" cx="111" cy="136.999" r="21" fill="url(#paint1_radial_651_17408)"/>
<path d="M93.3223 119.321C89.1639 123.479 86.6046 128.971 86.0943 134.829C85.584 140.688 87.1555 146.539 90.5324 151.354C93.9093 156.169 98.8754 159.639 104.558 161.154C110.24 162.67 116.275 162.133 121.601 159.64C126.927 157.146 131.203 152.855 133.678 147.52C136.153 142.185 136.668 136.149 135.133 130.472C133.598 124.795 130.11 119.841 125.284 116.481C120.457 113.121 114.601 111.57 108.744 112.101L108.873 113.528C114.394 113.028 119.915 114.49 124.465 117.657C129.015 120.824 132.302 125.494 133.749 130.846C135.197 136.197 134.711 141.888 132.378 146.917C130.045 151.946 126.014 155.991 120.993 158.342C115.972 160.692 110.284 161.198 104.927 159.769C99.5705 158.341 94.8891 155.07 91.7058 150.531C88.5224 145.992 87.0411 140.477 87.5221 134.954C88.0031 129.431 90.4157 124.254 94.3358 120.334L93.3223 119.321Z" fill="#46D2F5"/>
<g clip-path="url(#clip0_651_17408)">
<path d="M102.96 135.306L102.96 141.42C102.96 141.59 103.027 141.754 103.148 141.874L109.182 147.909C109.434 148.16 109.84 148.16 110.091 147.909L121.91 136.09C122.162 135.838 122.162 135.432 121.91 135.181L112.819 126.089C112.567 125.838 112.161 125.838 111.91 126.089L103.149 134.85C103.028 134.971 102.96 135.135 102.96 135.306ZM104.406 135.689L107.08 138.363L104.406 141.036L104.406 135.689ZM112.364 127.68L120.319 135.635L109.637 146.318L105.347 142.028L108.415 138.959C108.573 138.801 108.662 138.587 108.662 138.363C108.662 138.139 108.573 137.924 108.415 137.766L105.347 134.698L112.364 127.68ZM112.62 135.607L115.234 138.221C115.296 138.283 115.398 138.283 115.461 138.221L116.143 137.539C116.205 137.476 116.205 137.374 116.143 137.312L113.529 134.698C113.466 134.635 113.364 134.635 113.302 134.698L112.62 135.38C112.557 135.442 112.557 135.544 112.62 135.607ZM113.529 140.153L114.211 139.471C114.273 139.408 114.273 139.306 114.211 139.243L108.756 133.789C108.693 133.726 108.591 133.726 108.529 133.789L107.847 134.471C107.784 134.533 107.784 134.635 107.847 134.698L113.302 140.153C113.364 140.215 113.466 140.215 113.529 140.153Z" fill="#016EFF"/>
</g>
<defs>
<linearGradient id="paint0_linear_651_17408" x1="110.935" y1="50" x2="111.023" y2="136" gradientUnits="userSpaceOnUse">
<stop stop-color="#25B1FF" stop-opacity="0.5"/>
<stop offset="1" stop-color="#25B1FF" stop-opacity="0"/>
</linearGradient>
<radialGradient id="paint1_radial_651_17408" cx="0" cy="0" r="1" gradientUnits="userSpaceOnUse" gradientTransform="translate(111 136.999) rotate(-90) scale(21)">
<stop stop-color="#CEF7FF"/>
<stop offset="1" stop-color="#42E1FB"/>
</radialGradient>
<clipPath id="clip0_651_17408">
<rect width="18" height="18" fill="white" transform="translate(111 149.727) rotate(-135)"/>
</clipPath>
</defs>
</svg>
