<svg width="223" height="223" viewBox="0 0 223 223" fill="none" xmlns="http://www.w3.org/2000/svg">
<path opacity="0.2" d="M69.2251 42.9937L23.875 136.187C79.2057 157.836 140.62 158.078 196.12 136.866L154.395 42.3618C126.822 51.7868 96.9351 52.0086 69.2251 42.9937V42.9937Z" fill="url(#paint0_linear_651_17666)"/>
<path fill-rule="evenodd" clip-rule="evenodd" d="M66.1851 46.372L69.6724 38.1356L71.5141 38.9153L70.3546 41.6538C97.2441 50.3234 126.215 50.1245 152.991 41.0771L152.084 38.9488L153.924 38.1653L157.429 46.3946L155.588 47.1781L153.854 43.1043C126.525 52.3768 96.9382 52.5771 69.4947 43.6848L68.0268 47.1518L66.1851 46.372Z" fill="#0158CC"/>
<circle cx="111" cy="55.0918" r="4" fill="#67A8FF"/>
<circle cx="111" cy="98.0918" r="10" fill="#67A8FF"/>
<line x1="111" y1="59.0918" x2="111" y2="88.0918" stroke="#67A8FF" stroke-width="2" stroke-dasharray="2 2"/>
<circle cx="111.5" cy="190.592" r="2.5" fill="#016EFF"/>
<circle cx="111.5" cy="163.592" r="2.5" fill="#016EFF"/>
<line x1="111.5" y1="166.092" x2="111.5" y2="188.092" stroke="#016EFF" stroke-dasharray="2 2"/>
<circle opacity="0.5" cx="111" cy="136.092" r="21" fill="url(#paint1_radial_651_17666)"/>
<path d="M93.3223 118.414C89.1639 122.573 86.6046 128.064 86.0943 133.923C85.584 139.781 87.1555 145.632 90.5324 150.447C93.9093 155.262 98.8754 158.732 104.558 160.247C110.24 161.763 116.275 161.227 121.601 158.733C126.927 156.239 131.203 151.948 133.678 146.613C136.153 141.278 136.668 135.242 135.133 129.565C133.598 123.888 130.11 118.934 125.284 115.574C120.457 112.214 114.601 110.663 108.744 111.194L108.873 112.621C114.394 112.121 119.915 113.583 124.465 116.75C129.015 119.918 132.302 124.588 133.749 129.939C135.197 135.291 134.711 140.981 132.378 146.01C130.045 151.039 126.014 155.084 120.993 157.435C115.972 159.786 110.284 160.291 104.927 158.863C99.5705 157.434 94.8891 154.163 91.7058 149.624C88.5224 145.085 87.0411 139.57 87.5221 134.047C88.0031 128.524 90.4157 123.348 94.3358 119.428L93.3223 118.414Z" fill="#46D2F5"/>
<path d="M107.257 133.375L110.222 134.318L110.284 134.338L110.326 134.288L112.39 131.858L112.39 134.906L112.39 134.972L112.451 134.997L115.247 136.097L112.448 137.333L112.39 137.359L112.39 137.423L112.39 140.337L110.326 138.043L110.283 137.996L110.223 138.015L107.237 138.99L109.119 136.163L109.156 136.108L109.118 136.053L107.257 133.375Z" fill="#016EFF" stroke="#016EFF" stroke-width="0.195312"/>
<path fill-rule="evenodd" clip-rule="evenodd" d="M102 136.092C102 141.062 106.029 145.092 111 145.092C115.971 145.092 120 141.062 120 136.092C120 131.121 115.971 127.092 111 127.092C106.029 127.092 102 131.121 102 136.092ZM103.5 136.092C103.5 140.234 106.858 143.592 111 143.592C115.142 143.592 118.5 140.234 118.5 136.092C118.5 131.95 115.142 128.592 111 128.592C106.858 128.592 103.5 131.95 103.5 136.092Z" fill="#016EFF"/>
<defs>
<linearGradient id="paint0_linear_651_17666" x1="110.935" y1="49.0932" x2="111.023" y2="135.093" gradientUnits="userSpaceOnUse">
<stop stop-color="#25B1FF" stop-opacity="0.5"/>
<stop offset="1" stop-color="#25B1FF" stop-opacity="0"/>
</linearGradient>
<radialGradient id="paint1_radial_651_17666" cx="0" cy="0" r="1" gradientUnits="userSpaceOnUse" gradientTransform="translate(111 136.092) rotate(-90) scale(21)">
<stop stop-color="#CEF7FF"/>
<stop offset="1" stop-color="#42E1FB"/>
</radialGradient>
</defs>
</svg>
