<svg width="223" height="224" viewBox="0 0 223 224" fill="none" xmlns="http://www.w3.org/2000/svg">
<path d="M69.2275 43.9L23.8774 137.094C79.2082 158.743 140.623 158.985 196.122 137.772L154.398 43.268C126.825 52.6931 96.9375 52.9148 69.2275 43.9V43.9Z" fill="url(#paint0_linear_651_17648)"/>
<path fill-rule="evenodd" clip-rule="evenodd" d="M66.1876 47.2783L69.6748 39.0418L71.5165 39.8216L70.3571 42.5601C97.2465 51.2297 126.217 51.0308 152.993 41.9834L152.087 39.8551L153.927 39.0715L157.431 47.3008L155.591 48.0844L153.856 44.0106C126.528 53.283 96.9407 53.4834 69.4972 44.591L68.0293 48.058L66.1876 47.2783Z" fill="#0158CC"/>
<circle cx="111.002" cy="55.998" r="4" fill="#67A8FF"/>
<circle cx="111.002" cy="98.998" r="10" fill="#67A8FF"/>
<line x1="111.002" y1="59.998" x2="111.002" y2="88.998" stroke="#67A8FF" stroke-width="2" stroke-dasharray="2 2"/>
<circle cx="111.502" cy="191.498" r="2.5" fill="#016EFF"/>
<circle cx="111.502" cy="164.498" r="2.5" fill="#016EFF"/>
<line x1="111.502" y1="166.998" x2="111.502" y2="188.998" stroke="#016EFF" stroke-dasharray="2 2"/>
<circle cx="111.002" cy="136.998" r="21" fill="#016EFF"/>
<path d="M93.3248 119.32C89.1663 123.479 86.607 128.97 86.0967 134.829C85.5865 140.688 87.1579 146.539 90.5348 151.353C93.9117 156.168 98.8779 159.638 104.56 161.154C110.242 162.669 116.277 162.133 121.603 159.639C126.929 157.146 131.206 152.854 133.681 147.519C136.156 142.185 136.671 136.148 135.135 130.471C133.6 124.794 130.113 119.84 125.286 116.48C120.46 113.12 114.603 111.569 108.746 112.1L108.875 113.527C114.397 113.027 119.917 114.489 124.467 117.657C129.017 120.824 132.305 125.494 133.752 130.845C135.199 136.197 134.714 141.887 132.381 146.916C130.047 151.945 126.016 155.991 120.995 158.341C115.975 160.692 110.286 161.197 104.929 159.769C99.5729 158.34 94.8915 155.069 91.7082 150.53C88.5249 145.992 87.0435 140.476 87.5245 134.953C88.0056 129.43 90.4182 124.254 94.3382 120.334L93.3248 119.32Z" fill="#016EFF"/>
<path d="M107.26 134.281L110.224 135.224L110.286 135.244L110.328 135.194L112.392 132.764L112.392 135.812L112.392 135.879L112.454 135.903L115.249 137.004L112.45 138.24L112.392 138.265L112.392 138.329L112.392 141.243L110.328 138.949L110.285 138.902L110.225 138.922L107.24 139.896L109.122 137.069L109.158 137.014L109.121 136.959L107.26 134.281Z" fill="white" stroke="white" stroke-width="0.195312"/>
<path fill-rule="evenodd" clip-rule="evenodd" d="M102.002 136.998C102.002 141.969 106.032 145.998 111.002 145.998C115.973 145.998 120.002 141.969 120.002 136.998C120.002 132.027 115.973 127.998 111.002 127.998C106.032 127.998 102.002 132.027 102.002 136.998ZM103.502 136.998C103.502 141.14 106.86 144.498 111.002 144.498C115.145 144.498 118.502 141.14 118.502 136.998C118.502 132.856 115.145 129.498 111.002 129.498C106.86 129.498 103.502 132.856 103.502 136.998Z" fill="white"/>
<defs>
<linearGradient id="paint0_linear_651_17648" x1="110.938" y1="49.9995" x2="111.026" y2="135.999" gradientUnits="userSpaceOnUse">
<stop stop-color="#25B1FF" stop-opacity="0.5"/>
<stop offset="1" stop-color="#25B1FF" stop-opacity="0"/>
</linearGradient>
</defs>
</svg>
