<svg width="223" height="223" viewBox="0 0 223 223" fill="none" xmlns="http://www.w3.org/2000/svg">
<path d="M69.2271 42.9937L23.8769 136.187C79.2077 157.836 140.622 158.078 196.122 136.866L154.397 42.3618C126.824 51.7868 96.937 52.0086 69.2271 42.9937V42.9937Z" fill="url(#paint0_linear_651_17744)"/>
<path fill-rule="evenodd" clip-rule="evenodd" d="M66.1871 46.372L69.6743 38.1356L71.516 38.9153L70.3566 41.6538C97.246 50.3234 126.217 50.1245 152.992 41.0771L152.086 38.9488L153.926 38.1653L157.43 46.3946L155.59 47.1781L153.856 43.1043C126.527 52.3768 96.9402 52.5771 69.4967 43.6848L68.0288 47.1518L66.1871 46.372Z" fill="#0158CC"/>
<circle cx="111.002" cy="55.0918" r="4" fill="#67A8FF"/>
<circle cx="111.002" cy="98.0918" r="10" fill="#67A8FF"/>
<line x1="111.002" y1="59.0918" x2="111.002" y2="88.0918" stroke="#67A8FF" stroke-width="2" stroke-dasharray="2 2"/>
<circle cx="111.502" cy="190.592" r="2.5" fill="#016EFF"/>
<circle cx="111.502" cy="163.592" r="2.5" fill="#016EFF"/>
<line x1="111.502" y1="166.092" x2="111.502" y2="188.092" stroke="#016EFF" stroke-dasharray="2 2"/>
<circle cx="111.002" cy="136.092" r="21" fill="#016EFF"/>
<path d="M93.3243 118.414C89.1659 122.573 86.6065 128.064 86.0962 133.923C85.586 139.781 87.1574 145.632 90.5343 150.447C93.9112 155.262 98.8774 158.732 104.56 160.247C110.242 161.763 116.277 161.227 121.603 158.733C126.929 156.239 131.205 151.948 133.68 146.613C136.155 141.278 136.67 135.242 135.135 129.565C133.6 123.888 130.112 118.934 125.286 115.574C120.459 112.214 114.602 110.663 108.746 111.194L108.875 112.621C114.396 112.121 119.917 113.583 124.467 116.75C129.017 119.918 132.304 124.588 133.751 129.939C135.199 135.291 134.713 140.981 132.38 146.01C130.047 151.039 126.016 155.084 120.995 157.435C115.974 159.786 110.286 160.291 104.929 158.863C99.5725 157.434 94.891 154.163 91.7077 149.624C88.5244 145.085 87.043 139.57 87.5241 134.047C88.0051 128.524 90.4177 123.348 94.3377 119.428L93.3243 118.414Z" fill="#016EFF"/>
<g clip-path="url(#clip0_651_17744)">
<path d="M118.561 139.736C117.707 139.242 116.667 139.374 115.966 139.993L114.901 139.376V136.329C114.901 136.013 114.732 135.72 114.459 135.563L111.727 133.99V132.642C112.615 132.341 113.253 131.501 113.253 130.511C113.253 129.267 112.247 128.261 111.003 128.261C109.76 128.261 108.753 129.267 108.753 130.511C108.753 131.501 109.392 132.341 110.28 132.642V133.99L107.548 135.563C107.275 135.72 107.106 136.013 107.106 136.329V139.374L106.041 139.991C105.34 139.372 104.298 139.24 103.446 139.734C102.371 140.357 102.005 141.731 102.622 142.805C103.241 143.88 104.609 144.25 105.68 143.629C106.534 143.135 106.939 142.163 106.757 141.242L107.735 140.674L110.559 142.301C110.696 142.379 110.849 142.42 111.001 142.42C111.154 142.42 111.307 142.379 111.443 142.301L114.266 140.676L115.244 141.244C115.061 142.163 115.469 143.137 116.321 143.631C117.392 144.252 118.762 143.884 119.379 142.807C119.997 141.731 119.632 140.357 118.561 139.736V139.736ZM105.041 142.516C104.932 142.579 104.811 142.62 104.686 142.637C104.561 142.653 104.434 142.645 104.312 142.612C104.191 142.579 104.077 142.522 103.977 142.445C103.877 142.368 103.794 142.272 103.731 142.163C103.466 141.702 103.623 141.112 104.083 140.847C104.192 140.783 104.312 140.742 104.437 140.726C104.562 140.71 104.689 140.718 104.811 140.751C104.933 140.784 105.047 140.84 105.147 140.918C105.246 140.995 105.33 141.091 105.393 141.2C105.658 141.66 105.501 142.251 105.041 142.516ZM110.037 130.511C110.042 130.258 110.146 130.018 110.326 129.842C110.507 129.665 110.749 129.566 111.001 129.566C111.254 129.566 111.496 129.665 111.676 129.842C111.857 130.018 111.961 130.258 111.966 130.511C111.961 130.763 111.857 131.003 111.676 131.18C111.496 131.357 111.254 131.456 111.001 131.456C110.749 131.456 110.507 131.357 110.326 131.18C110.146 131.003 110.042 130.763 110.037 130.511V130.511ZM113.452 139.475L111.001 140.887L108.551 139.475V136.654L111.001 135.242L113.452 136.654V139.475V139.475ZM118.272 142.165C118.007 142.625 117.42 142.783 116.962 142.518C116.504 142.253 116.345 141.662 116.61 141.202C116.876 140.742 117.462 140.584 117.92 140.849C118.38 141.114 118.537 141.702 118.272 142.165Z" fill="white"/>
</g>
<defs>
<linearGradient id="paint0_linear_651_17744" x1="110.937" y1="49.0932" x2="111.025" y2="135.093" gradientUnits="userSpaceOnUse">
<stop stop-color="#25B1FF" stop-opacity="0.5"/>
<stop offset="1" stop-color="#25B1FF" stop-opacity="0"/>
</linearGradient>
<clipPath id="clip0_651_17744">
<rect width="18" height="18" fill="white" transform="translate(102.002 127.092)"/>
</clipPath>
</defs>
</svg>
