<svg width="223" height="223" viewBox="0 0 223 223" fill="none" xmlns="http://www.w3.org/2000/svg">
<path opacity="0.2" d="M69.2246 42.9937L23.8745 136.187C79.2052 157.836 140.62 158.078 196.119 136.866L154.395 42.3618C126.822 51.7868 96.9346 52.0086 69.2246 42.9937V42.9937Z" fill="url(#paint0_linear_651_17762)"/>
<path fill-rule="evenodd" clip-rule="evenodd" d="M66.1846 46.372L69.6719 38.1356L71.5136 38.9153L70.3541 41.6538C97.2436 50.3234 126.214 50.1245 152.99 41.0771L152.084 38.9488L153.924 38.1653L157.428 46.3946L155.588 47.1781L153.853 43.1043C126.525 52.3768 96.9377 52.5771 69.4943 43.6848L68.0264 47.1518L66.1846 46.372Z" fill="#0158CC"/>
<circle cx="111" cy="55.0918" r="4" fill="#67A8FF"/>
<circle cx="111" cy="98.0918" r="10" fill="#67A8FF"/>
<line x1="111" y1="59.0918" x2="111" y2="88.0918" stroke="#67A8FF" stroke-width="2" stroke-dasharray="2 2"/>
<circle cx="111.5" cy="190.592" r="2.5" fill="#016EFF"/>
<circle cx="111.5" cy="163.592" r="2.5" fill="#016EFF"/>
<line x1="111.5" y1="166.092" x2="111.5" y2="188.092" stroke="#016EFF" stroke-dasharray="2 2"/>
<circle opacity="0.5" cx="111" cy="136.092" r="21" fill="url(#paint1_radial_651_17762)"/>
<path d="M93.3218 118.414C89.1634 122.573 86.6041 128.064 86.0938 133.923C85.5835 139.781 87.155 145.632 90.5319 150.447C93.9088 155.262 98.8749 158.732 104.557 160.247C110.24 161.763 116.274 161.227 121.6 158.733C126.926 156.239 131.203 151.948 133.678 146.613C136.153 141.278 136.668 135.242 135.132 129.565C133.597 123.888 130.11 118.934 125.283 115.574C120.457 112.214 114.6 110.663 108.743 111.194L108.872 112.621C114.394 112.121 119.914 113.583 124.464 116.75C129.014 119.918 132.302 124.588 133.749 129.939C135.196 135.291 134.711 140.981 132.378 146.01C130.044 151.039 126.013 155.084 120.992 157.435C115.972 159.786 110.283 160.291 104.927 158.863C99.57 157.434 94.8886 154.163 91.7053 149.624C88.522 145.085 87.0406 139.57 87.5216 134.047C88.0026 128.524 90.4153 123.348 94.3353 119.428L93.3218 118.414Z" fill="#46D2F5"/>
<g clip-path="url(#clip0_651_17762)">
<path d="M118.559 139.736C117.705 139.242 116.664 139.374 115.963 139.993L114.898 139.376V136.329C114.898 136.013 114.73 135.72 114.456 135.563L111.724 133.99V132.642C112.612 132.341 113.251 131.501 113.251 130.511C113.251 129.267 112.245 128.261 111.001 128.261C109.757 128.261 108.751 129.267 108.751 130.511C108.751 131.501 109.39 132.341 110.278 132.642V133.99L107.546 135.563C107.272 135.72 107.104 136.013 107.104 136.329V139.374L106.039 139.991C105.338 139.372 104.295 139.24 103.443 139.734C102.369 140.357 102.003 141.731 102.62 142.805C103.239 143.88 104.607 144.25 105.677 143.629C106.531 143.135 106.937 142.163 106.754 141.242L107.732 140.674L110.557 142.301C110.694 142.379 110.846 142.42 110.999 142.42C111.152 142.42 111.304 142.379 111.441 142.301L114.264 140.676L115.242 141.244C115.059 142.163 115.467 143.137 116.319 143.631C117.389 144.252 118.76 143.884 119.376 142.807C119.995 141.731 119.629 140.357 118.559 139.736V139.736ZM105.039 142.516C104.929 142.579 104.809 142.62 104.684 142.637C104.559 142.653 104.432 142.645 104.31 142.612C104.188 142.579 104.074 142.522 103.974 142.445C103.875 142.368 103.791 142.272 103.729 142.163C103.464 141.702 103.62 141.112 104.08 140.847C104.189 140.783 104.31 140.742 104.435 140.726C104.56 140.71 104.687 140.718 104.809 140.751C104.93 140.784 105.045 140.84 105.144 140.918C105.244 140.995 105.328 141.091 105.39 141.2C105.655 141.66 105.499 142.251 105.039 142.516ZM110.035 130.511C110.04 130.258 110.144 130.018 110.324 129.842C110.504 129.665 110.747 129.566 110.999 129.566C111.251 129.566 111.494 129.665 111.674 129.842C111.854 130.018 111.958 130.258 111.963 130.511C111.958 130.763 111.854 131.003 111.674 131.18C111.494 131.357 111.251 131.456 110.999 131.456C110.747 131.456 110.504 131.357 110.324 131.18C110.144 131.003 110.04 130.763 110.035 130.511V130.511ZM113.45 139.475L110.999 140.887L108.548 139.475V136.654L110.999 135.242L113.45 136.654V139.475V139.475ZM118.269 142.165C118.004 142.625 117.418 142.783 116.96 142.518C116.501 142.253 116.343 141.662 116.608 141.202C116.873 140.742 117.46 140.584 117.918 140.849C118.378 141.114 118.535 141.702 118.269 142.165Z" fill="#016EFF"/>
</g>
<defs>
<linearGradient id="paint0_linear_651_17762" x1="110.935" y1="49.0932" x2="111.023" y2="135.093" gradientUnits="userSpaceOnUse">
<stop stop-color="#25B1FF" stop-opacity="0.5"/>
<stop offset="1" stop-color="#25B1FF" stop-opacity="0"/>
</linearGradient>
<radialGradient id="paint1_radial_651_17762" cx="0" cy="0" r="1" gradientUnits="userSpaceOnUse" gradientTransform="translate(111 136.092) rotate(-90) scale(21)">
<stop stop-color="#CEF7FF"/>
<stop offset="1" stop-color="#42E1FB"/>
</radialGradient>
<clipPath id="clip0_651_17762">
<rect width="18" height="18" fill="white" transform="translate(102 127.092)"/>
</clipPath>
</defs>
</svg>
