<svg width="223" height="224" viewBox="0 0 223 224" fill="none" xmlns="http://www.w3.org/2000/svg">
<path opacity="0.2" d="M69.2251 43.9L23.875 137.094C79.2057 158.743 140.62 158.985 196.12 137.772L154.395 43.268C126.822 52.6931 96.9351 52.9148 69.2251 43.9V43.9Z" fill="url(#paint0_linear_651_17452)"/>
<path fill-rule="evenodd" clip-rule="evenodd" d="M66.1851 47.2783L69.6724 39.0418L71.5141 39.8216L70.3546 42.5601C97.2441 51.2297 126.215 51.0308 152.991 41.9834L152.084 39.8551L153.924 39.0715L157.429 47.3008L155.588 48.0844L153.854 44.0106C126.525 53.283 96.9382 53.4834 69.4947 44.591L68.0268 48.058L66.1851 47.2783Z" fill="#0158CC"/>
<circle cx="111" cy="55.998" r="4" fill="#67A8FF"/>
<circle cx="111" cy="98.998" r="10" fill="#67A8FF"/>
<line x1="111" y1="59.998" x2="111" y2="88.998" stroke="#67A8FF" stroke-width="2" stroke-dasharray="2 2"/>
<circle cx="111.5" cy="191.498" r="2.5" fill="#016EFF"/>
<circle cx="111.5" cy="164.498" r="2.5" fill="#016EFF"/>
<line x1="111.5" y1="166.998" x2="111.5" y2="188.998" stroke="#016EFF" stroke-dasharray="2 2"/>
<circle opacity="0.5" cx="111" cy="136.998" r="21" fill="url(#paint1_radial_651_17452)"/>
<path d="M93.3223 119.32C89.1639 123.479 86.6046 128.97 86.0943 134.829C85.584 140.688 87.1555 146.539 90.5324 151.353C93.9093 156.168 98.8754 159.638 104.558 161.154C110.24 162.669 116.275 162.133 121.601 159.639C126.927 157.146 131.203 152.854 133.678 147.519C136.153 142.185 136.668 136.148 135.133 130.471C133.598 124.794 130.11 119.84 125.284 116.48C120.457 113.12 114.601 111.569 108.744 112.1L108.873 113.527C114.394 113.027 119.915 114.489 124.465 117.657C129.015 120.824 132.302 125.494 133.749 130.845C135.197 136.197 134.711 141.887 132.378 146.916C130.045 151.945 126.014 155.991 120.993 158.341C115.972 160.692 110.284 161.197 104.927 159.769C99.5705 158.34 94.8891 155.069 91.7058 150.53C88.5224 145.992 87.0411 140.476 87.5221 134.953C88.0031 129.43 90.4157 124.254 94.3358 120.334L93.3223 119.32Z" fill="#46D2F5"/>
<g clip-path="url(#clip0_651_17452)">
<path d="M117.429 140.855L107.143 140.855L107.143 139.569L117.429 139.569L117.429 140.855V140.855Z" fill="#016EFF"/>
<path d="M117.429 137.641L113.572 137.641L113.572 133.141L117.429 133.141L117.429 137.641V137.641Z" fill="#016EFF"/>
<path d="M112.286 137.641L107.143 137.641L107.143 136.998L112.286 136.998L112.286 137.641Z" fill="#016EFF"/>
<path d="M112.286 135.712L107.143 135.712L107.143 135.07L112.286 135.07L112.286 135.712Z" fill="#016EFF"/>
<path d="M112.286 133.784L107.143 133.784L107.143 133.141L112.286 133.141L112.286 133.784Z" fill="#016EFF"/>
<path d="M102.643 140.855L104.571 140.855L104.571 144.07C104.571 144.425 104.859 144.712 105.214 144.712L119.357 144.712C119.712 144.712 120 144.425 120 144.07L120 129.927C120 129.571 119.712 129.284 119.357 129.284L102.643 129.284C102.288 129.284 102 129.571 102 129.927L102 140.212C102 140.567 102.288 140.855 102.643 140.855ZM105.857 130.57L118.714 130.57L118.714 143.427L105.857 143.427L105.857 130.57ZM103.286 130.57L104.571 130.57L104.571 139.57L103.286 139.57L103.286 130.57Z" fill="#016EFF"/>
</g>
<defs>
<linearGradient id="paint0_linear_651_17452" x1="110.935" y1="49.9995" x2="111.023" y2="135.999" gradientUnits="userSpaceOnUse">
<stop stop-color="#25B1FF" stop-opacity="0.5"/>
<stop offset="1" stop-color="#25B1FF" stop-opacity="0"/>
</linearGradient>
<radialGradient id="paint1_radial_651_17452" cx="0" cy="0" r="1" gradientUnits="userSpaceOnUse" gradientTransform="translate(111 136.998) rotate(-90) scale(21)">
<stop stop-color="#CEF7FF"/>
<stop offset="1" stop-color="#42E1FB"/>
</radialGradient>
<clipPath id="clip0_651_17452">
<rect width="18" height="18" fill="white" transform="translate(120 145.998) rotate(180)"/>
</clipPath>
</defs>
</svg>
