<svg width="223" height="223" viewBox="0 0 223 223" fill="none" xmlns="http://www.w3.org/2000/svg">
<path d="M69.2275 42.9019L23.8774 136.096C79.2082 157.745 140.623 157.987 196.122 136.774L154.398 42.27C126.825 51.695 96.9375 51.9168 69.2275 42.9019V42.9019Z" fill="url(#paint0_linear_651_17596)"/>
<path fill-rule="evenodd" clip-rule="evenodd" d="M66.1876 46.2802L69.6748 38.0438L71.5165 38.8235L70.3571 41.562C97.2465 50.2316 126.217 50.0327 152.993 40.9853L152.087 38.857L153.927 38.0735L157.431 46.3028L155.591 47.0863L153.856 43.0125C126.528 52.285 96.9407 52.4853 69.4972 43.593L68.0293 47.06L66.1876 46.2802Z" fill="#0158CC"/>
<circle cx="111.002" cy="55" r="4" fill="#67A8FF"/>
<circle cx="111.002" cy="98" r="10" fill="#67A8FF"/>
<line x1="111.002" y1="59" x2="111.002" y2="88" stroke="#67A8FF" stroke-width="2" stroke-dasharray="2 2"/>
<circle cx="111.502" cy="190.5" r="2.5" fill="#016EFF"/>
<circle cx="111.502" cy="163.5" r="2.5" fill="#016EFF"/>
<line x1="111.502" y1="166" x2="111.502" y2="188" stroke="#016EFF" stroke-dasharray="2 2"/>
<circle cx="111.002" cy="136" r="21" fill="#016EFF"/>
<path d="M93.3248 118.322C89.1663 122.481 86.607 127.972 86.0967 133.831C85.5865 139.69 87.1579 145.541 90.5348 150.355C93.9117 155.17 98.8779 158.64 104.56 160.156C110.242 161.671 116.277 161.135 121.603 158.641C126.929 156.148 131.206 151.856 133.681 146.521C136.156 141.187 136.671 135.15 135.135 129.473C133.6 123.796 130.113 118.842 125.286 115.482C120.46 112.122 114.603 110.571 108.746 111.102L108.875 112.529C114.397 112.029 119.917 113.491 124.467 116.658C129.017 119.826 132.305 124.496 133.752 129.847C135.199 135.199 134.714 140.889 132.381 145.918C130.047 150.947 126.016 154.993 120.995 157.343C115.975 159.694 110.286 160.199 104.929 158.771C99.5729 157.342 94.8915 154.071 91.7082 149.532C88.5249 144.994 87.0435 139.478 87.5245 133.955C88.0056 128.432 90.4182 123.256 94.3382 119.336L93.3248 118.322Z" fill="#016EFF"/>
<g clip-path="url(#clip0_651_17596)">
<path d="M117.431 139.857L107.145 139.857L107.145 138.571L117.431 138.571L117.431 139.857V139.857Z" fill="white"/>
<path d="M117.431 136.643L113.574 136.643L113.574 132.143L117.431 132.143L117.431 136.643V136.643Z" fill="white"/>
<path d="M112.288 136.643L107.145 136.643L107.145 136L112.288 136L112.288 136.643Z" fill="white"/>
<path d="M112.288 134.714L107.145 134.714L107.145 134.071L112.288 134.071L112.288 134.714Z" fill="white"/>
<path d="M112.288 132.786L107.145 132.786L107.145 132.143L112.288 132.143L112.288 132.786Z" fill="white"/>
<path d="M102.645 139.857L104.574 139.857L104.574 143.071C104.574 143.427 104.861 143.714 105.217 143.714L119.36 143.714C119.715 143.714 120.002 143.427 120.002 143.071L120.002 128.929C120.002 128.573 119.715 128.286 119.36 128.286L102.645 128.286C102.29 128.286 102.002 128.573 102.002 128.929L102.002 139.214C102.002 139.569 102.29 139.857 102.645 139.857ZM105.86 129.571L118.717 129.571L118.717 142.429L105.86 142.429L105.86 129.571ZM103.288 129.571L104.574 129.571L104.574 138.571L103.288 138.571L103.288 129.571Z" fill="white"/>
</g>
<defs>
<linearGradient id="paint0_linear_651_17596" x1="110.938" y1="49.0014" x2="111.026" y2="135.001" gradientUnits="userSpaceOnUse">
<stop stop-color="#25B1FF" stop-opacity="0.5"/>
<stop offset="1" stop-color="#25B1FF" stop-opacity="0"/>
</linearGradient>
<clipPath id="clip0_651_17596">
<rect width="18" height="18" fill="white" transform="translate(120.002 145) rotate(180)"/>
</clipPath>
</defs>
</svg>
