<svg width="223" height="223" viewBox="0 0 223 223" fill="none" xmlns="http://www.w3.org/2000/svg">
<path d="M69.2275 42.9024L23.8774 136.096C79.2082 157.745 140.623 157.987 196.122 136.775L154.398 42.2705C126.825 51.6955 96.9375 51.9173 69.2275 42.9024V42.9024Z" fill="url(#paint0_linear_651_17622)"/>
<path fill-rule="evenodd" clip-rule="evenodd" d="M66.1876 46.2807L69.6748 38.0443L71.5165 38.824L70.3571 41.5625C97.2465 50.2321 126.217 50.0332 152.993 40.9858L152.087 38.8575L153.927 38.074L157.431 46.3032L155.591 47.0868L153.856 43.013C126.528 52.2855 96.9407 52.4858 69.4972 43.5935L68.0293 47.0605L66.1876 46.2807Z" fill="#0158CC"/>
<circle cx="111.002" cy="55.0005" r="4" fill="#67A8FF"/>
<circle cx="111.002" cy="98.0005" r="10" fill="#67A8FF"/>
<line x1="111.002" y1="59.0005" x2="111.002" y2="88.0005" stroke="#67A8FF" stroke-width="2" stroke-dasharray="2 2"/>
<circle cx="111.502" cy="190.5" r="2.5" fill="#016EFF"/>
<circle cx="111.502" cy="163.5" r="2.5" fill="#016EFF"/>
<line x1="111.502" y1="166" x2="111.502" y2="188" stroke="#016EFF" stroke-dasharray="2 2"/>
<circle cx="111.002" cy="136" r="21" fill="#016EFF"/>
<path d="M93.3248 118.323C89.1663 122.481 86.607 127.973 86.0967 133.831C85.5865 139.69 87.1579 145.541 90.5348 150.356C93.9117 155.171 98.8779 158.641 104.56 160.156C110.242 161.672 116.277 161.135 121.603 158.642C126.929 156.148 131.206 151.857 133.681 146.522C136.156 141.187 136.671 135.151 135.135 129.474C133.6 123.797 130.113 118.843 125.286 115.483C120.46 112.123 114.603 110.572 108.746 111.103L108.875 112.53C114.397 112.03 119.917 113.492 124.467 116.659C129.017 119.826 132.305 124.496 133.752 129.848C135.199 135.199 134.714 140.89 132.381 145.919C130.047 150.948 126.016 154.993 120.995 157.344C115.975 159.694 110.286 160.2 104.929 158.771C99.5729 157.343 94.8915 154.072 91.7082 149.533C88.5249 144.994 87.0435 139.478 87.5245 133.956C88.0056 128.433 90.4182 123.256 94.3382 119.336L93.3248 118.323Z" fill="#016EFF"/>
<g clip-path="url(#clip0_651_17622)">
<path d="M105.386 138.705L107.049 137.043C107.212 137.016 107.377 137.005 107.542 137.011C107.745 136.994 107.95 137.021 108.142 137.09C108.334 137.159 108.509 137.267 108.656 137.408L108.736 137.488C108.832 137.67 108.899 137.866 108.934 138.069L109.022 138.49C109.086 138.793 109.133 139.111 109.173 139.421C109.266 140.487 109.731 141.487 110.486 142.245C111.356 143.116 112.531 143.614 113.762 143.633C114.993 143.653 116.183 143.192 117.08 142.348L117.327 142.102C118.169 141.211 118.634 140.03 118.627 138.805C118.619 137.579 118.14 136.404 117.287 135.523C116.52 134.752 115.507 134.273 114.423 134.171C114.129 134.131 113.827 134.083 113.524 134.02C113.178 133.971 112.842 133.866 112.53 133.709L112.45 133.63C112.311 133.487 112.203 133.318 112.132 133.132C112.061 132.946 112.028 132.747 112.037 132.548C112.035 132.385 112.048 132.223 112.077 132.063L113.723 130.416C114.829 129.31 114.885 128.395 113.914 127.425L111.75 125.261C111.601 125.109 111.422 124.989 111.226 124.907C111.029 124.824 110.818 124.782 110.605 124.782C110.392 124.782 110.181 124.824 109.984 124.907C109.787 124.989 109.609 125.109 109.459 125.261L100.24 134.481C99.9393 134.786 99.7716 135.196 99.7731 135.624C99.7746 136.052 99.9451 136.462 100.248 136.764L102.395 138.912C103.366 139.882 104.281 139.827 105.386 138.721L105.386 138.705ZM110.891 126.073L113.047 128.228C113.31 128.491 113.437 128.618 113.381 128.817C113.281 129.107 113.099 129.361 112.856 129.549L110.947 131.458L110.907 131.625C110.832 131.941 110.787 132.263 110.772 132.588C110.769 132.957 110.843 133.322 110.99 133.66C111.136 133.999 111.352 134.303 111.623 134.553C112.086 134.944 112.658 135.183 113.262 135.237C113.62 135.308 113.994 135.364 114.36 135.412C115.147 135.481 115.884 135.825 116.444 136.382C117.076 137.038 117.431 137.913 117.435 138.824C117.44 139.735 117.093 140.612 116.468 141.275L116.261 141.481C115.598 142.092 114.726 142.425 113.824 142.411C112.923 142.398 112.061 142.039 111.416 141.41C110.859 140.85 110.515 140.112 110.446 139.326C110.405 138.989 110.347 138.654 110.271 138.323L110.159 137.83C110.083 137.391 109.885 136.983 109.587 136.653C109.337 136.373 109.031 136.149 108.688 135.998C108.345 135.847 107.973 135.772 107.598 135.778C107.28 135.776 106.962 135.811 106.651 135.881L106.484 135.921L104.567 137.838C103.891 138.514 103.724 138.474 103.27 138.021L101.123 135.873C101.047 135.794 101.005 135.688 101.005 135.579C101.005 135.469 101.047 135.364 101.123 135.284L110.35 126.057C110.389 126.018 110.435 125.988 110.485 125.967C110.536 125.947 110.59 125.936 110.645 125.937C110.758 125.939 110.866 125.985 110.947 126.065L110.891 126.073Z" fill="white" stroke="white" stroke-width="0.3"/>
<path d="M109.73 130.384L105.371 134.744L104.543 133.916L108.903 129.557L109.73 130.384Z" fill="white" stroke="white" stroke-width="0.3"/>
</g>
<defs>
<linearGradient id="paint0_linear_651_17622" x1="110.938" y1="49.0019" x2="111.026" y2="135.002" gradientUnits="userSpaceOnUse">
<stop stop-color="#25B1FF" stop-opacity="0.5"/>
<stop offset="1" stop-color="#25B1FF" stop-opacity="0"/>
</linearGradient>
<clipPath id="clip0_651_17622">
<rect width="18" height="18" fill="white" transform="translate(123.73 136) rotate(135)"/>
</clipPath>
</defs>
</svg>
