<svg width="223" height="223" viewBox="0 0 223 223" fill="none" xmlns="http://www.w3.org/2000/svg">
<path opacity="0.2" d="M69.2251 42.9024L23.875 136.096C79.2057 157.745 140.62 157.987 196.12 136.775L154.395 42.2705C126.822 51.6955 96.9351 51.9173 69.2251 42.9024V42.9024Z" fill="url(#paint0_linear_651_17504)"/>
<path fill-rule="evenodd" clip-rule="evenodd" d="M66.1851 46.2807L69.6724 38.0443L71.5141 38.824L70.3546 41.5625C97.2441 50.2321 126.215 50.0332 152.991 40.9858L152.084 38.8575L153.924 38.074L157.429 46.3032L155.588 47.0868L153.854 43.013C126.525 52.2855 96.9382 52.4858 69.4947 43.5935L68.0268 47.0605L66.1851 46.2807Z" fill="#0158CC"/>
<circle cx="111" cy="55.0005" r="4" fill="#67A8FF"/>
<circle cx="111" cy="98.0005" r="10" fill="#67A8FF"/>
<line x1="111" y1="59.0005" x2="111" y2="88.0005" stroke="#67A8FF" stroke-width="2" stroke-dasharray="2 2"/>
<circle cx="111.5" cy="190.5" r="2.5" fill="#016EFF"/>
<circle cx="111.5" cy="163.5" r="2.5" fill="#016EFF"/>
<line x1="111.5" y1="166" x2="111.5" y2="188" stroke="#016EFF" stroke-dasharray="2 2"/>
<circle opacity="0.5" cx="111" cy="136" r="21" fill="url(#paint1_radial_651_17504)"/>
<path d="M93.3223 118.323C89.1639 122.481 86.6046 127.973 86.0943 133.831C85.584 139.69 87.1555 145.541 90.5324 150.356C93.9093 155.171 98.8754 158.641 104.558 160.156C110.24 161.672 116.275 161.135 121.601 158.642C126.927 156.148 131.203 151.857 133.678 146.522C136.153 141.187 136.668 135.151 135.133 129.474C133.598 123.797 130.11 118.843 125.284 115.483C120.457 112.123 114.601 110.572 108.744 111.103L108.873 112.53C114.394 112.03 119.915 113.492 124.465 116.659C129.015 119.826 132.302 124.496 133.749 129.848C135.197 135.199 134.711 140.89 132.378 145.919C130.045 150.948 126.014 154.993 120.993 157.344C115.972 159.694 110.284 160.2 104.927 158.771C99.5705 157.343 94.8891 154.072 91.7058 149.533C88.5224 144.994 87.0411 139.478 87.5221 133.956C88.0031 128.433 90.4157 123.256 94.3358 119.336L93.3223 118.323Z" fill="#46D2F5"/>
<g clip-path="url(#clip0_651_17504)">
<path d="M105.384 138.705L107.047 137.043C107.21 137.016 107.375 137.005 107.54 137.011C107.743 136.994 107.947 137.021 108.139 137.09C108.331 137.159 108.507 137.267 108.654 137.408L108.733 137.488C108.829 137.67 108.896 137.866 108.932 138.069L109.019 138.49C109.083 138.793 109.131 139.111 109.171 139.421C109.264 140.487 109.728 141.487 110.483 142.245C111.353 143.116 112.528 143.614 113.76 143.633C114.991 143.653 116.181 143.192 117.078 142.348L117.324 142.102C118.166 141.211 118.632 140.03 118.624 138.805C118.617 137.579 118.137 136.404 117.285 135.523C116.517 134.752 115.504 134.273 114.421 134.171C114.127 134.131 113.824 134.083 113.522 134.02C113.176 133.971 112.84 133.866 112.528 133.709L112.448 133.63C112.309 133.487 112.201 133.318 112.13 133.132C112.058 132.946 112.026 132.747 112.034 132.548C112.032 132.385 112.046 132.223 112.074 132.063L113.721 130.416C114.827 129.31 114.882 128.395 113.912 127.425L111.748 125.261C111.598 125.109 111.42 124.989 111.223 124.907C111.027 124.824 110.816 124.782 110.602 124.782C110.389 124.782 110.178 124.824 109.982 124.907C109.785 124.989 109.607 125.109 109.457 125.261L100.237 134.481C99.9368 134.786 99.7691 135.196 99.7706 135.624C99.7721 136.052 99.9427 136.462 100.245 136.764L102.393 138.912C103.363 139.882 104.278 139.827 105.384 138.721L105.384 138.705ZM110.889 126.073L113.045 128.228C113.307 128.491 113.434 128.618 113.379 128.817C113.279 129.107 113.096 129.361 112.854 129.549L110.945 131.458L110.905 131.625C110.83 131.941 110.785 132.263 110.77 132.588C110.767 132.957 110.841 133.322 110.987 133.66C111.134 133.999 111.35 134.303 111.621 134.553C112.083 134.944 112.656 135.183 113.259 135.237C113.617 135.308 113.991 135.364 114.357 135.412C115.144 135.481 115.882 135.825 116.441 136.382C117.073 137.038 117.429 137.913 117.433 138.824C117.437 139.735 117.091 140.612 116.465 141.275L116.258 141.481C115.595 142.092 114.723 142.425 113.822 142.411C112.921 142.398 112.059 142.039 111.414 141.41C110.856 140.85 110.513 140.112 110.443 139.326C110.403 138.989 110.344 138.654 110.268 138.323L110.157 137.83C110.081 137.391 109.882 136.983 109.584 136.653C109.335 136.373 109.028 136.149 108.685 135.998C108.342 135.847 107.97 135.772 107.596 135.778C107.277 135.776 106.959 135.811 106.649 135.881L106.482 135.921L104.565 137.838C103.888 138.514 103.721 138.474 103.268 138.021L101.12 135.873C101.045 135.794 101.003 135.688 101.003 135.579C101.003 135.469 101.045 135.364 101.12 135.284L110.348 126.057C110.386 126.018 110.432 125.988 110.483 125.967C110.533 125.947 110.588 125.936 110.642 125.937C110.756 125.939 110.864 125.985 110.945 126.065L110.889 126.073Z" fill="#016EFF" stroke="#016EFF" stroke-width="0.3"/>
<path d="M109.728 130.384L105.368 134.744L104.541 133.916L108.9 129.557L109.728 130.384Z" fill="#016EFF" stroke="#016EFF" stroke-width="0.3"/>
</g>
<defs>
<linearGradient id="paint0_linear_651_17504" x1="110.935" y1="49.0019" x2="111.023" y2="135.002" gradientUnits="userSpaceOnUse">
<stop stop-color="#25B1FF" stop-opacity="0.5"/>
<stop offset="1" stop-color="#25B1FF" stop-opacity="0"/>
</linearGradient>
<radialGradient id="paint1_radial_651_17504" cx="0" cy="0" r="1" gradientUnits="userSpaceOnUse" gradientTransform="translate(111 136) rotate(-90) scale(21)">
<stop stop-color="#CEF7FF"/>
<stop offset="1" stop-color="#42E1FB"/>
</radialGradient>
<clipPath id="clip0_651_17504">
<rect width="18" height="18" fill="white" transform="translate(123.728 136) rotate(135)"/>
</clipPath>
</defs>
</svg>
