<svg width="223" height="224" viewBox="0 0 223 224" fill="none" xmlns="http://www.w3.org/2000/svg">
<path opacity="0.2" d="M69.2246 43.9L23.8745 137.094C79.2052 158.743 140.62 158.985 196.119 137.772L154.395 43.268C126.822 52.6931 96.9346 52.9148 69.2246 43.9V43.9Z" fill="url(#paint0_linear_651_17714)"/>
<path fill-rule="evenodd" clip-rule="evenodd" d="M66.1846 47.2783L69.6719 39.0418L71.5136 39.8216L70.3541 42.5601C97.2436 51.2297 126.214 51.0308 152.99 41.9834L152.084 39.8551L153.924 39.0715L157.428 47.3008L155.588 48.0844L153.853 44.0106C126.525 53.283 96.9377 53.4834 69.4943 44.591L68.0264 48.058L66.1846 47.2783Z" fill="#0158CC"/>
<circle cx="111" cy="55.998" r="4" fill="#67A8FF"/>
<circle cx="111" cy="98.998" r="10" fill="#67A8FF"/>
<line x1="111" y1="59.998" x2="111" y2="88.998" stroke="#67A8FF" stroke-width="2" stroke-dasharray="2 2"/>
<circle cx="111.5" cy="191.498" r="2.5" fill="#016EFF"/>
<circle cx="111.5" cy="164.498" r="2.5" fill="#016EFF"/>
<line x1="111.5" y1="166.998" x2="111.5" y2="188.998" stroke="#016EFF" stroke-dasharray="2 2"/>
<circle opacity="0.5" cx="111" cy="136.998" r="21" fill="url(#paint1_radial_651_17714)"/>
<path d="M93.3218 119.32C89.1634 123.479 86.6041 128.97 86.0938 134.829C85.5835 140.688 87.155 146.539 90.5319 151.353C93.9088 156.168 98.8749 159.638 104.557 161.154C110.24 162.669 116.274 162.133 121.6 159.639C126.926 157.146 131.203 152.854 133.678 147.519C136.153 142.185 136.668 136.148 135.132 130.471C133.597 124.794 130.11 119.84 125.283 116.48C120.457 113.12 114.6 111.569 108.743 112.1L108.872 113.527C114.394 113.027 119.914 114.489 124.464 117.657C129.014 120.824 132.302 125.494 133.749 130.845C135.196 136.197 134.711 141.887 132.378 146.916C130.044 151.945 126.013 155.991 120.992 158.341C115.972 160.692 110.283 161.197 104.927 159.769C99.57 158.34 94.8886 155.069 91.7053 150.53C88.522 145.992 87.0406 140.476 87.5216 134.953C88.0026 129.43 90.4153 124.254 94.3353 120.334L93.3218 119.32Z" fill="#46D2F5"/>
<g clip-path="url(#clip0_651_17714)">
<path d="M116.344 136.655L117.026 135.973C117.088 135.91 117.088 135.808 117.026 135.746L111.571 130.291C111.508 130.228 111.406 130.228 111.344 130.291L110.662 130.973C110.599 131.035 110.599 131.137 110.662 131.2L116.117 136.655C116.179 136.717 116.281 136.717 116.344 136.655ZM109.525 132.336C109.463 132.274 109.361 132.274 109.298 132.336L108.616 133.018C108.554 133.081 108.554 133.183 108.616 133.245L111.23 135.859C111.292 135.922 111.395 135.922 111.457 135.859L112.139 135.177C112.202 135.115 112.202 135.013 112.139 134.95L109.525 132.336ZM113.219 139.325C111.524 137.631 108.777 137.631 107.082 139.325C105.387 141.02 105.387 143.767 107.082 145.462C108.777 147.157 111.524 147.157 113.219 145.462C114.913 143.767 114.913 141.02 113.219 139.325ZM110.15 145.448C109.335 145.448 108.568 145.13 107.991 144.553C107.414 143.976 107.096 143.209 107.096 142.394C107.096 141.578 107.414 140.811 107.991 140.234C108.568 139.658 109.335 139.339 110.15 139.339C110.966 139.339 111.733 139.658 112.31 140.234C112.886 140.811 113.204 141.578 113.204 142.394C113.204 143.209 112.886 143.976 112.31 144.553C111.733 145.13 110.966 145.448 110.15 145.448ZM108.559 143.075C108.439 143.196 108.371 143.36 108.371 143.53C108.371 143.701 108.439 143.864 108.559 143.985C108.68 144.105 108.843 144.173 109.014 144.173C109.184 144.173 109.348 144.105 109.468 143.985C109.589 143.864 109.657 143.701 109.657 143.53C109.657 143.36 109.589 143.196 109.468 143.075C109.348 142.955 109.184 142.887 109.014 142.887C108.843 142.887 108.68 142.955 108.559 143.075ZM109.639 142.337L110.207 142.905C110.27 142.968 110.372 142.968 110.434 142.905L112.025 141.314C112.088 141.252 112.088 141.149 112.025 141.087L111.457 140.519C111.395 140.456 111.292 140.456 111.23 140.519L109.639 142.11C109.576 142.172 109.576 142.274 109.639 142.337ZM105.15 140.803L101.854 137.507L111.855 127.506L119.81 135.461L114.923 140.348C114.861 140.411 114.861 140.513 114.923 140.575L115.719 141.371C115.781 141.433 115.884 141.433 115.946 141.371L121.401 135.916C121.652 135.665 121.652 135.258 121.401 135.007L112.31 125.916C112.058 125.664 111.652 125.664 111.4 125.916L100.263 137.052C100.012 137.304 100.012 137.71 100.263 137.962L104.127 141.825C104.19 141.888 104.292 141.888 104.355 141.825L105.15 141.03C105.213 140.967 105.213 140.865 105.15 140.803Z" fill="#016EFF"/>
</g>
<defs>
<linearGradient id="paint0_linear_651_17714" x1="110.935" y1="49.9995" x2="111.023" y2="135.999" gradientUnits="userSpaceOnUse">
<stop stop-color="#25B1FF" stop-opacity="0.5"/>
<stop offset="1" stop-color="#25B1FF" stop-opacity="0"/>
</linearGradient>
<radialGradient id="paint1_radial_651_17714" cx="0" cy="0" r="1" gradientUnits="userSpaceOnUse" gradientTransform="translate(111 136.998) rotate(-90) scale(21)">
<stop stop-color="#CEF7FF"/>
<stop offset="1" stop-color="#42E1FB"/>
</radialGradient>
<clipPath id="clip0_651_17714">
<rect width="18" height="18" fill="white" transform="translate(111 124.27) rotate(45)"/>
</clipPath>
</defs>
</svg>
