<svg width="223" height="224" viewBox="0 0 223 224" fill="none" xmlns="http://www.w3.org/2000/svg">
<path d="M69.2271 43.9L23.8769 137.094C79.2077 158.743 140.622 158.985 196.122 137.772L154.397 43.268C126.824 52.6931 96.937 52.9148 69.2271 43.9V43.9Z" fill="url(#paint0_linear_651_17696)"/>
<path fill-rule="evenodd" clip-rule="evenodd" d="M66.1871 47.2783L69.6743 39.0418L71.516 39.8216L70.3566 42.5601C97.246 51.2297 126.217 51.0308 152.992 41.9834L152.086 39.8551L153.926 39.0715L157.43 47.3008L155.59 48.0844L153.856 44.0106C126.527 53.283 96.9402 53.4834 69.4967 44.591L68.0288 48.058L66.1871 47.2783Z" fill="#0158CC"/>
<circle cx="111.002" cy="55.998" r="4" fill="#67A8FF"/>
<circle cx="111.002" cy="98.998" r="10" fill="#67A8FF"/>
<line x1="111.002" y1="59.998" x2="111.002" y2="88.998" stroke="#67A8FF" stroke-width="2" stroke-dasharray="2 2"/>
<circle cx="111.502" cy="191.498" r="2.5" fill="#016EFF"/>
<circle cx="111.502" cy="164.498" r="2.5" fill="#016EFF"/>
<line x1="111.502" y1="166.998" x2="111.502" y2="188.998" stroke="#016EFF" stroke-dasharray="2 2"/>
<circle cx="111.002" cy="136.998" r="21" fill="#016EFF"/>
<path d="M93.3243 119.32C89.1659 123.479 86.6065 128.97 86.0962 134.829C85.586 140.688 87.1574 146.539 90.5343 151.353C93.9112 156.168 98.8774 159.638 104.56 161.154C110.242 162.669 116.277 162.133 121.603 159.639C126.929 157.146 131.205 152.854 133.68 147.519C136.155 142.185 136.67 136.148 135.135 130.471C133.6 124.794 130.112 119.84 125.286 116.48C120.459 113.12 114.602 111.569 108.746 112.1L108.875 113.527C114.396 113.027 119.917 114.489 124.467 117.657C129.017 120.824 132.304 125.494 133.751 130.845C135.199 136.197 134.713 141.887 132.38 146.916C130.047 151.945 126.016 155.991 120.995 158.341C115.974 160.692 110.286 161.197 104.929 159.769C99.5725 158.34 94.891 155.069 91.7077 150.53C88.5244 145.992 87.043 140.476 87.5241 134.953C88.0051 129.43 90.4177 124.254 94.3377 120.334L93.3243 119.32Z" fill="#016EFF"/>
<g clip-path="url(#clip0_651_17696)">
<path d="M116.346 136.655L117.028 135.973C117.091 135.91 117.091 135.808 117.028 135.746L111.573 130.291C111.511 130.228 111.409 130.228 111.346 130.291L110.664 130.973C110.602 131.035 110.602 131.137 110.664 131.2L116.119 136.655C116.182 136.717 116.284 136.717 116.346 136.655ZM109.528 132.336C109.465 132.274 109.363 132.274 109.3 132.336L108.619 133.018C108.556 133.081 108.556 133.183 108.619 133.245L111.232 135.859C111.295 135.922 111.397 135.922 111.46 135.859L112.142 135.177C112.204 135.115 112.204 135.013 112.142 134.95L109.528 132.336ZM113.221 139.325C111.526 137.631 108.779 137.631 107.084 139.325C105.39 141.02 105.39 143.767 107.084 145.462C108.779 147.157 111.526 147.157 113.221 145.462C114.916 143.767 114.916 141.02 113.221 139.325ZM110.153 145.448C109.337 145.448 108.57 145.13 107.994 144.553C107.417 143.976 107.099 143.209 107.099 142.394C107.099 141.578 107.417 140.811 107.994 140.234C108.57 139.658 109.337 139.339 110.153 139.339C110.968 139.339 111.735 139.658 112.312 140.234C112.889 140.811 113.207 141.578 113.207 142.394C113.207 143.209 112.889 143.976 112.312 144.553C111.735 145.13 110.968 145.448 110.153 145.448ZM108.562 143.075C108.441 143.196 108.374 143.36 108.374 143.53C108.374 143.701 108.441 143.864 108.562 143.985C108.682 144.105 108.846 144.173 109.016 144.173C109.187 144.173 109.35 144.105 109.471 143.985C109.591 143.864 109.659 143.701 109.659 143.53C109.659 143.36 109.591 143.196 109.471 143.075C109.35 142.955 109.187 142.887 109.016 142.887C108.846 142.887 108.682 142.955 108.562 143.075ZM109.641 142.337L110.21 142.905C110.272 142.968 110.374 142.968 110.437 142.905L112.028 141.314C112.09 141.252 112.09 141.149 112.028 141.087L111.46 140.519C111.397 140.456 111.295 140.456 111.232 140.519L109.641 142.11C109.579 142.172 109.579 142.274 109.641 142.337ZM105.153 140.803L101.857 137.507L111.857 127.506L119.812 135.461L114.926 140.348C114.863 140.411 114.863 140.513 114.926 140.575L115.721 141.371C115.784 141.433 115.886 141.433 115.949 141.371L121.403 135.916C121.655 135.665 121.655 135.258 121.403 135.007L112.312 125.916C112.061 125.664 111.654 125.664 111.403 125.916L100.266 137.052C100.014 137.304 100.014 137.71 100.266 137.962L104.13 141.825C104.192 141.888 104.295 141.888 104.357 141.825L105.153 141.03C105.215 140.967 105.215 140.865 105.153 140.803Z" fill="white"/>
</g>
<defs>
<linearGradient id="paint0_linear_651_17696" x1="110.937" y1="49.9995" x2="111.025" y2="135.999" gradientUnits="userSpaceOnUse">
<stop stop-color="#25B1FF" stop-opacity="0.5"/>
<stop offset="1" stop-color="#25B1FF" stop-opacity="0"/>
</linearGradient>
<clipPath id="clip0_651_17696">
<rect width="18" height="18" fill="white" transform="translate(111.002 124.27) rotate(45)"/>
</clipPath>
</defs>
</svg>
