<svg width="223" height="223" viewBox="0 0 223 223" fill="none" xmlns="http://www.w3.org/2000/svg">
<path opacity="0.2" d="M69.2246 42.9019L23.8745 136.096C79.2052 157.745 140.62 157.987 196.119 136.774L154.395 42.27C126.822 51.695 96.9346 51.9168 69.2246 42.9019V42.9019Z" fill="url(#paint0_linear_651_17806)"/>
<path fill-rule="evenodd" clip-rule="evenodd" d="M66.1846 46.2802L69.6719 38.0438L71.5136 38.8235L70.3541 41.562C97.2436 50.2316 126.214 50.0327 152.99 40.9853L152.084 38.857L153.924 38.0735L157.428 46.3028L155.588 47.0863L153.853 43.0125C126.525 52.285 96.9377 52.4853 69.4943 43.593L68.0264 47.06L66.1846 46.2802Z" fill="#0158CC"/>
<circle cx="111" cy="55" r="4" fill="#67A8FF"/>
<circle cx="111" cy="98" r="10" fill="#67A8FF"/>
<line x1="111" y1="59" x2="111" y2="88" stroke="#67A8FF" stroke-width="2" stroke-dasharray="2 2"/>
<circle cx="111.5" cy="190.5" r="2.5" fill="#016EFF"/>
<circle cx="111.5" cy="163.5" r="2.5" fill="#016EFF"/>
<line x1="111.5" y1="166" x2="111.5" y2="188" stroke="#016EFF" stroke-dasharray="2 2"/>
<circle opacity="0.5" cx="111" cy="136" r="21" fill="url(#paint1_radial_651_17806)"/>
<path d="M93.3218 118.322C89.1634 122.481 86.6041 127.972 86.0938 133.831C85.5835 139.69 87.155 145.541 90.5319 150.355C93.9088 155.17 98.8749 158.64 104.557 160.156C110.24 161.671 116.274 161.135 121.6 158.641C126.926 156.148 131.203 151.856 133.678 146.521C136.153 141.187 136.668 135.15 135.132 129.473C133.597 123.796 130.11 118.842 125.283 115.482C120.457 112.122 114.6 110.571 108.743 111.102L108.872 112.529C114.394 112.029 119.914 113.491 124.464 116.658C129.014 119.826 132.302 124.496 133.749 129.847C135.196 135.199 134.711 140.889 132.378 145.918C130.044 150.947 126.013 154.993 120.992 157.343C115.972 159.694 110.283 160.199 104.927 158.771C99.57 157.342 94.8886 154.071 91.7053 149.532C88.522 144.994 87.0406 139.478 87.5216 133.955C88.0026 128.432 90.4153 123.256 94.3353 119.336L93.3218 118.322Z" fill="#46D2F5"/>
<g clip-path="url(#clip0_651_17806)">
<path d="M104.636 129.636C101.502 132.769 100.203 136.567 101.738 138.102L108.897 145.261C110.432 146.796 114.457 145.27 117.591 142.137C120.724 139.003 121.796 135.432 120.261 133.897L113.102 126.739C111.567 125.203 107.769 126.503 104.636 129.636ZM105.317 130.772C108.263 127.827 111.66 127.115 112.136 127.591C112.612 128.067 111.9 130.555 108.954 133.5C106.009 136.446 103.066 137.612 102.59 137.137C102.115 136.661 102.372 133.718 105.317 130.772ZM119.408 134.863C119.884 135.339 119.627 138.282 116.681 141.227C113.736 144.173 110.339 144.885 109.863 144.409L107.59 142.136C109.281 141.744 111.689 139.857 113.5 138.046C115.311 136.234 116.743 134.281 117.136 132.591L119.408 134.863ZM112.59 137.136C109.645 140.082 106.702 141.248 106.227 140.773L103.954 138.5C105.644 138.107 108.052 136.22 109.863 134.409C111.675 132.598 113.107 130.645 113.5 128.955L115.773 131.227C116.248 131.703 115.536 134.191 112.59 137.136Z" fill="#016EFF"/>
</g>
<defs>
<linearGradient id="paint0_linear_651_17806" x1="110.935" y1="49.0014" x2="111.023" y2="135.001" gradientUnits="userSpaceOnUse">
<stop stop-color="#25B1FF" stop-opacity="0.5"/>
<stop offset="1" stop-color="#25B1FF" stop-opacity="0"/>
</linearGradient>
<radialGradient id="paint1_radial_651_17806" cx="0" cy="0" r="1" gradientUnits="userSpaceOnUse" gradientTransform="translate(111 136) rotate(-90) scale(21)">
<stop stop-color="#CEF7FF"/>
<stop offset="1" stop-color="#42E1FB"/>
</radialGradient>
<clipPath id="clip0_651_17806">
<rect width="18" height="18" fill="white" transform="translate(98.2715 136) rotate(-45)"/>
</clipPath>
</defs>
</svg>
