<svg width="223" height="223" viewBox="0 0 223 223" fill="none" xmlns="http://www.w3.org/2000/svg">
<path d="M69.2271 42.9019L23.8769 136.096C79.2077 157.745 140.622 157.987 196.122 136.774L154.397 42.27C126.824 51.695 96.937 51.9168 69.2271 42.9019V42.9019Z" fill="url(#paint0_linear_651_17788)"/>
<path fill-rule="evenodd" clip-rule="evenodd" d="M66.1871 46.2802L69.6743 38.0438L71.516 38.8235L70.3566 41.562C97.246 50.2316 126.217 50.0327 152.992 40.9853L152.086 38.857L153.926 38.0735L157.43 46.3028L155.59 47.0863L153.856 43.0125C126.527 52.285 96.9402 52.4853 69.4967 43.593L68.0288 47.06L66.1871 46.2802Z" fill="#0158CC"/>
<circle cx="111.002" cy="55" r="4" fill="#67A8FF"/>
<circle cx="111.002" cy="98" r="10" fill="#67A8FF"/>
<line x1="111.002" y1="59" x2="111.002" y2="88" stroke="#67A8FF" stroke-width="2" stroke-dasharray="2 2"/>
<circle cx="111.502" cy="190.5" r="2.5" fill="#016EFF"/>
<circle cx="111.502" cy="163.5" r="2.5" fill="#016EFF"/>
<line x1="111.502" y1="166" x2="111.502" y2="188" stroke="#016EFF" stroke-dasharray="2 2"/>
<circle cx="111.002" cy="136" r="21" fill="#016EFF"/>
<path d="M93.3243 118.322C89.1659 122.481 86.6065 127.972 86.0962 133.831C85.586 139.69 87.1574 145.541 90.5343 150.355C93.9112 155.17 98.8774 158.64 104.56 160.156C110.242 161.671 116.277 161.135 121.603 158.641C126.929 156.148 131.205 151.856 133.68 146.521C136.155 141.187 136.67 135.15 135.135 129.473C133.6 123.796 130.112 118.842 125.286 115.482C120.459 112.122 114.602 110.571 108.746 111.102L108.875 112.529C114.396 112.029 119.917 113.491 124.467 116.658C129.017 119.826 132.304 124.496 133.751 129.847C135.199 135.199 134.713 140.889 132.38 145.918C130.047 150.947 126.016 154.993 120.995 157.343C115.974 159.694 110.286 160.199 104.929 158.771C99.5725 157.342 94.891 154.071 91.7077 149.532C88.5244 144.994 87.043 139.478 87.5241 133.955C88.0051 128.432 90.4177 123.256 94.3377 119.336L93.3243 118.322Z" fill="#016EFF"/>
<g clip-path="url(#clip0_651_17788)">
<path d="M104.638 129.636C101.505 132.769 100.205 136.567 101.741 138.102L108.899 145.261C110.434 146.796 114.46 145.27 117.593 142.137C120.726 139.003 121.798 135.432 120.263 133.897L113.104 126.739C111.569 125.203 107.771 126.503 104.638 129.636ZM105.32 130.772C108.265 127.827 111.663 127.115 112.139 127.591C112.614 128.067 111.902 130.555 108.957 133.5C106.011 136.446 103.069 137.612 102.593 137.137C102.117 136.661 102.374 133.718 105.32 130.772ZM119.411 134.863C119.887 135.339 119.629 138.282 116.684 141.227C113.738 144.173 110.342 144.885 109.866 144.409L107.593 142.136C109.283 141.744 111.691 139.857 113.502 138.046C115.314 136.234 116.746 134.281 117.138 132.591L119.411 134.863ZM112.593 137.136C109.647 140.082 106.705 141.248 106.229 140.773L103.957 138.5C105.647 138.107 108.055 136.22 109.866 134.409C111.677 132.598 113.109 130.645 113.502 128.955L115.775 131.227C116.25 131.703 115.538 134.191 112.593 137.136Z" fill="white"/>
</g>
<defs>
<linearGradient id="paint0_linear_651_17788" x1="110.937" y1="49.0014" x2="111.025" y2="135.001" gradientUnits="userSpaceOnUse">
<stop stop-color="#25B1FF" stop-opacity="0.5"/>
<stop offset="1" stop-color="#25B1FF" stop-opacity="0"/>
</linearGradient>
<clipPath id="clip0_651_17788">
<rect width="18" height="18" fill="white" transform="translate(98.2739 136) rotate(-45)"/>
</clipPath>
</defs>
</svg>
