<svg width="351" height="288" viewBox="0 0 351 288" fill="none" xmlns="http://www.w3.org/2000/svg">
<rect width="351" height="288" fill="url(#paint0_radial_3794_87727)"/>
<rect x="4" y="76" width="212" height="3.99999" transform="rotate(90 4 76)" fill="url(#paint1_linear_3794_87727)"/>
<path fill-rule="evenodd" clip-rule="evenodd" d="M17.4935 286.182L17.4936 68.1367L15.3067 68.1367L15.3066 287.998H15.3067V287.999L346.624 287.999V286.182L17.4935 286.182Z" fill="url(#paint2_linear_3794_87727)"/>
<path fill-rule="evenodd" clip-rule="evenodd" d="M336.785 26.3455V278.912H338.972L338.972 26.3455V24.5285L338.972 24.5273L336.785 24.5273V24.5285H15.3086V26.3455H336.785Z" fill="url(#paint3_linear_3794_87727)"/>
<rect x="351" y="254" width="34" height="4" transform="rotate(90 351 254)" fill="url(#paint4_linear_3794_87727)"/>
<rect x="4" width="34" height="4" transform="rotate(90 4 0)" fill="url(#paint5_linear_3794_87727)"/>
<rect x="351" y="288" width="27" height="2" transform="rotate(-180 351 288)" fill="url(#paint6_linear_3794_87727)"/>
<path fill-rule="evenodd" clip-rule="evenodd" d="M350.453 0H0V16.3518V16.3533V20.8944H103.879L112.623 16.3533H350.453V0Z" fill="url(#paint7_linear_3794_87727)"/>
<rect x="351" width="254" height="3.99999" transform="rotate(90 351 0)" fill="url(#paint8_linear_3794_87727)"/>
<rect x="16" y="8" width="5" height="4" fill="#30F2CB"/>
<rect x="32" y="8" width="4" height="4" fill="#30F2CB"/>
<rect x="47" y="8" width="4" height="4" fill="#30F2CB"/>
<rect x="62" y="8" width="4" height="4" fill="#30F2CB"/>
<rect x="73" width="277" height="4" fill="url(#paint9_linear_3794_87727)"/>
<path d="M39.832 47.424H34.152V57.616H35.512V48.816H38.488V57.616H39.832V52.16L40.568 53.104C41.176 52.336 41.704 51.472 42.152 50.528H46.392C46.36 55.328 46.312 58.128 46.216 58.96C46.12 59.76 45.784 60.16 45.224 60.16C44.52 60.16 43.704 60.128 42.776 60.08L43.128 61.44C44.232 61.472 45 61.504 45.448 61.504C46.76 61.504 47.48 60.832 47.64 59.52C47.8 58.208 47.88 54.72 47.88 49.056H42.728C42.936 48.416 43.112 47.728 43.24 47.024L41.768 46.832C41.416 48.688 40.776 50.288 39.832 51.632V47.424ZM44.616 53.952L43.464 54.512C43.688 55.088 43.896 55.712 44.104 56.384C43.432 56.544 42.712 56.672 41.96 56.752C42.568 55.504 43.192 53.984 43.8 52.176L42.424 51.712C41.512 54.896 40.792 56.624 40.28 56.88L40.52 58.192C41.944 58.048 43.256 57.84 44.472 57.584C44.568 57.936 44.68 58.304 44.776 58.688L46.008 58.064C45.56 56.576 45.096 55.2 44.616 53.952ZM36.36 49.824V55.072C36.312 56.448 36.104 57.568 35.752 58.432C35.384 59.232 34.68 59.888 33.656 60.416L34.456 61.68C35.544 61.136 36.328 60.352 36.808 59.36C37.304 58.304 37.576 56.864 37.608 55.072V49.824H36.36ZM38.296 58.016L37.336 58.96C38.232 59.888 38.936 60.752 39.416 61.552L40.52 60.48C39.912 59.664 39.16 58.848 38.296 58.016ZM59.304 46.928V51.232H56.312V61.584H57.832V58.16H62.248V59.392C62.248 59.904 62.056 60.176 61.688 60.176L60.232 60.096L60.632 61.552H62.184C63.24 61.552 63.768 60.944 63.768 59.728V51.232H60.792V46.928H59.304ZM57.832 55.424H62.248V56.88H57.832V55.424ZM62.248 54.128H57.832V52.672H62.248V54.128ZM57.176 47.536L55.896 48.16C56.424 48.928 56.904 49.792 57.352 50.784L58.584 50.16C58.136 49.2 57.656 48.336 57.176 47.536ZM62.92 47.376C62.552 48.288 62.056 49.216 61.448 50.144L62.68 50.784C63.288 49.872 63.8 48.928 64.184 47.968L62.92 47.376ZM51.592 46.912C51.176 48.768 50.488 50.512 49.496 52.112L50.728 52.896C50.92 52.576 51.096 52.256 51.288 51.92V53.168H52.136V54.816H50.056V56.224H52.136V59.392C52.136 59.648 51.944 59.856 51.56 60L52.184 61.296C53.592 60.928 54.824 60.464 55.896 59.888L55.64 58.544C54.968 58.944 54.28 59.28 53.608 59.536V56.224H55.688V54.816H53.608V53.168H55.144V51.808H51.336C51.624 51.248 51.912 50.64 52.168 50H55.416V48.56H52.68C52.808 48.128 52.936 47.68 53.064 47.216L51.592 46.912ZM68.456 47.424V53.008H77.544V47.424H68.456ZM76.024 51.568H69.976V48.864H76.024V51.568ZM72.232 54.208H66.312V61.408H67.8V60.64H70.76V61.408H72.232V54.208ZM67.8 59.216V55.648H70.76V59.216H67.8ZM79.688 54.208H73.592V61.408H75.08V60.64H78.168V61.408H79.688V54.208ZM75.08 59.216V55.648H78.168V59.216H75.08ZM89.768 52.528C91.48 53.104 93.16 53.872 94.808 54.832L95.624 53.568C93.864 52.768 91.912 52.096 89.768 51.52V51.36H95.8V49.936H89.768V46.864H88.232V49.936H82.2V51.36H86.84C85.928 52.224 84.36 53.008 82.12 53.712L82.936 55.024C85.496 54 87.256 52.768 88.232 51.36V54.112H89.768V52.528ZM88.872 57.728C90.344 59.584 92.52 60.896 95.4 61.68L96.168 60.336C93.672 59.76 91.704 58.768 90.264 57.376H95.928V55.952H89.544C89.656 55.52 89.752 55.072 89.816 54.592H88.28C88.216 55.072 88.104 55.52 87.976 55.952H82.072V57.376H87.304C87.096 57.696 86.84 58 86.536 58.272C85.576 59.12 84.008 59.776 81.864 60.24L82.456 61.648C84.984 61.04 86.76 60.24 87.784 59.216C88.2 58.784 88.552 58.288 88.872 57.728ZM85.24 47.104L83.928 47.536C84.408 48.224 84.824 48.944 85.144 49.68L86.424 49.36C86.072 48.496 85.688 47.744 85.24 47.104ZM92.744 47.072C92.392 47.936 91.976 48.656 91.496 49.232L92.76 49.68C93.304 49.024 93.736 48.272 94.072 47.408L92.744 47.072Z" fill="black" fill-opacity="0.85"/>
<path d="M39.592 82.224C37.96 82.8 36.04 83.264 33.848 83.616L34.04 85.088C36.12 84.72 37.96 84.24 39.592 83.664V82.224ZM36.392 70.8C35.816 72.56 35.112 74.16 34.312 75.6C34.12 75.872 33.912 76.064 33.688 76.16L34.056 77.552C34.92 77.424 35.768 77.312 36.568 77.2C35.784 78.512 35.128 79.424 34.616 79.968C34.424 80.144 34.2 80.288 33.928 80.4L34.328 81.76C35.928 81.552 37.608 81.152 39.4 80.544V79.184C38.312 79.568 37.224 79.872 36.152 80.096C37.08 78.944 38.216 77.104 39.576 74.608L38.248 74.128C37.928 74.72 37.64 75.28 37.352 75.824C36.712 75.92 36.088 76 35.48 76.064C36.28 74.848 37.048 73.28 37.816 71.344L36.392 70.8ZM39.352 72.736V74.208H43.048V76.224H39.88V77.696H47.784V76.224H44.568V74.208H48.248V72.736H44.568V70.928H43.048V72.736H39.352ZM47.448 78.944H40.264V85.6H41.752V84.96H45.976V85.6H47.448V78.944ZM41.752 83.52V80.384H45.976V83.52H41.752ZM57.224 70.896C56.872 73.072 56.232 74.928 55.272 76.448L56.248 77.728C56.888 76.784 57.416 75.712 57.848 74.512H62.408C62.392 79.312 62.328 82.128 62.2 82.96C62.072 83.76 61.656 84.176 60.952 84.176C60.424 84.176 59.8 84.144 59.096 84.096L59.432 85.456C60.264 85.488 60.84 85.52 61.192 85.52C62.6 85.52 63.4 84.864 63.592 83.552C63.752 82.224 63.848 78.736 63.848 73.088H58.28C58.44 72.448 58.584 71.776 58.712 71.072L57.224 70.896ZM56.04 82.304C57.56 81.984 58.92 81.664 60.136 81.312C60.264 81.744 60.392 82.192 60.52 82.672L61.848 82.08C61.432 80.672 60.968 79.344 60.424 78.112L59.16 78.544C59.368 79.056 59.576 79.6 59.784 80.192C59.112 80.352 58.408 80.496 57.64 80.656C58.104 79.776 58.696 78.384 59.416 76.464L58.072 75.984C56.952 79.12 56.184 80.8 55.752 81.04L56.04 82.304ZM53.544 77.872C53.912 78.384 54.344 79.04 54.84 79.824L55.704 78.528C54.968 77.664 54.248 76.864 53.544 76.144V75.344H55.384V73.888H53.544V70.896H52.056V73.888H49.864V75.344H51.96C51.448 77.216 50.648 78.88 49.544 80.336L50.2 82.016C50.936 80.832 51.56 79.536 52.056 78.128V85.584H53.544V77.872ZM70.6 71.184C69.944 72.384 69.256 73.408 68.52 74.256C67.624 75.264 66.664 76.048 65.64 76.624L66.472 77.952C67.848 76.992 68.904 76.08 69.672 75.216C70.424 74.384 71.176 73.296 71.912 71.984L70.6 71.184ZM71.064 78.576C70.728 79.92 70.264 81.008 69.672 81.856C68.936 82.8 67.832 83.664 66.392 84.432L67.368 85.696C69 84.768 70.232 83.712 71.064 82.56C71.704 81.568 72.216 80.24 72.6 78.576H76.216C76.136 80.864 75.96 82.368 75.704 83.072C75.448 83.744 74.904 84.08 74.104 84.08C73.272 84.08 72.376 84.048 71.432 84.016L71.848 85.52H74.872C75.688 85.472 76.28 85.2 76.648 84.72C77.016 84.224 77.272 83.344 77.432 82.096C77.592 80.816 77.688 79.168 77.752 77.12H68.072V78.576H71.064ZM75.464 70.976L74.136 71.728C75.112 74.24 76.84 76.288 79.304 77.888L80.328 76.688C77.96 75.28 76.344 73.376 75.464 70.976ZM85.592 77.68C85.976 78.208 86.44 78.896 86.984 79.728L87.8 78.512C87.064 77.632 86.328 76.816 85.592 76.064V75.344H87.624V73.888H85.592V70.88H84.104V73.888H81.896V75.344H84.008C83.496 77.2 82.664 78.848 81.528 80.288L82.184 81.952C82.952 80.752 83.592 79.44 84.104 78V85.6H85.592V77.68ZM95.08 70.896C93.112 71.6 90.872 71.984 88.376 72.048V77.312C88.28 80.336 87.576 82.704 86.28 84.4L87.368 85.536C88.888 83.504 89.704 80.768 89.832 77.328H92.424V85.616H93.96V77.328H96.2V75.872H89.832V73.344C92.04 73.232 94.04 72.864 95.832 72.256L95.08 70.896Z" fill="black" fill-opacity="0.85"/>
<g clip-path="url(#clip0_3794_87727)">
<path d="M184.929 165.473L159.596 166.997C160.19 177.775 164.666 187.974 172.198 195.709L190.244 177.872C187.045 174.508 185.159 170.108 184.929 165.473Z" fill="#4980CB"/>
<path d="M205.531 119.652L205.133 145.017C206.277 145.057 207.415 145.198 208.534 145.439L214.127 120.693C211.302 120.069 208.423 119.72 205.531 119.652Z" fill="#8ADAEA"/>
<path d="M228.899 126.902L215.117 148.206C217.13 149.531 218.88 151.216 220.279 153.178L241.338 139.005C238.014 134.204 233.79 130.094 228.899 126.902Z" fill="#61C1D9"/>
<path d="M222.13 172.617C220.26 176.671 217.059 179.964 213.059 181.948L223.612 205.021C233.043 200.542 240.626 192.929 245.065 183.482L222.13 172.617Z" fill="#78B2FF"/>
<path d="M212.603 182.168C210.033 183.361 207.233 183.977 204.4 183.971C203.56 183.971 202.72 183.918 201.886 183.813L198.145 208.899C200.211 209.186 202.295 209.33 204.381 209.331C210.856 209.339 217.255 207.942 223.137 205.236L212.603 182.168Z" fill="#78B2FF"/>
<path d="M223.89 164.797C223.855 167.333 223.32 169.837 222.316 172.167L245.27 183.056C247.9 177.275 249.265 170.999 249.276 164.648L223.89 164.797Z" fill="#78B2FF"/>
<path d="M241.615 139.422L220.561 153.591C222.704 156.758 223.863 160.488 223.89 164.312L249.276 164.144C249.222 155.328 246.556 146.725 241.615 139.422Z" fill="#61C1D9"/>
<path d="M214.603 120.797L209.01 145.548C211.023 146.04 212.945 146.849 214.704 147.945L228.486 126.642C224.222 123.923 219.528 121.947 214.603 120.797Z" fill="#61C1D9"/>
<path d="M204.381 119.637C197.643 119.63 190.991 121.142 184.919 124.062C178.848 126.982 173.514 131.234 169.314 136.5L189.4 152.017C191.228 149.819 193.518 148.05 196.107 146.838C198.696 145.625 201.522 144.998 204.381 145.002H204.616L205.009 119.637H204.381Z" fill="#003F94"/>
<path d="M190.585 178.223L172.543 196.06C179.324 202.906 188.135 207.383 197.665 208.824L201.397 183.732C197.296 183.099 193.507 181.168 190.585 178.223Z" fill="#4980CB"/>
<path d="M189.107 152.399L169.026 136.883C162.855 144.757 159.508 154.475 159.523 164.477C159.523 165.158 159.523 165.834 159.571 166.506L184.914 164.976V164.496C184.902 160.106 186.38 155.841 189.107 152.399Z" fill="#003F94"/>
<path opacity="0.6" d="M158.886 167.039L115.156 169.676C115.735 179.034 117.788 188.241 121.239 196.959L161.808 180.815C160.122 176.403 159.137 171.755 158.886 167.039Z" fill="#4980CB"/>
<path opacity="0.6" d="M161.995 181.25L121.426 197.394C123.359 202.205 125.711 206.837 128.454 211.237L165.434 188.169C164.092 185.965 162.941 183.65 161.995 181.25Z" fill="#4980CB"/>
<path opacity="0.6" d="M165.692 188.594L128.711 211.662C132.16 217.132 136.189 222.215 140.728 226.823L171.669 196.242C169.411 193.911 167.408 191.347 165.692 188.594Z" fill="#4980CB"/>
<path opacity="0.6" d="M206.227 74.543L205.531 118.939C208.473 119.005 211.402 119.356 214.276 119.989L224.072 76.6479C218.209 75.3485 212.231 74.6433 206.227 74.543Z" fill="#8ADAEA"/>
<path opacity="0.6" d="M267.409 100.238L236.357 131.947C238.43 133.977 240.306 136.199 241.96 138.583L278.735 113.827C275.415 108.937 271.621 104.385 267.409 100.238Z" fill="#61C1D9"/>
<path opacity="0.6" d="M253.426 88.9922L229.297 126.287C231.699 127.84 233.948 129.619 236.013 131.599L267.069 99.8909C262.886 95.8238 258.317 92.1737 253.426 88.9922Z" fill="#61C1D9"/>
<path opacity="0.6" d="M248.601 176C247.944 178.529 247.069 180.996 245.986 183.375L285.653 202.156C287.908 197.373 289.731 192.399 291.103 187.292L248.601 176Z" fill="#78B2FF"/>
<path opacity="0.6" d="M249.746 169.855C249.526 171.766 249.185 173.661 248.725 175.528L291.227 186.829C292.23 183.019 292.977 179.146 293.462 175.235L249.746 169.855Z" fill="#78B2FF"/>
<path opacity="0.6" d="M250.059 164.624C250.064 166.208 249.982 167.791 249.814 169.366L293.53 174.755C293.941 171.297 294.154 167.818 294.168 164.336L250.059 164.624Z" fill="#78B2FF"/>
<path opacity="0.6" d="M230.933 201.629C228.73 203.204 226.391 204.58 223.943 205.738L242.086 245.353C247.025 243.083 251.745 240.365 256.189 237.236L230.933 201.629Z" fill="#78B2FF"/>
<path opacity="0.6" d="M240.358 192.605C237.762 195.919 234.721 198.859 231.32 201.342L256.562 236.939C263.384 232.072 269.492 226.277 274.71 219.72L240.358 192.605Z" fill="#78B2FF"/>
<path opacity="0.6" d="M245.78 183.82C244.386 186.795 242.675 189.61 240.676 192.216L275.027 219.331C279.107 214.155 282.603 208.545 285.451 202.602L245.78 183.82Z" fill="#78B2FF"/>
<path opacity="0.6" d="M214.713 208.945C211.342 209.719 207.895 210.108 204.437 210.106C202.297 210.105 200.158 209.958 198.038 209.665L191.639 252.631C202.586 254.211 213.73 253.771 224.518 251.332L214.713 208.945Z" fill="#78B2FF"/>
<path opacity="0.6" d="M223.496 205.945C220.827 207.173 218.044 208.137 215.188 208.822L225.007 251.219C230.726 249.886 236.299 247.991 241.643 245.561L223.496 205.945Z" fill="#78B2FF"/>
<path opacity="0.6" d="M288.9 133.758L247.285 148.833C248.384 151.817 249.162 154.91 249.607 158.058L293.418 152.482C292.595 146.095 291.08 139.817 288.9 133.758Z" fill="#61C1D9"/>
<path opacity="0.6" d="M279.017 114.238L242.248 138.989C244.23 141.914 245.864 145.06 247.117 148.363L288.736 133.284C286.272 126.569 283.009 120.175 279.017 114.238Z" fill="#61C1D9"/>
<path opacity="0.6" d="M293.481 152.973L249.67 158.549C249.914 160.4 250.044 162.264 250.059 164.13L294.153 163.843C294.148 160.209 293.923 156.579 293.481 152.973Z" fill="#61C1D9"/>
<path opacity="0.6" d="M241.845 82.6172L223.463 123.067C225.338 123.918 227.152 124.897 228.893 125.996L253.018 88.7019C249.444 86.4099 245.71 84.3765 241.845 82.6172Z" fill="#61C1D9"/>
<path opacity="0.6" d="M229.014 77.8984L217.021 120.683C219.073 121.268 221.08 121.997 223.027 122.865L241.41 82.42C237.396 80.6072 233.253 79.0958 229.014 77.8984Z" fill="#61C1D9"/>
<path opacity="0.6" d="M224.552 76.7617L214.762 120.103C215.357 120.243 215.947 120.392 216.532 120.549L228.524 77.7686C227.224 77.3994 225.896 77.0878 224.552 76.7617Z" fill="#61C1D9"/>
<path opacity="0.6" d="M204.577 74.5282C191.285 74.5086 178.157 77.4574 166.152 83.159L185.278 123.119C191.284 120.344 197.822 118.909 204.438 118.914H205.037L205.733 74.5234C205.339 74.5282 204.961 74.5282 204.577 74.5282Z" fill="#003F94"/>
<path opacity="0.6" d="M138.962 103.098C137.178 105.016 135.475 107.015 133.854 109.096L168.786 136.062C169.563 135.103 170.388 134.144 171.251 133.233L138.962 103.098Z" fill="#003F94"/>
<path opacity="0.6" d="M148.337 94.3477C145.107 96.9517 142.062 99.7763 139.223 102.801L171.507 132.956C172.917 131.484 174.423 130.108 176.016 128.837L148.337 94.3477Z" fill="#003F94"/>
<path opacity="0.6" d="M165.706 83.375C159.661 86.2845 153.964 89.8683 148.725 94.058L176.408 128.552C179.016 126.515 181.84 124.769 184.827 123.345L165.706 83.375Z" fill="#003F94"/>
<path opacity="0.6" d="M172.014 196.582L141.059 227.169C146.943 233.081 153.624 238.144 160.909 242.21L181.992 204.206C178.331 202.135 174.973 199.57 172.014 196.582Z" fill="#4980CB"/>
<path opacity="0.6" d="M182.438 204.457L161.355 242.461C166.076 245.065 171.023 247.237 176.135 248.949L189.821 207.713C187.269 206.848 184.798 205.758 182.438 204.457Z" fill="#4980CB"/>
<path opacity="0.6" d="M190.291 207.867L176.605 249.103C181.348 250.661 186.213 251.816 191.15 252.555L197.549 209.584C195.087 209.211 192.66 208.637 190.291 207.867Z" fill="#4980CB"/>
<path opacity="0.6" d="M158.809 164.515V164.285H114.988C114.988 165.928 115.038 167.56 115.137 169.181L158.857 166.544C158.838 165.872 158.809 165.196 158.809 164.515Z" fill="#003F94"/>
<path opacity="0.6" d="M116.35 148.484C115.463 153.54 115.012 158.662 115.002 163.794H158.809C158.846 161.256 159.093 158.726 159.547 156.228L116.35 148.484Z" fill="#003F94"/>
<path opacity="0.6" d="M121.674 130.082C119.304 135.855 117.548 141.861 116.436 148L159.667 155.725C160.259 152.685 161.162 149.714 162.363 146.859L121.674 130.082Z" fill="#003F94"/>
<path opacity="0.6" d="M133.553 109.484C128.797 115.66 124.869 122.43 121.867 129.623L162.565 146.405C164.106 142.847 166.095 139.5 168.485 136.446L133.553 109.484Z" fill="#003F94"/>
<path opacity="0.4" d="M140.945 93.4531C139.79 94.492 138.66 95.5629 137.553 96.6657C136.445 97.7637 135.371 98.9001 134.32 100.06L135.807 101.398C136.824 100.276 137.875 99.175 138.959 98.0946C140.043 97.0141 141.148 95.9656 142.274 94.9491L140.945 93.4531Z" fill="#003F94"/>
<path opacity="0.4" d="M127.753 108.211C125.895 110.807 124.169 113.496 122.582 116.266L124.333 117.297C125.888 114.587 127.579 111.956 129.399 109.414L127.753 108.211Z" fill="#003F94"/>
<path opacity="0.4" d="M117.684 125.242C117.468 125.722 117.257 126.244 117.05 126.748C116.008 129.279 115.072 131.837 114.244 134.42L116.192 135.072C117.004 132.537 117.917 130.031 118.931 127.553C119.132 127.074 119.339 126.594 119.55 126.086L117.684 125.242Z" fill="#003F94"/>
<path opacity="0.4" d="M111.754 144.168C111.185 147.227 110.753 150.31 110.459 153.417L112.219 153.633C112.504 150.593 112.926 147.579 113.486 144.59L111.754 144.168Z" fill="#003F94"/>
<path opacity="0.4" d="M111.869 164.23H109.701C109.7 167.265 109.869 170.296 110.205 173.312L112.354 173.111C112.036 170.161 111.874 167.197 111.869 164.23Z" fill="#003F94"/>
<path opacity="0.4" d="M119.774 202.078L118.033 202.884C119.248 205.716 120.593 208.474 122.068 211.16L123.713 210.177C122.28 207.555 120.967 204.856 119.774 202.078Z" fill="#4980CB"/>
<path opacity="0.4" d="M129.546 218.734L127.887 219.947C129.777 222.546 131.793 225.044 133.936 227.442L135.461 226.061C133.368 223.719 131.394 221.274 129.546 218.734Z" fill="#4980CB"/>
<path opacity="0.4" d="M142.523 233.117L141.137 234.556C143.545 236.595 146.044 238.513 148.634 240.309L149.848 238.732C147.322 236.983 144.88 235.112 142.523 233.117Z" fill="#4980CB"/>
<path opacity="0.4" d="M158.411 244.473L157.428 246.223C160.114 247.799 162.877 249.239 165.707 250.538L166.518 248.687C163.745 247.423 161.039 246.016 158.411 244.473Z" fill="#4980CB"/>
<path opacity="0.4" d="M195.136 256.203L194.92 258.322C198.065 258.66 201.226 258.836 204.389 258.85V256.711C201.298 256.703 198.209 256.534 195.136 256.203Z" fill="#78B2FF"/>
<path opacity="0.4" d="M223.674 255.066C220.681 255.623 217.662 256.043 214.617 256.327L214.828 258.097C217.937 257.806 221.023 257.376 224.087 256.807L223.674 255.066Z" fill="#78B2FF"/>
<path opacity="0.4" d="M259.248 239.152C256.706 240.965 254.076 242.649 251.357 244.206L252.379 245.966C255.154 244.379 257.847 242.654 260.448 240.797L259.248 239.152Z" fill="#78B2FF"/>
<path opacity="0.4" d="M273.751 226.305C272.725 227.427 271.669 228.531 270.585 229.618C269.501 230.705 268.395 231.753 267.266 232.763L268.609 234.25C269.763 233.211 270.894 232.138 272 231.032C273.107 229.926 274.182 228.796 275.224 227.642L273.751 226.305Z" fill="#78B2FF"/>
<path opacity="0.4" d="M293.357 192.613C292.548 195.151 291.633 197.657 290.613 200.132C290.406 200.611 290.205 201.091 289.994 201.594L291.86 202.457C292.076 201.978 292.287 201.455 292.493 200.952C293.539 198.42 294.474 195.863 295.299 193.28L293.357 192.613Z" fill="#78B2FF"/>
<path opacity="0.4" d="M297.319 174.07C297.035 177.11 296.612 180.126 296.053 183.118L297.789 183.535C298.359 180.476 298.79 177.393 299.084 174.286L297.319 174.07Z" fill="#78B2FF"/>
<path opacity="0.4" d="M292.498 126.748C292.297 126.244 292.085 125.741 291.87 125.242L289.994 126.096C290.205 126.585 290.411 127.074 290.613 127.563C291.623 130.037 292.537 132.545 293.352 135.086L295.299 134.439C294.49 131.846 293.557 129.283 292.498 126.748Z" fill="#61C1D9"/>
<path opacity="0.4" d="M281.79 108.211L280.145 109.419C281.964 111.957 283.652 114.586 285.201 117.297L286.961 116.281C285.374 113.506 283.648 110.812 281.79 108.211Z" fill="#61C1D9"/>
<path opacity="0.4" d="M272.019 96.6657C270.916 95.5629 269.788 94.492 268.637 93.4531L267.289 94.9347C268.415 95.9544 269.518 97.0061 270.599 98.0898C271.68 99.1734 272.734 100.276 273.76 101.398L275.247 100.065C274.186 98.9081 273.109 97.7749 272.019 96.6657Z" fill="#61C1D9"/>
<path opacity="0.4" d="M241.904 76.186C239.371 75.144 236.813 74.2121 234.229 73.3906L233.576 75.3326C236.112 76.1381 238.62 77.0507 241.098 78.0704C241.594 78.2718 242.083 78.478 242.566 78.689L243.425 76.8238C242.911 76.608 242.408 76.3922 241.904 76.186Z" fill="#61C1D9"/>
<path opacity="0.4" d="M196.438 69.3628L196.649 71.4966C199.724 71.1778 202.815 71.0177 205.907 71.0171V68.8594C202.744 68.8611 199.583 69.0291 196.438 69.3628Z" fill="#003F94"/>
<path opacity="0.4" d="M185.417 70.7383C182.358 71.4259 179.336 72.2726 176.365 73.2748L176.979 75.2838C179.886 74.302 182.841 73.473 185.834 72.8001L185.417 70.7383Z" fill="#003F94"/>
<path opacity="0.4" d="M148.639 87.0156C146.039 88.9048 143.538 90.9186 141.137 93.0572L142.518 94.5819C144.872 92.485 147.315 90.5159 149.848 88.6746L148.639 87.0156Z" fill="#003F94"/>
<path opacity="0.4" d="M175.335 73.3906C172.732 74.2121 170.174 75.1424 167.66 76.1812C167.156 76.3874 166.657 76.5984 166.158 76.8142L167.012 78.689L168.48 78.0704C170.955 77.0571 173.464 76.1445 176.007 75.3326L175.335 73.3906Z" fill="#003F94"/>
<path opacity="0.4" d="M195.842 69.6016C192.608 69.8956 189.397 70.324 186.209 70.8866L186.641 72.6319C189.752 72.0757 192.891 71.657 196.057 71.3757L195.842 69.6016Z" fill="#003F94"/>
<path opacity="0.4" d="M260.91 87.3906L259.691 88.9681C262.224 90.7167 264.666 92.5883 267.017 94.5829L268.403 93.1445C266.001 91.1019 263.503 89.1839 260.91 87.3906Z" fill="#61C1D9"/>
<path opacity="0.4" d="M275.611 100.262L274.086 101.643C276.181 103.992 278.151 106.434 279.996 108.969L281.661 107.761C279.77 105.172 277.754 102.672 275.611 100.262Z" fill="#61C1D9"/>
<path opacity="0.4" d="M287.475 116.539L285.824 117.522C287.263 120.146 288.579 122.846 289.772 125.621L291.509 124.815C290.29 121.986 288.946 119.227 287.475 116.539Z" fill="#61C1D9"/>
<path opacity="0.4" d="M299.362 154.391L297.213 154.597C297.534 157.671 297.694 160.76 297.693 163.851H299.842C299.851 160.691 299.691 157.533 299.362 154.391Z" fill="#61C1D9"/>
<path opacity="0.4" d="M297.698 164.23C297.69 167.319 297.52 170.404 297.189 173.475L299.31 173.691C299.651 170.549 299.829 167.391 299.842 164.23H297.698Z" fill="#78B2FF"/>
<path opacity="0.4" d="M295.894 183.535C295.217 186.523 294.387 189.475 293.404 192.377L295.4 192.995C296.41 190.029 297.26 187.01 297.947 183.952L295.894 183.535Z" fill="#78B2FF"/>
<path opacity="0.4" d="M279.694 218.734C277.938 221.292 276.065 223.734 274.076 226.061L275.515 227.442C277.556 225.035 279.474 222.538 281.272 219.952L279.694 218.734Z" fill="#78B2FF"/>
<path opacity="0.4" d="M267.021 233.117C264.679 235.208 262.232 237.179 259.691 239.024L260.905 240.684C263.496 238.804 265.995 236.792 268.403 234.647L267.021 233.117Z" fill="#78B2FF"/>
<path opacity="0.4" d="M251.128 244.852C248.502 246.287 245.801 247.599 243.025 248.788L243.831 250.529C246.678 249.311 249.439 247.967 252.116 246.496L251.128 244.852Z" fill="#78B2FF"/>
<path opacity="0.4" d="M214.028 256.203C210.952 256.524 207.862 256.684 204.77 256.683V258.836C207.933 258.836 211.094 258.668 214.239 258.332L214.028 256.203Z" fill="#78B2FF"/>
<path opacity="0.4" d="M185.496 255.066L185.078 256.807C188.135 257.373 191.22 257.803 194.332 258.097L194.543 256.342C191.506 256.049 188.484 255.627 185.496 255.066Z" fill="#78B2FF"/>
<path opacity="0.4" d="M150.303 239.152L149.09 240.787C151.689 242.648 154.38 244.376 157.153 245.966L158.18 244.211C155.471 242.658 152.842 240.97 150.303 239.152Z" fill="#4980CB"/>
<path opacity="0.4" d="M124.338 210.387L122.582 211.408C124.169 214.189 125.895 216.889 127.753 219.497L129.399 218.289C127.578 215.742 125.889 213.105 124.338 210.387Z" fill="#4980CB"/>
<path opacity="0.4" d="M118.94 200.132C117.924 197.657 117.01 195.151 116.201 192.613L114.244 193.265C115.072 195.855 116.003 198.412 117.036 200.937C117.247 201.441 117.453 201.944 117.674 202.443L119.55 201.584C119.343 201.115 119.142 200.64 118.94 200.132Z" fill="#4980CB"/>
<path opacity="0.4" d="M110.229 154.012C109.891 157.154 109.715 160.312 109.701 163.472H111.846C111.844 160.38 112.014 157.291 112.354 154.218L110.229 154.012Z" fill="#003F94"/>
<path opacity="0.4" d="M114.143 134.707C113.135 137.673 112.285 140.69 111.596 143.745L113.649 144.167C114.324 141.179 115.155 138.227 116.138 135.326L114.143 134.707Z" fill="#003F94"/>
<path opacity="0.4" d="M122.351 116.539C120.772 119.221 119.331 121.982 118.033 124.81L119.88 125.621C121.159 122.849 122.563 120.153 124.092 117.532L122.351 116.539Z" fill="#003F94"/>
<path opacity="0.4" d="M134.008 100.262C131.971 102.669 130.052 105.165 128.252 107.751L129.826 108.969C131.575 106.438 133.449 103.997 135.448 101.647L134.008 100.262Z" fill="#003F94"/>
<path d="M320.449 113.955L296.467 124.273L298.223 128.352L322.206 118.033L320.449 113.955Z" fill="#BDD9FF"/>
<path d="M307.097 96.5486L288.078 109.031L290.516 112.743L309.535 100.26L307.097 96.5486Z" fill="#BDD9FF"/>
<path d="M296.39 77.3739L277.164 95.4766L280.21 98.7084L299.435 80.6058L296.39 77.3739Z" fill="#BDD9FF"/>
<path d="M272.876 72.2149L264.07 84.0195L267.631 86.6736L276.438 74.869L272.876 72.2149Z" fill="#BDD9FF"/>
<path d="M264.325 44.9262L249.18 75.0117L253.148 77.0074L268.293 46.9219L264.325 44.9262Z" fill="#BDD9FF"/>
<path d="M238.096 51.6107L232.955 68.7266L237.21 70.0032L242.35 52.8873L238.096 51.6107Z" fill="#BDD9FF"/>
<path d="M198.163 59.5017L198.479 64.9922L202.913 64.7374L202.598 59.2468L198.163 59.5017Z" fill="#BDD9FF"/>
<path d="M179.934 61.9344L181.287 67.6602L185.61 66.6395L184.257 60.9137L179.934 61.9344Z" fill="#BDD9FF"/>
<path d="M154.109 48.4167L164.812 73.2695L168.893 71.514L158.19 46.6612L154.109 48.4167Z" fill="#BDD9FF"/>
<path d="M147.725 78.8547L149.562 81.6523L153.276 79.2153L151.438 76.4177L147.725 78.8547Z" fill="#BDD9FF"/>
<path d="M119.968 75.5436L136 92.5547L139.233 89.5102L123.201 72.4991L119.968 75.5436Z" fill="#BDD9FF"/>
<path d="M112.852 96.9342L124.539 105.645L127.194 102.085L115.508 93.3748L112.852 96.9342Z" fill="#BDD9FF"/>
<path d="M86.3563 105.849L115.525 120.52L117.522 116.553L88.3529 101.883L86.3563 105.849Z" fill="#BDD9FF"/>
<path d="M104.964 135.465L109.232 136.746L110.51 132.494L106.242 131.213L104.964 135.465Z" fill="#BDD9FF"/>
<path d="M78.9671 150.643L105.852 153.805L106.371 149.395L79.4861 146.234L78.9671 150.643Z" fill="#BDD9FF"/>
<path d="M108.588 207.093L113.77 204.863L112.013 200.785L106.832 203.014L108.588 207.093Z" fill="#BDD9FF"/>
<path d="M113.809 251.796L133.066 233.664L130.021 230.432L110.763 248.565L113.809 251.796Z" fill="#BDD9FF"/>
<path d="M150.23 275.647L161.059 254.137L157.091 252.141L146.262 273.651L150.23 275.647Z" fill="#BDD9FF"/>
<path d="M193.687 269.525L194.361 263.797L189.95 263.278L189.275 269.007L193.687 269.525Z" fill="#BDD9FF"/>
<path d="M232.381 275.962L228.963 261.496L224.64 262.517L228.058 276.983L232.381 275.962Z" fill="#BDD9FF"/>
<path d="M289.606 252.875L274.262 236.594L271.028 239.638L286.373 255.92L289.606 252.875Z" fill="#BDD9FF"/>
<path d="M307.42 239.674L285.719 223.5L283.063 227.059L304.765 243.234L307.42 239.674Z" fill="#BDD9FF"/>
<path d="M301.274 211.904L294.73 208.613L292.734 212.58L299.277 215.871L301.274 211.904Z" fill="#BDD9FF"/>
<path d="M319.299 197.872L301.018 192.387L299.74 196.639L318.022 202.125L319.299 197.872Z" fill="#BDD9FF"/>
<path d="M324.024 177.629L304.391 175.32L303.872 179.73L323.505 182.039L324.024 177.629Z" fill="#BDD9FF"/>
<path d="M311.65 157.53L304.754 157.926L305.009 162.359L311.905 161.962L311.65 157.53Z" fill="#BDD9FF"/>
<path d="M320.15 136.473L302.082 140.738L303.103 145.059L321.171 140.794L320.15 136.473Z" fill="#BDD9FF"/>
</g>
<defs>
<radialGradient id="paint0_radial_3794_87727" cx="0" cy="0" r="1" gradientUnits="userSpaceOnUse" gradientTransform="translate(175.5 144) rotate(140.631) scale(227.016 277.091)">
<stop stop-color="#F8FBFF"/>
<stop offset="1" stop-color="#DDECFF"/>
</radialGradient>
<linearGradient id="paint1_linear_3794_87727" x1="4" y1="78.0003" x2="216" y2="78.0002" gradientUnits="userSpaceOnUse">
<stop stop-color="#77B1FF"/>
<stop offset="1" stop-color="#DCEBFF"/>
</linearGradient>
<linearGradient id="paint2_linear_3794_87727" x1="346.624" y1="287.091" x2="15.3066" y2="287.091" gradientUnits="userSpaceOnUse">
<stop stop-color="#DCEBFF"/>
<stop offset="1" stop-color="#DCEBFF"/>
</linearGradient>
<linearGradient id="paint3_linear_3794_87727" x1="15.3086" y1="25.436" x2="338.972" y2="25.4357" gradientUnits="userSpaceOnUse">
<stop stop-color="#DCEBFF"/>
<stop offset="1" stop-color="#DCEBFF"/>
</linearGradient>
<linearGradient id="paint4_linear_3794_87727" x1="351" y1="256" x2="385" y2="256" gradientUnits="userSpaceOnUse">
<stop stop-color="#B9D3F5"/>
<stop offset="0.430301" stop-color="#9EC6FC"/>
<stop offset="1" stop-color="#D8E8FF"/>
</linearGradient>
<linearGradient id="paint5_linear_3794_87727" x1="4" y1="2.00028" x2="38" y2="2.00028" gradientUnits="userSpaceOnUse">
<stop stop-color="#B9D3F5"/>
<stop offset="0.430301" stop-color="#9EC6FC"/>
<stop offset="1" stop-color="#D8E8FF"/>
</linearGradient>
<linearGradient id="paint6_linear_3794_87727" x1="351" y1="289" x2="378" y2="289" gradientUnits="userSpaceOnUse">
<stop stop-color="#D8E8FF"/>
<stop offset="1" stop-color="#D9E9FF"/>
</linearGradient>
<linearGradient id="paint7_linear_3794_87727" x1="-2.03302e-06" y1="9.993" x2="381.617" y2="9.99297" gradientUnits="userSpaceOnUse">
<stop stop-color="#016EFF"/>
<stop offset="1" stop-color="#016EFF" stop-opacity="0"/>
</linearGradient>
<linearGradient id="paint8_linear_3794_87727" x1="351" y1="2.00027" x2="605" y2="2.0002" gradientUnits="userSpaceOnUse">
<stop stop-color="#BBD4F5"/>
<stop offset="1" stop-color="#E4F0FF"/>
</linearGradient>
<linearGradient id="paint9_linear_3794_87727" x1="73" y1="2.00028" x2="350" y2="2.00019" gradientUnits="userSpaceOnUse">
<stop stop-color="#2883FD"/>
<stop offset="1" stop-color="#BBD4F4"/>
</linearGradient>
<clipPath id="clip0_3794_87727">
<rect width="245" height="232" fill="white" transform="translate(79 45)"/>
</clipPath>
</defs>
</svg>
