<svg width="351" height="288" viewBox="0 0 351 288" fill="none" xmlns="http://www.w3.org/2000/svg">
<rect width="351" height="288" fill="url(#paint0_radial_3794_87142)"/>
<rect x="4" y="76" width="212" height="3.99999" transform="rotate(90 4 76)" fill="url(#paint1_linear_3794_87142)"/>
<path fill-rule="evenodd" clip-rule="evenodd" d="M17.4935 286.182L17.4936 68.1367L15.3067 68.1367L15.3066 287.998H15.3067V287.999L346.624 287.999V286.182L17.4935 286.182Z" fill="url(#paint2_linear_3794_87142)"/>
<path fill-rule="evenodd" clip-rule="evenodd" d="M336.785 26.3455V278.912H338.972L338.972 26.3455V24.5285L338.972 24.5273L336.785 24.5273V24.5285H15.3086V26.3455H336.785Z" fill="url(#paint3_linear_3794_87142)"/>
<rect x="351" y="254" width="34" height="4" transform="rotate(90 351 254)" fill="url(#paint4_linear_3794_87142)"/>
<rect x="4" width="34" height="4" transform="rotate(90 4 0)" fill="url(#paint5_linear_3794_87142)"/>
<rect x="351" y="288" width="27" height="2" transform="rotate(-180 351 288)" fill="url(#paint6_linear_3794_87142)"/>
<path fill-rule="evenodd" clip-rule="evenodd" d="M350.453 0H0V16.3518V16.3533V20.8944H103.879L112.623 16.3533H350.453V0Z" fill="url(#paint7_linear_3794_87142)"/>
<rect x="351" width="254" height="3.99999" transform="rotate(90 351 0)" fill="url(#paint8_linear_3794_87142)"/>
<rect x="16" y="8" width="5" height="4" fill="#30F2CB"/>
<rect x="32" y="8" width="4" height="4" fill="#30F2CB"/>
<rect x="47" y="8" width="4" height="4" fill="#30F2CB"/>
<rect x="62" y="8" width="4" height="4" fill="#30F2CB"/>
<rect x="73" width="277" height="4" fill="url(#paint9_linear_3794_87142)"/>
<path d="M38.552 57.888C37.624 58.656 36.056 59.376 33.88 60.016L34.68 61.312C37.272 60.352 39.08 59.2 40.088 57.888H40.296V61.664H41.8V57.888H42.008C43.112 59.264 44.936 60.384 47.48 61.248L48.136 59.904C46.136 59.392 44.616 58.72 43.56 57.888H47.944V56.496H41.8V55.856H40.296V56.496H34.056V57.888H38.552ZM35.512 51.248V55.52H47.48V54.256H42.216V53.408H46.536V52.256H42.216V51.472H46.536V50.32H42.216V49.504H47.176V48.256H42.136C41.928 47.696 41.72 47.2 41.512 46.752L39.96 47.008C40.2 47.392 40.424 47.808 40.632 48.256H37.56C37.736 47.904 37.896 47.52 38.04 47.136L36.616 46.816C35.944 48.48 34.936 49.936 33.592 51.152L34.472 52.304C34.84 51.952 35.192 51.6 35.512 51.248ZM40.728 54.256H36.92V53.408H40.728V54.256ZM40.728 52.256H36.92V51.472H40.728V52.256ZM40.728 50.32H36.92V49.504H40.728V50.32ZM52.808 51.296V52.656H57C55.88 54.224 54.392 55.488 52.52 56.432L53.336 57.776C55.288 56.624 56.856 55.04 58.056 53.056V56.848C58.056 57.28 57.864 57.504 57.512 57.504C56.984 57.504 56.424 57.472 55.848 57.408L56.168 58.816H58.008C59 58.816 59.512 58.288 59.512 57.232V52.656H61.368V51.296H59.512V49.504H58.056V51.296H52.808ZM63.624 47.472H50.376V61.664H51.832V61.056H62.168V61.664H63.624V47.472ZM51.832 59.68V48.848H62.168V59.68H51.832ZM74.04 47.888V53.728H79.464V47.888H74.04ZM78.024 52.352H75.48V49.248H78.024V52.352ZM68.248 46.928V48.256H66.072V49.568H68.136C67.848 51.312 67.016 52.64 65.624 53.536L66.76 54.528C68.376 53.408 69.336 51.76 69.64 49.568H71.448C71.432 51.056 71.352 51.968 71.224 52.32C71.096 52.672 70.76 52.848 70.232 52.864C69.992 52.832 69.688 52.8 69.304 52.768L69.688 54.144C70.04 54.192 70.328 54.224 70.584 54.224C71.448 54.224 72.04 53.936 72.392 53.376C72.728 52.816 72.904 51.104 72.936 48.256H69.736V46.928H68.248ZM65.976 55.44V56.864H70.936C69.784 58.08 68.056 59.088 65.768 59.888L66.632 61.296C69.192 60.128 71.064 58.656 72.248 56.864V61.616H73.752V56.864C74.84 58.48 76.648 59.952 79.208 61.28L80.264 59.952C77.896 59.04 76.168 58.016 75.064 56.864H80.04V55.44H73.752V54.256H72.248V55.44H65.976ZM89.224 46.896C88.872 49.072 88.232 50.928 87.272 52.448L88.248 53.728C88.888 52.784 89.416 51.712 89.848 50.512H94.408C94.392 55.312 94.328 58.128 94.2 58.96C94.072 59.76 93.656 60.176 92.952 60.176C92.424 60.176 91.8 60.144 91.096 60.096L91.432 61.456C92.264 61.488 92.84 61.52 93.192 61.52C94.6 61.52 95.4 60.864 95.592 59.552C95.752 58.224 95.848 54.736 95.848 49.088H90.28C90.44 48.448 90.584 47.776 90.712 47.072L89.224 46.896ZM88.04 58.304C89.56 57.984 90.92 57.664 92.136 57.312C92.264 57.744 92.392 58.192 92.52 58.672L93.848 58.08C93.432 56.672 92.968 55.344 92.424 54.112L91.16 54.544C91.368 55.056 91.576 55.6 91.784 56.192C91.112 56.352 90.408 56.496 89.64 56.656C90.104 55.776 90.696 54.384 91.416 52.464L90.072 51.984C88.952 55.12 88.184 56.8 87.752 57.04L88.04 58.304ZM85.544 53.872C85.912 54.384 86.344 55.04 86.84 55.824L87.704 54.528C86.968 53.664 86.248 52.864 85.544 52.144V51.344H87.384V49.888H85.544V46.896H84.056V49.888H81.864V51.344H83.96C83.448 53.216 82.648 54.88 81.544 56.336L82.2 58.016C82.936 56.832 83.56 55.536 84.056 54.128V61.584H85.544V53.872Z" fill="black" fill-opacity="0.85"/>
<path d="M35.544 82.016C35.016 83.136 34.392 84.08 33.672 84.88L34.888 85.744C35.624 84.864 36.28 83.824 36.824 82.64L35.544 82.016ZM39.432 82.336L38.008 82.624C38.296 83.504 38.552 84.512 38.776 85.664L40.28 85.312C40.04 84.24 39.752 83.248 39.432 82.336ZM42.728 82.144L41.32 82.448C41.768 83.36 42.136 84.416 42.456 85.632L43.928 85.28C43.576 84.16 43.176 83.104 42.728 82.144ZM46.104 81.952L44.872 82.72C45.704 83.808 46.376 84.8 46.856 85.696L48.104 84.816C47.64 84.016 46.968 83.056 46.104 81.952ZM35.576 76.096V81.632H47.128V80.256H42.376V79.024H46.264V77.728H42.376V76.528H46.264V75.248H42.376V73.984H46.936V72.624H42.36C42.184 71.952 42.008 71.344 41.832 70.8L40.264 71.056C40.472 71.536 40.664 72.064 40.84 72.624H37.528C37.72 72.144 37.928 71.648 38.136 71.12L36.696 70.8C35.8 73.152 34.744 74.992 33.496 76.304L34.472 77.456C34.856 77.04 35.224 76.592 35.576 76.096ZM40.888 80.256H37.096V79.024H40.888V80.256ZM40.888 77.728H37.096V76.528H40.888V77.728ZM40.888 75.248H37.096V73.984H40.888V75.248ZM55.992 70.976V75.504H51.672V80.928H62.584V75.504H57.496V73.808H63.592V72.384H57.496V70.976H55.992ZM61.064 79.52H53.176V76.928H61.064V79.52ZM51.64 81.456C51.064 82.72 50.392 83.808 49.624 84.72L50.872 85.632C51.64 84.64 52.328 83.456 52.904 82.08L51.64 81.456ZM55.448 81.968L54.024 82.272C54.328 83.248 54.584 84.384 54.776 85.664L56.312 85.312C56.056 84.112 55.768 82.992 55.448 81.968ZM58.776 81.76L57.352 82.048C57.8 83.088 58.184 84.288 58.488 85.632L59.992 85.28C59.64 84.016 59.24 82.848 58.776 81.76ZM61.976 81.408L60.76 82.192C61.72 83.472 62.472 84.656 63.032 85.712L64.296 84.832C63.752 83.856 62.984 82.72 61.976 81.408ZM70.6 71.184C69.944 72.384 69.256 73.408 68.52 74.256C67.624 75.264 66.664 76.048 65.64 76.624L66.472 77.952C67.848 76.992 68.904 76.08 69.672 75.216C70.424 74.384 71.176 73.296 71.912 71.984L70.6 71.184ZM71.064 78.576C70.728 79.92 70.264 81.008 69.672 81.856C68.936 82.8 67.832 83.664 66.392 84.432L67.368 85.696C69 84.768 70.232 83.712 71.064 82.56C71.704 81.568 72.216 80.24 72.6 78.576H76.216C76.136 80.864 75.96 82.368 75.704 83.072C75.448 83.744 74.904 84.08 74.104 84.08C73.272 84.08 72.376 84.048 71.432 84.016L71.848 85.52H74.872C75.688 85.472 76.28 85.2 76.648 84.72C77.016 84.224 77.272 83.344 77.432 82.096C77.592 80.816 77.688 79.168 77.752 77.12H68.072V78.576H71.064ZM75.464 70.976L74.136 71.728C75.112 74.24 76.84 76.288 79.304 77.888L80.328 76.688C77.96 75.28 76.344 73.376 75.464 70.976ZM85.592 77.68C85.976 78.208 86.44 78.896 86.984 79.728L87.8 78.512C87.064 77.632 86.328 76.816 85.592 76.064V75.344H87.624V73.888H85.592V70.88H84.104V73.888H81.896V75.344H84.008C83.496 77.2 82.664 78.848 81.528 80.288L82.184 81.952C82.952 80.752 83.592 79.44 84.104 78V85.6H85.592V77.68ZM95.08 70.896C93.112 71.6 90.872 71.984 88.376 72.048V77.312C88.28 80.336 87.576 82.704 86.28 84.4L87.368 85.536C88.888 83.504 89.704 80.768 89.832 77.328H92.424V85.616H93.96V77.328H96.2V75.872H89.832V73.344C92.04 73.232 94.04 72.864 95.832 72.256L95.08 70.896Z" fill="black" fill-opacity="0.85"/>
<g clip-path="url(#clip0_3794_87142)">
<path d="M55.84 145.254H31V158.297H55.84V145.254Z" fill="#4980CB"/>
<path d="M191.54 61.5977H176.82V64.746H191.54V61.5977Z" fill="#4980CB"/>
<path d="M256.4 58.4492H241.68V60.2483H256.4V58.4492Z" fill="#4980CB"/>
<path d="M256.4 62.7656H241.68V64.5647H256.4V62.7656Z" fill="#4980CB"/>
<path d="M256.4 67.0859H241.68V68.885H256.4V67.0859Z" fill="#4980CB"/>
<path d="M256.4 71.4023H241.68V73.2014H256.4V71.4023Z" fill="#4980CB"/>
<path d="M256.4 75.7188H241.68V77.5178H256.4V75.7188Z" fill="#4980CB"/>
<path d="M256.4 80.0391H241.68V81.8381H256.4V80.0391Z" fill="#4980CB"/>
<path d="M256.4 84.3555H241.68V86.1545H256.4V84.3555Z" fill="#4980CB"/>
<path d="M256.4 88.6719H241.68V90.4709H256.4V88.6719Z" fill="#4980CB"/>
<path d="M256.4 92.9922H241.68V94.7912H256.4V92.9922Z" fill="#4980CB"/>
<path d="M256.4 97.3086H241.68V99.1076H256.4V97.3086Z" fill="#4980CB"/>
<path d="M256.4 101.625H241.68V103.424H256.4V101.625Z" fill="#4980CB"/>
<path d="M191.54 96.6797H176.82V99.828H191.54V96.6797Z" fill="#4980CB"/>
<path d="M191.54 132.66H176.82V135.808H191.54V132.66Z" fill="#4980CB"/>
<path d="M191.54 168.191H176.82V171.34H191.54V168.191Z" fill="#4980CB"/>
<path d="M191.54 185.73H176.82V188.879H191.54V185.73Z" fill="#4980CB"/>
<path d="M191.54 203.723H176.82V206.871H191.54V203.723Z" fill="#4980CB"/>
<path d="M191.54 239.703H176.82V242.851H191.54V239.703Z" fill="#4980CB"/>
<path d="M173.141 61.5982C173.414 61.5982 173.681 61.6773 173.907 61.8256C174.134 61.9739 174.311 62.1846 174.416 62.4311C174.52 62.6777 174.548 62.949 174.494 63.2107C174.441 63.4724 174.31 63.7129 174.117 63.9016C173.924 64.0903 173.678 64.2188 173.41 64.2708C173.142 64.3229 172.865 64.2962 172.613 64.1941C172.36 64.0919 172.145 63.919 171.993 63.6971C171.842 63.4752 171.761 63.2143 171.761 62.9475C171.761 62.5896 171.906 62.2464 172.165 61.9934C172.424 61.7404 172.775 61.5982 173.141 61.5982ZM173.141 61.1484C172.777 61.1484 172.421 61.254 172.119 61.4516C171.816 61.6493 171.58 61.9303 171.441 62.259C171.302 62.5877 171.265 62.9495 171.336 63.2985C171.407 63.6474 171.582 63.968 171.84 64.2196C172.097 64.4712 172.425 64.6425 172.782 64.7119C173.139 64.7814 173.509 64.7457 173.845 64.6096C174.181 64.4734 174.469 64.2428 174.671 63.947C174.873 63.6511 174.981 63.3033 174.981 62.9475C174.981 62.4703 174.787 62.0127 174.442 61.6754C174.097 61.338 173.629 61.1484 173.141 61.1484Z" fill="#4980CB"/>
<path d="M173.141 97.1294C173.414 97.1294 173.681 97.2086 173.907 97.3568C174.134 97.5051 174.311 97.7158 174.416 97.9624C174.52 98.2089 174.548 98.4802 174.494 98.742C174.441 99.0037 174.31 99.2441 174.117 99.4328C173.924 99.6215 173.678 99.75 173.41 99.8021C173.142 99.8541 172.865 99.8274 172.613 99.7253C172.36 99.6232 172.145 99.4502 171.993 99.2284C171.842 99.0065 171.761 98.7456 171.761 98.4787C171.761 98.1209 171.906 97.7777 172.165 97.5246C172.424 97.2716 172.775 97.1294 173.141 97.1294ZM173.141 96.6797C172.777 96.6797 172.421 96.7852 172.119 96.9829C171.816 97.1806 171.58 97.4615 171.441 97.7903C171.302 98.119 171.265 98.4807 171.336 98.8297C171.407 99.1787 171.582 99.4992 171.84 99.7508C172.097 100.002 172.425 100.174 172.782 100.243C173.139 100.313 173.509 100.277 173.845 100.141C174.181 100.005 174.469 99.7741 174.671 99.4782C174.873 99.1824 174.981 98.8345 174.981 98.4787C174.981 98.0016 174.787 97.544 174.442 97.2066C174.097 96.8692 173.629 96.6797 173.141 96.6797Z" fill="#4980CB"/>
<path d="M173.141 132.661C173.414 132.661 173.681 132.74 173.907 132.888C174.134 133.036 174.311 133.247 174.416 133.494C174.52 133.74 174.548 134.011 174.494 134.273C174.441 134.535 174.31 134.775 174.117 134.964C173.924 135.153 173.678 135.281 173.41 135.333C173.142 135.385 172.865 135.359 172.613 135.257C172.36 135.154 172.145 134.981 171.993 134.76C171.842 134.538 171.761 134.277 171.761 134.01C171.761 133.652 171.906 133.309 172.165 133.056C172.424 132.803 172.775 132.661 173.141 132.661ZM173.141 132.211C172.777 132.211 172.421 132.316 172.119 132.514C171.816 132.712 171.58 132.993 171.441 133.322C171.302 133.65 171.265 134.012 171.336 134.361C171.407 134.71 171.582 135.03 171.84 135.282C172.097 135.534 172.425 135.705 172.782 135.774C173.139 135.844 173.509 135.808 173.845 135.672C174.181 135.536 174.469 135.305 174.671 135.009C174.873 134.714 174.981 134.366 174.981 134.01C174.981 133.533 174.787 133.075 174.442 132.738C174.097 132.4 173.629 132.211 173.141 132.211Z" fill="#4980CB"/>
<path d="M173.141 168.192C173.414 168.192 173.681 168.271 173.907 168.419C174.134 168.568 174.311 168.778 174.416 169.025C174.52 169.271 174.548 169.543 174.494 169.804C174.441 170.066 174.31 170.307 174.117 170.495C173.924 170.684 173.678 170.813 173.41 170.865C173.142 170.917 172.865 170.89 172.613 170.788C172.36 170.686 172.145 170.513 171.993 170.291C171.842 170.069 171.761 169.808 171.761 169.541C171.761 169.183 171.906 168.84 172.165 168.587C172.424 168.334 172.775 168.192 173.141 168.192ZM173.141 167.742C172.777 167.742 172.421 167.848 172.119 168.045C171.816 168.243 171.58 168.524 171.441 168.853C171.302 169.181 171.265 169.543 171.336 169.892C171.407 170.241 171.582 170.562 171.84 170.813C172.097 171.065 172.425 171.236 172.782 171.306C173.139 171.375 173.509 171.339 173.845 171.203C174.181 171.067 174.469 170.837 174.671 170.541C174.873 170.245 174.981 169.897 174.981 169.541C174.981 169.064 174.787 168.606 174.442 168.269C174.097 167.932 173.629 167.742 173.141 167.742Z" fill="#4980CB"/>
<path d="M173.141 186.18C173.414 186.18 173.681 186.259 173.907 186.408C174.134 186.556 174.311 186.767 174.416 187.013C174.52 187.26 174.548 187.531 174.494 187.793C174.441 188.054 174.31 188.295 174.117 188.484C173.924 188.672 173.678 188.801 173.41 188.853C173.142 188.905 172.865 188.878 172.613 188.776C172.36 188.674 172.145 188.501 171.993 188.279C171.842 188.057 171.761 187.796 171.761 187.53C171.761 187.172 171.906 186.828 172.165 186.575C172.424 186.322 172.775 186.18 173.141 186.18ZM173.141 185.73C172.777 185.73 172.421 185.836 172.119 186.034C171.816 186.231 171.58 186.512 171.441 186.841C171.302 187.17 171.265 187.531 171.336 187.88C171.407 188.229 171.582 188.55 171.84 188.802C172.097 189.053 172.425 189.225 172.782 189.294C173.139 189.363 173.509 189.328 173.845 189.192C174.181 189.055 174.469 188.825 174.671 188.529C174.873 188.233 174.981 187.885 174.981 187.53C174.981 187.052 174.787 186.595 174.442 186.257C174.097 185.92 173.629 185.73 173.141 185.73Z" fill="#4980CB"/>
<path d="M173.141 204.172C173.414 204.172 173.681 204.252 173.907 204.4C174.134 204.548 174.311 204.759 174.416 205.005C174.52 205.252 174.548 205.523 174.494 205.785C174.441 206.047 174.31 206.287 174.117 206.476C173.924 206.664 173.678 206.793 173.41 206.845C173.142 206.897 172.865 206.87 172.613 206.768C172.36 206.666 172.145 206.493 171.993 206.271C171.842 206.049 171.761 205.789 171.761 205.522C171.761 205.164 171.906 204.821 172.165 204.568C172.424 204.315 172.775 204.172 173.141 204.172ZM173.141 203.723C172.777 203.723 172.421 203.828 172.119 204.026C171.816 204.224 171.58 204.504 171.441 204.833C171.302 205.162 171.265 205.524 171.336 205.873C171.407 206.222 171.582 206.542 171.84 206.794C172.097 207.045 172.425 207.217 172.782 207.286C173.139 207.356 173.509 207.32 173.845 207.184C174.181 207.048 174.469 206.817 174.671 206.521C174.873 206.225 174.981 205.878 174.981 205.522C174.981 205.045 174.787 204.587 174.442 204.25C174.097 203.912 173.629 203.723 173.141 203.723Z" fill="#4980CB"/>
<path d="M173.141 239.704C173.414 239.704 173.681 239.783 173.907 239.931C174.134 240.079 174.311 240.29 174.416 240.537C174.52 240.783 174.548 241.054 174.494 241.316C174.441 241.578 174.31 241.818 174.117 242.007C173.924 242.196 173.678 242.324 173.41 242.376C173.142 242.428 172.865 242.402 172.613 242.3C172.36 242.197 172.145 242.024 171.993 241.803C171.842 241.581 171.761 241.32 171.761 241.053C171.761 240.695 171.906 240.352 172.165 240.099C172.424 239.846 172.775 239.704 173.141 239.704ZM173.141 239.254C172.777 239.254 172.421 239.359 172.119 239.557C171.816 239.755 171.58 240.036 171.441 240.364C171.302 240.693 171.265 241.055 171.336 241.404C171.407 241.753 171.582 242.073 171.84 242.325C172.097 242.577 172.425 242.748 172.782 242.817C173.139 242.887 173.509 242.851 173.845 242.715C174.181 242.579 174.469 242.348 174.671 242.052C174.873 241.757 174.981 241.409 174.981 241.053C174.981 240.576 174.787 240.118 174.442 239.781C174.097 239.443 173.629 239.254 173.141 239.254Z" fill="#4980CB"/>
<path d="M59.0605 151.999C59.0605 151.999 95.5017 151.171 119.091 102.3C138.411 62.2714 171.301 62.946 171.301 62.946" stroke="#9CBBE5" stroke-miterlimit="10"/>
<path d="M173.141 80.4866C173.141 80.4866 194.347 80.2887 208.101 68.6894C219.343 59.1859 238.461 59.3478 238.461 59.3478" stroke="#9CBBE5" stroke-miterlimit="10"/>
<path d="M173.141 80.4889C173.141 80.4889 194.347 80.336 208.101 71.2014C219.343 63.7219 238.461 63.8478 238.461 63.8478" stroke="#9CBBE5" stroke-miterlimit="10"/>
<path d="M173.141 80.4874C173.141 80.4874 194.347 80.375 208.101 73.7095C219.343 68.2494 238.461 68.3439 238.461 68.3439" stroke="#9CBBE5" stroke-miterlimit="10"/>
<path d="M173.141 80.4869C173.141 80.4869 194.347 80.406 208.101 75.7195C219.343 71.874 238.461 71.9415 238.461 71.9415" stroke="#9CBBE5" stroke-miterlimit="10"/>
<path d="M173.141 80.4893C173.141 80.4893 194.347 80.4533 208.101 78.2405C219.343 76.4189 238.461 76.4414 238.461 76.4414" stroke="#9CBBE5" stroke-miterlimit="10"/>
<path d="M173.141 80.9375C173.141 80.9375 194.347 81.1309 208.101 92.7347C219.343 102.238 238.461 102.076 238.461 102.076" stroke="#9CBBE5" stroke-miterlimit="10"/>
<path d="M173.141 80.9375C173.141 80.9375 194.347 81.0904 208.101 90.2251C219.343 97.7046 238.461 97.5786 238.461 97.5786" stroke="#9CBBE5" stroke-miterlimit="10"/>
<path d="M173.141 80.9375C173.141 80.9375 194.347 81.0499 208.101 87.7154C219.343 93.171 238.461 93.081 238.461 93.081" stroke="#9CBBE5" stroke-miterlimit="10"/>
<path d="M173.141 80.9375C173.141 80.9375 194.347 81.014 208.101 85.705C219.343 89.5459 238.461 89.483 238.461 89.483" stroke="#9CBBE5" stroke-miterlimit="10"/>
<path d="M173.141 80.9375C173.141 80.9375 194.347 80.9735 208.101 83.1863C219.343 85.0078 238.461 84.9853 238.461 84.9853" stroke="#9CBBE5" stroke-miterlimit="10"/>
<path d="M59.0605 152.001C59.0605 152.001 95.5017 151.335 119.091 112.094C138.411 79.9491 171.301 80.4889 171.301 80.4889" stroke="#9CBBE5" stroke-miterlimit="10"/>
<path d="M59.0605 151.999C59.0605 151.999 95.5017 151.504 119.091 122.13C138.411 98.0722 171.301 98.477 171.301 98.477" stroke="#9CBBE5" stroke-miterlimit="10"/>
<path d="M59.0605 152.001C59.0605 152.001 95.5017 151.668 119.091 131.919C138.411 115.728 171.301 116.02 171.301 116.02" stroke="#9CBBE5" stroke-miterlimit="10"/>
<path d="M59.0605 151.998C59.0605 151.998 95.5017 151.832 119.091 141.96C138.411 133.864 171.301 134.008 171.301 134.008" stroke="#9CBBE5" stroke-miterlimit="10"/>
<path d="M59.0605 152C59.0605 152 95.5017 152.828 119.091 201.699C138.411 241.727 171.301 241.053 171.301 241.053" stroke="#9CBBE5" stroke-miterlimit="10"/>
<path d="M59.0605 152C59.0605 152 95.5017 152.661 119.091 191.907C138.411 224.052 171.301 223.512 171.301 223.512" stroke="#9CBBE5" stroke-miterlimit="10"/>
<path d="M59.0605 152C59.0605 152 95.5017 152.495 119.091 181.869C138.411 205.926 171.301 205.522 171.301 205.522" stroke="#9CBBE5" stroke-miterlimit="10"/>
<path d="M59.0605 152C59.0605 152 95.5017 152.333 119.091 172.077C138.411 188.269 171.301 187.981 171.301 187.981" stroke="#9CBBE5" stroke-miterlimit="10"/>
<path d="M59.0605 152C59.0605 152 95.5017 152.166 119.091 162.039C138.411 170.134 171.301 169.99 171.301 169.99" stroke="#9CBBE5" stroke-miterlimit="10"/>
<path d="M59.0605 151.773H173.141" stroke="#9CBBE5" stroke-miterlimit="10"/>
<path d="M173.6 80.7148H238.46" stroke="#9CBBE5" stroke-miterlimit="10"/>
<path d="M258.699 89.2578H295.039" stroke="#9CBBE5" stroke-miterlimit="10"/>
<path d="M59.0607 153.797C60.0769 153.797 60.9007 152.992 60.9007 151.998C60.9007 151.005 60.0769 150.199 59.0607 150.199C58.0445 150.199 57.2207 151.005 57.2207 151.998C57.2207 152.992 58.0445 153.797 59.0607 153.797Z" fill="#4980CB"/>
<path d="M238.919 60.6986C239.681 60.6986 240.299 60.0945 240.299 59.3493C240.299 58.6041 239.681 58 238.919 58C238.157 58 237.539 58.6041 237.539 59.3493C237.539 60.0945 238.157 60.6986 238.919 60.6986Z" fill="#4980CB"/>
<path d="M238.919 64.972C239.681 64.972 240.299 64.3679 240.299 63.6227C240.299 62.8775 239.681 62.2734 238.919 62.2734C238.157 62.2734 237.539 62.8775 237.539 63.6227C237.539 64.3679 238.157 64.972 238.919 64.972Z" fill="#4980CB"/>
<path d="M238.919 69.2454C239.681 69.2454 240.299 68.6413 240.299 67.8962C240.299 67.151 239.681 66.5469 238.919 66.5469C238.157 66.5469 237.539 67.151 237.539 67.8962C237.539 68.6413 238.157 69.2454 238.919 69.2454Z" fill="#4980CB"/>
<path d="M238.919 73.515C239.681 73.515 240.299 72.9109 240.299 72.1657C240.299 71.4205 239.681 70.8164 238.919 70.8164C238.157 70.8164 237.539 71.4205 237.539 72.1657C237.539 72.9109 238.157 73.515 238.919 73.515Z" fill="#4980CB"/>
<path d="M238.919 77.7884C239.681 77.7884 240.299 77.1843 240.299 76.4391C240.299 75.6939 239.681 75.0898 238.919 75.0898C238.157 75.0898 237.539 75.6939 237.539 76.4391C237.539 77.1843 238.157 77.7884 238.919 77.7884Z" fill="#4980CB"/>
<path d="M238.919 82.0618C239.681 82.0618 240.299 81.4578 240.299 80.7126C240.299 79.9674 239.681 79.3633 238.919 79.3633C238.157 79.3633 237.539 79.9674 237.539 80.7126C237.539 81.4578 238.157 82.0618 238.919 82.0618Z" fill="#4980CB"/>
<path d="M238.919 86.3353C239.681 86.3353 240.299 85.7312 240.299 84.986C240.299 84.2408 239.681 83.6367 238.919 83.6367C238.157 83.6367 237.539 84.2408 237.539 84.986C237.539 85.7312 238.157 86.3353 238.919 86.3353Z" fill="#4980CB"/>
<path d="M238.919 90.6087C239.681 90.6087 240.299 90.0046 240.299 89.2594C240.299 88.5143 239.681 87.9102 238.919 87.9102C238.157 87.9102 237.539 88.5143 237.539 89.2594C237.539 90.0046 238.157 90.6087 238.919 90.6087Z" fill="#4980CB"/>
<path d="M256.4 106.934H241.68V108.733H256.4V106.934Z" fill="#4980CB"/>
<path d="M256.4 111.25H241.68V113.049H256.4V111.25Z" fill="#4980CB"/>
<path d="M256.4 115.57H241.68V117.369H256.4V115.57Z" fill="#4980CB"/>
<path d="M256.4 119.887H241.68V121.686H256.4V119.887Z" fill="#4980CB"/>
<path d="M256.4 124.203H241.68V126.002H256.4V124.203Z" fill="#4980CB"/>
<path d="M173.141 116.018C173.141 116.018 194.347 115.937 208.101 111.251C219.343 107.405 238.461 107.473 238.461 107.473" stroke="#9CBBE5" stroke-miterlimit="10"/>
<path d="M258.699 89.0333C258.699 89.0333 270.498 88.9568 278.134 84.5132C284.39 80.8746 295.039 80.9376 295.039 80.9376" stroke="#9CBBE5" stroke-miterlimit="10"/>
<path d="M258.699 89.0328C258.699 89.0328 270.498 88.9923 278.134 86.5231C284.39 84.4992 295.039 84.5352 295.039 84.5352" stroke="#9CBBE5" stroke-miterlimit="10"/>
<path d="M258.699 89.0352C258.699 89.0352 270.498 89.1116 278.134 93.5328C284.39 97.1758 295.039 97.1309 295.039 97.1309" stroke="#9CBBE5" stroke-miterlimit="10"/>
<path d="M258.699 89.0352C258.699 89.0352 270.498 89.0756 278.134 91.5448C284.39 93.5687 295.039 93.5328 295.039 93.5328" stroke="#9CBBE5" stroke-miterlimit="10"/>
<path d="M173.141 116.021C173.141 116.021 194.347 115.985 208.101 113.772C219.343 111.95 238.461 111.973 238.461 111.973" stroke="#9CBBE5" stroke-miterlimit="10"/>
<path d="M173.141 116.469C173.141 116.469 194.347 116.545 208.101 121.236C219.343 125.077 238.461 125.014 238.461 125.014" stroke="#9CBBE5" stroke-miterlimit="10"/>
<path d="M173.141 116.469C173.141 116.469 194.347 116.505 208.101 118.718C219.343 120.539 238.461 120.517 238.461 120.517" stroke="#9CBBE5" stroke-miterlimit="10"/>
<path d="M173.6 116.242H238.46" stroke="#9CBBE5" stroke-miterlimit="10"/>
<path d="M238.919 109.046C239.681 109.046 240.299 108.442 240.299 107.697C240.299 106.952 239.681 106.348 238.919 106.348C238.157 106.348 237.539 106.952 237.539 107.697C237.539 108.442 238.157 109.046 238.919 109.046Z" fill="#4980CB"/>
<path d="M238.919 113.32C239.681 113.32 240.299 112.716 240.299 111.97C240.299 111.225 239.681 110.621 238.919 110.621C238.157 110.621 237.539 111.225 237.539 111.97C237.539 112.716 238.157 113.32 238.919 113.32Z" fill="#4980CB"/>
<path d="M238.919 117.593C239.681 117.593 240.299 116.989 240.299 116.244C240.299 115.499 239.681 114.895 238.919 114.895C238.157 114.895 237.539 115.499 237.539 116.244C237.539 116.989 238.157 117.593 238.919 117.593Z" fill="#4980CB"/>
<path d="M238.919 121.867C239.681 121.867 240.299 121.262 240.299 120.517C240.299 119.772 239.681 119.168 238.919 119.168C238.157 119.168 237.539 119.772 237.539 120.517C237.539 121.262 238.157 121.867 238.919 121.867Z" fill="#4980CB"/>
<path d="M238.919 126.14C239.681 126.14 240.299 125.536 240.299 124.791C240.299 124.046 239.681 123.441 238.919 123.441C238.157 123.441 237.539 124.046 237.539 124.791C237.539 125.536 238.157 126.14 238.919 126.14Z" fill="#4980CB"/>
<path d="M238.919 94.8822C239.681 94.8822 240.299 94.2781 240.299 93.5329C240.299 92.7877 239.681 92.1836 238.919 92.1836C238.157 92.1836 237.539 92.7877 237.539 93.5329C237.539 94.2781 238.157 94.8822 238.919 94.8822Z" fill="#4980CB"/>
<path d="M238.919 99.1517C239.681 99.1517 240.299 98.5476 240.299 97.8024C240.299 97.0572 239.681 96.4531 238.919 96.4531C238.157 96.4531 237.539 97.0572 237.539 97.8024C237.539 98.5476 238.157 99.1517 238.919 99.1517Z" fill="#4980CB"/>
<path d="M238.919 103.425C239.681 103.425 240.299 102.821 240.299 102.076C240.299 101.331 239.681 100.727 238.919 100.727C238.157 100.727 237.539 101.331 237.539 102.076C237.539 102.821 238.157 103.425 238.919 103.425Z" fill="#4980CB"/>
<path d="M256.4 129.512H241.68V131.311H256.4V129.512Z" fill="#4980CB"/>
<path d="M303.321 131.312H296.881V132.212H303.321V131.312Z" fill="#4980CB"/>
<path d="M303.321 135.27H296.881V136.169H303.321V135.27Z" fill="#4980CB"/>
<path d="M303.321 139.227H296.881V140.126H303.321V139.227Z" fill="#4980CB"/>
<path d="M303.321 143.184H296.881V144.083H303.321V143.184Z" fill="#4980CB"/>
<path d="M303.321 147.145H296.881V148.044H303.321V147.145Z" fill="#4980CB"/>
<path d="M303.321 151.102H296.881V152.001H303.321V151.102Z" fill="#4980CB"/>
<path d="M303.321 155.059H296.881V155.958H303.321V155.059Z" fill="#4980CB"/>
<path d="M303.321 159.016H296.881V159.915H303.321V159.016Z" fill="#4980CB"/>
<path d="M303.321 162.973H296.881V163.872H303.321V162.973Z" fill="#4980CB"/>
<path d="M303.321 166.934H296.881V167.833H303.321V166.934Z" fill="#4980CB"/>
<path d="M303.321 170.891H296.881V171.79H303.321V170.891Z" fill="#4980CB"/>
<path d="M256.4 133.828H241.68V135.627H256.4V133.828Z" fill="#4980CB"/>
<path d="M256.4 138.148H241.68V139.947H256.4V138.148Z" fill="#4980CB"/>
<path d="M256.4 142.465H241.68V144.264H256.4V142.465Z" fill="#4980CB"/>
<path d="M256.4 146.781H241.68V148.58H256.4V146.781Z" fill="#4980CB"/>
<path d="M256.4 151.102H241.68V152.901H256.4V151.102Z" fill="#4980CB"/>
<path d="M256.4 155.418H241.68V157.217H256.4V155.418Z" fill="#4980CB"/>
<path d="M256.4 159.734H241.68V161.533H256.4V159.734Z" fill="#4980CB"/>
<path d="M256.4 164.055H241.68V165.854H256.4V164.055Z" fill="#4980CB"/>
<path d="M256.4 168.371H241.68V170.17H256.4V168.371Z" fill="#4980CB"/>
<path d="M256.4 172.688H241.68V174.487H256.4V172.688Z" fill="#4980CB"/>
<path d="M173.141 151.549C173.141 151.549 194.347 151.351 208.101 139.752C219.343 130.248 238.461 130.41 238.461 130.41" stroke="#9CBBE5" stroke-miterlimit="10"/>
<path d="M173.141 151.551C173.141 151.551 194.347 151.399 208.101 142.264C219.343 134.784 238.461 134.91 238.461 134.91" stroke="#9CBBE5" stroke-miterlimit="10"/>
<path d="M173.141 151.55C173.141 151.55 194.347 151.437 208.101 144.772C219.343 139.312 238.461 139.406 238.461 139.406" stroke="#9CBBE5" stroke-miterlimit="10"/>
<path d="M173.141 151.549C173.141 151.549 194.347 151.468 208.101 146.782C219.343 142.937 238.461 143.004 238.461 143.004" stroke="#9CBBE5" stroke-miterlimit="10"/>
<path d="M173.141 151.552C173.141 151.552 194.347 151.516 208.101 149.303C219.343 147.481 238.461 147.504 238.461 147.504" stroke="#9CBBE5" stroke-miterlimit="10"/>
<path d="M173.141 152C173.141 152 194.347 152.193 208.101 163.797C219.343 173.301 238.461 173.139 238.461 173.139" stroke="#9CBBE5" stroke-miterlimit="10"/>
<path d="M173.141 152C173.141 152 194.347 152.153 208.101 161.288C219.343 168.767 238.461 168.641 238.461 168.641" stroke="#9CBBE5" stroke-miterlimit="10"/>
<path d="M173.141 152C173.141 152 194.347 152.112 208.101 158.778C219.343 164.233 238.461 164.144 238.461 164.144" stroke="#9CBBE5" stroke-miterlimit="10"/>
<path d="M173.141 152C173.141 152 194.347 152.076 208.101 156.767C219.343 160.608 238.461 160.545 238.461 160.545" stroke="#9CBBE5" stroke-miterlimit="10"/>
<path d="M173.141 152C173.141 152 194.347 152.036 208.101 154.249C219.343 156.07 238.461 156.048 238.461 156.048" stroke="#9CBBE5" stroke-miterlimit="10"/>
<path d="M173.6 151.773H238.46" stroke="#9CBBE5" stroke-miterlimit="10"/>
<path d="M260.08 151.344C260.08 151.344 270.982 151.16 278.02 140.415C283.802 131.613 293.66 131.762 293.66 131.762" stroke="#9CBBE5" stroke-miterlimit="10"/>
<path d="M260.08 151.344C260.08 151.344 270.982 151.2 278.02 142.74C283.802 135.809 293.66 135.926 293.66 135.926" stroke="#9CBBE5" stroke-miterlimit="10"/>
<path d="M260.08 151.345C260.08 151.345 270.982 151.241 278.02 145.048C283.802 139.993 293.66 140.078 293.66 140.078" stroke="#9CBBE5" stroke-miterlimit="10"/>
<path d="M260.08 151.342C260.08 151.342 270.982 151.265 278.02 146.92C283.802 143.363 293.66 143.426 293.66 143.426" stroke="#9CBBE5" stroke-miterlimit="10"/>
<path d="M260.08 151.345C260.08 151.345 270.982 151.309 278.02 149.249C283.802 147.567 293.66 147.594 293.66 147.594" stroke="#9CBBE5" stroke-miterlimit="10"/>
<path d="M260.08 151.758C260.08 151.758 270.982 151.942 278.02 162.687C283.802 171.489 293.66 171.34 293.66 171.34" stroke="#9CBBE5" stroke-miterlimit="10"/>
<path d="M260.08 151.758C260.08 151.758 270.982 151.902 278.02 160.362C283.802 167.293 293.66 167.176 293.66 167.176" stroke="#9CBBE5" stroke-miterlimit="10"/>
<path d="M260.08 151.758C260.08 151.758 270.982 151.861 278.02 158.054C283.802 163.11 293.66 163.024 293.66 163.024" stroke="#9CBBE5" stroke-miterlimit="10"/>
<path d="M260.08 151.758C260.08 151.758 270.982 151.834 278.02 156.179C283.802 159.737 293.66 159.674 293.66 159.674" stroke="#9CBBE5" stroke-miterlimit="10"/>
<path d="M260.08 151.758C260.08 151.758 270.982 151.794 278.02 153.854C283.802 155.536 293.66 155.509 293.66 155.509" stroke="#9CBBE5" stroke-miterlimit="10"/>
<path d="M260.314 151.551H293.66" stroke="#9CBBE5" stroke-miterlimit="10"/>
<path d="M306.539 151.345C306.539 151.345 313.411 151.309 317.855 149.249C321.498 147.567 327.699 147.594 327.699 147.594" stroke="#9CBBE5" stroke-miterlimit="10"/>
<path d="M306.539 151.758C306.539 151.758 313.411 151.794 317.855 153.854C321.498 155.536 327.699 155.509 327.699 155.509" stroke="#9CBBE5" stroke-miterlimit="10"/>
<path d="M306.688 151.551H327.7" stroke="#9CBBE5" stroke-miterlimit="10"/>
<path d="M238.919 131.761C239.681 131.761 240.299 131.157 240.299 130.412C240.299 129.667 239.681 129.062 238.919 129.062C238.157 129.062 237.539 129.667 237.539 130.412C237.539 131.157 238.157 131.761 238.919 131.761Z" fill="#4980CB"/>
<path d="M238.919 136.035C239.681 136.035 240.299 135.43 240.299 134.685C240.299 133.94 239.681 133.336 238.919 133.336C238.157 133.336 237.539 133.94 237.539 134.685C237.539 135.43 238.157 136.035 238.919 136.035Z" fill="#4980CB"/>
<path d="M238.919 140.308C239.681 140.308 240.299 139.704 240.299 138.959C240.299 138.213 239.681 137.609 238.919 137.609C238.157 137.609 237.539 138.213 237.539 138.959C237.539 139.704 238.157 140.308 238.919 140.308Z" fill="#4980CB"/>
<path d="M238.919 144.577C239.681 144.577 240.299 143.973 240.299 143.228C240.299 142.483 239.681 141.879 238.919 141.879C238.157 141.879 237.539 142.483 237.539 143.228C237.539 143.973 238.157 144.577 238.919 144.577Z" fill="#4980CB"/>
<path d="M238.919 148.851C239.681 148.851 240.299 148.247 240.299 147.502C240.299 146.756 239.681 146.152 238.919 146.152C238.157 146.152 237.539 146.756 237.539 147.502C237.539 148.247 238.157 148.851 238.919 148.851Z" fill="#4980CB"/>
<path d="M238.919 153.124C239.681 153.124 240.299 152.52 240.299 151.775C240.299 151.03 239.681 150.426 238.919 150.426C238.157 150.426 237.539 151.03 237.539 151.775C237.539 152.52 238.157 153.124 238.919 153.124Z" fill="#4980CB"/>
<path d="M238.919 157.398C239.681 157.398 240.299 156.794 240.299 156.049C240.299 155.303 239.681 154.699 238.919 154.699C238.157 154.699 237.539 155.303 237.539 156.049C237.539 156.794 238.157 157.398 238.919 157.398Z" fill="#4980CB"/>
<path d="M238.919 161.671C239.681 161.671 240.299 161.067 240.299 160.322C240.299 159.577 239.681 158.973 238.919 158.973C238.157 158.973 237.539 159.577 237.539 160.322C237.539 161.067 238.157 161.671 238.919 161.671Z" fill="#4980CB"/>
<path d="M238.919 165.941C239.681 165.941 240.299 165.337 240.299 164.591C240.299 163.846 239.681 163.242 238.919 163.242C238.157 163.242 237.539 163.846 237.539 164.591C237.539 165.337 238.157 165.941 238.919 165.941Z" fill="#4980CB"/>
<path d="M238.919 170.214C239.681 170.214 240.299 169.61 240.299 168.865C240.299 168.12 239.681 167.516 238.919 167.516C238.157 167.516 237.539 168.12 237.539 168.865C237.539 169.61 238.157 170.214 238.919 170.214Z" fill="#4980CB"/>
<path d="M238.919 174.488C239.681 174.488 240.299 173.884 240.299 173.138C240.299 172.393 239.681 171.789 238.919 171.789C238.157 171.789 237.539 172.393 237.539 173.138C237.539 173.884 238.157 174.488 238.919 174.488Z" fill="#4980CB"/>
<path d="M256.4 201.023H241.68V202.822H256.4V201.023Z" fill="#4980CB"/>
<path d="M256.4 205.34H241.68V207.139H256.4V205.34Z" fill="#4980CB"/>
<path d="M256.4 209.66H241.68V211.459H256.4V209.66Z" fill="#4980CB"/>
<path d="M256.4 213.977H241.68V215.776H256.4V213.977Z" fill="#4980CB"/>
<path d="M256.4 218.293H241.68V220.092H256.4V218.293Z" fill="#4980CB"/>
<path d="M256.4 222.613H241.68V224.412H256.4V222.613Z" fill="#4980CB"/>
<path d="M256.4 226.93H241.68V228.729H256.4V226.93Z" fill="#4980CB"/>
<path d="M256.4 231.246H241.68V233.045H256.4V231.246Z" fill="#4980CB"/>
<path d="M256.4 235.566H241.68V237.365H256.4V235.566Z" fill="#4980CB"/>
<path d="M256.4 239.883H241.68V241.682H256.4V239.883Z" fill="#4980CB"/>
<path d="M256.4 244.199H241.68V245.998H256.4V244.199Z" fill="#4980CB"/>
<path d="M173.141 223.061C173.141 223.061 194.347 222.863 208.101 211.264C219.343 201.76 238.461 201.922 238.461 201.922" stroke="#9CBBE5" stroke-miterlimit="10"/>
<path d="M173.141 223.063C173.141 223.063 194.347 222.91 208.101 213.776C219.343 206.296 238.461 206.422 238.461 206.422" stroke="#9CBBE5" stroke-miterlimit="10"/>
<path d="M173.141 223.062C173.141 223.062 194.347 222.949 208.101 216.284C219.343 210.824 238.461 210.918 238.461 210.918" stroke="#9CBBE5" stroke-miterlimit="10"/>
<path d="M173.141 223.061C173.141 223.061 194.347 222.98 208.101 218.294C219.343 214.448 238.461 214.516 238.461 214.516" stroke="#9CBBE5" stroke-miterlimit="10"/>
<path d="M173.141 223.063C173.141 223.063 194.347 223.028 208.101 220.815C219.343 218.993 238.461 219.016 238.461 219.016" stroke="#9CBBE5" stroke-miterlimit="10"/>
<path d="M173.141 223.512C173.141 223.512 194.347 223.705 208.101 235.309C219.343 244.812 238.461 244.65 238.461 244.65" stroke="#9CBBE5" stroke-miterlimit="10"/>
<path d="M173.141 223.512C173.141 223.512 194.347 223.665 208.101 232.799C219.343 240.279 238.461 240.153 238.461 240.153" stroke="#9CBBE5" stroke-miterlimit="10"/>
<path d="M173.141 223.512C173.141 223.512 194.347 223.624 208.101 230.29C219.343 235.745 238.461 235.655 238.461 235.655" stroke="#9CBBE5" stroke-miterlimit="10"/>
<path d="M173.141 223.512C173.141 223.512 194.347 223.588 208.101 228.279C219.343 232.12 238.461 232.057 238.461 232.057" stroke="#9CBBE5" stroke-miterlimit="10"/>
<path d="M173.141 223.512C173.141 223.512 194.347 223.548 208.101 225.761C219.343 227.582 238.461 227.56 238.461 227.56" stroke="#9CBBE5" stroke-miterlimit="10"/>
<path d="M173.6 223.285H238.46" stroke="#9CBBE5" stroke-miterlimit="10"/>
<path d="M238.919 203.273C239.681 203.273 240.299 202.669 240.299 201.924C240.299 201.178 239.681 200.574 238.919 200.574C238.157 200.574 237.539 201.178 237.539 201.924C237.539 202.669 238.157 203.273 238.919 203.273Z" fill="#4980CB"/>
<path d="M238.919 207.546C239.681 207.546 240.299 206.942 240.299 206.197C240.299 205.452 239.681 204.848 238.919 204.848C238.157 204.848 237.539 205.452 237.539 206.197C237.539 206.942 238.157 207.546 238.919 207.546Z" fill="#4980CB"/>
<path d="M238.919 211.82C239.681 211.82 240.299 211.216 240.299 210.47C240.299 209.725 239.681 209.121 238.919 209.121C238.157 209.121 237.539 209.725 237.539 210.47C237.539 211.216 238.157 211.82 238.919 211.82Z" fill="#4980CB"/>
<path d="M238.919 216.089C239.681 216.089 240.299 215.485 240.299 214.74C240.299 213.995 239.681 213.391 238.919 213.391C238.157 213.391 237.539 213.995 237.539 214.74C237.539 215.485 238.157 216.089 238.919 216.089Z" fill="#4980CB"/>
<path d="M238.919 220.363C239.681 220.363 240.299 219.759 240.299 219.013C240.299 218.268 239.681 217.664 238.919 217.664C238.157 217.664 237.539 218.268 237.539 219.013C237.539 219.759 238.157 220.363 238.919 220.363Z" fill="#4980CB"/>
<path d="M238.919 224.636C239.681 224.636 240.299 224.032 240.299 223.287C240.299 222.542 239.681 221.938 238.919 221.938C238.157 221.938 237.539 222.542 237.539 223.287C237.539 224.032 238.157 224.636 238.919 224.636Z" fill="#4980CB"/>
<path d="M238.919 228.91C239.681 228.91 240.299 228.305 240.299 227.56C240.299 226.815 239.681 226.211 238.919 226.211C238.157 226.211 237.539 226.815 237.539 227.56C237.539 228.305 238.157 228.91 238.919 228.91Z" fill="#4980CB"/>
<path d="M238.919 233.183C239.681 233.183 240.299 232.579 240.299 231.834C240.299 231.088 239.681 230.484 238.919 230.484C238.157 230.484 237.539 231.088 237.539 231.834C237.539 232.579 238.157 233.183 238.919 233.183Z" fill="#4980CB"/>
<path d="M238.919 237.456C239.681 237.456 240.299 236.852 240.299 236.107C240.299 235.362 239.681 234.758 238.919 234.758C238.157 234.758 237.539 235.362 237.539 236.107C237.539 236.852 238.157 237.456 238.919 237.456Z" fill="#4980CB"/>
<path d="M238.919 241.726C239.681 241.726 240.299 241.122 240.299 240.377C240.299 239.631 239.681 239.027 238.919 239.027C238.157 239.027 237.539 239.631 237.539 240.377C237.539 241.122 238.157 241.726 238.919 241.726Z" fill="#4980CB"/>
<path d="M238.919 245.999C239.681 245.999 240.299 245.395 240.299 244.65C240.299 243.905 239.681 243.301 238.919 243.301C238.157 243.301 237.539 243.905 237.539 244.65C237.539 245.395 238.157 245.999 238.919 245.999Z" fill="#4980CB"/>
<path d="M173.141 153.797C174.157 153.797 174.981 152.992 174.981 151.998C174.981 151.005 174.157 150.199 173.141 150.199C172.125 150.199 171.301 151.005 171.301 151.998C171.301 152.992 172.125 153.797 173.141 153.797Z" fill="#4980CB"/>
<path d="M173.141 225.313C174.157 225.313 174.981 224.507 174.981 223.514C174.981 222.52 174.157 221.715 173.141 221.715C172.125 221.715 171.301 222.52 171.301 223.514C171.301 224.507 172.125 225.313 173.141 225.313Z" fill="#4980CB"/>
<path d="M173.141 82.2856C174.157 82.2856 174.981 81.4801 174.981 80.4865C174.981 79.493 174.157 78.6875 173.141 78.6875C172.125 78.6875 171.301 79.493 171.301 80.4865C171.301 81.4801 172.125 82.2856 173.141 82.2856Z" fill="#4980CB"/>
<path d="M173.141 117.817C174.157 117.817 174.981 117.011 174.981 116.018C174.981 115.024 174.157 114.219 173.141 114.219C172.125 114.219 171.301 115.024 171.301 116.018C171.301 117.011 172.125 117.817 173.141 117.817Z" fill="#4980CB"/>
<path d="M258.7 90.3822C259.462 90.3822 260.08 89.7781 260.08 89.0329C260.08 88.2877 259.462 87.6836 258.7 87.6836C257.938 87.6836 257.32 88.2877 257.32 89.0329C257.32 89.7781 257.938 90.3822 258.7 90.3822Z" fill="#4980CB"/>
<path d="M258.7 153.351C259.462 153.351 260.08 152.747 260.08 152.002C260.08 151.256 259.462 150.652 258.7 150.652C257.938 150.652 257.32 151.256 257.32 152.002C257.32 152.747 257.938 153.351 258.7 153.351Z" fill="#4980CB"/>
<path d="M295.04 81.8392C295.802 81.8392 296.42 81.2351 296.42 80.4899C296.42 79.7447 295.802 79.1406 295.04 79.1406C294.278 79.1406 293.66 79.7447 293.66 80.4899C293.66 81.2351 294.278 81.8392 295.04 81.8392Z" fill="#4980CB"/>
<path d="M295.04 85.8861C295.802 85.8861 296.42 85.282 296.42 84.5368C296.42 83.7916 295.802 83.1875 295.04 83.1875C294.278 83.1875 293.66 83.7916 293.66 84.5368C293.66 85.282 294.278 85.8861 295.04 85.8861Z" fill="#4980CB"/>
<path d="M295.04 90.3822C295.802 90.3822 296.42 89.7781 296.42 89.0329C296.42 88.2877 295.802 87.6836 295.04 87.6836C294.278 87.6836 293.66 88.2877 293.66 89.0329C293.66 89.7781 294.278 90.3822 295.04 90.3822Z" fill="#4980CB"/>
<path d="M295.04 94.8822C295.802 94.8822 296.42 94.2781 296.42 93.5329C296.42 92.7877 295.802 92.1836 295.04 92.1836C294.278 92.1836 293.66 92.7877 293.66 93.5329C293.66 94.2781 294.278 94.8822 295.04 94.8822Z" fill="#4980CB"/>
<path d="M295.04 98.4798C295.802 98.4798 296.42 97.8757 296.42 97.1305C296.42 96.3853 295.802 95.7812 295.04 95.7812C294.278 95.7812 293.66 96.3853 293.66 97.1305C293.66 97.8757 294.278 98.4798 295.04 98.4798Z" fill="#4980CB"/>
<path d="M294.58 132.886C295.215 132.886 295.73 132.382 295.73 131.761C295.73 131.14 295.215 130.637 294.58 130.637C293.945 130.637 293.43 131.14 293.43 131.761C293.43 132.382 293.945 132.886 294.58 132.886Z" fill="#4980CB"/>
<path d="M305.849 152.901C306.484 152.901 306.999 152.398 306.999 151.777C306.999 151.156 306.484 150.652 305.849 150.652C305.214 150.652 304.699 151.156 304.699 151.777C304.699 152.398 305.214 152.901 305.849 152.901Z" fill="#4980CB"/>
<path d="M328.849 148.85C329.484 148.85 329.999 148.347 329.999 147.726C329.999 147.105 329.484 146.602 328.849 146.602C328.214 146.602 327.699 147.105 327.699 147.726C327.699 148.347 328.214 148.85 328.849 148.85Z" fill="#4980CB"/>
<path d="M328.849 152.901C329.484 152.901 329.999 152.398 329.999 151.777C329.999 151.156 329.484 150.652 328.849 150.652C328.214 150.652 327.699 151.156 327.699 151.777C327.699 152.398 328.214 152.901 328.849 152.901Z" fill="#4980CB"/>
<path d="M328.849 156.499C329.484 156.499 329.999 155.995 329.999 155.374C329.999 154.753 329.484 154.25 328.849 154.25C328.214 154.25 327.699 154.753 327.699 155.374C327.699 155.995 328.214 156.499 328.849 156.499Z" fill="#4980CB"/>
<path d="M294.81 136.819C295.445 136.819 295.96 136.316 295.96 135.695C295.96 135.074 295.445 134.57 294.81 134.57C294.175 134.57 293.66 135.074 293.66 135.695C293.66 136.316 294.175 136.819 294.81 136.819Z" fill="#4980CB"/>
<path d="M294.81 140.757C295.445 140.757 295.96 140.253 295.96 139.632C295.96 139.011 295.445 138.508 294.81 138.508C294.175 138.508 293.66 139.011 293.66 139.632C293.66 140.253 294.175 140.757 294.81 140.757Z" fill="#4980CB"/>
<path d="M294.81 144.69C295.445 144.69 295.96 144.187 295.96 143.566C295.96 142.945 295.445 142.441 294.81 142.441C294.175 142.441 293.66 142.945 293.66 143.566C293.66 144.187 294.175 144.69 294.81 144.69Z" fill="#4980CB"/>
<path d="M294.81 148.628C295.445 148.628 295.96 148.124 295.96 147.503C295.96 146.882 295.445 146.379 294.81 146.379C294.175 146.379 293.66 146.882 293.66 147.503C293.66 148.124 294.175 148.628 294.81 148.628Z" fill="#4980CB"/>
<path d="M294.81 152.561C295.445 152.561 295.96 152.058 295.96 151.437C295.96 150.816 295.445 150.312 294.81 150.312C294.175 150.312 293.66 150.816 293.66 151.437C293.66 152.058 294.175 152.561 294.81 152.561Z" fill="#4980CB"/>
<path d="M294.81 156.499C295.445 156.499 295.96 155.995 295.96 155.374C295.96 154.753 295.445 154.25 294.81 154.25C294.175 154.25 293.66 154.753 293.66 155.374C293.66 155.995 294.175 156.499 294.81 156.499Z" fill="#4980CB"/>
<path d="M294.81 160.432C295.445 160.432 295.96 159.929 295.96 159.308C295.96 158.687 295.445 158.184 294.81 158.184C294.175 158.184 293.66 158.687 293.66 159.308C293.66 159.929 294.175 160.432 294.81 160.432Z" fill="#4980CB"/>
<path d="M294.81 164.37C295.445 164.37 295.96 163.866 295.96 163.245C295.96 162.625 295.445 162.121 294.81 162.121C294.175 162.121 293.66 162.625 293.66 163.245C293.66 163.866 294.175 164.37 294.81 164.37Z" fill="#4980CB"/>
<path d="M294.81 168.303C295.445 168.303 295.96 167.8 295.96 167.179C295.96 166.558 295.445 166.055 294.81 166.055C294.175 166.055 293.66 166.558 293.66 167.179C293.66 167.8 294.175 168.303 294.81 168.303Z" fill="#4980CB"/>
<path d="M294.81 172.241C295.445 172.241 295.96 171.738 295.96 171.117C295.96 170.496 295.445 169.992 294.81 169.992C294.175 169.992 293.66 170.496 293.66 171.117C293.66 171.738 294.175 172.241 294.81 172.241Z" fill="#4980CB"/>
</g>
<defs>
<radialGradient id="paint0_radial_3794_87142" cx="0" cy="0" r="1" gradientUnits="userSpaceOnUse" gradientTransform="translate(175.5 144) rotate(140.631) scale(227.016 277.091)">
<stop stop-color="#F8FBFF"/>
<stop offset="1" stop-color="#DDECFF"/>
</radialGradient>
<linearGradient id="paint1_linear_3794_87142" x1="4" y1="78.0003" x2="216" y2="78.0002" gradientUnits="userSpaceOnUse">
<stop stop-color="#77B1FF"/>
<stop offset="1" stop-color="#DCEBFF"/>
</linearGradient>
<linearGradient id="paint2_linear_3794_87142" x1="346.624" y1="287.091" x2="15.3066" y2="287.091" gradientUnits="userSpaceOnUse">
<stop stop-color="#DCEBFF"/>
<stop offset="1" stop-color="#DCEBFF"/>
</linearGradient>
<linearGradient id="paint3_linear_3794_87142" x1="15.3086" y1="25.436" x2="338.972" y2="25.4357" gradientUnits="userSpaceOnUse">
<stop stop-color="#DCEBFF"/>
<stop offset="1" stop-color="#DCEBFF"/>
</linearGradient>
<linearGradient id="paint4_linear_3794_87142" x1="351" y1="256" x2="385" y2="256" gradientUnits="userSpaceOnUse">
<stop stop-color="#B9D3F5"/>
<stop offset="0.430301" stop-color="#9EC6FC"/>
<stop offset="1" stop-color="#D8E8FF"/>
</linearGradient>
<linearGradient id="paint5_linear_3794_87142" x1="4" y1="2.00028" x2="38" y2="2.00028" gradientUnits="userSpaceOnUse">
<stop stop-color="#B9D3F5"/>
<stop offset="0.430301" stop-color="#9EC6FC"/>
<stop offset="1" stop-color="#D8E8FF"/>
</linearGradient>
<linearGradient id="paint6_linear_3794_87142" x1="351" y1="289" x2="378" y2="289" gradientUnits="userSpaceOnUse">
<stop stop-color="#D8E8FF"/>
<stop offset="1" stop-color="#D9E9FF"/>
</linearGradient>
<linearGradient id="paint7_linear_3794_87142" x1="-2.03302e-06" y1="9.993" x2="381.617" y2="9.99297" gradientUnits="userSpaceOnUse">
<stop stop-color="#016EFF"/>
<stop offset="1" stop-color="#016EFF" stop-opacity="0"/>
</linearGradient>
<linearGradient id="paint8_linear_3794_87142" x1="351" y1="2.00027" x2="605" y2="2.0002" gradientUnits="userSpaceOnUse">
<stop stop-color="#BBD4F5"/>
<stop offset="1" stop-color="#E4F0FF"/>
</linearGradient>
<linearGradient id="paint9_linear_3794_87142" x1="73" y1="2.00028" x2="350" y2="2.00019" gradientUnits="userSpaceOnUse">
<stop stop-color="#2883FD"/>
<stop offset="1" stop-color="#BBD4F4"/>
</linearGradient>
<clipPath id="clip0_3794_87142">
<rect width="299" height="188" fill="white" transform="translate(31 58)"/>
</clipPath>
</defs>
</svg>
