<svg width="16" height="17" viewBox="0 0 16 17" fill="none" xmlns="http://www.w3.org/2000/svg">
<g id="add-square-03">
<path id="Icon (Stroke)" fill-rule="evenodd" clip-rule="evenodd" d="M4.25065 3.16665C3.3762 3.16665 2.66732 3.87553 2.66732 4.74997V12.25C2.66732 13.1244 3.3762 13.8333 4.25065 13.8333H11.7506C12.6251 13.8333 13.334 13.1244 13.334 12.25L13.334 4.74997C13.334 3.87553 12.6251 3.16665 11.7507 3.16665H4.25065ZM1.33398 4.74997C1.33398 3.13914 2.63982 1.83331 4.25065 1.83331H11.7507C13.3615 1.83331 14.6673 3.13914 14.6673 4.74997L14.6673 12.25C14.6673 13.8608 13.3615 15.1666 11.7506 15.1666H4.25065C2.63982 15.1666 1.33398 13.8608 1.33398 12.25V4.74997ZM8.00065 4.8333C8.36884 4.8333 8.66732 5.13177 8.66732 5.49996L8.66732 7.83328H11.0007C11.3688 7.83328 11.6673 8.13175 11.6673 8.49995C11.6673 8.86813 11.3688 9.16661 11.0007 9.16661H8.66732V11.4999C8.66732 11.8681 8.36884 12.1666 8.00065 12.1666C7.63246 12.1666 7.33398 11.8681 7.33398 11.4999V9.16661H5.00065C4.63246 9.16661 4.33398 8.86813 4.33398 8.49995C4.33398 8.13175 4.63246 7.83328 5.00065 7.83328H7.33398L7.33398 5.49996C7.33398 5.13177 7.63246 4.8333 8.00065 4.8333Z" fill="#1776FF"/>
</g>
</svg>
