<svg width="14" height="14" viewBox="0 0 14 14" fill="" xmlns="http://www.w3.org/2000/svg">
<path d="M6.25 1.25098H1.5C1.3625 1.25098 1.25 1.36348 1.25 1.50098V6.25098C1.25 6.38848 1.3625 6.50098 1.5 6.50098H6.25C6.3875 6.50098 6.5 6.38848 6.5 6.25098V1.50098C6.5 1.36348 6.3875 1.25098 6.25 1.25098ZM5.4375 5.43848H2.3125V2.31348H5.4375V5.43848ZM12.5 1.25098H7.75C7.6125 1.25098 7.5 1.36348 7.5 1.50098V6.25098C7.5 6.38848 7.6125 6.50098 7.75 6.50098H12.5C12.6375 6.50098 12.75 6.38848 12.75 6.25098V1.50098C12.75 1.36348 12.6375 1.25098 12.5 1.25098ZM11.6875 5.43848H8.5625V2.31348H11.6875V5.43848ZM6.25 7.50098H1.5C1.3625 7.50098 1.25 7.61348 1.25 7.75098V12.501C1.25 12.6385 1.3625 12.751 1.5 12.751H6.25C6.3875 12.751 6.5 12.6385 6.5 12.501V7.75098C6.5 7.61348 6.3875 7.50098 6.25 7.50098ZM5.4375 11.6885H2.3125V8.56348H5.4375V11.6885ZM12.5 7.50098H7.75C7.6125 7.50098 7.5 7.61348 7.5 7.75098V12.501C7.5 12.6385 7.6125 12.751 7.75 12.751H12.5C12.6375 12.751 12.75 12.6385 12.75 12.501V7.75098C12.75 7.61348 12.6375 7.50098 12.5 7.50098ZM11.6875 11.6885H8.5625V8.56348H11.6875V11.6885Z" fill="" fill-opacity=""/>
</svg>
