<svg width="16" height="16" viewBox="0 0 16 16" fill="" xmlns="http://www.w3.org/2000/svg">
<g id="Frame">
<path id="Vector" d="M12.1328 1.73283L12.7392 3.99923H11.496L11.1816 2.82083L6.86241 4.00003H3.38641C3.38834 3.93012 3.40855 3.86194 3.44505 3.80228C3.48155 3.74262 3.53305 3.69357 3.59441 3.66003L3.67121 3.62803L11.6416 1.45203C11.6924 1.43822 11.7453 1.43455 11.7975 1.44123C11.8497 1.44791 11.9 1.46481 11.9456 1.49097C11.9912 1.51713 12.0313 1.55202 12.0634 1.59366C12.0955 1.6353 12.1191 1.68286 12.1328 1.73363V1.73283Z" fill=""/>
<path id="Vector_2" d="M14 3.6001C14.1061 3.6001 14.2078 3.64224 14.2828 3.71726C14.3578 3.79227 14.4 3.89401 14.4 4.0001V12.8001C14.4 12.9062 14.3578 13.0079 14.2828 13.0829C14.2078 13.158 14.1061 13.2001 14 13.2001H1.99998C1.89389 13.2001 1.79215 13.158 1.71713 13.0829C1.64212 13.0079 1.59998 12.9062 1.59998 12.8001V4.0001C1.59998 3.89401 1.64212 3.79227 1.71713 3.71726C1.79215 3.64224 1.89389 3.6001 1.99998 3.6001H14ZM13.2 4.8001H2.79998V12.0001H13.2V4.8001Z" fill=""/>
<path id="Vector_3" d="M14.4 6.3999V10.3999H10.8C10.2696 10.3999 9.76085 10.1892 9.38577 9.81412C9.0107 9.43904 8.79999 8.93033 8.79999 8.3999C8.79999 7.86947 9.0107 7.36076 9.38577 6.98569C9.76085 6.61062 10.2696 6.3999 10.8 6.3999H14.4ZM13.2 9.1999V7.5999H10.8C10.604 7.59993 10.4149 7.67187 10.2685 7.80207C10.1221 7.93228 10.0285 8.1117 10.0056 8.3063L9.99999 8.3999C10 8.59585 10.072 8.78497 10.2022 8.9314C10.3324 9.07783 10.5118 9.17138 10.7064 9.1943L10.8 9.1999H13.2Z" fill=""/>
</g>
</svg>
