<svg width="21" height="20" viewBox="0 0 21 20" fill="none" xmlns="http://www.w3.org/2000/svg">
<g id="Frame">
<path id="Vector" d="M10.5 2C8.91775 2 7.37103 2.46919 6.05544 3.34824C4.73985 4.22729 3.71447 5.47672 3.10897 6.93853C2.50347 8.40034 2.34504 10.0089 2.65372 11.5607C2.9624 13.1126 3.72433 14.538 4.84315 15.6569C5.96197 16.7757 7.38743 17.5376 8.93928 17.8463C10.4911 18.155 12.0997 17.9965 13.5615 17.391C15.0233 16.7855 16.2727 15.7602 17.1518 14.4446C18.0308 13.129 18.5 11.5822 18.5 10C18.5 7.87827 17.6571 5.84344 16.1569 4.34315C14.6566 2.84285 12.6217 2 10.5 2ZM14.44 8.1816L9.7936 12.828C9.72726 12.8943 9.6485 12.947 9.56182 12.9829C9.47514 13.0188 9.38223 13.0373 9.2884 13.0373C9.19458 13.0373 9.10167 13.0188 9.01499 12.9829C8.9283 12.947 8.84954 12.8943 8.7832 12.828L6.5608 10.6056C6.42682 10.4716 6.35154 10.2899 6.35154 10.1004C6.35154 9.91091 6.42682 9.72919 6.5608 9.5952C6.69479 9.46121 6.87652 9.38594 7.066 9.38594C7.25549 9.38594 7.43722 9.46121 7.5712 9.5952L9.2888 11.3128L13.4304 7.1712C13.5644 7.03721 13.7461 6.96194 13.9356 6.96194C14.1251 6.96194 14.3068 7.03721 14.4408 7.1712C14.5748 7.30519 14.6501 7.48691 14.6501 7.6764C14.6501 7.86589 14.5748 8.04761 14.4408 8.1816H14.44Z" fill="#1BB46D"/>
</g>
</svg>
