<svg width="16" height="16" viewBox="0 0 16 16" fill="" xmlns="http://www.w3.org/2000/svg">
<g id="Frame" clip-path="url(#clip0_164_2965)">
<path id="Vector" d="M13.818 8.36366C14.618 8.36366 15.2725 9.0182 15.2725 9.8182V13.8182C15.2725 14.6182 14.618 15.2727 13.818 15.2727H9.81796C9.01796 15.2727 8.36341 14.6182 8.36341 13.8182V9.8182C8.36341 9.0182 9.01796 8.36366 9.81796 8.36366H13.818ZM14.1816 13.8182V9.8182C14.1816 9.62111 14.015 9.45457 13.818 9.45457H9.81796C9.62087 9.45457 9.45432 9.62111 9.45432 9.8182V13.8182C9.45432 14.0153 9.62087 14.1818 9.81796 14.1818H13.818C14.015 14.1818 14.1816 14.0153 14.1816 13.8182ZM13.818 0.727295C14.618 0.727295 15.2725 1.38184 15.2725 2.18184V6.18184C15.2725 6.98184 14.618 7.63638 13.818 7.63638H9.81796C9.01796 7.63638 8.36341 6.98184 8.36341 6.18184V2.18184C8.36341 1.38184 9.01796 0.727295 9.81796 0.727295H13.818ZM14.1816 6.18184V2.18184C14.1816 1.98475 14.015 1.8182 13.818 1.8182H9.81796C9.62087 1.8182 9.45432 1.98475 9.45432 2.18184V6.18184C9.45432 6.37893 9.62087 6.54548 9.81796 6.54548H13.818C14.015 6.54548 14.1816 6.37893 14.1816 6.18184ZM2.1816 0.727295H6.18159C6.98159 0.727295 7.63614 1.38184 7.63614 2.18184V6.18184C7.63614 6.98184 6.98159 7.63638 6.18159 7.63638H2.1816C1.3816 7.63638 0.727051 6.98184 0.727051 6.18184V2.18184C0.727051 1.38184 1.3816 0.727295 2.1816 0.727295ZM6.54523 6.18184V2.18184C6.54523 1.98475 6.37869 1.8182 6.18159 1.8182H2.1816C1.98451 1.8182 1.81796 1.98475 1.81796 2.18184V6.18184C1.81796 6.37893 1.98451 6.54548 2.1816 6.54548H6.18159C6.37869 6.54548 6.54523 6.37893 6.54523 6.18184ZM6.18159 8.36366C6.98159 8.36366 7.63614 9.0182 7.63614 9.8182V13.8182C7.63614 14.6182 6.98159 15.2727 6.18159 15.2727H2.1816C1.3816 15.2727 0.727051 14.6182 0.727051 13.8182V9.8182C0.727051 9.0182 1.3816 8.36366 2.1816 8.36366H6.18159ZM6.54523 13.8182V9.8182C6.54523 9.62111 6.37869 9.45457 6.18159 9.45457H2.1816C1.98451 9.45457 1.81796 9.62111 1.81796 9.8182V13.8182C1.81796 14.0153 1.98451 14.1818 2.1816 14.1818H6.18159C6.37869 14.1818 6.54523 14.0153 6.54523 13.8182Z" fill=""/>
</g>
<defs>
<clipPath id="clip0_164_2965">
<rect width="16" height="16" fill="white"/>
</clipPath>
</defs>
</svg>
