<svg width="16" height="16" viewBox="0 0 16 16" fill="" xmlns="http://www.w3.org/2000/svg">
<path fill-rule="evenodd" clip-rule="evenodd" d="M9.25469 5.33098L10.5094 3.16824L9.25469 1H6.75076L5.49605 3.16274L6.75076 5.32547L9.25469 5.33098ZM8.70438 1.91352L9.43079 3.16274L8.70438 4.41745H7.27356L6.54715 3.16274L7.27356 1.91352H8.70438ZM11.3459 2.9206C11.6743 3.13945 11.9802 3.39014 12.2594 3.66903C12.8194 4.2232 13.2634 4.88326 13.5658 5.61075C13.8681 6.33825 14.0227 7.11863 14.0204 7.90645C14.0204 8.02759 14.0685 8.14377 14.1542 8.22943C14.2399 8.31508 14.356 8.36321 14.4772 8.36321C14.5983 8.36321 14.7145 8.31508 14.8002 8.22943C14.8858 8.14377 14.9339 8.02759 14.9339 7.90645C14.9347 6.99901 14.7557 6.10041 14.4071 5.26258C14.0586 4.42475 13.5474 3.66429 12.9033 3.02516C12.5818 2.70534 12.2298 2.4178 11.8522 2.16667C11.7515 2.10545 11.631 2.08552 11.516 2.11103C11.4009 2.13655 11.3002 2.20554 11.2348 2.30359C11.1695 2.40164 11.1445 2.52116 11.1652 2.63717C11.1859 2.75318 11.2507 2.8567 11.3459 2.9261V2.9206ZM6.16743 11.8192C6.11261 11.7884 6.05203 11.7692 5.98946 11.7629C5.9269 11.7566 5.86371 11.7633 5.80385 11.7826C5.74399 11.8018 5.68875 11.8332 5.64159 11.8748C5.59443 11.9164 5.55636 11.9672 5.52977 12.0242C5.50318 12.0812 5.48864 12.1431 5.48706 12.2059C5.48548 12.2688 5.4969 12.3313 5.5206 12.3895C5.54429 12.4478 5.57976 12.5005 5.62478 12.5444C5.66979 12.5883 5.72339 12.6224 5.78221 12.6447C6.47819 12.9666 7.23587 13.1334 8.00273 13.1334C8.76958 13.1334 9.52726 12.9666 10.2232 12.6447C10.3237 12.5882 10.3991 12.4959 10.4343 12.3863C10.4696 12.2766 10.4621 12.1577 10.4134 12.0533C10.3647 11.9489 10.2783 11.8668 10.1716 11.8234C10.0649 11.78 9.94578 11.7785 9.83803 11.8192C9.26311 12.0865 8.63675 12.225 8.00273 12.225C7.36871 12.225 6.74234 12.0865 6.16743 11.8192ZM10.3058 4.07095C10.3162 4.1295 10.3381 4.18541 10.3703 4.23546C10.4024 4.28551 10.4441 4.32873 10.4929 4.36262C10.6988 4.5096 10.892 4.67342 11.0708 4.8524C11.4744 5.25191 11.7946 5.72764 12.0129 6.25196C12.2311 6.77627 12.343 7.33872 12.342 7.90664C12.3424 7.99701 12.3696 8.08523 12.4202 8.16013C12.4707 8.23503 12.5424 8.29324 12.626 8.32742C12.7097 8.36159 12.8016 8.37017 12.8901 8.35209C12.9787 8.33401 13.0599 8.29006 13.1234 8.22582C13.1656 8.18409 13.199 8.13436 13.2216 8.07955C13.2443 8.02474 13.2558 7.96596 13.2555 7.90664C13.258 7.21834 13.1235 6.53641 12.8599 5.90057C12.5963 5.26473 12.2089 4.68769 11.7201 4.20303C11.5032 3.98797 11.2674 3.79275 11.0157 3.61969C10.9419 3.56874 10.8547 3.54066 10.7649 3.53897C10.6752 3.53728 10.587 3.56204 10.5113 3.61018C10.4356 3.65831 10.3757 3.72768 10.3392 3.80962C10.3026 3.89156 10.291 3.98246 10.3058 4.07095ZM4.75865 8.60554H2.25472L1 10.7738L2.25472 12.9365H4.76415L6.01887 10.7738L4.75865 8.60554ZM2.78302 12.0065L2.0566 10.7738L2.78302 9.52457H4.23585L4.96226 10.7738L4.23585 12.0065H2.78302ZM10.548 13.3382C9.75036 13.7079 8.88183 13.8993 8.00275 13.8993C7.12367 13.8993 6.25515 13.7079 5.45755 13.3382C5.40273 13.3074 5.34214 13.2883 5.27958 13.282C5.21702 13.2757 5.15383 13.2824 5.09397 13.3016C5.03411 13.3209 4.97887 13.3523 4.93171 13.3939C4.88454 13.4354 4.84648 13.4863 4.81989 13.5433C4.79329 13.6003 4.77876 13.6621 4.77718 13.725C4.7756 13.7878 4.78702 13.8504 4.81071 13.9086C4.83441 13.9668 4.86988 14.0196 4.9149 14.0635C4.95991 14.1074 5.01351 14.1415 5.07233 14.1637C5.99059 14.5894 6.9906 14.81 8.00275 14.81C9.01491 14.81 10.0149 14.5894 10.9332 14.1637C10.992 14.1415 11.0456 14.1074 11.0906 14.0635C11.1356 14.0196 11.1711 13.9668 11.1948 13.9086C11.2185 13.8504 11.2299 13.7878 11.2283 13.725C11.2267 13.6621 11.2122 13.6003 11.1856 13.5433C11.159 13.4863 11.121 13.4354 11.0738 13.3939C11.0266 13.3523 10.9714 13.3209 10.9115 13.3016C10.8517 13.2824 10.7885 13.2757 10.7259 13.282C10.6634 13.2883 10.6028 13.3074 10.548 13.3382ZM13.7508 8.60554H11.2414L9.98664 10.7683L11.2414 12.931H13.7453L15 10.7683L13.7508 8.60554ZM11.7697 12.0065L11.0432 10.7573L11.7697 9.50806H13.2225L13.9489 10.7573L13.2225 12.0065H11.7697ZM2.75 7.90664C2.75 8.02778 2.79812 8.14396 2.88378 8.22962C2.96944 8.31528 3.08562 8.3634 3.20676 8.3634C3.3279 8.3634 3.44408 8.31528 3.52974 8.22962C3.6154 8.14396 3.66352 8.02778 3.66352 7.90664C3.66152 7.33907 3.77239 6.77676 3.98968 6.25242C4.20698 5.72808 4.52636 5.25218 4.92925 4.8524C5.1094 4.67283 5.30455 4.50898 5.51258 4.36262C5.56172 4.32648 5.60327 4.28102 5.63484 4.22883C5.66641 4.17664 5.6874 4.11875 5.6966 4.05845C5.70579 3.99815 5.70303 3.93663 5.68845 3.8774C5.67387 3.81817 5.64777 3.76239 5.61164 3.71325C5.5755 3.6641 5.53004 3.62256 5.47785 3.59099C5.42566 3.55941 5.36776 3.53843 5.30747 3.52923C5.24717 3.52003 5.18564 3.5228 5.12641 3.53738C5.06719 3.55195 5.01141 3.57806 4.96226 3.61419C4.72654 3.79224 4.50568 3.98917 4.30189 4.20303C3.8104 4.6865 3.42006 5.26297 3.15362 5.89883C2.88719 6.53468 2.74998 7.21722 2.75 7.90664ZM1.8731 8.22906C1.78744 8.31472 1.67126 8.36284 1.55012 8.36284C1.48831 8.36583 1.42654 8.35622 1.36856 8.3346C1.31057 8.31299 1.25759 8.27981 1.21281 8.2371C1.16804 8.19438 1.13241 8.14302 1.10809 8.08612C1.08378 8.02921 1.07127 7.96796 1.07135 7.90608C1.07056 6.99864 1.24962 6.10005 1.59817 5.26221C1.94671 4.42438 2.45784 3.66393 3.10201 3.02479C3.37771 2.74038 3.67787 2.48073 3.99902 2.24885C4.09827 2.17587 4.22244 2.14531 4.34422 2.16389C4.466 2.18247 4.57541 2.24866 4.64839 2.34791C4.72137 2.44715 4.75193 2.57133 4.73335 2.69311C4.71477 2.81489 4.64858 2.9243 4.54933 2.99728C4.26453 3.1977 3.99755 3.42233 3.75138 3.66866C3.19415 4.22402 2.75296 4.88466 2.45346 5.61213C2.15397 6.33961 2.00217 7.11938 2.00688 7.90608C2.00688 8.02722 1.95876 8.1434 1.8731 8.22906Z" fill=""/>
</svg>
