<svg width="16" height="16" viewBox="0 0 16 16" fill="" xmlns="http://www.w3.org/2000/svg">
<g id="Frame" clip-path="url(#clip0_771_18362)">
<path id="Vector" d="M13.6933 11.2073V9.75987C13.6933 9.61842 13.6371 9.48277 13.5371 9.38275C13.4371 9.28273 13.3014 9.22654 13.16 9.22654H10.4048V7.18227C10.8347 6.83173 11.1813 6.3901 11.4197 5.88928C11.6582 5.38846 11.7824 4.84095 11.7835 4.28627C11.7835 2.21747 10.0864 0.533203 7.99999 0.533203C5.91359 0.533203 4.21653 2.21694 4.21653 4.2868C4.21653 5.40947 4.72693 6.47134 5.59626 7.18227V9.22654H2.83999C2.69854 9.22654 2.56289 9.28273 2.46287 9.38275C2.36285 9.48277 2.30666 9.61842 2.30666 9.75987V11.2073H1.06666C0.99662 11.2073 0.927268 11.2211 0.862561 11.2479C0.797854 11.2747 0.73906 11.314 0.689535 11.3635C0.64001 11.4131 0.600725 11.4719 0.573923 11.5366C0.54712 11.6013 0.533325 11.6706 0.533325 11.7407V14.9332C0.533325 15.0032 0.54712 15.0726 0.573923 15.1373C0.600725 15.202 0.64001 15.2608 0.689535 15.3103C0.73906 15.3599 0.797854 15.3991 0.862561 15.4259C0.927268 15.4527 0.99662 15.4665 1.06666 15.4665H14.9333C15.0034 15.4665 15.0727 15.4527 15.1374 15.4259C15.2021 15.3991 15.2609 15.3599 15.3105 15.3103C15.36 15.2608 15.3993 15.202 15.4261 15.1373C15.4529 15.0726 15.4667 15.0032 15.4667 14.9332V11.7407C15.4667 11.6706 15.4529 11.6013 15.4261 11.5366C15.3993 11.4719 15.36 11.4131 15.3105 11.3635C15.2609 11.314 15.2021 11.2747 15.1374 11.2479C15.0727 11.2211 15.0034 11.2073 14.9333 11.2073H13.6933ZM6.44799 6.47347C6.09483 6.22851 5.80606 5.90188 5.60623 5.52135C5.4064 5.14083 5.30144 4.71767 5.30026 4.28787C5.30026 2.8148 6.51146 1.61587 8.00053 1.61587C9.48959 1.61587 10.7003 2.8148 10.7003 4.28787C10.6988 4.71772 10.5936 5.14086 10.3935 5.5213C10.1933 5.90173 9.90431 6.22821 9.55093 6.47294L9.32053 6.634V9.0996C9.32053 9.11711 9.31708 9.13445 9.31038 9.15063C9.30368 9.16681 9.29386 9.1815 9.28147 9.19388C9.26909 9.20627 9.25439 9.21609 9.23822 9.22279C9.22204 9.22949 9.2047 9.23294 9.18719 9.23294H6.81173C6.79422 9.23294 6.77688 9.22949 6.7607 9.22279C6.74452 9.21609 6.72983 9.20627 6.71745 9.19388C6.70506 9.1815 6.69524 9.16681 6.68854 9.15063C6.68184 9.13445 6.67839 9.11711 6.67839 9.0996V6.63454L6.44799 6.47347ZM3.50026 10.2665H12.4832C12.5186 10.2665 12.5525 10.2806 12.5775 10.3056C12.6025 10.3306 12.6165 10.3645 12.6165 10.3999V11.0335C12.6165 11.0688 12.6025 11.1027 12.5775 11.1278C12.5525 11.1528 12.5186 11.1668 12.4832 11.1668H3.50026C3.48275 11.1668 3.46541 11.1634 3.44923 11.1567C3.43306 11.15 3.41836 11.1401 3.40598 11.1278C3.3936 11.1154 3.38378 11.1007 3.37707 11.0845C3.37037 11.0683 3.36693 11.051 3.36693 11.0335V10.3999C3.36693 10.3824 3.37037 10.365 3.37707 10.3488C3.38378 10.3327 3.3936 10.318 3.40598 10.3056C3.41836 10.2932 3.43306 10.2834 3.44923 10.2767C3.46541 10.27 3.48275 10.2665 3.50026 10.2665ZM14.3989 14.3999H1.73333C1.69796 14.3999 1.66405 14.3858 1.63904 14.3608C1.61404 14.3358 1.59999 14.3019 1.59999 14.2665V12.4329C1.59999 12.4154 1.60344 12.3981 1.61014 12.3819C1.61684 12.3657 1.62666 12.351 1.63904 12.3387C1.65143 12.3263 1.66612 12.3165 1.6823 12.3098C1.69848 12.3031 1.71582 12.2996 1.73333 12.2996H14.2667C14.2842 12.2996 14.3015 12.3031 14.3177 12.3098C14.3339 12.3165 14.3486 12.3263 14.3609 12.3387C14.3733 12.351 14.3831 12.3657 14.3898 12.3819C14.3965 12.3981 14.4 12.4154 14.4 12.4329V14.3999L14.3995 14.4004L14.3989 14.3999Z" fill=""/>
</g>
<defs>
<clipPath id="clip0_771_18362">
<rect width="16" height="16" fill="white"/>
</clipPath>
</defs>
</svg>
