<svg width="36" height="36" viewBox="0 0 36 36" fill="none" xmlns="http://www.w3.org/2000/svg">
<path d="M6.62988 4.70996H22.7098V31.3499H6.62988V4.70996Z" fill="#BAD4FF"/>
<path d="M15.4864 9.20264H20.5885V11.0071H15.4864V9.20264ZM15.4864 15.5296H20.5885V17.371H15.4864V15.5296ZM26.1849 21.736H27.8164V26.8381H26.1849V21.736ZM26.1849 14.8663H27.8164V19.9686H26.1849V14.8663ZM8.6167 21.736H13.7197V23.5404H8.6167V21.736Z" fill="#4E8CEE"/>
<path d="M32.0266 30.872V9.2027H23.9869V3.4292H5.14536V30.872H1.78296V32.575H34.291V30.872H32.0266ZM30.286 10.8326V30.872H23.9869V10.8326H30.286ZM22.357 5.132V30.872H6.88506V5.132H22.357Z" fill="#4E8CEE"/>
<path d="M8.6167 15.5296H13.7197V17.371H8.6167V15.5296ZM15.4864 21.736H20.5885V23.5403H15.4864V21.736ZM8.6167 9.20264H13.7197V11.0071H8.6167V9.20264Z" fill="#4E8CEE"/>
</svg>
