<svg width="25" height="25" viewBox="0 0 25 25" fill="none" xmlns="http://www.w3.org/2000/svg">
<g id="Frame" clip-path="url(#clip0_2433_15913)">
<path id="Vector" d="M9.92407 3.11946C11.6256 2.86513 13.3555 2.86513 15.057 3.11946C16.2535 3.35876 17.45 3.5502 18.5747 3.86129C18.9864 3.96618 19.3648 4.17376 19.6745 4.46461C19.9842 4.75547 20.2151 5.1201 20.3455 5.52441C20.8321 6.89639 21.3426 8.25641 21.8771 9.60446C21.9728 9.8318 22.2599 10.1668 22.4274 10.1429C22.8837 10.0658 23.3521 10.1704 23.7322 10.4342C24.1124 10.6981 24.3741 11.1003 24.4615 11.5547C24.5218 11.7983 24.5218 12.053 24.4615 12.2966L23.0975 12.6675C23.182 13.1423 23.2379 13.6218 23.265 14.1033V20.7319C23.2496 21.1327 23.1071 21.5182 22.8582 21.8326C21.5955 22.0762 20.3003 22.1005 19.0294 21.9044C18.144 21.3421 18.6944 20.3968 18.4072 19.6311H6.77729C6.54996 20.4447 6.41834 21.8087 6.15511 21.9044C4.85684 22.132 3.52888 22.132 2.23061 21.9044C1.95513 21.5386 1.80416 21.0941 1.79987 20.6361C1.72808 19.6789 1.72808 18.7696 1.72808 17.8363C1.72808 16.1014 1.72808 14.3665 1.79987 12.6196L0.531589 12.2846C0.48947 12.0915 0.48947 11.8915 0.531589 11.6983C0.890537 10.7411 1.36913 9.9993 2.60152 10.107C2.7451 10.107 3.0203 9.81983 3.10405 9.60446C3.56143 8.538 3.96085 7.4476 4.30055 6.33803C4.52523 5.53769 4.98971 4.82539 5.63147 4.29701C6.27322 3.76864 7.06144 3.44954 7.89003 3.38269C8.5481 3.26304 9.23011 3.17928 9.88818 3.0716L9.92407 3.11946ZM4.63557 10.5138C9.79515 11.6056 15.1261 11.6056 20.2857 10.5138C19.843 9.18569 19.4003 8.00116 19.0892 6.80466C18.9969 6.34884 18.7475 5.93988 18.3845 5.64908C18.0215 5.35827 17.568 5.20406 17.103 5.21332C14.6263 5.10564 12.1376 5.02189 9.66084 4.99796C8.85162 5.02968 8.04871 5.15413 7.26785 5.36887C7.08974 5.40534 6.92072 5.47706 6.77072 5.5798C6.62073 5.68253 6.49278 5.81422 6.39441 5.96712C5.72438 7.41488 5.22185 8.91049 4.63557 10.5138ZM5.65259 16.1613C6.08068 16.1844 6.51002 16.1603 6.93284 16.0895C7.09633 16.0517 7.25006 15.98 7.38405 15.879C7.51804 15.778 7.62928 15.65 7.71056 15.5032C7.77038 15.3237 7.49519 14.881 7.25589 14.7733C6.28263 14.3173 5.2839 13.9178 4.26465 13.5768C3.76212 13.4093 3.18781 13.4452 3.06816 14.1511C2.82886 15.1921 3.06816 15.7664 3.84588 15.9339C4.45609 16.0536 5.04237 16.0775 5.71241 16.1373L5.65259 16.1613ZM19.4482 16.1613C20.0783 16.1163 20.7054 16.0364 21.3267 15.922C22.224 15.7185 22.0326 14.9887 22.0087 14.3545C21.9847 13.7204 21.6497 13.4213 21.1592 13.5649C19.9306 13.9302 18.7308 14.3861 17.5697 14.9289C17.0432 15.1801 17.2347 15.8741 17.8329 16.0057C18.368 16.086 18.9074 16.1339 19.4482 16.1493V16.1613Z" fill="white"/>
</g>
<defs>
<clipPath id="clip0_2433_15913">
<rect width="24" height="24" fill="white" transform="translate(0.5 0.5)"/>
</clipPath>
</defs>
</svg>
