<svg width="20" height="20" viewBox="0 0 20 20" fill="none" xmlns="http://www.w3.org/2000/svg">
<g id="Frame">
<path id="Vector" d="M11.6 18C11.3878 18 11.1843 17.9157 11.0343 17.7657C10.8843 17.6157 10.8 17.4122 10.8 17.2V11.6C10.8007 11.388 10.8852 11.185 11.0351 11.0351C11.185 10.8852 11.388 10.8007 11.6 10.8H17.2C17.412 10.8007 17.615 10.8852 17.7649 11.0351C17.9148 11.185 17.9993 11.388 18 11.6V17.2C18 17.4122 17.9157 17.6157 17.7657 17.7657C17.6157 17.9157 17.4122 18 17.2 18H11.6ZM12 12.8V16C12.0008 16.2119 12.0853 16.415 12.2352 16.5648C12.385 16.7147 12.5881 16.7992 12.8 16.8H16C16.212 16.7995 16.4152 16.715 16.5651 16.5651C16.715 16.4152 16.7995 16.212 16.8 16V12.8C16.8 12.5878 16.7157 12.3843 16.5657 12.2343C16.4157 12.0843 16.2122 12 16 12H12.8C12.588 12.0007 12.385 12.0852 12.2351 12.2351C12.0852 12.385 12.0007 12.588 12 12.8ZM2.8 18C2.58799 17.9995 2.38481 17.915 2.2349 17.7651C2.08498 17.6152 2.00053 17.412 2 17.2L2 11.6C2.00088 11.3881 2.08544 11.1851 2.23528 11.0353C2.38512 10.8854 2.5881 10.8009 2.8 10.8H8.4C8.61193 10.8008 8.81495 10.8853 8.96481 11.0352C9.11467 11.185 9.19921 11.3881 9.2 11.6V17.2C9.2 17.3051 9.17931 17.4091 9.1391 17.5061C9.0989 17.6032 9.03997 17.6914 8.96569 17.7657C8.8914 17.84 8.80321 17.8989 8.70615 17.9391C8.60909 17.9793 8.50506 18 8.4 18H2.8ZM3.2 12.8V16C3.2007 16.212 3.28521 16.415 3.43509 16.5649C3.58497 16.7148 3.78804 16.7993 4 16.8H7.2C7.41193 16.7992 7.61495 16.7147 7.76481 16.5648C7.91467 16.415 7.99921 16.2119 8 16V12.8C7.9993 12.588 7.91479 12.385 7.76491 12.2351C7.61503 12.0852 7.41196 12.0007 7.2 12H4C3.78799 12.0005 3.58481 12.085 3.4349 12.2349C3.28498 12.3848 3.20053 12.588 3.2 12.8ZM11.6 9.2C11.4949 9.2 11.3909 9.17931 11.2939 9.1391C11.1968 9.0989 11.1086 9.03997 11.0343 8.96569C10.96 8.8914 10.9011 8.80321 10.8609 8.70615C10.8207 8.60909 10.8 8.50506 10.8 8.4V2.8C10.8007 2.58804 10.8852 2.38497 11.0351 2.23509C11.185 2.08521 11.388 2.0007 11.6 2H17.2C17.412 2.0007 17.615 2.08521 17.7649 2.23509C17.9148 2.38497 17.9993 2.58804 18 2.8V8.4C18 8.50506 17.9793 8.60909 17.9391 8.70615C17.8989 8.80321 17.84 8.8914 17.7657 8.96569C17.6914 9.03997 17.6032 9.0989 17.5061 9.1391C17.4091 9.17931 17.3051 9.2 17.2 9.2H11.6ZM12 4V7.2C12.0008 7.41193 12.0853 7.61495 12.2352 7.76481C12.385 7.91467 12.5881 7.99921 12.8 8H16C16.2122 8 16.4157 7.91571 16.5657 7.76569C16.7157 7.61566 16.8 7.41217 16.8 7.2V4C16.8 3.78783 16.7157 3.58434 16.5657 3.43431C16.4157 3.28429 16.2122 3.2 16 3.2H12.8C12.588 3.2007 12.385 3.28521 12.2351 3.43509C12.0852 3.58497 12.0007 3.78804 12 4ZM2.8 9.2C2.58799 9.19947 2.38481 9.11502 2.2349 8.9651C2.08498 8.81519 2.00053 8.61201 2 8.4L2 2.8C2.00088 2.5881 2.08544 2.38512 2.23528 2.23528C2.38512 2.08544 2.5881 2.00088 2.8 2H8.4C8.61193 2.00079 8.81495 2.08533 8.96481 2.23519C9.11467 2.38505 9.19921 2.58807 9.2 2.8V8.4C9.2 8.50506 9.17931 8.60909 9.1391 8.70615C9.0989 8.80321 9.03997 8.8914 8.96569 8.96569C8.8914 9.03997 8.80321 9.0989 8.70615 9.1391C8.60909 9.17931 8.50506 9.2 8.4 9.2H2.8ZM3.2 4V7.2C3.2007 7.41196 3.28521 7.61503 3.43509 7.76491C3.58497 7.91479 3.78804 7.9993 4 8H7.2C7.41193 7.99921 7.61495 7.91467 7.76481 7.76481C7.91467 7.61495 7.99921 7.41193 8 7.2V4C7.9993 3.78804 7.91479 3.58497 7.76491 3.43509C7.61503 3.28521 7.41196 3.2007 7.2 3.2H4C3.78799 3.20053 3.58481 3.28498 3.4349 3.4349C3.28498 3.58481 3.20053 3.78799 3.2 4Z" fill="white"/>
</g>
</svg>
