<svg width="16" height="16" viewBox="0 0 16 16" fill="" xmlns="http://www.w3.org/2000/svg">
<g id="&#229;&#136;&#160;&#233;&#153;&#164;" clip-path="url(#clip0_89_3755)">
<path id="Vector" d="M13.6566 2.16047V13.8271C13.6566 14.2858 13.469 14.7249 13.1357 15.0493C12.7984 15.375 12.3477 15.5565 11.8788 15.5556H3.87884C3.40729 15.5556 2.95485 15.3733 2.62151 15.0493C2.45737 14.8908 2.32672 14.701 2.23732 14.491C2.14792 14.2811 2.10159 14.0553 2.10107 13.8271V2.16047H13.6566ZM12.3233 3.45691H3.4344V13.8267C3.4344 13.9413 3.48107 14.0511 3.56418 14.1324C3.64773 14.2133 3.76062 14.2587 3.87884 14.2587H11.8788C11.9966 14.2587 12.1099 14.2133 12.193 14.1324C12.2341 14.0928 12.2668 14.0453 12.2892 13.9928C12.3116 13.9402 12.3232 13.8838 12.3233 13.8267V3.45691ZM6.32328 12.5307C5.95484 12.5307 5.65662 12.2409 5.65662 11.8827V6.69779C5.65662 6.34002 5.95484 6.04979 6.32328 6.04979C6.69128 6.04979 6.98995 6.34002 6.98995 6.69779V11.8831C6.98995 12.2413 6.69128 12.5311 6.32328 12.5311V12.5307ZM9.43439 12.5307C9.06594 12.5307 8.76772 12.2409 8.76772 11.8827V6.69779C8.76772 6.34002 9.06594 6.04979 9.43439 6.04979C9.80239 6.04979 10.1011 6.34002 10.1011 6.69779V11.8831C10.1011 12.2413 9.80239 12.5311 9.43439 12.5311V12.5307ZM14.9899 3.45691H0.76774C0.399296 3.45691 0.101074 3.16669 0.101074 2.80847C0.101074 2.45069 0.399296 2.16047 0.76774 2.16047H14.9899C15.3579 2.16047 15.6566 2.45069 15.6566 2.80847C15.6566 3.16669 15.3579 3.45691 14.9899 3.45691ZM9.81217 1.29647L9.92328 2.16047H5.8344L5.94551 1.29647H9.81217ZM10.2033 2.89025e-05H5.5544C5.10373 -0.00352664 4.72151 0.321362 4.66551 0.756027L4.32329 3.45691H11.4344L11.0877 0.756027C11.0313 0.321362 10.6491 -0.00352664 10.1988 0.00047334H10.2033V2.89025e-05Z" fill="#E31430"/>
</g>
<defs>
<clipPath id="clip0_89_3755">
<rect width="16" height="16" fill="white"/>
</clipPath>
</defs>
</svg>
