<svg width="52" height="42" viewBox="0 0 52 42" fill="none" xmlns="http://www.w3.org/2000/svg">
<path d="M51.4099 36.5094H47.249V15.0124C47.249 14.6758 47.1139 14.3531 46.8733 14.1151C46.6327 13.8771 46.3064 13.7434 45.9661 13.7434H38.4997C38.1594 13.7434 37.8331 13.8771 37.5925 14.1151C37.352 14.3531 37.2168 14.6758 37.2168 15.0124V36.5094H33.0688V2.21653C33.0693 1.92565 33.0119 1.63752 32.8997 1.36862C32.7876 1.09972 32.6229 0.85534 32.4152 0.64946C32.2075 0.44358 31.9607 0.280248 31.6891 0.168805C31.4175 0.0573618 31.1263 -5.31715e-07 30.8322 0H7.16712C6.87286 0 6.58148 0.0573297 6.30962 0.168721C6.03775 0.280113 5.79071 0.443384 5.58264 0.649208C5.37456 0.855033 5.20952 1.09938 5.09691 1.3683C4.9843 1.63722 4.92634 1.92545 4.92634 2.21653V36.5094H0.585869C0.43049 36.5094 0.28147 36.5705 0.171601 36.6791C0.0617315 36.7878 1.56178e-05 36.9352 1.56178e-05 37.0889V41.4163C-0.000548592 41.4927 0.0141794 41.5685 0.0433686 41.6393C0.0725579 41.7101 0.115629 41.7745 0.170087 41.8288C0.224545 41.883 0.289314 41.9261 0.360673 41.9555C0.432032 41.9849 0.508572 42 0.585869 42H51.4099C51.5664 42 51.7165 41.9385 51.8272 41.829C51.9378 41.7196 52 41.5711 52 41.4163V37.0889C52 37.0125 51.9847 36.9368 51.955 36.8662C51.9253 36.7956 51.8818 36.7315 51.8269 36.6777C51.772 36.6238 51.7069 36.5812 51.6354 36.5523C51.5638 36.5234 51.4872 36.5089 51.4099 36.5094ZM23.9859 23.5867H13.6842V18.4133H23.9859V23.5867ZM23.9859 14.0522H13.6842V8.87884H23.9859V14.0522Z" fill="#016EFF"/>
</svg>
