<svg width="22" height="22" viewBox="0 0 22 22" fill="none" xmlns="http://www.w3.org/2000/svg">
<path d="M4.05164 2.87842H13.8783V19.1584H4.05164V2.87842Z" fill="#BAD4FF"/>
<path d="M9.46384 5.62378H12.5818V6.72653H9.46384V5.62378ZM9.46384 9.49028H12.5818V10.6156H9.46384V9.49028ZM16.0018 13.2831H16.9988V16.401H16.0018V13.2831ZM16.0018 9.08493H16.9988V12.203H16.0018V9.08493ZM5.26569 13.2831H8.38419V14.3857H5.26569V13.2831Z" fill="#4E8CEE"/>
<path d="M19.5717 18.8661V5.62371H14.6586V2.09546H3.14434V18.8661H1.08954V19.9068H20.9555V18.8661H19.5717ZM18.508 6.61976V18.8661H14.6586V6.61976H18.508ZM13.6625 3.13606V18.8661H4.20749V3.13606H13.6625Z" fill="#4E8CEE"/>
<path d="M5.26569 9.49027H8.38418V10.6156H5.26569V9.49027ZM9.46383 13.2831H12.5818V14.3857H9.46383V13.2831ZM5.26569 5.62378H8.38418V6.72653H5.26569V5.62378Z" fill="#4E8CEE"/>
</svg>
