<svg width="16" height="16" viewBox="0 0 16 16" fill="" xmlns="http://www.w3.org/2000/svg">
<g id="Frame">
<path id="Vector" d="M1.5 5.50491C1.36739 5.50491 1.24021 5.55759 1.14645 5.65136C1.05268 5.74513 1 5.87231 1 6.00491C1 6.13752 1.05268 6.2647 1.14645 6.35847C1.24021 6.45224 1.36739 6.50491 1.5 6.50491H3.5V8.00491C3.5 8.13752 3.55268 8.2647 3.64645 8.35847C3.74021 8.45224 3.86739 8.50491 4 8.50491C4.13261 8.50491 4.25979 8.45224 4.35355 8.35847C4.44732 8.2647 4.5 8.13752 4.5 8.00491V6.50491H6.5C6.63261 6.50491 6.75979 6.45224 6.85355 6.35847C6.94732 6.2647 7 6.13752 7 6.00491C7 5.87231 6.94732 5.74513 6.85355 5.65136C6.75979 5.55759 6.63261 5.50491 6.5 5.50491H4.5V4.50491H6.5C6.63261 4.50491 6.75979 4.45224 6.85355 4.35847C6.94732 4.2647 7 4.13752 7 4.00491C7 3.87231 6.94732 3.74513 6.85355 3.65136C6.75979 3.55759 6.63261 3.50491 6.5 3.50491H4.756L4.739 3.48791L6.339 1.88891C6.4304 1.78961 6.47988 1.65883 6.47708 1.52389C6.47429 1.38896 6.41944 1.26033 6.32401 1.1649C6.22858 1.06947 6.09995 1.01462 5.96502 1.01183C5.83009 1.00904 5.6993 1.05851 5.6 1.14991L4 2.74991L2.4 1.14991C2.3007 1.05851 2.16991 1.00904 2.03498 1.01183C1.90005 1.01462 1.77142 1.06947 1.67599 1.1649C1.58056 1.26033 1.52571 1.38896 1.52292 1.52389C1.52012 1.65883 1.5696 1.78961 1.661 1.88891L3.261 3.48891L3.244 3.50491H1.5C1.36739 3.50491 1.24021 3.55759 1.14645 3.65136C1.05268 3.74513 1 3.87231 1 4.00491C1 4.13752 1.05268 4.2647 1.14645 4.35847C1.24021 4.45224 1.36739 4.50491 1.5 4.50491H3.5V5.50491H1.5ZM14.5 14.0049H14V5.50491C14 5.2397 13.8946 4.98534 13.7071 4.79781C13.5196 4.61027 13.2652 4.50491 13 4.50491H12C11.7348 4.50491 11.4804 4.61027 11.2929 4.79781C11.1054 4.98534 11 5.2397 11 5.50491V14.0049H10V9.00491C10 8.7397 9.89464 8.48534 9.70711 8.29781C9.51957 8.11027 9.26522 8.00491 9 8.00491H8C7.73478 8.00491 7.48043 8.11027 7.29289 8.29781C7.10536 8.48534 7 8.7397 7 9.00491V14.0049H6V11.0049C6 10.7397 5.89464 10.4853 5.70711 10.2978C5.51957 10.1103 5.26522 10.0049 5 10.0049H4C3.73478 10.0049 3.48043 10.1103 3.29289 10.2978C3.10536 10.4853 3 10.7397 3 11.0049V14.0049H1.5C1.36739 14.0049 1.24021 14.0576 1.14645 14.1514C1.05268 14.2451 1 14.3723 1 14.5049C1 14.6375 1.05268 14.7647 1.14645 14.8585C1.24021 14.9522 1.36739 15.0049 1.5 15.0049H14.5C14.6326 15.0049 14.7598 14.9522 14.8536 14.8585C14.9473 14.7647 15 14.6375 15 14.5049C15 14.3723 14.9473 14.2451 14.8536 14.1514C14.7598 14.0576 14.6326 14.0049 14.5 14.0049ZM5 14.0049H4V11.0049H5V14.0049ZM9 14.0049H8V9.00491H9V14.0049ZM13 14.0049H12V5.50491H13V14.0049Z" fill=""/>
</g>
</svg>
