<svg width="14" height="14" viewBox="0 0 14 14" fill="" xmlns="http://www.w3.org/2000/svg">
<path d="M11.872 8.69372V5.27772C12.341 5.19372 12.719 4.75272 12.719 4.25572C12.719 3.67472 12.25 3.23372 11.697 3.23372C11.403 3.23372 11.116 3.38072 10.941 3.58372L8.02199 1.95272C8.04999 1.86872 8.07799 1.77772 8.07799 1.65872C8.07799 1.07772 7.60899 0.636719 7.05599 0.636719C6.50299 0.636719 6.03399 1.10572 6.03399 1.65872C6.03399 1.74272 6.06199 1.83372 6.06199 1.92472L3.14999 3.59072C2.91899 3.35972 2.65299 3.21272 2.36599 3.21272C1.78499 3.21272 1.34399 3.68172 1.34399 4.23472C1.34399 4.73172 1.69399 5.13772 2.16299 5.25672V8.70072C1.69399 8.81972 1.34399 9.22572 1.34399 9.72272C1.34399 10.3037 1.81299 10.7447 2.36599 10.7447C2.65999 10.7447 2.94699 10.5977 3.12199 10.3947L6.06899 12.0257C6.01299 12.1447 5.98499 12.2917 5.98499 12.4317C5.98499 13.0127 6.45399 13.4537 7.00699 13.4537C7.55999 13.4537 8.02899 12.9847 8.02899 12.4317C8.02899 12.2847 8.00099 12.1377 7.94499 11.9977L10.892 10.3947C11.095 10.5977 11.361 10.7447 11.676 10.7447C12.257 10.7447 12.698 10.2757 12.698 9.72272C12.719 9.18372 12.369 8.77772 11.872 8.69372ZM7.64399 11.6057C7.52499 11.5217 7.41299 11.4587 7.29399 11.4307V8.83372H6.79699V11.4307C6.64999 11.4587 6.50299 11.5497 6.39099 11.6337L3.38799 9.96772C3.41599 9.88372 3.41599 9.79272 3.41599 9.70172C3.41599 9.23272 3.09399 8.82672 2.65999 8.70772V5.24972C2.83499 5.19372 2.98199 5.13072 3.09399 4.98372L5.27799 6.32772L5.54399 5.92172L3.35299 4.57772C3.38099 4.45872 3.40899 4.37472 3.40899 4.25572C3.40899 4.17172 3.38099 4.08072 3.38099 3.98972L6.29999 2.33072C6.47499 2.53372 6.76899 2.65272 7.05599 2.65272C7.34999 2.65272 7.60899 2.53372 7.78399 2.33072L10.703 3.99672C10.675 4.08072 10.675 4.17172 10.675 4.26272C10.675 4.38172 10.703 4.46572 10.731 4.58472L8.54699 5.92872L8.81299 6.33472L10.969 5.01872C11.088 5.13772 11.235 5.22172 11.403 5.28472V8.74972C10.969 8.86872 10.675 9.27472 10.675 9.74372C10.675 9.82772 10.675 9.91872 10.703 9.97472L7.64399 11.6057Z" fill=""/>
<path d="M6.06202 7.9802C6.58702 8.5052 7.43402 8.5052 7.95902 7.9802C8.48402 7.4552 8.48402 6.6082 7.95902 6.0832C7.43402 5.5582 6.58702 5.5582 6.06202 6.0832C5.53702 6.6012 5.53702 7.4552 6.06202 7.9802Z" fill=""/>
</svg>
