<svg width="14" height="14" viewBox="0 0 14 14" fill="" xmlns="http://www.w3.org/2000/svg">
<path d="M9.60402 12.8249H3.69603C2.78603 12.8249 2.05103 12.1319 2.05103 11.2709V5.27192C2.05103 4.78192 2.26103 4.30592 2.63203 3.96992L5.04703 1.74392C5.45303 1.37292 5.98503 1.16992 6.55203 1.16992H9.84902C10.689 1.16992 11.375 1.81392 11.375 2.60492V4.34792C11.375 4.62092 11.151 4.84492 10.871 4.84492C10.591 4.84492 10.367 4.62092 10.367 4.34792V2.60492C10.367 2.35992 10.136 2.15692 9.84902 2.15692H6.54502C6.24402 2.15692 5.94303 2.26892 5.73303 2.46492L3.31803 4.69792C3.15003 4.85192 3.05203 5.06192 3.05203 5.27892V11.2709C3.05203 11.5789 3.33903 11.8309 3.69603 11.8309H9.60402C10.024 11.8309 10.36 11.5299 10.36 11.1659V8.67392C10.36 8.40092 10.584 8.17692 10.864 8.17692C11.144 8.17692 11.368 8.40092 11.368 8.67392V11.1659C11.368 12.0759 10.577 12.8249 9.60402 12.8249Z" fill=""/>
<path d="M11.011 4.95508C10.486 4.95508 10.066 5.38908 10.066 5.93508C10.066 6.02608 10.08 6.11008 10.101 6.18708L8.16201 8.49708C7.88201 8.39908 7.56701 8.42008 7.30101 8.56008L5.96401 7.46808C5.97101 7.41208 5.97801 7.36308 5.97801 7.30708C5.97801 6.76808 5.55101 6.32708 5.03301 6.32708C4.51501 6.32708 4.08801 6.76108 4.08801 7.30708C4.08801 7.85308 4.51501 8.28708 5.03301 8.28708C5.13801 8.28708 5.23601 8.27308 5.32701 8.23808L6.69901 9.36508C6.68501 9.44908 6.67101 9.53308 6.67101 9.61708C6.67101 10.2681 7.18201 10.7931 7.80501 10.7931C8.42801 10.7931 8.93901 10.2681 8.93901 9.61708C8.93901 9.47708 8.91801 9.33708 8.86901 9.20408L10.808 6.88708C10.878 6.90108 10.941 6.90808 11.011 6.90808C11.536 6.90808 11.956 6.47408 11.956 5.92808C11.956 5.39608 11.536 4.95508 11.011 4.95508Z" fill=""/>
</svg>
