<svg width="14" height="14" viewBox="0 0 14 14" fill="" xmlns="http://www.w3.org/2000/svg">
<path d="M9.50601 7.23161C9.70901 7.58161 10.087 7.81261 10.528 7.81261C11.172 7.81261 11.697 7.28761 11.697 6.64361C11.697 5.99961 11.172 5.47461 10.528 5.47461C9.88401 5.47461 9.35901 5.99961 9.35901 6.64361C9.35901 6.72761 9.35901 6.81861 9.38701 6.90961L8.59601 7.28761C8.39301 6.93761 7.98001 6.70661 7.54601 6.64361V7.19661H7.22401V6.65061C6.79001 6.70661 6.40501 6.94461 6.20201 7.26661L5.35501 6.86061L5.20801 7.15461L6.05501 7.56061C5.99901 7.73561 5.97101 7.88261 5.97101 8.05761C5.97101 8.23261 5.99901 8.37961 6.05501 8.55461L5.44601 8.84861L5.21501 8.96761L5.36201 9.26161L6.20901 8.85561C6.29301 9.00261 6.41201 9.12161 6.55901 9.23361C6.76201 9.38061 6.99301 9.46461 7.23101 9.49961V9.06561H7.55301V9.53461C7.84701 9.50661 8.13401 9.35961 8.37201 9.15661C8.46301 9.06561 8.54701 8.98161 8.60301 8.86261L9.30301 9.21261L9.42201 9.26861C9.39401 9.35961 9.39401 9.41561 9.39401 9.49961C9.39401 9.87761 9.71601 10.1996 10.094 10.1996C10.472 10.1996 10.794 9.87761 10.794 9.49961C10.794 9.12161 10.444 8.77161 10.038 8.77161C9.83501 8.77161 9.66001 8.86261 9.54101 8.97461L8.69401 8.56861C8.72201 8.54061 8.72201 8.47761 8.72201 8.42161C8.75001 8.30261 8.77801 8.21861 8.77801 8.09961C8.77801 7.98061 8.75001 7.86861 8.72201 7.74961C8.72201 7.72161 8.69401 7.66561 8.69401 7.63061L9.50601 7.23161Z" fill=""/>
<path d="M7.20299 4.37592V6.32892H7.52499V4.37592C8.30899 4.29192 8.92499 3.61992 8.92499 2.77292C8.92499 1.89792 8.19699 1.16992 7.32199 1.16992C6.44699 1.16992 5.71899 1.89792 5.71899 2.77292C5.74699 3.61992 6.39099 4.28492 7.20299 4.37592ZM4.22799 6.73492L4.89999 7.08492L5.04699 6.79092L4.34699 6.41292C4.37499 6.32892 4.37499 6.23792 4.37499 6.14692C4.37499 5.50292 3.84999 4.97792 3.20599 4.97792C2.56199 4.97792 2.03699 5.50292 2.03699 6.14692C2.03699 6.79092 2.56199 7.31592 3.20599 7.31592C3.64699 7.32292 4.02499 7.08492 4.22799 6.73492ZM4.92799 9.12892L3.96899 9.59792C3.84999 9.45092 3.64699 9.36692 3.44399 9.36692C3.06599 9.36692 2.74399 9.68892 2.74399 10.0669C2.74399 10.4449 3.06599 10.7669 3.44399 10.7669C3.82199 10.7669 4.14399 10.4449 4.14399 10.0669V9.91992L5.10999 9.42292C5.10299 9.42292 4.92799 9.12892 4.92799 9.12892ZM7.52499 10.9979V9.94792H7.20299V10.9979C6.76899 11.0539 6.41899 11.4319 6.41899 11.9009C6.41899 12.3979 6.82499 12.8319 7.34999 12.8319C7.84699 12.8319 8.28099 12.4259 8.28099 11.9009C8.25299 11.4669 7.93099 11.0819 7.52499 10.9979Z" fill=""/>
</svg>
