<svg width="24" height="24" viewBox="0 0 24 24" fill="none" xmlns="http://www.w3.org/2000/svg">
<g id="Frame">
<path id="Vector" d="M13.7955 22.5117H13.915H10.7908V16.9477H13.7955V22.5117ZM23.0486 12.6187C23.4095 12.9281 23.4681 13.6687 23.29 14.1656C23.1095 14.5992 22.7486 15.0937 22.2681 15.0937H20.1049C19.9853 15.0937 19.8049 14.8453 19.8049 14.9695V20.4727C19.8049 21.5859 19.1439 22.5141 18.122 22.5141H15.5978V16.5141C15.5978 15.8344 14.6955 15.7102 14.0345 15.7102H10.5517C9.89079 15.7102 8.98845 15.8344 8.98845 16.5141V22.5117H5.86423C4.84235 22.5117 4.18141 21.5836 4.18141 20.4703V15.0305C4.18141 14.8453 4.00095 15.0914 3.88141 15.0914H1.71813C1.2986 15.0914 0.876727 14.6578 0.696259 14.1633C0.51579 13.6687 0.635321 12.9891 0.937665 12.6164L10.6713 2.10703C11.0322 1.73672 11.5127 1.48828 11.9931 1.48828C12.4736 1.48828 12.9541 1.73672 13.315 2.10703L23.0486 12.6187Z" fill="white"/>
</g>
</svg>
