<svg xmlns="http://www.w3.org/2000/svg" width="24" height="24" viewBox="0 0 24 24"><defs><style>.a{fill:none;}.b{}</style></defs><g transform="translate(-37 -474)"><rect class="a" width="24" height="24" transform="translate(37 474)"/><g transform="translate(-24 413)"><path class="b" d="M81.25,64H64.75a.75.75,0,0,0-.75.75v16.5a.75.75,0,0,0,.75.75h16.5a.75.75,0,0,0,.75-.75V64.75A.75.75,0,0,0,81.25,64ZM80.5,80.5h-15v-15h15Z"/><path class="b" d="M183.879,405.662h6.381a2.186,2.186,0,0,0,4.191,0h1.406a.626.626,0,1,0,0-1.251h-1.4a2.19,2.19,0,0,0-4.2,0h-6.377a.626.626,0,0,0,0,1.251Zm8.477-1.586a.951.951,0,1,1-.947.951A.951.951,0,0,1,192.356,404.076Z" transform="translate(-116.858 -332.027)"/><path class="b" d="M183.879,211.7h1.5a2.186,2.186,0,0,0,4.2,0h6.287a.626.626,0,0,0,0-1.239H189.57a2.186,2.186,0,0,0-4.2,0h-1.5a.626.626,0,0,0,0,1.251Zm3.591-1.577a.951.951,0,1,1-.947.951.951.951,0,0,1,.947-.951Zm-3.591-6.519h1.5a2.186,2.186,0,0,0,4.2,0h6.287a.626.626,0,0,0,0-1.251H189.57a2.186,2.186,0,0,0-4.2,0h-1.5a.626.626,0,0,0,0,1.251Zm3.591-1.577a.945.945,0,1,0,0,.013Z" transform="translate(-116.858 -134.029)"/></g></g></svg>