<svg width="16" height="16" viewBox="0 0 16 16" fill="" xmlns="http://www.w3.org/2000/svg">
<g id="Frame" clip-path="url(#clip0_167_7222)">
<path id="Vector" d="M8 0C3.57333 0 0 3.57333 0 8C0 12.4267 3.57333 16 8 16C12.4267 16 16 12.4267 16 8C16 3.57333 12.4267 0 8 0ZM7.36 13.0133C6.82667 13.0667 6.4 12.8533 6.34667 12.2667C6.29333 11.52 6.77333 10.2933 6.82667 10.0267L7.78667 7.30667C7.89333 7.04 7.73333 6.88 7.62667 6.93333C7.04 6.98667 6.4 8.32 6.08 8.37333C5.97333 8.37333 5.86667 8.26667 5.86667 8.21333C5.81333 7.94667 6.50667 7.25333 6.72 7.04C7.30667 6.4 8.10667 5.92 9.01333 5.86667C9.70667 5.81333 10.4533 6.13333 9.97333 7.62667L9.01333 10.6133C8.96 10.88 8.74667 11.2533 8.8 11.4667C8.8 11.5733 8.85333 11.68 9.01333 11.68C9.49333 11.6267 10.24 10.3467 10.5067 10.2933C10.56 10.2933 10.72 10.3467 10.72 10.5067C10.6667 10.9333 8.96 12.9067 7.36 13.0133ZM9.54667 5.22667C8.90667 5.28 8.42667 4.90667 8.37333 4.26667C8.32 3.62667 8.90667 3.04 9.6 2.98667C10.24 2.93333 10.72 3.30667 10.7733 3.94667C10.8267 4.64 10.24 5.17333 9.54667 5.22667Z" fill=""/>
</g>
<defs>
<clipPath id="clip0_167_7222">
<rect width="16" height="16" fill=""/>
</clipPath>
</defs>
</svg>
