<svg xmlns="http://www.w3.org/2000/svg" width="24" height="24" viewBox="0 0 24 24"><defs><style>.a{fill:none;}.b{}</style></defs><g transform="translate(-37 -227)"><rect class="a" width="24" height="24" transform="translate(37 227)"/><path class="b" d="M78.716,71.673l2.339-2.314-.026-.063a8.993,8.993,0,0,1-15.216,9.326L67.1,77.348l.186.236a7.194,7.194,0,0,0,12.665-5.591l-1.064.612-.173-.931Zm-3.737-2.535-1.16,2.708h2.151l-3.443,5.466H71.367l1.305-3.46H70.258l1.991-4.715ZM72.828,64a8.976,8.976,0,0,1,6.989,3.334l-1.287,1.273-.162-.206A7.194,7.194,0,0,0,65.7,73.995l1.064-.613.164.884-2.347,2.323-.118-.279A8.993,8.993,0,0,1,72.828,64Z" transform="translate(-23.832 166.5)"/></g></svg>