<svg xmlns="http://www.w3.org/2000/svg" width="24" height="24" viewBox="0 0 24 24"><defs><style>.a{fill:none;}.b{}</style></defs><g transform="translate(-37 -103)"><rect class="a" width="24" height="24" transform="translate(37 103)"/><g transform="translate(-832.45 -346.591)"><path class="b" d="M889.605,452.64H873.2a.745.745,0,0,0-.746.746v13.486a.745.745,0,0,0,.746.746h16.409a.746.746,0,0,0,.747-.746V453.386A.746.746,0,0,0,889.605,452.64Zm-.746,13.486H873.942V454.132h14.918Z"/><path class="b" d="M914.558,613.052h-9.991a.746.746,0,1,0,0,1.492h9.991a.746.746,0,1,0,0-1.492Z" transform="translate(-28.162 -144.002)"/><path class="b" d="M898.878,504.675a1.04,1.04,0,0,0,.951-1.334l2.387-2.5a.853.853,0,0,0,.537,0l2.37,2.506a1.412,1.412,0,0,0-.026.234,1,1,0,1,0,1.99,0,1.068,1.068,0,0,0-.03-.234l2.353-2.506a.969.969,0,0,0,.192,0,1.053,1.053,0,1,0-.991-1.111c0,.021,0,.042,0,.062a1.135,1.135,0,0,0,.064.362l-2.268,2.4a.853.853,0,0,0-.627,0l-2.34-2.476a1.216,1.216,0,0,0,.038-.281.993.993,0,0,0-1.986,0h0a1.216,1.216,0,0,0,.038.281l-2.383,2.523a.956.956,0,0,0-.269-.043,1.053,1.053,0,0,0,0,2.1Z" transform="translate(-22.839 -41.38)"/></g></g></svg>