<svg width="16" height="16" viewBox="0 0 16 16" fill="" xmlns="http://www.w3.org/2000/svg">
<path d="M16 8.00077C16.0019 6.61884 15.6187 5.2635 14.8931 4.08553C15.1703 3.96042 15.4128 3.77025 15.6 3.53133C15.7872 3.29241 15.9135 3.01186 15.968 2.71371C16.0224 2.41556 16.0035 2.10871 15.9128 1.81943C15.8222 1.53016 15.6624 1.26709 15.4472 1.05276C15.2321 0.838435 14.968 0.679245 14.6775 0.588825C14.3871 0.498406 14.079 0.479454 13.7795 0.533595C13.4801 0.587735 13.1984 0.713353 12.9584 0.899686C12.7184 1.08602 12.5273 1.32751 12.4016 1.60347C11.3237 0.946278 10.0971 0.569828 8.83469 0.508817C7.57231 0.447806 6.31482 0.704196 5.1781 1.25436C4.04138 1.80453 3.06201 2.63076 2.33023 3.65693C1.59846 4.6831 1.13782 5.87619 0.990774 7.12624C0.688309 7.22036 0.426437 7.41307 0.247285 7.67337C0.0681345 7.93367 -0.0178746 8.24641 0.00309629 8.56129C0.0240672 8.87616 0.150801 9.17486 0.362903 9.40932C0.575005 9.64378 0.860138 9.80036 1.17244 9.85388C1.47129 11.0212 2.04817 12.0996 2.85424 12.9979C3.6603 13.8962 4.67182 14.5878 5.80318 15.0143C6.93454 15.4408 8.15242 15.5896 9.35375 15.4481C10.5551 15.3065 11.7045 14.8789 12.7047 14.2012C12.9737 14.4407 13.3245 14.5685 13.6851 14.5584C14.0458 14.5484 14.3889 14.4012 14.644 14.1472C14.8991 13.8931 15.0469 13.5515 15.0569 13.1923C15.067 12.8332 14.9387 12.4838 14.6982 12.216C15.5486 10.9735 16.0023 9.50433 16 8.00077ZM14.1467 1.41601C14.3328 1.41601 14.5148 1.47098 14.6696 1.57398C14.8244 1.67697 14.945 1.82336 15.0163 1.99464C15.0875 2.16591 15.1062 2.35438 15.0698 2.53621C15.0335 2.71803 14.9439 2.88505 14.8122 3.01614C14.6806 3.14722 14.5129 3.2365 14.3303 3.27266C14.1477 3.30883 13.9585 3.29027 13.7865 3.21932C13.6145 3.14838 13.4675 3.02824 13.364 2.87409C13.2606 2.71995 13.2054 2.53873 13.2054 2.35334C13.2054 2.10474 13.3046 1.86633 13.4811 1.69055C13.6576 1.51476 13.897 1.41601 14.1467 1.41601ZM1.39269 9.0084C1.2903 9.0084 1.19021 8.97817 1.10508 8.92152C1.01994 8.86487 0.953589 8.78436 0.914407 8.69015C0.875224 8.59595 0.864971 8.4923 0.884946 8.39229C0.904922 8.29229 0.954228 8.20043 1.02663 8.12833C1.09903 8.05623 1.19127 8.00713 1.29169 7.98724C1.39212 7.96735 1.4962 7.97756 1.5908 8.01658C1.6854 8.0556 1.76625 8.12167 1.82313 8.20645C1.88002 8.29123 1.91038 8.39091 1.91038 8.49287C1.91013 8.62952 1.85551 8.76051 1.75848 8.85713C1.66145 8.95376 1.52991 9.00816 1.39269 9.0084ZM3.07283 4.23644C3.56927 3.53052 4.2005 2.92891 4.93046 2.46598C5.66042 2.00304 6.47482 1.68784 7.32712 1.53839C8.17943 1.38894 9.05295 1.40815 9.8978 1.59495C10.7426 1.78174 11.5423 2.13245 12.251 2.62704C12.284 2.87514 12.3673 3.11397 12.4957 3.3291L10.7789 5.0388C10.2223 4.60852 9.55572 4.34238 8.85483 4.27066C8.15395 4.19894 7.44692 4.32451 6.81414 4.63309C6.18136 4.94166 5.64823 5.42086 5.27537 6.0162C4.90251 6.61154 4.70488 7.29913 4.70496 8.00077H2.74245C2.67506 7.81209 2.5681 7.63987 2.4287 7.49555C2.28929 7.35122 2.12062 7.23811 1.93391 7.16373C2.0701 6.11057 2.46092 5.10606 3.07283 4.23644ZM11.417 8.0242C11.417 8.58963 11.2487 9.14237 10.9332 9.6125C10.6178 10.0826 10.1694 10.4491 9.64483 10.6655C9.12026 10.8818 8.54303 10.9384 7.98614 10.8281C7.42926 10.7178 6.91773 10.4455 6.51624 10.0457C6.11474 9.64591 5.84133 9.13651 5.73056 8.58194C5.61978 8.02738 5.67663 7.45255 5.89392 6.93016C6.1112 6.40777 6.47917 5.96128 6.95127 5.64715C7.42338 5.33301 7.97842 5.16534 8.54621 5.16534C9.30737 5.16608 10.0371 5.46752 10.5754 6.0035C11.1136 6.53948 11.4163 7.26621 11.417 8.0242ZM12.2519 13.3745C11.3839 13.9816 10.3816 14.371 9.33002 14.5097C8.27849 14.6484 7.20889 14.5322 6.21211 14.171C5.21533 13.8098 4.32085 13.2144 3.6047 12.4352C2.88854 11.656 2.37188 10.7161 2.09863 9.69547C2.39646 9.52783 2.62368 9.25896 2.73868 8.9381H4.82826C4.98411 9.53984 5.28771 10.0936 5.71175 10.5495C6.1358 11.0054 6.66699 11.3492 7.25755 11.55C7.84812 11.7508 8.47954 11.8022 9.09502 11.6997C9.7105 11.5972 10.2907 11.344 10.7836 10.9627L12.3771 12.5496C12.253 12.8058 12.2094 13.0933 12.2519 13.3745ZM13.676 13.6951C13.5737 13.6951 13.4736 13.6648 13.3884 13.6082C13.3033 13.5515 13.2369 13.471 13.1978 13.3768C13.1586 13.2826 13.1483 13.179 13.1683 13.079C13.1883 12.979 13.2376 12.8871 13.31 12.815C13.3824 12.7429 13.4746 12.6938 13.575 12.6739C13.6755 12.654 13.7796 12.6642 13.8742 12.7032C13.9687 12.7423 14.0496 12.8083 14.1065 12.8931C14.1634 12.9779 14.1937 13.0776 14.1937 13.1795C14.1935 13.3162 14.1389 13.4472 14.0418 13.5438C13.9448 13.6404 13.8133 13.6948 13.676 13.6951ZM13.8643 11.767C13.5824 11.7227 13.2936 11.7645 13.036 11.887L11.4425 10.3001C11.9552 9.64236 12.2335 8.83341 12.2335 8.00077C12.2335 7.16813 11.9552 6.35918 11.4425 5.70149L13.1593 3.9918C13.3755 4.11923 13.6153 4.20181 13.8643 4.23457C14.6411 5.33812 15.0578 6.6531 15.0578 8.00077C15.0578 9.34844 14.6411 10.6634 13.8643 11.767Z" fill="" fill-opacity=""/>
</svg>
