<svg width="16" height="16" viewBox="0 0 16 16" fill="" xmlns="http://www.w3.org/2000/svg">
<path d="M8 0L8.17778 0.000864802C8.81509 0.0056835 9.45175 0.0417654 10.0853 0.108973L10.3884 0.143568L10.7093 0.186811L11.0244 0.235676L11.1822 0.262486L11.4924 0.32C14.1009 0.833297 15.9284 1.93124 15.9978 3.37427L16 3.45946V12.5405C16 14.0255 14.152 15.1568 11.4924 15.68L11.1822 15.7375L11.0244 15.7643L10.7093 15.8128L10.3884 15.856C9.63289 15.9503 8.83067 16 8 16C7.16933 16 6.36711 15.9503 5.61156 15.856L5.29067 15.8128L4.97556 15.7643C2.11956 15.2943 0.0742221 14.1531 0.00222206 12.6244L0 12.5405V3.45946L0.00222206 3.37427C0.0715554 1.93124 1.89911 0.833297 4.50756 0.32L4.81778 0.262486L4.97556 0.235676L5.29067 0.187243L5.61156 0.144C6.28647 0.0608242 6.96556 0.0137624 7.64578 0.00302696L8 0ZM11.0244 11.0076L10.7093 11.056L10.3884 11.0992C9.63289 11.1935 8.83067 11.2432 8 11.2432C7.16933 11.2432 6.36711 11.1935 5.61156 11.0992L5.29067 11.056L4.97556 11.0076C3.48622 10.7624 2.21689 10.3347 1.33333 9.76476V12.5405C1.33333 12.9652 1.83689 13.4076 2.68889 13.7808L2.892 13.8655C3.20533 13.9909 3.55867 14.1072 3.94622 14.2106L4.20978 14.2776C4.47778 14.3425 4.76089 14.4022 5.05556 14.4541L5.35511 14.5038L5.66222 14.5483C5.86978 14.5764 6.08222 14.6011 6.29911 14.6218L6.62756 14.6504L6.96222 14.6729L7.30311 14.6893C7.76752 14.7072 8.23248 14.7072 8.69689 14.6893L9.03778 14.6729L9.37244 14.6504L9.70133 14.6218C9.91778 14.6011 10.1302 14.5764 10.3378 14.5483L10.6449 14.5038L10.9444 14.4541C11.2396 14.4022 11.5222 14.3429 11.7902 14.2776L12.0538 14.2106C12.4413 14.1068 12.7947 13.9909 13.108 13.8655L13.3111 13.7808C14.1302 13.4218 14.6276 12.9994 14.6644 12.5894L14.6667 12.5405V9.76433C13.7836 10.3347 12.5142 10.7624 11.0244 11.0076ZM14.6667 5.44C13.8271 5.98184 12.64 6.39481 11.2458 6.64519L11.0236 6.68324L10.7089 6.73168L10.388 6.77492C9.63244 6.86919 8.83022 6.91892 7.99956 6.91892C7.28756 6.91892 6.59644 6.88259 5.93733 6.81254L5.61111 6.77492L5.29022 6.73168L4.97511 6.68324C3.48578 6.43805 2.21644 6.01038 1.33289 5.44043V7.78378C1.33289 8.20843 1.83644 8.65081 2.68844 9.024L2.89156 9.10876C3.20489 9.23416 3.55822 9.35049 3.94578 9.45384L4.20933 9.52087C4.47733 9.58573 4.76044 9.64541 5.05511 9.6973L5.35467 9.74703L5.66178 9.79157C5.86933 9.81968 6.08178 9.84432 6.29867 9.86508L6.62711 9.89362L6.96178 9.91611L7.30267 9.93254C7.76708 9.95042 8.23203 9.95042 8.69644 9.93254L9.03733 9.91611L9.372 9.89362L9.70089 9.86508C9.91733 9.84432 10.1298 9.81968 10.3373 9.79157L10.6444 9.74703L10.944 9.6973C11.2391 9.64541 11.5218 9.58616 11.7898 9.52087L12.0533 9.45384C12.4409 9.35005 12.7942 9.23416 13.1076 9.10876L13.3107 9.024C14.1298 8.66508 14.6271 8.24259 14.664 7.83265L14.6662 7.78378V5.44H14.6667ZM8 1.2973L7.824 1.29816L7.56178 1.30249L7.30311 1.3107L6.96222 1.32714L6.62756 1.34962L6.29867 1.37816C6.15422 1.392 6.012 1.40757 5.87156 1.42487L5.66267 1.45168L5.35511 1.49622L5.05556 1.54595C4.83422 1.58486 4.62 1.62811 4.41333 1.67438L4.20978 1.72195L3.94622 1.78941C3.62356 1.87589 3.324 1.97103 3.052 2.07265L2.892 2.13449L2.68889 2.21924C1.83689 2.59243 1.33333 3.03481 1.33333 3.45946C1.33333 3.86595 1.79422 4.288 2.58 4.65081L2.68889 4.69968L2.892 4.78443C3.15289 4.88908 3.44178 4.98724 3.75556 5.07676L3.94667 5.12951L4.20978 5.19654C4.41067 5.24541 4.62 5.29081 4.83644 5.33276L5.05556 5.37297L5.35511 5.4227L5.66222 5.46724C5.80045 5.48627 5.94089 5.50314 6.08356 5.51914L6.29911 5.54076L6.62756 5.5693L6.96222 5.59178L7.30311 5.60822C7.69092 5.62314 8.07913 5.62559 8.46711 5.61557L8.69689 5.60822L9.03778 5.59178L9.37244 5.5693L9.70133 5.54076C9.84578 5.52692 9.988 5.51135 10.1284 5.49405L10.3373 5.46724L10.6449 5.4227L10.9444 5.37297C11.1658 5.33405 11.38 5.29081 11.5867 5.24454L11.7902 5.19697L12.0538 5.12951C12.3764 5.04303 12.676 4.94789 12.948 4.84627L13.108 4.78443L13.3111 4.69968C14.1631 4.32649 14.6667 3.88411 14.6667 3.45946C14.6667 3.05297 14.2058 2.63092 13.42 2.26811L13.3111 2.21924L13.108 2.13449C12.8255 2.02262 12.5373 1.92505 12.2444 1.84216L12.0533 1.78941L11.7902 1.72238C11.5825 1.67196 11.3736 1.62654 11.1636 1.58616L10.9444 1.54595L10.6449 1.49622L10.3378 1.45168C10.1976 1.43256 10.0571 1.41526 9.91644 1.39978L9.70089 1.37816L9.37244 1.34962L9.03778 1.32714L8.69689 1.3107C8.54444 1.30465 8.39022 1.30076 8.23467 1.29859L8 1.2973Z" fill="" fill-opacity=""/>
</svg>
