<svg width="20" height="20" viewBox="0 0 20 20" fill="none" xmlns="http://www.w3.org/2000/svg">
<rect width="20" height="20" rx="2" fill="#016EFF"/>
<path d="M9.90156 12.3242C9.91326 12.3392 9.92819 12.3512 9.94525 12.3596C9.96231 12.3679 9.98103 12.3722 10 12.3722C10.019 12.3722 10.0377 12.3679 10.0547 12.3596C10.0718 12.3512 10.0867 12.3392 10.0984 12.3242L11.8484 10.1102C11.9125 10.0289 11.8547 9.90859 11.75 9.90859H10.5922V4.62109C10.5922 4.55234 10.5359 4.49609 10.4672 4.49609H9.52969C9.46094 4.49609 9.40469 4.55234 9.40469 4.62109V9.90703H8.25C8.14531 9.90703 8.0875 10.0273 8.15156 10.1086L9.90156 12.3242ZM15.7188 11.7773H14.7812C14.7125 11.7773 14.6562 11.8336 14.6562 11.9023V14.3086H5.34375V11.9023C5.34375 11.8336 5.2875 11.7773 5.21875 11.7773H4.28125C4.2125 11.7773 4.15625 11.8336 4.15625 11.9023V14.9961C4.15625 15.2727 4.37969 15.4961 4.65625 15.4961H15.3438C15.6203 15.4961 15.8438 15.2727 15.8438 14.9961V11.9023C15.8438 11.8336 15.7875 11.7773 15.7188 11.7773Z" fill="white"/>
</svg>
