<svg width="16" height="16" viewBox="0 0 16 16" fill="" xmlns="http://www.w3.org/2000/svg">
<path d="M8.00005 10.0445C9.27505 10.0445 10.4625 9.38359 11.586 7.99922C10.461 6.61484 9.27505 5.95391 8.00005 5.95391C6.72505 5.95391 5.53755 6.61484 4.41411 7.99922C5.53755 9.38359 6.72505 10.0445 8.00005 10.0445ZM8.00005 11.018C6.35474 11.018 4.85317 10.1805 3.49224 8.50703C3.25161 8.21172 3.25161 7.78828 3.49224 7.49297C4.85317 5.81797 6.35474 4.98047 8.00005 4.98047C9.64536 4.98047 11.1469 5.81797 12.5079 7.49141C12.7485 7.78672 12.7485 8.21016 12.5079 8.50547C11.1469 10.1805 9.64536 11.018 8.00005 11.018Z" fill=""/>
<path d="M8.00002 8.43828C8.24221 8.43828 8.43752 8.24297 8.43752 8.00078C8.43752 7.76016 8.24221 7.56328 8.00002 7.56328C7.75784 7.56328 7.56252 7.75859 7.56252 8.00078C7.56252 8.24141 7.75784 8.43828 8.00002 8.43828ZM8.00002 9.56172C7.44221 9.56172 6.92659 9.26484 6.6469 8.78203C6.36721 8.29922 6.36721 7.70391 6.6469 7.22109C6.92659 6.73828 7.44221 6.44141 8.00002 6.44141C8.86252 6.44141 9.56252 7.13984 9.56252 8.00234C9.56252 8.86328 8.86252 9.56172 8.00002 9.56172Z" fill=""/>
<path d="M2.125 13.875V11.6406C2.125 11.3297 1.87344 11.0781 1.5625 11.0781C1.25156 11.0781 1 11.3297 1 11.6406V14.0625C1 14.5797 1.42031 15 1.9375 15H4.35938C4.67031 15 4.92188 14.7484 4.92188 14.4375C4.92188 14.1266 4.67031 13.875 4.35938 13.875H2.125ZM2.125 2.125H4.35938C4.67031 2.125 4.92188 1.87344 4.92188 1.5625C4.92188 1.25156 4.67031 1 4.35938 1H1.9375C1.42031 1 1 1.42031 1 1.9375V4.35938C1 4.67031 1.25156 4.92188 1.5625 4.92188C1.87344 4.92188 2.125 4.67031 2.125 4.35938V2.125ZM13.875 2.125V4.35938C13.875 4.67031 14.1266 4.92188 14.4375 4.92188C14.7484 4.92188 15 4.67031 15 4.35938V1.9375C15 1.42031 14.5797 1 14.0625 1H11.6406C11.3297 1 11.0781 1.25156 11.0781 1.5625C11.0781 1.87344 11.3297 2.125 11.6406 2.125H13.875ZM13.875 13.875H11.6406C11.3297 13.875 11.0781 14.1266 11.0781 14.4375C11.0781 14.7484 11.3297 15 11.6406 15H14.0625C14.5797 15 15 14.5797 15 14.0625V11.6406C15 11.3297 14.7484 11.0781 14.4375 11.0781C14.1266 11.0781 13.875 11.3297 13.875 11.6406V13.875Z" fill=""/>
</svg>
