<svg width="16" height="16" viewBox="0 0 16 16" fill="" xmlns="http://www.w3.org/2000/svg">
<path fill-rule="evenodd" clip-rule="evenodd" d="M5.33333 2.70653C5.33333 1.98491 5.8949 1.33398 6.66667 1.33398H9.33333C10.1051 1.33398 10.6667 1.98491 10.6667 2.70653V3.41242C10.6667 3.42551 10.6665 3.43859 10.6661 3.45163H13.3333C13.7015 3.45163 14 3.75011 14 4.1183C14 4.48649 13.7015 4.78496 13.3333 4.78496H12.6661C12.6665 4.79801 12.6667 4.81108 12.6667 4.82418V12.5889C12.6667 13.7004 11.8066 14.6673 10.6667 14.6673H5.33333C4.19338 14.6673 3.33333 13.7004 3.33333 12.5889V4.82418C3.33333 4.81108 3.33352 4.79801 3.33389 4.78496H2.66667C2.29848 4.78496 2 4.48649 2 4.1183C2 3.75011 2.29848 3.45163 2.66667 3.45163H5.33389C5.33352 3.43859 5.33333 3.42551 5.33333 3.41242V2.70653ZM4.67808 4.78496C4.67321 4.79118 4.66667 4.80379 4.66667 4.82418V12.5889C4.66667 13.0368 5.00053 13.334 5.33333 13.334H10.6667C10.9995 13.334 11.3333 13.0368 11.3333 12.5889V4.82418C11.3333 4.80379 11.3268 4.79118 11.3219 4.78496H4.67808ZM6.67808 2.66732C6.67321 2.67353 6.66667 2.68614 6.66667 2.70653V3.41242C6.66667 3.43281 6.67321 3.44542 6.67808 3.45163H9.32192C9.32679 3.44542 9.33333 3.43281 9.33333 3.41242V2.70653C9.33333 2.68614 9.32679 2.67353 9.32192 2.66732H6.67808ZM6.66667 6.27516C7.03486 6.27516 7.33333 6.57364 7.33333 6.94183V11.1771C7.33333 11.5453 7.03486 11.8438 6.66667 11.8438C6.29848 11.8438 6 11.5453 6 11.1771V6.94183C6 6.57364 6.29848 6.27516 6.66667 6.27516ZM9.33333 6.27516C9.70152 6.27516 10 6.57364 10 6.94183V11.1771C10 11.5453 9.70152 11.8438 9.33333 11.8438C8.96514 11.8438 8.66667 11.5453 8.66667 11.1771V6.94183C8.66667 6.57364 8.96514 6.27516 9.33333 6.27516Z" fill=""/>
</svg>
