<svg width="16" height="16" viewBox="0 0 16 16" fill="" xmlns="http://www.w3.org/2000/svg">
<path d="M11.1818 8.9124C11.6311 8.91229 12.0717 9.03618 12.4551 9.27041C12.8385 9.50465 13.1499 9.84015 13.3548 10.24C13.5598 10.6398 13.6504 11.0884 13.6168 11.5365C13.5831 11.9845 13.4265 12.4145 13.1641 12.7793L14.5438 14.1707C14.6285 14.2574 14.6778 14.3725 14.6823 14.4935C14.6869 14.6146 14.6462 14.733 14.5683 14.8258C14.4904 14.9185 14.3808 14.979 14.2608 14.9955C14.1407 15.0119 14.0189 14.9832 13.9189 14.9148L13.8505 14.8582L12.4464 13.4423C12.1242 13.6369 11.7613 13.7543 11.3862 13.7855C11.011 13.8166 10.6338 13.7605 10.2839 13.6217C9.93405 13.4829 9.62101 13.265 9.36929 12.9851C9.11757 12.7053 8.93398 12.371 8.83286 12.0084C8.73174 11.6458 8.71584 11.2648 8.7864 10.895C8.85696 10.5253 9.01207 10.1769 9.2396 9.87699C9.46714 9.57712 9.76093 9.33394 10.098 9.16644C10.4351 8.99894 10.8064 8.91166 11.1828 8.91143L11.1818 8.9124ZM13.4375 2.56627C13.7022 2.56614 13.9576 2.66373 14.1547 2.84033C14.3519 3.01694 14.4769 3.26012 14.5058 3.52322L14.5126 3.6404V9.3899C14.514 9.53804 14.4593 9.68122 14.3594 9.79062C14.2595 9.90002 14.1219 9.96751 13.9742 9.97952C13.8266 9.99153 13.6798 9.94715 13.5636 9.85532C13.4473 9.7635 13.3702 9.63104 13.3477 9.48462L13.3408 9.3899V3.73804H5.15207V13.6864H8.6088C8.74759 13.6867 8.88177 13.7362 8.98746 13.8261C9.09314 13.9161 9.16347 14.0406 9.1859 14.1776L9.19372 14.2723C9.19373 14.4111 9.14446 14.5454 9.05469 14.6513C8.96491 14.7571 8.84047 14.8277 8.70352 14.8504L8.60783 14.8582H5.05442C4.78991 14.8581 4.53474 14.7604 4.33779 14.5838C4.14085 14.4072 4.01599 14.1642 3.98713 13.9012L3.9803 13.7841V3.6404C3.98016 3.37571 4.07776 3.1203 4.25436 2.92315C4.43097 2.72601 4.67414 2.601 4.93725 2.57213L5.05442 2.56627H13.4385H13.4375ZM11.217 9.93868C11.0246 9.93868 10.8342 9.97657 10.6565 10.0502C10.4787 10.1238 10.3173 10.2317 10.1813 10.3677C10.0453 10.5037 9.93736 10.6652 9.86376 10.8429C9.79015 11.0206 9.75226 11.211 9.75226 11.4034C9.75226 11.5957 9.79015 11.7862 9.86376 11.9639C9.93736 12.1416 10.0453 12.3031 10.1813 12.4391C10.3173 12.5751 10.4787 12.683 10.6565 12.7566C10.8342 12.8302 11.0246 12.8681 11.217 12.8681C11.6054 12.8681 11.978 12.7138 12.2527 12.4391C12.5274 12.1644 12.6817 11.7919 12.6817 11.4034C12.6817 11.0149 12.5274 10.6424 12.2527 10.3677C11.978 10.093 11.6054 9.93868 11.217 9.93868ZM9.46615 1C9.61329 0.999915 9.75507 1.05519 9.86332 1.15485C9.97156 1.2545 10.0384 1.39124 10.0504 1.53788C10.0625 1.68452 10.0189 1.83033 9.92839 1.94633C9.83787 2.06232 9.70702 2.14002 9.56185 2.16396L9.46615 2.17177H3.17177V9.40162C3.17175 9.54057 3.12234 9.67498 3.03237 9.78087C2.9424 9.88676 2.81773 9.95723 2.68061 9.97969L2.58589 9.9875C2.44677 9.98771 2.31212 9.93841 2.20603 9.84842C2.09993 9.75843 2.02933 9.63362 2.00684 9.49634L2 9.40162V2.07413C2.0001 1.80961 2.09781 1.55444 2.27439 1.3575C2.45097 1.16055 2.69401 1.03569 2.95695 1.00684L3.07413 1H9.46615ZM9.79815 7.46721C9.94529 7.46713 10.0871 7.52241 10.1953 7.62206C10.3036 7.72172 10.3704 7.85845 10.3824 8.00509C10.3945 8.15173 10.3509 8.29754 10.2604 8.41354C10.1699 8.52954 10.039 8.60723 9.89385 8.63118L9.79913 8.63899H6.57285C6.4258 8.63883 6.28418 8.58338 6.17612 8.48364C6.06806 8.38391 6.00145 8.24719 5.98953 8.10062C5.9776 7.95405 6.02122 7.80836 6.11174 7.69247C6.20225 7.57658 6.33304 7.49896 6.47813 7.47503L6.57285 7.46721H9.79913H9.79815ZM11.9025 5.16761C12.0496 5.16752 12.1914 5.2228 12.2996 5.32246C12.4079 5.42211 12.4747 5.55885 12.4867 5.70549C12.4988 5.85213 12.4552 5.99794 12.3647 6.11393C12.2742 6.22993 12.1433 6.30762 11.9982 6.33157L11.9025 6.33938H6.57285C6.4258 6.33922 6.28418 6.28377 6.17612 6.18404C6.06806 6.0843 6.00145 5.94758 5.98953 5.80102C5.9776 5.65445 6.02122 5.50876 6.11174 5.39286C6.20225 5.27697 6.33304 5.19935 6.47813 5.17542L6.57285 5.16761H11.9025Z" fill=""/>
</svg>
