<svg width="16" height="16" viewBox="0 0 16 16" fill="" xmlns="http://www.w3.org/2000/svg">
<path fill-rule="evenodd" clip-rule="evenodd" d="M8 2C8.36819 2 8.66667 2.29848 8.66667 2.66667V7.66667C8.66667 8.03486 8.36819 8.33333 8 8.33333C7.63181 8.33333 7.33333 8.03486 7.33333 7.66667V2.66667C7.33333 2.29848 7.63181 2 8 2ZM4.97206 3.55884C5.2157 3.83489 5.18944 4.25618 4.91339 4.49983C3.94346 5.3559 3.33333 6.60629 3.33333 8C3.33333 10.5773 5.42267 12.6667 8 12.6667C10.5773 12.6667 12.6667 10.5773 12.6667 8C12.6667 6.60629 12.0565 5.3559 11.0866 4.49983C10.8106 4.25618 10.7843 3.83489 11.0279 3.55884C11.2716 3.2828 11.6929 3.25653 11.9689 3.50017C13.2134 4.59862 14 6.20787 14 8C14 11.3137 11.3137 14 8 14C4.68629 14 2 11.3137 2 8C2 6.20787 2.78655 4.59862 4.03108 3.50017C4.30713 3.25653 4.72842 3.2828 4.97206 3.55884Z" fill=""/>
</svg>
