<svg width="16" height="16" viewBox="0 0 16 16" fill="" xmlns="http://www.w3.org/2000/svg">
<path d="M5.40003 7.46311H4.02303C3.88397 7.47493 3.75441 7.53851 3.65999 7.64129C3.56558 7.74407 3.51319 7.87855 3.51319 8.01811C3.51319 8.15767 3.56558 8.29215 3.65999 8.39493C3.75441 8.4977 3.88397 8.56129 4.02303 8.57311H5.40003C5.47687 8.57964 5.55424 8.57014 5.62722 8.54521C5.7002 8.52029 5.76721 8.48048 5.824 8.4283C5.8808 8.37613 5.92614 8.31273 5.95716 8.24212C5.98817 8.17151 6.00419 8.09523 6.00419 8.01811C6.00419 7.94099 5.98817 7.86471 5.95716 7.7941C5.92614 7.72349 5.8808 7.66009 5.824 7.60792C5.76721 7.55574 5.7002 7.51593 5.62722 7.49101C5.55424 7.46608 5.47687 7.45658 5.40003 7.46311ZM9.76303 5.59311C9.76342 5.52024 9.74941 5.448 9.7218 5.38056C9.69418 5.31312 9.65351 5.25181 9.60212 5.20014C9.55073 5.14847 9.48964 5.10747 9.42235 5.07949C9.35506 5.05151 9.2829 5.03711 9.21003 5.03711H4.02303C3.87952 5.04319 3.7439 5.10449 3.64451 5.20818C3.54512 5.31188 3.48962 5.44997 3.48962 5.59361C3.48962 5.73725 3.54512 5.87534 3.64451 5.97903C3.7439 6.08273 3.87952 6.14402 4.02303 6.15011H9.21003C9.28299 6.15011 9.35523 6.13568 9.42258 6.10764C9.48994 6.07959 9.55108 6.0385 9.60248 5.98673C9.65388 5.93495 9.69453 5.87352 9.72209 5.80596C9.74964 5.73841 9.76356 5.66607 9.76303 5.59311Z" fill=""/>
<path d="M4.96301 13.556H2.44301V2.44203H11.333V4.84903C11.3265 4.92588 11.336 5.00324 11.3609 5.07622C11.3858 5.1492 11.4256 5.21621 11.4778 5.27301C11.53 5.3298 11.5934 5.37514 11.664 5.40616C11.7346 5.43718 11.8109 5.45319 11.888 5.45319C11.9651 5.45319 12.0414 5.43718 12.112 5.40616C12.1826 5.37514 12.246 5.3298 12.2982 5.27301C12.3504 5.21621 12.3902 5.1492 12.4151 5.07622C12.44 5.00324 12.4495 4.92588 12.443 4.84903V1.88903C12.4437 1.81604 12.4298 1.74364 12.4023 1.67602C12.3748 1.60841 12.3342 1.54692 12.2828 1.49512C12.2313 1.44332 12.1701 1.40223 12.1027 1.37423C12.0353 1.34624 11.963 1.3319 11.89 1.33203H1.89001C1.74228 1.33203 1.60061 1.39072 1.49615 1.49517C1.39169 1.59963 1.33301 1.74131 1.33301 1.88903V14.109C1.33301 14.2568 1.39169 14.3984 1.49615 14.5029C1.60061 14.6073 1.74228 14.666 1.89001 14.666H4.96301C5.10207 14.6542 5.23163 14.5906 5.32604 14.4878C5.42046 14.3851 5.47285 14.2506 5.47285 14.111C5.47285 13.9715 5.42046 13.837 5.32604 13.7342C5.23163 13.6314 5.10207 13.5678 4.96301 13.556Z" fill=""/>
<path d="M6.227 11.0484C6.21806 11.0271 6.21006 11.0054 6.203 10.9834C6.213 10.9374 6.246 10.7974 6.35 10.5834C6.472 10.3334 6.669 10.0304 6.962 9.73739C7.536 9.16239 8.508 8.60039 10.1 8.60039C11.691 8.60039 12.664 9.16239 13.238 9.73739C13.531 10.0304 13.728 10.3334 13.85 10.5834C13.954 10.7974 13.987 10.9374 13.997 10.9834C13.9466 11.1166 13.8833 11.2445 13.808 11.3654C13.648 11.6244 13.403 11.9404 13.07 12.2454C12.2633 12.9946 11.201 13.4077 10.1 13.4004C8.99902 13.4077 7.93675 12.9946 7.13 12.2454C6.84523 11.9869 6.59695 11.6908 6.392 11.3654C6.32847 11.2644 6.27329 11.1584 6.227 11.0484ZM10.1 7.40039C8.192 7.40039 6.914 8.08839 6.113 8.88839C5.719 9.28339 5.447 9.69839 5.272 10.0584C5.107 10.3954 5 10.7424 5 11.0004C5 11.1804 5.059 11.3604 5.114 11.4974C5.176 11.6504 5.262 11.8194 5.37 11.9944C5.586 12.3444 5.903 12.7484 6.32 13.1304C7.34793 14.0821 8.69915 14.6076 10.1 14.6004C11.78 14.6004 13.043 13.8974 13.88 13.1304C14.297 12.7484 14.614 12.3454 14.83 11.9944C14.937 11.8194 15.024 11.6504 15.086 11.4974C15.141 11.3614 15.2 11.1804 15.2 11.0004C15.2 10.7424 15.093 10.3954 14.929 10.0574C14.7146 9.62403 14.4301 9.22905 14.087 8.88839C13.287 8.08839 12.008 7.40039 10.1 7.40039ZM10.1 13.0004C10.6304 13.0004 11.1391 12.7897 11.5142 12.4146C11.8893 12.0395 12.1 11.5308 12.1 11.0004C12.1 10.47 11.8893 9.96125 11.5142 9.58618C11.1391 9.2111 10.6304 9.00039 10.1 9.00039C9.56957 9.00039 9.06086 9.2111 8.68579 9.58618C8.31071 9.96125 8.1 10.47 8.1 11.0004C8.1 11.5308 8.31071 12.0395 8.68579 12.4146C9.06086 12.7897 9.56957 13.0004 10.1 13.0004ZM11.1 11.0004C11.1 11.2656 10.9946 11.52 10.8071 11.7075C10.6196 11.895 10.3652 12.0004 10.1 12.0004C9.83478 12.0004 9.58043 11.895 9.39289 11.7075C9.20536 11.52 9.1 11.2656 9.1 11.0004C9.1 10.7352 9.20536 10.4808 9.39289 10.2933C9.58043 10.1057 9.83478 10.0004 10.1 10.0004C10.3652 10.0004 10.6196 10.1057 10.8071 10.2933C10.9946 10.4808 11.1 10.7352 11.1 11.0004Z" fill=""/>
</svg>
