<svg width="14" height="14" viewBox="0 0 14 14" fill="" xmlns="http://www.w3.org/2000/svg">
<g clip-path="url(#clip0_3958_52419)">
<path d="M6.53438 6.94375L4.17656 5.07813C4.12969 5.04063 4.0625 5.075 4.0625 5.13438V6.46875H1.875V1.875H5.0625V3.875C5.0625 3.90938 5.09063 3.9375 5.125 3.9375H6.0625C6.09688 3.9375 6.125 3.90938 6.125 3.875V1.25C6.125 1.00781 5.92969 0.8125 5.6875 0.8125H1.25C1.00781 0.8125 0.8125 1.00781 0.8125 1.25V12.75C0.8125 12.9922 1.00781 13.1875 1.25 13.1875H5.6875C5.92969 13.1875 6.125 12.9922 6.125 12.75V10.125C6.125 10.0906 6.09688 10.0625 6.0625 10.0625H5.125C5.09063 10.0625 5.0625 10.0906 5.0625 10.125V12.125H1.875V7.53125H4.0625V8.86563C4.0625 8.925 4.13125 8.95938 4.17656 8.92188L6.53438 7.05625C6.54311 7.0497 6.5502 7.04121 6.55508 7.03145C6.55996 7.02168 6.5625 7.01092 6.5625 7C6.5625 6.98909 6.55996 6.97832 6.55508 6.96856C6.5502 6.95879 6.54311 6.9503 6.53438 6.94375ZM12.75 0.8125H8.3125C8.07031 0.8125 7.875 1.00781 7.875 1.25V3.875C7.875 3.90938 7.90313 3.9375 7.9375 3.9375H8.875C8.90938 3.9375 8.9375 3.90938 8.9375 3.875V1.875H12.125V6.46875H9.9375V5.13438C9.9375 5.075 9.87031 5.04063 9.82344 5.07813L7.46406 6.94375C7.45568 6.95036 7.4489 6.95879 7.44424 6.96839C7.43958 6.978 7.43715 6.98854 7.43715 6.99922C7.43715 7.0099 7.43958 7.02044 7.44424 7.03005C7.4489 7.03965 7.45568 7.04808 7.46406 7.05469L9.82344 8.92188C9.86875 8.95781 9.9375 8.925 9.9375 8.86563V7.53125H12.125V12.125H8.9375V10.125C8.9375 10.0906 8.90938 10.0625 8.875 10.0625H7.9375C7.90313 10.0625 7.875 10.0906 7.875 10.125V12.75C7.875 12.9922 8.07031 13.1875 8.3125 13.1875H12.75C12.9922 13.1875 13.1875 12.9922 13.1875 12.75V1.25C13.1875 1.00781 12.9922 0.8125 12.75 0.8125Z" fill="" fill-opacity=""/>
</g>
<defs>
<clipPath id="clip0_3958_52419">
<rect width="14" height="14" fill=""/>
</clipPath>
</defs>
</svg>
