<svg width="16" height="16" viewBox="0 0 16 16" fill="" xmlns="http://www.w3.org/2000/svg">
<path fill-rule="evenodd" clip-rule="evenodd" d="M8.83666 2.674C9.40915 2.10119 10.3376 2.1008 10.9105 2.67313L12.2908 4.05185C12.864 4.62441 12.8644 5.55329 12.2917 6.12633L5.7759 12.6457C5.57162 12.8501 5.31151 12.9896 5.02823 13.0467L2.11757 13.6331C1.89866 13.6772 1.67221 13.6088 1.51435 13.4509C1.35649 13.2929 1.2882 13.0664 1.33244 12.8475L1.91997 9.94031C1.9771 9.65761 2.11632 9.39803 2.3202 9.19404L8.83666 2.674ZM9.96826 3.61647C9.91617 3.56444 9.83177 3.56448 9.77973 3.61655L3.26327 10.1366C3.24473 10.1551 3.23208 10.1787 3.22688 10.2044L2.83818 12.1278L4.76487 11.7396C4.79062 11.7344 4.81426 11.7217 4.83283 11.7031L11.3486 5.18378C11.4007 5.13169 11.4007 5.04724 11.3485 4.99519L9.96826 3.61647ZM10.4759 12.8089C10.2238 12.4125 9.66269 12.3669 9.34994 12.7175L8.85509 13.2721C8.60996 13.5468 8.18854 13.5708 7.91381 13.3257C7.63908 13.0806 7.61508 12.6591 7.86021 12.3844L8.35505 11.8298C9.25665 10.8193 10.8742 10.9507 11.601 12.0934C11.8358 12.4626 12.3461 12.5326 12.6717 12.2402L13.5687 11.4349C13.8426 11.1889 14.2641 11.2116 14.5101 11.4856C14.7561 11.7595 14.7334 12.181 14.4594 12.427L13.5625 13.2324C12.6238 14.0752 11.153 13.8734 10.4759 12.8089Z" fill=""/>
</svg>
