<svg width="16" height="16" viewBox="0 0 16 16" fill="" xmlns="http://www.w3.org/2000/svg">
<path d="M12.477 11.0611V9.85912C12.4778 9.76628 12.4419 9.67688 12.3771 9.61039C12.3123 9.5439 12.2239 9.5057 12.131 9.50413C11.914 9.50413 11.754 9.68413 11.754 9.90113V11.5521C11.754 11.6801 11.859 11.7861 11.987 11.7861H13.293C13.342 11.7867 13.3906 11.7774 13.4359 11.7589C13.4812 11.7404 13.5224 11.713 13.5569 11.6783C13.5915 11.6436 13.6188 11.6024 13.6372 11.557C13.6556 11.5117 13.6647 11.4631 13.664 11.4141C13.658 11.2001 13.482 11.0621 13.267 11.0621H12.477V11.0611ZM4.62704 9.19912C4.56629 9.19915 4.50622 9.21183 4.45065 9.23638C4.39508 9.26092 4.34524 9.29678 4.30431 9.34166C4.26338 9.38655 4.23225 9.43947 4.21292 9.49706C4.19359 9.55465 4.18648 9.61563 4.19204 9.67613C4.21204 9.90312 4.41004 10.0731 4.64004 10.0731H6.87404C7.10104 10.0731 7.29904 9.90312 7.32204 9.67613C7.32761 9.61555 7.32047 9.55448 7.30108 9.49682C7.28169 9.43917 7.25047 9.38619 7.20943 9.34129C7.16839 9.29639 7.11843 9.26056 7.06274 9.23607C7.00705 9.21159 6.94687 9.19901 6.88604 9.19912H4.62704ZM4.62704 5.57912H9.46204C9.52067 5.57928 9.57873 5.56767 9.63278 5.54497C9.68684 5.52227 9.73579 5.48895 9.77673 5.44698C9.81766 5.40502 9.84976 5.35526 9.87112 5.30066C9.89247 5.24606 9.90265 5.18773 9.90104 5.12913C9.89444 5.0145 9.84446 4.90668 9.76126 4.82756C9.67805 4.74844 9.56785 4.70395 9.45304 4.70312H4.63704C4.5239 4.704 4.41519 4.74717 4.33228 4.82416C4.24938 4.90114 4.19828 5.00636 4.18904 5.11912C4.18631 5.18045 4.19627 5.24168 4.21829 5.29898C4.24032 5.35628 4.27394 5.40842 4.31704 5.45213C4.40004 5.53213 4.50904 5.58012 4.62704 5.58012V5.57912ZM8.40004 7.34713C8.39951 7.23112 8.3532 7.12002 8.27117 7.03799C8.18914 6.95597 8.07804 6.90965 7.96204 6.90912H4.63704C4.52669 6.9078 4.41985 6.94781 4.3375 7.02127C4.25515 7.09473 4.20327 7.19634 4.19204 7.30613C4.18691 7.36672 4.19444 7.42773 4.21413 7.48527C4.23382 7.54281 4.26525 7.59563 4.30643 7.64038C4.34761 7.68514 4.39764 7.72084 4.45335 7.74524C4.50905 7.76964 4.56922 7.7822 4.63004 7.78212H7.96504C8.02235 7.7828 8.07922 7.772 8.1323 7.75038C8.18538 7.72875 8.2336 7.69674 8.27412 7.65621C8.31465 7.61568 8.34667 7.56746 8.36829 7.51438C8.38992 7.4613 8.40071 7.40444 8.40004 7.34713Z" fill=""/>
<path d="M8.88303 13.2253H3.87503C3.69281 13.2245 3.51827 13.1518 3.38942 13.0229C3.26056 12.8941 3.18782 12.7195 3.18703 12.5373V3.31431C3.18703 2.93731 3.49703 2.62631 3.87503 2.62631H11.078C11.456 2.62631 11.766 2.93631 11.766 3.31431V6.79931C11.766 7.04231 11.949 7.25031 12.189 7.27331C12.2534 7.27917 12.3182 7.27151 12.3794 7.25082C12.4406 7.23012 12.4967 7.19686 12.5443 7.15316C12.5919 7.10946 12.6298 7.05629 12.6555 6.99708C12.6813 6.93786 12.6944 6.8739 12.694 6.80931V3.31431C12.6938 2.88553 12.5235 2.47434 12.2206 2.17086C11.9177 1.86738 11.5068 1.69637 11.078 1.69531H3.87503C3.01103 1.69531 2.30403 2.36731 2.25903 3.22831V12.6263C2.30403 13.4843 3.01403 14.1563 3.87503 14.1563H8.87403C8.98701 14.1577 9.0967 14.1183 9.18302 14.0454C9.26933 13.9725 9.32649 13.8709 9.34403 13.7593C9.35379 13.6932 9.3492 13.6257 9.33057 13.5615C9.31195 13.4973 9.27972 13.4378 9.23609 13.3872C9.19245 13.3365 9.13843 13.2958 9.07768 13.2679C9.01694 13.24 8.95089 13.2255 8.88403 13.2253H8.88303Z" fill=""/>
<path d="M12.23 7.8457C11.8137 7.84622 11.4015 7.92904 11.0173 8.08941C10.633 8.24977 10.2843 8.48451 9.99105 8.78014C9.69785 9.07576 9.46598 9.42643 9.30877 9.81197C9.15157 10.1975 9.07213 10.6103 9.07503 11.0267C9.08464 11.8546 9.4178 12.646 10.0033 13.2314C10.5888 13.8169 11.3801 14.1501 12.208 14.1597C12.6243 14.1623 13.0369 14.0827 13.4223 13.9254C13.8077 13.7681 14.1582 13.5362 14.4537 13.243C14.7491 12.9499 14.9838 12.6012 15.1441 12.2171C15.3045 11.833 15.3874 11.4209 15.388 11.0047C15.387 10.1674 15.0539 9.36464 14.462 8.77247C13.87 8.18031 13.0673 7.84703 12.23 7.8457ZM14.518 11.0017C14.5178 11.3048 14.4574 11.6048 14.3403 11.8844C14.2232 12.164 14.0518 12.4175 13.836 12.6304C13.6202 12.8432 13.3643 13.0111 13.0831 13.1243C12.8019 13.2374 12.5011 13.2937 12.198 13.2897C11.6038 13.28 11.0365 13.04 10.6157 12.6203C10.1949 12.2006 9.95335 11.6339 9.94203 11.0397C9.93753 10.7362 9.99335 10.4348 10.1063 10.1531C10.2192 9.87132 10.3869 9.61481 10.5998 9.39841C10.8127 9.18202 11.0664 9.01006 11.3462 8.89252C11.6261 8.77498 11.9265 8.7142 12.23 8.7137C12.8367 8.71423 13.4183 8.95546 13.8473 9.38443C14.2763 9.8134 14.5175 10.3951 14.518 11.0017Z" fill=""/>
</svg>
