<svg width="16" height="16" viewBox="0 0 16 16" fill="" xmlns="http://www.w3.org/2000/svg">
<path d="M5.75047 11.043L4.75047 12.043V9.00047H3.75047V12.043L2.75047 11.043L2.04297 11.7505L4.25047 13.958L6.45797 11.7505L5.75047 11.043ZM4.25047 2.04297L2.04297 4.25047L2.75047 4.95797L3.75047 3.95797V7.00047H4.75047V3.95797L5.75047 4.95797L6.45797 4.25047L4.25047 2.04297ZM7.50047 3.00047H14.0005V4.00047H7.50047V3.00047ZM7.50047 6.00047H14.0005V7.00047H7.50047V6.00047ZM7.50047 9.00047H14.0005V10.0005H7.50047V9.00047ZM7.50047 12.0005H14.0005V13.0005H7.50047V12.0005Z" fill=""/>
</svg>
