<svg width="14" height="14" viewBox="0 0 14 14" fill="" xmlns="http://www.w3.org/2000/svg">
<path fill-rule="evenodd" clip-rule="evenodd" d="M2.625 0.4375H9.7125L12.6875 3.85V12.25C12.6875 12.95 12.075 13.5625 11.375 13.5625H2.625C1.925 13.5625 1.3125 12.95 1.3125 12.25V1.75C1.3125 1.05 1.925 0.4375 2.625 0.4375ZM11.2 3.5L9.3625 1.4V3.5H11.2ZM2.625 12.6875H11.375C11.6375 12.6875 11.8125 12.5125 11.8125 12.25V4.375H8.4875V1.3125H2.625C2.3625 1.3125 2.1875 1.4875 2.1875 1.75V12.25C2.1875 12.5125 2.3625 12.6875 2.625 12.6875ZM9.625 5.25L7.525 9.625H6.3875L4.375 5.25H5.5125L7 8.75L8.575 5.25H9.625ZM10.5 11.375V10.5H3.5V11.375H10.5Z" fill=""/>
</svg>
