<svg width="72" height="72" viewBox="0 0 72 72" fill="none" xmlns="http://www.w3.org/2000/svg">
<rect width="72" height="72" rx="10" fill="#E8F1FF"/>
<path fill-rule="evenodd" clip-rule="evenodd" d="M58.6297 18.4161L53.5818 13.3685C52.3519 12.1386 50.2709 12.2254 48.9339 13.5626L44.1916 18.3049L53.6933 27.8065L58.4355 23.0643C59.7722 21.727 59.8594 19.646 58.6297 18.4161ZM26.2456 55.2583L16.7439 45.7566L43.008 19.4922L52.5097 28.9939L26.2456 55.2583ZM12.5 59.4986L15.8593 47.2505L24.7468 56.1392L12.5 59.4986Z" fill="url(#paint0_linear_4255_109482)"/>
<g filter="url(#filter0_bii_4255_109482)">
<rect x="26.8203" y="12.5" width="45.7714" height="20.252" transform="rotate(45 26.8203 12.5)" fill="#1890FF" fill-opacity="0.1"/>
</g>
<rect x="28.6133" y="21" width="3.9029" height="10.7696" transform="rotate(45 28.6133 21)" fill="white"/>
<rect x="49.6133" y="42" width="3.9029" height="10.7696" transform="rotate(45 49.6133 42)" fill="white"/>
<defs>
<filter id="filter0_bii_4255_109482" x="8.5" y="8.5" width="54.6875" height="54.6836" filterUnits="userSpaceOnUse" color-interpolation-filters="sRGB">
<feFlood flood-opacity="0" result="BackgroundImageFix"/>
<feGaussianBlur in="BackgroundImageFix" stdDeviation="2"/>
<feComposite in2="SourceAlpha" operator="in" result="effect1_backgroundBlur_4255_109482"/>
<feBlend mode="normal" in="SourceGraphic" in2="effect1_backgroundBlur_4255_109482" result="shape"/>
<feColorMatrix in="SourceAlpha" type="matrix" values="0 0 0 0 0 0 0 0 0 0 0 0 0 0 0 0 0 0 127 0" result="hardAlpha"/>
<feOffset dx="0.5" dy="0.5"/>
<feGaussianBlur stdDeviation="0.25"/>
<feComposite in2="hardAlpha" operator="arithmetic" k2="-1" k3="1"/>
<feColorMatrix type="matrix" values="0 0 0 0 1 0 0 0 0 1 0 0 0 0 1 0 0 0 0.5 0"/>
<feBlend mode="normal" in2="shape" result="effect2_innerShadow_4255_109482"/>
<feColorMatrix in="SourceAlpha" type="matrix" values="0 0 0 0 0 0 0 0 0 0 0 0 0 0 0 0 0 0 127 0" result="hardAlpha"/>
<feOffset dx="-0.5" dy="-0.5"/>
<feGaussianBlur stdDeviation="0.25"/>
<feComposite in2="hardAlpha" operator="arithmetic" k2="-1" k3="1"/>
<feColorMatrix type="matrix" values="0 0 0 0 0.0460069 0 0 0 0 0.204271 0 0 0 0 0.441667 0 0 0 0.25 0"/>
<feBlend mode="normal" in2="effect2_innerShadow_4255_109482" result="effect3_innerShadow_4255_109482"/>
</filter>
<linearGradient id="paint0_linear_4255_109482" x1="12.5" y1="35.9993" x2="59.4979" y2="35.9993" gradientUnits="userSpaceOnUse">
<stop stop-color="#0C4EC7"/>
<stop offset="1" stop-color="#7AACFF"/>
</linearGradient>
</defs>
</svg>
