<svg width="16" height="16" viewBox="0 0 16 16" fill="" xmlns="http://www.w3.org/2000/svg">
<path d="M8.99967 13.4865C9.00156 13.5532 8.99004 13.6197 8.96581 13.6819C8.94157 13.7441 8.9051 13.8008 8.85856 13.8487C8.81201 13.8966 8.75634 13.9346 8.69483 13.9606C8.63333 13.9866 8.56723 14 8.50046 14C8.43369 14 8.36759 13.9866 8.30609 13.9606C8.24458 13.9346 8.18891 13.8966 8.14236 13.8487C8.09582 13.8008 8.05935 13.7441 8.03511 13.6819C8.01087 13.6197 7.99936 13.5532 8.00125 13.4865V6.4947C8.00125 6.38683 8.03641 6.28135 8.10113 6.19506L10.4983 2.99882H3.50694L5.90412 6.19506C5.96884 6.28135 6.004 6.38683 6.004 6.4947V10.7825L6.8562 11.635C6.9472 11.7292 6.99757 11.8553 6.99647 11.9863C6.99537 12.1172 6.94288 12.2425 6.85031 12.3351C6.75774 12.4278 6.6325 12.4803 6.50156 12.4815C6.37061 12.4827 6.24444 12.4324 6.15023 12.3414L5.15141 11.3426C5.10503 11.2962 5.06825 11.2411 5.04316 11.1805C5.01807 11.1199 5.00517 11.055 5.00518 10.9894V6.66131L2.10859 2.79906C1.86168 2.46985 2.09661 2 2.50812 2H11.4967C11.9082 2 12.1432 2.46985 11.8963 2.79906L8.99967 6.66131V13.4865V13.4865ZM10.4979 7.99294H13.4944C13.56 7.99293 13.6249 8.00584 13.6855 8.03093C13.7461 8.05602 13.8012 8.09281 13.8476 8.13918C13.8939 8.18556 13.9307 8.24062 13.9558 8.30122C13.9809 8.36181 13.9939 8.42676 13.9939 8.49235C13.9939 8.55794 13.9809 8.62289 13.9558 8.68348C13.9307 8.74408 13.8939 8.79914 13.8476 8.84551C13.8012 8.89189 13.7461 8.92867 13.6855 8.95377C13.6249 8.97886 13.56 8.99177 13.4944 8.99176H10.4979C10.4323 8.99177 10.3674 8.97886 10.3068 8.95377C10.2462 8.92867 10.1911 8.89189 10.1447 8.84551C10.0983 8.79914 10.0615 8.74408 10.0364 8.68348C10.0113 8.62289 9.99842 8.55794 9.99842 8.49235C9.99842 8.42676 10.0113 8.36181 10.0364 8.30122C10.0615 8.24062 10.0983 8.18556 10.1447 8.13918C10.1911 8.09281 10.2462 8.05602 10.3068 8.03093C10.3674 8.00584 10.4323 7.99293 10.4979 7.99294V7.99294ZM10.4979 9.99058H13.4944C13.56 9.99057 13.6249 10.0035 13.6855 10.0286C13.7461 10.0537 13.8012 10.0905 13.8476 10.1368C13.8939 10.1832 13.9307 10.2383 13.9558 10.2989C13.9809 10.3595 13.9939 10.4244 13.9939 10.49C13.9939 10.5556 13.9809 10.6205 13.9558 10.6811C13.9307 10.7417 13.8939 10.7968 13.8476 10.8432C13.8012 10.8895 13.7461 10.9263 13.6855 10.9514C13.6249 10.9765 13.56 10.9894 13.4944 10.9894H10.4979C10.4323 10.9894 10.3674 10.9765 10.3068 10.9514C10.2462 10.9263 10.1911 10.8895 10.1447 10.8432C10.0983 10.7968 10.0615 10.7417 10.0364 10.6811C10.0113 10.6205 9.99842 10.5556 9.99842 10.49C9.99842 10.4244 10.0113 10.3595 10.0364 10.2989C10.0615 10.2383 10.0983 10.1832 10.1447 10.1368C10.1911 10.0905 10.2462 10.0537 10.3068 10.0286C10.3674 10.0035 10.4323 9.99057 10.4979 9.99058V9.99058ZM10.4979 11.9882H13.4944C13.6268 11.9882 13.7539 12.0408 13.8475 12.1345C13.9412 12.2282 13.9938 12.3552 13.9938 12.4876C13.9938 12.6201 13.9412 12.7471 13.8475 12.8408C13.7539 12.9344 13.6268 12.9871 13.4944 12.9871H10.4979C10.3655 12.9871 10.2384 12.9344 10.1448 12.8408C10.0511 12.7471 9.99849 12.6201 9.99849 12.4876C9.99849 12.3552 10.0511 12.2282 10.1448 12.1345C10.2384 12.0408 10.3655 11.9882 10.4979 11.9882Z" fill="" fill-opacity=""/>
</svg>
