<svg width="14" height="14" viewBox="0 0 14 14" fill="none" xmlns="http://www.w3.org/2000/svg">
<path d="M6.90156 9.32422C6.91326 9.33916 6.92819 9.35124 6.94525 9.35955C6.96231 9.36786 6.98103 9.37218 7 9.37218C7.01897 9.37218 7.03769 9.36786 7.05475 9.35955C7.0718 9.35124 7.08674 9.33916 7.09844 9.32422L8.84844 7.11016C8.9125 7.02891 8.85469 6.90859 8.75 6.90859H7.59219V1.62109C7.59219 1.55234 7.53594 1.49609 7.46719 1.49609H6.52969C6.46094 1.49609 6.40469 1.55234 6.40469 1.62109V6.90703H5.25C5.14531 6.90703 5.0875 7.02734 5.15156 7.10859L6.90156 9.32422ZM12.7188 8.77734H11.7812C11.7125 8.77734 11.6562 8.83359 11.6562 8.90234V11.3086H2.34375V8.90234C2.34375 8.83359 2.2875 8.77734 2.21875 8.77734H1.28125C1.2125 8.77734 1.15625 8.83359 1.15625 8.90234V11.9961C1.15625 12.2727 1.37969 12.4961 1.65625 12.4961H12.3438C12.6203 12.4961 12.8438 12.2727 12.8438 11.9961V8.90234C12.8438 8.83359 12.7875 8.77734 12.7188 8.77734Z" fill="#1890FF"/>
</svg>
