<svg width="16" height="16" viewBox="0 0 16 16" fill="" xmlns="http://www.w3.org/2000/svg">
<path d="M6.20083 9.61302C6.1708 9.66537 6.1303 9.71134 6.08171 9.74824C6.03312 9.78514 5.97742 9.81221 5.9179 9.82786C5.85837 9.84352 5.79623 9.84744 5.73512 9.83939C5.67402 9.83134 5.61519 9.81149 5.5621 9.781L2.18058 7.87844C2.12337 7.85052 2.07264 7.81152 2.0315 7.76385C1.99036 7.71618 1.95969 7.66083 1.94136 7.60122C1.92303 7.5416 1.91743 7.47898 1.92491 7.41718C1.93239 7.35539 1.95279 7.29573 1.98485 7.24188C2.01692 7.18803 2.05997 7.14112 2.11137 7.10402C2.16277 7.06693 2.22143 7.04045 2.28374 7.02619C2.34606 7.01193 2.41071 7.01021 2.47374 7.02113C2.53676 7.03204 2.59682 7.05536 2.65024 7.08966L6.03175 8.98857C6.08505 9.01877 6.13171 9.05888 6.16905 9.10661C6.2064 9.15434 6.2337 9.20876 6.2494 9.26675C6.2651 9.32474 6.2689 9.38517 6.26056 9.44458C6.25223 9.50399 6.23193 9.56123 6.20083 9.61302ZM12.5243 13.3926L7.93668 15.9671H7.86529C7.81436 15.9888 7.75934 16 7.70373 16C7.64811 16 7.59309 15.9888 7.54216 15.9671H7.46702L0.734045 12.1875C0.66339 12.147 0.604772 12.0894 0.563936 12.0202C0.523099 11.9511 0.501445 11.8728 0.501096 11.7931V4.23399V4.19748C0.499635 4.18413 0.499635 4.17066 0.501096 4.15731C0.519608 4.05123 0.576996 3.95524 0.662657 3.88708C0.670835 3.87671 0.681052 3.86802 0.692715 3.86152L0.722773 3.83961L7.46702 0.0600473C7.53866 0.0206855 7.61955 0 7.70185 0C7.78414 0 7.86504 0.0206855 7.93668 0.0600473L14.6734 3.83961L14.7035 3.86152C14.7151 3.86802 14.7253 3.87671 14.7335 3.88708C14.8192 3.95524 14.8766 4.05123 14.8951 4.15731C14.8965 4.17066 14.8965 4.18413 14.8951 4.19748V7.2832C14.6007 7.12616 14.2842 7.01175 13.9558 6.94359V5.02642L8.16211 8.27648V14.7802L11.4234 12.9544C11.7604 13.1633 12.1333 13.3117 12.5243 13.3926ZM7.23407 8.28013L1.44041 5.02642V11.5302L7.23407 14.7802V8.28013ZM13.4974 4.23399L7.70373 0.98394L1.91006 4.23399L7.70373 7.4877L13.4974 4.23399ZM15.5 10.6246C15.4414 10.8955 15.3305 11.1533 15.1731 11.3841C15.0849 11.3008 14.9663 11.255 14.8434 11.2567C14.7204 11.2584 14.6032 11.3075 14.5175 11.3932C14.4318 11.479 14.3846 11.5942 14.3864 11.7138C14.3882 11.8333 14.4387 11.9472 14.5269 12.0305C14.2876 12.1828 14.0214 12.2905 13.7416 12.3482C13.7305 12.2371 13.6776 12.1339 13.593 12.0584C13.5084 11.9829 13.3981 11.9405 13.2832 11.9392C13.1681 11.9396 13.0574 11.9818 12.9726 12.0575C12.8878 12.1331 12.8351 12.2368 12.8248 12.3482C12.5443 12.293 12.2776 12.1851 12.0396 12.0305C12.1124 11.9443 12.1497 11.8349 12.1441 11.7236C12.1386 11.6122 12.0906 11.5068 12.0095 11.4279C11.9268 11.3499 11.8172 11.3045 11.702 11.3005C11.5868 11.2964 11.4742 11.334 11.3858 11.406C11.2267 11.1744 11.1145 10.9153 11.0552 10.6428C11.1661 10.6304 11.2686 10.579 11.3433 10.4983C11.418 10.4176 11.4599 10.3132 11.461 10.2046C11.4588 10.0923 11.4145 9.98456 11.3363 9.90182C11.258 9.81908 11.1514 9.76701 11.0364 9.75544C11.0914 9.4846 11.1999 9.22667 11.3558 8.99587C11.4368 9.06241 11.539 9.0998 11.6451 9.10178C11.7703 9.10042 11.8901 9.052 11.9795 8.96666C12.0566 8.88349 12.0992 8.77551 12.0992 8.66357C12.0992 8.55162 12.0566 8.44364 11.9795 8.36047C12.2244 8.19263 12.5017 8.07463 12.7948 8.01355C12.8068 8.12496 12.8605 8.2282 12.9457 8.30362C13.0309 8.37903 13.1417 8.42136 13.2569 8.42255C13.3713 8.4197 13.4807 8.37672 13.565 8.30153C13.6492 8.22634 13.7026 8.12405 13.7153 8.01355C13.9951 8.06705 14.2618 8.17243 14.5006 8.32395C14.4269 8.40975 14.3891 8.51931 14.3947 8.63092C14.4003 8.74252 14.4488 8.84802 14.5306 8.92649C14.6127 9.00706 14.7233 9.05418 14.8399 9.05825C14.9565 9.06232 15.0703 9.02304 15.1581 8.9484C15.3174 9.1773 15.4297 9.43398 15.4887 9.70431C15.3741 9.71687 15.2683 9.76995 15.1914 9.85346C15.1145 9.93696 15.0719 10.0451 15.0717 10.1571V10.179C15.0732 10.2918 15.1179 10.4 15.1971 10.4824C15.2763 10.5648 15.3843 10.6155 15.5 10.6246ZM14.091 10.1754C14.091 10.0208 14.0439 9.86974 13.9555 9.74122C13.8672 9.61271 13.7416 9.51255 13.5947 9.4534C13.4478 9.39425 13.2861 9.37878 13.1301 9.40893C12.9742 9.43908 12.8309 9.51351 12.7184 9.6228C12.606 9.73209 12.5294 9.87134 12.4984 10.0229C12.4674 10.1745 12.4833 10.3316 12.5441 10.4744C12.605 10.6172 12.7081 10.7393 12.8403 10.8252C12.9725 10.911 13.128 10.9569 13.287 10.9569C13.3926 10.9569 13.4971 10.9366 13.5947 10.8974C13.6922 10.8581 13.7809 10.8005 13.8555 10.728C13.9302 10.6554 13.9894 10.5693 14.0298 10.4744C14.0702 10.3796 14.091 10.278 14.091 10.1754Z" fill="" fill-opacity=""/>
</svg>
