<svg width="16" height="16" viewBox="0 0 16 16" fill="" xmlns="http://www.w3.org/2000/svg">
<path d="M13.568 9.93652V6.03252C14.104 5.93652 14.536 5.43252 14.536 4.86452C14.536 4.20052 14 3.69652 13.368 3.69652C13.032 3.69652 12.704 3.86452 12.504 4.09652L9.16801 2.23252C9.20001 2.13652 9.23201 2.03252 9.23201 1.89652C9.23201 1.23252 8.69601 0.728516 8.06401 0.728516C7.43201 0.728516 6.89601 1.26452 6.89601 1.89652C6.89601 1.99252 6.92801 2.09652 6.92801 2.20052L3.60001 4.10452C3.33601 3.84052 3.03201 3.67252 2.70401 3.67252C2.04001 3.67252 1.53601 4.20852 1.53601 4.84052C1.53601 5.40852 1.93601 5.87252 2.47201 6.00852V9.94452C1.93601 10.0805 1.53601 10.5445 1.53601 11.1125C1.53601 11.7765 2.07201 12.2805 2.70401 12.2805C3.04001 12.2805 3.36801 12.1125 3.56801 11.8805L6.93601 13.7445C6.87201 13.8805 6.84001 14.0485 6.84001 14.2085C6.84001 14.8725 7.37601 15.3765 8.00801 15.3765C8.64001 15.3765 9.17601 14.8405 9.17601 14.2085C9.17601 14.0405 9.14401 13.8725 9.08001 13.7125L12.448 11.8805C12.68 12.1125 12.984 12.2805 13.344 12.2805C14.008 12.2805 14.512 11.7445 14.512 11.1125C14.536 10.4965 14.136 10.0325 13.568 9.93652ZM8.73601 13.2645C8.60001 13.1685 8.47201 13.0965 8.33601 13.0645V10.0965H7.76801V13.0645C7.60001 13.0965 7.43201 13.2005 7.30401 13.2965L3.87201 11.3925C3.90401 11.2965 3.90401 11.1925 3.90401 11.0885C3.90401 10.5525 3.53601 10.0885 3.04001 9.95252V6.00052C3.24001 5.93652 3.40801 5.86452 3.53601 5.69652L6.03201 7.23252L6.33601 6.76852L3.83201 5.23252C3.86401 5.09652 3.89601 5.00052 3.89601 4.86452C3.89601 4.76852 3.86401 4.66452 3.86401 4.56052L7.20001 2.66452C7.40001 2.89652 7.73601 3.03252 8.06401 3.03252C8.40001 3.03252 8.69601 2.89652 8.89601 2.66452L12.232 4.56852C12.2 4.66452 12.2 4.76852 12.2 4.87252C12.2 5.00852 12.232 5.10452 12.264 5.24052L9.76801 6.77652L10.072 7.24052L12.536 5.73652C12.672 5.87252 12.84 5.96852 13.032 6.04052V10.0005C12.536 10.1365 12.2 10.6005 12.2 11.1365C12.2 11.2325 12.2 11.3365 12.232 11.4005L8.73601 13.2645Z" fill=""/>
<path d="M6.92803 9.11995C7.52803 9.71995 8.49603 9.71995 9.09603 9.11995C9.69603 8.51995 9.69603 7.55195 9.09603 6.95195C8.49603 6.35195 7.52803 6.35195 6.92803 6.95195C6.32803 7.54395 6.32803 8.51995 6.92803 9.11995Z" fill=""/>
</svg>
