<svg width="16" height="16" viewBox="0 0 16 16" fill="" xmlns="http://www.w3.org/2000/svg">
<path fill-rule="evenodd" clip-rule="evenodd" d="M3.52403 1.46155C4.0706 1.21546 4.68723 1.34416 5.18009 1.64522L5.19976 1.65723L12.3401 6.72726C12.8419 7.01444 13.3324 7.46809 13.3333 8.12506C13.3342 8.77698 12.8482 9.25233 12.3463 9.5695L5.26175 14.3475L5.23139 14.3637C4.71866 14.6373 4.08877 14.8045 3.52622 14.5148C2.9465 14.2162 2.73564 13.5906 2.69829 12.9856L2.69708 12.9661L2.66706 2.97993C2.65497 2.31765 2.93613 1.72625 3.52403 1.46155ZM4.04137 2.7096C4.02567 2.73857 3.99715 2.81285 4.00022 2.95829L4.00035 2.96434L4.03029 12.9217C4.05077 13.2134 4.11842 13.3072 4.13892 13.3289C4.1647 13.334 4.29045 13.3491 4.57512 13.2024L11.6185 8.45215L11.6277 8.44634C11.8139 8.32948 11.9164 8.23159 11.9672 8.16545C11.9781 8.15124 11.9858 8.13974 11.991 8.13087C11.9876 8.12604 11.9833 8.12036 11.978 8.11382C11.934 8.05978 11.839 7.97417 11.6577 7.87309L11.6259 7.85538L4.46748 2.77253C4.23007 2.63312 4.09348 2.66741 4.07143 2.67733C4.0642 2.68059 4.05453 2.68533 4.04137 2.7096Z" fill=""/>
</svg>
