<svg width="12" height="12" viewBox="0 0 12 12" fill="" xmlns="http://www.w3.org/2000/svg">
<g id="Frame">
<path id="Vector" d="M6.71536 3.18755L10.3341 7.92905C10.4359 8.06248 10.4984 8.22172 10.5145 8.3888C10.5306 8.55587 10.4996 8.72412 10.4251 8.87452C10.3506 9.02493 10.2356 9.15151 10.0929 9.23995C9.95025 9.3284 9.78571 9.37519 9.61786 9.37505H2.38148C2.2137 9.37505 2.04926 9.32816 1.90671 9.23966C1.76417 9.15115 1.64921 9.02457 1.57479 8.87419C1.50038 8.72381 1.46949 8.55562 1.48561 8.38861C1.50172 8.2216 1.5642 8.06243 1.66598 7.92905L5.28474 3.18755C5.36873 3.07754 5.47697 2.98839 5.60103 2.92703C5.7251 2.86566 5.86164 2.83374 6.00005 2.83374C6.13846 2.83374 6.275 2.86566 6.39906 2.92703C6.52312 2.98839 6.63136 3.07754 6.71536 3.18755Z" fill=""/>
</g>
</svg>
