<svg xmlns="http://www.w3.org/2000/svg" width="24" height="24" viewBox="0 0 24 24"><defs><style>.a{fill:none;}.b{}</style></defs><g transform="translate(-37 -413)"><rect class="a" width="24" height="24" transform="translate(37 413)"/><path class="b" d="M50.737,11.61a2.9,2.9,0,0,0-.715.1l-1.7-2.939,1.044-.6a1.962,1.962,0,1,0-.6-1.411,1.476,1.476,0,0,0,.029.29l-1.1.638L46.126,4.969a2.591,2.591,0,1,0-3.6,0l-1.6,2.774-1.073-.619a2.25,2.25,0,0,0,.039-.367,1.962,1.962,0,1,0-1.962,1.962,1.939,1.939,0,0,0,1.305-.5l1.063.619-1.663,2.881a2.461,2.461,0,0,0-.715-.1,2.591,2.591,0,1,0,2.513,3.219H43.7V16a1.962,1.962,0,1,0,1.257,0v-1.16h3.267a2.592,2.592,0,1,0,2.513-3.229Zm-7.743-8.5a1.333,1.333,0,1,1,1.373,1.334h-.1a1.346,1.346,0,0,1-1.092-.628A1.447,1.447,0,0,1,42.994,3.112Zm.619,2.494a2.461,2.461,0,0,0,.715.1,2.9,2.9,0,0,0,.715-.1L46.61,8.323,44.26,9.686l-2.243-1.3,1.6-2.784Zm-5.694,9.938a1.334,1.334,0,1,1,0-2.668h.048a1.346,1.346,0,0,1,1.092.628c.019.029.029.048.048.077a1.343,1.343,0,0,1,.155.628,1.328,1.328,0,0,1-1.344,1.334Zm2.513-1.962a2.5,2.5,0,0,0-.715-1.237L41.38,9.464,43.7,10.8v2.774H40.432Zm4.524-2.861,2.281-1.315,1.7,2.939a2.5,2.5,0,0,0-.715,1.237H44.956Zm5.781,4.824a1.34,1.34,0,0,1-1.179-.706,1.373,1.373,0,0,1-.155-.628,1.343,1.343,0,0,1,.155-.628.211.211,0,0,1,.048-.077,1.323,1.323,0,0,1,1.092-.628h.048a1.337,1.337,0,0,1,1.334,1.334A1.351,1.351,0,0,1,50.737,15.544Z" transform="translate(4.672 414.96)"/></g></svg>