<svg xmlns="http://www.w3.org/2000/svg" width="24" height="24" viewBox="0 0 24 24"><defs><style>.a{fill:none;}.b{}</style></defs><g transform="translate(-37 -536)"><rect class="a" width="24" height="24" transform="translate(37 536)"/><path class="b" d="M149.109,66a20.619,20.619,0,0,0,6.476,2.108.649.649,0,0,1,.593.646v6.272q-.856,5.667-7.089,7.747-6.314-2.088-7.089-7.747v-6.26a.649.649,0,0,1,.605-.647,18.638,18.638,0,0,0,6.5-2.12Zm0,1.309a14.21,14.21,0,0,1-5.95,1.8h-.044v5.817q.654,4.776,5.977,6.538,5.2-1.738,5.962-6.442l.015-.1V69.11a15.394,15.394,0,0,1-5.96-1.8Zm-.017,2.063a2.791,2.791,0,0,1,.543,5.523l0,.463,1.009,0a.562.562,0,0,1,.016,1.124h-.013l-1.007,0,0,.521,1,0a.562.562,0,0,1,.016,1.124h-.013l-1,0,0,.71a.562.562,0,0,1-1.124.019v-.013l-.019-3.955a2.791,2.791,0,0,1,.581-5.516Zm0,1.124a1.666,1.666,0,0,0-.205,3.316.564.564,0,0,1,.378,0,1.666,1.666,0,0,0-.173-3.32Z" transform="translate(-100 474.254)"/></g></svg>