<svg width="14" height="14" viewBox="0 0 14 14" fill="" xmlns="http://www.w3.org/2000/svg">
<path d="M8.95234 5.92207H7.10859V3.82832C7.10859 3.75957 7.05234 3.70332 6.98359 3.70332H6.04609C5.97734 3.70332 5.92109 3.75957 5.92109 3.82832V5.92207H4.07734C4.00859 5.92207 3.95234 5.97832 3.95234 6.04707V6.98457C3.95234 7.05332 4.00859 7.10957 4.07734 7.10957H5.92109V9.20332C5.92109 9.27207 5.97734 9.32832 6.04609 9.32832H6.98359C7.05234 9.32832 7.10859 9.27207 7.10859 9.20332V7.10957H8.95234C9.02109 7.10957 9.07734 7.05332 9.07734 6.98457V6.04707C9.07734 5.97832 9.02109 5.92207 8.95234 5.92207ZM13.3898 12.5471L11.1086 10.2658C13.0164 7.93926 12.8836 4.49238 10.7023 2.3127C8.38984 -0.00136721 4.63359 -0.00136721 2.31172 2.3127C-0.00234377 4.63457 -0.00234377 8.39082 2.31172 10.7033C4.49141 12.8846 7.93828 13.0174 10.2648 11.1096L12.5461 13.3908C12.5961 13.4346 12.6758 13.4346 12.718 13.3908L13.3898 12.7189C13.4336 12.6768 13.4336 12.5971 13.3898 12.5471ZM9.87422 9.8752C8.01797 11.7299 5.01172 11.7299 3.15547 9.8752C1.30078 8.01895 1.30078 5.0127 3.15547 3.15645C5.01172 1.30176 8.01797 1.30176 9.87422 3.15645C11.7289 5.0127 11.7289 8.01895 9.87422 9.8752Z" fill=""/>
</svg>
