<svg xmlns="http://www.w3.org/2000/svg" width="24" height="24" viewBox="0 0 24 24"><defs><style>.a{fill:none;}.b{}</style></defs><g transform="translate(-37 -165)"><rect class="a" width="24" height="24" transform="translate(37 165)"/><g transform="translate(-1212.774 -283.733)"><path class="b" d="M1282.854,491.257h-3.067a.613.613,0,0,0,0,1.227h3.067a.613.613,0,1,0,0-1.227Zm0,2.454h-3.067a.613.613,0,0,0,0,1.227h3.067a.613.613,0,1,0,0-1.227Zm0,2.444h-3.067a.613.613,0,0,0,0,1.227h3.067a.613.613,0,1,0,0-1.227Z" transform="translate(-23.83 -35.293)"/><path class="b" d="M1263.473,467.876h-1.889v-11.12h6.294v2.321a.626.626,0,0,0,1.252,0v-2.516a1.279,1.279,0,0,0-1.316-1.263h-6.23V453.42a1.255,1.255,0,0,0-1.2-1.263H1254.6a1.255,1.255,0,0,0-1.2,1.263v14.467a.626.626,0,0,0,0,1.252h10.062a.632.632,0,0,0,.011-1.263Zm-8.615-.195-.064-14.067h5.342v14.078h-5.279Z" transform="translate(0 0)"/><g transform="translate(1262.532 460.223)"><g transform="translate(0 0)"><path class="b" d="M1357.138,535a4.138,4.138,0,1,0,2.37,7.529,4.185,4.185,0,0,0,.853-.8,4.135,4.135,0,0,0-3.223-6.729Zm1.526,6.685a2.972,2.972,0,1,1,.866-.788A2.983,2.983,0,0,1,1358.663,541.685Z" transform="translate(-1353 -535)"/></g></g><g transform="translate(1268.196 466.12)"><g transform="translate(0 0)"><path class="b" d="M1414.228,598.589a.586.586,0,0,1-.827,0l-1.387-1.387-.844-.844a2.985,2.985,0,0,0,.866-.788l.832.831,1.361,1.361A.586.586,0,0,1,1414.228,598.589Z" transform="translate(-1411.17 -595.57)"/></g></g></g></g></svg>