<svg width="22" height="22" viewBox="0 0 22 22" fill="none" xmlns="http://www.w3.org/2000/svg">
<path d="M4.05078 2.87891H13.8774V19.1589H4.05078V2.87891Z" fill="#BAD4FF"/>
<path d="M9.46378 5.625H12.5817V6.72775H9.46378V5.625ZM9.46378 9.4915H12.5817V10.6168H9.46378V9.4915ZM16.0017 13.2843H16.9988V16.4023H16.0017V13.2843ZM16.0017 9.08615H16.9988V12.2042H16.0017V9.08615ZM5.26562 13.2843H8.38413V14.3869H5.26562V13.2843Z" fill="#4E8CEE"/>
<path d="M19.572 18.8643V5.622H14.6589V2.09375H3.14464V18.8643H1.08984V19.9051H20.9558V18.8643H19.572ZM18.5083 6.61805V18.8643H14.6589V6.61805H18.5083ZM13.6628 3.13435V18.8643H4.20779V3.13435H13.6628Z" fill="#4E8CEE"/>
<path d="M5.26562 9.4915H8.38412V10.6168H5.26562V9.4915ZM9.46377 13.2843H12.5817V14.3869H9.46377V13.2843ZM5.26562 5.625H8.38412V6.72775H5.26562V5.625Z" fill="#4E8CEE"/>
</svg>
