<svg width="24" height="24" viewBox="0 0 24 24" fill="" xmlns="http://www.w3.org/2000/svg">
<path d="M19.5301 20.0793H18.5715H18.9512C19.2746 20.0605 19.5301 19.7934 19.5301 19.4652V20.0793ZM3.5293 20.0793H4.48789H4.1082C3.78477 20.0605 3.5293 19.7934 3.5293 19.4652V20.0793ZM19.5301 4.11133H18.5715H18.9512C19.2746 4.13008 19.5301 4.39727 19.5301 4.72539V4.11133ZM3.5293 4.11133H4.48789H4.1082C3.78477 4.13008 3.5293 4.39727 3.5293 4.72539V4.11133ZM7.56992 12.0004C7.56992 12.5301 7.99883 12.9613 8.53086 12.9613H21.4121C21.9418 12.9613 22.373 12.5324 22.373 12.0004C22.373 11.4707 21.9441 11.0395 21.4121 11.0395H8.52852C7.99883 11.0395 7.56992 11.4707 7.56992 12.0004Z" fill=""/>
<path d="M16.6719 7.26074C16.2969 7.63574 16.2969 8.24277 16.6719 8.61777L20.7313 12.6795C21.1063 13.0545 21.7133 13.0545 22.0883 12.6795C22.4633 12.3045 22.4633 11.6975 22.0883 11.3225L18.0289 7.26074C17.6539 6.88574 17.0445 6.88574 16.6719 7.26074Z" fill=""/>
<path d="M16.6719 16.7387C17.0469 17.1137 17.6539 17.1137 18.0289 16.7387L22.0883 12.6793C22.4633 12.3043 22.4633 11.6973 22.0883 11.3223C21.7133 10.9473 21.1063 10.9473 20.7313 11.3223L16.6719 15.3816C16.2969 15.7566 16.2969 16.3637 16.6719 16.7387Z" fill=""/>
<path d="M20.4848 17.0832C19.9551 17.0832 19.5238 17.5121 19.5238 18.0441V20.0645H3.53477V4.11289H19.5262V6.1332C19.5262 6.66289 19.9551 7.09414 20.4871 7.09414C21.0191 7.09414 21.448 6.66523 21.448 6.1332V5.07148H21.4387V3.82695V3.79414C21.4387 2.91289 20.7238 2.19805 19.8426 2.19805H19.8309V2.1957H18.5629V2.19336H4.48398V2.1957H3.21602V2.19805H3.2043C2.36992 2.19805 1.6832 2.84023 1.61523 3.6582V20.5402C1.69727 21.3441 2.37695 21.9746 3.20195 21.9746H3.21367V21.977H4.48164V21.9863H18.5605V21.977H19.8285V21.9746H19.8402C20.7215 21.9746 21.4363 21.2598 21.4363 20.3785V19.1012H21.4434V18.0465C21.4457 17.5145 21.0145 17.0832 20.4848 17.0832Z" fill=""/>
</svg>
