<svg width="12" height="12" viewBox="0 0 12 12" fill="" xmlns="http://www.w3.org/2000/svg">
<g id="Frame">
<path id="Vector" d="M5.28464 8.81245L1.66589 4.07096C1.56406 3.93752 1.50158 3.77828 1.48549 3.6112C1.46941 3.44413 1.50036 3.27588 1.57486 3.12548C1.64937 2.97507 1.76444 2.84849 1.9071 2.76005C2.04975 2.6716 2.21429 2.62481 2.38214 2.62495L9.61851 2.62495C9.7863 2.62495 9.95074 2.67184 10.0933 2.76034C10.2358 2.84885 10.3508 2.97543 10.4252 3.12581C10.4996 3.27619 10.5305 3.44438 10.5144 3.61139C10.4983 3.7784 10.4358 3.93757 10.334 4.07095L6.71526 8.81245C6.63127 8.92246 6.52303 9.01161 6.39897 9.07297C6.2749 9.13434 6.13836 9.16626 5.99995 9.16626C5.86154 9.16626 5.725 9.13434 5.60094 9.07297C5.47688 9.01161 5.36864 8.92246 5.28464 8.81245Z" fill=""/>
</g>
</svg>
