<svg width="20" height="20" viewBox="0 0 20 20" fill="none" xmlns="http://www.w3.org/2000/svg">
<g id="Frame">
<path id="Vector" d="M15.7441 6.13477L10.3887 4.07813C10.2227 4.01562 10.041 4.01562 9.875 4.07813L4.51758 6.13477C4.375 6.1875 4.28125 6.32422 4.28125 6.47656V7.32031C4.28125 7.52148 4.44531 7.68555 4.64648 7.68555H15.6152C15.8164 7.68555 15.9805 7.52148 15.9805 7.32031V6.47656C15.9805 6.32617 15.8867 6.18945 15.7441 6.13477Z" fill="#1776FF"/>
<path id="Vector_2" d="M5.74414 8.41797V12.0742H5.37891C5.17773 12.0742 5.01367 12.2383 5.01367 12.4395V13.5371H15.252V12.4395C15.252 12.2383 15.0879 12.0742 14.8867 12.0742H14.5215V8.41797H13.0586V12.0742H10.8633V8.41797H9.40039V12.0742H7.20508V8.41797H5.74414Z" fill="#1776FF"/>
<path id="Vector_3" d="M15.6152 14.2676H4.64648C4.44531 14.2676 4.28125 14.4316 4.28125 14.6328V15.3633C4.28125 15.5645 4.44531 15.7285 4.64648 15.7285H15.6152C15.8164 15.7285 15.9805 15.5645 15.9805 15.3633V14.6328C15.9805 14.4316 15.8184 14.2676 15.6152 14.2676Z" fill="#1776FF"/>
</g>
</svg>
