<svg width="24" height="25" viewBox="0 0 24 25" fill="none" xmlns="http://www.w3.org/2000/svg">
<g id="Frame" clip-path="url(#clip0_2433_15928)">
<path id="Vector" d="M24 9.6999C23.7332 8.3663 17.2 7.1663 13.4668 6.4999C14.5335 6.4999 15.3335 6.05537 15.8668 5.1663C14.1777 4.72204 12.9332 5.07764 12.1332 6.2331H12.2668C12 6.2331 11.8668 6.0999 11.6 6.0999C11.4668 5.9663 10.4 4.4999 8 5.1663C8.44453 5.9663 9.1556 6.41084 10.1332 6.4999C1.6 9.5663 0 13.1663 0 15.5663C0 17.4331 14.4 22.0999 17.3332 21.2999C20.1332 20.4999 24.2668 11.5663 24 9.6999ZM8.5332 9.1663C9.3332 8.45537 10.0444 7.92204 10.6668 7.5663C13.3335 7.92204 14.8001 8.1887 15.0668 8.3663C15.4668 8.6331 13.4668 10.6331 12.9332 10.6331C12.4 10.7663 7.4668 10.2331 8.5332 9.1663ZM6.6668 15.5663C5.6 15.5663 0.9332 15.0331 3.3332 12.8999C4.8444 11.4775 5.9556 10.6775 6.6668 10.4999C9.51107 11.122 10.8444 11.6108 10.6668 11.9663C10.4 12.4999 7.4668 15.5663 6.6668 15.5663ZM15.2 17.6999C11.8221 17.3442 9.95547 16.8552 9.6 16.2331C9.8668 15.2999 10.9332 13.6999 13.0668 11.9663C16.2668 12.4108 18.0889 13.0331 18.5332 13.8331C18.1777 14.6331 17.0667 15.922 15.2 17.6999ZM21.0668 11.4331C20.6668 11.6999 19.8668 12.4999 19.3332 12.3663C18.8 12.2331 14.4 11.4331 15.2 10.2331C15.7333 9.5219 16.2667 8.98857 16.8 8.6331C19.5555 9.4331 21.0221 9.96644 21.2 10.2331C21.4668 10.6331 21.3332 11.0331 21.0668 11.4331ZM11.7332 4.8995C11.5556 3.9219 10.8889 3.34417 9.7332 3.1663C9.7332 3.2999 9.8668 4.8995 11.7332 4.8995ZM14 3.2999C12.8445 3.38897 12.1779 3.9223 12 4.8999C13.2445 4.8999 13.9112 4.36657 14 3.2999ZM11.8668 3.6999C12.5777 3.07777 12.5777 2.14444 11.8668 0.899902C11.2444 2.3223 11.2444 3.25564 11.8668 3.6999Z" fill="white"/>
</g>
<defs>
<clipPath id="clip0_2433_15928">
<rect width="24" height="24" fill="white" transform="translate(0 0.5)"/>
</clipPath>
</defs>
</svg>
