<svg width="16" height="16" viewBox="0 0 16 16" fill="" xmlns="http://www.w3.org/2000/svg">
<g id="Frame">
<path id="Vector" d="M14.6563 6.43745V4.9312C14.6563 4.76401 14.5719 4.59683 14.4047 4.51245L8.12502 1.66558C8.04065 1.5812 7.87346 1.5812 7.79065 1.66558L1.51096 4.51245C1.34377 4.59683 1.2594 4.76401 1.2594 4.9312V6.43901C1.2594 6.52339 1.34377 6.69058 1.42659 6.77339C1.51096 6.85776 1.59377 6.94058 1.76096 6.94058H2.68127V11.3781H1.76096C1.67659 11.3781 1.5094 11.4625 1.42659 11.5453C1.34221 11.6296 1.2594 11.7125 1.2594 11.8796V13.9734C1.2594 14.0578 1.34377 14.225 1.42659 14.3078C1.51096 14.3921 1.59377 14.475 1.76096 14.475H14.3203C14.5719 14.475 14.7391 14.3078 14.7391 14.0562V11.7281C14.7391 11.4765 14.5719 11.3093 14.3203 11.3093H13.4V7.1062H14.3203C14.4891 6.8562 14.6563 6.6062 14.6563 6.43745ZM2.0969 5.18276L7.95784 2.58745L13.8188 5.18276V5.93589H2.18127L2.0969 5.18276ZM8.37659 11.2937V6.8562H9.96721V11.2937H8.37659ZM7.53909 6.8562V11.2937H5.94846V6.8562H7.53909ZM3.52034 6.8562H5.02815V11.2937H3.52034V6.8562ZM13.8188 13.5906H2.18127V12.1312H13.8188V13.5906ZM12.3953 11.2937H10.8875V6.8562H12.3953V11.2937Z" fill=""/>
</g>
</svg>
