<svg width="21" height="20" viewBox="0 0 21 20" fill="none" xmlns="http://www.w3.org/2000/svg">
<g id="Frame">
<path id="Vector" d="M12.528 9.05556C13.5835 8.2889 15.0502 7.24445 15.0502 5.55556V3.1889H16.6391V1.96667H3.9502V3.1889H5.4502V5.55556C5.4502 7.26667 6.91686 8.31112 8.02797 9.07779C8.32078 9.27649 8.59925 9.49555 8.86131 9.73334L8.9502 9.82223L8.87242 9.91112C8.60878 10.1652 8.32651 10.3992 8.02797 10.6111C6.91686 11.4445 5.51686 12.5778 5.51686 14.3111V16.7667H3.9502V17.9889H16.6391V16.7667H15.0169V14.3C15.0169 12.5556 13.5613 11.4333 12.5058 10.5889C12.2149 10.3761 11.9401 10.1421 11.6835 9.8889L11.6058 9.80001L11.6946 9.71112C11.8724 9.54445 12.228 9.27779 12.528 9.05556ZM12.328 14.2556C12.452 14.2738 12.5653 14.336 12.6472 14.4309C12.7291 14.5257 12.7742 14.6469 12.7742 14.7722C12.7742 14.8976 12.7291 15.0187 12.6472 15.1136C12.5653 15.2084 12.452 15.2707 12.328 15.2889H8.17242C8.04841 15.2707 7.9351 15.2084 7.85317 15.1136C7.77125 15.0187 7.72617 14.8976 7.72617 14.7722C7.72617 14.6469 7.77125 14.5257 7.85317 14.4309C7.9351 14.336 8.04841 14.2738 8.17242 14.2556H12.328Z" fill="#97A3B7"/>
</g>
</svg>
