<svg width="492" height="256" viewBox="0 0 492 256" fill="none" xmlns="http://www.w3.org/2000/svg">
<path d="M246 208C301.228 208 346 163.228 346 108C346 52.7715 301.228 8 246 8C190.772 8 146 52.7715 146 108C146 163.228 190.772 208 246 208Z" fill="#DFE8FE"/>
<path d="M177.973 83.2108C177.973 83.2108 155.945 64.0595 177.545 47.7978C177.545 47.7978 191.883 39.3753 206.11 50.5836C213.6 57.5354 245.592 63.3144 266.136 50.3634C286.68 37.4123 289.35 34.9633 301.336 37.5289C301.336 37.4188 325.618 46.3012 312.142 69.411C312.356 69.5147 294.06 89.4174 316.632 110.065C316.632 110.389 334.714 138.416 308.397 138.313C282.081 138.209 205.683 134.899 205.683 134.899C205.683 134.899 176.8 152.126 166.739 137.684C166.739 137.684 153.477 124.079 178.725 114.037C185.035 110.603 197.124 101.507 177.973 83.2108Z" fill="#ADC3FC"/>
<path d="M174.903 62.7037C175.976 62.7037 176.846 61.8335 176.846 60.76C176.846 59.6866 175.976 58.8164 174.903 58.8164C173.829 58.8164 172.959 59.6866 172.959 60.76C172.959 61.8335 173.829 62.7037 174.903 62.7037Z" fill="white"/>
<path d="M198.348 86.208C199.175 86.208 199.845 85.538 199.845 84.7114C199.845 83.8849 199.175 83.2148 198.348 83.2148C197.522 83.2148 196.852 83.8849 196.852 84.7114C196.852 85.538 197.522 86.208 198.348 86.208Z" fill="white"/>
<path d="M234.37 71.2979C235.196 71.2979 235.866 70.6278 235.866 69.8013C235.866 68.9747 235.196 68.3047 234.37 68.3047C233.543 68.3047 232.873 68.9747 232.873 69.8013C232.873 70.6278 233.543 71.2979 234.37 71.2979Z" fill="white"/>
<path d="M280.376 58.7471C281.202 58.7471 281.872 58.0771 281.872 57.2505C281.872 56.424 281.202 55.7539 280.376 55.7539C279.549 55.7539 278.879 56.424 278.879 57.2505C278.879 58.0771 279.549 58.7471 280.376 58.7471Z" fill="white"/>
<path d="M328.45 88.1299C329.276 88.1299 329.946 87.4599 329.946 86.6333C329.946 85.8068 329.276 85.1367 328.45 85.1367C327.623 85.1367 326.953 85.8068 326.953 86.6333C326.953 87.4599 327.623 88.1299 328.45 88.1299Z" fill="white"/>
<path d="M321.245 127.36C322.071 127.36 322.741 126.69 322.741 125.864C322.741 125.037 322.071 124.367 321.245 124.367C320.418 124.367 319.748 125.037 319.748 125.864C319.748 126.69 320.418 127.36 321.245 127.36Z" fill="white"/>
<path d="M338.22 117.702C339.254 117.702 340.092 116.863 340.092 115.829C340.092 114.795 339.254 113.957 338.22 113.957C337.186 113.957 336.348 114.795 336.348 115.829C336.348 116.863 337.186 117.702 338.22 117.702Z" fill="#ADC3FC"/>
<path d="M330.049 111.483C331.866 109.903 331.492 106.496 329.212 103.874C326.933 101.252 323.612 100.407 321.795 101.987C319.977 103.567 320.352 106.973 322.631 109.595C324.911 112.218 328.232 113.063 330.049 111.483Z" fill="#ADC3FC"/>
<path d="M208.275 148.997C211.501 147.709 213.394 144.852 212.501 142.616C211.608 140.379 208.269 139.61 205.042 140.898C201.815 142.186 199.923 145.043 200.816 147.28C201.708 149.516 205.048 150.285 208.275 148.997Z" fill="#ADC3FC"/>
<path d="M198.976 182.242H194.732V183.052H198.976V182.242Z" fill="#59E6BA"/>
<path d="M196.521 180.522V184.766H197.331V180.522H196.521Z" fill="#59E6BA"/>
<g filter="url(#filter0_d_3361_67398)">
<path d="M287.082 88.7383H205.631V198.294H287.082V88.7383Z" fill="#F2F2F2"/>
</g>
<path d="M264.581 93.1602H213.438V94.0154H264.581V93.1602Z" fill="#E4E4E4"/>
<path d="M264.581 97.0703H213.438V97.9255H264.581V97.0703Z" fill="#8D86FF"/>
<path d="M264.581 139.117H213.438V139.972H264.581V139.117Z" fill="#E4E4E4"/>
<path d="M280.732 108.609H213.463V139.027H280.732V108.609Z" fill="#F5F5F5"/>
<path d="M266.538 111.273H215.395V128.805H266.538V111.273Z" fill="white"/>
<path d="M264.581 179.02H213.438V179.875H264.581V179.02Z" fill="#E4E4E4"/>
<path d="M280.732 148.52H213.463V178.937H280.732V148.52Z" fill="#F5F5F5"/>
<path d="M266.538 151.172H215.395V168.703H266.538V151.172Z" fill="white"/>
<g filter="url(#filter1_d_3361_67398)">
<path d="M315.625 97.3155L235.66 81.4531L214.343 188.915L294.307 204.778L315.625 97.3155Z" fill="white"/>
</g>
<path d="M241.006 89.0312L304.537 101.632" stroke="#E2E2E2" stroke-miterlimit="10"/>
<path d="M224.471 172.422L287.995 185.023" stroke="#E2E2E2" stroke-miterlimit="10"/>
<path d="M223.416 177.746L272.149 187.412" stroke="#E2E2E2" stroke-miterlimit="10"/>
<path d="M237.125 108.621L300.649 121.216" stroke="#E2E2E2" stroke-miterlimit="10"/>
<path d="M236.094 113.797L299.625 126.392" stroke="#E2E2E2" stroke-miterlimit="10"/>
<path d="M238.984 99.2461L295.985 110.552" stroke="#E2E2E2" stroke-miterlimit="10"/>
<path d="M239.982 94.207L271.379 100.433" stroke="#8D86FF" stroke-miterlimit="10"/>
<path d="M222.248 183.621L253.644 189.847" stroke="#8D86FF" stroke-miterlimit="10"/>
<path d="M238.123 103.578L258.978 107.718" stroke="#65DCB5" stroke-miterlimit="10"/>
<path d="M290.068 141.48L238.854 131.32L233.108 160.286L284.322 170.446L290.068 141.48Z" fill="white" stroke="#F4F4F4" stroke-miterlimit="10"/>
<path d="M250.258 137.615L243.121 136.199L238.791 158.029L245.927 159.444L250.258 137.615Z" fill="#8D86FF"/>
<path d="M260.699 146.752L253.562 145.336L250.582 160.359L257.719 161.775L260.699 146.752Z" fill="#65DCB5"/>
<path d="M271.42 154.498L264.283 153.082L262.373 162.71L269.51 164.125L271.42 154.498Z" fill="#F7836E"/>
<path d="M285.066 147.439L277.93 146.023L274.158 165.037L281.295 166.453L285.066 147.439Z" fill="#FDE161"/>
<path d="M269.44 152.126C273.201 152.126 276.249 149.078 276.249 145.317C276.249 141.556 273.201 138.508 269.44 138.508C265.679 138.508 262.631 141.556 262.631 145.317C262.631 149.078 265.679 152.126 269.44 152.126Z" fill="#E6E7E7"/>
<path d="M323.02 172.773L314.598 164.351C313.754 163.508 312.646 162.981 311.46 162.856C310.274 162.731 309.081 163.016 308.08 163.664L304.608 160.548C309.427 154.652 311.795 147.129 311.221 139.535C310.647 131.942 307.175 124.86 301.523 119.756C295.872 114.652 288.474 111.916 280.862 112.116C273.249 112.315 266.005 115.434 260.629 120.827C255.253 126.221 252.156 133.475 251.981 141.088C251.805 148.701 254.564 156.09 259.685 161.725C264.807 167.36 271.9 170.81 279.495 171.361C287.09 171.911 294.606 169.519 300.487 164.681L303.992 167.83C303.409 168.825 303.172 169.985 303.317 171.128C303.462 172.272 303.982 173.336 304.795 174.153L313.218 182.576C313.7 183.062 314.273 183.449 314.906 183.713C315.538 183.976 316.216 184.112 316.901 184.112C317.586 184.112 318.264 183.976 318.896 183.713C319.529 183.449 320.102 183.062 320.584 182.576L323.014 180.14C323.501 179.658 323.888 179.085 324.152 178.453C324.416 177.821 324.553 177.143 324.553 176.458C324.554 175.773 324.419 175.094 324.156 174.462C323.893 173.83 323.507 173.256 323.02 172.773ZM281.608 166.165C276.774 166.165 272.05 164.732 268.031 162.046C264.012 159.361 260.88 155.544 259.03 151.079C257.18 146.613 256.697 141.7 257.639 136.959C258.582 132.219 260.91 127.864 264.328 124.447C267.745 121.029 272.1 118.702 276.84 117.759C281.581 116.816 286.494 117.3 290.96 119.149C295.425 120.999 299.242 124.131 301.927 128.15C304.613 132.169 306.046 136.894 306.046 141.727C306.046 148.208 303.471 154.424 298.888 159.007C294.305 163.59 288.089 166.165 281.608 166.165Z" fill="#949A9E"/>
<path d="M222.016 234.704C221.28 234.768 220.496 234.832 219.664 234.896V233.632H222.16V232.688H219.664V231.632H218.608V232.688H216.752C217.152 232.16 217.536 231.552 217.888 230.88H222.272V229.856H218.368C218.496 229.568 218.608 229.28 218.72 228.992L217.568 228.8C217.44 229.152 217.296 229.504 217.152 229.856H214.928V230.88H216.64C216.256 231.6 215.824 232.208 215.376 232.72L215.632 233.632H218.608V234.96C217.52 235.024 216.352 235.072 215.136 235.136L215.28 236.16C216.432 236.096 217.552 236.016 218.608 235.952V237.104H219.664V235.872C220.48 235.792 221.264 235.712 222.016 235.648V234.704ZM224.256 233.648H226.336V237.12H227.44V233.648H229.136V232.64H224.336V230.976C226.064 230.784 227.504 230.416 228.688 229.904L227.952 229.04C226.832 229.552 225.264 229.904 223.28 230.096V232.608C223.248 234.048 222.864 235.28 222.16 236.32L222.96 237.152C223.648 236.16 224.08 234.992 224.256 233.648ZM227.344 237.584H216.848V243.6H218.032V242.976H226.16V243.6H227.344V237.584ZM218.032 241.984V240.736H226.16V241.984H218.032ZM218.032 239.808V238.56H226.16V239.808H218.032ZM232.128 229.792V230.912H236.72V231.984C236.704 232.976 236.64 233.92 236.512 234.784H231.056V235.888H236.32C236.112 236.896 235.824 237.808 235.44 238.608C234.576 240.24 233.056 241.536 230.848 242.528L231.488 243.552C233.712 242.592 235.312 241.232 236.304 239.504C236.848 238.48 237.248 237.28 237.504 235.888H238.8V241.712C238.8 242.8 239.312 243.344 240.368 243.344H242.96C243.632 243.344 244.112 243.2 244.416 242.912C244.768 242.56 245.008 241.616 245.136 240.048L244.048 239.696C243.968 240.944 243.824 241.68 243.6 241.936C243.424 242.144 243.136 242.256 242.752 242.256H240.72C240.208 242.256 239.952 241.984 239.952 241.472V235.888H244.912V234.784H237.68C237.792 233.92 237.856 232.976 237.888 231.984V230.912H243.616V229.792H232.128ZM256.528 232.48H258.896C258.832 234.64 258.496 236.528 257.872 238.144C257.232 236.8 256.72 235.184 256.32 233.312L256.528 232.48ZM257.344 239.296C256.608 240.656 255.632 241.76 254.384 242.624L254.976 243.584C256.176 242.72 257.168 241.648 257.936 240.368C258.736 241.712 259.696 242.8 260.816 243.6L261.44 242.656C260.288 241.872 259.312 240.768 258.48 239.328C259.376 237.44 259.872 235.152 259.952 232.48H260.992V231.376H256.768C256.896 230.672 257.024 229.904 257.12 229.088L256 228.896C255.68 231.936 255.04 234.352 254.096 236.144L254.816 237.024C255.152 236.448 255.472 235.792 255.76 235.056C256.192 236.656 256.72 238.064 257.344 239.296ZM249.76 236.368C249.648 236.688 249.52 237.024 249.376 237.376H247.04V238.384H248.928C248.608 239.024 248.24 239.68 247.824 240.384C248.608 240.672 249.344 240.976 250.048 241.28C249.12 241.808 247.984 242.24 246.672 242.592L247.216 243.552C248.816 243.104 250.144 242.512 251.2 241.776C252.144 242.192 252.96 242.624 253.664 243.04L254.288 242.144C253.584 241.76 252.848 241.408 252.08 241.056C252.912 240.288 253.504 239.376 253.856 238.32V237.376H250.512C250.608 237.088 250.72 236.8 250.832 236.496L249.76 236.368ZM251.024 240.608C250.448 240.368 249.84 240.144 249.2 239.92C249.52 239.44 249.808 238.928 250.064 238.384H252.816C252.432 239.216 251.824 239.968 251.024 240.608ZM248.304 229.232L247.392 229.536C247.776 230.144 248.128 230.832 248.464 231.616L249.296 231.232C249.008 230.528 248.688 229.856 248.304 229.232ZM253.168 229.184C252.88 229.856 252.464 230.528 251.952 231.216L252.768 231.632C253.28 230.96 253.68 230.272 254 229.568L253.168 229.184ZM247.072 232V233.008H249.344C248.864 233.888 248 234.688 246.768 235.408L247.328 236.336C248.704 235.408 249.664 234.32 250.192 233.056V236.096H251.264V234.016C251.84 234.4 252.528 234.912 253.328 235.552L253.92 234.656C253.024 234.112 252.128 233.616 251.264 233.184V233.008H254.176V232H251.264V228.944H250.192V232H247.072ZM264.624 243.456C265.52 243.456 265.968 242.976 265.968 242.048V237.376C266.464 237.152 266.96 236.928 267.456 236.672V235.536C266.976 235.792 266.48 236.032 265.968 236.256V233.104H267.504V232H265.968V228.976H264.848V232H262.928V233.104H264.848V236.72C264.144 236.976 263.408 237.2 262.672 237.376L262.96 238.496C263.584 238.304 264.208 238.08 264.848 237.84V241.76C264.848 242.208 264.64 242.448 264.24 242.448C263.856 242.448 263.44 242.416 263.024 242.368L263.264 243.456H264.624ZM269.408 236.384H272.672V238.352H270V243.6H271.072V242.816H275.408V243.6H276.48V238.352H273.792V236.384H277.216V235.344H273.792V233.456H276.8V229.568H268.368V234.576C268.352 237.936 267.776 240.688 266.64 242.8L267.536 243.6C268.592 241.52 269.216 239.12 269.408 236.384ZM272.672 233.456V235.344H269.472C269.472 235.088 269.488 234.832 269.488 234.576V233.456H272.672ZM271.072 241.792V239.376H275.408V241.792H271.072ZM275.68 230.64V232.416H269.488V230.64H275.68Z" fill="black" fill-opacity="0.45"/>
<defs>
<filter id="filter0_d_3361_67398" x="199.631" y="82.7383" width="93.4512" height="121.555" filterUnits="userSpaceOnUse" color-interpolation-filters="sRGB">
<feFlood flood-opacity="0" result="BackgroundImageFix"/>
<feColorMatrix in="SourceAlpha" type="matrix" values="0 0 0 0 0 0 0 0 0 0 0 0 0 0 0 0 0 0 127 0" result="hardAlpha"/>
<feOffset/>
<feGaussianBlur stdDeviation="3"/>
<feComposite in2="hardAlpha" operator="out"/>
<feColorMatrix type="matrix" values="0 0 0 0 0 0 0 0 0 0 0 0 0 0 0 0 0 0 0.12 0"/>
<feBlend mode="normal" in2="BackgroundImageFix" result="effect1_dropShadow_3361_67398"/>
<feBlend mode="normal" in="SourceGraphic" in2="effect1_dropShadow_3361_67398" result="shape"/>
</filter>
<filter id="filter1_d_3361_67398" x="208.344" y="75.4531" width="113.281" height="135.324" filterUnits="userSpaceOnUse" color-interpolation-filters="sRGB">
<feFlood flood-opacity="0" result="BackgroundImageFix"/>
<feColorMatrix in="SourceAlpha" type="matrix" values="0 0 0 0 0 0 0 0 0 0 0 0 0 0 0 0 0 0 127 0" result="hardAlpha"/>
<feOffset/>
<feGaussianBlur stdDeviation="3"/>
<feComposite in2="hardAlpha" operator="out"/>
<feColorMatrix type="matrix" values="0 0 0 0 0 0 0 0 0 0 0 0 0 0 0 0 0 0 0.12 0"/>
<feBlend mode="normal" in2="BackgroundImageFix" result="effect1_dropShadow_3361_67398"/>
<feBlend mode="normal" in="SourceGraphic" in2="effect1_dropShadow_3361_67398" result="shape"/>
</filter>
</defs>
</svg>
