<svg width="25" height="25" viewBox="0 0 25 25" fill="none" xmlns="http://www.w3.org/2000/svg">
<g id="Frame">
<path id="Vector" d="M6.88918 3.37988H7.4599C7.9839 3.37969 8.50281 3.48274 8.98698 3.68314C9.47114 3.88353 9.91109 4.17735 10.2817 4.54781C10.6523 4.91826 10.9462 5.3581 11.1468 5.8422C11.3474 6.32629 11.4506 6.84516 11.4506 7.36916V11.9292H6.89062C6.36662 11.9294 5.84772 11.8263 5.36355 11.6259C4.87938 11.4255 4.43944 11.1317 4.06884 10.7612C3.69825 10.3908 3.40428 9.95094 3.20371 9.46685C3.00314 8.98275 2.8999 8.46388 2.8999 7.93988V7.36916C2.8999 6.31114 3.3202 5.29645 4.06834 4.54832C4.81647 3.80018 5.83116 3.37988 6.88918 3.37988ZM6.88918 13.0692H11.4492V17.6292C11.4494 18.1531 11.3463 18.672 11.146 19.1561C10.9456 19.6403 10.6518 20.0802 10.2814 20.4508C9.91102 20.8214 9.47124 21.1153 8.9872 21.3159C8.50316 21.5165 7.98434 21.6198 7.46038 21.6199H6.88918C5.83116 21.6199 4.81647 21.1996 4.06834 20.4515C3.3202 19.7033 2.8999 18.6886 2.8999 17.6306V17.0599C2.89971 16.5359 3.00276 16.017 3.20315 15.5328C3.40355 15.0486 3.69737 14.6087 4.06783 14.2381C4.43828 13.8675 4.87812 13.5735 5.36222 13.373C5.84631 13.1724 6.36518 13.0692 6.88918 13.0692ZM16.5799 3.37988H17.1506C18.2086 3.37988 19.2233 3.80018 19.9715 4.54832C20.7196 5.29645 21.1399 6.31114 21.1399 7.36916V7.93988C21.1401 8.46388 21.037 8.98279 20.8367 9.46696C20.6363 9.95113 20.3424 10.3911 19.972 10.7617C19.6015 11.1323 19.1617 11.4262 18.6776 11.6268C18.1935 11.8274 17.6746 11.9306 17.1506 11.9306H12.5906V7.3706C12.5904 6.84664 12.6935 6.32778 12.8938 5.84364C13.0942 5.3595 13.388 4.91958 13.7584 4.54899C14.1288 4.17841 14.5686 3.88442 15.0526 3.68382C15.5366 3.48323 16.0555 3.37995 16.5794 3.37988H16.5799ZM12.5892 13.0692H17.1492C17.6733 13.069 18.1923 13.1721 18.6766 13.3726C19.1609 13.573 19.6009 13.867 19.9715 14.2376C20.3421 14.6082 20.636 15.0482 20.8365 15.5325C21.037 16.0167 21.1401 16.5358 21.1399 17.0599V17.6306C21.1399 18.6886 20.7196 19.7033 19.9715 20.4515C19.2233 21.1996 18.2086 21.6199 17.1506 21.6199H16.5799C16.0559 21.6201 15.537 21.517 15.0528 21.3166C14.5687 21.1162 14.1287 20.8224 13.7581 20.452C13.3875 20.0815 13.0936 19.6417 12.893 19.1576C12.6924 18.6735 12.5892 18.1546 12.5892 17.6306V13.0692Z" fill="white"/>
</g>
</svg>
