<svg width="37" height="36" viewBox="0 0 37 36" fill="none" xmlns="http://www.w3.org/2000/svg">
<g id="Frame" clip-path="url(#clip0_2433_15943)">
<path id="Vector" d="M0.5 18C0.5 22.7739 2.39642 27.3523 5.77208 30.7279C9.14773 34.1036 13.7261 36 18.5 36C23.2739 36 27.8523 34.1036 31.2279 30.7279C34.6036 27.3523 36.5 22.7739 36.5 18C36.5 13.2261 34.6036 8.64773 31.2279 5.27208C27.8523 1.89642 23.2739 0 18.5 0C13.7261 0 9.14773 1.89642 5.77208 5.27208C2.39642 8.64773 0.5 13.2261 0.5 18Z" fill="#FE9E17"/>
<path id="Vector_2" d="M13.3569 11.5716C13.3569 12.9355 13.8988 14.2436 14.8632 15.2081C15.8277 16.1726 17.1358 16.7144 18.4998 16.7144C19.8638 16.7144 21.1719 16.1726 22.1363 15.2081C23.1008 14.2436 23.6426 12.9355 23.6426 11.5716C23.6426 10.2076 23.1008 8.89949 22.1363 7.93502C21.1719 6.97055 19.8638 6.42871 18.4998 6.42871C17.1358 6.42871 15.8277 6.97055 14.8632 7.93502C13.8988 8.89949 13.3569 10.2076 13.3569 11.5716Z" fill="white"/>
<path id="Vector_3" d="M12.0716 19.2856H24.9288C25.9517 19.2857 26.9327 19.6922 27.6559 20.4155C28.3792 21.1389 28.7855 22.1199 28.7855 23.1428C28.7855 24.1657 28.3792 25.1467 27.6559 25.8701C26.9327 26.5934 25.9517 26.9998 24.9288 26.9999H12.0716C11.0487 26.9998 10.0677 26.5934 9.34444 25.8701C8.62117 25.1467 8.21484 24.1657 8.21484 23.1428C8.21484 22.1199 8.62117 21.1389 9.34444 20.4155C10.0677 19.6922 11.0487 19.2857 12.0716 19.2856Z" fill="white"/>
<path id="Vector_4" d="M24.9284 16.0713C23.9997 16.0713 23.0802 16.2542 22.2222 16.6096C21.3643 16.9649 20.5848 17.4858 19.9281 18.1425C19.2715 18.7991 18.7506 19.5787 18.3952 20.4366C18.0398 21.2945 17.8569 22.2141 17.8569 23.1427C17.8569 24.0714 18.0398 24.9909 18.3952 25.8488C18.7506 26.7068 19.2715 27.4863 19.9281 28.143C20.5848 28.7996 21.3643 29.3205 22.2222 29.6759C23.0802 30.0312 23.9997 30.2141 24.9284 30.2141C26.8038 30.2141 28.6025 29.4691 29.9286 28.143C31.2548 26.8168 31.9998 25.0182 31.9998 23.1427C31.9998 21.2673 31.2548 19.4686 29.9286 18.1425C28.6025 16.8163 26.8038 16.0713 24.9284 16.0713Z" fill="#FE9E17"/>
<path id="Vector_5" d="M24.9283 17.3569C25.6882 17.3569 26.4406 17.5065 27.1426 17.7972C27.8446 18.0879 28.4824 18.5141 29.0197 19.0514C29.557 19.5886 29.9833 20.2265 30.274 20.9284C30.5648 21.6304 30.7145 22.3828 30.7145 23.1426C30.7145 23.9025 30.5648 24.6549 30.274 25.3568C29.9833 26.0588 29.557 26.6967 29.0197 27.2339C28.4824 27.7712 27.8446 28.1973 27.1426 28.4881C26.4406 28.7788 25.6882 28.9284 24.9283 28.9284C23.3939 28.9282 21.9224 28.3186 20.8375 27.2336C19.7526 26.1486 19.1431 24.677 19.1431 23.1426C19.1431 21.6083 19.7526 20.1367 20.8375 19.0517C21.9224 17.9667 23.3939 17.3571 24.9283 17.3569Z" fill="white"/>
<path id="Vector_6" d="M27.7751 23.1838H25.8028V23.9424H27.7751C28.0476 23.9424 28.2713 24.1404 28.2713 24.3821V24.8192C28.2713 25.0584 28.0476 25.2564 27.7751 25.2564H25.8028V26.5626C25.8028 26.8044 25.5816 26.9998 25.3065 26.9998H24.8102C24.5351 26.9998 24.3113 26.8044 24.3113 26.5626V25.2564H22.3391C22.0665 25.2564 21.8428 25.0584 21.8428 24.8166V24.3795C21.8428 24.1378 22.0665 23.9424 22.3391 23.9424H24.3113V23.1812H22.3391C22.0665 23.1812 21.8428 22.9832 21.8428 22.7441V22.3069C21.8428 22.0652 22.0665 21.8698 22.3391 21.8698H23.6351L21.9971 20.3141C21.9558 20.2756 21.9229 20.229 21.9004 20.1772C21.8779 20.1255 21.8663 20.0696 21.8663 20.0132C21.8663 19.9568 21.8779 19.9009 21.9004 19.8492C21.9229 19.7974 21.9558 19.7508 21.9971 19.7124L22.3108 19.4115C22.4831 19.2469 22.8199 19.2418 22.9922 19.4115L25.0545 21.3658L27.1193 19.4115C27.2916 19.2444 27.6311 19.2444 27.8008 19.4115L28.1171 19.7149C28.1584 19.7536 28.1914 19.8004 28.2139 19.8524C28.2364 19.9044 28.248 19.9604 28.248 20.0171C28.248 20.0737 28.2364 20.1298 28.2139 20.1817C28.1914 20.2337 28.1584 20.2805 28.1171 20.3192L26.4816 21.8724H27.7751C28.0476 21.8724 28.2713 22.0678 28.2713 22.3095V22.7441C28.2713 22.9858 28.0476 23.1812 27.7751 23.1812V23.1838Z" fill="#FE9E17"/>
</g>
<defs>
<clipPath id="clip0_2433_15943">
<rect width="36" height="36" fill="white" transform="translate(0.5)"/>
</clipPath>
</defs>
</svg>
