<svg width="16" height="16" viewBox="0 0 16 16" fill="" xmlns="http://www.w3.org/2000/svg">
<path fill-rule="evenodd" clip-rule="evenodd" d="M6.33598 4.12803L4.63998 5.82403C4.99198 6.49603 4.89598 7.36003 4.28798 7.96803C3.96798 8.32003 3.48798 8.48003 3.03998 8.48003C2.59198 8.48003 2.14398 8.32003 1.79198 7.96803C1.08798 7.26403 1.08798 6.14403 1.79198 5.44003C2.36798 4.86403 3.23198 4.76803 3.90398 5.12003L5.59998 3.42403C6.81598 2.24003 8.79998 2.30403 10.08 3.58403C10.688 4.19203 11.04 4.99203 11.072 5.82403C11.104 6.65603 10.816 7.45603 10.24 8.03203L8.28798 9.98403L7.58398 9.28003L9.53598 7.32803C9.91998 6.94403 10.112 6.43203 10.08 5.85603C10.048 5.28003 9.79198 4.70403 9.37598 4.28803C8.47998 3.42403 7.13598 3.32803 6.33598 4.12803ZM2.52798 6.14403C2.23998 6.43203 2.23998 6.94403 2.52798 7.23203C2.81598 7.52003 3.32798 7.52003 3.61598 7.23203C3.90398 6.91203 3.90398 6.43203 3.61598 6.14403C3.45598 5.98403 3.26398 5.92003 3.07198 5.92003C2.87998 5.92003 2.68798 5.98403 2.52798 6.14403ZM11.424 7.80803C12.128 7.10403 13.248 7.10403 13.952 7.80803C14.656 8.48003 14.656 9.63203 13.952 10.4C13.632 10.752 13.152 10.912 12.704 10.912C12.384 10.912 12.096 10.816 11.84 10.688L10.144 12.384C9.56798 12.928 8.83198 13.216 8.06398 13.216C7.19998 13.216 6.33598 12.864 5.66398 12.192C4.38398 10.912 4.31998 8.89603 5.50398 7.71203L7.45598 5.76003L8.15998 6.46403L6.20798 8.41603C5.40798 9.21603 5.47198 10.592 6.36798 11.456C7.26398 12.32 8.60798 12.416 9.40798 11.616L11.104 9.92003C10.752 9.24803 10.848 8.38403 11.424 7.80803ZM12.16 8.51203C11.872 8.80003 11.872 9.31203 12.16 9.60003C12.448 9.88803 12.96 9.88803 13.248 9.60003C13.536 9.31203 13.536 8.80003 13.248 8.51203C13.088 8.35203 12.896 8.28803 12.704 8.28803C12.512 8.28803 12.32 8.35203 12.16 8.51203Z" fill=""/>
</svg>
