<svg width="16" height="16" viewBox="0 0 16 16" fill="" xmlns="http://www.w3.org/2000/svg">
<path d="M12.631 13.8464C12.6881 13.8467 12.7428 13.8695 12.7832 13.9099C12.8236 13.9503 12.8464 14.0049 12.8466 14.0621V14.7079C12.8466 14.8261 12.7502 14.9236 12.631 14.9236H3.37009C3.34169 14.9236 3.31357 14.9179 3.28734 14.9071C3.26112 14.8962 3.23731 14.8802 3.21727 14.8601C3.19724 14.8399 3.18137 14.816 3.1706 14.7898C3.15982 14.7635 3.15434 14.7353 3.15447 14.707V14.0621C3.15447 14.0048 3.17715 13.9498 3.21756 13.9092C3.25797 13.8686 3.31281 13.8457 3.37009 13.8454H12.631V13.8464ZM14.5342 2.00098C14.7912 2.00098 14.9999 2.22055 14.9999 2.49032V12.279C15.0031 12.4057 14.9558 12.5286 14.8685 12.6205C14.7812 12.7124 14.661 12.766 14.5342 12.7693H1.46592C1.33917 12.766 1.21893 12.7124 1.13162 12.6205C1.0443 12.5286 0.997036 12.4057 1.00021 12.279V2.49032C1.0012 2.22055 1.20993 2 1.46592 2H14.5332L14.5342 2.00098ZM13.9238 3.07713H2.07635V11.6922H5.36484V8.71186L5.355 8.61439C5.33223 8.4907 5.2669 8.37888 5.17033 8.29831C5.07376 8.21775 4.95204 8.17352 4.82628 8.1733L4.24538 8.17231L4.72782 8.55728L4.79083 8.61931C4.85668 8.70171 4.89005 8.8054 4.88461 8.91074C4.87918 9.01608 4.83532 9.11578 4.76135 9.19097C4.68737 9.26616 4.5884 9.31163 4.48315 9.31878C4.37791 9.32592 4.2737 9.29425 4.19024 9.22975L2.62575 7.98229L2.56077 7.92026C2.52428 7.87602 2.49699 7.82494 2.48049 7.77002C2.46399 7.7151 2.4586 7.65744 2.46465 7.60041C2.47071 7.54339 2.48807 7.48814 2.51573 7.43791C2.54339 7.38767 2.58079 7.34346 2.62575 7.30785L4.19123 6.06335L4.26408 6.01609C4.35252 5.97122 4.45374 5.95827 4.55062 5.97944C4.6475 6.00061 4.7341 6.0546 4.79576 6.13227L4.84302 6.20513C4.8877 6.2936 4.90054 6.39477 4.87938 6.4916C4.85822 6.58844 4.80435 6.67503 4.72684 6.7368L4.2759 7.09617H4.82628L4.98184 7.10503C5.3814 7.1437 5.75222 7.32982 6.02199 7.62708C6.29176 7.92434 6.44114 8.31142 6.44098 8.71285V11.6932H7.46199V5.79554L7.09277 6.2642C7.03098 6.34171 6.94433 6.3955 6.84745 6.41649C6.75058 6.43748 6.64943 6.42438 6.5611 6.3794L6.48726 6.33312C6.40959 6.27147 6.3556 6.18487 6.33443 6.08799C6.31326 5.99111 6.32621 5.88989 6.37108 5.80145L6.41834 5.72662L7.66383 4.16115C7.69941 4.11644 7.74353 4.07927 7.79363 4.0518C7.84373 4.02433 7.8988 4.00711 7.95563 4.00115C8.01245 3.9952 8.0699 4.00062 8.1246 4.0171C8.17931 4.03358 8.23019 4.06079 8.27427 4.09715L8.33728 4.16213L9.58868 5.72465C9.65787 5.80779 9.69322 5.91394 9.68767 6.02197C9.68212 6.12999 9.63609 6.23197 9.55874 6.30758C9.48139 6.38319 9.3784 6.42689 9.27027 6.42999C9.16215 6.43308 9.05683 6.39533 8.97529 6.32426L8.91523 6.26223L8.5401 5.79358V11.6912H9.56308V8.71186C9.56295 8.31029 9.71246 7.92307 9.98244 7.62579C10.2524 7.32851 10.6235 7.14249 11.0232 7.10405L11.1798 7.09617L11.6927 7.09519L11.2418 6.7368C11.1643 6.67503 11.1104 6.58844 11.0892 6.4916C11.0681 6.39477 11.0809 6.2936 11.1256 6.20513L11.1729 6.13128C11.2345 6.05362 11.3211 5.99963 11.418 5.97846C11.5149 5.95729 11.6161 5.97023 11.7045 6.0151L11.7784 6.06236L13.3429 7.30687C13.3879 7.34239 13.4254 7.38657 13.4532 7.43681C13.4809 7.48704 13.4983 7.54232 13.5044 7.59938C13.5104 7.65645 13.505 7.71415 13.4884 7.76908C13.4719 7.82402 13.4445 7.87509 13.4079 7.91928L13.3429 7.9813L11.7794 9.23073C11.6963 9.29885 11.5907 9.33342 11.4834 9.32764C11.3762 9.32186 11.2749 9.27616 11.1996 9.19951C11.1243 9.12286 11.0805 9.02083 11.0766 8.91346C11.0727 8.80609 11.1092 8.70116 11.1788 8.61931L11.2418 8.55728L11.7232 8.17231H11.1798C11.0538 8.17231 10.9319 8.21643 10.8351 8.29701C10.7383 8.3776 10.6728 8.48955 10.6501 8.6134L10.6402 8.71088V11.6922H13.9248V3.07713H13.9238Z" fill=""/>
</svg>
