<svg width="16" height="16" viewBox="0 0 16 16" fill="" xmlns="http://www.w3.org/2000/svg">
<g id="Frame">
<path id="Vector" d="M14.3 10.513H13.593V7.713V7.678V7.636C13.593 7.622 13.586 7.615 13.586 7.601C13.586 7.587 13.579 7.58 13.579 7.566C13.579 7.559 13.572 7.552 13.572 7.538C13.572 7.531 13.565 7.524 13.565 7.517C13.565 7.51 13.558 7.503 13.558 7.496C13.551 7.482 13.551 7.475 13.544 7.461C13.523 7.419 13.502 7.384 13.474 7.356C13.46 7.342 13.453 7.328 13.439 7.314C13.425 7.3 13.411 7.293 13.397 7.279L13.341 7.244L13.313 7.23L13.25 7.202C13.18 7.174 13.11 7.16 13.033 7.16H8.553V4.92H9.253C9.638 4.92 9.953 4.605 9.953 4.22V1.7C9.953 1.315 9.638 1 9.253 1H6.733C6.348 1 6.033 1.315 6.033 1.7V4.22C6.033 4.605 6.348 4.92 6.733 4.92H7.433V7.16H2.953C2.645 7.16 2.393 7.412 2.393 7.72V10.52H1.7C1.315 10.52 1 10.835 1 11.22V13.74C1 14.125 1.315 14.44 1.7 14.44H4.22C4.605 14.44 4.92 14.125 4.92 13.74V11.22C4.92 10.835 4.605 10.52 4.22 10.52H3.513V8.28H7.433V10.52H6.74C6.355 10.52 6.04 10.835 6.04 11.22V13.74C6.04 14.125 6.355 14.44 6.74 14.44H9.26C9.645 14.44 9.96 14.125 9.96 13.74V11.22C9.96 10.835 9.645 10.52 9.26 10.52H8.553V8.28H12.473V10.52H11.78C11.395 10.52 11.08 10.835 11.08 11.22V13.74C11.08 14.125 11.395 14.44 11.78 14.44H14.3C14.685 14.44 15 14.125 15 13.74V11.22C15 10.821 14.685 10.513 14.3 10.513ZM3.8 11.633V13.313H2.12V11.633H3.8ZM8.84 11.633V13.313H7.16V11.633H8.84ZM7.153 3.793V2.113H8.833V3.793H7.153ZM13.88 13.313H12.2V11.633H13.88V13.313Z" fill=""/>
</g>
</svg>
