<svg width="14" height="14" viewBox="0 0 14 14" fill="" xmlns="http://www.w3.org/2000/svg">
<path fill-rule="evenodd" clip-rule="evenodd" d="M7.76562 1.53125H12.3594C12.3884 1.53125 12.4162 1.54277 12.4367 1.56329C12.4572 1.5838 12.4688 1.61162 12.4688 1.64062V2.51562C12.4688 2.54463 12.4572 2.57245 12.4367 2.59296C12.4162 2.61348 12.3884 2.625 12.3594 2.625H7.76562C7.73662 2.625 7.7088 2.61348 7.68828 2.59296C7.66777 2.57245 7.65625 2.54463 7.65625 2.51562V1.64062C7.65625 1.61162 7.66777 1.5838 7.68828 1.56329C7.7088 1.54277 7.73662 1.53125 7.76562 1.53125ZM1.64062 11.375H6.23438C6.26338 11.375 6.2912 11.3865 6.31172 11.407C6.33223 11.4275 6.34375 11.4554 6.34375 11.4844V12.3594C6.34375 12.3884 6.33223 12.4162 6.31172 12.4367C6.2912 12.4572 6.26338 12.4688 6.23438 12.4688H1.64062C1.61162 12.4688 1.5838 12.4572 1.56329 12.4367C1.54277 12.4162 1.53125 12.3884 1.53125 12.3594V11.4844C1.53125 11.4554 1.54277 11.4275 1.56329 11.407C1.5838 11.3865 1.61162 11.375 1.64062 11.375ZM5.90625 1.53125H1.96875C1.85272 1.53125 1.74144 1.57734 1.65939 1.65939C1.57734 1.74144 1.53125 1.85272 1.53125 1.96875V9.1875C1.53125 9.30353 1.57734 9.41481 1.65939 9.49686C1.74144 9.57891 1.85272 9.625 1.96875 9.625H5.90625C6.02228 9.625 6.13356 9.57891 6.21561 9.49686C6.29766 9.41481 6.34375 9.30353 6.34375 9.1875V1.96875C6.34375 1.85272 6.29766 1.74144 6.21561 1.65939C6.13356 1.57734 6.02228 1.53125 5.90625 1.53125ZM5.35938 8.64062H2.51562V2.51562H5.35938V8.64062ZM8.09375 4.375H12.0312C12.1473 4.375 12.2586 4.42109 12.3406 4.50314C12.4227 4.58519 12.4688 4.69647 12.4688 4.8125V12.0312C12.4688 12.1473 12.4227 12.2586 12.3406 12.3406C12.2586 12.4227 12.1473 12.4688 12.0312 12.4688H8.09375C7.97772 12.4688 7.86644 12.4227 7.78439 12.3406C7.70234 12.2586 7.65625 12.1473 7.65625 12.0312V4.8125C7.65625 4.69647 7.70234 4.58519 7.78439 4.50314C7.86644 4.42109 7.97772 4.375 8.09375 4.375ZM8.64062 11.4844H11.4844V5.35938H8.64062V11.4844Z" fill=""/>
</svg>
