<svg width="16" height="17" viewBox="0 0 16 17" fill="none" xmlns="http://www.w3.org/2000/svg">
<g id="trash-02">
<path id="Icon (Stroke)" fill-rule="evenodd" clip-rule="evenodd" d="M5.33333 3.20586C5.33333 2.48424 5.8949 1.83331 6.66667 1.83331H9.33333C10.1051 1.83331 10.6667 2.48424 10.6667 3.20586V3.91174C10.6667 3.92484 10.6665 3.93791 10.6661 3.95096H13.3333C13.7015 3.95096 14 4.24944 14 4.61763C14 4.98582 13.7015 5.28429 13.3333 5.28429H12.6661C12.6665 5.29734 12.6667 5.31041 12.6667 5.32351V13.0882C12.6667 14.1997 11.8066 15.1666 10.6667 15.1666H5.33333C4.19338 15.1666 3.33333 14.1997 3.33333 13.0882V5.32351C3.33333 5.31041 3.33352 5.29734 3.33389 5.28429H2.66667C2.29848 5.28429 2 4.98582 2 4.61763C2 4.24944 2.29848 3.95096 2.66667 3.95096H5.33389C5.33352 3.93791 5.33333 3.92484 5.33333 3.91174V3.20586ZM4.67808 5.28429C4.67321 5.29051 4.66667 5.30311 4.66667 5.32351V13.0882C4.66667 13.5361 5.00053 13.8333 5.33333 13.8333H10.6667C10.9995 13.8333 11.3333 13.5361 11.3333 13.0882V5.32351C11.3333 5.30311 11.3268 5.29051 11.3219 5.28429H4.67808ZM6.67808 3.16665C6.67321 3.17286 6.66667 3.18547 6.66667 3.20586V3.91174C6.66667 3.93214 6.67321 3.94475 6.67808 3.95096H9.32192C9.32679 3.94475 9.33333 3.93214 9.33333 3.91174V3.20586C9.33333 3.18547 9.32679 3.17286 9.32192 3.16665H6.67808ZM6.66667 6.77449C7.03486 6.77449 7.33333 7.07297 7.33333 7.44116V11.6764C7.33333 12.0446 7.03486 12.3431 6.66667 12.3431C6.29848 12.3431 6 12.0446 6 11.6764V7.44116C6 7.07297 6.29848 6.77449 6.66667 6.77449ZM9.33333 6.77449C9.70152 6.77449 10 7.07297 10 7.44116V11.6764C10 12.0446 9.70152 12.3431 9.33333 12.3431C8.96514 12.3431 8.66667 12.0446 8.66667 11.6764V7.44116C8.66667 7.07297 8.96514 6.77449 9.33333 6.77449Z" fill="#1776FF"/>
</g>
</svg>
