<svg width="56" height="56" viewBox="0 0 56 56" fill="none" xmlns="http://www.w3.org/2000/svg">
<g id="Frame" clip-path="url(#clip0_402_29091)">
<path id="Vector" d="M55.0973 51.8175L48.6056 55.5333C48.0331 55.8331 47.3974 55.992 46.7511 55.9969C46.1049 56.0018 45.4668 55.8524 44.8898 55.5613L37.4622 51.3495C37.4222 51.3215 37.3022 51.3215 37.2662 51.3495L30.0705 55.5053C29.498 55.8051 28.8623 55.964 28.216 55.9689C27.5698 55.9738 26.9317 55.8244 26.3547 55.5333L18.8111 51.3175C18.7711 51.2895 18.6511 51.2895 18.6111 51.3175L11.3834 55.4773C10.8042 55.7781 10.162 55.9377 9.50937 55.9433C8.8567 55.9488 8.21195 55.8001 7.62763 55.5093L0.943954 51.7935C0.431979 51.4975 0 50.8815 0 50.3576V7.07966C0 5.19975 1.01595 3.38784 2.69987 2.0799C4.37979 0.759963 6.79967 0 9.26755 0H47.4457C52.1655 0 55.9973 2.86386 55.9973 6.39969V50.2976C55.9758 50.6034 55.8832 50.9001 55.727 51.1639C55.5708 51.4278 55.3552 51.6516 55.0973 51.8175ZM23.4589 21.159C23.6905 21.1597 23.9199 21.1132 24.1331 21.0225C24.3463 20.9317 24.5387 20.7985 24.6988 20.631C25.0253 20.2993 25.2139 19.8563 25.2268 19.3911C25.2205 18.9234 25.0317 18.4768 24.7007 18.1464C24.3696 17.8161 23.9225 17.6283 23.4549 17.6231H21.083L23.4549 14.7633C23.7565 14.3934 23.9052 13.922 23.8702 13.4459C23.8352 12.9699 23.6194 12.5253 23.2669 12.2034C23.0865 12.0528 22.8782 11.9392 22.6539 11.8691C22.4296 11.799 22.1937 11.7739 21.9597 11.795C21.7256 11.8162 21.4981 11.8833 21.29 11.9925C21.0819 12.1017 20.8974 12.2508 20.747 12.4314L17.3592 16.5272C17.3192 16.6392 17.2072 16.6792 17.1672 16.7512C17.1312 16.6392 17.0552 16.6032 17.0192 16.5272L13.6313 12.4274C13.4898 12.2405 13.3115 12.0846 13.1073 11.9693C12.9032 11.854 12.6776 11.7818 12.4445 11.7571C12.2114 11.7323 11.9757 11.7556 11.7519 11.8255C11.5281 11.8954 11.3211 12.0104 11.1435 12.1634C10.7901 12.4848 10.5736 12.9295 10.5386 13.4058C10.5036 13.8822 10.6529 14.3538 10.9555 14.7233L13.3274 17.5791H11.5994C11.3678 17.5784 11.1384 17.6249 10.9252 17.7157C10.712 17.8064 10.5196 17.9396 10.3595 18.1071C10.033 18.4388 9.84436 18.8818 9.83152 19.3471C9.83152 20.363 10.6595 21.119 11.5994 21.119H15.5552V24.0508H11.5994C11.3678 24.0501 11.1384 24.0966 10.9252 24.1873C10.712 24.2781 10.5196 24.4113 10.3595 24.5788C10.033 24.9105 9.84436 25.3535 9.83152 25.8187C9.83152 26.8347 10.6595 27.5867 11.5994 27.5867H15.5552V29.9585C15.5552 30.9745 16.3832 31.7265 17.3232 31.7265C17.7889 31.7153 18.2326 31.5256 18.5624 31.1966C18.8922 30.8675 19.0829 30.4243 19.0951 29.9585V27.5867H23.5749C23.8062 27.5879 24.0355 27.5421 24.2486 27.452C24.4618 27.3619 24.6544 27.2295 24.8148 27.0627C25.1413 26.731 25.3299 26.288 25.3428 25.8227C25.3376 25.3551 25.1498 24.908 24.8195 24.5769C24.4891 24.2459 24.0425 24.0571 23.5749 24.0508H19.1271V21.119H23.4549V21.155L23.4589 21.159ZM42.6179 12.4674H32.8744C32.6427 12.4667 32.4133 12.5131 32.2002 12.6039C31.987 12.6947 31.7945 12.8279 31.6345 12.9954C31.3065 13.3264 31.1164 13.7695 31.1025 14.2353C31.1025 15.2513 31.9305 16.0032 32.8744 16.0032H42.6259C42.8573 16.0044 43.0866 15.9586 43.2997 15.8685C43.5128 15.7785 43.7055 15.646 43.8659 15.4792C44.1923 15.1476 44.381 14.7045 44.3938 14.2393C44.4338 13.2954 43.6059 12.4674 42.6259 12.4674H42.6179ZM42.6179 24.2828H32.8744C32.643 24.2816 32.4138 24.3274 32.2006 24.4175C31.9875 24.5076 31.7949 24.64 31.6345 24.8068C31.3065 25.1378 31.1164 25.581 31.1025 26.0467C31.1025 27.0667 31.9305 27.8186 32.8744 27.8186H42.6259C42.8576 27.8193 43.087 27.7729 43.3002 27.6821C43.5133 27.5914 43.7058 27.4582 43.8659 27.2907C44.1923 26.959 44.381 26.5159 44.3938 26.0507C44.4338 25.1108 43.6059 24.2828 42.6259 24.2828H42.6179ZM42.9619 36.1342H10.8395C10.3762 36.1416 9.93451 36.3314 9.61027 36.6624C9.28603 36.9933 9.10539 37.4388 9.10756 37.9022C9.10756 38.8421 9.89952 39.6701 10.8395 39.6701H42.8779C43.3419 39.6637 43.7846 39.4744 44.1097 39.1434C44.4348 38.8123 44.616 38.3662 44.6138 37.9022C44.6235 37.6768 44.588 37.4518 44.5096 37.2403C44.4312 37.0288 44.3114 36.835 44.1572 36.6704C44.003 36.5057 43.8175 36.3735 43.6116 36.2815C43.4057 36.1894 43.1834 36.1394 42.9579 36.1342H42.9619Z" fill="#CBDDFF"/>
</g>
<defs>
<clipPath id="clip0_402_29091">
<rect width="56" height="56" fill="white"/>
</clipPath>
</defs>
</svg>
