<svg width="57" height="56" viewBox="0 0 57 56" fill="none" xmlns="http://www.w3.org/2000/svg">
<g id="Frame" clip-path="url(#clip0_771_31892)">
<path id="Vector" d="M55.5973 51.8175L49.1056 55.5333C48.5331 55.8331 47.8974 55.992 47.2511 55.9969C46.6049 56.0018 45.9668 55.8524 45.3898 55.5613L37.9622 51.3495C37.9222 51.3215 37.8022 51.3215 37.7662 51.3495L30.5705 55.5053C29.998 55.8051 29.3623 55.964 28.716 55.9689C28.0698 55.9738 27.4317 55.8244 26.8547 55.5333L19.3111 51.3175C19.2711 51.2895 19.1511 51.2895 19.1111 51.3175L11.8834 55.4773C11.3042 55.7781 10.662 55.9377 10.0094 55.9433C9.3567 55.9488 8.71195 55.8001 8.12763 55.5093L1.44395 51.7935C0.931979 51.4975 0.5 50.8815 0.5 50.3576V7.07966C0.5 5.19975 1.51595 3.38784 3.19987 2.0799C4.87979 0.759963 7.29967 0 9.76755 0H47.9457C52.6655 0 56.4973 2.86386 56.4973 6.39969V50.2976C56.4758 50.6034 56.3832 50.9001 56.227 51.1639C56.0708 51.4278 55.8552 51.6516 55.5973 51.8175ZM23.9589 21.159C24.1905 21.1597 24.4199 21.1132 24.6331 21.0225C24.8463 20.9317 25.0387 20.7985 25.1988 20.631C25.5253 20.2993 25.7139 19.8563 25.7268 19.3911C25.7205 18.9234 25.5317 18.4768 25.2007 18.1464C24.8696 17.8161 24.4225 17.6283 23.9549 17.6231H21.583L23.9549 14.7633C24.2565 14.3934 24.4052 13.922 24.3702 13.4459C24.3352 12.9699 24.1194 12.5253 23.7669 12.2034C23.5865 12.0528 23.3782 11.9392 23.1539 11.8691C22.9296 11.799 22.6937 11.7739 22.4597 11.795C22.2256 11.8162 21.9981 11.8833 21.79 11.9925C21.5819 12.1017 21.3974 12.2508 21.247 12.4314L17.8592 16.5272C17.8192 16.6392 17.7072 16.6792 17.6672 16.7512C17.6312 16.6392 17.5552 16.6032 17.5192 16.5272L14.1313 12.4274C13.9898 12.2405 13.8115 12.0846 13.6073 11.9693C13.4032 11.854 13.1776 11.7818 12.9445 11.7571C12.7114 11.7323 12.4757 11.7556 12.2519 11.8255C12.0281 11.8954 11.8211 12.0104 11.6435 12.1634C11.2901 12.4848 11.0736 12.9295 11.0386 13.4058C11.0036 13.8822 11.1529 14.3538 11.4555 14.7233L13.8274 17.5791H12.0994C11.8678 17.5784 11.6384 17.6249 11.4252 17.7157C11.212 17.8064 11.0196 17.9396 10.8595 18.1071C10.533 18.4388 10.3444 18.8818 10.3315 19.3471C10.3315 20.363 11.1595 21.119 12.0994 21.119H16.0552V24.0508H12.0994C11.8678 24.0501 11.6384 24.0966 11.4252 24.1873C11.212 24.2781 11.0196 24.4113 10.8595 24.5788C10.533 24.9105 10.3444 25.3535 10.3315 25.8187C10.3315 26.8347 11.1595 27.5867 12.0994 27.5867H16.0552V29.9585C16.0552 30.9745 16.8832 31.7265 17.8232 31.7265C18.2889 31.7153 18.7326 31.5256 19.0624 31.1966C19.3922 30.8675 19.5829 30.4243 19.5951 29.9585V27.5867H24.0749C24.3062 27.5879 24.5355 27.5421 24.7486 27.452C24.9618 27.3619 25.1544 27.2295 25.3148 27.0627C25.6413 26.731 25.8299 26.288 25.8428 25.8227C25.8376 25.3551 25.6498 24.908 25.3195 24.5769C24.9891 24.2459 24.5425 24.0571 24.0749 24.0508H19.6271V21.119H23.9549V21.155L23.9589 21.159ZM43.1179 12.4674H33.3744C33.1427 12.4667 32.9133 12.5131 32.7002 12.6039C32.487 12.6947 32.2945 12.8279 32.1345 12.9954C31.8065 13.3264 31.6164 13.7695 31.6025 14.2353C31.6025 15.2513 32.4305 16.0032 33.3744 16.0032H43.1259C43.3573 16.0044 43.5866 15.9586 43.7997 15.8685C44.0128 15.7785 44.2055 15.646 44.3659 15.4792C44.6923 15.1476 44.881 14.7045 44.8938 14.2393C44.9338 13.2954 44.1059 12.4674 43.1259 12.4674H43.1179ZM43.1179 24.2828H33.3744C33.143 24.2816 32.9138 24.3274 32.7006 24.4175C32.4875 24.5076 32.2949 24.64 32.1345 24.8068C31.8065 25.1378 31.6164 25.581 31.6025 26.0467C31.6025 27.0667 32.4305 27.8186 33.3744 27.8186H43.1259C43.3576 27.8193 43.587 27.7729 43.8002 27.6821C44.0133 27.5914 44.2058 27.4582 44.3659 27.2907C44.6923 26.959 44.881 26.5159 44.8938 26.0507C44.9338 25.1108 44.1059 24.2828 43.1259 24.2828H43.1179ZM43.4619 36.1342H11.3395C10.8762 36.1416 10.4345 36.3314 10.1103 36.6624C9.78603 36.9933 9.60539 37.4388 9.60756 37.9022C9.60756 38.8421 10.3995 39.6701 11.3395 39.6701H43.3779C43.8419 39.6637 44.2846 39.4744 44.6097 39.1434C44.9348 38.8123 45.116 38.3662 45.1138 37.9022C45.1235 37.6768 45.088 37.4518 45.0096 37.2403C44.9312 37.0288 44.8114 36.835 44.6572 36.6704C44.503 36.5057 44.3175 36.3735 44.1116 36.2815C43.9057 36.1894 43.6834 36.1394 43.4579 36.1342H43.4619Z" fill="#CBDDFF"/>
</g>
<defs>
<clipPath id="clip0_771_31892">
<rect width="56" height="56" fill="white" transform="translate(0.5)"/>
</clipPath>
</defs>
</svg>
