<svg width="20" height="20" viewBox="0 0 20 20" fill="" xmlns="http://www.w3.org/2000/svg">
<g id="Frame">
<path id="Vector" d="M12.9001 4.17002C12.9001 3.77002 12.6301 3.45002 12.3001 3.45002H4.10008C3.77008 3.45002 3.50008 3.77002 3.50008 4.17002C3.50008 4.57002 3.77008 4.89002 4.10008 4.89002H12.3001C12.6301 4.89002 12.9001 4.57002 12.9001 4.17002ZM4.11008 6.34002C3.77008 6.34002 3.50008 6.66002 3.50008 7.06002C3.50008 7.46002 3.77008 7.78002 4.11008 7.78002H9.40008C9.74008 7.78002 10.0101 7.46002 10.0101 7.06002C10.0101 6.66002 9.74008 6.34002 9.40008 6.34002H4.11008ZM15.3801 7.96002L13.2601 9.90002L11.1401 7.96002C10.8801 7.72002 10.4601 7.72002 10.2001 7.96002C9.94008 8.20002 9.94008 8.59002 10.2001 8.83002L11.9101 10.4H11.0101C10.6401 10.4 10.3401 10.67 10.3401 11.01C10.3401 11.35 10.6401 11.62 11.0101 11.62H12.6001V12.11H11.0101C10.6401 12.11 10.3401 12.38 10.3401 12.72C10.3401 13.06 10.6401 13.33 11.0101 13.33H12.6001V14.4C12.6001 14.74 12.9001 15.01 13.2701 15.01C13.6401 15.01 13.9401 14.74 13.9401 14.4V13.33H15.5301C15.9001 13.33 16.2001 13.06 16.2001 12.72C16.2001 12.38 15.9001 12.11 15.5301 12.11H13.9401V11.62H15.5301C15.9001 11.62 16.2001 11.35 16.2001 11.01C16.2001 10.67 15.9001 10.4 15.5301 10.4H14.6201L16.3301 8.83002C16.5901 8.59002 16.5901 8.20002 16.3301 7.96002C16.0601 7.72002 15.6401 7.72002 15.3801 7.96002ZM18.6801 2.88002C18.6801 1.99002 17.9601 1.27002 17.0701 1.27002H2.94008C2.05008 1.27002 1.33008 1.99002 1.33008 2.88002V18.03C1.33008 18.36 1.59008 18.62 1.92008 18.62H2.00008C2.15008 18.62 2.29008 18.56 2.40008 18.46L3.97008 17L5.54008 18.46C5.65008 18.56 5.79008 18.62 5.94008 18.62H6.11008C6.26008 18.62 6.40008 18.56 6.51008 18.46L8.08008 17L9.65008 18.46C9.76008 18.56 9.90008 18.62 10.0501 18.62H10.2201C10.3701 18.62 10.5101 18.56 10.6201 18.46L12.1901 17L13.7601 18.46C13.8701 18.57 14.0201 18.62 14.1601 18.62C14.3201 18.62 14.4801 18.56 14.5901 18.43C14.8101 18.19 14.8001 17.82 14.5601 17.59L12.6001 15.77C12.4895 15.6687 12.345 15.6125 12.1951 15.6125C12.0451 15.6125 11.9006 15.6687 11.7901 15.77L10.1401 17.31L8.49008 15.77C8.37953 15.6687 8.23502 15.6125 8.08508 15.6125C7.93513 15.6125 7.79063 15.6687 7.68008 15.77L6.03008 17.31L4.38008 15.77C4.26953 15.6687 4.12502 15.6125 3.97508 15.6125C3.82513 15.6125 3.68063 15.6687 3.57008 15.77L2.51008 16.76V2.89002C2.51008 2.65002 2.70008 2.46002 2.94008 2.46002H17.0701C17.3101 2.46002 17.5001 2.65002 17.5001 2.89002V16.65L17.5101 17.88C17.5101 18.21 17.7801 18.47 18.1001 18.47C18.4301 18.47 18.6901 18.2 18.6901 17.88L18.6801 2.88002Z" fill=""/>
</g>
</svg>
