<svg width="16" height="16" viewBox="0 0 16 16" fill="none" xmlns="http://www.w3.org/2000/svg">
<path d="M1.90773 2.83791C1.90773 2.37517 2.2829 2 2.74564 2H8.75062C9.21336 2 9.58853 2.37517 9.58853 2.83791V5.38653H13.1845C13.6473 5.38653 14.0224 5.76171 14.0224 6.22444V13.3117H14.581C14.6922 13.3117 14.7987 13.3559 14.8773 13.4344C14.9559 13.513 15 13.6196 15 13.7307C15 13.8418 14.9559 13.9483 14.8773 14.0269C14.7987 14.1055 14.6922 14.1496 14.581 14.1496H1.41895C1.30784 14.1496 1.20128 14.1055 1.12271 14.0269C1.04414 13.9483 1 13.8418 1 13.7307C1 13.6196 1.04414 13.513 1.12271 13.4344C1.20128 13.3559 1.30784 13.3117 1.41895 13.3117H1.90773V2.83791ZM2.74564 13.3117H8.75062V2.83791H2.74564V13.3117ZM9.58853 13.3117H13.1845V6.22444H9.58853V13.3117ZM3.68828 4.96758C3.68828 4.85647 3.73242 4.74991 3.81099 4.67134C3.88956 4.59277 3.99612 4.54863 4.10723 4.54863H7.49377C7.60488 4.54863 7.71144 4.59277 7.79001 4.67134C7.86858 4.74991 7.91272 4.85647 7.91272 4.96758C7.91272 5.07869 7.86858 5.18526 7.79001 5.26383C7.71144 5.34239 7.60488 5.38653 7.49377 5.38653H4.10723C3.99612 5.38653 3.88956 5.34239 3.81099 5.26383C3.73242 5.18526 3.68828 5.07869 3.68828 4.96758ZM3.68828 7.58603C3.68828 7.47492 3.73242 7.36836 3.81099 7.28979C3.88956 7.21122 3.99612 7.16708 4.10723 7.16708H7.49377C7.60488 7.16708 7.71144 7.21122 7.79001 7.28979C7.86858 7.36836 7.91272 7.47492 7.91272 7.58603C7.91272 7.69715 7.86858 7.80371 7.79001 7.88228C7.71144 7.96085 7.60488 8.00499 7.49377 8.00499H4.10723C3.99612 8.00499 3.88956 7.96085 3.81099 7.88228C3.73242 7.80371 3.68828 7.69715 3.68828 7.58603ZM10.5312 8.42394C10.5312 8.36892 10.542 8.31444 10.5631 8.26361C10.5841 8.21278 10.615 8.1666 10.6539 8.1277C10.6928 8.08879 10.739 8.05793 10.7898 8.03688C10.8406 8.01582 10.8951 8.00499 10.9501 8.00499H11.9975C12.1086 8.00499 12.2152 8.04913 12.2938 8.1277C12.3723 8.20626 12.4165 8.31283 12.4165 8.42394C12.4165 8.53505 12.3723 8.64162 12.2938 8.72018C12.2152 8.79875 12.1086 8.84289 11.9975 8.84289H10.9501C10.8951 8.84289 10.8406 8.83206 10.7898 8.811C10.739 8.78995 10.6928 8.75909 10.6539 8.72018C10.615 8.68128 10.5841 8.6351 10.5631 8.58427C10.542 8.53344 10.5312 8.47896 10.5312 8.42394ZM3.68828 10.2045C3.68828 10.0934 3.73242 9.98681 3.81099 9.90824C3.88956 9.82968 3.99612 9.78554 4.10723 9.78554H7.49377C7.60488 9.78554 7.71144 9.82968 7.79001 9.90824C7.86858 9.98681 7.91272 10.0934 7.91272 10.2045C7.91272 10.3156 7.86858 10.4222 7.79001 10.5007C7.71144 10.5793 7.60488 10.6234 7.49377 10.6234H4.10723C3.99612 10.6234 3.88956 10.5793 3.81099 10.5007C3.73242 10.4222 3.68828 10.3156 3.68828 10.2045ZM10.5312 11.1471C10.5312 11.0921 10.542 11.0376 10.5631 10.9868C10.5841 10.936 10.615 10.8898 10.6539 10.8509C10.6928 10.812 10.739 10.7811 10.7898 10.7601C10.8406 10.739 10.8951 10.7282 10.9501 10.7282H11.9975C12.0525 10.7282 12.107 10.739 12.1578 10.7601C12.2087 10.7811 12.2548 10.812 12.2938 10.8509C12.3327 10.8898 12.3635 10.936 12.3846 10.9868C12.4056 11.0376 12.4165 11.0921 12.4165 11.1471C12.4165 11.2022 12.4056 11.2566 12.3846 11.3075C12.3635 11.3583 12.3327 11.4045 12.2938 11.4434C12.2548 11.4823 12.2087 11.5131 12.1578 11.5342C12.107 11.5552 12.0525 11.5661 11.9975 11.5661H10.9501C10.8951 11.5661 10.8406 11.5552 10.7898 11.5342C10.739 11.5131 10.6928 11.4823 10.6539 11.4434C10.615 11.4045 10.5841 11.3583 10.5631 11.3075C10.542 11.2566 10.5312 11.2022 10.5312 11.1471Z" fill="#1776FF"/>
</svg>
