<svg width="41" height="40" viewBox="0 0 41 40" fill="none" xmlns="http://www.w3.org/2000/svg">
<path d="M37.3035 19.2861C37.3035 20.1461 36.8878 21.7302 34.104 22.6759C32.6584 23.1671 30.7426 23.4374 28.7097 23.4374C28.2019 23.4374 27.7007 23.4205 27.2126 23.3875C27.5799 22.5063 27.7699 21.5613 27.7717 20.6067C28.0708 20.6207 28.383 20.6286 28.7097 20.6286C32.3927 20.6286 34.3255 19.6686 34.491 19.2775C34.486 16.4168 31.9261 14.0886 28.7686 14.0598C28.7359 14.0604 28.7035 14.0623 28.6707 14.0623C28.6503 14.0623 28.6301 14.061 28.6098 14.0607C27.4207 14.0738 26.2609 14.431 25.2705 15.0891C24.5045 14.4172 23.6064 13.9131 22.6339 13.6093C23.2165 13.0649 23.8719 12.604 24.5813 12.2399C23.8685 11.4501 23.3997 10.4709 23.2314 9.42041C23.0632 8.36995 23.2027 7.29324 23.6332 6.32038C24.0637 5.34752 24.7667 4.52014 25.6573 3.9382C26.5478 3.35625 27.5879 3.04465 28.6517 3.04105C29.7155 3.03744 30.7577 3.34198 31.6522 3.91787C32.5467 4.49376 33.2552 5.31636 33.6923 6.28628C34.1294 7.2562 34.2762 8.33193 34.1151 9.38351C33.954 10.4351 33.4918 11.4175 32.7844 12.2121C35.4728 13.5716 37.3035 16.2326 37.3035 19.2861ZM28.6707 5.85926C28.1376 5.85926 27.6165 6.01734 27.1732 6.3135C26.73 6.60967 26.3845 7.03062 26.1805 7.52312C25.9765 8.01563 25.9231 8.55756 26.0271 9.0804C26.1311 9.60324 26.3878 10.0835 26.7648 10.4604C27.1417 10.8374 27.622 11.0941 28.1448 11.1981C28.6677 11.3021 29.2096 11.2487 29.7021 11.0447C30.1946 10.8407 30.6156 10.4953 30.9117 10.052C31.2079 9.60877 31.366 9.08766 31.366 8.55457C31.3652 7.83998 31.0809 7.15489 30.5756 6.64959C30.0703 6.1443 29.3852 5.86007 28.6707 5.85926ZM25.9753 20.5858C25.9762 21.9349 25.4798 23.2371 24.581 24.2432C27.2697 25.6029 29.1003 28.2639 29.1003 31.3173C29.1003 32.1774 28.6847 33.7614 25.9009 34.7072C24.4553 35.1983 22.5395 35.4686 20.5066 35.4686C18.4737 35.4686 16.5578 35.1982 15.1123 34.7071C12.3285 33.7614 11.9128 32.1774 11.9128 31.3173C11.9128 28.2844 13.719 25.6388 16.3782 24.271C15.78 23.6072 15.3523 22.8079 15.1321 21.9419C14.9119 21.076 14.9057 20.1695 15.114 19.3006C15.3224 18.4317 15.7391 17.6266 16.3281 16.9547C16.9171 16.2828 17.6607 15.7643 18.4949 15.444C19.329 15.1237 20.2285 15.0112 21.1159 15.1162C22.0032 15.2212 22.8516 15.5406 23.588 16.0467C24.3243 16.5529 24.9264 17.2306 25.3424 18.0214C25.7583 18.8122 25.9755 19.6923 25.9753 20.5858ZM14.7253 31.3089C14.8908 31.7 16.8236 32.6599 20.5066 32.6599C24.1896 32.6599 26.1224 31.7 26.2878 31.3089C26.2828 28.4482 23.723 26.12 20.5655 26.0911C20.5328 26.0918 20.5003 26.0936 20.4675 26.0936C20.4471 26.0936 20.427 26.0923 20.4067 26.0921C17.2681 26.1405 14.7303 28.4608 14.7253 31.3089ZM20.4675 17.8905C19.9344 17.8905 19.4133 18.0486 18.9701 18.3448C18.5269 18.6409 18.1814 19.0619 17.9774 19.5544C17.7734 20.0469 17.72 20.5888 17.824 21.1117C17.928 21.6345 18.1847 22.1147 18.5617 22.4917C18.9386 22.8686 19.4189 23.1253 19.9417 23.2293C20.4645 23.3333 21.0065 23.28 21.499 23.076C21.9915 22.872 22.4124 22.5265 22.7086 22.0833C23.0048 21.64 23.1628 21.1189 23.1628 20.5858C23.162 19.8712 22.8778 19.1862 22.3725 18.6809C21.8672 18.1756 21.1821 17.8913 20.4675 17.8905ZM17.0125 14.1518C16.122 14.633 15.3404 15.2928 14.7167 16.0899C13.9267 15.736 13.0717 15.5502 12.2061 15.5443C12.1734 15.5449 12.141 15.5468 12.1082 15.5468C12.0878 15.5468 12.0676 15.5454 12.0473 15.5452C8.9087 15.5936 6.37097 17.9139 6.36597 20.762C6.53144 21.1531 8.46425 22.113 12.1472 22.113C12.5594 22.113 12.9484 22.1004 13.3167 22.0786C13.5213 23.0559 13.9252 23.9806 14.5031 24.795C13.7207 24.8802 12.9342 24.9226 12.1472 24.9218C10.1142 24.9218 8.19854 24.6514 6.75292 24.1602C3.96909 23.2146 3.55347 21.6305 3.55347 20.7704C3.55347 17.7375 5.35964 15.0919 8.01878 13.7241C7.30599 12.9344 6.83716 11.9551 6.66891 10.9046C6.50067 9.85417 6.64022 8.77746 7.0707 7.8046C7.50119 6.83174 8.20418 6.00436 9.09475 5.42241C9.98532 4.84047 11.0254 4.52887 12.0892 4.52527C13.153 4.52166 14.1952 4.8262 15.0897 5.40209C15.9842 5.97798 16.6927 6.80058 17.1298 7.7705C17.5669 8.74042 17.7137 9.81615 17.5526 10.8677C17.3915 11.9193 16.9293 12.9017 16.2219 13.6963C16.4932 13.8342 16.757 13.9863 17.0125 14.1518ZM12.1082 7.34364C11.5751 7.34364 11.054 7.50171 10.6107 7.79788C10.1675 8.09404 9.82201 8.51499 9.61801 9.0075C9.41401 9.5 9.36063 10.0419 9.46463 10.5648C9.56863 11.0876 9.82533 11.5679 10.2023 11.9448C10.5792 12.3218 11.0595 12.5785 11.5823 12.6825C12.1052 12.7865 12.6471 12.7331 13.1396 12.5291C13.6321 12.3251 14.0531 11.9796 14.3492 11.5364C14.6454 11.0931 14.8035 10.572 14.8035 10.0389C14.8026 9.32436 14.5184 8.63928 14.0131 8.13399C13.5078 7.6287 12.8227 7.34446 12.1082 7.34364Z" fill="#C3EBFF"/>
</svg>
