<svg width="64" height="64" viewBox="0 0 64 64" fill="none" xmlns="http://www.w3.org/2000/svg">
<g id="Frame">
<path id="Vector" d="M57.875 55.6559C57.4625 48.8934 53.1875 43.1496 47.2187 40.6309C49.2937 38.7809 50.5999 36.0996 50.5999 33.1371C50.5999 27.5871 46.0999 23.0871 40.5499 23.0871C34.9999 23.0871 30.5375 27.6184 30.5375 33.1371C30.5375 36.1059 31.8125 38.7496 33.8562 40.5996C27.7937 43.0871 23.425 48.9246 23.075 55.8121V56.0059C23.075 57.1246 23.9687 58.0184 25.0875 58.0184C26.2062 58.0184 27.1 57.1246 27.1 56.0059C27.2625 52.6871 28.6312 49.5621 31.025 47.1996C33.575 44.6496 36.925 43.2746 40.5312 43.2746C44.1375 43.2746 47.4874 44.6809 50.0374 47.1996C52.3999 49.5621 53.8 52.6871 53.9625 56.0059H53.9937C53.9937 57.1246 54.8874 58.0184 56.0062 58.0184C57.125 58.0184 58 57.1246 58 56.0059C57.9062 55.9121 57.875 55.7871 57.875 55.6559ZM40.5499 27.1121C43.9 27.1121 46.6124 29.8246 46.6124 33.1746C46.6124 36.5246 43.9 39.2371 40.5499 39.2371C37.1999 39.2371 34.4874 36.5246 34.4874 33.1746C34.4874 29.8246 37.2374 27.1121 40.5499 27.1121ZM53.7562 24.6871C52.7062 24.6871 51.8437 23.8246 51.8437 22.7746V12.0871C51.8437 11.0371 50.9812 10.1746 49.9312 10.1746H34.3687C33.3187 10.1746 32.4562 9.31211 32.4562 8.26211C32.4562 7.21211 33.3187 6.34961 34.3687 6.34961H49.9312C53.0875 6.34961 55.6749 8.93086 55.6749 12.0934V22.7809C55.6687 23.8246 54.8124 24.6871 53.7562 24.6871Z" fill="#FFDDDD"/>
<path id="Vector_2" d="M17.1625 57.8254H11.875C8.71873 57.8254 6.13123 55.2441 6.13123 52.0816V12.0816C6.13123 8.92539 8.71248 6.33789 11.875 6.33789H34.3625C35.4125 6.33789 36.275 7.20039 36.275 8.25039C36.275 9.30039 35.4125 10.1629 34.3625 10.1629H11.875C10.825 10.1629 9.96248 11.0254 9.96248 12.0754V52.0441C9.96248 53.0941 10.825 53.9566 11.875 53.9566H17.1625C18.2125 53.9566 19.075 54.8191 19.075 55.8691C19.075 56.9316 18.2125 57.8254 17.1625 57.8254Z" fill="#FFDDDD"/>
<path id="Vector_3" d="M20.9688 24.425C20.9375 24.425 20.9375 24.425 20.9688 24.425C20.3625 24.425 19.7875 24.1375 19.4375 23.6625L14.6188 17.2313C13.9813 16.3688 14.1375 15.1875 15 14.55C15.8625 13.9125 17.0438 14.0688 17.6813 14.9313L21 19.3563L24.5625 14.875C25.2312 14.0438 26.4125 13.9188 27.2437 14.5563C28.075 15.225 28.2 16.4063 27.5625 17.2375L22.4688 23.6938C22.0813 24.1375 21.5438 24.425 20.9688 24.425Z" fill="#FFDDDD"/>
<path id="Vector_4" d="M26.3875 24.8133H15.8688C14.8188 24.8133 13.9563 23.9508 13.9563 22.9008C13.9563 21.8508 14.8188 20.9883 15.8688 20.9883H26.3875C27.4375 20.9883 28.3 21.8508 28.3 22.9008C28.3 23.9508 27.475 24.8133 26.3875 24.8133Z" fill="#FFDDDD"/>
<path id="Vector_5" d="M21.1563 40.7867C20.1063 40.7867 19.2438 39.9242 19.2438 38.8742V22.893C19.2438 21.843 20.1063 20.9805 21.1563 20.9805C22.2063 20.9805 23.0688 21.843 23.0688 22.893V38.9055C23.075 39.9305 22.2438 40.7867 21.1563 40.7867Z" fill="#FFDDDD"/>
<path id="Vector_6" d="M26.3875 32.8133H15.925C14.875 32.8133 14.0125 31.9508 14.0125 30.9008C14.0125 29.8508 14.875 28.9883 15.925 28.9883H26.3875C27.4375 28.9883 28.3 29.8508 28.3 30.9008C28.3 31.957 27.4437 32.8133 26.3875 32.8133Z" fill="#FFDDDD"/>
</g>
</svg>
