<svg width="41" height="40" viewBox="0 0 41 40" fill="none" xmlns="http://www.w3.org/2000/svg">
<path d="M36.8861 34.7852C36.6283 30.5586 33.9564 26.9688 30.226 25.3945C31.5228 24.2383 32.3392 22.5625 32.3392 20.7109C32.3392 17.2422 29.5267 14.4297 26.058 14.4297C22.5892 14.4297 19.8002 17.2617 19.8002 20.7109C19.8002 22.5664 20.597 24.2188 21.8744 25.375C18.0853 26.9297 15.3549 30.5781 15.1361 34.8828V35.0039C15.1361 35.7031 15.6947 36.2617 16.3939 36.2617C17.0931 36.2617 17.6517 35.7031 17.6517 35.0039C17.7533 32.9297 18.6088 30.9766 20.1049 29.5C21.6986 27.9063 23.7924 27.0469 26.0463 27.0469C28.3002 27.0469 30.3939 27.9258 31.9877 29.5C33.4642 30.9766 34.3392 32.9297 34.4408 35.0039H34.4603C34.4603 35.7031 35.0189 36.2617 35.7181 36.2617C36.4174 36.2617 36.9642 35.7031 36.9642 35.0039C36.9056 34.9453 36.8861 34.8672 36.8861 34.7852ZM26.058 16.9453C28.1517 16.9453 29.847 18.6406 29.847 20.7344C29.847 22.8281 28.1517 24.5234 26.058 24.5234C23.9642 24.5234 22.2689 22.8281 22.2689 20.7344C22.2689 18.6406 23.9877 16.9453 26.058 16.9453ZM34.3119 15.4297C33.6556 15.4297 33.1166 14.8906 33.1166 14.2344V7.55469C33.1166 6.89844 32.5775 6.35938 31.9213 6.35938H22.1947C21.5385 6.35938 20.9994 5.82031 20.9994 5.16406C20.9994 4.50781 21.5385 3.96875 22.1947 3.96875H31.9213C33.8939 3.96875 35.5111 5.58203 35.5111 7.55859V14.2383C35.5072 14.8906 34.972 15.4297 34.3119 15.4297Z" fill="#C3EBFF"/>
<path d="M11.4408 36.1406H8.13611C6.16345 36.1406 4.54626 34.5273 4.54626 32.5508V7.55078C4.54626 5.57812 6.15955 3.96094 8.13611 3.96094H22.1908C22.847 3.96094 23.3861 4.5 23.3861 5.15625C23.3861 5.8125 22.847 6.35156 22.1908 6.35156H8.13611C7.47986 6.35156 6.9408 6.89062 6.9408 7.54687V32.5273C6.9408 33.1836 7.47986 33.7227 8.13611 33.7227H11.4408C12.097 33.7227 12.6361 34.2617 12.6361 34.918C12.6361 35.582 12.097 36.1406 11.4408 36.1406Z" fill="#C3EBFF"/>
<path d="M13.8197 15.2657C13.8002 15.2657 13.8002 15.2657 13.8197 15.2657C13.4408 15.2657 13.0814 15.086 12.8627 14.7891L9.85097 10.7696C9.45253 10.2305 9.55019 9.49222 10.0892 9.09378C10.6283 8.69534 11.3666 8.793 11.765 9.33206L13.8392 12.0977L16.0658 9.2969C16.4838 8.77737 17.2221 8.69925 17.7416 9.09768C18.2611 9.51565 18.3392 10.2539 17.9408 10.7735L14.7572 14.8086C14.515 15.086 14.1791 15.2657 13.8197 15.2657Z" fill="#C3EBFF"/>
<path d="M17.2064 15.5078H10.6322C9.97595 15.5078 9.43689 14.9688 9.43689 14.3125C9.43689 13.6563 9.97595 13.1172 10.6322 13.1172H17.2064C17.8627 13.1172 18.4017 13.6563 18.4017 14.3125C18.4017 14.9688 17.8861 15.5078 17.2064 15.5078Z" fill="#C3EBFF"/>
<path d="M13.9369 25.4922C13.2806 25.4922 12.7416 24.9531 12.7416 24.2969V14.3086C12.7416 13.6523 13.2806 13.1133 13.9369 13.1133C14.5931 13.1133 15.1322 13.6523 15.1322 14.3086V24.3164C15.1361 24.957 14.6166 25.4922 13.9369 25.4922Z" fill="#C3EBFF"/>
<path d="M17.2064 20.5078H10.6674C10.0111 20.5078 9.47205 19.9688 9.47205 19.3125C9.47205 18.6563 10.0111 18.1172 10.6674 18.1172H17.2064C17.8627 18.1172 18.4017 18.6563 18.4017 19.3125C18.4017 19.9727 17.8666 20.5078 17.2064 20.5078Z" fill="#C3EBFF"/>
</svg>
