<svg width="65" height="64" viewBox="0 0 65 64" fill="" xmlns="http://www.w3.org/2000/svg">
<g id="Frame">
<path id="Vector" d="M59.3333 30.8579C59.3333 32.234 58.6683 34.7685 54.2142 36.2816C51.9012 37.0675 48.8359 37.5 45.5833 37.5C44.7708 37.5 43.9688 37.473 43.1879 37.4201C43.7756 36.0103 44.0796 34.4983 44.0824 32.9709C44.5611 32.9933 45.0606 33.0059 45.5833 33.0059C51.4761 33.0059 54.5686 31.47 54.8333 30.8443C54.8253 26.2671 50.7296 22.542 45.6776 22.4959C45.6252 22.4969 45.5733 22.4999 45.5208 22.4999C45.4882 22.4999 45.4559 22.4978 45.4234 22.4974C43.5209 22.5182 41.6652 23.0897 40.0806 24.1428C38.855 23.0678 37.418 22.2612 35.8619 21.775C36.7942 20.904 37.8428 20.1666 38.9778 19.584C37.8374 18.3204 37.0872 16.7536 36.818 15.0728C36.5488 13.3921 36.7721 11.6694 37.4609 10.1128C38.1497 8.55623 39.2745 7.23241 40.6994 6.3013C42.1243 5.37019 43.7883 4.87164 45.4905 4.86586C47.1926 4.86009 48.86 5.34736 50.2912 6.26878C51.7224 7.19021 52.8562 8.50637 53.5555 10.0582C54.2548 11.6101 54.4897 13.3313 54.232 15.0138C53.9742 16.6963 53.2347 18.2682 52.1028 19.5395C56.4043 21.7148 59.3333 25.9724 59.3333 30.8579ZM45.5208 9.37501C44.6679 9.37501 43.8341 9.62793 43.1249 10.1018C42.4157 10.5757 41.863 11.2492 41.5366 12.0372C41.2102 12.8252 41.1248 13.6923 41.2912 14.5288C41.4576 15.3654 41.8683 16.1338 42.4714 16.7369C43.0745 17.34 43.8429 17.7507 44.6795 17.9171C45.516 18.0835 46.3831 17.9981 47.1711 17.6717C47.9591 17.3453 48.6327 16.7926 49.1065 16.0834C49.5804 15.3742 49.8333 14.5404 49.8333 13.6875C49.832 12.5442 49.3773 11.448 48.5688 10.6395C47.7603 9.83106 46.6642 9.3763 45.5208 9.37501ZM41.2083 32.9375C41.2097 35.0961 40.4154 37.1795 38.9773 38.7893C43.2793 40.9648 46.2083 45.2224 46.2083 50.1079C46.2083 51.484 45.5433 54.0185 41.0892 55.5316C38.7762 56.3175 35.7109 56.75 32.4583 56.75C29.2057 56.75 26.1403 56.3174 23.8274 55.5315C19.3733 54.0185 18.7083 51.484 18.7083 50.1079C18.7083 45.2553 21.5982 41.0223 25.8528 38.8338C24.8958 37.7717 24.2115 36.4928 23.8591 35.1073C23.5068 33.7218 23.4968 32.2713 23.8302 30.8811C24.1636 29.4909 24.8302 28.2027 25.7727 27.1277C26.7151 26.0527 27.9049 25.2231 29.2396 24.7106C30.5742 24.1982 32.0134 24.0182 33.4332 24.1862C34.8529 24.3542 36.2104 24.8651 37.3885 25.6749C38.5667 26.4848 39.5301 27.5691 40.1955 28.8344C40.861 30.0997 41.2086 31.5079 41.2083 32.9375ZM23.2083 50.0944C23.4731 50.7201 26.5656 52.256 32.4583 52.256C38.3511 52.256 41.4436 50.7201 41.7083 50.0944C41.7003 45.5173 37.6046 41.7921 32.5526 41.746C32.5002 41.747 32.4483 41.75 32.3958 41.75C32.3632 41.75 32.3309 41.7479 32.2984 41.7475C27.2767 41.825 23.2163 45.5375 23.2083 50.0944ZM32.3958 28.625C31.5429 28.625 30.7091 28.8779 29.9999 29.3518C29.2907 29.8257 28.738 30.4992 28.4116 31.2872C28.0852 32.0752 27.9998 32.9423 28.1662 33.7788C28.3326 34.6154 28.7433 35.3838 29.3464 35.9869C29.9495 36.59 30.7179 37.0007 31.5545 37.1671C32.391 37.3335 33.2581 37.2481 34.0461 36.9217C34.8341 36.5953 35.5077 36.0426 35.9815 35.3334C36.4554 34.6242 36.7083 33.7904 36.7083 32.9375C36.707 31.7942 36.2522 30.698 35.4437 29.8896C34.6353 29.0811 33.5392 28.6263 32.3958 28.625ZM26.8677 22.643C25.443 23.413 24.1925 24.4686 23.1944 25.744C21.9305 25.1777 20.5626 24.8805 19.1776 24.871C19.1252 24.872 19.0733 24.875 19.0208 24.875C18.9882 24.875 18.9559 24.8729 18.9234 24.8725C13.9017 24.95 9.84131 28.6625 9.83331 33.2194C10.0981 33.8451 13.1906 35.381 19.0833 35.381C19.7428 35.381 20.3652 35.3609 20.9544 35.3259C21.2819 36.8896 21.9281 38.3692 22.8527 39.6721C21.6009 39.8085 20.3425 39.8763 19.0833 39.875C15.8306 39.875 12.7654 39.4424 10.4524 38.6565C5.99831 37.1435 5.33331 34.609 5.33331 33.2329C5.33331 28.3803 8.22319 24.1473 12.4778 21.9588C11.3374 20.6952 10.5872 19.1283 10.318 17.4476C10.0488 15.7669 10.2721 14.0441 10.9609 12.4876C11.6497 10.931 12.7745 9.60716 14.1994 8.67605C15.6243 7.74494 17.2883 7.24639 18.9905 7.24062C20.6926 7.23484 22.36 7.72211 23.7912 8.64353C25.2224 9.56496 26.3562 10.8811 27.0555 12.433C27.7548 13.9849 27.9897 15.706 27.732 17.3886C27.4742 19.0711 26.7347 20.6429 25.6028 21.9143C26.0368 22.135 26.459 22.3782 26.8677 22.643ZM19.0208 11.75C18.1679 11.75 17.3341 12.0029 16.6249 12.4768C15.9157 12.9507 15.363 13.6242 15.0366 14.4122C14.7102 15.2002 14.6248 16.0673 14.7912 16.9038C14.9576 17.7404 15.3683 18.5088 15.9714 19.1119C16.5745 19.715 17.3429 20.1257 18.1795 20.2921C19.016 20.4585 19.8831 20.3731 20.6711 20.0467C21.4591 19.7203 22.1327 19.1676 22.6065 18.4584C23.0804 17.7492 23.3333 16.9154 23.3333 16.0625C23.332 14.9192 22.8772 13.823 22.0687 13.0146C21.2603 12.2061 20.1642 11.7513 19.0208 11.75Z" fill="#C3EBFF"/>
</g>
</svg>
