<svg width="20" height="20" viewBox="0 0 20 20" fill="" xmlns="http://www.w3.org/2000/svg">
<path fill-rule="" clip-rule="evenodd" d="M17.9 9.99891V18.6045H20V20H0V18.6045H2V5.81239C2.00034 5.68938 2.02863 5.56866 2.08202 5.46246C2.1354 5.35626 2.21198 5.26837 2.30399 5.20768L10.052 0.0908311C10.1432 0.0307187 10.2462 -0.00059404 10.351 8.5353e-06C10.4558 0.000611111 10.5586 0.033108 10.6492 0.0942657C10.7398 0.155423 10.8151 0.24311 10.8675 0.3486C10.9199 0.45409 10.9477 0.573706 10.948 0.695546V4.49598L17.62 9.40814C17.7058 9.47105 17.7765 9.55824 17.8255 9.66156C17.8744 9.76487 17.9001 9.88094 17.9 9.99891ZM3.20001 6.21711V18.6045L9.752 18.5998V1.89105L3.20001 6.21711ZM10.952 6.16128V18.6045L16.704 18.6138V10.3943L10.952 6.16128ZM5.06402 8.81734H8.34801C8.50714 8.81734 8.65975 8.89086 8.77227 9.02171C8.88479 9.15256 8.94801 9.33003 8.94801 9.51509C8.94801 9.70014 8.88479 9.87761 8.77227 10.0085C8.65975 10.1393 8.50714 10.2128 8.34801 10.2128H5.06402C4.9049 10.2128 4.75229 10.1393 4.63976 10.0085C4.52724 9.87761 4.46403 9.70014 4.46403 9.51509C4.46403 9.33003 4.52724 9.15256 4.63976 9.02171C4.75229 8.89086 4.9049 8.81734 5.06402 8.81734ZM5.06402 13.4318H8.34801C8.50714 13.4318 8.65976 13.5053 8.77228 13.6362C8.8848 13.767 8.94801 13.9445 8.94801 14.1295C8.94801 14.3146 8.8848 14.4921 8.77228 14.6229C8.65976 14.7538 8.50714 14.8273 8.34801 14.8273H5.06402C4.90489 14.8273 4.75228 14.7538 4.63976 14.6229C4.52724 14.4921 4.46402 14.3146 4.46402 14.1295C4.46402 13.9445 4.52724 13.767 4.63976 13.6362C4.75228 13.5053 4.90489 13.4318 5.06402 13.4318ZM12.948 13.4318H15.216C15.3751 13.4318 15.5278 13.5053 15.6403 13.6362C15.7528 13.767 15.816 13.9445 15.816 14.1295C15.816 14.3146 15.7528 14.4921 15.6403 14.6229C15.5278 14.7538 15.3751 14.8273 15.216 14.8273H12.948C12.7889 14.8273 12.6363 14.7538 12.5238 14.6229C12.4112 14.4921 12.348 14.3146 12.348 14.1295C12.348 13.9445 12.4112 13.767 12.5238 13.6362C12.6363 13.5053 12.7889 13.4318 12.948 13.4318Z" fill=""/>
</svg>
