<svg width="14" height="14" viewBox="0 0 14 14" fill="" xmlns="http://www.w3.org/2000/svg">
<path d="M12.875 9.625H12.0313V7.4375H7.53125V6H11.25C11.3875 6 11.5 5.8875 11.5 5.75V1.625C11.5 1.4875 11.3875 1.375 11.25 1.375H2.75C2.6125 1.375 2.5 1.4875 2.5 1.625V5.75C2.5 5.8875 2.6125 6 2.75 6H6.46875V7.4375H1.96875V9.625H1.125C1.05625 9.625 1 9.68125 1 9.75V12.5C1 12.5688 1.05625 12.625 1.125 12.625H3.875C3.94375 12.625 4 12.5688 4 12.5V9.75C4 9.68125 3.94375 9.625 3.875 9.625H3.03125V8.5H6.46875V9.625H5.625C5.55625 9.625 5.5 9.68125 5.5 9.75V12.5C5.5 12.5688 5.55625 12.625 5.625 12.625H8.375C8.44375 12.625 8.5 12.5688 8.5 12.5V9.75C8.5 9.68125 8.44375 9.625 8.375 9.625H7.53125V8.5H10.9688V9.625H10.125C10.0563 9.625 10 9.68125 10 9.75V12.5C10 12.5688 10.0563 12.625 10.125 12.625H12.875C12.9438 12.625 13 12.5688 13 12.5V9.75C13 9.68125 12.9438 9.625 12.875 9.625ZM3 11.5828C3 11.6063 2.98125 11.625 2.95781 11.625H2.04063C2.01719 11.625 1.99844 11.6063 1.99844 11.5828V10.6656C1.99844 10.6422 2.01719 10.6234 2.04063 10.6234H2.95781C2.98125 10.6234 3 10.6422 3 10.6656V11.5828ZM7.5 11.5828C7.5 11.6063 7.48125 11.625 7.45781 11.625H6.54063C6.51719 11.625 6.49844 11.6063 6.49844 11.5828V10.6656C6.49844 10.6422 6.51719 10.6234 6.54063 10.6234H7.45781C7.48125 10.6234 7.5 10.6422 7.5 10.6656V11.5828ZM3.5 5V2.375H10.5V5H3.5ZM12 11.5828C12 11.6063 11.9813 11.625 11.9578 11.625H11.0406C11.0172 11.625 10.9984 11.6063 10.9984 11.5828V10.6656C10.9984 10.6422 11.0172 10.6234 11.0406 10.6234H11.9578C11.9813 10.6234 12 10.6422 12 10.6656V11.5828ZM4.625 3.6875C4.625 3.85326 4.69085 4.01223 4.80806 4.12944C4.92527 4.24665 5.08424 4.3125 5.25 4.3125C5.41576 4.3125 5.57473 4.24665 5.69194 4.12944C5.80915 4.01223 5.875 3.85326 5.875 3.6875C5.875 3.52174 5.80915 3.36277 5.69194 3.24556C5.57473 3.12835 5.41576 3.0625 5.25 3.0625C5.08424 3.0625 4.92527 3.12835 4.80806 3.24556C4.69085 3.36277 4.625 3.52174 4.625 3.6875Z" fill="" fill-opacity=""/>
</svg>
