<svg width="64" height="64" viewBox="0 0 64 64" fill="none" xmlns="http://www.w3.org/2000/svg">
<g id="Frame">
<path id="Vector" d="M62.949 37.3055C62.0055 30.6319 53.4858 30.3017 53.4858 30.3017C53.4858 28.1663 50.6553 26.9146 50.6553 26.9146H9.8337C7.2108 26.9146 6.82711 30.5753 6.82711 30.5753C7.37433 51.1465 19.7875 57.9365 19.7875 57.9365H41.1733C43.9659 55.3446 46.412 52.4028 48.4507 49.1841C50.7924 49.3045 53.1401 49.1568 55.4482 48.7438C57.7519 47.882 59.7211 46.3085 61.0698 44.2517C62.4186 42.1949 63.0768 39.7618 62.949 37.3055ZM21.5392 54.3733C11.1609 46.8254 12.1861 30.9056 12.1861 30.9056H17.932C14.7587 39.9347 21.0486 51.3101 21.9229 52.8983C22.7972 54.4865 21.5392 54.3733 21.5392 54.3733ZM54.9576 45.017C54.288 45.4869 53.512 45.7829 52.6995 45.8785C51.887 45.974 51.0635 45.866 50.3031 45.5642C52.1862 42.0606 53.2163 38.1622 53.3097 34.1857C53.7971 34.3493 54.1871 32.3239 57.6875 35.8809C61.1878 39.4378 57.6434 43.4288 54.9608 45.017H54.9576ZM5.23576 63.9969H53.4575C54.0371 63.9818 54.6081 63.8524 55.1375 63.6161C55.667 63.3798 56.1446 63.0412 56.5429 62.6199C56.9412 62.1985 57.2524 61.7026 57.4585 61.1606C57.6646 60.6187 57.7617 60.0414 57.7441 59.4618H0.961754C0.94415 60.0403 1.04078 60.6167 1.24613 61.1578C1.45147 61.6989 1.76149 62.1943 2.15846 62.6155C2.55543 63.0367 3.03155 63.3755 3.55958 63.6126C4.08762 63.8496 4.65721 63.9802 5.23576 63.9969ZM20.5392 4.70486C20.5392 4.70486 12.01 9.90663 17.3659 14.7687C22.7218 19.6309 22.2343 21.4424 19.1176 25.7132C19.1176 25.7132 24.9673 22.7601 24.1999 18.2722C23.4325 13.7844 17.7999 11.5452 19.0013 8.43165C20.2026 5.31813 20.5486 4.71744 20.5486 4.71744L20.5392 4.70486ZM39.3618 1.97504C39.3618 1.97504 30.8263 7.17681 36.1948 12.0389C41.5632 16.901 41.0537 18.7125 37.9402 22.9834C37.9402 22.9834 43.7962 20.0303 43.0288 15.5424C42.2614 11.0545 36.6288 8.81533 37.827 5.70182C39.0252 2.5883 39.3743 1.97504 39.3743 1.97504H39.3618ZM30.4993 0C28.9954 0.146339 27.5766 0.765415 26.4466 1.76835C25.3165 2.77129 24.5333 4.1065 24.2093 5.58231C23.2281 10.7243 26.5649 12.6396 29.1312 15.2122C31.6975 17.7848 30.6062 22.5934 27.7097 25.99C29.2242 25.424 30.5887 24.5182 31.6983 23.3421C32.8078 22.1661 33.6328 20.7512 34.1097 19.2063C35.311 14.2247 32.8706 12.4729 30.3357 9.57956C27.8009 6.68619 28.0462 1.42467 30.5087 0H30.4993Z" fill="#CBDDFF"/>
</g>
</svg>
