<svg width="64" height="64" viewBox="0 0 64 64" fill="none" xmlns="http://www.w3.org/2000/svg">
<g id="Frame">
<path id="Vector" d="M29.4338 40.0269C29.4338 33.919 32.7751 28.602 37.7223 25.773H12.9889L16.196 17.3568C16.5969 16.155 17.1978 15.2841 18.6038 15.2706H41.0553C42.4553 15.2841 43.0571 16.155 43.458 17.3568L45.8396 23.6073C45.8448 23.6073 45.8489 23.6065 45.854 23.6065C47.4263 23.6065 48.9421 23.8403 50.3819 24.2538L46.8186 15.1524C46.0169 13.0796 44.2808 11.3089 41.0037 11.3089H18.6503C15.3773 11.3089 13.6396 13.0796 12.8403 15.1524L8.57988 26.0295C6.88938 26.2439 3.90088 28.2061 3.90088 31.9221V45.7616H8.69213V49.2068C8.69213 54.6504 15.1773 54.588 15.1773 49.2068V45.7616H30.4836C29.816 43.9741 29.4337 42.0473 29.4338 40.0269ZM14.3308 37.381C12.3019 37.381 10.6544 35.7049 10.6544 33.6337C10.6544 31.561 12.3019 29.8848 14.3308 29.8848C16.3598 29.8848 18.0055 31.561 18.0055 33.6337C18.0055 35.7048 16.3598 37.381 14.3308 37.381ZM45.8558 25.9333C38.0862 25.9333 31.7614 32.2547 31.7614 40.0277C31.7614 47.7991 38.0861 54.1188 45.8558 54.1188C53.6271 54.1188 59.9468 47.799 59.9468 40.0277C59.9469 32.2546 53.6271 25.9333 45.8558 25.9333ZM45.8558 50.8018C39.9142 50.8018 35.0816 45.9693 35.0816 40.0276C35.0816 34.0861 39.9141 29.2551 45.8558 29.2551C51.7991 29.2551 56.6283 34.086 56.6283 40.0276C56.6283 45.9693 51.7991 50.8018 45.8558 50.8018Z" fill="#CBDDFF"/>
<path id="Vector_2" d="M37.9658 38.3978C40.0048 36.996 41.6185 35.0427 42.8083 32.5359L45.3569 33.4916C43.8276 36.4226 41.9161 38.802 39.6224 40.6279C38.9424 39.694 38.3899 38.9504 37.9658 38.3978ZM48.4153 40.373C49.3074 41.3925 50.6664 43.0919 52.4932 45.4704C52.7053 45.767 52.8755 45.9801 53.0029 46.1075L50.7091 47.573C50.4543 47.1907 50.1566 46.7655 49.8171 46.2986C48.6702 46.3404 46.7796 46.447 44.1464 46.6172C43.339 46.659 42.7446 46.7018 42.3623 46.7447C41.5978 46.8293 40.9178 46.9359 40.3234 47.0632L39.1764 44.7057C39.7708 44.409 40.3234 43.9412 40.8331 43.304C42.4041 41.3507 43.7213 39.3964 44.7835 37.442L47.3959 38.6527C46.1634 40.3949 44.6979 42.3273 42.9994 44.4509C43.1687 44.4509 43.4026 44.4509 43.7004 44.4509C45.6537 44.3662 47.2048 44.2816 48.3517 44.196C47.6289 43.2622 47.0136 42.4119 46.5039 41.6473L48.4153 40.373ZM53.7675 38.0155C53.427 38.5252 52.9392 39.3755 52.302 40.5641C49.5831 38.8657 47.6288 36.4225 46.4401 33.2367L48.7976 32.3447C49.9017 34.9362 51.5584 36.8268 53.7675 38.0155Z" fill="#CBDDFF"/>
</g>
</svg>
