<svg width="21" height="20" viewBox="0 0 21 20" fill="" xmlns="http://www.w3.org/2000/svg">
<path d="M10.5 2.14844C8.81727 2.14844 7.45312 3.51258 7.45312 5.19531C7.45312 6.87805 8.81727 8.24219 10.5 8.24219C12.1827 8.24219 13.5469 6.87805 13.5469 5.19531C13.5469 3.51258 12.1827 2.14844 10.5 2.14844ZM10.5 3.55469C11.4061 3.55469 12.1406 4.28922 12.1406 5.19531C12.1406 6.10141 11.4061 6.83594 10.5 6.83594C9.59391 6.83594 8.85938 6.10141 8.85938 5.19531C8.85938 4.28922 9.59391 3.55469 10.5 3.55469ZM8.6426 15.9055C9.22951 16.1322 9.85607 16.25 10.5 16.25C11.0456 16.25 11.5789 16.1655 12.0867 16.0015C12.4562 15.8821 12.8525 16.0849 12.9719 16.4544C13.0913 16.8239 12.8885 17.2203 12.519 17.3396C11.872 17.5486 11.1928 17.6562 10.5 17.6562C9.68207 17.6562 8.88377 17.5062 8.13586 17.2173C7.77361 17.0774 7.5934 16.6703 7.73334 16.308C7.87328 15.9458 8.28037 15.7656 8.6426 15.9055ZM7.16203 6.22664C7.41836 6.51834 7.38969 6.96262 7.09799 7.21895C6.24141 7.97168 5.65377 8.98674 5.43703 10.1117C5.36355 10.493 4.99488 10.7425 4.61359 10.6691C4.23227 10.5956 3.98271 10.2269 4.05617 9.84564C4.33238 8.41205 5.08051 7.11979 6.16973 6.16262C6.46143 5.90629 6.90568 5.93494 7.16203 6.22664ZM14.9224 6.24508C15.9388 7.17258 16.6436 8.39719 16.9253 9.75281C17.0042 10.133 16.76 10.5053 16.3798 10.5843C15.9996 10.6632 15.6274 10.4191 15.5484 10.0388C15.3274 8.97512 14.7738 8.01322 13.9745 7.28383C13.6876 7.02207 13.6673 6.57734 13.929 6.29051C14.1908 6.00365 14.6355 5.98332 14.9224 6.24508ZM5.14844 11.0742C3.4657 11.0742 2.10156 12.4384 2.10156 14.1211C2.10156 15.8038 3.4657 17.168 5.14844 17.168C6.83117 17.168 8.19531 15.8038 8.19531 14.1211C8.19531 12.4384 6.83117 11.0742 5.14844 11.0742ZM5.14844 12.4805C6.05453 12.4805 6.78906 13.215 6.78906 14.1211C6.78906 15.0272 6.05453 15.7617 5.14844 15.7617C4.24234 15.7617 3.50781 15.0272 3.50781 14.1211C3.50781 13.215 4.24234 12.4805 5.14844 12.4805ZM15.8516 11.0742C14.1688 11.0742 12.8047 12.4384 12.8047 14.1211C12.8047 15.8038 14.1688 17.168 15.8516 17.168C17.5343 17.168 18.8984 15.8038 18.8984 14.1211C18.8984 12.4384 17.5343 11.0742 15.8516 11.0742ZM15.8516 12.4805C16.7577 12.4805 17.4922 13.215 17.4922 14.1211C17.4922 15.0272 16.7577 15.7617 15.8516 15.7617C14.9455 15.7617 14.2109 15.0272 14.2109 14.1211C14.2109 13.215 14.9455 12.4805 15.8516 12.4805Z" fill=""/>
</svg>
