<svg width="16" height="16" viewBox="0 0 16 16" fill="" xmlns="http://www.w3.org/2000/svg">
<path d="M10.7242 9.84922V8.01953C10.7242 7.70859 10.4727 7.45703 10.1617 7.45703C9.85078 7.45703 9.59922 7.70859 9.59922 8.01953V9.59922H2.13672V2.13672H9.59922V3.68047C9.59922 3.99141 9.85078 4.24297 10.1617 4.24297C10.4727 4.24297 10.7242 3.99141 10.7242 3.68047V1.88672C10.7242 1.40391 10.332 1.01172 9.84922 1.01172H1.88672C1.40391 1.01172 1.01172 1.40391 1.01172 1.88672V9.84922C1.01172 10.332 1.40391 10.7242 1.88672 10.7242H9.84922C10.332 10.7242 10.7242 10.332 10.7242 9.84922Z" fill=""/>
<path d="M14.1227 5.27734H6.16016C5.67734 5.27734 5.28516 5.66953 5.28516 6.15234V7.99609C5.28516 8.30703 5.53672 8.55859 5.84766 8.55859C6.15859 8.55859 6.41016 8.30703 6.41016 7.99609V6.40234H13.8727V13.8648H6.41016V12.2586C6.41016 11.9477 6.15859 11.6961 5.84766 11.6961C5.53672 11.6961 5.28516 11.9477 5.28516 12.2586V14.1133C5.28516 14.5961 5.67734 14.9883 6.16016 14.9883H14.1227C14.6055 14.9883 14.9977 14.5961 14.9977 14.1133V6.15234C14.9977 5.66953 14.6055 5.27734 14.1227 5.27734Z" fill=""/>
</svg>
