<svg width="14" height="15" viewBox="0 0 14 15" fill="none" xmlns="http://www.w3.org/2000/svg">
<g id="&#229;&#133;&#179;&#233;&#151;&#173;">
<path id="Icon (Stroke)" fill-rule="evenodd" clip-rule="evenodd" d="M3.14645 3.64645C3.34171 3.45118 3.65829 3.45118 3.85355 3.64645L7 6.79289L10.1464 3.64645C10.3417 3.45119 10.6583 3.45119 10.8536 3.64645C11.0488 3.84171 11.0488 4.15829 10.8536 4.35356L7.70711 7.5L10.8536 10.6464C11.0488 10.8417 11.0488 11.1583 10.8536 11.3536C10.6583 11.5488 10.3417 11.5488 10.1464 11.3536L7 8.20711L3.85355 11.3536C3.65829 11.5488 3.34171 11.5488 3.14645 11.3536C2.95118 11.1583 2.95118 10.8417 3.14645 10.6464L6.29289 7.5L3.14645 4.35355C2.95118 4.15829 2.95118 3.84171 3.14645 3.64645Z" fill="#5F7292"/>
</g>
</svg>
