<svg width="14" height="14" viewBox="0 0 14 14" fill="none" xmlns="http://www.w3.org/2000/svg">
<g id="Frame">
<path id="Union" fill-rule="evenodd" clip-rule="evenodd" d="M6.87494 10.9332C6.4432 10.9332 6.01045 10.7645 5.64584 10.427C5.50159 10.295 2.72928 7.72048 2.72928 5.09497C2.72928 3.99876 3.16272 2.96867 3.94974 2.19452C4.73405 1.42377 5.77551 1 6.88257 1H6.89172C7.98516 1.00017 9.03499 1.42882 9.81607 2.19401C10.2025 2.57207 10.5096 3.02344 10.7194 3.52169C10.9292 4.01994 11.0374 4.55504 11.0377 5.09565C11.0377 7.81252 8.32728 10.2261 8.09336 10.4292C7.73587 10.7655 7.30617 10.9332 6.87494 10.9332ZM6.88358 2.18656C6.0975 2.18295 5.3419 2.49043 4.78169 3.04189C4.22316 3.5911 3.9155 4.32083 3.9155 5.09633C3.9155 6.17237 4.58658 7.31129 5.14952 8.0773C5.7889 8.94721 6.44134 9.54829 6.44795 9.55422L6.45134 9.55727C6.8207 9.90052 7.13242 9.70678 7.28532 9.56066C7.29312 9.55337 7.30091 9.54625 7.30905 9.5393C7.33397 9.51777 9.85167 7.32688 9.85167 5.09633C9.85036 4.71356 9.77313 4.33486 9.62445 3.98215C9.47577 3.62945 9.25859 3.30974 8.98548 3.04155C8.42692 2.49193 7.67416 2.18471 6.89053 2.18656H6.88358ZM12.3435 13H1.59326C1.50542 13 1.41867 12.9805 1.33929 12.9429C1.2599 12.9053 1.18986 12.8505 1.13421 12.7825C1.07857 12.7146 1.03871 12.6351 1.01752 12.5498C0.996331 12.4646 0.994335 12.3757 1.01168 12.2896L1.53546 9.68968L2.69862 9.92394L2.31791 11.8134H11.5713L11.0769 9.95971L12.2234 9.65459L12.9167 12.2542C12.9401 12.342 12.943 12.4341 12.9251 12.5232C12.9073 12.6123 12.8692 12.6962 12.8138 12.7683C12.7584 12.8404 12.6872 12.8987 12.6056 12.9389C12.5241 12.9791 12.4344 13 12.3435 13ZM5.63407 5.42558C5.56932 5.26928 5.536 5.10176 5.536 4.93258C5.536 4.76341 5.56932 4.59589 5.63407 4.43959C5.69881 4.28329 5.7937 4.14127 5.91332 4.02165C6.03295 3.90202 6.17497 3.80713 6.33127 3.74239C6.48757 3.67765 6.65509 3.64432 6.82426 3.64432C6.99344 3.64432 7.16096 3.67765 7.31726 3.74239C7.47356 3.80713 7.61557 3.90202 7.7352 4.02165C7.85483 4.14127 7.94972 4.28329 8.01446 4.43959C8.0792 4.59589 8.11252 4.76341 8.11252 4.93258C8.11252 5.10176 8.0792 5.26928 8.01446 5.42558C7.94972 5.58188 7.85483 5.7239 7.7352 5.84352C7.61557 5.96315 7.47356 6.05804 7.31726 6.12278C7.16096 6.18752 6.99344 6.22084 6.82426 6.22084C6.65509 6.22084 6.48757 6.18752 6.33127 6.12278C6.17497 6.05804 6.03295 5.96315 5.91332 5.84352C5.7937 5.7239 5.69881 5.58188 5.63407 5.42558Z" fill="#97A3B7"/>
</g>
</svg>
