<svg width="64" height="64" viewBox="0 0 64 64" fill="none" xmlns="http://www.w3.org/2000/svg">
<g id="Frame" clip-path="url(#clip0_788_31102)">
<path id="Vector" d="M30.4 0H29.2V17.2H29.6C39.6 17.2 46.8 25.2 46.8 35.2C46.8 37.2 46.4 39.2 45.6 41.2L61.2 46.4C62.8 42.4 63.6 39.2 63.6 34.8C64 15.6 49.6 0 30.4 0Z" fill="#FFDDDD"/>
<path id="Vector_2" d="M28.8 53.2C18.8 53.2 10.8 45.2 10.8 35.2C10.8 26.8 16.8 19.6 24.4 17.6V6C10.8 8 0 20 0 34.8C0 50.8 13.2 64 29.2 64C40 64 49.6 58 54.4 49.2L43.6 45.6C40.4 50 34.8 53.2 28.8 53.2Z" fill="#FFDDDD"/>
<path id="Vector_3" d="M22 32C23.6 33.6 26 34.8 28.4 35.2C30.8 35.6 32.4 36.8 32.4 38.8C32.4 40.8 30.4 42 28.4 42C26 42 24 40.4 24 38H20.8L20.4 38.4C20.4 39.6 20.4 40.8 21.2 41.6C21.6 42.4 22 42.8 22.8 43.2C24 44 25.2 44.8 26.8 45.2V48L27.2 48.4H30.4L30.8 48V45.2C31.6 45.2 32.4 44.8 33.2 44.4C33.6 44.4 34.4 44 34.8 43.2C36 42 36.4 40.4 36.4 38.4C36.4 34.8 33.6 32.4 31.2 32C29.6 32 28.4 31.6 27.2 31.2C25.6 30.4 25.2 30 25.2 28.4C25.2 26.8 26.8 26 28.4 26C30.4 26 32 27.2 32 29.2L32.4 29.6H35.6L36 29.2C36.4 28 36 26.8 35.2 25.6C34.8 24.8 34.4 24.4 34 24C33.2 23.2 32 22.8 30.4 22.4V20.4L30 20H26.8L26.4 20.4V22.8C25.2 22.8 24.4 23.2 23.6 24C21.2 25.6 20.4 30 22 32Z" fill="#FFDDDD"/>
</g>
<defs>
<clipPath id="clip0_788_31102">
<rect width="64" height="64" fill="white"/>
</clipPath>
</defs>
</svg>
