<svg width="16" height="16" viewBox="0 0 16 16" fill="none" xmlns="http://www.w3.org/2000/svg">
<g clip-path="url(#clip0_1876_15941)">
<path d="M11.91 12.1402L8.07003 14.3602L3.85003 11.9202C3.06003 11.4602 2.08003 11.4602 1.28003 11.9202C1.33003 11.9902 1.40003 12.0502 1.47003 12.0902L7.73003 15.7002C7.94003 15.8202 8.19003 15.8202 8.40003 15.7002L14.57 12.1402L14.43 12.0602C13.63 11.6602 12.68 11.6902 11.9 12.1302L11.91 12.1402Z" fill="#1776FF"/>
<path d="M14.52 3.7L8.26 0.09C8.05 -0.03 7.8 -0.03 7.59 0.09L1.33 3.7C1.12 3.82 1 4.04 1 4.28V10.46L1.13 10.38C1.88 9.89 2.34 9.05 2.34 8.15V4.66L7.93 1.44L13.53 4.67V8.54C13.53 9.49 14.04 10.37 14.86 10.85V4.29C14.86 4.05 14.73 3.83 14.53 3.71L14.52 3.7Z" fill="#1776FF"/>
<path d="M11.45 4.16992H5.09998C5.01998 4.16992 4.93998 4.17992 4.85998 4.20992C4.77998 4.23992 4.69998 4.26992 4.63998 4.31992C4.56998 4.36992 4.51998 4.42992 4.47998 4.49992C4.43998 4.56992 4.41998 4.64992 4.41998 4.73992V11.0499C4.41998 11.1399 4.43998 11.2199 4.47998 11.2899C4.51998 11.3599 4.57998 11.4199 4.63998 11.4699C4.70998 11.5199 4.77998 11.5599 4.85998 11.5799C4.93998 11.5999 5.01998 11.6199 5.09998 11.6199H11.45V10.6299H5.63998V5.15992H11.45V4.16992Z" fill="#1776FF"/>
<path d="M7.26 10.32L8.6 8.62996L9.95 10.32H11.34L9.29 7.75996L11.13 5.45996H9.74L8.6 6.88996L7.46 5.45996H6.07L7.9 7.75996L5.87 10.32H7.26Z" fill="#1776FF"/>
</g>
<defs>
<clipPath id="clip0_1876_15941">
<rect width="13.86" height="15.79" fill="white" transform="translate(1)"/>
</clipPath>
</defs>
</svg>
