<svg width="65" height="64" viewBox="0 0 65 64" fill="none" xmlns="http://www.w3.org/2000/svg">
<g id="Frame">
<path id="Vector" d="M53.8186 9.59998C53.3614 9.14284 52.9043 8.22855 51.99 7.77141C51.5329 7.31427 51.0757 6.39998 50.6186 5.94284C50.1614 5.02855 49.2472 4.57141 48.3329 4.57141H18.1614C17.2472 4.57141 16.3329 4.57141 15.8757 5.02855C15.4186 5.4857 14.9614 5.4857 14.5043 5.94284L13.1329 7.31427L10.8472 9.59998C10.39 10.5143 9.47573 11.4286 9.01858 12.3428H56.1043C55.19 11.4286 54.7329 10.5143 53.8186 9.59998ZM54.2757 40.2286H10.39C8.56144 40.2286 7.19001 40.6857 6.27573 41.6C5.36144 42.9714 4.9043 43.8857 4.9043 45.2571V53.9428C4.9043 55.7714 5.36144 57.1428 6.73287 58.0571C7.64715 58.9714 9.01858 59.4286 10.39 59.4286H53.8186C55.6472 59.4286 57.0186 58.9714 57.9329 58.0571C58.8472 57.1428 59.3043 55.7714 59.3043 54.4V45.2571C59.3043 43.8857 58.8472 42.5143 57.9329 41.6C57.4757 40.6857 56.1043 40.2286 54.2757 40.2286ZM36.9043 51.2C36.4472 51.6571 36.4472 51.6571 35.99 51.6571H29.1329C28.6757 51.6571 28.2186 51.6571 27.7614 51.2C27.7614 50.7428 27.3043 50.2857 27.3043 49.8286C27.3043 49.3714 27.3043 48.9143 27.7614 48.9143C28.2186 48.4571 28.2186 48.4571 29.1329 48.4571H35.5329C35.99 48.4571 36.4472 48.4571 36.4472 48.9143C36.9043 49.3714 36.9043 49.3714 36.9043 49.8286C37.3614 50.2857 36.9043 50.7428 36.9043 51.2ZM58.39 18.7428C57.4757 17.8286 56.1043 17.3714 54.2757 17.3714H10.39C8.56144 17.3714 7.19001 17.8286 6.27573 18.7428C5.36144 19.6571 4.9043 20.5714 4.9043 21.9428V31.0857C4.9043 32.4571 5.36144 33.8286 6.27573 34.7428C7.19001 35.6571 8.56144 36.1143 10.39 36.1143H54.2757C56.1043 36.1143 57.4757 35.6571 58.39 34.7428C59.3043 33.8286 59.7614 32.4571 59.7614 31.0857V21.9428C59.7614 20.5714 59.3043 19.6571 58.39 18.7428ZM35.5329 28.3428H29.1329C28.6757 28.3428 28.2186 28.3428 28.2186 27.8857C27.7614 27.4286 27.7614 27.4286 27.3043 26.5143C27.3043 26.0571 27.3043 25.6 27.7614 25.6C28.2186 25.1428 28.2186 25.1428 29.1329 25.1428H35.5329C35.99 25.1428 36.4472 25.1428 36.4472 25.6C36.9043 25.6 37.3614 26.0571 37.3614 26.5143C36.9043 27.8857 36.4472 28.3428 35.5329 28.3428Z" fill="#C3EBFF"/>
</g>
</svg>
