<svg width="20" height="20" viewBox="0 0 20 20" fill="none" xmlns="http://www.w3.org/2000/svg">
<g id="Frame">
<path id="Vector" d="M5.02727 2.5C5.23227 2.5 5.33477 2.60437 5.33477 2.8125V12.3844C5.33477 12.5925 5.23227 12.6969 5.02727 12.6969H4.41164C4.20602 12.6969 4.10352 12.5925 4.10352 12.3844V2.8125C4.10352 2.60437 4.20602 2.5 4.41164 2.5H5.02727ZM5.02727 15.1406C5.23227 15.1406 5.33477 15.245 5.33477 15.4531V18.4375C5.33477 18.6456 5.23227 18.75 5.02727 18.75H4.41164C4.20602 18.75 4.10352 18.6456 4.10352 18.4375V15.4531C4.10352 15.245 4.20602 15.1406 4.41164 15.1406H5.02727ZM15.4954 2.5H16.111C16.316 2.5 16.4185 2.60437 16.4185 2.8125V12.3094C16.4185 12.5175 16.316 12.6219 16.111 12.6219H15.4954C15.2898 12.6219 15.1873 12.5175 15.1873 12.3094V2.8125C15.1873 2.60437 15.2898 2.5 15.4954 2.5ZM15.4954 15.1906H16.111C16.316 15.1906 16.4185 15.295 16.4185 15.5031V18.4375C16.4185 18.6456 16.316 18.75 16.111 18.75H15.4954C15.2898 18.75 15.1873 18.6456 15.1873 18.4375V15.5031C15.1873 15.295 15.2898 15.1906 15.4954 15.1906ZM10.5691 8.55625C10.7741 8.55625 10.8766 8.66062 10.8766 8.86875V18.4375C10.8766 18.6456 10.7741 18.75 10.5691 18.75H9.95352C9.74789 18.75 9.64539 18.6456 9.64539 18.4375V8.86875C9.64539 8.66062 9.74789 8.55625 9.95352 8.55625H10.5691Z" fill="#5F7292"/>
<path id="Vector_2" d="M4.77167 13.1257C5.28167 13.1401 5.68354 13.572 5.66916 14.0901C5.66665 14.2123 5.64007 14.3328 5.59095 14.4447C5.54184 14.5566 5.47114 14.6578 5.38291 14.7423C5.29468 14.8269 5.19065 14.8933 5.07676 14.9376C4.96287 14.9819 4.84135 15.0034 4.71917 15.0007H4.66979C4.42304 14.9921 4.1898 14.8859 4.02129 14.7054C3.85278 14.525 3.76277 14.285 3.77104 14.0382C3.77332 13.9161 3.79965 13.7955 3.84854 13.6835C3.89744 13.5715 3.96792 13.4702 4.05598 13.3855C4.14403 13.3007 4.24793 13.2342 4.36172 13.1896C4.47552 13.145 4.59698 13.1233 4.71917 13.1257H4.77167ZM4.71917 11.8757C3.52917 11.8445 2.53917 12.7989 2.50854 14.007C2.47792 15.2151 3.41792 16.2195 4.60854 16.2507H4.71917C5.90979 16.282 6.89916 15.3276 6.92979 14.1195C6.96104 12.9114 6.02042 11.907 4.82979 11.8757H4.71917ZM10.3129 6.17262C10.4352 6.1765 10.5555 6.20442 10.6669 6.2548C10.7784 6.30518 10.8788 6.37703 10.9625 6.46623C11.0462 6.55544 11.1115 6.66026 11.1547 6.77471C11.1979 6.88916 11.2181 7.01099 11.2142 7.13325C11.2121 7.25549 11.186 7.37613 11.1373 7.48827C11.0886 7.6004 11.0183 7.70184 10.9303 7.78677C10.8424 7.87169 10.7385 7.93845 10.6248 7.98321C10.511 8.02797 10.3895 8.04986 10.2673 8.04762H10.2148C9.96798 8.03947 9.73452 7.93362 9.56575 7.75336C9.39697 7.5731 9.3067 7.33318 9.31479 7.08637C9.31691 6.96424 9.34306 6.84371 9.39176 6.73169C9.44047 6.61967 9.51076 6.51833 9.59863 6.43348C9.6865 6.34863 9.79023 6.28191 9.90389 6.23716C10.0175 6.1924 10.1389 6.17047 10.261 6.17262H10.3135H10.3129ZM10.261 4.92262C9.07104 4.89137 8.08104 5.84575 8.05042 7.05387C8.01979 8.262 8.95979 9.26637 10.1504 9.29762H10.261C10.6409 9.30649 11.0163 9.21444 11.349 9.03086C11.6817 8.84728 11.9598 8.57873 12.1548 8.25262C12.3526 7.92402 12.4618 7.54971 12.4716 7.16629C12.4815 6.78288 12.3917 6.40346 12.211 6.06512C12.0328 5.72924 11.7687 5.44658 11.4457 5.2459C11.1228 5.04522 10.7524 4.93367 10.3723 4.92262H10.261ZM15.8554 13.1257C16.366 13.1401 16.7679 13.572 16.7535 14.0901C16.751 14.2124 16.7244 14.3329 16.6753 14.4449C16.6261 14.5568 16.5554 14.658 16.4671 14.7426C16.3788 14.8271 16.2747 14.8935 16.1607 14.9378C16.0467 14.9821 15.9252 15.0035 15.8029 15.0007H15.7504C15.5035 14.9918 15.2703 14.8852 15.102 14.7043C14.9337 14.5235 14.8441 14.2832 14.8529 14.0364C14.8554 13.9142 14.882 13.7937 14.9311 13.6818C14.9802 13.5699 15.0509 13.4687 15.1392 13.3842C15.2274 13.2996 15.3314 13.2332 15.4453 13.1889C15.5592 13.1445 15.6807 13.1231 15.8029 13.1257H15.8554ZM15.8035 11.8757C14.6135 11.8445 13.6235 12.7989 13.5929 14.007C13.5623 15.2151 14.5023 16.2195 15.6929 16.2507H15.8035C16.9942 16.282 17.9835 15.3276 18.0142 14.1195C18.0454 12.9114 17.1048 11.907 15.9142 11.8757H15.8035Z" fill="#5F7292"/>
<path id="Vector_3" d="M10.5702 2.5C10.7752 2.5 10.8777 2.60437 10.8777 2.8125V5.40937C10.8777 5.6175 10.7752 5.72187 10.5702 5.72187H9.95461C9.74898 5.72187 9.64648 5.6175 9.64648 5.40937V2.8125C9.64648 2.60437 9.74898 2.5 9.95461 2.5H10.5702Z" fill="#5F7292"/>
</g>
</svg>
