<svg width="16" height="16" viewBox="0 0 16 16" fill="" xmlns="http://www.w3.org/2000/svg">
<path d="M14.7572 1.67771C14.8075 1.77568 14.8241 1.88754 14.8042 1.99587L12.7228 13.3584C12.6731 13.6298 12.4129 13.8095 12.1415 13.7598C12.1019 13.7525 12.0633 13.7405 12.0266 13.724L8.95848 12.3436L7.49397 14.7458C7.41513 14.8751 7.28863 14.9683 7.14174 15.0052C6.83549 15.0823 6.52481 14.8991 6.44312 14.5953L6.44072 14.586L5.48322 10.7801L1.34157 8.91671C1.08999 8.80352 0.977789 8.50781 1.09098 8.25623C1.13744 8.15296 1.21761 8.06854 1.31835 8.01682L14.0847 1.46152C14.3301 1.3355 14.6312 1.43228 14.7572 1.67771ZM6.79005 11.368L7.21272 13.048L7.9255 11.8788L6.79005 11.368ZM13.2851 4.05135L7.05339 10.2541L11.7609 12.372L13.2851 4.05136V4.05135ZM11.8949 3.84929L2.98577 8.42405L5.95619 9.76044L11.8949 3.84931L11.8949 3.84929Z" fill=""/>
</svg>
