<svg width="21" height="20" viewBox="0 0 21 20" fill="" xmlns="http://www.w3.org/2000/svg">
<path d="M9.8243 1.43284C10.0318 1.31306 10.2671 1.25 10.5067 1.25C10.7462 1.25 10.9815 1.31306 11.189 1.43284L17.5849 5.12549C17.7923 5.24527 17.9646 5.41755 18.0844 5.62501C18.2042 5.83247 18.2672 6.06781 18.2672 6.30737V13.6926C18.2672 13.9322 18.2042 14.1675 18.0844 14.375C17.9646 14.5825 17.7923 14.7547 17.5849 14.8745L11.189 18.5672C10.9815 18.687 10.7462 18.75 10.5067 18.75C10.2671 18.75 10.0318 18.687 9.8243 18.5672L3.42846 14.8745C3.22099 14.7547 3.04871 14.5825 2.92893 14.375C2.80915 14.1675 2.74609 13.9322 2.74609 13.6926V6.30737C2.74609 6.06781 2.80915 5.83247 2.92893 5.62501C3.04871 5.41755 3.22099 5.24527 3.42846 5.12549L9.8243 1.43284ZM3.91584 6.87231V13.6926C3.91584 13.7269 3.92485 13.7605 3.94196 13.7901C3.95907 13.8198 3.98368 13.8444 4.01332 13.8615L9.94127 17.284V10.3598L3.91584 6.87231ZM17.0974 6.87236L11.111 10.3286V17.2615L17 13.8615C17.0287 13.8449 17.0527 13.8213 17.0697 13.7928C17.0868 13.7644 17.0963 13.7321 17.0974 13.699L17.0975 13.6926L17.0974 6.87236ZM10.6041 2.44588C10.5745 2.42877 10.5409 2.41976 10.5067 2.41976C10.4724 2.41976 10.4388 2.42877 10.4092 2.44588L4.49883 5.85821L10.4991 9.33117L16.5145 5.85823L10.6041 2.44588Z" fill=""/>
</svg>
