<svg xmlns="http://www.w3.org/2000/svg" width="64" height="64" viewBox="0 0 64 64" fill="none">
  <path d="M54.0731 10.2995C52.8571 9.3806 50.5211 8.74974 47.8879 9.4286C46.1805 9.9086 44.8479 10.5555 43.2914 11.8743C38.1096 16.6652 33.3416 20.5189 33.0628 20.7497C32.972 20.832 32.8619 20.8902 32.7428 20.9189C25.2182 21.8629 17.6914 22.7817 10.1896 23.7577C9.0285 23.8537 8.31993 24.8846 7.8125 25.5566C7.22964 26.2766 6.6765 27.0423 6.11421 27.7715C5.21135 28.8503 6.11421 29.6983 6.82278 29.8103L19.8971 32.832C20.7999 33.1132 20.4959 33.9292 20.2399 34.2309L14.7931 38.8366C14.7178 38.8955 14.6315 38.9386 14.5392 38.9633C14.4469 38.988 14.3505 38.9939 14.2559 38.9806C11.4216 38.4046 7.89021 38.4046 5.61593 38.1646C5.01333 38.1015 4.40559 38.2193 3.87025 38.503C3.3349 38.7868 2.89623 39.2236 2.61021 39.7577C2.34507 40.2835 2.2285 40.8846 2.31307 41.4766C2.39078 42.0526 2.73364 42.5715 3.23192 42.8755L11.8491 47.712C12.8388 48.256 13.8422 47.904 14.6445 47.6663C16.3679 47.136 17.4102 46.7932 19.0856 46.2172C20.0481 45.8621 20.9357 45.3303 21.7028 44.6492C32.8914 34.3589 53.6525 14.4252 53.6525 14.4252C55.2182 12.7703 55.1474 11.0995 54.0731 10.2995ZM52.8205 23.0606C52.526 22.877 52.1722 22.814 51.8325 22.8847C51.4927 22.9554 51.1933 23.1543 50.9965 23.44C50.9026 23.5792 50.8382 23.7361 50.8073 23.9011C50.7765 24.0661 50.7798 24.2357 50.8171 24.3993C50.8543 24.563 50.9248 24.7173 51.0241 24.8526C51.1233 24.988 51.2493 25.1016 51.3942 25.1863C56.2125 28.1463 59.0834 33.1817 59.0834 38.6492C59.0834 47.4492 51.5999 54.6149 42.4136 54.6149C36.1896 54.6149 30.5302 51.328 27.6365 46.0435C27.4645 45.7428 27.184 45.5193 26.8524 45.419C26.5208 45.3187 26.1635 45.3491 25.8536 45.504C25.7022 45.5766 25.567 45.679 25.4561 45.8051C25.3453 45.9312 25.2611 46.0784 25.2085 46.2379C25.156 46.3974 25.1363 46.5658 25.1505 46.7331C25.1647 46.9004 25.2126 47.0631 25.2914 47.2115C28.6445 53.3372 35.1999 57.1429 42.4114 57.1429C53.0605 57.1429 61.7142 48.8366 61.7142 38.656C61.7211 32.3086 58.3999 26.4846 52.8205 23.0606Z" fill="#CBDDFF"/>
  <path d="M41.4812 46.9829L49.687 46.5097C49.9795 47.024 50.2561 47.52 50.5098 48L52.5715 46.4183C51.1972 44.1611 49.7143 41.9719 48.1281 39.8583L46.2538 41.1634C46.9807 42.2149 47.655 43.216 48.263 44.1851C46.3658 44.2766 44.3887 44.3497 42.327 44.4C43.4584 42.9943 44.919 40.7657 46.7041 37.7211L44.3727 36.5714C43.767 37.8789 42.8664 39.4926 41.6892 41.4034C40.5144 43.3166 39.5681 44.5006 38.8572 44.9554L39.831 47.3051C40.4092 47.1566 40.9487 47.0491 41.4812 46.9829ZM47.8447 32L45.7144 33.1383C47.1247 36.4663 48.791 39.1383 50.711 41.1429C51.1544 40.5829 51.7738 39.8469 52.5715 38.9531C50.6424 37.1246 49.0698 34.8023 47.8447 32ZM43.4287 33.0674L41.1727 32C40.1493 34.6338 38.5814 37.0219 36.5715 39.008C37.3007 39.8926 37.8492 40.6011 38.2172 41.1429C40.4759 38.8258 42.2478 36.08 43.4287 33.0674Z" fill="#CBDDFF"/>
</svg>