<svg xmlns="http://www.w3.org/2000/svg" width="16" height="16" viewBox="0 0 16 16" fill="none">
  <path d="M7.9998 12.075C6.91074 12.075 5.8873 11.6516 5.11855 10.8812C4.3498 10.1109 3.9248 9.08905 3.9248 7.99999C3.9248 6.91093 4.34824 5.88749 5.11855 5.11874C5.88887 4.34999 6.9123 3.92499 7.9998 3.92499C9.08887 3.92499 10.1123 4.34843 10.8811 5.11874C11.6498 5.88905 12.0748 6.91249 12.0748 7.99999C12.0748 9.08905 11.6514 10.1125 10.8811 10.8812C10.1123 11.6516 9.08887 12.075 7.9998 12.075ZM7.9998 5.31718C6.52012 5.31718 5.31699 6.5203 5.31699 7.99999C5.31699 9.47968 6.52012 10.6828 7.9998 10.6828C9.47949 10.6828 10.6826 9.47968 10.6826 7.99999C10.6826 6.5203 9.47949 5.31718 7.9998 5.31718Z" fill="#3C485C"/>
  <path d="M11.348 7.22968C11.4074 7.48593 11.4387 7.74999 11.4387 8.02031C11.4387 8.27656 11.4105 8.52812 11.3574 8.77187H14.9949V7.22968H11.348ZM4.54023 8.01874C4.54023 7.74999 4.57148 7.48437 4.63086 7.22812H1.00586V8.77031H4.62305C4.5668 8.52656 4.54023 8.27499 4.54023 8.01874Z" fill="#3C485C"/>
</svg>