<svg xmlns="http://www.w3.org/2000/svg" width="16" height="18" viewBox="0 0 16 18" fill="">
  <path d="M3.78125 3.88249C3.73981 3.88249 3.70007 3.89895 3.67076 3.92825C3.64146 3.95755 3.625 3.9973 3.625 4.03874V4.97624C3.625 5.06249 3.695 5.13249 3.78125 5.13249H11.2812C11.3227 5.13249 11.3624 5.11602 11.3917 5.08672C11.421 5.05742 11.4375 5.01768 11.4375 4.97624V4.03874C11.4375 3.9973 11.421 3.95755 11.3917 3.92825C11.3624 3.89895 11.3227 3.88249 11.2812 3.88249H3.78125ZM7.375 6.69499H3.78125C3.73981 6.69499 3.70007 6.71145 3.67076 6.74075C3.64146 6.77005 3.625 6.8098 3.625 6.85124V7.78874C3.625 7.87499 3.695 7.94499 3.78125 7.94499H7.375C7.41644 7.94499 7.45618 7.92852 7.48549 7.89922C7.51479 7.86992 7.53125 7.83018 7.53125 7.78874V6.85124C7.53125 6.8098 7.51479 6.77005 7.48549 6.74075C7.45618 6.71145 7.41644 6.69499 7.375 6.69499ZM6.4375 15.6412H2.0625V1.89124H13V8.14124C13 8.22624 13.07 8.29749 13.1562 8.29749H14.25C14.2914 8.29749 14.3312 8.28102 14.3605 8.25172C14.3898 8.22242 14.4062 8.18268 14.4062 8.14124V1.10999C14.4062 0.944225 14.3404 0.785254 14.2232 0.668044C14.106 0.550834 13.947 0.484985 13.7812 0.484985H1.28125C1.11549 0.484985 0.956519 0.550834 0.839308 0.668044C0.722098 0.785254 0.65625 0.944225 0.65625 1.10999V16.4225C0.65625 16.5882 0.722098 16.7472 0.839308 16.8644C0.956519 16.9816 1.11549 17.0475 1.28125 17.0475H6.4375C6.45812 17.0475 6.47855 17.0434 6.49758 17.0355C6.51662 17.0275 6.5339 17.0159 6.54843 17.0013C6.56296 16.9866 6.57444 16.9693 6.58222 16.9502C6.59 16.9311 6.59391 16.9106 6.59375 16.89V15.7975C6.59391 15.7769 6.59 15.7564 6.58222 15.7373C6.57444 15.7182 6.56296 15.7008 6.54843 15.6862C6.5339 15.6715 6.51662 15.6599 6.49758 15.652C6.47855 15.6441 6.45812 15.64 6.4375 15.64V15.6412ZM15.0312 13.9212H12.2188V13.2075C12.7223 13.0574 13.155 12.731 13.4377 12.2881C13.7204 11.8452 13.8342 11.3153 13.7583 10.7954C13.6825 10.2754 13.422 9.80016 13.0245 9.45648C12.6271 9.1128 12.1192 8.92367 11.5938 8.92367C11.0683 8.92367 10.5604 9.1128 10.163 9.45648C9.7655 9.80016 9.50502 10.2754 9.42917 10.7954C9.35331 11.3153 9.46714 11.8452 9.74983 12.2881C10.0325 12.731 10.4652 13.0574 10.9688 13.2075V13.9225H8.15625C8.07337 13.9225 7.99388 13.9554 7.93528 14.014C7.87667 14.0726 7.84375 14.1521 7.84375 14.235V17.2025C7.84375 17.375 7.98375 17.515 8.15625 17.515H15.0312C15.1141 17.515 15.1936 17.4821 15.2522 17.4235C15.3108 17.3649 15.3438 17.2854 15.3438 17.2025V14.235C15.3438 14.1521 15.3108 14.0726 15.2522 14.014C15.1936 13.9554 15.1141 13.9225 15.0312 13.9225V13.9212ZM10.6175 11.1087C10.6129 10.9775 10.6348 10.8467 10.6818 10.7241C10.7289 10.6015 10.8002 10.4897 10.8914 10.3952C10.9826 10.3008 11.0919 10.2257 11.2128 10.1745C11.3337 10.1232 11.4637 10.0968 11.595 10.0969C11.7263 10.097 11.8563 10.1235 11.9771 10.1749C12.0979 10.2264 12.2072 10.3016 12.2983 10.3961C12.3894 10.4907 12.4605 10.6026 12.5074 10.7253C12.5543 10.8479 12.576 10.9788 12.5712 11.11C12.5622 11.363 12.4553 11.6027 12.2731 11.7785C12.0909 11.9543 11.8476 12.0525 11.5944 12.0525C11.3412 12.0525 11.0979 11.9543 10.9156 11.7785C10.7334 11.6027 10.6266 11.363 10.6175 11.11V11.1087ZM14.1325 16.305H9.055V15.1325H14.1325V16.305Z" fill=""/>
</svg>