<svg width="16" height="16" viewBox="0 0 16 16" fill="none" xmlns="http://www.w3.org/2000/svg">
<g id="Frame">
<path id="Vector" d="M8 2C6.81331 2 5.65328 2.35189 4.66658 3.01118C3.67989 3.67047 2.91085 4.60754 2.45673 5.7039C2.0026 6.80025 1.88378 8.00665 2.11529 9.17054C2.3468 10.3344 2.91825 11.4035 3.75736 12.2426C4.59648 13.0818 5.66557 13.6532 6.82946 13.8847C7.99335 14.1162 9.19974 13.9974 10.2961 13.5433C11.3925 13.0891 12.3295 12.3201 12.9888 11.3334C13.6481 10.3467 14 9.18669 14 8C14 6.4087 13.3679 4.88258 12.2426 3.75736C11.1174 2.63214 9.5913 2 8 2ZM10.955 6.6362L7.4702 10.121C7.42045 10.1708 7.36138 10.2102 7.29636 10.2372C7.23135 10.2641 7.16167 10.278 7.0913 10.278C7.02093 10.278 6.95125 10.2641 6.88624 10.2372C6.82123 10.2102 6.76216 10.1708 6.7124 10.121L5.0456 8.4542C4.94511 8.35371 4.88866 8.21741 4.88866 8.0753C4.88866 7.93318 4.94511 7.79689 5.0456 7.6964C5.14609 7.59591 5.28239 7.53945 5.4245 7.53945C5.56662 7.53945 5.70291 7.59591 5.8034 7.6964L7.0916 8.9846L10.1978 5.8784C10.2983 5.77791 10.4346 5.72145 10.5767 5.72145C10.7188 5.72145 10.8551 5.77791 10.9556 5.8784C11.0561 5.97889 11.1125 6.11518 11.1125 6.2573C11.1125 6.39941 11.0561 6.53571 10.9556 6.6362H10.955Z" fill="#1BB46D"/>
</g>
</svg>
