<svg width="16" height="16" viewBox="0 0 16 16" fill="none" xmlns="http://www.w3.org/2000/svg">
<g clip-path="url(#clip0_1876_15942)">
<path d="M11.91 12.1402L8.07003 14.3602L3.85003 11.9202C3.06003 11.4602 2.08003 11.4602 1.28003 11.9202C1.33003 11.9902 1.40003 12.0502 1.47003 12.0902L7.73003 15.7002C7.94003 15.8202 8.19003 15.8202 8.40003 15.7002L14.57 12.1402L14.43 12.0602C13.63 11.6602 12.68 11.6902 11.9 12.1302L11.91 12.1402Z" fill="#1776FF"/>
<path d="M14.52 3.7L8.26 0.09C8.05 -0.03 7.8 -0.03 7.59 0.09L1.33 3.7C1.12 3.82 1 4.04 1 4.28V10.46L1.13 10.38C1.88 9.89 2.34 9.05 2.34 8.15V4.66L7.93 1.44L13.53 4.67V8.54C13.53 9.49 14.04 10.37 14.86 10.85V4.29C14.86 4.05 14.73 3.83 14.53 3.71L14.52 3.7Z" fill="#1776FF"/>
<path d="M4.15997 6.01027H7.29997V6.89027H5.06997C4.98997 6.89027 4.90997 6.90027 4.82997 6.93027C4.74997 6.96027 4.67997 6.99027 4.60997 7.04027C4.53997 7.09027 4.47997 7.15027 4.43997 7.22027C4.39997 7.29027 4.37997 7.37027 4.37997 7.45027V11.0803H5.61997V7.89027H7.30997V11.7703H8.54997V7.89027H10.25V10.1103H9.17997V11.1003H10.79C10.87 11.1003 10.95 11.0903 11.04 11.0603C11.12 11.0403 11.2 11.0003 11.27 10.9503C11.34 10.9003 11.39 10.8403 11.44 10.7703C11.49 10.7003 11.5 10.6203 11.5 10.5303V6.89027H8.55997V6.01027H11.7V5.02027H8.51997L8.30997 4.03027H7.08997L7.28997 5.02027H4.16997V6.01027H4.15997Z" fill="#1776FF"/>
</g>
<defs>
<clipPath id="clip0_1876_15942">
<rect width="13.86" height="15.79" fill="white" transform="translate(1)"/>
</clipPath>
</defs>
</svg>
