<svg width="65" height="64" viewBox="0 0 65 64" fill="none" xmlns="http://www.w3.org/2000/svg">
<g id="Frame 427324296">
<path id="Vector" d="M55.3655 32.1828L45.646 28.3732C43.2608 27.4403 40.6856 29.1943 40.6856 31.7527V50.9125C40.6856 52.9179 42.3111 54.5434 44.3165 54.5434H54.0361C56.0415 54.5434 57.667 52.9179 57.667 50.9125V35.5623C57.6726 34.0709 56.7565 32.7246 55.3655 32.1828ZM31.3012 9.2189L10.0634 16.8884C8.62219 17.4079 7.66699 18.7765 7.66699 20.307V50.9125C7.66699 52.9179 9.29251 54.5434 11.2979 54.5434H32.5357C34.5411 54.5434 36.1666 52.9179 36.1666 50.9125V12.6375C36.1666 10.1182 33.6697 8.36425 31.3012 9.2189ZM28.2904 41.2377H15.0349C13.6998 41.2377 12.6106 40.154 12.6106 38.8134C12.6106 37.4783 13.6942 36.389 15.0349 36.389H28.2904C29.6254 36.389 30.7147 37.4727 30.7147 38.8134C30.7147 40.154 29.631 41.2377 28.2904 41.2377ZM28.2904 31.3449H15.0349C13.6998 31.3449 12.6106 30.2612 12.6106 28.9206C12.6106 27.5856 13.6942 26.4963 15.0349 26.4963H28.2904C29.6254 26.4963 30.7147 27.58 30.7147 28.9206C30.7147 30.2612 29.631 31.3449 28.2904 31.3449Z" fill="#CBDDFF"/>
</g>
</svg>
