<svg width="16" height="16" viewBox="0 0 16 16" fill="none" xmlns="http://www.w3.org/2000/svg">
<g id="Frame">
<path id="Vector" d="M9.82218 7.24441C10.6666 6.63108 11.84 5.79553 11.84 4.44441V2.55108H13.1111V1.5733H2.95996V2.55108H4.15996V4.44441C4.15996 5.8133 5.33329 6.64886 6.22218 7.26219C6.45643 7.42116 6.6792 7.5964 6.88885 7.78664L6.95996 7.85775L6.89774 7.92886C6.68683 8.1321 6.46101 8.31929 6.22218 8.48886C5.33329 9.15553 4.21329 10.0622 4.21329 11.4489V13.4133H2.95996V14.3911H13.1111V13.4133H11.8133V11.44C11.8133 10.0444 10.6488 9.14664 9.80441 8.47108C9.5717 8.30081 9.35185 8.11364 9.14663 7.91108L9.0844 7.83997L9.15552 7.76886C9.29774 7.63553 9.58218 7.42219 9.82218 7.24441ZM9.66218 11.4044C9.76139 11.419 9.85204 11.4688 9.91758 11.5447C9.98312 11.6206 10.0192 11.7175 10.0192 11.8177C10.0192 11.918 9.98312 12.0149 9.91758 12.0908C9.85204 12.1667 9.76139 12.2165 9.66218 12.2311H6.33774C6.23853 12.2165 6.14789 12.1667 6.08234 12.0908C6.0168 12.0149 5.98074 11.918 5.98074 11.8177C5.98074 11.7175 6.0168 11.6206 6.08234 11.5447C6.14789 11.4688 6.23853 11.419 6.33774 11.4044H9.66218Z" fill="#97A3B7"/>
</g>
</svg>
