<svg width="65" height="64" viewBox="0 0 65 64" fill="none" xmlns="http://www.w3.org/2000/svg">
<g id="Frame">
<path id="Vector" d="M58.1836 25.5187C58.0773 24.6625 57.7898 23.8312 57.3523 23.0875C57.3523 23.0812 57.3461 23.075 57.3398 23.0687C57.0273 22.5937 56.6461 22.1625 56.2086 21.8L55.2836 21.0187L37.1586 5.68123C34.5086 3.43748 30.1648 3.43748 27.5086 5.68123L9.38359 21.0187L8.45859 21.8C8.02109 22.1687 7.63984 22.5937 7.32734 23.0687L7.31484 23.0875C6.8725 23.8294 6.58942 24.6552 6.48359 25.5125C6.44609 25.7812 6.43359 26.0562 6.43359 26.3312V53.9562C6.43359 57.275 8.95234 59.9937 12.0336 59.9937H52.6398C55.7148 59.9937 58.2398 57.275 58.2398 53.9562V26.3312C58.2336 26.0625 58.2148 25.7875 58.1836 25.5187ZM42.0523 26.7C40.4648 29.4375 38.7961 32.1312 37.1648 34.8437C37.0023 35.125 36.8273 35.4 36.5961 35.7937C36.9836 35.8125 37.2711 35.825 37.5648 35.8437C38.4398 35.9125 39.3273 35.9062 40.1836 36.075C40.9211 36.2187 41.2086 36.7562 41.2086 37.4937C41.2148 38.2312 40.8523 38.6625 40.1898 38.8625C39.7961 38.9875 39.3836 39.0625 38.9648 39.075C37.6211 39.1 36.2836 39.0875 34.8898 39.0875V41.6C35.9648 41.6 37.0586 41.5875 38.1523 41.6C38.7023 41.5937 39.2523 41.6312 39.7961 41.7125C40.7648 41.875 41.2086 42.3937 41.2086 43.2437C41.2086 44.0937 40.7586 44.6312 39.7648 44.7375C38.6086 44.8562 37.4398 44.8437 36.2773 44.875C35.8211 44.8875 35.3648 44.875 34.9086 44.875C34.8398 45.8562 34.8336 46.7812 34.6961 47.6875C34.4711 49.1437 33.6398 49.825 32.2961 49.7937C31.4898 49.7687 30.8523 49.4187 30.5773 48.675C30.3461 47.9687 30.1898 47.2437 30.1086 46.5062C30.0398 46.0125 30.0961 45.5 30.0961 44.8875H29.3086C27.9273 44.85 26.5336 44.8562 25.1586 44.7437C24.3086 44.675 23.8523 44.2062 23.7461 43.575C23.5836 42.675 23.9836 42 24.8773 41.775C25.3711 41.6625 25.8773 41.6125 26.3773 41.6125C27.5836 41.5875 28.7898 41.6125 30.0461 41.6125V39.0875C28.7211 39.0875 27.4086 39.1 26.0961 39.0875C25.6773 39.0875 25.2648 39.0312 24.8648 38.925C24.0586 38.7 23.7148 38.225 23.7211 37.4437C23.7211 36.7 24.0461 36.2437 24.8648 36.05C25.4461 35.9375 26.0336 35.875 26.6273 35.8625C27.1648 35.8312 27.7086 35.8625 28.3836 35.8625C28.1398 35.4625 27.9711 35.1875 27.8023 34.9125C26.1836 32.3937 24.5711 29.875 22.9586 27.3562C22.8273 27.15 22.7086 26.9437 22.5898 26.7312C21.7836 25.2437 22.1148 24.1187 23.6148 23.375H24.6711C25.5273 23.6812 26.0398 24.3625 26.5023 25.0937C28.3523 28 30.2086 30.9062 32.0711 33.8125C32.1961 34.0062 32.3273 34.2 32.4898 34.4375C32.6523 34.2 32.7586 34.0375 32.8586 33.875C34.6086 30.9812 36.3586 28.0875 38.1023 25.1875C38.5711 24.4 39.0711 23.6687 40.0023 23.375H41.0586C42.5586 24.125 42.9211 25.1875 42.0523 26.7Z" fill="#C3EBFF"/>
</g>
</svg>
