<svg width="64" height="64" viewBox="0 0 64 64" fill="none" xmlns="http://www.w3.org/2000/svg">
<g id="Frame">
<path id="Vector" d="M27.5083 34.2911C26.1534 34.3403 24.897 34.9316 24.0101 35.9662V34.6606H21.1032V47.4954H23.9855V39.7847C23.9609 38.9964 24.2319 38.2327 24.7492 37.6168C25.2173 37.0009 25.9563 36.6314 26.72 36.6807C28.4445 36.6807 29.2328 37.6414 29.2328 39.5876V47.4954H32.1151V39.6369C32.0658 38.8485 32.3122 38.0602 32.8541 37.469C33.2976 36.9516 33.9381 36.656 34.6278 36.6807C35.4162 36.6068 36.2045 36.8531 36.7957 37.3704C37.2884 37.9863 37.5101 38.7746 37.4609 39.563V47.4954H40.3924V39.0703C40.4417 37.7892 39.949 36.5575 39.0622 35.6214C38.1999 34.7345 36.9928 34.2664 35.7364 34.3157C34.9727 34.2911 34.2337 34.4389 33.5439 34.7591C32.7556 35.1287 32.0658 35.6953 31.5731 36.4097C30.7109 34.9808 29.1342 34.1925 27.5083 34.2911ZM41.1315 26.531C40.4171 26.5064 39.7273 26.802 39.2346 27.2947C38.7419 27.7874 38.4463 28.4526 38.4709 29.167H39.9244C39.8997 28.7974 39.9983 28.4033 40.22 28.1077C40.4171 27.8613 40.762 27.7135 41.0822 27.7628C41.3532 27.7381 41.5996 27.812 41.8213 27.9845C41.9937 28.1816 42.0923 28.4279 42.0676 28.6743C42.043 28.9206 41.9445 29.167 41.7966 29.3641C41.5996 29.5858 41.3778 29.7828 41.1315 29.9553C40.5403 30.3248 39.9736 30.7436 39.407 31.187C38.7912 31.7537 38.4463 32.542 38.4216 33.3796H43.5457V32.1478H40.3678C40.6142 31.9261 40.8605 31.729 41.1069 31.5566C41.3778 31.3349 41.6488 31.1378 41.9445 30.9653C42.3632 30.6943 42.7574 30.3495 43.0777 29.9799C43.3979 29.6104 43.595 29.1423 43.595 28.6496C43.6196 28.083 43.3733 27.5164 42.9052 27.1715C42.4125 26.7527 41.7966 26.5557 41.1561 26.5803L41.1315 26.531ZM12.6534 31.0392H7.9481C7.30759 31.0146 6.74098 30.6204 6.49463 30.0292C6.24828 29.438 6.42073 28.7482 6.91343 28.3047L27.262 9.63139C29.7255 7.43887 33.4207 7.43887 35.8842 9.63139L56.2328 28.3787C56.7255 28.7974 56.8979 29.4872 56.6516 30.1031C56.4052 30.6943 55.8386 31.0885 55.1981 31.1131H50.4682V52.9398C50.4928 53.7527 50.1726 54.5411 49.5813 55.1077C48.9654 55.6989 48.1525 56.0438 47.3149 56.0438H15.8559C15.0184 56.0192 14.2054 55.6743 13.6142 55.083C13.0229 54.5411 12.678 53.7527 12.678 52.9398V31.0392H12.6534Z" fill="#C3EBFF"/>
</g>
</svg>
