<svg width="21" height="20" viewBox="0 0 21 20" fill="" xmlns="http://www.w3.org/2000/svg">
<g clip-path="url(#clip0_452_9768)">
<path d="M12.57 20H2.16004C1.81004 20 1.54004 19.72 1.54004 19.37V0.63C1.54004 0.28 1.82004 0 2.16004 0H12.58C12.93 0 13.21 0.28 13.21 0.63V19.38C13.2 19.72 12.92 20 12.57 20ZM2.78004 18.75H11.95V1.25H2.78004V18.75Z" fill=""/>
<path d="M6.1801 4.74047H4.7301C4.3801 4.74047 4.1001 4.46047 4.1001 4.11047C4.1001 3.76047 4.3801 3.48047 4.7301 3.48047H6.1901C6.5401 3.48047 6.8201 3.76047 6.8201 4.11047C6.8201 4.46047 6.5301 4.74047 6.1801 4.74047ZM10.0001 4.74047H8.5501C8.2001 4.74047 7.9201 4.46047 7.9201 4.11047C7.9201 3.76047 8.2001 3.48047 8.5501 3.48047H10.0001C10.3501 3.48047 10.6301 3.76047 10.6301 4.11047C10.6301 4.46047 10.3501 4.74047 10.0001 4.74047ZM6.1801 7.72047H4.7301C4.3801 7.72047 4.1001 7.44047 4.1001 7.09047C4.1001 6.74047 4.3801 6.46047 4.7301 6.46047H6.1901C6.5401 6.46047 6.8201 6.74047 6.8201 7.09047C6.8201 7.44047 6.5301 7.72047 6.1801 7.72047ZM10.0001 7.72047H8.5501C8.2001 7.72047 7.9201 7.44047 7.9201 7.09047C7.9201 6.74047 8.2001 6.46047 8.5501 6.46047H10.0001C10.3501 6.46047 10.6301 6.74047 10.6301 7.09047C10.6301 7.44047 10.3501 7.72047 10.0001 7.72047ZM6.1801 10.7005H4.7301C4.3801 10.7005 4.1001 10.4205 4.1001 10.0705C4.1001 9.72047 4.3801 9.44047 4.7301 9.44047H6.1901C6.5401 9.44047 6.8201 9.72047 6.8201 10.0705C6.8201 10.4205 6.5301 10.7005 6.1801 10.7005ZM10.0001 10.7005H8.5501C8.2001 10.7005 7.9201 10.4205 7.9201 10.0705C7.9201 9.72047 8.2001 9.44047 8.5501 9.44047H10.0001C10.3501 9.44047 10.6301 9.72047 10.6301 10.0705C10.6301 10.4205 10.3501 10.7005 10.0001 10.7005Z" fill=""/>
<path d="M6.1801 13.6904H4.7301C4.3801 13.6904 4.1001 13.4104 4.1001 13.0604C4.1001 12.7104 4.3801 12.4404 4.7301 12.4404H6.1901C6.5401 12.4404 6.8201 12.7204 6.8201 13.0604C6.8101 13.4104 6.5301 13.6904 6.1801 13.6904ZM10.0001 13.6904H8.5501C8.2001 13.6904 7.9201 13.4104 7.9201 13.0604C7.9201 12.7104 8.2001 12.4404 8.5501 12.4404H10.0001C10.3501 12.4404 10.6301 12.7204 10.6301 13.0604C10.6301 13.4104 10.3501 13.6904 10.0001 13.6904Z" fill=""/>
<path d="M6.1801 16.6702H4.7301C4.3801 16.6702 4.1001 16.3902 4.1001 16.0402C4.1001 15.6902 4.3801 15.4102 4.7301 15.4102H6.1901C6.5401 15.4102 6.8201 15.6902 6.8201 16.0402C6.8201 16.3902 6.5301 16.6702 6.1801 16.6702ZM10.0001 16.6702H8.5501C8.2001 16.6702 7.9201 16.3902 7.9201 16.0402C7.9201 15.6902 8.2001 15.4102 8.5501 15.4102H10.0001C10.3501 15.4102 10.6301 15.6902 10.6301 16.0402C10.6301 16.3902 10.3501 16.6702 10.0001 16.6702Z" fill=""/>
<path d="M18.84 20.0004H12.59C12.24 20.0004 11.96 19.7204 11.96 19.3704C11.96 19.0204 12.24 18.7404 12.59 18.7404H18.21L18.2 5.60042L12.44 4.03042C12.11 3.94042 11.91 3.60042 12 3.26042C12.09 2.93042 12.43 2.73042 12.77 2.82042L18.99 4.52042C19.26 4.59042 19.45 4.84042 19.45 5.12042L19.47 19.3704C19.47 19.5404 19.4 19.7004 19.29 19.8104C19.17 19.9304 19.01 20.0004 18.84 20.0004Z" fill=""/>
<path d="M19.88 20.0002H1.13C0.78 20.0002 0.5 19.7202 0.5 19.3702C0.5 19.0202 0.78 18.7402 1.13 18.7402H19.88C20.23 18.7402 20.51 19.0202 20.51 19.3702C20.51 19.7202 20.22 20.0002 19.88 20.0002Z" fill=""/>
</g>
<defs>
<clipPath id="clip0_452_9768">
<rect width="20" height="20" fill="" transform="translate(0.5)"/>
</clipPath>
</defs>
</svg>
