<svg width="12" height="12" viewBox="0 0 12 12" fill="none" xmlns="http://www.w3.org/2000/svg">
<g id="Frame" clip-path="url(#clip0_2394_25322)">
<path id="Vector" d="M11.0001 12H0.999938C0.734738 12 0.4804 11.8946 0.292875 11.7071C0.10535 11.5196 0 11.2653 0 11.0001L0 0.999938C0 0.734738 0.10535 0.4804 0.292875 0.292875C0.4804 0.10535 0.734738 0 0.999938 0L6.99994 0C7.26515 -4.66085e-09 7.51951 0.105344 7.70707 0.292864C7.89462 0.480383 8.00001 0.73472 8.00006 0.999938V4.5H11.0001C11.2653 4.5 11.5196 4.60535 11.7071 4.79288C11.8946 4.9804 12 5.23474 12 5.49994V11.0001C12 11.2653 11.8946 11.5196 11.7071 11.7071C11.5196 11.8946 11.2653 12 11.0001 12ZM7.00012 4.5V0.999938H1.00013V11.0001H7.00012V4.5ZM11.0001 5.49994H8.00006V11.0001H11.0001V5.49994ZM2.49994 2.49994H3C3.13262 2.49994 3.25982 2.55262 3.3536 2.6464C3.44738 2.74018 3.50006 2.86738 3.50006 3V3.50006C3.50001 3.63265 3.44731 3.7598 3.35353 3.85354C3.25976 3.94728 3.13259 3.99994 3 3.99994H2.49994C2.36738 3.99989 2.24026 3.94721 2.14653 3.85347C2.05279 3.75974 2.00011 3.63262 2.00006 3.50006V3C2.00006 2.86741 2.05272 2.74024 2.14646 2.64647C2.2402 2.55269 2.36735 2.49999 2.49994 2.49994ZM2.49994 5.49994H3C3.13262 5.49994 3.25982 5.55262 3.3536 5.6464C3.44738 5.74018 3.50006 5.86738 3.50006 6V6.50006C3.50001 6.63265 3.44731 6.7598 3.35353 6.85354C3.25976 6.94728 3.13259 6.99994 3 6.99994H2.49994C2.36738 6.99989 2.24026 6.94721 2.14653 6.85347C2.05279 6.75974 2.00011 6.63262 2.00006 6.50006V6C2.00006 5.86741 2.05272 5.74024 2.14646 5.64647C2.2402 5.55269 2.36735 5.49999 2.49994 5.49994ZM2.49994 8.49994H3C3.13262 8.49994 3.25982 8.55262 3.3536 8.6464C3.44738 8.74018 3.50006 8.86738 3.50006 9V9.50006C3.50001 9.63266 3.44731 9.7598 3.35353 9.85354C3.25976 9.94728 3.13259 9.99994 3 9.99994H2.49994C2.36738 9.99989 2.24026 9.94721 2.14653 9.85347C2.05279 9.75974 2.00011 9.63262 2.00006 9.50006V9C2.00006 8.86741 2.05272 8.74024 2.14646 8.64647C2.2402 8.55269 2.36735 8.49999 2.49994 8.49994ZM5.00006 2.49994H5.49994C5.63256 2.49994 5.75976 2.55262 5.85353 2.6464C5.94731 2.74018 6 2.86738 6 3V3.50006C5.99995 3.63265 5.94724 3.7598 5.85347 3.85354C5.75969 3.94728 5.63253 3.99994 5.49994 3.99994H5.00006C4.86747 3.99994 4.74031 3.94728 4.64653 3.85354C4.55276 3.7598 4.50005 3.63265 4.5 3.50006V3C4.5 2.86738 4.55269 2.74018 4.64647 2.6464C4.74024 2.55262 4.86744 2.49994 5.00006 2.49994ZM5.00006 5.49994H5.49994C5.63256 5.49994 5.75976 5.55262 5.85353 5.6464C5.94731 5.74018 6 5.86738 6 6V6.50006C5.99995 6.63265 5.94724 6.7598 5.85347 6.85354C5.75969 6.94728 5.63253 6.99994 5.49994 6.99994H5.00006C4.86747 6.99994 4.74031 6.94728 4.64653 6.85354C4.55276 6.7598 4.50005 6.63265 4.5 6.50006V6C4.5 5.86738 4.55269 5.74018 4.64647 5.6464C4.74024 5.55262 4.86744 5.49994 5.00006 5.49994ZM5.00006 8.49994H5.49994C5.63256 8.49994 5.75976 8.55262 5.85353 8.6464C5.94731 8.74018 6 8.86738 6 9V9.50006C5.99995 9.63266 5.94724 9.7598 5.85347 9.85354C5.75969 9.94728 5.63253 9.99994 5.49994 9.99994H5.00006C4.86747 9.99994 4.74031 9.94728 4.64653 9.85354C4.55276 9.7598 4.50005 9.63266 4.5 9.50006V9C4.5 8.86738 4.55269 8.74018 4.64647 8.6464C4.74024 8.55262 4.86744 8.49994 5.00006 8.49994Z" fill="#97A3B7"/>
</g>
<defs>
<clipPath id="clip0_2394_25322">
<rect width="12" height="12" fill="white"/>
</clipPath>
</defs>
</svg>
