<svg width="64" height="64" viewBox="0 0 64 64" fill="none" xmlns="http://www.w3.org/2000/svg">
<path fill-rule="evenodd" clip-rule="evenodd" d="M10.6668 6.93262C7.13217 6.93262 4.26678 9.798 4.26678 13.3326V50.666C4.26678 54.2007 7.13219 57.0659 10.6668 57.0659H37.9609C39.2864 57.0659 40.3609 55.9914 40.3609 54.666C40.3609 53.3405 39.2864 52.2659 37.9609 52.2659H10.6668C9.78311 52.2659 9.06678 51.5496 9.06678 50.666V13.3326C9.06678 12.449 9.78313 11.7326 10.6668 11.7326H53.3335C54.2171 11.7326 54.9334 12.4489 54.9334 13.3326V34.6659C54.9334 35.9914 56.008 37.0659 57.3335 37.0659C58.6589 37.0659 59.7335 35.9914 59.7335 34.6659V13.3326C59.7335 9.79803 56.8682 6.93262 53.3335 6.93262H10.6668ZM48.9703 36.9699C49.9076 36.0326 51.4272 36.0327 52.3644 36.97L58.9933 43.5994C59.3848 43.9745 59.6495 44.4809 59.7165 45.0479C59.8006 45.7535 59.5719 46.4893 59.0305 47.0307L52.3638 53.6974C51.4266 54.6346 49.907 54.6346 48.9697 53.6974C48.0325 52.7601 48.0325 51.2405 48.9697 50.3033L51.5404 47.7326H41.3332C40.0077 47.7326 38.9332 46.6581 38.9332 45.3326C38.9332 44.0071 40.0077 42.9326 41.3332 42.9326H51.5386L48.9702 40.364C48.033 39.4267 48.033 37.9071 48.9703 36.9699ZM18.4636 18.1561C19.4819 17.3076 20.9952 17.4452 21.8438 18.4634L26.6667 24.2509L31.4897 18.4634C32.3382 17.4452 33.8516 17.3076 34.8698 18.1561C35.8881 19.0047 36.0257 20.518 35.1771 21.5363L31.7909 25.5998H34.6668C35.9923 25.5998 37.0668 26.6743 37.0668 27.9998C37.0668 29.3253 35.9923 30.3998 34.6668 30.3998H29.0668V33.5998H34.6668C35.9923 33.5998 37.0668 34.6743 37.0668 35.9998C37.0668 37.3253 35.9923 38.3998 34.6668 38.3998H29.0668V43.9998C29.0668 45.3253 27.9923 46.3998 26.6668 46.3998C25.3413 46.3998 24.2668 45.3253 24.2668 43.9998V38.3998H18.6668C17.3413 38.3998 16.2668 37.3253 16.2668 35.9998C16.2668 34.6743 17.3413 33.5998 18.6668 33.5998H24.2668V30.3998H18.6668C17.3413 30.3998 16.2668 29.3253 16.2668 27.9998C16.2668 26.6743 17.3413 25.5998 18.6668 25.5998H21.5426L18.1563 21.5363C17.3078 20.518 17.4453 19.0047 18.4636 18.1561Z" fill="#CBDDFF"/>
</svg>
