<svg width="65" height="64" viewBox="0 0 65 64" fill="none" xmlns="http://www.w3.org/2000/svg">
<path d="M53.8334 10.667V24.0003L49.8334 20.0003L15.1667 54.667L9.83337 49.3337L44.5 14.667L40.5 10.667H53.8334ZM45.8334 53.3337C43.7116 53.3337 41.6768 52.4908 40.1765 50.9905C38.6762 49.4902 37.8334 47.4554 37.8334 45.3337V40.0003C37.8334 37.8786 38.6762 35.8438 40.1765 34.3435C41.6768 32.8432 43.7116 32.0003 45.8334 32.0003C47.9551 32.0003 49.9899 32.8432 51.4902 34.3435C52.9905 35.8438 53.8334 37.8786 53.8334 40.0003V45.3337C53.8334 47.4554 52.9905 49.4902 51.4902 50.9905C49.9899 52.4908 47.9551 53.3337 45.8334 53.3337ZM45.8334 37.3337C45.1261 37.3337 44.4479 37.6146 43.9478 38.1147C43.4477 38.6148 43.1667 39.2931 43.1667 40.0003V45.3337C43.1667 45.6839 43.2356 46.0307 43.3696 46.3543C43.5036 46.6779 43.7 46.9719 43.9476 47.2195C44.1952 47.4672 44.4892 47.6637 44.8128 47.7977C45.1364 47.9317 45.4831 48.0007 45.8334 48.0007C46.1836 48.0007 46.5304 47.9317 46.854 47.7977C47.1775 47.6637 47.4715 47.4672 47.7191 47.2195C47.9668 46.9719 48.1632 46.6779 48.2972 46.3543C48.4312 46.0307 48.5001 45.6839 48.5 45.3337V40.0003C48.5 39.2931 48.2191 38.6148 47.719 38.1147C47.2189 37.6146 46.5406 37.3337 45.8334 37.3337ZM19.1667 32.0003C17.045 32.0003 15.0101 31.1575 13.5099 29.6572C12.0096 28.1569 11.1667 26.1221 11.1667 24.0003V18.667C11.1667 16.5453 12.0096 14.5104 13.5099 13.0101C15.0101 11.5098 17.045 10.667 19.1667 10.667C21.2884 10.667 23.3233 11.5098 24.8236 13.0101C26.3239 14.5104 27.1667 16.5453 27.1667 18.667V24.0003C27.1667 26.1221 26.3239 28.1569 24.8236 29.6572C23.3233 31.1575 21.2884 32.0003 19.1667 32.0003ZM19.1667 16.0003C18.4595 16.0003 17.7812 16.2813 17.2811 16.7814C16.781 17.2815 16.5 17.9597 16.5 18.667V24.0003C16.5001 24.7075 16.7811 25.3857 17.2812 25.8857C17.7813 26.3857 18.4595 26.6666 19.1667 26.6666C19.8739 26.6666 20.5521 26.3857 21.0522 25.8857C21.5523 25.3857 21.8333 24.7075 21.8334 24.0003V18.667C21.8334 17.9597 21.5524 17.2815 21.0523 16.7814C20.5522 16.2813 19.874 16.0003 19.1667 16.0003Z" fill="#CBDDFF"/>
</svg>
