<svg width="41" height="40" viewBox="0 0 41 40" fill="none" xmlns="http://www.w3.org/2000/svg">
<path d="M33.4761 6.6665V14.9998L30.9761 12.4998L9.30947 34.1665L5.97614 30.8332L27.6428 9.1665L25.1428 6.6665H33.4761ZM28.4761 33.3332C27.1501 33.3332 25.8783 32.8064 24.9406 31.8687C24.0029 30.931 23.4761 29.6593 23.4761 28.3332V24.9998C23.4761 23.6738 24.0029 22.402 24.9406 21.4643C25.8783 20.5266 27.1501 19.9998 28.4761 19.9998C29.8022 19.9998 31.074 20.5266 32.0117 21.4643C32.9494 22.402 33.4761 23.6738 33.4761 24.9998V28.3332C33.4761 29.6593 32.9494 30.931 32.0117 31.8687C31.074 32.8064 29.8022 33.3332 28.4761 33.3332ZM28.4761 23.3332C28.0341 23.3332 27.6102 23.5088 27.2976 23.8213C26.9851 24.1339 26.8095 24.5578 26.8095 24.9998V28.3332C26.8094 28.5521 26.8525 28.7688 26.9363 28.9711C27.02 29.1733 27.1428 29.3571 27.2975 29.5118C27.4523 29.6666 27.636 29.7894 27.8383 29.8732C28.0405 29.957 28.2572 30.0001 28.4761 30.0001C28.695 30.0001 28.9118 29.957 29.114 29.8732C29.3162 29.7894 29.5 29.6666 29.6547 29.5118C29.8095 29.3571 29.9323 29.1733 30.016 28.9711C30.0998 28.7688 30.1428 28.5521 30.1428 28.3332V24.9998C30.1428 24.5578 29.9672 24.1339 29.6546 23.8213C29.3421 23.5088 28.9182 23.3332 28.4761 23.3332ZM11.8095 19.9998C10.4834 19.9998 9.21162 19.4731 8.27393 18.5354C7.33625 17.5977 6.80947 16.3259 6.80947 14.9998V11.6665C6.80947 10.3404 7.33625 9.06865 8.27393 8.13097C9.21162 7.19329 10.4834 6.6665 11.8095 6.6665C13.1356 6.6665 14.4073 7.19329 15.345 8.13097C16.2827 9.06865 16.8095 10.3404 16.8095 11.6665V14.9998C16.8095 16.3259 16.2827 17.5977 15.345 18.5354C14.4073 19.4731 13.1356 19.9998 11.8095 19.9998ZM11.8095 9.99984C11.3674 9.99984 10.9435 10.1754 10.631 10.488C10.3184 10.8006 10.1428 11.2245 10.1428 11.6665V14.9998C10.1429 15.4418 10.3185 15.8657 10.631 16.1782C10.9436 16.4907 11.3675 16.6662 11.8095 16.6662C12.2515 16.6662 12.6753 16.4907 12.9879 16.1782C13.3004 15.8657 13.4761 15.4418 13.4761 14.9998V11.6665C13.4761 11.2245 13.3005 10.8006 12.988 10.488C12.6754 10.1754 12.2515 9.99984 11.8095 9.99984Z" fill="#FFE6C1"/>
</svg>
