<svg width="16" height="16" viewBox="0 0 16 16" fill="" xmlns="http://www.w3.org/2000/svg">
<g id="Frame">
<path id="Vector" d="M7.31248 3.84373C7.31248 3.53279 7.06091 3.28123 6.74998 3.28123C6.43904 3.28123 6.18748 3.53279 6.18748 3.84373V10.6578L5.27341 9.74373C5.0531 9.52341 4.69685 9.52341 4.4781 9.74373C4.25779 9.96404 4.25779 10.3203 4.4781 10.539L6.28279 12.3437C6.38435 12.4937 6.55466 12.5937 6.74998 12.5937C6.90779 12.5937 7.04998 12.5297 7.15154 12.425L7.15466 12.4219C7.28748 12.289 7.3406 12.1062 7.31248 11.9328V3.84373ZM11.5922 5.32029L9.71091 3.43904C9.4906 3.21873 9.13435 3.21873 8.9156 3.43904C8.81091 3.54373 8.75623 3.6781 8.75154 3.81404C8.75154 3.82341 8.74998 3.83435 8.74998 3.84373V12.0312C8.74998 12.3422 9.00154 12.5937 9.31248 12.5937C9.62341 12.5937 9.87498 12.3422 9.87498 12.0312V5.19373L10.7969 6.1156C10.9062 6.22498 11.05 6.27966 11.1953 6.27966C11.3406 6.27966 11.4828 6.22498 11.5937 6.1156C11.8125 5.89685 11.8125 5.5406 11.5922 5.32029Z" fill=""/>
</g>
</svg>
