<svg width="20" height="20" viewBox="0 0 20 20" fill="" xmlns="http://www.w3.org/2000/svg">
<g id="Frame">
<path id="Union" fill-rule="evenodd" clip-rule="evenodd" d="M3.3335 2.29169C2.29796 2.29169 1.4585 3.13115 1.4585 4.16669V15.8334C1.4585 16.8689 2.29797 17.7084 3.3335 17.7084H11.8629C12.2081 17.7084 12.4879 17.4285 12.4879 17.0834C12.4879 16.7382 12.2081 16.4584 11.8629 16.4584H3.3335C2.98831 16.4584 2.7085 16.1785 2.7085 15.8334V4.16669C2.7085 3.82151 2.98832 3.54169 3.3335 3.54169H16.6668C17.012 3.54169 17.2918 3.8215 17.2918 4.16669V10.8334C17.2918 11.1785 17.5717 11.4584 17.9168 11.4584C18.262 11.4584 18.5418 11.1785 18.5418 10.8334V4.16669C18.5418 3.13116 17.7024 2.29169 16.6668 2.29169H3.3335ZM15.3917 11.6414C15.6358 11.3973 16.0316 11.3974 16.2756 11.6414L18.3517 13.7177C18.469 13.8313 18.5419 13.9905 18.5419 14.1667C18.5419 14.3425 18.4693 14.5013 18.3525 14.6149L16.2754 16.692C16.0314 16.9361 15.6356 16.9361 15.3916 16.692C15.1475 16.4479 15.1475 16.0522 15.3916 15.8081L16.408 14.7917H12.9169C12.5718 14.7917 12.2919 14.5119 12.2919 14.1667C12.2919 13.8215 12.5718 13.5417 12.9169 13.5417H16.408L15.3917 12.5253C15.1476 12.2812 15.1477 11.8855 15.3917 11.6414ZM5.85011 5.76989C6.11529 5.54891 6.50939 5.58473 6.73037 5.84991L8.33356 7.77374L9.93676 5.84991C10.1577 5.58473 10.5518 5.54891 10.817 5.76989C11.0822 5.99086 11.118 6.38497 10.897 6.65014L9.66796 8.12503H10.8335C11.1787 8.12503 11.4585 8.40485 11.4585 8.75003C11.4585 9.0952 11.1787 9.37503 10.8335 9.37503H8.9585V10.625H10.8335C11.1787 10.625 11.4585 10.9048 11.4585 11.25C11.4585 11.5952 11.1787 11.875 10.8335 11.875H8.9585V13.75C8.9585 14.0952 8.67867 14.375 8.3335 14.375C7.98832 14.375 7.7085 14.0952 7.7085 13.75V11.875H5.8335C5.48832 11.875 5.2085 11.5952 5.2085 11.25C5.2085 10.9048 5.48832 10.625 5.8335 10.625H7.7085V9.37503H5.8335C5.48832 9.37503 5.2085 9.0952 5.2085 8.75003C5.2085 8.40485 5.48832 8.12503 5.8335 8.12503H6.99916L5.77009 6.65014C5.54911 6.38497 5.58494 5.99086 5.85011 5.76989Z" fill=""/>
</g>
</svg>
