<svg width="20" height="20" viewBox="0 0 20 20" fill="" xmlns="http://www.w3.org/2000/svg">
<g clip-path="url(#clip0_453_9862)">
<path d="M18.8389 12.8571H16.5175V9.46429C16.5175 9.36607 16.4372 9.28571 16.3389 9.28571H10.8032V7.14286H13.2139C13.4104 7.14286 13.5711 6.98214 13.5711 6.78571V0.357143C13.5711 0.160714 13.4104 0 13.2139 0H6.78537C6.58895 0 6.42823 0.160714 6.42823 0.357143V6.78571C6.42823 6.98214 6.58895 7.14286 6.78537 7.14286H9.19609V9.28571H3.66037C3.56216 9.28571 3.4818 9.36607 3.4818 9.46429V12.8571H1.16037C0.963945 12.8571 0.80323 13.0179 0.80323 13.2143V19.6429C0.80323 19.8393 0.963945 20 1.16037 20H7.58895C7.78537 20 7.94609 19.8393 7.94609 19.6429V13.2143C7.94609 13.0179 7.78537 12.8571 7.58895 12.8571H5.08894V10.8929H14.9104V12.8571H12.4104C12.2139 12.8571 12.0532 13.0179 12.0532 13.2143V19.6429C12.0532 19.8393 12.2139 20 12.4104 20H18.8389C19.0354 20 19.1961 19.8393 19.1961 19.6429V13.2143C19.1961 13.0179 19.0354 12.8571 18.8389 12.8571ZM6.24966 14.5536V18.3036H2.49966V14.5536H6.24966ZM8.12466 5.44643V1.69643H11.8747V5.44643H8.12466ZM17.4997 18.3036H13.7497V14.5536H17.4997V18.3036Z" fill=""/>
</g>
<defs>
<clipPath id="clip0_453_9862">
<rect width="20" height="20" fill=""/>
</clipPath>
</defs>
</svg>
