<svg xmlns="http://www.w3.org/2000/svg" width="16" height="16" viewBox="0 0 16 16" fill="none">
  <path fill-rule="evenodd" clip-rule="evenodd" d="M0.933167 3.20025C0.933175 1.94841 1.94799 0.933594 3.19983 0.933594H10.4C11.6519 0.933594 12.6667 1.94841 12.6667 3.20026V6.40026C12.6667 6.76845 12.3682 7.06693 12 7.06693C11.6318 7.06693 11.3333 6.76845 11.3333 6.40026V3.20026C11.3333 2.6848 10.9155 2.26693 10.4 2.26693H3.19983C2.68437 2.26693 2.2665 2.68479 2.2665 3.20026L2.26644 12.8002C2.26644 13.3157 2.6843 13.7336 3.19977 13.7336H7.19977C7.56796 13.7336 7.86644 14.032 7.86644 14.4002C7.86644 14.7684 7.56796 15.0669 7.19977 15.0669H3.19976C1.94792 15.0669 0.933097 14.0521 0.933105 12.8002L0.933167 3.20025ZM3.73336 4.80026C3.73336 4.43207 4.03183 4.13359 4.40002 4.13359H9.20002C9.56821 4.13359 9.86669 4.43207 9.86669 4.80026C9.86669 5.16845 9.56821 5.46693 9.20002 5.46693H4.40002C4.03183 5.46693 3.73336 5.16845 3.73336 4.80026ZM3.73336 7.20026C3.73336 6.83207 4.03183 6.53359 4.40002 6.53359H9.20002C9.56821 6.53359 9.86669 6.83207 9.86669 7.20026C9.86669 7.56845 9.56821 7.86693 9.20002 7.86693H4.40002C4.03183 7.86693 3.73336 7.56845 3.73336 7.20026ZM3.73336 9.60026C3.73336 9.23207 4.03183 8.93359 4.40002 8.93359H6.80002C7.16821 8.93359 7.46669 9.23207 7.46669 9.60026C7.46669 9.96845 7.16821 10.2669 6.80002 10.2669H4.40002C4.03183 10.2669 3.73336 9.96845 3.73336 9.60026ZM9.52847 11.5887C9.6048 11.7294 9.7235 11.916 9.89248 12.1022C10.2292 12.4732 10.7642 12.8457 11.6105 12.8592C12.4428 12.8726 12.9684 12.5077 13.3031 12.1322C13.4748 11.9397 13.595 11.7443 13.6716 11.5974C13.6723 11.5962 13.6729 11.595 13.6736 11.5937C13.6725 11.5915 13.6713 11.5893 13.6702 11.587C13.595 11.4367 13.4766 11.2366 13.3058 11.0385C12.9728 10.6521 12.4455 10.2729 11.5998 10.2729C10.754 10.2729 10.2267 10.6521 9.8937 11.0385C9.72297 11.2366 9.60452 11.4367 9.52933 11.587C9.52905 11.5876 9.52876 11.5881 9.52847 11.5887ZM14.3998 11.6003C15.0348 11.3973 15.0347 11.397 15.0346 11.3967L15.0344 11.396L15.0339 11.3945L15.0327 11.391L15.0296 11.3816C15.0272 11.3744 15.0241 11.3653 15.0202 11.3544C15.0125 11.3327 15.0017 11.3037 14.9878 11.2686C14.9599 11.1984 14.9189 11.1029 14.8626 10.9904C14.7508 10.7668 14.5747 10.4684 14.3158 10.168C13.7895 9.55741 12.9169 8.93958 11.5998 8.93958C10.2827 8.93958 9.40999 9.55741 8.88373 10.168C8.62481 10.4684 8.44879 10.7668 8.33692 10.9904C8.28064 11.1029 8.23961 11.1984 8.21176 11.2686C8.1978 11.3037 8.18708 11.3327 8.17934 11.3544C8.17547 11.3653 8.17234 11.3744 8.16992 11.3816L8.16681 11.391L8.16565 11.3945L8.16516 11.396L8.16494 11.3967C8.16484 11.397 8.16474 11.3973 8.79977 11.6003L8.16474 11.3973C8.12059 11.5355 8.1227 11.6843 8.17076 11.8211L8.79977 11.6003C8.17076 11.8211 8.17087 11.8214 8.17098 11.8218L8.17122 11.8224L8.17175 11.8239L8.17301 11.8275L8.17635 11.8366C8.17893 11.8436 8.18226 11.8524 8.18634 11.863C8.19451 11.884 8.20576 11.9118 8.22031 11.9456C8.24936 12.013 8.29188 12.1044 8.34975 12.212C8.46488 12.4262 8.64439 12.7109 8.90515 12.9982C9.43441 13.5814 10.2994 14.1717 11.5891 14.1924C12.8927 14.2133 13.7671 13.6154 14.2983 13.0195C14.5597 12.7264 14.739 12.4339 14.8536 12.2145C14.9113 12.104 14.9535 12.0101 14.9823 11.9411C14.9967 11.9065 15.0079 11.878 15.0159 11.8566C15.02 11.8458 15.0232 11.8369 15.0257 11.8298L15.029 11.8205L15.0302 11.817L15.0307 11.8155L15.031 11.8148C15.0311 11.8145 15.0312 11.8142 14.3998 11.6003ZM14.3998 11.6003L15.0312 11.8142C15.0769 11.6792 15.0782 11.5331 15.0348 11.3973L14.3998 11.6003ZM11.5998 10.8575C11.968 10.8575 12.2664 11.156 12.2664 11.5241V11.5662C12.2664 11.9344 11.968 12.2329 11.5998 12.2329C11.2316 12.2329 10.9331 11.9344 10.9331 11.5662V11.5241C10.9331 11.156 11.2316 10.8575 11.5998 10.8575Z" fill="#1776FF"/>
</svg>