<svg width="14" height="14" viewBox="0 0 14 14" fill="" xmlns="http://www.w3.org/2000/svg">
<path d="M7.01077 2.54639C4.88384 2.54639 3.16016 4.27144 3.16016 6.39837C3.16016 8.5253 4.88521 10.2504 7.01214 10.2504C9.13907 10.2504 10.8641 8.5253 10.8641 6.39837C10.8628 4.27144 9.13907 2.54639 7.01077 2.54639Z" fill=""/>
<path d="M4.37109 11.4111H9.64741V12.1821H4.37109V11.4111Z" fill=""/>
<path d="M5.16016 13.229H8.85768V13.9999H5.16016V13.229Z" fill=""/>
<path d="M6.60548 0.00146484H7.37642V1.54062H6.60548V0.00146484ZM2.22778 2.14409L2.77291 1.59896L3.86125 2.6873L3.31612 3.23243L2.22778 2.14409ZM0.648438 5.98448H2.18759V6.75542H0.648438V5.98448ZM11.8203 5.95987H13.3594V6.73081H11.8203V5.95987ZM10.1286 2.67015L11.217 1.5818L11.7621 2.12693L10.6738 3.21527L10.1286 2.67015Z" fill=""/>
</svg>
