<svg width="16" height="16" viewBox="0 0 16 16" fill="none" xmlns="http://www.w3.org/2000/svg">
<g id="Frame">
<path id="Vector" d="M12.3546 2.68265C12.2797 2.51802 12.1588 2.37857 12.0065 2.2811C11.8541 2.18363 11.6768 2.13231 11.496 2.13332H3.0693C2.69597 2.13332 2.3653 2.34398 2.20797 2.68265C2.05064 3.02132 2.1013 3.40798 2.3413 3.69332L5.30664 7.21598V11.9306C5.30664 12.376 5.57064 12.776 5.9813 12.9493L8.10664 13.8586C8.21064 13.904 8.31997 13.9253 8.43197 13.9253C8.59197 13.9253 8.7493 13.88 8.8853 13.7893C8.99937 13.7144 9.09299 13.6123 9.15771 13.4922C9.22242 13.3721 9.25619 13.2378 9.25597 13.1013V7.21598L12.2213 3.69332C12.4613 3.40798 12.512 3.02132 12.3546 2.68265ZM8.1893 6.82665V12.7333L6.39997 11.9706C6.38397 11.9626 6.3733 11.9493 6.3733 11.9306V6.82665L3.32264 3.19998H11.2453L8.1893 6.82665ZM13.3333 11.6426H11.6053C11.312 11.6426 11.072 11.8826 11.072 12.176C11.072 12.4693 11.312 12.7093 11.6053 12.7093H13.3333C13.6266 12.7093 13.8666 12.4693 13.8666 12.176C13.8666 11.8826 13.6266 11.6426 13.3333 11.6426ZM13.3333 9.33598H11.6053C11.312 9.33598 11.072 9.57598 11.072 9.86932C11.072 10.1626 11.312 10.4026 11.6053 10.4026H13.3333C13.6266 10.4026 13.8666 10.1626 13.8666 9.86932C13.8666 9.57598 13.6266 9.33598 13.3333 9.33598Z" fill="#3C485C"/>
<path id="Vector_2" d="M11.072 7.56532C11.072 7.85865 11.312 8.09865 11.6054 8.09865H13.3334C13.6267 8.09865 13.8667 7.85865 13.8667 7.56532C13.8667 7.27198 13.6267 7.03198 13.3334 7.03198H11.6054C11.4639 7.03198 11.3283 7.08817 11.2282 7.18819C11.1282 7.28821 11.072 7.42387 11.072 7.56532Z" fill="#3C485C"/>
</g>
</svg>
