<svg width="20" height="20" viewBox="0 0 20 20" fill="" xmlns="http://www.w3.org/2000/svg">
<path d="M15.1787 4.64013L13.393 4.64013C13.2948 4.64013 13.2144 4.72048 13.2144 4.8187L13.2144 15.1758C13.2144 15.2741 13.2948 15.3544 13.393 15.3544L15.1787 15.3544C15.2769 15.3544 15.3573 15.2741 15.3573 15.1758L15.3573 4.8187C15.3573 4.72048 15.2769 4.64013 15.1787 4.64013ZM10.893 10.8901L9.10728 10.8901C9.00907 10.8901 8.92871 10.9705 8.92871 11.0687L8.92871 15.1758C8.92871 15.2741 9.00907 15.3544 9.10728 15.3544L10.893 15.3544C10.9912 15.3544 11.0716 15.2741 11.0716 15.1758L11.0716 11.0687C11.0716 10.9705 10.9912 10.8901 10.893 10.8901ZM6.60728 9.28299L4.82157 9.28299C4.72335 9.28299 4.643 9.36334 4.643 9.46156L4.643 15.1758C4.643 15.2741 4.72335 15.3544 4.82157 15.3544L6.60728 15.3544C6.7055 15.3544 6.78585 15.2741 6.78585 15.1758L6.78585 9.46156C6.78585 9.36334 6.7055 9.28299 6.60728 9.28299ZM1.78585 18.9258L18.2144 18.9258C18.6095 18.9258 18.9287 18.6066 18.9287 18.2116L18.9287 1.78298C18.9287 1.38789 18.6095 1.0687 18.2144 1.0687L1.78585 1.0687C1.39076 1.0687 1.07157 1.3879 1.07157 1.78298L1.07157 18.2116C1.07157 18.6066 1.39077 18.9258 1.78585 18.9258ZM2.67871 2.67584L17.3216 2.67584L17.3216 17.3187L2.67871 17.3187L2.67871 2.67584Z" fill=""/>
</svg>
