<svg width="14" height="14" viewBox="0 0 14 14" fill="none" xmlns="http://www.w3.org/2000/svg">
<g id="Frame">
<path id="Vector" d="M11.1686 1.82598H10.0858V1.38711C10.0858 1.10273 9.8561 0.873047 9.57173 0.873047C9.28735 0.873047 9.05767 1.10273 9.05767 1.38711V1.82598H4.94517V1.38711C4.94517 1.10273 4.71548 0.873047 4.4311 0.873047C4.14673 0.873047 3.91704 1.10273 3.91704 1.38711V1.82598H2.83149C1.9811 1.82598 1.28931 2.51777 1.28931 3.36816V11.5781C1.28931 12.4285 1.9811 13.1203 2.83149 13.1203H11.17C12.0204 13.1203 12.7122 12.4285 12.7122 11.5781V3.36816C12.7108 2.51777 12.019 1.82598 11.1686 1.82598ZM2.83149 2.8541H3.91704V3.50762C3.91704 3.79199 4.14673 4.02168 4.4311 4.02168C4.71548 4.02168 4.94517 3.79199 4.94517 3.50762V2.8541H9.05767V3.50762C9.05767 3.79199 9.28735 4.02168 9.57173 4.02168C9.8561 4.02168 10.0858 3.79199 10.0858 3.50762V2.8541H11.1686C11.4516 2.8541 11.6827 3.08516 11.6827 3.36816V4.57266H2.31743V3.36816C2.31743 3.08516 2.54712 2.8541 2.83149 2.8541ZM11.1686 12.0922H2.83149C2.54849 12.0922 2.31743 11.8611 2.31743 11.5781V5.60215H11.684V11.5795C11.6827 11.8611 11.453 12.0922 11.1686 12.0922Z" fill="#97A3B7"/>
<path id="Vector_2" d="M9.94224 6.8125H3.77212C3.48774 6.8125 3.25806 7.04219 3.25806 7.32656C3.25806 7.61094 3.48774 7.84063 3.77212 7.84063H9.94224C10.2266 7.84063 10.4563 7.61094 10.4563 7.32656C10.4563 7.04219 10.2252 6.8125 9.94224 6.8125ZM9.94224 9.30215H3.77212C3.48774 9.30215 3.25806 9.53184 3.25806 9.81621C3.25806 10.1006 3.48774 10.3303 3.77212 10.3303H9.94224C10.2266 10.3303 10.4563 10.1006 10.4563 9.81621C10.4563 9.53184 10.2252 9.30215 9.94224 9.30215Z" fill="#97A3B7"/>
</g>
</svg>
