<svg width="20" height="20" viewBox="0 0 20 20" fill="none" xmlns="http://www.w3.org/2000/svg">
<g id="Frame">
<path id="Vector" d="M8.39771 4.39141C8.39771 4.60183 8.43915 4.81019 8.51968 5.0046C8.6002 5.199 8.71823 5.37564 8.86702 5.52443C9.01581 5.67323 9.19245 5.79125 9.38686 5.87178C9.58126 5.9523 9.78963 5.99375 10 5.99375C10.2105 5.99375 10.4188 5.9523 10.6132 5.87178C10.8076 5.79125 10.9843 5.67323 11.1331 5.52443C11.2819 5.37564 11.3999 5.199 11.4804 5.0046C11.5609 4.81019 11.6024 4.60183 11.6024 4.39141C11.6024 3.96644 11.4336 3.55888 11.1331 3.25838C10.8326 2.95788 10.425 2.78906 10 2.78906C9.57508 2.78906 9.16752 2.95788 8.86702 3.25838C8.56652 3.55888 8.39771 3.96644 8.39771 4.39141Z" fill="#5F7292"/>
<path id="Vector_2" d="M8.39771 10.0008C8.39771 10.2112 8.43915 10.4196 8.51968 10.614C8.6002 10.8084 8.71823 10.985 8.86702 11.1338C9.01581 11.2826 9.19245 11.4006 9.38686 11.4812C9.58126 11.5617 9.78963 11.6031 10 11.6031C10.2105 11.6031 10.4188 11.5617 10.6132 11.4812C10.8076 11.4006 10.9843 11.2826 11.1331 11.1338C11.2819 10.985 11.3999 10.8084 11.4804 10.614C11.5609 10.4196 11.6024 10.2112 11.6024 10.0008C11.6024 9.57581 11.4336 9.16825 11.1331 8.86775C10.8326 8.56726 10.425 8.39844 10 8.39844C9.57508 8.39844 9.16752 8.56726 8.86702 8.86775C8.56652 9.16825 8.39771 9.57581 8.39771 10.0008Z" fill="#5F7292"/>
<path id="Vector_3" d="M8.39771 15.6082C8.39771 15.8186 8.43915 16.027 8.51968 16.2214C8.6002 16.4158 8.71823 16.5924 8.86702 16.7412C9.01581 16.89 9.19245 17.0081 9.38686 17.0886C9.58126 17.1691 9.78963 17.2105 10 17.2105C10.2105 17.2105 10.4188 17.1691 10.6132 17.0886C10.8076 17.0081 10.9843 16.89 11.1331 16.7412C11.2819 16.5924 11.3999 16.4158 11.4804 16.2214C11.5609 16.027 11.6024 15.8186 11.6024 15.6082C11.6024 15.1832 11.4336 14.7757 11.1331 14.4752C10.8326 14.1747 10.425 14.0059 10 14.0059C9.57508 14.0059 9.16752 14.1747 8.86702 14.4752C8.56652 14.7757 8.39771 15.1832 8.39771 15.6082Z" fill="#5F7292"/>
</g>
</svg>
