<svg width="14" height="14" viewBox="0 0 14 14" fill="none" xmlns="http://www.w3.org/2000/svg">
<g id="Frame">
<path id="Vector" d="M5.2629 6.66389H2.54068C1.81476 6.66389 1.24438 6.09352 1.24438 5.36759V2.6713C1.24438 1.94537 1.81476 1.375 2.54068 1.375H5.2629C5.98883 1.375 6.5592 1.94537 6.5592 2.6713V5.39352C6.5592 6.09352 5.9629 6.66389 5.2629 6.66389ZM2.54068 2.41204C2.41105 2.41204 2.28142 2.54167 2.28142 2.6713V5.39352C2.28142 5.52315 2.41105 5.65278 2.54068 5.65278H5.2629C5.39253 5.65278 5.52216 5.52315 5.52216 5.39352V2.6713C5.52216 2.54167 5.39253 2.41204 5.2629 2.41204H2.54068ZM11.1999 6.66389H8.50364C7.77772 6.66389 7.20735 6.09352 7.20735 5.36759V2.6713C7.20735 1.94537 7.77772 1.375 8.50364 1.375H11.2259C11.9518 1.375 12.5222 1.94537 12.5222 2.6713V5.39352C12.4962 6.09352 11.9259 6.66389 11.1999 6.66389ZM8.50364 2.41204C8.37401 2.41204 8.24439 2.54167 8.24439 2.6713V5.39352C8.24439 5.52315 8.37401 5.65278 8.50364 5.65278H11.2259C11.3555 5.65278 11.4851 5.52315 11.4851 5.39352V2.6713C11.4851 2.54167 11.3555 2.41204 11.2259 2.41204H8.50364ZM5.2629 12.6269H2.54068C1.81476 12.6269 1.24438 12.0565 1.24438 11.3306V8.60833C1.24438 7.88241 1.81476 7.31204 2.54068 7.31204H5.2629C5.98883 7.31204 6.5592 7.88241 6.5592 8.60833V11.3306C6.5592 12.0565 5.9629 12.6269 5.2629 12.6269ZM2.54068 8.34907C2.41105 8.34907 2.28142 8.4787 2.28142 8.60833V11.3306C2.28142 11.4602 2.41105 11.5898 2.54068 11.5898H5.2629C5.39253 11.5898 5.52216 11.4602 5.52216 11.3306V8.60833C5.52216 8.4787 5.39253 8.34907 5.2629 8.34907H2.54068ZM11.1999 12.6269H8.50364C7.77772 12.6269 7.20735 12.0565 7.20735 11.3306V8.60833C7.20735 7.88241 7.77772 7.31204 8.50364 7.31204H11.2259C11.9518 7.31204 12.5222 7.88241 12.5222 8.60833V11.3306C12.4962 12.0565 11.9259 12.6269 11.1999 12.6269ZM8.50364 8.34907C8.37401 8.34907 8.24439 8.4787 8.24439 8.60833V11.3306C8.24439 11.4602 8.37401 11.5898 8.50364 11.5898H11.2259C11.3555 11.5898 11.4851 11.4602 11.4851 11.3306V8.60833C11.4851 8.4787 11.3555 8.34907 11.2259 8.34907H8.50364Z" fill="#97A3B7"/>
</g>
</svg>
