<svg width="65" height="64" viewBox="0 0 65 64" fill="none" xmlns="http://www.w3.org/2000/svg">
<g id="Frame">
<path id="Vector" d="M30.5665 40.9001V54.5501C30.5665 54.9001 30.5665 54.9001 30.9165 55.2501C31.2665 55.6001 31.2665 55.6001 31.6165 55.6001H39.3165C39.6665 55.6001 40.0165 55.6001 40.0165 55.2501C40.3665 55.2501 40.3665 54.9001 40.3665 54.5501V36.7001L32.6665 42.6501L30.5665 40.9001ZM4.6665 54.2001C4.6665 54.9001 5.0165 55.2501 5.7165 55.2501H13.4165C14.1165 55.2501 14.4665 54.9001 14.4665 54.2001V39.5001L4.6665 47.2001V54.2001ZM17.6165 36.7001V54.5501C17.6165 54.9001 17.6165 54.9001 17.9665 55.2501C18.3165 55.2501 18.3165 55.6001 18.6665 55.6001H26.3665C26.7165 55.6001 27.0665 55.6001 27.0665 55.2501C27.4165 55.2501 27.4165 54.9001 27.4165 54.5501V37.0501L22.5165 33.5501L17.6165 36.7001ZM47.0165 54.5501C47.0165 54.9001 47.0165 54.9001 47.3665 55.2501C47.7165 55.6001 47.7165 55.6001 48.0665 55.6001H55.7665C56.1165 55.6001 56.4665 55.6001 56.4665 55.2501C56.8165 55.2501 56.8165 54.9001 56.8165 54.5501V23.7501L47.0165 31.1001V54.5501ZM44.9165 8.00006C44.5665 8.35006 44.5665 8.35006 44.5665 8.70006L50.8665 15.0001L34.0665 30.4001L22.5165 20.2501L4.6665 36.0001V42.6501L22.8665 26.9001L34.4165 37.0501L54.7165 18.5001L59.9665 23.7501H60.3165C60.3165 23.7501 60.6665 23.7501 60.6665 23.4001V8.35006V8.00006H44.9165Z" fill="#CBDDFF"/>
</g>
</svg>
