<svg width="65" height="64" viewBox="0 0 65 64" fill="none" xmlns="http://www.w3.org/2000/svg">
<g id="Frame">
<path id="Vector" d="M22.84 15.7924H38.992C38.992 15.7924 40.216 12.3644 47.824 6.95241C46.368 6.23241 44.272 7.35241 43.408 6.68441C42.484 5.97241 42.656 3.44041 40.4 3.16841C38.148 2.89641 35.8 5.87241 35.8 5.87241C35.8 5.87241 33.736 7.67641 32.796 4.88441C31.856 2.08041 28.38 1.81641 27.252 1.81641C26.124 1.81641 23.332 2.62841 22.836 6.07641C22.624 7.15641 21.428 7.56441 20.444 7.02441C19.456 6.48441 18.116 6.07641 16.076 6.28041C18.472 8.80441 24.528 14.3484 22.836 15.7924H22.84ZM53.552 48.5644C53.552 48.5644 53.648 35.8524 53.552 34.9524C53.224 28.4604 39.7 19.8004 39.7 19.8004H23.12C17.156 23.0444 9.73603 30.2124 8.93603 35.0804C8.86803 35.3364 8.37603 45.8124 8.18403 49.3724C7.99603 52.9324 5.55603 56.2724 5.55603 56.2724C5.55603 56.2724 11.66 60.4644 31.716 60.5964C51.768 60.7324 54.636 57.2644 56.652 56.1364C53.932 56.2244 53.552 48.5604 53.552 48.5604V48.5644ZM39.348 46.2484C39.076 47.9284 38.104 51.5924 32.84 51.9604V55.1684H29.124V51.9844C26.9584 51.6679 24.8257 51.1565 22.752 50.4564L23.868 46.2644C25.536 46.8884 27.732 47.5564 29.668 47.7724C32.292 48.0644 34.06 47.5484 34.228 45.7204C34.6 42.5204 22.908 41.9604 23.016 36.1844C22.856 31.9444 26.064 30.0924 29.256 29.8364V26.5004H32.976V29.6844C35.084 29.7084 36.756 30.1484 38.384 30.8284L37.352 34.7804C35.72 34.1884 34.044 33.6364 32.044 33.6364C30.748 33.6364 28.028 33.6364 27.936 35.3524C27.936 38.3044 33.08 38.4564 34.792 39.1524C36.036 39.6604 36.904 40.1604 37.792 40.9924C39.34 42.4444 39.66 44.3124 39.348 46.2484Z" fill="#CBDDFF"/>
</g>
</svg>
