<svg width="20" height="20" viewBox="0 0 20 20" fill="" xmlns="http://www.w3.org/2000/svg">
<g id="Frame">
<path id="Vector" d="M17.7166 14.8547H14.4377C12.7963 14.8547 11.4609 13.5193 11.4609 11.8779V11.8002C11.4609 10.1588 12.7963 8.82343 14.4377 8.82343H17.7166V10.2504H14.4377C13.5832 10.2504 12.8879 10.9457 12.8879 11.8002V11.8779C12.8879 12.7324 13.5832 13.4277 14.4377 13.4277H17.7166V14.8547Z" fill=""/>
<path id="Vector_2" d="M13.9512 11.8391C13.9512 12.0283 14.0263 12.2098 14.1601 12.3436C14.2939 12.4774 14.4754 12.5526 14.6646 12.5526C14.8539 12.5526 15.0354 12.4774 15.1692 12.3436C15.303 12.2098 15.3781 12.0283 15.3781 11.8391C15.3781 11.7454 15.3597 11.6526 15.3238 11.5661C15.288 11.4795 15.2354 11.4008 15.1692 11.3346C15.1029 11.2683 15.0242 11.2158 14.9377 11.1799C14.8511 11.1441 14.7583 11.1256 14.6646 11.1256C14.571 11.1256 14.4782 11.1441 14.3916 11.1799C14.3051 11.2158 14.2264 11.2683 14.1601 11.3346C14.0939 11.4008 14.0413 11.4795 14.0055 11.5661C13.9696 11.6526 13.9512 11.7454 13.9512 11.8391Z" fill=""/>
<path id="Vector_3" d="M16.7313 5.24216H16.1857L14.7648 2.52185C14.3094 1.64997 13.2297 1.3113 12.3578 1.76657L5.7043 5.24197H3.26816C2.28457 5.24197 1.48438 6.04216 1.48438 7.02575V16.6519C1.48438 17.6355 2.28457 18.4357 3.26816 18.4357H16.7313C17.7148 18.4357 18.515 17.6355 18.515 16.6519V7.02595C18.515 6.04236 17.7148 5.24216 16.7313 5.24216ZM13.0186 3.03161C13.193 2.9406 13.4088 3.00837 13.5 3.18259L14.5758 5.24216H8.78652L13.0186 3.03161ZM17.0881 16.6521C17.0881 16.8488 16.9281 17.009 16.7313 17.009H3.26836C3.07168 17.009 2.91152 16.849 2.91152 16.6521V7.02595C2.91152 6.82927 3.07148 6.66911 3.26836 6.66911H16.7313C16.9279 6.66911 17.0881 6.82907 17.0881 7.02595V16.6521Z" fill=""/>
</g>
</svg>
