<svg width="14" height="14" viewBox="0 0 14 14" fill="none" xmlns="http://www.w3.org/2000/svg">
<g id="Frame" clip-path="url(#clip0_2394_25354)">
<path id="Vector" d="M11.2325 5.19104V1.95707C11.2325 1.13969 8.81594 0.5 5.86627 0.5C2.9166 0.5 0.5 1.13969 0.5 1.95707V10.0953C0.5 10.9127 2.9166 11.5524 5.86627 11.5524H5.93734C6.32696 12.049 6.82271 12.4522 7.38831 12.7324C7.9539 13.0126 8.57501 13.1628 9.20615 13.1719C9.8373 13.1811 10.4625 13.0489 11.036 12.7852C11.6094 12.5214 12.1166 12.1328 12.5205 11.6476C12.9243 11.1625 13.2145 10.5932 13.3698 9.98141C13.5252 9.36962 13.5417 8.73082 13.4182 8.11181C13.2947 7.49279 13.0344 6.90924 12.6562 6.40386C12.278 5.89849 11.7916 5.4841 11.2325 5.19104ZM5.86627 1.45953C7.22219 1.4243 8.57575 1.592 9.88208 1.95707C8.57575 2.32213 7.22219 2.48983 5.86627 2.4546C4.49869 2.48909 3.13351 2.32144 1.81491 1.95707C3.13459 1.59816 4.49896 1.43061 5.86627 1.45953ZM1.45953 2.80998C2.41906 3.2009 4.05382 3.44967 5.86627 3.44967C7.36104 3.49162 8.85185 3.27521 10.273 2.80998V4.48028C10.0181 4.58019 9.75693 4.66329 9.49116 4.72904H9.27793C8.72859 4.72515 8.1843 4.83401 7.67871 5.04889C7.67871 5.04889 6.54149 5.1555 5.86627 5.1555C4.37167 5.19435 2.88139 4.97802 1.45953 4.51581V2.80998ZM1.45953 9.88208V8.21179C2.62369 8.56744 3.8318 8.75883 5.04889 8.7804V8.95809C5.04502 9.51892 5.15378 10.0748 5.36873 10.5928C3.23644 10.5218 1.88599 10.1308 1.45953 9.88208ZM5.19104 7.82087C3.41413 7.74979 2.09922 7.46548 1.45953 7.18118V5.51088C2.73891 5.97288 4.55135 6.11503 5.86627 6.11503H6.15057C5.70281 6.60157 5.37432 7.18556 5.19104 7.82087ZM9.27793 12.2276C8.63128 12.2276 7.99916 12.0358 7.46149 11.6766C6.92382 11.3173 6.50476 10.8067 6.2573 10.2093C6.00983 9.61185 5.94509 8.95446 6.07124 8.32024C6.1974 7.68601 6.50879 7.10344 6.96604 6.64619C7.42329 6.18894 8.00586 5.87755 8.64008 5.7514C9.27431 5.62524 9.93169 5.68999 10.5291 5.93745C11.1265 6.18491 11.6372 6.60397 11.9964 7.14164C12.3557 7.67931 12.5474 8.31144 12.5474 8.95809C12.5484 9.38771 12.4645 9.81329 12.3005 10.2104C12.1365 10.6075 11.8957 10.9683 11.5919 11.2721C11.2881 11.5759 10.9273 11.8167 10.5302 11.9806C10.1331 12.1446 9.70755 12.2285 9.27793 12.2276ZM10.1664 7.74979H10.9127C10.8605 7.4599 10.7252 7.1914 10.5234 6.97691C10.3215 6.76242 10.0617 6.61115 9.77547 6.54149V6.3638C9.77861 6.31632 9.77157 6.26871 9.75482 6.22417C9.73807 6.17963 9.712 6.13918 9.67835 6.10553C9.6447 6.07189 9.60425 6.04581 9.55971 6.02907C9.51517 6.01232 9.46757 6.00528 9.42008 6.00842H9.31347C9.26599 6.00528 9.21838 6.01232 9.17384 6.02907C9.1293 6.04581 9.08885 6.07189 9.0552 6.10553C9.02156 6.13918 8.99548 6.17963 8.97874 6.22417C8.96199 6.26871 8.95495 6.31632 8.95809 6.3638V6.47042C8.6125 6.51386 8.29263 6.67569 8.0529 6.92838C7.81317 7.18107 7.66839 7.50901 7.64318 7.8564C7.66839 8.2038 7.81317 8.53174 8.0529 8.78443C8.29263 9.03711 8.6125 9.19895 8.95809 9.24239V10.5573C8.83015 10.5265 8.71158 10.4652 8.61255 10.3785C8.51351 10.2919 8.43697 10.1825 8.38948 10.0598H7.64318C7.69668 10.3761 7.84952 10.6672 8.07955 10.8908C8.30958 11.1145 8.60484 11.259 8.92255 11.3036V11.5168C8.91941 11.5643 8.92645 11.6119 8.9432 11.6565C8.95995 11.701 8.98602 11.7415 9.01967 11.7751C9.05331 11.8088 9.09376 11.8348 9.1383 11.8516C9.18285 11.8683 9.23045 11.8754 9.27793 11.8722H9.38455C9.43203 11.8754 9.47963 11.8683 9.52418 11.8516C9.56872 11.8348 9.60917 11.8088 9.64281 11.7751C9.67646 11.7415 9.70253 11.701 9.71928 11.6565C9.73603 11.6119 9.74307 11.5643 9.73993 11.5168V11.2681C10.057 11.2176 10.3469 11.0592 10.5606 10.8196C10.7743 10.58 10.8987 10.2739 10.9127 9.95316C10.9099 9.75178 10.8603 9.55381 10.7678 9.37493C10.6753 9.19604 10.5424 9.04116 10.3796 8.92255C10.2051 8.77883 9.99743 8.68109 9.77547 8.63824V7.32333C9.86897 7.35967 9.95287 7.41703 10.0207 7.49098C10.0884 7.56493 10.1383 7.65348 10.1664 7.74979ZM8.95809 8.49609C8.63825 8.38948 8.38948 8.17625 8.38948 7.89194C8.4072 7.73987 8.47126 7.59692 8.57297 7.48249C8.67469 7.36806 8.80914 7.28768 8.95809 7.25226V8.49609ZM10.2019 9.9887C10.1765 10.1043 10.1248 10.2125 10.0509 10.305C9.97694 10.3974 9.8827 10.4716 9.77547 10.5218V9.42008C9.89456 9.46247 9.99852 9.53901 10.0744 9.64014C10.1502 9.74127 10.1946 9.8625 10.2019 9.9887Z" fill="#97A3B7"/>
</g>
<defs>
<clipPath id="clip0_2394_25354">
<rect width="14" height="14" fill="white"/>
</clipPath>
</defs>
</svg>
