<svg width="64" height="64" viewBox="0 0 64 64" fill="none" xmlns="http://www.w3.org/2000/svg">
<g id="Frame">
<path id="Vector" d="M22.3402 15.792H38.4922C38.4922 15.792 39.7162 12.364 47.3242 6.95198C45.8682 6.23198 43.7722 7.35198 42.9082 6.68398C41.9842 5.97198 42.1562 3.43998 39.9002 3.16798C37.6482 2.89598 35.3002 5.87198 35.3002 5.87198C35.3002 5.87198 33.2362 7.67598 32.2962 4.88398C31.3562 2.07998 27.8802 1.81598 26.7522 1.81598C25.6242 1.81598 22.8322 2.62798 22.3362 6.07598C22.1242 7.15598 20.9282 7.56398 19.9442 7.02398C18.9562 6.48398 17.6162 6.07598 15.5762 6.27998C17.9722 8.80398 24.0282 14.348 22.3362 15.792H22.3402ZM53.0522 48.564C53.0522 48.564 53.1482 35.852 53.0522 34.952C52.7242 28.46 39.2002 19.8 39.2002 19.8H22.6202C16.6562 23.044 9.23615 30.212 8.43615 35.08C8.36815 35.336 7.87615 45.812 7.68415 49.372C7.49615 52.932 5.05615 56.272 5.05615 56.272C5.05615 56.272 11.1602 60.464 31.2162 60.596C51.2682 60.732 54.1362 57.264 56.1522 56.136C53.4322 56.224 53.0522 48.56 53.0522 48.56V48.564ZM38.8482 46.248C38.5762 47.928 37.6042 51.592 32.3402 51.96V55.168H28.6242V51.984C26.4585 51.6675 24.3258 51.1561 22.2522 50.456L23.3682 46.264C25.0362 46.888 27.2322 47.556 29.1682 47.772C31.7922 48.064 33.5602 47.548 33.7282 45.72C34.1002 42.52 22.4082 41.96 22.5162 36.184C22.3562 31.944 25.5642 30.092 28.7562 29.836V26.5H32.4762V29.684C34.5842 29.708 36.2562 30.148 37.8842 30.828L36.8522 34.78C35.2202 34.188 33.5442 33.636 31.5442 33.636C30.2482 33.636 27.5282 33.636 27.4362 35.352C27.4362 38.304 32.5802 38.456 34.2922 39.152C35.5362 39.66 36.4042 40.16 37.2922 40.992C38.8402 42.444 39.1602 44.312 38.8482 46.248Z" fill="#CBDDFF"/>
</g>
</svg>
