<svg width="14" height="14" viewBox="0 0 14 14" fill="none" xmlns="http://www.w3.org/2000/svg">
<g id="Frame">
<path id="Vector" d="M1.2 12.1996C0.5 12.1996 0 11.5996 0 10.9996V2.99961C0 2.59961 0.1 2.29961 0.4 1.99961C0.6 1.79961 0.9 1.59961 1.2 1.59961H12.8C13.1 1.59961 13.4 1.69961 13.6 1.99961C13.9 2.29961 14 2.59961 14 2.89961V10.8996C14 11.1996 13.9 11.4996 13.7 11.7996C13.5 11.9996 13.2 12.1996 12.9 12.1996H1.2ZM1.2 2.59961C1.1 2.59961 1 2.59961 1 2.69961C0.9 2.69961 0.9 2.79961 0.9 2.89961V10.8996C0.9 11.0996 1 11.1996 1.2 11.1996H12.8C12.9 11.1996 12.9 11.1996 13 11.0996C13.1 10.9996 13.1 10.9996 13.1 10.8996V2.89961C13.1 2.79961 13.1 2.69961 13 2.69961C12.9 2.59961 12.9 2.59961 12.8 2.59961H1.2Z" fill="#97A3B7"/>
<path id="Vector_2" d="M2.3 4.90039C2.1 4.90039 2 4.80039 2 4.60039V4.20039C2 4.00039 2.1 3.90039 2.3 3.90039H11.7C11.9 3.90039 12 4.00039 12 4.20039V4.60039C12 4.80039 11.9 4.90039 11.7 4.90039H2.3ZM5.3 10.3004L3.8 7.70039L3.9 10.3004H3.2L3.1 6.30039H3.8L5.3 9.00039V6.30039H6L6.1 10.3004H5.3ZM8.1 10.4004C7.6 10.4004 7.2 10.2004 6.9 9.90039C6.6 9.60039 6.4 9.00039 6.4 8.30039C6.4 7.60039 6.5 7.10039 6.8 6.70039C7.1 6.40039 7.5 6.20039 8 6.20039C8.5 6.20039 8.9 6.40039 9.2 6.70039C9.5 7.00039 9.6 7.50039 9.6 8.30039C9.6 9.10039 9.5 9.60039 9.2 9.90039C8.9 10.2004 8.6 10.4004 8.1 10.4004ZM8.1 6.90039C7.9 6.90039 7.7 7.00039 7.5 7.20039C7.4 7.30039 7.3 7.70039 7.3 8.30039C7.3 8.90039 7.4 9.30039 7.5 9.50039C7.7 9.70039 7.8 9.80039 8 9.80039C8.2 9.80039 8.4 9.70039 8.5 9.50039C8.6 9.30039 8.7 8.90039 8.7 8.30039C8.7 7.70039 8.6 7.30039 8.5 7.10039C8.4 7.00039 8.3 6.90039 8.1 6.90039Z" fill="#97A3B7"/>
<path id="Vector_3" d="M10.2002 9.90047C10.2002 9.96614 10.2131 10.0312 10.2382 10.0918C10.2634 10.1525 10.3002 10.2076 10.3466 10.2541C10.393 10.3005 10.4482 10.3374 10.5088 10.3625C10.5695 10.3876 10.6345 10.4006 10.7002 10.4006C10.7659 10.4006 10.8309 10.3876 10.8916 10.3625C10.9522 10.3374 11.0073 10.3005 11.0538 10.2541C11.1002 10.2076 11.137 10.1525 11.1622 10.0918C11.1873 10.0312 11.2002 9.96614 11.2002 9.90047C11.2002 9.83481 11.1873 9.76978 11.1622 9.70911C11.137 9.64843 11.1002 9.5933 11.0538 9.54687C11.0073 9.50043 10.9522 9.46359 10.8916 9.43846C10.8309 9.41333 10.7659 9.40039 10.7002 9.40039C10.6345 9.40039 10.5695 9.41333 10.5088 9.43846C10.4482 9.46359 10.393 9.50043 10.3466 9.54687C10.3002 9.5933 10.2634 9.64843 10.2382 9.70911C10.2131 9.76978 10.2002 9.83481 10.2002 9.90047Z" fill="#97A3B7"/>
</g>
</svg>
