<svg width="65" height="64" viewBox="0 0 65 64" fill="none" xmlns="http://www.w3.org/2000/svg">
<g id="Frame">
<path id="Vector" d="M52.8698 59.9999C52.4781 60.0049 52.1005 59.8543 51.8198 59.581C51.5392 59.3078 51.3784 58.9343 51.3729 58.5427V56.5026H29.759V58.5404C29.7563 58.7345 29.7154 58.9262 29.6385 59.1045C29.5617 59.2828 29.4505 59.4442 29.3113 59.5795C29.1721 59.7149 29.0075 59.8214 28.8271 59.8932C28.6467 59.9649 28.454 60.0004 28.2598 59.9976H24.1049C23.7133 60.0026 23.3356 59.8519 23.055 59.5787C22.7743 59.3055 22.6136 58.932 22.608 58.5404V47.6588C22.6154 47.1637 22.6899 46.672 22.8295 46.1969C23.1226 45.5753 23.3788 44.9368 23.5966 44.285H21.8713C21.7081 44.2859 21.5472 44.2466 21.4029 44.1706C21.2585 44.0945 21.1351 43.9841 21.0435 43.849C20.9165 43.6595 20.8359 43.4428 20.8083 43.2163C20.7808 42.9898 20.807 42.76 20.885 42.5456L21.3979 41.0884C21.5588 40.6796 21.8333 40.3253 22.189 40.0675C22.5448 39.8097 22.9669 39.6591 23.4054 39.6335H25.1332C26.2034 36.6397 27.3692 33.8255 27.6979 33.2029C28.0955 32.667 28.5955 32.2154 29.1691 31.8744C29.7427 31.5333 30.3783 31.3097 31.0391 31.2164L31.8435 30.9833C34.7157 30.4474 37.6404 30.2464 40.559 30.3841C43.4791 30.246 46.4053 30.4471 49.2791 30.9833L49.8387 31.1278C51.0745 31.4309 52.7672 31.853 53.3524 33.1493C53.7045 33.9351 54.854 36.6304 55.9452 39.6428H57.6892C58.128 39.6688 58.5502 39.8195 58.9062 40.0773C59.2622 40.335 59.5373 40.689 59.699 41.0977L60.212 42.5526C60.2905 42.7673 60.3171 42.9976 60.2895 43.2245C60.262 43.4515 60.181 43.6687 60.0534 43.8583C59.9619 43.9934 59.8385 44.1038 59.6941 44.1799C59.5497 44.2559 59.3889 44.2952 59.2257 44.2943H57.5143C57.7397 44.9449 58.0012 45.5825 58.2977 46.2039C58.4379 46.6796 58.5116 47.1723 58.5169 47.6681V58.5544C58.509 58.9409 58.3496 59.3089 58.0732 59.5792C57.7968 59.8496 57.4253 60.0006 57.0387 59.9999H52.8698ZM26.1964 48.363V49.8179C26.1964 50.7971 27.3622 51.2751 29.7497 51.2751H31.7386C33.1515 51.2751 33.6784 50.9417 33.6808 50.0464C33.6808 49.2513 32.7132 48.8083 31.6896 48.3373L31.2489 48.1345C30.1712 47.5411 29.0042 47.1269 27.7935 46.9081C27.0427 46.9081 26.1964 46.908 26.1964 48.363ZM49.89 48.1298L49.4517 48.342C48.4258 48.8083 47.4582 49.256 47.4582 50.0487C47.4582 50.9417 47.9851 51.2751 49.398 51.2751H51.3846C53.7768 51.2751 54.9402 50.8088 54.9402 49.8179V48.3676C54.9402 47.0176 54.2408 46.9104 53.3454 46.9104C52.1352 47.1298 50.9684 47.5431 49.89 48.1345V48.1298ZM30.0505 34.919C30.0505 34.9377 30.0365 34.9563 30.0272 34.9726C29.9419 35.1688 29.8462 35.3603 29.7404 35.5462C28.7776 37.3218 28.0532 39.2166 27.586 41.1817C31.832 42.2152 36.1981 42.6701 40.566 42.534C44.9246 42.6722 49.2819 42.2173 53.518 41.1817C53.0169 39.2717 52.3094 37.4219 51.4079 35.6651C51.2475 35.3618 51.1028 35.0505 50.9742 34.7325C50.86 34.4573 49.8271 33.0864 40.573 33.0864C30.7966 33.0817 30.2533 34.42 30.0505 34.9237V34.919ZM7.64855 43.5459C7.45473 43.5484 7.26232 43.5126 7.08231 43.4407C6.9023 43.3688 6.73822 43.2622 6.59943 43.1268C6.46065 42.9915 6.34988 42.8302 6.27345 42.652C6.19702 42.4739 6.15643 42.2825 6.154 42.0886V31.2001C6.16015 30.7043 6.23389 30.2117 6.37317 29.7359C6.66655 29.1141 6.92346 28.4757 7.14259 27.824H5.41488C5.25014 27.8264 5.08739 27.7878 4.94127 27.7117C4.79515 27.6356 4.67025 27.5244 4.57784 27.388C4.45112 27.1979 4.37094 26.9806 4.3438 26.7538C4.31666 26.5269 4.34332 26.2969 4.42162 26.0823L4.9439 24.6297C5.10473 24.2208 5.37924 23.8666 5.73497 23.6088C6.09071 23.351 6.51281 23.2004 6.9514 23.1748H8.68144C9.81226 20.0038 10.9524 17.3038 11.2462 16.7442C11.6464 16.2071 12.1492 15.7547 12.7256 15.4133C13.3019 15.0719 13.9403 14.8483 14.6037 14.7554C14.8858 14.6761 15.1493 14.5968 15.3988 14.5222C18.2712 13.9876 21.1958 13.7873 24.1143 13.9253C27.0335 13.7868 29.959 13.9871 32.8321 14.5222C33.0023 14.5689 33.1935 14.6178 33.394 14.6645C34.6297 14.9699 36.3201 15.3896 36.9077 16.6883C37.2248 17.3878 38.3789 20.0831 39.5004 23.1841H41.2445C41.6834 23.2095 42.1059 23.36 42.462 23.6178C42.8181 23.8757 43.0931 24.23 43.2543 24.639L43.7673 26.0916C43.8449 26.3068 43.8709 26.5373 43.8434 26.7644C43.8159 26.9916 43.7355 27.2091 43.6087 27.3996C43.5171 27.5339 43.394 27.6437 43.2501 27.7193C43.1061 27.7949 42.9459 27.8341 42.7833 27.8333H41.0719V27.8519L41.1162 27.9685H40.9647C37.7835 27.8051 34.5945 28.0488 31.4751 28.6936C31.2186 28.7729 30.9878 28.8452 30.7756 28.9058H30.7616C29.7881 29.0739 28.8597 29.4412 28.0348 29.9849C27.2099 30.5285 26.5062 31.2368 25.9679 32.0651C25.5948 32.7646 24.6808 34.9913 23.8438 37.2226H23.8065C22.9127 37.2447 22.044 37.5232 21.3041 38.0251C20.5641 38.5269 19.984 39.2309 19.6329 40.0532H13.3027V42.091C13.2971 42.4826 13.1364 42.8561 12.8557 43.1293C12.5751 43.4025 12.1974 43.5532 11.8058 43.5482L7.64855 43.5459ZM9.74698 31.9089V33.3638C9.74698 34.3431 10.9128 34.8211 13.3027 34.8211H15.2798C16.6951 34.8211 17.2197 34.4877 17.2197 33.5923C17.2197 32.7972 16.2498 32.3542 15.2262 31.8833C15.0795 31.8178 14.9333 31.751 14.7879 31.6828C13.7132 31.0867 12.5484 30.6701 11.3395 30.4493C10.5864 30.4493 9.73999 30.4493 9.73999 31.9043L9.74698 31.9089ZM13.5964 18.465L13.5731 18.5186C13.5172 18.6585 13.4192 18.838 13.2887 19.0852C12.321 20.8615 11.5949 22.7591 11.1296 24.7276C15.3761 25.7628 19.7432 26.2185 24.1119 26.0823C28.4715 26.2205 32.8296 25.7647 37.0662 24.7276C36.5644 22.8209 35.8568 20.9743 34.9562 19.2204C34.7947 18.9173 34.6492 18.606 34.5202 18.2878C34.4059 18.0103 33.3777 16.6323 24.1143 16.6323C14.3425 16.6323 13.7993 17.9613 13.5964 18.465ZM56.6003 33.6693C56.3302 32.9788 56.0496 32.2924 55.7586 31.6105C55.2605 30.706 54.5564 29.9316 53.7033 29.3499C52.8503 28.7682 51.8722 28.3956 50.8483 28.2623L50.417 28.1504C49.0169 27.8082 47.584 27.6182 46.1431 27.5838C46.5234 26.7065 46.5633 25.719 46.2551 24.8139L45.7608 23.359C45.4665 22.494 44.9152 21.7395 44.1807 21.1962C43.4462 20.653 42.5633 20.3468 41.6502 20.3186H41.6035C41.0929 18.9196 40.559 17.5207 40.0087 16.1777H40.4377C40.7408 16.1777 41.0556 16.1963 41.3937 16.1963C45.5747 16.3331 49.754 15.877 53.8071 14.8417C53.3299 12.9403 52.6523 11.095 51.7856 9.33677C51.5967 8.9404 51.4475 8.63729 51.3659 8.39014C51.254 8.11501 50.2514 6.75803 41.3983 6.75803C32.037 6.75803 31.5147 8.09403 31.3189 8.59765C31.3189 8.61864 31.3049 8.63496 31.2956 8.65128L31.1463 9.06164C30.9132 9.68418 30.5448 10.7241 30.1018 11.8292C29.1996 11.7708 28.2963 11.7319 27.3925 11.7127C27.7818 10.6588 28.1432 9.55827 28.4347 8.68159C28.7261 7.80491 28.9546 7.10777 29.0666 6.88626C29.4374 6.35295 29.9125 5.90032 30.4631 5.55568C31.0137 5.21105 31.6284 4.98157 32.2702 4.88109C32.5383 4.79949 32.7924 4.72488 33.0326 4.64794C35.7828 4.11049 38.5877 3.90695 41.3867 4.04172C44.1846 3.90472 46.9888 4.10591 49.7385 4.64094C49.8993 4.68757 50.0789 4.7342 50.2677 4.78084C51.4568 5.08627 53.0843 5.50363 53.6462 6.80466C53.947 7.50414 55.0452 10.1808 56.1317 13.3005H57.8011C58.2287 13.331 58.6383 13.4849 58.9801 13.7435C59.322 14.0022 59.5814 14.3545 59.727 14.7577L60.2213 16.2103C60.298 16.4305 60.3227 16.6655 60.2936 16.8968C60.2645 17.1281 60.1823 17.3496 60.0534 17.544C59.9676 17.6701 59.8522 17.7733 59.7172 17.8444C59.5822 17.9155 59.4319 17.9525 59.2793 17.952H57.6472C57.8626 18.6025 58.1132 19.2407 58.398 19.8639C58.5318 20.3399 58.6023 20.8314 58.6078 21.3258V32.2167C58.6103 32.5997 58.4607 32.968 58.1919 33.2408C57.923 33.5136 57.5569 33.6685 57.1739 33.6716L56.6003 33.6693ZM50.3214 21.8015L49.8993 22.0066C48.9154 22.473 47.9921 22.9183 47.9921 23.711C47.9921 24.604 48.4957 24.9375 49.8574 24.9375H51.7623C54.0566 24.9375 55.1711 24.4711 55.1711 23.4802V22.0253C55.1711 20.6846 54.4972 20.575 53.6812 20.575H53.6415C52.4739 20.7948 51.3515 21.2094 50.3214 21.8015Z" fill="#FFE6C1"/>
</g>
</svg>
