<svg width="65" height="64" viewBox="0 0 65 64" fill="none" xmlns="http://www.w3.org/2000/svg">
<g id="Frame">
<path id="Vector" d="M42.0213 16.0001H50.9603C52.0653 16 53.1476 16.3138 54.0811 16.905C55.0147 17.4961 55.7612 18.3402 56.2337 19.3391L59.8503 30.0047C60.247 31.1737 60.667 31.9974 60.667 32.3381V46.1654C60.667 48.4894 58.8073 50.3771 56.495 50.4237C56.2189 48.6341 55.3115 47.0023 53.9369 45.8235C52.5622 44.6446 50.8112 43.9966 49.0003 43.9966C47.1895 43.9966 45.4384 44.6446 44.0638 45.8235C42.6892 47.0023 41.7818 48.6341 41.5057 50.4237H26.1617C25.8856 48.6341 24.9781 47.0023 23.6035 45.8235C22.2289 44.6446 20.4778 43.9966 18.667 43.9966C16.8561 43.9966 15.1051 44.6446 13.7305 45.8235C12.3558 47.0023 11.4484 48.6341 11.1723 50.4237H11.1583L9.33366 50.4191C8.09679 50.4178 6.911 49.9256 6.03684 49.0506C5.16268 48.1755 4.67166 46.9893 4.67166 45.7524L4.66699 13.6667C4.66699 13.0539 4.7877 12.4471 5.02222 11.8809C5.25674 11.3147 5.60049 10.8002 6.03383 10.3669C6.46717 9.93356 6.98162 9.58981 7.5478 9.35529C8.11399 9.12077 8.72082 9.00006 9.33366 9.00006H37.35C38.5861 9.00006 39.7716 9.49044 40.6465 10.3636C41.5214 11.2367 42.0142 12.4213 42.0167 13.6574L42.0237 16.0001H42.0213ZM48.998 55.6667C48.4505 55.6852 47.9048 55.5934 47.3935 55.3966C46.8822 55.1999 46.4157 54.9023 46.0218 54.5215C45.628 54.1407 45.3147 53.6845 45.1008 53.1802C44.8869 52.6758 44.7766 52.1336 44.7766 51.5857C44.7766 51.0379 44.8869 50.4956 45.1008 49.9913C45.3147 49.4869 45.628 49.0308 46.0218 48.65C46.4157 48.2692 46.8822 47.9716 47.3935 47.7748C47.9048 47.5781 48.4505 47.4862 48.998 47.5047C50.0565 47.5402 51.0597 47.9856 51.7961 48.7468C52.5324 49.508 52.9442 50.5255 52.9445 51.5846C52.9448 52.6437 52.5336 53.6614 51.7977 54.4231C51.0618 55.1847 50.0588 55.6306 49.0003 55.6667H48.998ZM22.7503 51.5881C22.7503 52.671 22.3201 53.7096 21.5543 54.4754C20.7886 55.2412 19.75 55.6714 18.667 55.6714C17.584 55.6714 16.5454 55.2412 15.7796 54.4754C15.0139 53.7096 14.5837 52.671 14.5837 51.5881C14.5837 50.5051 15.0139 49.4665 15.7796 48.7007C16.5454 47.9349 17.584 47.5047 18.667 47.5047C19.75 47.5047 20.7886 47.9349 21.5543 48.7007C22.3201 49.4665 22.7503 50.5051 22.7503 51.5881ZM42.0003 19.5001V32.3334H57.167L56.3387 30.0094L53.072 20.8347C52.8827 20.435 52.5837 20.0973 52.2098 19.861C51.8359 19.6247 51.4026 19.4995 50.9603 19.5001H42.0003ZM21.5557 27.3471V29.2371H17.0057C16.5415 29.2371 16.0964 29.4214 15.7682 29.7496C15.44 30.0778 15.2557 30.5229 15.2557 30.9871C15.2557 31.4512 15.44 31.8963 15.7682 32.2245C16.0964 32.5527 16.5415 32.7371 17.0057 32.7371H21.5557V36.8204C21.5557 37.2845 21.74 37.7296 22.0682 38.0578C22.3964 38.386 22.8415 38.5704 23.3057 38.5704C23.7698 38.5704 24.2149 38.386 24.5431 38.0578C24.8713 37.7296 25.0557 37.2845 25.0557 36.8204V32.7371H29.5753C30.0395 32.7371 30.4846 32.5527 30.8128 32.2245C31.141 31.8963 31.3253 31.4512 31.3253 30.9871C31.3253 30.5229 31.141 30.0778 30.8128 29.7496C30.4846 29.4214 30.0395 29.2371 29.5753 29.2371H25.0557V27.3471H28.8707C29.3348 27.3471 29.7799 27.1627 30.1081 26.8345C30.4363 26.5063 30.6207 26.0612 30.6207 25.5971C30.6207 25.1329 30.4363 24.6878 30.1081 24.3596C29.7799 24.0314 29.3348 23.8471 28.8707 23.8471H26.4767L29.1553 19.5934C29.4029 19.2007 29.4843 18.7258 29.3817 18.2732C29.279 17.8205 29.0008 17.4271 28.6082 17.1796C28.2155 16.932 27.7406 16.8506 27.2879 16.9532C26.8352 17.0558 26.4419 17.3341 26.1943 17.7267L23.301 22.3211L20.3843 17.7221C20.2611 17.5279 20.1009 17.36 19.9129 17.2278C19.7248 17.0956 19.5125 17.0017 19.2881 16.9516C19.0638 16.9014 18.8317 16.8959 18.6052 16.9355C18.3788 16.975 18.1623 17.0587 17.9682 17.1819C17.774 17.3051 17.6061 17.4653 17.4739 17.6534C17.3417 17.8415 17.2478 18.0537 17.1977 18.2781C17.1475 18.5025 17.142 18.7345 17.1816 18.961C17.2211 19.1875 17.3048 19.4039 17.428 19.5981L20.123 23.8447H17.6683C17.2042 23.8447 16.7591 24.0291 16.4309 24.3573C16.1027 24.6855 15.9183 25.1306 15.9183 25.5947C15.9183 26.0589 16.1027 26.504 16.4309 26.8322C16.7591 27.1604 17.2042 27.3447 17.6683 27.3447H21.5557V27.3471Z" fill="#FFE6C1"/>
</g>
</svg>
