<svg width="64" height="64" viewBox="0 0 64 64" fill="none" xmlns="http://www.w3.org/2000/svg">
<g id="Frame">
<path id="Vector" d="M29.66 30.52H19.26C13.0693 30.52 8 25.456 8 19.26C8 13.0693 13.064 8 19.26 8C25.4507 8 30.52 13.064 30.52 19.26V29.66C30.5183 29.8875 30.4271 30.1053 30.2662 30.2662C30.1053 30.4271 29.8875 30.5183 29.66 30.52ZM44.7347 30.52H34.3347C34.1082 30.5193 33.8912 30.429 33.7311 30.2689C33.571 30.1088 33.4807 29.8918 33.48 29.6653V19.2653C33.48 13.076 38.544 8.00533 44.74 8.00533C50.9293 8.00533 56 13.0707 56 19.2667C55.9947 25.4573 50.9293 30.5213 44.7333 30.5213L44.7347 30.52ZM19.26 56C13.0693 56 8 50.936 8 44.74C8 38.5493 13.064 33.48 19.26 33.48H29.66C30.1307 33.48 30.5147 33.864 30.5147 34.3347V44.7347C30.5147 50.9347 25.4507 56 19.26 56ZM44.7347 56C38.544 56 33.4747 50.936 33.4747 44.74V34.34C33.4747 33.8693 33.8587 33.4853 34.3293 33.4853H44.7293C50.9187 33.4853 55.9893 38.5493 55.9893 44.7453C55.9947 50.936 50.9307 56 44.7333 56H44.7347Z" fill="#CBDDFF"/>
</g>
</svg>
