<svg width="64" height="64" viewBox="0 0 64 64" fill="none" xmlns="http://www.w3.org/2000/svg">
<g id="Frame">
<path id="Vector" d="M53.4856 9.59998C53.0284 9.14284 52.5713 8.22855 51.657 7.77141C51.1999 7.31427 50.7427 6.39998 50.2856 5.94284C49.8284 5.02855 48.9141 4.57141 47.9999 4.57141H17.8284C16.9141 4.57141 15.9999 4.57141 15.5427 5.02855C15.0856 5.4857 14.6284 5.4857 14.1713 5.94284L12.7999 7.31427L10.5141 9.59998C10.057 10.5143 9.14272 11.4286 8.68558 12.3428H55.7713C54.857 11.4286 54.3999 10.5143 53.4856 9.59998ZM53.9427 40.2286H10.057C8.22843 40.2286 6.857 40.6857 5.94272 41.6C5.02843 42.9714 4.57129 43.8857 4.57129 45.2571V53.9428C4.57129 55.7714 5.02843 57.1428 6.39986 58.0571C7.31415 58.9714 8.68558 59.4286 10.057 59.4286H53.4856C55.3141 59.4286 56.6856 58.9714 57.5999 58.0571C58.5141 57.1428 58.9713 55.7714 58.9713 54.4V45.2571C58.9713 43.8857 58.5141 42.5143 57.5999 41.6C57.1427 40.6857 55.7713 40.2286 53.9427 40.2286ZM36.5713 51.2C36.1141 51.6571 36.1141 51.6571 35.657 51.6571H28.7999C28.3427 51.6571 27.8856 51.6571 27.4284 51.2C27.4284 50.7428 26.9713 50.2857 26.9713 49.8286C26.9713 49.3714 26.9713 48.9143 27.4284 48.9143C27.8856 48.4571 27.8856 48.4571 28.7999 48.4571H35.1999C35.657 48.4571 36.1141 48.4571 36.1141 48.9143C36.5713 49.3714 36.5713 49.3714 36.5713 49.8286C37.0284 50.2857 36.5713 50.7428 36.5713 51.2ZM58.057 18.7428C57.1427 17.8286 55.7713 17.3714 53.9427 17.3714H10.057C8.22843 17.3714 6.857 17.8286 5.94272 18.7428C5.02843 19.6571 4.57129 20.5714 4.57129 21.9428V31.0857C4.57129 32.4571 5.02843 33.8286 5.94272 34.7428C6.857 35.6571 8.22843 36.1143 10.057 36.1143H53.9427C55.7713 36.1143 57.1427 35.6571 58.057 34.7428C58.9713 33.8286 59.4284 32.4571 59.4284 31.0857V21.9428C59.4284 20.5714 58.9713 19.6571 58.057 18.7428ZM35.1999 28.3428H28.7999C28.3427 28.3428 27.8856 28.3428 27.8856 27.8857C27.4284 27.4286 27.4284 27.4286 26.9713 26.5143C26.9713 26.0571 26.9713 25.6 27.4284 25.6C27.8856 25.1428 27.8856 25.1428 28.7999 25.1428H35.1999C35.657 25.1428 36.1141 25.1428 36.1141 25.6C36.5713 25.6 37.0284 26.0571 37.0284 26.5143C36.5713 27.8857 36.1141 28.3428 35.1999 28.3428Z" fill="#CBDDFF"/>
</g>
</svg>
