<svg width="64" height="64" viewBox="0 0 64 64" fill="none" xmlns="http://www.w3.org/2000/svg">
<g id="Frame">
<path id="Vector" d="M52.7214 3.32849C58.7605 3.32849 63.6559 8.22386 63.6559 14.2629V23.2493C63.6394 23.7701 63.5581 24.157 63.4123 24.4107C63.2329 24.7233 62.8503 25.0752 62.2655 25.4668L62.4681 25.3474C60.3857 26.9145 58.6462 29.4078 58.6462 32.2152C58.6462 34.961 60.3272 37.4063 62.3323 38.979L62.2627 38.9381L62.3774 39.0163L62.4128 39.0414C62.4953 39.1042 62.5789 39.1663 62.6633 39.226L62.6877 39.2429C63.0373 39.5143 63.2784 39.7649 63.4104 39.9938L63.4426 40.0551C63.5683 40.3081 63.6378 40.6749 63.6531 41.1556L63.6539 41.1965V39.8328L63.6559 39.834V49.4083C63.6559 55.447 58.7605 60.3428 52.7214 60.3428H10.9348C4.89616 60.3428 0.000396729 55.447 0.000396729 49.4083V40.8944L0.00314606 41.026V40.6788L0.00393158 40.6443C0.0184637 40.1639 0.0887678 39.7967 0.214058 39.5437L0.246657 39.4829C0.381374 39.248 0.60132 38.9707 0.906102 38.651C2.97202 37.0819 4.69899 34.5993 4.69899 31.8052C4.69899 29.1156 3.0706 26.715 1.13547 25.1397L1.25723 25.2233C0.763137 24.8027 0.426149 24.4362 0.246657 24.1236C0.100943 23.8699 0.0200347 23.4834 0.00432434 22.9626L0.00314606 22.9272V22.5808L0.000396729 22.7124V14.2629C0.000396729 8.22386 4.89616 3.32849 10.9348 3.32849H52.7214ZM25.8087 19.9485H17.4366V24.8007H25.8083V27.9785H17.7783V32.694H25.8083V36.2135H16.6507V41.0657H25.8083V48.1389H31.0022V15.8481H25.8083V19.9485H25.8087ZM48.5318 35.9402H39.3742V32.694H47.0967V27.9785H39.3742V24.8007H47.9168V19.9485H39.3742V15.9165H34.1116V48.2073H39.3738V40.7923H48.5314V35.9402H48.5318Z" fill="#CBDDFF"/>
</g>
</svg>
