<svg xmlns="http://www.w3.org/2000/svg" width="57" height="52" viewBox="0 0 57 52" fill="none">
  <path d="M53.9562 26.8874L43.0812 22.6249C40.4124 21.5812 37.5312 23.5437 37.5312 26.4062V47.8437C37.5312 50.0874 39.3499 51.9062 41.5937 51.9062H52.4687C54.7124 51.9062 56.5312 50.0874 56.5312 47.8437V30.6687C56.5374 28.9999 55.5124 27.4937 53.9562 26.8874ZM27.0312 1.19366L3.26865 9.77491C1.65615 10.3562 0.587402 11.8874 0.587402 13.5999V47.8437C0.587402 50.0874 2.40615 51.9062 4.6499 51.9062H28.4124C30.6562 51.9062 32.4749 50.0874 32.4749 47.8437V5.01866C32.4749 2.19991 29.6812 0.237407 27.0312 1.19366ZM23.6624 37.0187H8.83115C7.3374 37.0187 6.11865 35.8062 6.11865 34.3062C6.11865 32.8124 7.33115 31.5937 8.83115 31.5937H23.6624C25.1562 31.5937 26.3749 32.8062 26.3749 34.3062C26.3749 35.8062 25.1624 37.0187 23.6624 37.0187ZM23.6624 25.9499H8.83115C7.3374 25.9499 6.11865 24.7374 6.11865 23.2374C6.11865 21.7437 7.33115 20.5249 8.83115 20.5249H23.6624C25.1562 20.5249 26.3749 21.7374 26.3749 23.2374C26.3749 24.7374 25.1624 25.9499 23.6624 25.9499Z" fill="#CBDDFF"/>
</svg>