<svg width="64" height="64" viewBox="0 0 64 64" fill="none" xmlns="http://www.w3.org/2000/svg">
<g id="Frame">
<path id="Vector" d="M52.7214 3.32812C58.7605 3.32812 63.6558 8.22349 63.6558 14.2626V23.2489C63.6393 23.7697 63.558 24.1566 63.4123 24.4103C63.2328 24.723 62.8503 25.0749 62.2655 25.4665L62.4681 25.3471C60.3857 26.9142 58.6462 29.4074 58.6462 32.2149C58.6462 34.9607 60.3272 37.406 62.3322 38.9786L62.2627 38.9377L62.3774 39.0159L62.4127 39.041C62.4952 39.1039 62.5789 39.1659 62.6633 39.2256L62.6877 39.2425C63.0372 39.5139 63.2784 39.7645 63.4104 39.9935L63.4426 40.0548C63.5682 40.3077 63.6378 40.6745 63.6531 41.1553L63.6539 41.1961V39.8325L63.6558 39.8336V49.408C63.6558 55.4466 58.7605 60.3424 52.7214 60.3424H10.9348C4.89612 60.3424 0.000366211 55.4466 0.000366211 49.408V40.8941L0.00311554 41.0257V40.6785L0.00390106 40.6439C0.0184332 40.1635 0.0887373 39.7963 0.214028 39.5434L0.246627 39.4825C0.381344 39.2476 0.60129 38.9703 0.906072 38.6506C2.97199 37.0816 4.69896 34.5989 4.69896 31.8048C4.69896 29.1152 3.07057 26.7146 1.13544 25.1393L1.2572 25.2229C0.763107 24.8023 0.426118 24.4359 0.246627 24.1232C0.100913 23.8695 0.0200042 23.483 0.00429382 22.9622L0.00311554 22.9269V22.5805L0.000366211 22.712V14.2626C0.000366211 8.22349 4.89612 3.32812 10.9348 3.32812H52.7214ZM25.8087 19.9482H17.4366V24.8003H25.8083V27.9782H17.7783V32.6936H25.8083V36.2132H16.6507V41.0653H25.8083V48.1385H31.0021V15.8478H25.8083V19.9482H25.8087ZM48.5318 35.9398H39.3742V32.6936H47.0967V27.9782H39.3742V24.8003H47.9167V19.9482H39.3742V15.9161H34.1116V48.2069H39.3738V40.792H48.5314V35.9398H48.5318Z" fill="#CBDDFF"/>
</g>
</svg>
