<svg width="20" height="20" viewBox="0 0 20 20" fill="" xmlns="http://www.w3.org/2000/svg">
<g id="Frame" clip-path="url(#clip0_196_11195)">
<path id="Union" fill-rule="evenodd" clip-rule="evenodd" d="M0 10.0003C0 4.48623 4.48584 0 10.0001 0C15.5144 0 20.0002 4.48623 20.0002 10.0003C20.0002 15.5142 15.5144 20 10.0001 20C4.48584 20 0 15.5142 0 10.0003ZM1.63782 10.0003C1.63782 14.611 5.38898 18.3622 10.0001 18.3622C11.9067 18.3622 13.666 17.7209 15.0742 16.6427C15.142 16.5909 15.2088 16.538 15.2748 16.4841L3.51617 4.72533C3.46225 4.79137 3.40931 4.85818 3.35754 4.92598C2.27927 6.33415 1.63782 8.09373 1.63782 10.0003ZM16.4161 15.3569C16.4161 15.3569 16.4161 15.3569 16.4161 15.3568C16.4709 15.2916 16.5246 15.2255 16.5772 15.1585C17.6947 13.7366 18.362 11.9448 18.362 10.0003C18.362 5.38937 14.6108 1.63821 10.0001 1.63821C8.05543 1.63821 6.2636 2.30546 4.84174 3.42301C4.7747 3.47578 4.70864 3.52953 4.64336 3.58406C4.64334 3.58408 4.64331 3.5841 4.64329 3.58412L16.4161 15.3569ZM13.4562 15.4456C12.4516 15.4456 12.2678 14.9998 12.2678 14.1214V13.8365L13.8769 15.4456H13.4562ZM13.6805 7.91395H10.4635V9.04478L9.14524 7.72651H9.22205V6.7059H10.5708C10.3806 6.21768 10.0525 5.55454 9.68974 5.02196L9.54844 4.814L10.6609 4.33908L10.7561 4.48175C11.1532 5.0757 11.6415 5.92999 11.8218 6.54544L11.8686 6.7059H12.4752C12.7762 6.09299 13.1712 5.1918 13.3745 4.50227L13.436 4.29276L14.7131 4.74892L14.6269 4.95101C14.3751 5.54223 14.106 6.1311 13.825 6.7059H14.9476V10.8739H13.4878V12.0693L11.0932 9.6749H13.6805V7.91395ZM9.04849 5.54712C8.67793 5.698 8.23271 5.84224 7.75348 5.96712V6.33495L6.46667 5.04815C7.23555 4.86423 7.9114 4.65433 8.36092 4.45361L8.51297 4.38559L9.29475 5.44705L9.04849 5.54712ZM7.87153 14.6918L8.18052 14.5612C9.47007 14.0167 10.0298 13.1137 10.297 11.8658L11.3117 12.8806C10.925 14.0718 10.2194 15.0037 8.8853 15.6279L8.70197 15.7141L8.61246 15.5324C8.49441 15.2924 8.33082 15.0828 8.12697 14.9091L7.87153 14.6918ZM15.6553 13.1649L15.6469 13.3258C15.6303 13.6397 15.6086 13.9162 15.5755 14.157L14.4955 13.077L14.4986 12.9646L14.5102 12.5464L14.8356 12.8096C14.9769 12.9244 15.2718 13.0467 15.5013 13.1175L15.6553 13.1649ZM4.57367 7.72652V8.97169H6.25254C5.78679 10.2474 5.04684 11.609 4.40207 12.3611L4.2981 12.4827L4.38956 12.6138C4.55745 12.8554 4.70423 13.1155 4.8254 13.3868L4.963 13.6944L5.17505 13.4321C5.60112 12.9056 6.06217 12.1119 6.48844 11.1808V15.6115H7.75433V10.5085C8.04144 10.8968 8.31975 11.2955 8.45363 11.5285L8.61389 11.8072L9.28446 10.8716H9.30284L6.15775 7.72652H4.57367Z" fill=""/>
</g>
<defs>
<clipPath id="clip0_196_11195">
<rect width="20" height="20" fill=""/>
</clipPath>
</defs>
</svg>
