<svg xmlns="http://www.w3.org/2000/svg" width="65" height="64" viewBox="0 0 65 64" fill="none">
  <path d="M53.9856 9.59986C53.5284 9.14272 53.0713 8.22843 52.157 7.77129C51.6999 7.31415 51.2427 6.39986 50.7856 5.94272C50.3284 5.02843 49.4141 4.57129 48.4999 4.57129H18.3284C17.4141 4.57129 16.4999 4.57129 16.0427 5.02843C15.5856 5.48557 15.1284 5.48557 14.6713 5.94272L13.2999 7.31415L11.0141 9.59986C10.557 10.5141 9.64272 11.4284 9.18558 12.3427H56.2713C55.357 11.4284 54.8999 10.5141 53.9856 9.59986ZM54.4427 40.2284H10.557C8.72843 40.2284 7.357 40.6856 6.44272 41.5999C5.52843 42.9713 5.07129 43.8856 5.07129 45.257V53.9427C5.07129 55.7713 5.52843 57.1427 6.89986 58.057C7.81415 58.9713 9.18558 59.4284 10.557 59.4284H53.9856C55.8141 59.4284 57.1856 58.9713 58.0999 58.057C59.0141 57.1427 59.4713 55.7713 59.4713 54.3999V45.257C59.4713 43.8856 59.0141 42.5141 58.0999 41.5999C57.6427 40.6856 56.2713 40.2284 54.4427 40.2284ZM37.0713 51.1999C36.6141 51.657 36.6141 51.657 36.157 51.657H29.2999C28.8427 51.657 28.3856 51.657 27.9284 51.1999C27.9284 50.7427 27.4713 50.2856 27.4713 49.8284C27.4713 49.3713 27.4713 48.9141 27.9284 48.9141C28.3856 48.457 28.3856 48.457 29.2999 48.457H35.6999C36.157 48.457 36.6141 48.457 36.6141 48.9141C37.0713 49.3713 37.0713 49.3713 37.0713 49.8284C37.5284 50.2856 37.0713 50.7427 37.0713 51.1999ZM58.557 18.7427C57.6427 17.8284 56.2713 17.3713 54.4427 17.3713H10.557C8.72843 17.3713 7.357 17.8284 6.44272 18.7427C5.52843 19.657 5.07129 20.5713 5.07129 21.9427V31.0856C5.07129 32.457 5.52843 33.8284 6.44272 34.7427C7.357 35.657 8.72843 36.1141 10.557 36.1141H54.4427C56.2713 36.1141 57.6427 35.657 58.557 34.7427C59.4713 33.8284 59.9284 32.457 59.9284 31.0856V21.9427C59.9284 20.5713 59.4713 19.657 58.557 18.7427ZM35.6999 28.3427H29.2999C28.8427 28.3427 28.3856 28.3427 28.3856 27.8856C27.9284 27.4284 27.9284 27.4284 27.4713 26.5141C27.4713 26.057 27.4713 25.5999 27.9284 25.5999C28.3856 25.1427 28.3856 25.1427 29.2999 25.1427H35.6999C36.157 25.1427 36.6141 25.1427 36.6141 25.5999C37.0713 25.5999 37.5284 26.057 37.5284 26.5141C37.0713 27.8856 36.6141 28.3427 35.6999 28.3427Z" fill="#CBDDFF"/>
</svg>