<svg width="64" height="64" viewBox="0 0 64 64" fill="none" xmlns="http://www.w3.org/2000/svg">
<g id="Frame">
<path id="Vector" d="M57.4562 32.8875L46.5812 28.625C43.9124 27.5813 41.0312 29.5438 41.0312 32.4063V53.8438C41.0312 56.0875 42.8499 57.9063 45.0937 57.9063H55.9687C58.2124 57.9063 60.0312 56.0875 60.0312 53.8438V36.6688C60.0374 35 59.0124 33.4938 57.4562 32.8875ZM30.5312 7.19378L6.76865 15.775C5.15615 16.3563 4.0874 17.8875 4.0874 19.6V53.8438C4.0874 56.0875 5.90615 57.9063 8.1499 57.9063H31.9124C34.1562 57.9063 35.9749 56.0875 35.9749 53.8438V11.0188C35.9749 8.20003 33.1812 6.23753 30.5312 7.19378ZM27.1624 43.0188H12.3312C10.8374 43.0188 9.61865 41.8063 9.61865 40.3063C9.61865 38.8125 10.8312 37.5938 12.3312 37.5938H27.1624C28.6562 37.5938 29.8749 38.8063 29.8749 40.3063C29.8749 41.8063 28.6624 43.0188 27.1624 43.0188ZM27.1624 31.95H12.3312C10.8374 31.95 9.61865 30.7375 9.61865 29.2375C9.61865 27.7438 10.8312 26.525 12.3312 26.525H27.1624C28.6562 26.525 29.8749 27.7375 29.8749 29.2375C29.8749 30.7375 28.6624 31.95 27.1624 31.95Z" fill="#CBDDFF"/>
</g>
</svg>
