<svg width="64" height="64" viewBox="0 0 64 64" fill="" xmlns="http://www.w3.org/2000/svg">
<g id="Frame">
<path id="Vector" d="M13 39.125V51H24.875V39.125H13ZM8 36.125C8 35.0204 8.89544 34.125 10 34.125H27.875C28.9796 34.125 29.875 35.0204 29.875 36.125V54C29.875 55.1046 28.9796 56 27.875 56H10C8.89544 56 8 55.1046 8 54V36.125ZM13 12.9375V24.8125H24.875V12.9375H13ZM8 9.9375C8 8.83294 8.89544 7.9375 10 7.9375H27.875C28.9796 7.9375 29.875 8.83294 29.875 9.9375V27.8125C29.875 28.9171 28.9796 29.8125 27.875 29.8125H10C8.89544 29.8125 8 28.9171 8 27.8125V9.9375ZM39.125 39.125V51H51V39.125H39.125ZM34.125 36.125C34.125 35.0204 35.0204 34.125 36.125 34.125H54C55.1046 34.125 56 35.0204 56 36.125V54C56 55.1046 55.1046 56 54 56H36.125C35.0204 56 34.125 55.1046 34.125 54V36.125ZM39.125 12.9375V24.8125H51V12.9375H39.125ZM34.125 9.9375C34.125 8.83294 35.0204 7.9375 36.125 7.9375H54C55.1046 7.9375 56 8.83294 56 9.9375V27.8125C56 28.9171 55.1046 29.8125 54 29.8125H36.125C35.0204 29.8125 34.125 28.9171 34.125 27.8125V9.9375Z" fill="#C3EBFF"/>
</g>
</svg>
