<svg width="41" height="40" viewBox="0 0 41 40" fill="none" xmlns="http://www.w3.org/2000/svg">
<path d="M33.7143 5.99979C33.4286 5.71408 33.1429 5.14265 32.5714 4.85693C32.2857 4.57122 32 3.99979 31.7143 3.71408C31.4286 3.14265 30.8571 2.85693 30.2857 2.85693H11.4286C10.8571 2.85693 10.2857 2.85693 10 3.14265C9.71428 3.42836 9.42857 3.42836 9.14285 3.71408L8.28571 4.57122L6.85714 5.99979C6.57142 6.57122 6 7.14265 5.71428 7.71408H35.1429C34.5714 7.14265 34.2857 6.57122 33.7143 5.99979ZM34 25.1426H6.57142C5.42857 25.1426 4.57142 25.4284 4 25.9998C3.42857 26.8569 3.14285 27.4284 3.14285 28.2855V33.7141C3.14285 34.8569 3.42857 35.7141 4.28571 36.2855C4.85714 36.8569 5.71428 37.1426 6.57142 37.1426H33.7143C34.8571 37.1426 35.7143 36.8569 36.2857 36.2855C36.8571 35.7141 37.1429 34.8569 37.1429 33.9998V28.2855C37.1429 27.4284 36.8571 26.5712 36.2857 25.9998C36 25.4284 35.1429 25.1426 34 25.1426ZM23.1429 31.9998C22.8571 32.2855 22.8571 32.2855 22.5714 32.2855H18.2857C18 32.2855 17.7143 32.2855 17.4286 31.9998C17.4286 31.7141 17.1429 31.4284 17.1429 31.1426C17.1429 30.8569 17.1429 30.5712 17.4286 30.5712C17.7143 30.2855 17.7143 30.2855 18.2857 30.2855H22.2857C22.5714 30.2855 22.8571 30.2855 22.8571 30.5712C23.1429 30.8569 23.1429 30.8569 23.1429 31.1426C23.4286 31.4284 23.1429 31.7141 23.1429 31.9998ZM36.5714 11.7141C36 11.1426 35.1429 10.8569 34 10.8569H6.57142C5.42857 10.8569 4.57142 11.1426 4 11.7141C3.42857 12.2855 3.14285 12.8569 3.14285 13.7141V19.4284C3.14285 20.2855 3.42857 21.1426 4 21.7141C4.57142 22.2855 5.42857 22.5712 6.57142 22.5712H34C35.1429 22.5712 36 22.2855 36.5714 21.7141C37.1429 21.1426 37.4286 20.2855 37.4286 19.4284V13.7141C37.4286 12.8569 37.1429 12.2855 36.5714 11.7141ZM22.2857 17.7141H18.2857C18 17.7141 17.7143 17.7141 17.7143 17.4284C17.4286 17.1426 17.4286 17.1426 17.1429 16.5712C17.1429 16.2855 17.1429 15.9998 17.4286 15.9998C17.7143 15.7141 17.7143 15.7141 18.2857 15.7141H22.2857C22.5714 15.7141 22.8571 15.7141 22.8571 15.9998C23.1429 15.9998 23.4286 16.2855 23.4286 16.5712C23.1429 17.4284 22.8571 17.7141 22.2857 17.7141Z" fill="#CBDDFF"/>
</svg>
