<svg width="41" height="40" viewBox="0 0 41 40" fill="none" xmlns="http://www.w3.org/2000/svg">
<path d="M14.5339 9.86976H24.6289C24.6289 9.86976 25.3939 7.72727 30.1489 4.34477C29.2389 3.89477 27.9289 4.59477 27.3889 4.17727C26.8114 3.73227 26.9189 2.14977 25.5089 1.97977C24.1014 1.80977 22.6339 3.66977 22.6339 3.66977C22.6339 3.66977 21.3439 4.79727 20.7564 3.05227C20.1689 1.29977 17.9964 1.13477 17.2914 1.13477C16.5864 1.13477 14.8414 1.64227 14.5314 3.79727C14.3989 4.47227 13.6514 4.72727 13.0364 4.38977C12.4189 4.05227 11.5814 3.79727 10.3064 3.92477C11.8039 5.50227 15.5889 8.96726 14.5314 9.86976H14.5339ZM33.7289 30.3523C33.7289 30.3523 33.7889 22.4073 33.7289 21.8448C33.5239 17.7873 25.0714 12.3748 25.0714 12.3748H14.7089C10.9814 14.4023 6.34391 18.8823 5.84391 21.9248C5.80141 22.0848 5.49391 28.6323 5.37391 30.8573C5.25641 33.0823 3.73141 35.1698 3.73141 35.1698C3.73141 35.1698 7.54641 37.7898 20.0814 37.8723C32.6139 37.9573 34.4064 35.7898 35.6664 35.0848C33.9664 35.1398 33.7289 30.3498 33.7289 30.3498V30.3523ZM24.8514 28.9048C24.6814 29.9548 24.0739 32.2448 20.7839 32.4748V34.4798H18.4614V32.4898C17.1079 32.2919 15.775 31.9723 14.4789 31.5348L15.1764 28.9148C16.2189 29.3048 17.5914 29.7223 18.8014 29.8573C20.4414 30.0398 21.5464 29.7173 21.6514 28.5748C21.8839 26.5748 14.5764 26.2248 14.6439 22.6148C14.5439 19.9648 16.5489 18.8073 18.5439 18.6473V16.5623H20.8689V18.5523C22.1864 18.5673 23.2314 18.8423 24.2489 19.2673L23.6039 21.7373C22.5839 21.3673 21.5364 21.0223 20.2864 21.0223C19.4764 21.0223 17.7764 21.0223 17.7189 22.0948C17.7189 23.9398 20.9339 24.0348 22.0039 24.4698C22.7814 24.7873 23.3239 25.0998 23.8789 25.6198C24.8464 26.5273 25.0464 27.6948 24.8514 28.9048Z" fill="#FFE6C1"/>
</svg>
