<svg width="64" height="64" viewBox="0 0 64 64" fill="none" xmlns="http://www.w3.org/2000/svg">
<g id="Frame">
<path id="Vector" d="M59 30.8583C59 32.2344 58.335 34.7689 53.8809 36.282C51.5679 37.0679 48.5026 37.5004 45.25 37.5004C44.4375 37.5004 43.6355 37.4734 42.8546 37.4205C43.4423 36.0106 43.7463 34.4987 43.7491 32.9713C44.2278 32.9937 44.7272 33.0063 45.25 33.0063C51.1427 33.0063 54.2352 31.4704 54.5 30.8447C54.492 26.2675 50.3962 22.5424 45.3442 22.4963C45.2919 22.4973 45.24 22.5003 45.1875 22.5003C45.1549 22.5003 45.1226 22.4982 45.0901 22.4978C43.1876 22.5186 41.3319 23.0901 39.7472 24.1432C38.5217 23.0681 37.0847 22.2616 35.5286 21.7754C36.4609 20.9044 37.5095 20.167 38.6445 19.5844C37.504 18.3208 36.7539 16.754 36.4847 15.0732C36.2155 13.3925 36.4388 11.6698 37.1276 10.1132C37.8164 8.55662 38.9411 7.23281 40.3661 6.3017C41.791 5.37059 43.455 4.87203 45.1572 4.86626C46.8593 4.86049 48.5267 5.34775 49.9579 6.26918C51.3891 7.1906 52.5229 8.50676 53.2222 10.0586C53.9215 11.6105 54.1564 13.3317 53.8986 15.0142C53.6409 16.6967 52.9014 18.2686 51.7695 19.5399C56.071 21.7152 59 25.9728 59 30.8583ZM45.1875 9.3754C44.3346 9.3754 43.5008 9.62833 42.7916 10.1022C42.0824 10.5761 41.5297 11.2496 41.2033 12.0376C40.8769 12.8256 40.7915 13.6927 40.9579 14.5292C41.1243 15.3658 41.535 16.1342 42.1381 16.7373C42.7412 17.3404 43.5096 17.7511 44.3462 17.9175C45.1827 18.0839 46.0498 17.9985 46.8378 17.6721C47.6258 17.3457 48.2993 16.793 48.7732 16.0838C49.2471 15.3746 49.5 14.5408 49.5 13.6879C49.4987 12.5446 49.0439 11.4484 48.2355 10.6399C47.427 9.83146 46.3308 9.37669 45.1875 9.3754ZM40.875 32.9379C40.8764 35.0965 40.0821 37.1799 38.644 38.7897C42.946 40.9652 45.875 45.2228 45.875 50.1083C45.875 51.4844 45.21 54.0189 40.7559 55.532C38.4429 56.3179 35.3776 56.7504 32.125 56.7504C28.8724 56.7504 25.807 56.3178 23.4941 55.5319C19.04 54.0189 18.375 51.4844 18.375 50.1083C18.375 45.2557 21.2649 41.0227 25.5195 38.8342C24.5625 37.7721 23.8782 36.4932 23.5258 35.1077C23.1735 33.7222 23.1635 32.2717 23.4969 30.8815C23.8303 29.4913 24.4969 28.2031 25.4394 27.1281C26.3818 26.0531 27.5716 25.2235 28.9062 24.711C30.2409 24.1986 31.6801 24.0186 33.0998 24.1866C34.5196 24.3546 35.8771 24.8655 37.0552 25.6753C38.2334 26.4851 39.1968 27.5695 39.8622 28.8348C40.5277 30.1001 40.8753 31.5083 40.875 32.9379ZM22.875 50.0948C23.1397 50.7205 26.2323 52.2564 32.125 52.2564C38.0177 52.2564 41.1102 50.7205 41.375 50.0948C41.367 45.5177 37.2712 41.7925 32.2192 41.7464C32.1669 41.7474 32.115 41.7504 32.0625 41.7504C32.0299 41.7504 31.9976 41.7483 31.9651 41.7479C26.9434 41.8254 22.883 45.5379 22.875 50.0948ZM32.0625 28.6254C31.2096 28.6254 30.3758 28.8783 29.6666 29.3522C28.9574 29.8261 28.4047 30.4996 28.0783 31.2876C27.7519 32.0756 27.6665 32.9427 27.8329 33.7792C27.9993 34.6158 28.41 35.3842 29.0131 35.9873C29.6162 36.5904 30.3846 37.0011 31.2212 37.1675C32.0577 37.3339 32.9248 37.2485 33.7128 36.9221C34.5008 36.5957 35.1743 36.043 35.6482 35.3338C36.1221 34.6246 36.375 33.7908 36.375 32.9379C36.3737 31.7946 35.9189 30.6984 35.1104 29.89C34.302 29.0815 33.2058 28.6267 32.0625 28.6254ZM26.5344 22.6434C25.1097 23.4134 23.8592 24.469 22.8611 25.7444C21.5971 25.1781 20.2292 24.8809 18.8442 24.8714C18.7919 24.8724 18.74 24.8754 18.6875 24.8754C18.6549 24.8754 18.6226 24.8733 18.5901 24.8729C13.5684 24.9504 9.508 28.6629 9.5 33.2198C9.76475 33.8455 12.8573 35.3814 18.75 35.3814C19.4095 35.3814 20.0319 35.3613 20.6211 35.3263C20.9486 36.89 21.5948 38.3696 22.5194 39.6725C21.2676 39.8089 20.0092 39.8767 18.75 39.8754C15.4972 39.8754 12.4321 39.4428 10.1191 38.6569C5.665 37.1439 5 34.6094 5 33.2333C5 28.3807 7.88987 24.1477 12.1445 21.9592C11.004 20.6956 10.2539 19.1287 9.98471 17.448C9.71552 15.7673 9.93881 14.0445 10.6276 12.4879C11.3164 10.9314 12.4411 9.60756 13.8661 8.67645C15.291 7.74534 16.955 7.24678 18.6572 7.24101C20.3593 7.23524 22.0267 7.7225 23.4579 8.64393C24.8891 9.56535 26.0229 10.8815 26.7222 12.4334C27.4215 13.9853 27.6564 15.7064 27.3986 17.3889C27.1409 19.0715 26.4014 20.6433 25.2695 21.9147C25.7035 22.1354 26.1257 22.3786 26.5344 22.6434ZM18.6875 11.7504C17.8346 11.7504 17.0008 12.0033 16.2916 12.4772C15.5824 12.9511 15.0297 13.6246 14.7033 14.4126C14.3769 15.2006 14.2915 16.0677 14.4579 16.9042C14.6243 17.7408 15.035 18.5092 15.6381 19.1123C16.2412 19.7154 17.0096 20.1261 17.8462 20.2925C18.6827 20.4589 19.5498 20.3735 20.3378 20.0471C21.1258 19.7207 21.7993 19.168 22.2732 18.4588C22.7471 17.7496 23 16.9158 23 16.0629C22.9987 14.9196 22.5439 13.8234 21.7354 13.015C20.927 12.2065 19.8308 11.7517 18.6875 11.7504Z" fill="#CBDDFF"/>
</g>
</svg>
