<svg width="40" height="40" viewBox="0 0 40 40" fill="none" xmlns="http://www.w3.org/2000/svg">
<path d="M35.9102 20.5544L29.1133 17.8904C27.4453 17.238 25.6445 18.4646 25.6445 20.2537V33.6521C25.6445 35.0544 26.7812 36.1912 28.1836 36.1912H34.9805C36.3828 36.1912 37.5195 35.0544 37.5195 33.6521V22.9177C37.5234 21.8748 36.8828 20.9334 35.9102 20.5544ZM19.082 4.49585L4.23047 9.85913C3.22266 10.2224 2.55469 11.1794 2.55469 12.2498V33.6521C2.55469 35.0544 3.69141 36.1912 5.09375 36.1912H19.9453C21.3477 36.1912 22.4844 35.0544 22.4844 33.6521V6.88648C22.4844 5.12476 20.7383 3.8982 19.082 4.49585ZM16.9766 26.8865H7.70703C6.77344 26.8865 6.01172 26.1287 6.01172 25.1912C6.01172 24.2576 6.76953 23.4959 7.70703 23.4959H16.9766C17.9102 23.4959 18.6719 24.2537 18.6719 25.1912C18.6719 26.1287 17.9141 26.8865 16.9766 26.8865ZM16.9766 19.9685H7.70703C6.77344 19.9685 6.01172 19.2107 6.01172 18.2732C6.01172 17.3396 6.76953 16.5779 7.70703 16.5779H16.9766C17.9102 16.5779 18.6719 17.3357 18.6719 18.2732C18.6719 19.2107 17.9141 19.9685 16.9766 19.9685Z" fill="#CBDDFF"/>
</svg>
