<svg width="16" height="16" viewBox="0 0 16 16" fill="none" xmlns="http://www.w3.org/2000/svg">
<path d="M10.7481 6.85156C10.7481 6.54952 10.5032 6.30469 10.2012 6.30469C9.77568 6.30469 9.38718 6.46618 9.09376 6.73106C8.49671 6.16985 7.48835 6.1663 6.88736 6.72348C6.29706 6.1692 5.30044 6.16936 4.71031 6.72348C4.29233 6.33389 3.60089 6.19187 3.05079 6.40244V5.34766H14.4531C14.5762 5.34766 14.6957 5.30615 14.7923 5.22983C14.8888 5.15351 14.9568 5.04686 14.9852 4.92711C15.0137 4.80736 15.0009 4.68152 14.9489 4.56994C14.897 4.45837 14.8089 4.36758 14.699 4.31226L8.23215 1.05835C8.15575 1.01991 8.0714 0.999924 7.98587 1C7.90034 1.00008 7.81603 1.02021 7.73969 1.05879L1.30024 4.31269C1.19046 4.36816 1.10258 4.45902 1.0508 4.57059C0.99903 4.68216 0.986384 4.80793 1.01491 4.92757C1.04342 5.04722 1.11143 5.15375 1.20796 5.22998C1.30448 5.3062 1.42389 5.34766 1.54688 5.34766H1.95704V12.2656C1.95704 12.5677 2.20187 12.8125 2.50391 12.8125H9.09376C9.3958 12.8125 9.64063 12.5677 9.64063 12.2656V7.95898C9.64063 7.64989 9.89209 7.39844 10.2012 7.39844C10.5032 7.39844 10.7481 7.1536 10.7481 6.85156ZM7.98685 2.15932L12.1496 4.25391H3.84173L7.98685 2.15932ZM4.17188 11.7187H3.05079V7.95898C3.08166 7.21515 4.14128 7.21573 4.17188 7.95898V11.7187ZM6.33204 11.7187H5.26563V7.93164C5.295 7.22409 6.30292 7.22464 6.33204 7.93164V11.7187ZM8.54688 11.7187H7.42579V7.95898C7.42579 7.64989 7.67724 7.39844 7.98633 7.39844C8.29543 7.39844 8.54688 7.64989 8.54688 7.95898V11.7187ZM10.0781 14.4531C10.0781 14.7552 9.8333 15 9.53126 15H1.54688C0.821287 14.9711 0.821834 13.9349 1.54688 13.9063H9.53126C9.8333 13.9063 10.0781 14.1511 10.0781 14.4531ZM15 11.9906C15 12.9636 14.2716 13.7695 13.332 13.8905V14.4531C13.3032 15.1787 12.2669 15.1781 12.2383 14.4531V13.9062C11.3205 13.9024 10.575 13.1434 10.575 12.2109C10.575 11.9089 10.8198 11.664 11.1219 11.664C11.4239 11.664 11.6687 11.9089 11.6687 12.2109C11.6687 12.537 11.9327 12.8125 12.2452 12.8125H13.0864C14.1719 12.7673 14.1758 11.2181 13.0864 11.1734H12.6758C11.6469 11.1734 10.8054 10.3507 10.7677 9.32497C10.7669 9.31231 10.7669 9.22732 10.7677 9.21461C10.8001 8.34122 11.418 7.61544 12.2383 7.42182V6.74216C12.2672 6.01657 13.3034 6.01711 13.332 6.74216V7.39483C14.1228 7.52898 14.7266 8.21519 14.7266 9.03903C14.7266 9.34107 14.4817 9.58591 14.1797 9.58591C13.8777 9.58591 13.6328 9.34107 13.6328 9.03903C13.6328 8.72242 13.3709 8.46482 13.049 8.46482H12.6758C12.2316 8.46482 11.8692 8.82444 11.8603 9.26993C11.8692 9.71795 12.2316 10.0796 12.6758 10.0796H13.0864C14.1416 10.0797 15 10.9369 15 11.9906Z" fill="#1776FF"/>
</svg>
