<svg width="16" height="16" viewBox="0 0 16 16" fill="" xmlns="http://www.w3.org/2000/svg">
<path fill-rule="evenodd" clip-rule="evenodd" d="M15.0036 7.99839C15.0036 3.43527 10.6259 -0.115408 5.83461 1.32483C3.61722 1.9879 1.87754 3.7775 1.2715 6.01628C-0.0190097 10.7434 3.4675 15.0213 7.99497 14.9999L8.01636 13.9518C8.01279 13.9518 8.00923 13.9411 8.00566 13.9304C8.0021 13.9197 7.99853 13.9091 7.99497 13.9091C6.46204 13.9091 5.00042 12.9822 3.96659 11.9412C2.92563 10.8931 2.35524 9.45288 2.35524 7.977C2.35524 6.50111 2.91137 5.02523 3.95233 3.9914C4.99329 2.95044 6.5476 2.31588 8.01636 2.31588C9.49224 2.31588 11.0323 3.01461 12.0661 4.05557C13.1071 5.09653 13.6775 6.57954 13.6775 8.0483L15.0036 7.99839ZM7.25347 4.65449H9.44947L7.9522 7.26403H10.3193L6.61891 11.3209L8.04489 8.14813H5.97009L7.25347 4.65449ZM10.6014 8.93141C10.6014 8.16727 11.2266 7.54209 11.9907 7.54209C12.7548 7.54209 13.38 8.16727 13.38 8.93141C13.38 9.4133 13.1071 9.8952 12.6966 10.1066L14.3801 12.891H14.4221C14.7694 12.891 15.1167 13.2383 15.1168 13.5856V14.2803C15.1168 14.6971 14.8389 14.9749 14.4221 14.9749H9.55949C9.1427 14.9749 8.86483 14.6971 8.86483 14.2803V13.5856C8.86483 13.1688 9.1427 12.891 9.55949 12.891H9.66777L11.2366 10.0802C10.853 9.85691 10.6014 9.39416 10.6014 8.93141ZM13.3801 12.891H10.671L11.9908 10.3207L13.3801 12.891ZM11.9212 9.69553C11.9039 9.69553 11.8865 9.69445 11.8692 9.69241C11.8474 9.68986 11.8256 9.68582 11.8039 9.68055C11.7042 9.65641 11.6045 9.60657 11.5048 9.55672L11.5047 9.55668L11.5046 9.55661L11.5045 9.55664L11.5045 9.55659C11.2961 9.41766 11.2266 9.20926 11.2266 9.00087C11.2266 8.65354 11.5739 8.30621 11.9212 8.30621C12.338 8.30621 12.6159 8.65354 12.6159 9.00087C12.6854 9.20926 12.5464 9.41766 12.338 9.55659C12.309 9.5711 12.2831 9.5856 12.2582 9.59947C12.164 9.65204 12.0861 9.69553 11.9212 9.69553ZM9.55949 14.2803H14.4221V13.5856H9.55949V14.2803Z" fill=""/>
</svg>
